<?xml version="1.0" encoding="UTF-8" standalone="no"?>
<!DOCTYPE svg PUBLIC "-//W3C//DTD SVG 1.1//EN"
 "http://www.w3.org/Graphics/SVG/1.1/DTD/svg11.dtd">
<!-- Generated by graphviz version 2.43.0 (0)
 -->
<!-- Title: /root/fyp/project/src/parsergenerator/bnf/parsergenerator.h Pages: 1 -->
<svg width="315pt" height="218pt"
 viewBox="0.00 0.00 314.50 218.00" xmlns="http://www.w3.org/2000/svg" xmlns:xlink="http://www.w3.org/1999/xlink">
<g id="graph0" class="graph" transform="scale(1 1) rotate(0) translate(4 214)">
<title>/root/fyp/project/src/parsergenerator/bnf/parsergenerator.h</title>
<polygon fill="white" stroke="transparent" points="-4,4 -4,-214 310.5,-214 310.5,4 -4,4"/>
<!-- Node1 -->
<g id="node1" class="node">
<title>Node1</title>
<g id="a_node1"><a xlink:title=" ">
<polygon fill="#bfbfbf" stroke="black" points="177.5,-168.5 177.5,-209.5 293.5,-209.5 293.5,-168.5 177.5,-168.5"/>
<text text-anchor="start" x="185.5" y="-197.5" font-family="Helvetica,sans-Serif" font-size="10.00">/root/fyp/project/src</text>
<text text-anchor="start" x="185.5" y="-186.5" font-family="Helvetica,sans-Serif" font-size="10.00">/parsergenerator/bnf</text>
<text text-anchor="middle" x="235.5" y="-175.5" font-family="Helvetica,sans-Serif" font-size="10.00">/parsergenerator.h</text>
</a>
</g>
</g>
<!-- Node2 -->
<g id="node2" class="node">
<title>Node2</title>
<g id="a_node2"><a xlink:href="parsetree_8h.html" target="_top" xlink:title=" ">
<polygon fill="white" stroke="black" points="146.5,-112.5 146.5,-131.5 246.5,-131.5 246.5,-112.5 146.5,-112.5"/>
<text text-anchor="middle" x="196.5" y="-119.5" font-family="Helvetica,sans-Serif" font-size="10.00">../util/parsetree.h</text>
</a>
</g>
</g>
<!-- Node1&#45;&gt;Node2 -->
<g id="edge1" class="edge">
<title>Node1&#45;&gt;Node2</title>
<path fill="none" stroke="midnightblue" d="M223.8,-168.5C218.45,-159.59 212.17,-149.11 206.98,-140.46"/>
<polygon fill="midnightblue" stroke="midnightblue" points="209.84,-138.43 201.69,-131.65 203.84,-142.03 209.84,-138.43"/>
</g>
<!-- Node6 -->
<g id="node6" class="node">
<title>Node6</title>
<g id="a_node6"><a xlink:href="symbol_8h.html" target="_top" xlink:title=" ">
<polygon fill="white" stroke="black" points="244.5,-56.5 244.5,-75.5 306.5,-75.5 306.5,-56.5 244.5,-56.5"/>
<text text-anchor="middle" x="275.5" y="-63.5" font-family="Helvetica,sans-Serif" font-size="10.00">symbol.h</text>
</a>
</g>
</g>
<!-- Node1&#45;&gt;Node6 -->
<g id="edge7" class="edge">
<title>Node1&#45;&gt;Node6</title>
<path fill="none" stroke="midnightblue" d="M242.75,-168.38C246.65,-157.67 251.46,-144.15 255.5,-132 260.68,-116.42 266.13,-98.58 270.03,-85.54"/>
<polygon fill="midnightblue" stroke="midnightblue" points="273.41,-86.45 272.91,-75.87 266.7,-84.46 273.41,-86.45"/>
</g>
<!-- Node3 -->
<g id="node3" class="node">
<title>Node3</title>
<g id="a_node3"><a xlink:title=" ">
<polygon fill="white" stroke="#bfbfbf" points="0,-56.5 0,-75.5 47,-75.5 47,-56.5 0,-56.5"/>
<text text-anchor="middle" x="23.5" y="-63.5" font-family="Helvetica,sans-Serif" font-size="10.00">vector</text>
</a>
</g>
</g>
<!-- Node2&#45;&gt;Node3 -->
<g id="edge2" class="edge">
<title>Node2&#45;&gt;Node3</title>
<path fill="none" stroke="midnightblue" d="M169.09,-112.44C138.61,-102.93 89.38,-87.56 56.73,-77.37"/>
<polygon fill="midnightblue" stroke="midnightblue" points="57.76,-74.03 47.17,-74.39 55.67,-80.71 57.76,-74.03"/>
</g>
<!-- Node4 -->
<g id="node4" class="node">
<title>Node4</title>
<g id="a_node4"><a xlink:title=" ">
<polygon fill="white" stroke="#bfbfbf" points="65,-56.5 65,-75.5 148,-75.5 148,-56.5 65,-56.5"/>
<text text-anchor="middle" x="106.5" y="-63.5" font-family="Helvetica,sans-Serif" font-size="10.00">initializer_list</text>
</a>
</g>
</g>
<!-- Node2&#45;&gt;Node4 -->
<g id="edge3" class="edge">
<title>Node2&#45;&gt;Node4</title>
<path fill="none" stroke="midnightblue" d="M182.04,-112.32C168,-103.9 146.45,-90.97 129.96,-81.07"/>
<polygon fill="midnightblue" stroke="midnightblue" points="131.3,-77.8 120.92,-75.65 127.7,-83.8 131.3,-77.8"/>
</g>
<!-- Node5 -->
<g id="node5" class="node">
<title>Node5</title>
<g id="a_node5"><a xlink:title=" ">
<polygon fill="white" stroke="#bfbfbf" points="166.5,-56.5 166.5,-75.5 226.5,-75.5 226.5,-56.5 166.5,-56.5"/>
<text text-anchor="middle" x="196.5" y="-63.5" font-family="Helvetica,sans-Serif" font-size="10.00">iostream</text>
</a>
</g>
</g>
<!-- Node2&#45;&gt;Node5 -->
<g id="edge4" class="edge">
<title>Node2&#45;&gt;Node5</title>
<path fill="none" stroke="midnightblue" d="M196.5,-112.08C196.5,-105.01 196.5,-94.86 196.5,-85.99"/>
<polygon fill="midnightblue" stroke="midnightblue" points="200,-85.75 196.5,-75.75 193,-85.75 200,-85.75"/>
</g>
<!-- Node2&#45;&gt;Node6 -->
<g id="edge5" class="edge">
<title>Node2&#45;&gt;Node6</title>
<path fill="none" stroke="midnightblue" d="M209.19,-112.32C221.4,-103.98 240.08,-91.21 254.5,-81.35"/>
<polygon fill="midnightblue" stroke="midnightblue" points="256.56,-84.19 262.84,-75.65 252.61,-78.41 256.56,-84.19"/>
</g>
<!-- Node7 -->
<g id="node7" class="node">
<title>Node7</title>
<g id="a_node7"><a xlink:title=" ">
<polygon fill="white" stroke="#bfbfbf" points="253.5,-0.5 253.5,-19.5 297.5,-19.5 297.5,-0.5 253.5,-0.5"/>
<text text-anchor="middle" x="275.5" y="-7.5" font-family="Helvetica,sans-Serif" font-size="10.00">string</text>
</a>
</g>
</g>
<!-- Node6&#45;&gt;Node7 -->
<g id="edge6" class="edge">
<title>Node6&#45;&gt;Node7</title>
<path fill="none" stroke="midnightblue" d="M275.5,-56.08C275.5,-49.01 275.5,-38.86 275.5,-29.99"/>
<polygon fill="midnightblue" stroke="midnightblue" points="279,-29.75 275.5,-19.75 272,-29.75 279,-29.75"/>
</g>
</g>
</svg>
