<?xml version="1.0" encoding="UTF-8" standalone="no"?>
<!DOCTYPE svg PUBLIC "-//W3C//DTD SVG 1.1//EN"
 "http://www.w3.org/Graphics/SVG/1.1/DTD/svg11.dtd">
<!-- Generated by graphviz version 2.43.0 (0)
 -->
<!-- Title: ParseGen::GUI::Rule Pages: 1 -->
<svg width="334pt" height="651pt"
 viewBox="0.00 0.00 333.50 651.00" xmlns="http://www.w3.org/2000/svg" xmlns:xlink="http://www.w3.org/1999/xlink">
<g id="graph0" class="graph" transform="scale(1 1) rotate(0) translate(4 647)">
<title>ParseGen::GUI::Rule</title>
<polygon fill="white" stroke="transparent" points="-4,4 -4,-647 329.5,-647 329.5,4 -4,4"/>
<!-- Node1 -->
<g id="node1" class="node">
<title>Node1</title>
<g id="a_node1"><a xlink:title=" ">
<polygon fill="#bfbfbf" stroke="black" points="105.5,-0.5 105.5,-167.5 219.5,-167.5 219.5,-0.5 105.5,-0.5"/>
<text text-anchor="middle" x="162.5" y="-155.5" font-family="Helvetica,sans-Serif" font-size="10.00">ParseGen::GUI::Rule</text>
<polyline fill="none" stroke="black" points="105.5,-148.5 219.5,-148.5 "/>
<text text-anchor="start" x="113.5" y="-136.5" font-family="Helvetica,sans-Serif" font-size="10.00">+ m_Links</text>
<text text-anchor="start" x="113.5" y="-125.5" font-family="Helvetica,sans-Serif" font-size="10.00">+ m_Nodes</text>
<text text-anchor="start" x="113.5" y="-114.5" font-family="Helvetica,sans-Serif" font-size="10.00">+ m_Terminals</text>
<text text-anchor="start" x="113.5" y="-103.5" font-family="Helvetica,sans-Serif" font-size="10.00">+ id</text>
<text text-anchor="start" x="113.5" y="-92.5" font-family="Helvetica,sans-Serif" font-size="10.00">+ currentId</text>
<text text-anchor="start" x="113.5" y="-81.5" font-family="Helvetica,sans-Serif" font-size="10.00">&#45; m_Context</text>
<text text-anchor="start" x="113.5" y="-70.5" font-family="Helvetica,sans-Serif" font-size="10.00">&#45; m_FirstFrame</text>
<polyline fill="none" stroke="black" points="105.5,-63.5 219.5,-63.5 "/>
<text text-anchor="start" x="113.5" y="-51.5" font-family="Helvetica,sans-Serif" font-size="10.00">+ Rule()</text>
<text text-anchor="start" x="113.5" y="-40.5" font-family="Helvetica,sans-Serif" font-size="10.00">+ getName()</text>
<text text-anchor="start" x="113.5" y="-29.5" font-family="Helvetica,sans-Serif" font-size="10.00">+ getNonTermId()</text>
<text text-anchor="start" x="113.5" y="-18.5" font-family="Helvetica,sans-Serif" font-size="10.00">+ RenderFrame()</text>
<text text-anchor="start" x="113.5" y="-7.5" font-family="Helvetica,sans-Serif" font-size="10.00">+ BNF()</text>
</a>
</g>
</g>
<!-- Node2 -->
<g id="node2" class="node">
<title>Node2</title>
<g id="a_node2"><a xlink:href="class_parse_gen_1_1_g_u_i_1_1_special_node.html" target="_top" xlink:title=" ">
<polygon fill="white" stroke="black" points="0,-254 0,-311 153,-311 153,-254 0,-254"/>
<text text-anchor="middle" x="76.5" y="-299" font-family="Helvetica,sans-Serif" font-size="10.00">ParseGen::GUI::SpecialNode</text>
<polyline fill="none" stroke="black" points="0,-292 153,-292 "/>
<text text-anchor="middle" x="76.5" y="-280" font-family="Helvetica,sans-Serif" font-size="10.00"> </text>
<polyline fill="none" stroke="black" points="0,-273 153,-273 "/>
<text text-anchor="start" x="8" y="-261" font-family="Helvetica,sans-Serif" font-size="10.00">+ SpecialNode()</text>
</a>
</g>
</g>
<!-- Node2&#45;&gt;Node1 -->
<g id="edge1" class="edge">
<title>Node2&#45;&gt;Node1</title>
<path fill="none" stroke="#404040" d="M88.64,-253.76C97.27,-234.05 109.4,-206.34 121.34,-179.05"/>
<polygon fill="none" stroke="#404040" points="121.44,-178.82 120.18,-171.71 126.25,-167.82 127.51,-174.92 121.44,-178.82"/>
<text text-anchor="middle" x="155.5" y="-200" font-family="Helvetica,sans-Serif" font-size="10.00"> +m_StartNode</text>
<text text-anchor="middle" x="155.5" y="-189" font-family="Helvetica,sans-Serif" font-size="10.00">+m_EndNode</text>
</g>
<!-- Node3 -->
<g id="node3" class="node">
<title>Node3</title>
<g id="a_node3"><a xlink:href="class_parse_gen_1_1_g_u_i_1_1_node.html" target="_top" xlink:title=" ">
<polygon fill="white" stroke="black" points="17,-376.5 17,-642.5 136,-642.5 136,-376.5 17,-376.5"/>
<text text-anchor="middle" x="76.5" y="-630.5" font-family="Helvetica,sans-Serif" font-size="10.00">ParseGen::GUI::Node</text>
<polyline fill="none" stroke="black" points="17,-623.5 136,-623.5 "/>
<text text-anchor="start" x="25" y="-611.5" font-family="Helvetica,sans-Serif" font-size="10.00">+ id</text>
<text text-anchor="start" x="25" y="-600.5" font-family="Helvetica,sans-Serif" font-size="10.00">+ nodeId</text>
<text text-anchor="start" x="25" y="-589.5" font-family="Helvetica,sans-Serif" font-size="10.00">+ inPin</text>
<text text-anchor="start" x="25" y="-578.5" font-family="Helvetica,sans-Serif" font-size="10.00">+ outPin</text>
<text text-anchor="start" x="25" y="-567.5" font-family="Helvetica,sans-Serif" font-size="10.00">+ inIsConnected</text>
<text text-anchor="start" x="25" y="-556.5" font-family="Helvetica,sans-Serif" font-size="10.00">+ outIsConnected</text>
<text text-anchor="start" x="25" y="-545.5" font-family="Helvetica,sans-Serif" font-size="10.00">+ numOutConnected</text>
<text text-anchor="start" x="25" y="-534.5" font-family="Helvetica,sans-Serif" font-size="10.00">+ numInConnected</text>
<text text-anchor="start" x="25" y="-523.5" font-family="Helvetica,sans-Serif" font-size="10.00">+ x</text>
<text text-anchor="start" x="25" y="-512.5" font-family="Helvetica,sans-Serif" font-size="10.00">+ y</text>
<text text-anchor="start" x="25" y="-501.5" font-family="Helvetica,sans-Serif" font-size="10.00">+ name</text>
<text text-anchor="start" x="25" y="-490.5" font-family="Helvetica,sans-Serif" font-size="10.00">+ nextLinks</text>
<text text-anchor="start" x="25" y="-479.5" font-family="Helvetica,sans-Serif" font-size="10.00">+ iconType</text>
<text text-anchor="start" x="25" y="-468.5" font-family="Helvetica,sans-Serif" font-size="10.00">+ pinColor</text>
<text text-anchor="start" x="25" y="-457.5" font-family="Helvetica,sans-Serif" font-size="10.00">+ innerPinColor</text>
<text text-anchor="start" x="25" y="-446.5" font-family="Helvetica,sans-Serif" font-size="10.00">+ currentId</text>
<text text-anchor="start" x="25" y="-435.5" font-family="Helvetica,sans-Serif" font-size="10.00">+ IconSize</text>
<polyline fill="none" stroke="black" points="17,-428.5 136,-428.5 "/>
<text text-anchor="start" x="25" y="-416.5" font-family="Helvetica,sans-Serif" font-size="10.00">+ Node()</text>
<text text-anchor="start" x="25" y="-405.5" font-family="Helvetica,sans-Serif" font-size="10.00">+ Update()</text>
<text text-anchor="start" x="25" y="-394.5" font-family="Helvetica,sans-Serif" font-size="10.00">+ RenderFrame()</text>
<text text-anchor="start" x="25" y="-383.5" font-family="Helvetica,sans-Serif" font-size="10.00">+ ~Node()</text>
</a>
</g>
</g>
<!-- Node3&#45;&gt;Node2 -->
<g id="edge2" class="edge">
<title>Node3&#45;&gt;Node2</title>
<path fill="none" stroke="midnightblue" d="M76.5,-366.28C76.5,-345.36 76.5,-325.92 76.5,-311.14"/>
<polygon fill="none" stroke="midnightblue" points="73,-366.32 76.5,-376.32 80,-366.32 73,-366.32"/>
</g>
<!-- Node4 -->
<g id="node4" class="node">
<title>Node4</title>
<g id="a_node4"><a xlink:href="class_parse_gen_1_1_g_u_i_1_1_non_terminal.html" target="_top" xlink:title=" ">
<polygon fill="white" stroke="black" points="171.5,-226.5 171.5,-338.5 325.5,-338.5 325.5,-226.5 171.5,-226.5"/>
<text text-anchor="middle" x="248.5" y="-326.5" font-family="Helvetica,sans-Serif" font-size="10.00">ParseGen::GUI::NonTerminal</text>
<polyline fill="none" stroke="black" points="171.5,-319.5 325.5,-319.5 "/>
<text text-anchor="start" x="179.5" y="-307.5" font-family="Helvetica,sans-Serif" font-size="10.00">+ id</text>
<text text-anchor="start" x="179.5" y="-296.5" font-family="Helvetica,sans-Serif" font-size="10.00">+ name</text>
<text text-anchor="start" x="179.5" y="-285.5" font-family="Helvetica,sans-Serif" font-size="10.00">+ isStartSymbol</text>
<text text-anchor="start" x="179.5" y="-274.5" font-family="Helvetica,sans-Serif" font-size="10.00">+ current_id</text>
<text text-anchor="start" x="179.5" y="-263.5" font-family="Helvetica,sans-Serif" font-size="10.00">+ allNonTerminals</text>
<polyline fill="none" stroke="black" points="171.5,-256.5 325.5,-256.5 "/>
<text text-anchor="start" x="179.5" y="-244.5" font-family="Helvetica,sans-Serif" font-size="10.00">+ NonTerminal()</text>
<text text-anchor="start" x="179.5" y="-233.5" font-family="Helvetica,sans-Serif" font-size="10.00">+ rename()</text>
</a>
</g>
</g>
<!-- Node4&#45;&gt;Node1 -->
<g id="edge3" class="edge">
<title>Node4&#45;&gt;Node1</title>
<path fill="none" stroke="#404040" d="M224.32,-226.24C217.86,-211.48 210.69,-195.12 203.6,-178.9"/>
<polygon fill="none" stroke="#404040" points="203.52,-178.72 197.45,-174.83 198.71,-167.73 204.78,-171.62 203.52,-178.72"/>
<text text-anchor="middle" x="239.5" y="-194.5" font-family="Helvetica,sans-Serif" font-size="10.00"> +symbol</text>
</g>
</g>
</svg>
