<?xml version="1.0" encoding="UTF-8" standalone="no"?>
<!DOCTYPE svg PUBLIC "-//W3C//DTD SVG 1.1//EN"
 "http://www.w3.org/Graphics/SVG/1.1/DTD/svg11.dtd">
<!-- Generated by graphviz version 2.43.0 (0)
 -->
<!-- Title: ParseGen::GUI::NonTerminalNode Pages: 1 -->
<svg width="187pt" height="391pt"
 viewBox="0.00 0.00 187.00 391.00" xmlns="http://www.w3.org/2000/svg" xmlns:xlink="http://www.w3.org/1999/xlink">
<g id="graph0" class="graph" transform="scale(1 1) rotate(0) translate(4 387)">
<title>ParseGen::GUI::NonTerminalNode</title>
<polygon fill="white" stroke="transparent" points="-4,4 -4,-387 183,-387 183,4 -4,4"/>
<!-- Node1 -->
<g id="node1" class="node">
<title>Node1</title>
<g id="a_node1"><a xlink:title=" ">
<polygon fill="#bfbfbf" stroke="black" points="0,-0.5 0,-79.5 179,-79.5 179,-0.5 0,-0.5"/>
<text text-anchor="middle" x="89.5" y="-67.5" font-family="Helvetica,sans-Serif" font-size="10.00">ParseGen::GUI::NonTerminalNode</text>
<polyline fill="none" stroke="black" points="0,-60.5 179,-60.5 "/>
<text text-anchor="start" x="8" y="-48.5" font-family="Helvetica,sans-Serif" font-size="10.00">+ value</text>
<text text-anchor="start" x="8" y="-37.5" font-family="Helvetica,sans-Serif" font-size="10.00">+ id</text>
<polyline fill="none" stroke="black" points="0,-30.5 179,-30.5 "/>
<text text-anchor="start" x="8" y="-18.5" font-family="Helvetica,sans-Serif" font-size="10.00">+ NonTerminalNode()</text>
<text text-anchor="start" x="8" y="-7.5" font-family="Helvetica,sans-Serif" font-size="10.00">+ Update()</text>
</a>
</g>
</g>
<!-- Node2 -->
<g id="node2" class="node">
<title>Node2</title>
<g id="a_node2"><a xlink:href="class_parse_gen_1_1_g_u_i_1_1_node.html" target="_top" xlink:title=" ">
<polygon fill="white" stroke="black" points="30,-116.5 30,-382.5 149,-382.5 149,-116.5 30,-116.5"/>
<text text-anchor="middle" x="89.5" y="-370.5" font-family="Helvetica,sans-Serif" font-size="10.00">ParseGen::GUI::Node</text>
<polyline fill="none" stroke="black" points="30,-363.5 149,-363.5 "/>
<text text-anchor="start" x="38" y="-351.5" font-family="Helvetica,sans-Serif" font-size="10.00">+ id</text>
<text text-anchor="start" x="38" y="-340.5" font-family="Helvetica,sans-Serif" font-size="10.00">+ nodeId</text>
<text text-anchor="start" x="38" y="-329.5" font-family="Helvetica,sans-Serif" font-size="10.00">+ inPin</text>
<text text-anchor="start" x="38" y="-318.5" font-family="Helvetica,sans-Serif" font-size="10.00">+ outPin</text>
<text text-anchor="start" x="38" y="-307.5" font-family="Helvetica,sans-Serif" font-size="10.00">+ inIsConnected</text>
<text text-anchor="start" x="38" y="-296.5" font-family="Helvetica,sans-Serif" font-size="10.00">+ outIsConnected</text>
<text text-anchor="start" x="38" y="-285.5" font-family="Helvetica,sans-Serif" font-size="10.00">+ numOutConnected</text>
<text text-anchor="start" x="38" y="-274.5" font-family="Helvetica,sans-Serif" font-size="10.00">+ numInConnected</text>
<text text-anchor="start" x="38" y="-263.5" font-family="Helvetica,sans-Serif" font-size="10.00">+ x</text>
<text text-anchor="start" x="38" y="-252.5" font-family="Helvetica,sans-Serif" font-size="10.00">+ y</text>
<text text-anchor="start" x="38" y="-241.5" font-family="Helvetica,sans-Serif" font-size="10.00">+ name</text>
<text text-anchor="start" x="38" y="-230.5" font-family="Helvetica,sans-Serif" font-size="10.00">+ nextLinks</text>
<text text-anchor="start" x="38" y="-219.5" font-family="Helvetica,sans-Serif" font-size="10.00">+ iconType</text>
<text text-anchor="start" x="38" y="-208.5" font-family="Helvetica,sans-Serif" font-size="10.00">+ pinColor</text>
<text text-anchor="start" x="38" y="-197.5" font-family="Helvetica,sans-Serif" font-size="10.00">+ innerPinColor</text>
<text text-anchor="start" x="38" y="-186.5" font-family="Helvetica,sans-Serif" font-size="10.00">+ currentId</text>
<text text-anchor="start" x="38" y="-175.5" font-family="Helvetica,sans-Serif" font-size="10.00">+ IconSize</text>
<polyline fill="none" stroke="black" points="30,-168.5 149,-168.5 "/>
<text text-anchor="start" x="38" y="-156.5" font-family="Helvetica,sans-Serif" font-size="10.00">+ Node()</text>
<text text-anchor="start" x="38" y="-145.5" font-family="Helvetica,sans-Serif" font-size="10.00">+ Update()</text>
<text text-anchor="start" x="38" y="-134.5" font-family="Helvetica,sans-Serif" font-size="10.00">+ RenderFrame()</text>
<text text-anchor="start" x="38" y="-123.5" font-family="Helvetica,sans-Serif" font-size="10.00">+ ~Node()</text>
</a>
</g>
</g>
<!-- Node2&#45;&gt;Node1 -->
<g id="edge1" class="edge">
<title>Node2&#45;&gt;Node1</title>
<path fill="none" stroke="midnightblue" d="M89.5,-106.39C89.5,-96.84 89.5,-87.8 89.5,-79.66"/>
<polygon fill="none" stroke="midnightblue" points="86,-106.5 89.5,-116.5 93,-106.5 86,-106.5"/>
</g>
</g>
</svg>
