<?xml version="1.0" encoding="UTF-8" standalone="no"?>
<!DOCTYPE svg PUBLIC "-//W3C//DTD SVG 1.1//EN"
 "http://www.w3.org/Graphics/SVG/1.1/DTD/svg11.dtd">
<!-- Generated by graphviz version 2.43.0 (0)
 -->
<!-- Title: ParseGen::Parser::LLPredictiveParser::LLPredictiveParserGenerator::Create Pages: 1 -->
<svg width="420pt" height="50pt"
 viewBox="0.00 0.00 420.00 50.00" xmlns="http://www.w3.org/2000/svg" xmlns:xlink="http://www.w3.org/1999/xlink">
<g id="graph0" class="graph" transform="scale(1 1) rotate(0) translate(4 46)">
<title>ParseGen::Parser::LLPredictiveParser::LLPredictiveParserGenerator::Create</title>
<polygon fill="white" stroke="transparent" points="-4,4 -4,-46 416,-46 416,4 -4,4"/>
<!-- Node1 -->
<g id="node1" class="node">
<title>Node1</title>
<g id="a_node1"><a xlink:title=" ">
<polygon fill="#bfbfbf" stroke="black" points="221,-0.5 221,-41.5 412,-41.5 412,-0.5 221,-0.5"/>
<text text-anchor="start" x="229" y="-29.5" font-family="Helvetica,sans-Serif" font-size="10.00">ParseGen::Parser::LLPredictive</text>
<text text-anchor="start" x="229" y="-18.5" font-family="Helvetica,sans-Serif" font-size="10.00">Parser::LLPredictiveParserGenerator</text>
<text text-anchor="middle" x="316.5" y="-7.5" font-family="Helvetica,sans-Serif" font-size="10.00">::Create</text>
</a>
</g>
</g>
<!-- Node2 -->
<g id="node2" class="node">
<title>Node2</title>
<g id="a_node2"><a xlink:href="class_parse_gen_1_1_parser_1_1_parser_generator_factory.html#ac66b02ca8b2861ed3c53907114a856e2" target="_top" xlink:title=" ">
<polygon fill="white" stroke="black" points="0,-0.5 0,-41.5 185,-41.5 185,-0.5 0,-0.5"/>
<text text-anchor="start" x="8" y="-29.5" font-family="Helvetica,sans-Serif" font-size="10.00">ParseGen::Parser::Parser</text>
<text text-anchor="start" x="8" y="-18.5" font-family="Helvetica,sans-Serif" font-size="10.00">GeneratorFactory::ParserGenerator</text>
<text text-anchor="middle" x="92.5" y="-7.5" font-family="Helvetica,sans-Serif" font-size="10.00">Factory</text>
</a>
</g>
</g>
<!-- Node1&#45;&gt;Node2 -->
<g id="edge1" class="edge">
<title>Node1&#45;&gt;Node2</title>
<path fill="none" stroke="midnightblue" d="M210.44,-21C201.99,-21 193.5,-21 185.15,-21"/>
<polygon fill="midnightblue" stroke="midnightblue" points="210.71,-24.5 220.71,-21 210.71,-17.5 210.71,-24.5"/>
</g>
</g>
</svg>
