<?xml version="1.0" encoding="UTF-8" standalone="no"?>
<!DOCTYPE svg PUBLIC "-//W3C//DTD SVG 1.1//EN"
 "http://www.w3.org/Graphics/SVG/1.1/DTD/svg11.dtd">
<!-- Generated by graphviz version 2.43.0 (0)
 -->
<!-- Title: ParseGen::GUI::MainEditor::teardown Pages: 1 -->
<svg width="592pt" height="61pt"
 viewBox="0.00 0.00 592.00 61.00" xmlns="http://www.w3.org/2000/svg" xmlns:xlink="http://www.w3.org/1999/xlink">
<g id="graph0" class="graph" transform="scale(1 1) rotate(0) translate(4 57)">
<title>ParseGen::GUI::MainEditor::teardown</title>
<polygon fill="white" stroke="transparent" points="-4,4 -4,-57 588,-57 588,4 -4,4"/>
<!-- Node1 -->
<g id="node1" class="node">
<title>Node1</title>
<g id="a_node1"><a xlink:title=" ">
<polygon fill="#bfbfbf" stroke="black" points="439,-0.5 439,-30.5 584,-30.5 584,-0.5 439,-0.5"/>
<text text-anchor="start" x="447" y="-18.5" font-family="Helvetica,sans-Serif" font-size="10.00">ParseGen::GUI::MainEditor</text>
<text text-anchor="middle" x="511.5" y="-7.5" font-family="Helvetica,sans-Serif" font-size="10.00">::teardown</text>
</a>
</g>
</g>
<!-- Node2 -->
<g id="node2" class="node">
<title>Node2</title>
<g id="a_node2"><a xlink:href="class_parse_gen_1_1_g_u_i_1_1_main_editor.html#a81e5e1ec071ae0e81cfdf344aa5b78ed" target="_top" xlink:title=" ">
<polygon fill="white" stroke="black" points="258,-22.5 258,-52.5 403,-52.5 403,-22.5 258,-22.5"/>
<text text-anchor="start" x="266" y="-40.5" font-family="Helvetica,sans-Serif" font-size="10.00">ParseGen::GUI::MainEditor</text>
<text text-anchor="middle" x="330.5" y="-29.5" font-family="Helvetica,sans-Serif" font-size="10.00">::initGLFW</text>
</a>
</g>
</g>
<!-- Node1&#45;&gt;Node2 -->
<g id="edge1" class="edge">
<title>Node1&#45;&gt;Node2</title>
<path fill="none" stroke="midnightblue" d="M428.96,-25.52C420.36,-26.58 411.67,-27.65 403.2,-28.69"/>
<polygon fill="midnightblue" stroke="midnightblue" points="429.48,-28.98 438.98,-24.29 428.63,-22.04 429.48,-28.98"/>
</g>
<!-- Node3 -->
<g id="node3" class="node">
<title>Node3</title>
<g id="a_node3"><a xlink:href="class_parse_gen_1_1_g_u_i_1_1_main_editor.html#a79634f787b0d0c3f00a4a1d78fb69677" target="_top" xlink:title=" ">
<polygon fill="white" stroke="black" points="77,-0.5 77,-30.5 222,-30.5 222,-0.5 77,-0.5"/>
<text text-anchor="start" x="85" y="-18.5" font-family="Helvetica,sans-Serif" font-size="10.00">ParseGen::GUI::MainEditor</text>
<text text-anchor="middle" x="149.5" y="-7.5" font-family="Helvetica,sans-Serif" font-size="10.00">::Start</text>
</a>
</g>
</g>
<!-- Node1&#45;&gt;Node3 -->
<g id="edge4" class="edge">
<title>Node1&#45;&gt;Node3</title>
<path fill="none" stroke="midnightblue" d="M428.66,-13.82C420,-13.69 411.32,-13.58 403,-13.5 338.56,-12.9 322.44,-12.9 258,-13.5 246.43,-13.61 234.15,-13.78 222.2,-13.98"/>
<polygon fill="midnightblue" stroke="midnightblue" points="428.75,-17.32 438.8,-13.98 428.86,-10.32 428.75,-17.32"/>
</g>
<!-- Node2&#45;&gt;Node3 -->
<g id="edge2" class="edge">
<title>Node2&#45;&gt;Node3</title>
<path fill="none" stroke="midnightblue" d="M247.96,-27.48C239.36,-26.42 230.67,-25.35 222.2,-24.31"/>
<polygon fill="midnightblue" stroke="midnightblue" points="247.63,-30.96 257.98,-28.71 248.48,-24.02 247.63,-30.96"/>
</g>
<!-- Node4 -->
<g id="node4" class="node">
<title>Node4</title>
<g id="a_node4"><a xlink:href="main_8cpp.html#ae66f6b31b5ad750f1fe042a706a4e3d4" target="_top" xlink:title=" ">
<polygon fill="white" stroke="black" points="0,-6 0,-25 41,-25 41,-6 0,-6"/>
<text text-anchor="middle" x="20.5" y="-13" font-family="Helvetica,sans-Serif" font-size="10.00">main</text>
</a>
</g>
</g>
<!-- Node3&#45;&gt;Node4 -->
<g id="edge3" class="edge">
<title>Node3&#45;&gt;Node4</title>
<path fill="none" stroke="midnightblue" d="M66.79,-15.5C57.31,-15.5 48.43,-15.5 41.08,-15.5"/>
<polygon fill="midnightblue" stroke="midnightblue" points="66.83,-19 76.83,-15.5 66.83,-12 66.83,-19"/>
</g>
</g>
</svg>
