<?xml version="1.0" encoding="UTF-8" standalone="no"?>
<!DOCTYPE svg PUBLIC "-//W3C//DTD SVG 1.1//EN"
 "http://www.w3.org/Graphics/SVG/1.1/DTD/svg11.dtd">
<!-- Generated by graphviz version 2.43.0 (0)
 -->
<!-- Title: ParseGen::GUI::Rule::BNF Pages: 1 -->
<svg width="325pt" height="78pt"
 viewBox="0.00 0.00 325.00 77.50" xmlns="http://www.w3.org/2000/svg" xmlns:xlink="http://www.w3.org/1999/xlink">
<g id="graph0" class="graph" transform="scale(1 1) rotate(0) translate(4 73.5)">
<title>ParseGen::GUI::Rule::BNF</title>
<polygon fill="white" stroke="transparent" points="-4,4 -4,-73.5 321,-73.5 321,4 -4,4"/>
<!-- Node1 -->
<g id="node1" class="node">
<title>Node1</title>
<g id="a_node1"><a xlink:title=" ">
<polygon fill="#bfbfbf" stroke="black" points="0,-22.5 0,-41.5 140,-41.5 140,-22.5 0,-22.5"/>
<text text-anchor="middle" x="70" y="-29.5" font-family="Helvetica,sans-Serif" font-size="10.00">ParseGen::GUI::Rule::BNF</text>
</a>
</g>
</g>
<!-- Node2 -->
<g id="node2" class="node">
<title>Node2</title>
<g id="a_node2"><a xlink:href="class_parse_gen_1_1_g_u_i_1_1_rule.html#ad39d96bb373c18ddf512bb0b69fb18bf" target="_top" xlink:title=" ">
<polygon fill="white" stroke="black" points="189.5,-39 189.5,-69 303.5,-69 303.5,-39 189.5,-39"/>
<text text-anchor="start" x="197.5" y="-57" font-family="Helvetica,sans-Serif" font-size="10.00">ParseGen::GUI::Rule</text>
<text text-anchor="middle" x="246.5" y="-46" font-family="Helvetica,sans-Serif" font-size="10.00">::getName</text>
</a>
</g>
</g>
<!-- Node1&#45;&gt;Node2 -->
<g id="edge1" class="edge">
<title>Node1&#45;&gt;Node2</title>
<path fill="none" stroke="midnightblue" d="M140.22,-40.73C153.06,-42.35 166.44,-44.03 179.19,-45.64"/>
<polygon fill="midnightblue" stroke="midnightblue" points="178.9,-49.13 189.26,-46.91 179.77,-42.19 178.9,-49.13"/>
</g>
<!-- Node3 -->
<g id="node3" class="node">
<title>Node3</title>
<g id="a_node3"><a xlink:href="namespace_parse_gen_1_1_g_u_i.html#a4549d14acce2df18784cefb0928fde5c" target="_top" xlink:title=" ">
<polygon fill="white" stroke="black" points="176,-0.5 176,-19.5 317,-19.5 317,-0.5 176,-0.5"/>
<text text-anchor="middle" x="246.5" y="-7.5" font-family="Helvetica,sans-Serif" font-size="10.00">ParseGen::GUI::printPaths</text>
</a>
</g>
</g>
<!-- Node1&#45;&gt;Node3 -->
<g id="edge2" class="edge">
<title>Node1&#45;&gt;Node3</title>
<path fill="none" stroke="midnightblue" d="M140.22,-23.27C148.63,-22.21 157.28,-21.12 165.82,-20.05"/>
<polygon fill="midnightblue" stroke="midnightblue" points="166.31,-23.51 175.79,-18.79 165.44,-16.57 166.31,-23.51"/>
</g>
</g>
</svg>
