<?xml version="1.0" encoding="UTF-8" standalone="no"?>
<!DOCTYPE svg PUBLIC "-//W3C//DTD SVG 1.1//EN"
 "http://www.w3.org/Graphics/SVG/1.1/DTD/svg11.dtd">
<!-- Generated by graphviz version 2.43.0 (0)
 -->
<!-- Title: ParseGen::GUI::MainEditor::Start Pages: 1 -->
<svg width="1079pt" height="498pt"
 viewBox="0.00 0.00 1079.00 498.00" xmlns="http://www.w3.org/2000/svg" xmlns:xlink="http://www.w3.org/1999/xlink">
<g id="graph0" class="graph" transform="scale(1 1) rotate(0) translate(4 494)">
<title>ParseGen::GUI::MainEditor::Start</title>
<polygon fill="white" stroke="transparent" points="-4,4 -4,-494 1075,-494 1075,4 -4,4"/>
<!-- Node1 -->
<g id="node1" class="node">
<title>Node1</title>
<g id="a_node1"><a xlink:title=" ">
<polygon fill="#bfbfbf" stroke="black" points="0,-415.5 0,-445.5 145,-445.5 145,-415.5 0,-415.5"/>
<text text-anchor="start" x="8" y="-433.5" font-family="Helvetica,sans-Serif" font-size="10.00">ParseGen::GUI::MainEditor</text>
<text text-anchor="middle" x="72.5" y="-422.5" font-family="Helvetica,sans-Serif" font-size="10.00">::Start</text>
</a>
</g>
</g>
<!-- Node2 -->
<g id="node2" class="node">
<title>Node2</title>
<g id="a_node2"><a xlink:href="class_parse_gen_1_1_g_u_i_1_1_main_editor.html#a81e5e1ec071ae0e81cfdf344aa5b78ed" target="_top" xlink:title=" ">
<polygon fill="white" stroke="black" points="181,-459.5 181,-489.5 326,-489.5 326,-459.5 181,-459.5"/>
<text text-anchor="start" x="189" y="-477.5" font-family="Helvetica,sans-Serif" font-size="10.00">ParseGen::GUI::MainEditor</text>
<text text-anchor="middle" x="253.5" y="-466.5" font-family="Helvetica,sans-Serif" font-size="10.00">::initGLFW</text>
</a>
</g>
</g>
<!-- Node1&#45;&gt;Node2 -->
<g id="edge1" class="edge">
<title>Node1&#45;&gt;Node2</title>
<path fill="none" stroke="midnightblue" d="M134.6,-445.52C149.64,-449.22 165.87,-453.21 181.34,-457.01"/>
<polygon fill="midnightblue" stroke="midnightblue" points="180.82,-460.49 191.37,-459.47 182.5,-453.69 180.82,-460.49"/>
</g>
<!-- Node3 -->
<g id="node3" class="node">
<title>Node3</title>
<g id="a_node3"><a xlink:href="class_parse_gen_1_1_g_u_i_1_1_main_editor.html#ac3c8425e70057ad3f38829456d1fe002" target="_top" xlink:title=" ">
<polygon fill="white" stroke="black" points="362.5,-459.5 362.5,-489.5 507.5,-489.5 507.5,-459.5 362.5,-459.5"/>
<text text-anchor="start" x="370.5" y="-477.5" font-family="Helvetica,sans-Serif" font-size="10.00">ParseGen::GUI::MainEditor</text>
<text text-anchor="middle" x="435" y="-466.5" font-family="Helvetica,sans-Serif" font-size="10.00">::teardown</text>
</a>
</g>
</g>
<!-- Node1&#45;&gt;Node3 -->
<g id="edge22" class="edge">
<title>Node1&#45;&gt;Node3</title>
<path fill="none" stroke="midnightblue" d="M145.09,-433.5C195.81,-436.28 265.33,-441.4 326,-450.5 338.22,-452.33 351.11,-454.76 363.57,-457.36"/>
<polygon fill="midnightblue" stroke="midnightblue" points="362.94,-460.81 373.45,-459.48 364.4,-453.96 362.94,-460.81"/>
</g>
<!-- Node4 -->
<g id="node4" class="node">
<title>Node4</title>
<g id="a_node4"><a xlink:href="class_parse_gen_1_1_g_u_i_1_1_main_editor.html#a8cb7930ca709c3de86c173bb8ad29bd1" target="_top" xlink:title=" ">
<polygon fill="white" stroke="black" points="181,-371.5 181,-401.5 326,-401.5 326,-371.5 181,-371.5"/>
<text text-anchor="start" x="189" y="-389.5" font-family="Helvetica,sans-Serif" font-size="10.00">ParseGen::GUI::MainEditor</text>
<text text-anchor="middle" x="253.5" y="-378.5" font-family="Helvetica,sans-Serif" font-size="10.00">::RenderFrame</text>
</a>
</g>
</g>
<!-- Node1&#45;&gt;Node4 -->
<g id="edge3" class="edge">
<title>Node1&#45;&gt;Node4</title>
<path fill="none" stroke="midnightblue" d="M134.6,-415.48C149.64,-411.78 165.87,-407.79 181.34,-403.99"/>
<polygon fill="midnightblue" stroke="midnightblue" points="182.5,-407.31 191.37,-401.53 180.82,-400.51 182.5,-407.31"/>
</g>
<!-- Node2&#45;&gt;Node3 -->
<g id="edge2" class="edge">
<title>Node2&#45;&gt;Node3</title>
<path fill="none" stroke="midnightblue" d="M326.22,-474.5C334.78,-474.5 343.57,-474.5 352.26,-474.5"/>
<polygon fill="midnightblue" stroke="midnightblue" points="352.4,-478 362.4,-474.5 352.4,-471 352.4,-478"/>
</g>
<!-- Node5 -->
<g id="node5" class="node">
<title>Node5</title>
<g id="a_node5"><a xlink:href="class_parse_gen_1_1_g_u_i_1_1_main_editor.html#a11943a4f17d30c54ffe35b079a37d681" target="_top" xlink:title=" ">
<polygon fill="white" stroke="black" points="562.5,-404.5 562.5,-434.5 707.5,-434.5 707.5,-404.5 562.5,-404.5"/>
<text text-anchor="start" x="570.5" y="-422.5" font-family="Helvetica,sans-Serif" font-size="10.00">ParseGen::GUI::MainEditor</text>
<text text-anchor="middle" x="635" y="-411.5" font-family="Helvetica,sans-Serif" font-size="10.00">::addRule</text>
</a>
</g>
</g>
<!-- Node4&#45;&gt;Node5 -->
<g id="edge4" class="edge">
<title>Node4&#45;&gt;Node5</title>
<path fill="none" stroke="midnightblue" d="M309.63,-401.54C326.33,-405.49 344.8,-409.27 362,-411.5 425.49,-419.73 497.98,-421.49 552.15,-421.32"/>
<polygon fill="midnightblue" stroke="midnightblue" points="552.41,-424.82 562.39,-421.27 552.37,-417.82 552.41,-424.82"/>
</g>
<!-- Node6 -->
<g id="node6" class="node">
<title>Node6</title>
<g id="a_node6"><a xlink:href="class_parse_gen_1_1_g_u_i_1_1_main_editor.html#ad0daa9dc59138ad797772f5d9b041d06" target="_top" xlink:title=" ">
<polygon fill="white" stroke="black" points="362,-371.5 362,-401.5 508,-401.5 508,-371.5 362,-371.5"/>
<text text-anchor="start" x="370" y="-389.5" font-family="Helvetica,sans-Serif" font-size="10.00">ParseGen::GUI::MainEditor</text>
<text text-anchor="middle" x="435" y="-378.5" font-family="Helvetica,sans-Serif" font-size="10.00">::nonTerminalsCollapseGui</text>
</a>
</g>
</g>
<!-- Node4&#45;&gt;Node6 -->
<g id="edge5" class="edge">
<title>Node4&#45;&gt;Node6</title>
<path fill="none" stroke="midnightblue" d="M326.22,-386.5C334.55,-386.5 343.1,-386.5 351.56,-386.5"/>
<polygon fill="midnightblue" stroke="midnightblue" points="351.81,-390 361.81,-386.5 351.81,-383 351.81,-390"/>
</g>
<!-- Node7 -->
<g id="node7" class="node">
<title>Node7</title>
<g id="a_node7"><a xlink:href="class_parse_gen_1_1_g_u_i_1_1_main_editor.html#a0852bbc6c65396299a43ca2eafa3c42b" target="_top" xlink:title=" ">
<polygon fill="white" stroke="black" points="362.5,-322.5 362.5,-352.5 507.5,-352.5 507.5,-322.5 362.5,-322.5"/>
<text text-anchor="start" x="370.5" y="-340.5" font-family="Helvetica,sans-Serif" font-size="10.00">ParseGen::GUI::MainEditor</text>
<text text-anchor="middle" x="435" y="-329.5" font-family="Helvetica,sans-Serif" font-size="10.00">::rulesCollapseGui</text>
</a>
</g>
</g>
<!-- Node4&#45;&gt;Node7 -->
<g id="edge6" class="edge">
<title>Node4&#45;&gt;Node7</title>
<path fill="none" stroke="midnightblue" d="M309.82,-371.4C328.59,-366.27 349.73,-360.5 369.17,-355.2"/>
<polygon fill="midnightblue" stroke="midnightblue" points="370.14,-358.56 378.86,-352.55 368.29,-351.81 370.14,-358.56"/>
</g>
<!-- Node9 -->
<g id="node9" class="node">
<title>Node9</title>
<g id="a_node9"><a xlink:href="class_parse_gen_1_1_g_u_i_1_1_main_editor.html#ae50424eb009179d7c6942550e3ec7a9a" target="_top" xlink:title=" ">
<polygon fill="white" stroke="black" points="362.5,-169.5 362.5,-199.5 507.5,-199.5 507.5,-169.5 362.5,-169.5"/>
<text text-anchor="start" x="370.5" y="-187.5" font-family="Helvetica,sans-Serif" font-size="10.00">ParseGen::GUI::MainEditor</text>
<text text-anchor="middle" x="435" y="-176.5" font-family="Helvetica,sans-Serif" font-size="10.00">::ruleTesterWindow</text>
</a>
</g>
</g>
<!-- Node4&#45;&gt;Node9 -->
<g id="edge9" class="edge">
<title>Node4&#45;&gt;Node9</title>
<path fill="none" stroke="midnightblue" d="M267.99,-371.32C299.25,-336.14 376.8,-248.87 413.77,-207.27"/>
<polygon fill="midnightblue" stroke="midnightblue" points="416.57,-209.38 420.6,-199.58 411.34,-204.73 416.57,-209.38"/>
</g>
<!-- Node7&#45;&gt;Node5 -->
<g id="edge7" class="edge">
<title>Node7&#45;&gt;Node5</title>
<path fill="none" stroke="midnightblue" d="M481.55,-352.62C490.38,-355.74 499.52,-359.12 508,-362.5 536.94,-374.04 568.92,-388.53 593.42,-400.01"/>
<polygon fill="midnightblue" stroke="midnightblue" points="592.22,-403.31 602.75,-404.41 595.2,-396.98 592.22,-403.31"/>
</g>
<!-- Node8 -->
<g id="node8" class="node">
<title>Node8</title>
<g id="a_node8"><a xlink:href="class_parse_gen_1_1_g_u_i_1_1_main_editor.html#a5411a31092bf479d80f14b216eaef83b" target="_top" xlink:title=" ">
<polygon fill="white" stroke="black" points="562.5,-333.5 562.5,-363.5 707.5,-363.5 707.5,-333.5 562.5,-333.5"/>
<text text-anchor="start" x="570.5" y="-351.5" font-family="Helvetica,sans-Serif" font-size="10.00">ParseGen::GUI::MainEditor</text>
<text text-anchor="middle" x="635" y="-340.5" font-family="Helvetica,sans-Serif" font-size="10.00">::deleteRule</text>
</a>
</g>
</g>
<!-- Node7&#45;&gt;Node8 -->
<g id="edge8" class="edge">
<title>Node7&#45;&gt;Node8</title>
<path fill="none" stroke="midnightblue" d="M507.76,-341.49C522.24,-342.29 537.56,-343.14 552.35,-343.96"/>
<polygon fill="midnightblue" stroke="midnightblue" points="552.3,-347.47 562.48,-344.53 552.69,-340.48 552.3,-347.47"/>
</g>
<!-- Node10 -->
<g id="node10" class="node">
<title>Node10</title>
<g id="a_node10"><a xlink:href="class_parse_gen_1_1_parser_1_1_i_parser_generator.html#acc41ef8afafb3c17ec86292fecfaeb8d" target="_top" xlink:title=" ">
<polygon fill="white" stroke="black" points="566.5,-284.5 566.5,-314.5 703.5,-314.5 703.5,-284.5 566.5,-284.5"/>
<text text-anchor="start" x="574.5" y="-302.5" font-family="Helvetica,sans-Serif" font-size="10.00">ParseGen::Parser::IParser</text>
<text text-anchor="middle" x="635" y="-291.5" font-family="Helvetica,sans-Serif" font-size="10.00">Generator::codeToFile</text>
</a>
</g>
</g>
<!-- Node9&#45;&gt;Node10 -->
<g id="edge10" class="edge">
<title>Node9&#45;&gt;Node10</title>
<path fill="none" stroke="midnightblue" d="M449.84,-199.76C469.04,-220.02 505.73,-255.56 544,-275.5 548.06,-277.62 552.33,-279.56 556.7,-281.34"/>
<polygon fill="midnightblue" stroke="midnightblue" points="555.82,-284.75 566.41,-284.98 558.28,-278.19 555.82,-284.75"/>
</g>
<!-- Node12 -->
<g id="node12" class="node">
<title>Node12</title>
<g id="a_node12"><a xlink:href="class_parse_gen_1_1_g_u_i_1_1_main_editor.html#a0dd79cef141de2c8a6a08586f36d42a9" target="_top" xlink:title=" ">
<polygon fill="white" stroke="black" points="562.5,-235.5 562.5,-265.5 707.5,-265.5 707.5,-235.5 562.5,-235.5"/>
<text text-anchor="start" x="570.5" y="-253.5" font-family="Helvetica,sans-Serif" font-size="10.00">ParseGen::GUI::MainEditor</text>
<text text-anchor="middle" x="635" y="-242.5" font-family="Helvetica,sans-Serif" font-size="10.00">::drawTree</text>
</a>
</g>
</g>
<!-- Node9&#45;&gt;Node12 -->
<g id="edge12" class="edge">
<title>Node9&#45;&gt;Node12</title>
<path fill="none" stroke="midnightblue" d="M481.43,-199.64C510.48,-209.33 548.34,-221.95 579.08,-232.19"/>
<polygon fill="midnightblue" stroke="midnightblue" points="578.19,-235.59 588.79,-235.43 580.41,-228.95 578.19,-235.59"/>
</g>
<!-- Node14 -->
<g id="node14" class="node">
<title>Node14</title>
<g id="a_node14"><a xlink:href="class_parse_gen_1_1_parser_1_1_parser_generator_factory.html#aa6b235e2945524e7373a03b9b209fffd" target="_top" xlink:title=" ">
<polygon fill="white" stroke="black" points="937,-96.5 937,-126.5 1071,-126.5 1071,-96.5 937,-96.5"/>
<text text-anchor="start" x="945" y="-114.5" font-family="Helvetica,sans-Serif" font-size="10.00">ParseGen::Parser::Parser</text>
<text text-anchor="middle" x="1004" y="-103.5" font-family="Helvetica,sans-Serif" font-size="10.00">GeneratorFactory::Get</text>
</a>
</g>
</g>
<!-- Node9&#45;&gt;Node14 -->
<g id="edge14" class="edge">
<title>Node9&#45;&gt;Node14</title>
<path fill="none" stroke="midnightblue" d="M507.74,-186.77C519.84,-187.08 532.28,-187.34 544,-187.5 624.88,-188.62 645.84,-198.3 726,-187.5 806.66,-176.64 897.05,-148.74 951.99,-129.94"/>
<polygon fill="midnightblue" stroke="midnightblue" points="953.18,-133.23 961.49,-126.65 950.9,-126.61 953.18,-133.23"/>
</g>
<!-- Node15 -->
<g id="node15" class="node">
<title>Node15</title>
<g id="a_node15"><a xlink:href="class_parse_gen_1_1_parser_1_1_parser_generator_factory.html#a36873b6eabc46913622d6a5dfdceffa1" target="_top" xlink:title=" ">
<polygon fill="white" stroke="black" points="544,-147.5 544,-177.5 726,-177.5 726,-147.5 544,-147.5"/>
<text text-anchor="start" x="552" y="-165.5" font-family="Helvetica,sans-Serif" font-size="10.00">ParseGen::Parser::Parser</text>
<text text-anchor="middle" x="635" y="-154.5" font-family="Helvetica,sans-Serif" font-size="10.00">GeneratorFactory::getOutputTypes</text>
</a>
</g>
</g>
<!-- Node9&#45;&gt;Node15 -->
<g id="edge15" class="edge">
<title>Node9&#45;&gt;Node15</title>
<path fill="none" stroke="midnightblue" d="M507.76,-176.53C516.29,-175.58 525.1,-174.6 533.93,-173.62"/>
<polygon fill="midnightblue" stroke="midnightblue" points="534.33,-177.1 543.88,-172.51 533.56,-170.14 534.33,-177.1"/>
</g>
<!-- Node16 -->
<g id="node16" class="node">
<title>Node16</title>
<g id="a_node16"><a xlink:href="class_parse_gen_1_1_parser_1_1_util_1_1_parse_tree.html#ace551eaad1025e132c23024992ed5bcf" target="_top" xlink:title=" ">
<polygon fill="white" stroke="black" points="574,-98.5 574,-128.5 696,-128.5 696,-98.5 574,-98.5"/>
<text text-anchor="start" x="582" y="-116.5" font-family="Helvetica,sans-Serif" font-size="10.00">ParseGen::Parser::Util</text>
<text text-anchor="middle" x="635" y="-105.5" font-family="Helvetica,sans-Serif" font-size="10.00">::ParseTree::isStub</text>
</a>
</g>
</g>
<!-- Node9&#45;&gt;Node16 -->
<g id="edge16" class="edge">
<title>Node9&#45;&gt;Node16</title>
<path fill="none" stroke="midnightblue" d="M468.17,-169.48C489.42,-159.89 518.03,-147.59 544,-138.5 550.94,-136.07 558.26,-133.71 565.58,-131.48"/>
<polygon fill="midnightblue" stroke="midnightblue" points="566.96,-134.73 575.55,-128.53 564.97,-128.01 566.96,-134.73"/>
</g>
<!-- Node18 -->
<g id="node18" class="node">
<title>Node18</title>
<g id="a_node18"><a xlink:href="class_parse_gen_1_1_parser_1_1_i_parser_generator.html#ae29f6b1213c0fc23bfe5fe049be4ddbc" target="_top" xlink:title=" ">
<polygon fill="white" stroke="black" points="566.5,-49.5 566.5,-79.5 703.5,-79.5 703.5,-49.5 566.5,-49.5"/>
<text text-anchor="start" x="574.5" y="-67.5" font-family="Helvetica,sans-Serif" font-size="10.00">ParseGen::Parser::IParser</text>
<text text-anchor="middle" x="635" y="-56.5" font-family="Helvetica,sans-Serif" font-size="10.00">Generator::parse</text>
</a>
</g>
</g>
<!-- Node9&#45;&gt;Node18 -->
<g id="edge18" class="edge">
<title>Node9&#45;&gt;Node18</title>
<path fill="none" stroke="midnightblue" d="M449.08,-169.31C467.97,-148.32 504.91,-110.66 544,-89.5 548.23,-87.21 552.7,-85.11 557.28,-83.2"/>
<polygon fill="midnightblue" stroke="midnightblue" points="558.74,-86.38 566.81,-79.51 556.22,-79.85 558.74,-86.38"/>
</g>
<!-- Node19 -->
<g id="node19" class="node">
<title>Node19</title>
<g id="a_node19"><a xlink:href="class_parse_gen_1_1_g_u_i_1_1_main_editor.html#a375e7fc2018957b0d42313a9d87bb952" target="_top" xlink:title=" ">
<polygon fill="white" stroke="black" points="562.5,-0.5 562.5,-30.5 707.5,-30.5 707.5,-0.5 562.5,-0.5"/>
<text text-anchor="start" x="570.5" y="-18.5" font-family="Helvetica,sans-Serif" font-size="10.00">ParseGen::GUI::MainEditor</text>
<text text-anchor="middle" x="635" y="-7.5" font-family="Helvetica,sans-Serif" font-size="10.00">::processRules</text>
</a>
</g>
</g>
<!-- Node9&#45;&gt;Node19 -->
<g id="edge19" class="edge">
<title>Node9&#45;&gt;Node19</title>
<path fill="none" stroke="midnightblue" d="M443.07,-169.12C457.56,-139.32 493.59,-73.66 544,-39.5 546.9,-37.54 549.95,-35.73 553.11,-34.07"/>
<polygon fill="midnightblue" stroke="midnightblue" points="554.69,-37.2 562.26,-29.79 551.72,-30.86 554.69,-37.2"/>
</g>
<!-- Node11 -->
<g id="node11" class="node">
<title>Node11</title>
<g id="a_node11"><a xlink:href="class_parse_gen_1_1_parser_1_1_i_parser_generator.html#abb8807a107ad5b49c2d07aceab14273e" target="_top" xlink:title=" ">
<polygon fill="white" stroke="black" points="763,-284.5 763,-314.5 900,-314.5 900,-284.5 763,-284.5"/>
<text text-anchor="start" x="771" y="-302.5" font-family="Helvetica,sans-Serif" font-size="10.00">ParseGen::Parser::IParser</text>
<text text-anchor="middle" x="831.5" y="-291.5" font-family="Helvetica,sans-Serif" font-size="10.00">Generator::codeToString</text>
</a>
</g>
</g>
<!-- Node10&#45;&gt;Node11 -->
<g id="edge11" class="edge">
<title>Node10&#45;&gt;Node11</title>
<path fill="none" stroke="midnightblue" d="M703.75,-299.5C719.64,-299.5 736.69,-299.5 752.97,-299.5"/>
<polygon fill="midnightblue" stroke="midnightblue" points="752.99,-303 762.99,-299.5 752.99,-296 752.99,-303"/>
</g>
<!-- Node13 -->
<g id="node13" class="node">
<title>Node13</title>
<g id="a_node13"><a xlink:href="class_parse_gen_1_1_g_u_i_1_1_parse_tree_1_1_renderer.html#ac6962ed86384110616e7dad0f548ba84" target="_top" xlink:title=" ">
<polygon fill="white" stroke="black" points="762,-235.5 762,-265.5 901,-265.5 901,-235.5 762,-235.5"/>
<text text-anchor="start" x="770" y="-253.5" font-family="Helvetica,sans-Serif" font-size="10.00">ParseGen::GUI::ParseTree</text>
<text text-anchor="middle" x="831.5" y="-242.5" font-family="Helvetica,sans-Serif" font-size="10.00">::Renderer::Get</text>
</a>
</g>
</g>
<!-- Node12&#45;&gt;Node13 -->
<g id="edge13" class="edge">
<title>Node12&#45;&gt;Node13</title>
<path fill="none" stroke="midnightblue" d="M707.6,-250.5C722.03,-250.5 737.27,-250.5 751.93,-250.5"/>
<polygon fill="midnightblue" stroke="midnightblue" points="751.97,-254 761.97,-250.5 751.97,-247 751.97,-254"/>
</g>
<!-- Node17 -->
<g id="node17" class="node">
<title>Node17</title>
<g id="a_node17"><a xlink:href="class_parse_gen_1_1_parser_1_1_util_1_1_symbol.html#a82073c69377df2a10fd7d4350727ab73" target="_top" xlink:title=" ">
<polygon fill="white" stroke="black" points="770.5,-98.5 770.5,-128.5 892.5,-128.5 892.5,-98.5 770.5,-98.5"/>
<text text-anchor="start" x="778.5" y="-116.5" font-family="Helvetica,sans-Serif" font-size="10.00">ParseGen::Parser::Util</text>
<text text-anchor="middle" x="831.5" y="-105.5" font-family="Helvetica,sans-Serif" font-size="10.00">::Symbol::isEnd</text>
</a>
</g>
</g>
<!-- Node16&#45;&gt;Node17 -->
<g id="edge17" class="edge">
<title>Node16&#45;&gt;Node17</title>
<path fill="none" stroke="midnightblue" d="M696.21,-113.5C716.44,-113.5 739.18,-113.5 760.12,-113.5"/>
<polygon fill="midnightblue" stroke="midnightblue" points="760.24,-117 770.24,-113.5 760.24,-110 760.24,-117"/>
</g>
<!-- Node20 -->
<g id="node20" class="node">
<title>Node20</title>
<g id="a_node20"><a xlink:href="class_parse_gen_1_1_parser_1_1_parser_generator_factory.html#afa1ed5ce57448b5f8e854e303c171889" target="_top" xlink:title=" ">
<polygon fill="white" stroke="black" points="762.5,-25.5 762.5,-55.5 900.5,-55.5 900.5,-25.5 762.5,-25.5"/>
<text text-anchor="start" x="770.5" y="-43.5" font-family="Helvetica,sans-Serif" font-size="10.00">ParseGen::Parser::Parser</text>
<text text-anchor="middle" x="831.5" y="-32.5" font-family="Helvetica,sans-Serif" font-size="10.00">GeneratorFactory::Create</text>
</a>
</g>
</g>
<!-- Node19&#45;&gt;Node20 -->
<g id="edge20" class="edge">
<title>Node19&#45;&gt;Node20</title>
<path fill="none" stroke="midnightblue" d="M707.6,-24.7C722.12,-26.57 737.46,-28.54 752.2,-30.44"/>
<polygon fill="midnightblue" stroke="midnightblue" points="751.92,-33.93 762.29,-31.73 752.82,-26.99 751.92,-33.93"/>
</g>
<!-- Node20&#45;&gt;Node14 -->
<g id="edge21" class="edge">
<title>Node20&#45;&gt;Node14</title>
<path fill="none" stroke="midnightblue" d="M868.66,-55.56C894.54,-66.34 929.58,-80.93 957.39,-92.51"/>
<polygon fill="midnightblue" stroke="midnightblue" points="956.32,-95.85 966.89,-96.46 959.01,-89.39 956.32,-95.85"/>
</g>
</g>
</svg>
