<?xml version="1.0" encoding="UTF-8" standalone="no"?>
<!DOCTYPE svg PUBLIC "-//W3C//DTD SVG 1.1//EN"
 "http://www.w3.org/Graphics/SVG/1.1/DTD/svg11.dtd">
<!-- Generated by graphviz version 2.43.0 (0)
 -->
<!-- Title: ParseGen::Parser::LLPredictiveParser::ParserTable::isError Pages: 1 -->
<svg width="659pt" height="141pt"
 viewBox="0.00 0.00 659.00 140.50" xmlns="http://www.w3.org/2000/svg" xmlns:xlink="http://www.w3.org/1999/xlink">
<g id="graph0" class="graph" transform="scale(1 1) rotate(0) translate(4 136.5)">
<title>ParseGen::Parser::LLPredictiveParser::ParserTable::isError</title>
<polygon fill="white" stroke="transparent" points="-4,4 -4,-136.5 655,-136.5 655,4 -4,4"/>
<!-- Node1 -->
<g id="node1" class="node">
<title>Node1</title>
<g id="a_node1"><a xlink:title=" ">
<polygon fill="#bfbfbf" stroke="black" points="487,-44.5 487,-74.5 651,-74.5 651,-44.5 487,-44.5"/>
<text text-anchor="start" x="495" y="-62.5" font-family="Helvetica,sans-Serif" font-size="10.00">ParseGen::Parser::LLPredictive</text>
<text text-anchor="middle" x="569" y="-51.5" font-family="Helvetica,sans-Serif" font-size="10.00">Parser::ParserTable::isError</text>
</a>
</g>
</g>
<!-- Node2 -->
<g id="node2" class="node">
<title>Node2</title>
<g id="a_node2"><a xlink:href="class_parse_gen_1_1_parser_1_1_l_l_predictive_parser_1_1_l_l_predictive_parser_generator.html#afe52e23f20fb507400d48a4c1838b694" target="_top" xlink:title=" ">
<polygon fill="white" stroke="black" points="260,-88 260,-129 451,-129 451,-88 260,-88"/>
<text text-anchor="start" x="268" y="-117" font-family="Helvetica,sans-Serif" font-size="10.00">ParseGen::Parser::LLPredictive</text>
<text text-anchor="start" x="268" y="-106" font-family="Helvetica,sans-Serif" font-size="10.00">Parser::LLPredictiveParserGenerator</text>
<text text-anchor="middle" x="355.5" y="-95" font-family="Helvetica,sans-Serif" font-size="10.00">::generateParseTable</text>
</a>
</g>
</g>
<!-- Node1&#45;&gt;Node2 -->
<g id="edge1" class="edge">
<title>Node1&#45;&gt;Node2</title>
<path fill="none" stroke="midnightblue" d="M493.05,-76.86C477.51,-80.46 461,-84.29 445.03,-87.99"/>
<polygon fill="midnightblue" stroke="midnightblue" points="494.15,-80.2 503.11,-74.53 492.57,-73.38 494.15,-80.2"/>
</g>
<!-- Node4 -->
<g id="node4" class="node">
<title>Node4</title>
<g id="a_node4"><a xlink:href="class_parse_gen_1_1_parser_1_1_l_l_predictive_parser_1_1_l_l_predictive_parser_generator.html#a42a21842cb2e37411d86980058cb6633" target="_top" xlink:title=" ">
<polygon fill="white" stroke="black" points="0,-41.5 0,-71.5 224,-71.5 224,-41.5 0,-41.5"/>
<text text-anchor="start" x="8" y="-59.5" font-family="Helvetica,sans-Serif" font-size="10.00">ParseGen::Parser::LLPredictive</text>
<text text-anchor="middle" x="112" y="-48.5" font-family="Helvetica,sans-Serif" font-size="10.00">Parser::LLPredictiveParserGenerator::parse</text>
</a>
</g>
</g>
<!-- Node1&#45;&gt;Node4 -->
<g id="edge6" class="edge">
<title>Node1&#45;&gt;Node4</title>
<path fill="none" stroke="midnightblue" d="M476.85,-58.9C404.04,-58.42 301.71,-57.74 224.11,-57.23"/>
<polygon fill="midnightblue" stroke="midnightblue" points="476.89,-62.4 486.92,-58.97 476.94,-55.4 476.89,-62.4"/>
</g>
<!-- Node5 -->
<g id="node5" class="node">
<title>Node5</title>
<g id="a_node5"><a xlink:href="class_parse_gen_1_1_parser_1_1_l_l_predictive_parser_1_1_parser_table.html#a4020664d9b5119b39cea30cf2091d907" target="_top" xlink:title=" ">
<polygon fill="white" stroke="black" points="273.5,-0.5 273.5,-30.5 437.5,-30.5 437.5,-0.5 273.5,-0.5"/>
<text text-anchor="start" x="281.5" y="-18.5" font-family="Helvetica,sans-Serif" font-size="10.00">ParseGen::Parser::LLPredictive</text>
<text text-anchor="middle" x="355.5" y="-7.5" font-family="Helvetica,sans-Serif" font-size="10.00">Parser::ParserTable::isSynch</text>
</a>
</g>
</g>
<!-- Node1&#45;&gt;Node5 -->
<g id="edge4" class="edge">
<title>Node1&#45;&gt;Node5</title>
<path fill="none" stroke="midnightblue" d="M485.77,-42.39C466.96,-38.48 447.09,-34.35 428.73,-30.53"/>
<polygon fill="midnightblue" stroke="midnightblue" points="485.3,-45.87 495.81,-44.48 486.73,-39.02 485.3,-45.87"/>
</g>
<!-- Node3 -->
<g id="node3" class="node">
<title>Node3</title>
<g id="a_node3"><a xlink:href="class_parse_gen_1_1_parser_1_1_l_l_predictive_parser_1_1_l_l_predictive_parser_generator.html#ab1a41c8048a7df46910a299a45ed4b42" target="_top" xlink:title=" ">
<polygon fill="white" stroke="black" points="16.5,-91 16.5,-132 207.5,-132 207.5,-91 16.5,-91"/>
<text text-anchor="start" x="24.5" y="-120" font-family="Helvetica,sans-Serif" font-size="10.00">ParseGen::Parser::LLPredictive</text>
<text text-anchor="start" x="24.5" y="-109" font-family="Helvetica,sans-Serif" font-size="10.00">Parser::LLPredictiveParserGenerator</text>
<text text-anchor="middle" x="112" y="-98" font-family="Helvetica,sans-Serif" font-size="10.00">::codeToString</text>
</a>
</g>
</g>
<!-- Node2&#45;&gt;Node3 -->
<g id="edge2" class="edge">
<title>Node2&#45;&gt;Node3</title>
<path fill="none" stroke="midnightblue" d="M249.69,-109.8C235.78,-109.97 221.6,-110.15 207.88,-110.32"/>
<polygon fill="midnightblue" stroke="midnightblue" points="249.79,-113.3 259.75,-109.68 249.7,-106.3 249.79,-113.3"/>
</g>
<!-- Node2&#45;&gt;Node4 -->
<g id="edge3" class="edge">
<title>Node2&#45;&gt;Node4</title>
<path fill="none" stroke="midnightblue" d="M249.76,-85.95C227.13,-81.08 203.74,-76.04 182.84,-71.54"/>
<polygon fill="midnightblue" stroke="midnightblue" points="249.23,-89.41 259.75,-88.1 250.71,-82.57 249.23,-89.41"/>
</g>
<!-- Node5&#45;&gt;Node4 -->
<g id="edge5" class="edge">
<title>Node5&#45;&gt;Node4</title>
<path fill="none" stroke="midnightblue" d="M263.31,-30.98C243.15,-34.4 221.82,-38.03 201.76,-41.43"/>
<polygon fill="midnightblue" stroke="midnightblue" points="264.14,-34.39 273.41,-29.27 262.97,-27.49 264.14,-34.39"/>
</g>
</g>
</svg>
