<?xml version="1.0" encoding="UTF-8" standalone="no"?>
<!DOCTYPE svg PUBLIC "-//W3C//DTD SVG 1.1//EN"
 "http://www.w3.org/Graphics/SVG/1.1/DTD/svg11.dtd">
<!-- Generated by graphviz version 2.43.0 (0)
 -->
<!-- Title: ParseGen::GUI::ParseTree::Renderer Pages: 1 -->
<!--zoomable 833 -->
<svg id="main" version="1.1" xmlns="http://www.w3.org/2000/svg" xmlns:xlink="http://www.w3.org/1999/xlink" xml:space="preserve" onload="init(evt)">
<style type="text/css"><![CDATA[
.edge:hover path { stroke: red; }
.edge:hover polygon { stroke: red; fill: red; }
]]></style>
<script type="text/javascript"><![CDATA[
var edges = document.getElementsByTagName('g');
if (edges && edges.length) {
  for (var i=0;i<edges.length;i++) {
    if (edges[i].id.substr(0,4)=='edge') {
      edges[i].setAttribute('class','edge');
    }
  }
}
]]></script>
        <defs>
                <circle id="rim" cx="0" cy="0" r="7"/>
                <circle id="rim2" cx="0" cy="0" r="3.5"/>
                <g id="zoomPlus">
                        <use xlink:href="#rim" fill="#404040">
                                <set attributeName="fill" to="#808080" begin="zoomplus.mouseover" end="zoomplus.mouseout"/>
                        </use>
                        <path d="M-4,0h8M0,-4v8" fill="none" stroke="white" stroke-width="1.5" pointer-events="none"/>
                </g>
                <g id="zoomMin">
                        <use xlink:href="#rim" fill="#404040">
                                <set attributeName="fill" to="#808080" begin="zoomminus.mouseover" end="zoomminus.mouseout"/>
                        </use>
                        <path d="M-4,0h8" fill="none" stroke="white" stroke-width="1.5" pointer-events="none"/>
                </g>
                <g id="dirArrow">
                        <path fill="none" stroke="white" stroke-width="1.5" d="M0,-3.0v7 M-2.5,-0.5L0,-3.0L2.5,-0.5"/>
                </g>
               <g id="resetDef">
                       <use xlink:href="#rim2" fill="#404040">
                               <set attributeName="fill" to="#808080" begin="reset.mouseover" end="reset.mouseout"/>
                       </use>
               </g>
        </defs>

<script type="text/javascript">
var viewWidth = 208;
var viewHeight = 833;
var sectionId = 'dynsection-0';
</script>
<script xlink:href="svgpan.js"/>
<svg id="graph" class="graph">
<g id="viewport">
<title>ParseGen::GUI::ParseTree::Renderer</title>
<polygon fill="white" stroke="transparent" points="-4,4 -4,-829 203.5,-829 203.5,4 -4,4"/>
<!-- Node1 -->
<g id="node1" class="node">
<title>Node1</title>
<g id="a_node1"><a xlink:title=" ">
<polygon fill="#bfbfbf" stroke="black" points="0,-0.5 0,-200.5 139,-200.5 139,-0.5 0,-0.5"/>
<text text-anchor="start" x="8" y="-188.5" font-family="Helvetica,sans-Serif" font-size="10.00">ParseGen::GUI::ParseTree</text>
<text text-anchor="middle" x="69.5" y="-177.5" font-family="Helvetica,sans-Serif" font-size="10.00">::Renderer</text>
<polyline fill="none" stroke="black" points="0,-170.5 139,-170.5 "/>
<text text-anchor="start" x="8" y="-158.5" font-family="Helvetica,sans-Serif" font-size="10.00">&#45; nodes</text>
<text text-anchor="start" x="8" y="-147.5" font-family="Helvetica,sans-Serif" font-size="10.00">&#45; edges</text>
<polyline fill="none" stroke="black" points="0,-140.5 139,-140.5 "/>
<text text-anchor="start" x="8" y="-128.5" font-family="Helvetica,sans-Serif" font-size="10.00">+ render()</text>
<text text-anchor="start" x="8" y="-117.5" font-family="Helvetica,sans-Serif" font-size="10.00">+ Get()</text>
<text text-anchor="start" x="8" y="-106.5" font-family="Helvetica,sans-Serif" font-size="10.00">&#45; createGeometry()</text>
<text text-anchor="start" x="8" y="-95.5" font-family="Helvetica,sans-Serif" font-size="10.00">&#45; buchheim()</text>
<text text-anchor="start" x="8" y="-84.5" font-family="Helvetica,sans-Serif" font-size="10.00">&#45; firstWalk()</text>
<text text-anchor="start" x="8" y="-73.5" font-family="Helvetica,sans-Serif" font-size="10.00">&#45; apportion()</text>
<text text-anchor="start" x="8" y="-62.5" font-family="Helvetica,sans-Serif" font-size="10.00">&#45; executeShifts()</text>
<text text-anchor="start" x="8" y="-51.5" font-family="Helvetica,sans-Serif" font-size="10.00">&#45; ancestor()</text>
<text text-anchor="start" x="8" y="-40.5" font-family="Helvetica,sans-Serif" font-size="10.00">&#45; secondWalk()</text>
<text text-anchor="start" x="8" y="-29.5" font-family="Helvetica,sans-Serif" font-size="10.00">&#45; thirdWalk()</text>
<text text-anchor="start" x="8" y="-18.5" font-family="Helvetica,sans-Serif" font-size="10.00">&#45; moveSubtree()</text>
<text text-anchor="start" x="8" y="-7.5" font-family="Helvetica,sans-Serif" font-size="10.00">&#45; simpleDraw()</text>
</a>
</g>
</g>
<!-- Node2 -->
<g id="node2" class="node">
<title>Node2</title>
<g id="a_node2"><a xlink:href="class_parse_gen_1_1_parser_1_1_util_1_1_parse_tree.html" target="_top" xlink:title=" ">
<polygon fill="white" stroke="black" points="8.5,-248.5 8.5,-349.5 130.5,-349.5 130.5,-248.5 8.5,-248.5"/>
<text text-anchor="start" x="16.5" y="-337.5" font-family="Helvetica,sans-Serif" font-size="10.00">ParseGen::Parser::Util</text>
<text text-anchor="middle" x="69.5" y="-326.5" font-family="Helvetica,sans-Serif" font-size="10.00">::ParseTree</text>
<polyline fill="none" stroke="black" points="8.5,-319.5 130.5,-319.5 "/>
<text text-anchor="middle" x="69.5" y="-307.5" font-family="Helvetica,sans-Serif" font-size="10.00"> </text>
<polyline fill="none" stroke="black" points="8.5,-300.5 130.5,-300.5 "/>
<text text-anchor="start" x="16.5" y="-288.5" font-family="Helvetica,sans-Serif" font-size="10.00">+ ParseTree()</text>
<text text-anchor="start" x="16.5" y="-277.5" font-family="Helvetica,sans-Serif" font-size="10.00">+ ParseTree()</text>
<text text-anchor="start" x="16.5" y="-266.5" font-family="Helvetica,sans-Serif" font-size="10.00">+ isStub()</text>
<text text-anchor="start" x="16.5" y="-255.5" font-family="Helvetica,sans-Serif" font-size="10.00">+ print()</text>
</a>
</g>
</g>
<!-- Node2&#45;&gt;Node1 -->
<g id="edge1" class="edge">
<title>Node2&#45;&gt;Node1</title>
<path fill="none" stroke="#404040" d="M69.5,-248.41C69.5,-237.3 69.5,-225.07 69.5,-212.57"/>
<polygon fill="none" stroke="#404040" points="69.5,-212.51 65.5,-206.51 69.5,-200.51 73.5,-206.51 69.5,-212.51"/>
<text text-anchor="middle" x="97" y="-222" font-family="Helvetica,sans-Serif" font-size="10.00"> &#45;parseTree</text>
</g>
<!-- Node3 -->
<g id="node3" class="node">
<title>Node3</title>
<g id="a_node3"><a xlink:href="class_parse_gen_1_1_parser_1_1_util_1_1_node.html" target="_top" xlink:title=" ">
<polygon fill="white" stroke="black" points="8.5,-387.5 8.5,-642.5 130.5,-642.5 130.5,-387.5 8.5,-387.5"/>
<text text-anchor="start" x="16.5" y="-630.5" font-family="Helvetica,sans-Serif" font-size="10.00">ParseGen::Parser::Util</text>
<text text-anchor="middle" x="69.5" y="-619.5" font-family="Helvetica,sans-Serif" font-size="10.00">::Node</text>
<polyline fill="none" stroke="black" points="8.5,-612.5 130.5,-612.5 "/>
<text text-anchor="start" x="16.5" y="-600.5" font-family="Helvetica,sans-Serif" font-size="10.00">+ x</text>
<text text-anchor="start" x="16.5" y="-589.5" font-family="Helvetica,sans-Serif" font-size="10.00">+ y</text>
<text text-anchor="start" x="16.5" y="-578.5" font-family="Helvetica,sans-Serif" font-size="10.00">+ mod</text>
<text text-anchor="start" x="16.5" y="-567.5" font-family="Helvetica,sans-Serif" font-size="10.00">+ shift</text>
<text text-anchor="start" x="16.5" y="-556.5" font-family="Helvetica,sans-Serif" font-size="10.00">+ change</text>
<text text-anchor="start" x="16.5" y="-545.5" font-family="Helvetica,sans-Serif" font-size="10.00"># children</text>
<polyline fill="none" stroke="black" points="8.5,-538.5 130.5,-538.5 "/>
<text text-anchor="start" x="16.5" y="-526.5" font-family="Helvetica,sans-Serif" font-size="10.00">+ Node()</text>
<text text-anchor="start" x="16.5" y="-515.5" font-family="Helvetica,sans-Serif" font-size="10.00">+ Node()</text>
<text text-anchor="start" x="16.5" y="-504.5" font-family="Helvetica,sans-Serif" font-size="10.00">+ addChildren()</text>
<text text-anchor="start" x="16.5" y="-493.5" font-family="Helvetica,sans-Serif" font-size="10.00">+ addChildren()</text>
<text text-anchor="start" x="16.5" y="-482.5" font-family="Helvetica,sans-Serif" font-size="10.00">+ print()</text>
<text text-anchor="start" x="16.5" y="-471.5" font-family="Helvetica,sans-Serif" font-size="10.00">+ json()</text>
<text text-anchor="start" x="16.5" y="-460.5" font-family="Helvetica,sans-Serif" font-size="10.00">+ getChildren()</text>
<text text-anchor="start" x="16.5" y="-449.5" font-family="Helvetica,sans-Serif" font-size="10.00">+ isLeaf()</text>
<text text-anchor="start" x="16.5" y="-438.5" font-family="Helvetica,sans-Serif" font-size="10.00">+ leftBrother()</text>
<text text-anchor="start" x="16.5" y="-427.5" font-family="Helvetica,sans-Serif" font-size="10.00">+ leftmostSibling()</text>
<text text-anchor="start" x="16.5" y="-416.5" font-family="Helvetica,sans-Serif" font-size="10.00">+ number()</text>
<text text-anchor="start" x="16.5" y="-405.5" font-family="Helvetica,sans-Serif" font-size="10.00">+ left()</text>
<text text-anchor="start" x="16.5" y="-394.5" font-family="Helvetica,sans-Serif" font-size="10.00">+ right()</text>
</a>
</g>
</g>
<!-- Node3&#45;&gt;Node2 -->
<g id="edge2" class="edge">
<title>Node3&#45;&gt;Node2</title>
<path fill="none" stroke="midnightblue" d="M69.5,-377.26C69.5,-367.68 69.5,-358.44 69.5,-349.89"/>
<polygon fill="none" stroke="midnightblue" points="66,-377.35 69.5,-387.35 73,-377.35 66,-377.35"/>
</g>
<!-- Node3&#45;&gt;Node3 -->
<g id="edge3" class="edge">
<title>Node3&#45;&gt;Node3</title>
<path fill="none" stroke="#404040" d="M130.78,-540.56C141.25,-537.06 148.5,-528.54 148.5,-515 148.5,-506.75 145.81,-500.36 141.33,-495.84"/>
<polygon fill="none" stroke="#404040" points="141.04,-495.66 133.84,-495.97 130.78,-489.44 137.98,-489.13 141.04,-495.66"/>
<text text-anchor="middle" x="174" y="-523.5" font-family="Helvetica,sans-Serif" font-size="10.00"> +parent</text>
<text text-anchor="middle" x="174" y="-512.5" font-family="Helvetica,sans-Serif" font-size="10.00">+thread</text>
<text text-anchor="middle" x="174" y="-501.5" font-family="Helvetica,sans-Serif" font-size="10.00">+ancestor</text>
</g>
<!-- Node4 -->
<g id="node4" class="node">
<title>Node4</title>
<g id="a_node4"><a xlink:href="class_parse_gen_1_1_parser_1_1_util_1_1_symbol.html" target="_top" xlink:title=" ">
<polygon fill="white" stroke="black" points="8.5,-690.5 8.5,-824.5 130.5,-824.5 130.5,-690.5 8.5,-690.5"/>
<text text-anchor="start" x="16.5" y="-812.5" font-family="Helvetica,sans-Serif" font-size="10.00">ParseGen::Parser::Util</text>
<text text-anchor="middle" x="69.5" y="-801.5" font-family="Helvetica,sans-Serif" font-size="10.00">::Symbol</text>
<polyline fill="none" stroke="black" points="8.5,-794.5 130.5,-794.5 "/>
<text text-anchor="start" x="16.5" y="-782.5" font-family="Helvetica,sans-Serif" font-size="10.00">+ name</text>
<text text-anchor="start" x="16.5" y="-771.5" font-family="Helvetica,sans-Serif" font-size="10.00"># type</text>
<polyline fill="none" stroke="black" points="8.5,-764.5 130.5,-764.5 "/>
<text text-anchor="start" x="16.5" y="-752.5" font-family="Helvetica,sans-Serif" font-size="10.00">+ Symbol()</text>
<text text-anchor="start" x="16.5" y="-741.5" font-family="Helvetica,sans-Serif" font-size="10.00">+ isEmpty()</text>
<text text-anchor="start" x="16.5" y="-730.5" font-family="Helvetica,sans-Serif" font-size="10.00">+ isNonTerminal()</text>
<text text-anchor="start" x="16.5" y="-719.5" font-family="Helvetica,sans-Serif" font-size="10.00">+ isTerminal()</text>
<text text-anchor="start" x="16.5" y="-708.5" font-family="Helvetica,sans-Serif" font-size="10.00">+ isEnd()</text>
<text text-anchor="start" x="16.5" y="-697.5" font-family="Helvetica,sans-Serif" font-size="10.00">+ getType()</text>
</a>
</g>
</g>
<!-- Node4&#45;&gt;Node3 -->
<g id="edge4" class="edge">
<title>Node4&#45;&gt;Node3</title>
<path fill="none" stroke="#404040" d="M69.5,-690.46C69.5,-679.3 69.5,-667.36 69.5,-655.14"/>
<polygon fill="none" stroke="#404040" points="69.5,-654.86 65.5,-648.86 69.5,-642.86 73.5,-648.86 69.5,-654.86"/>
<text text-anchor="middle" x="89" y="-664" font-family="Helvetica,sans-Serif" font-size="10.00"> +value</text>
</g>
</g>
</svg>
        <g id="navigator" transform="translate(0 0)" fill="#404254">
                <rect fill="#f2f5e9" fill-opacity="0.5" stroke="#606060" stroke-width=".5" x="0" y="0" width="60" height="60"/>
                <use id="zoomplus" xlink:href="#zoomPlus" x="17" y="9" onmousedown="handleZoom(evt,'in')"/>
                <use id="zoomminus" xlink:href="#zoomMin" x="42" y="9" onmousedown="handleZoom(evt,'out')"/>
                <use id="reset" xlink:href="#resetDef" x="30" y="36" onmousedown="handleReset()"/>
                <g id="arrowUp" xlink:href="#dirArrow" transform="translate(30 24)" onmousedown="handlePan(0,-1)">
                  <use xlink:href="#rim" fill="#404040">
                        <set attributeName="fill" to="#808080" begin="arrowUp.mouseover" end="arrowUp.mouseout"/>
                  </use>
                  <path fill="none" stroke="white" stroke-width="1.5" d="M0,-3.0v7 M-2.5,-0.5L0,-3.0L2.5,-0.5"/>
                </g>
                <g id="arrowRight" xlink:href="#dirArrow" transform="rotate(90) translate(36 -43)" onmousedown="handlePan(1,0)">
                  <use xlink:href="#rim" fill="#404040">
                        <set attributeName="fill" to="#808080" begin="arrowRight.mouseover" end="arrowRight.mouseout"/>
                  </use>
                  <path fill="none" stroke="white" stroke-width="1.5" d="M0,-3.0v7 M-2.5,-0.5L0,-3.0L2.5,-0.5"/>
                </g>
                <g id="arrowDown" xlink:href="#dirArrow" transform="rotate(180) translate(-30 -48)" onmousedown="handlePan(0,1)">
                  <use xlink:href="#rim" fill="#404040">
                        <set attributeName="fill" to="#808080" begin="arrowDown.mouseover" end="arrowDown.mouseout"/>
                  </use>
                  <path fill="none" stroke="white" stroke-width="1.5" d="M0,-3.0v7 M-2.5,-0.5L0,-3.0L2.5,-0.5"/>
                </g>
                <g id="arrowLeft" xlink:href="#dirArrow" transform="rotate(270) translate(-36 17)" onmousedown="handlePan(-1,0)">
                  <use xlink:href="#rim" fill="#404040">
                        <set attributeName="fill" to="#808080" begin="arrowLeft.mouseover" end="arrowLeft.mouseout"/>
                  </use>
                  <path fill="none" stroke="white" stroke-width="1.5" d="M0,-3.0v7 M-2.5,-0.5L0,-3.0L2.5,-0.5"/>
                </g>
        </g>
        <svg viewBox="0 0 15 15" width="100%" height="30px" preserveAspectRatio="xMaxYMin meet">
         <g id="arrow_out" transform="scale(0.3 0.3)">
          <a xlink:href="class_parse_gen_1_1_g_u_i_1_1_parse_tree_1_1_renderer__coll__graph_org.svg" target="_base">
           <rect id="button" ry="5" rx="5" y="6" x="6" height="38" width="38"
                fill="#f2f5e9" fill-opacity="0.5" stroke="#606060" stroke-width="1.0"/>
           <path id="arrow"
             d="M 11.500037,31.436501 C 11.940474,20.09759 22.043105,11.32322 32.158766,21.979434 L 37.068811,17.246167 C 37.068811,17.246167 37.088388,32 37.088388,32 L 22.160133,31.978069 C 22.160133,31.978069 26.997745,27.140456 26.997745,27.140456 C 18.528582,18.264221 13.291696,25.230495 11.500037,31.436501 z"
             style="fill:#404040;"/>
          </a>
         </g>
        </svg>
</svg>
