<?xml version="1.0" encoding="UTF-8" standalone="no"?>
<!DOCTYPE svg PUBLIC "-//W3C//DTD SVG 1.1//EN"
 "http://www.w3.org/Graphics/SVG/1.1/DTD/svg11.dtd">
<!-- Generated by graphviz version 2.43.0 (0)
 -->
<!-- Title: ParseGen::GUI::ParseTree::Renderer::render Pages: 1 -->
<!--zoomable 387 -->
<svg id="main" version="1.1" xmlns="http://www.w3.org/2000/svg" xmlns:xlink="http://www.w3.org/1999/xlink" xml:space="preserve" onload="init(evt)">
<style type="text/css"><![CDATA[
.edge:hover path { stroke: red; }
.edge:hover polygon { stroke: red; fill: red; }
]]></style>
<script type="text/javascript"><![CDATA[
var edges = document.getElementsByTagName('g');
if (edges && edges.length) {
  for (var i=0;i<edges.length;i++) {
    if (edges[i].id.substr(0,4)=='edge') {
      edges[i].setAttribute('class','edge');
    }
  }
}
]]></script>
        <defs>
                <circle id="rim" cx="0" cy="0" r="7"/>
                <circle id="rim2" cx="0" cy="0" r="3.5"/>
                <g id="zoomPlus">
                        <use xlink:href="#rim" fill="#404040">
                                <set attributeName="fill" to="#808080" begin="zoomplus.mouseover" end="zoomplus.mouseout"/>
                        </use>
                        <path d="M-4,0h8M0,-4v8" fill="none" stroke="white" stroke-width="1.5" pointer-events="none"/>
                </g>
                <g id="zoomMin">
                        <use xlink:href="#rim" fill="#404040">
                                <set attributeName="fill" to="#808080" begin="zoomminus.mouseover" end="zoomminus.mouseout"/>
                        </use>
                        <path d="M-4,0h8" fill="none" stroke="white" stroke-width="1.5" pointer-events="none"/>
                </g>
                <g id="dirArrow">
                        <path fill="none" stroke="white" stroke-width="1.5" d="M0,-3.0v7 M-2.5,-0.5L0,-3.0L2.5,-0.5"/>
                </g>
               <g id="resetDef">
                       <use xlink:href="#rim2" fill="#404040">
                               <set attributeName="fill" to="#808080" begin="reset.mouseover" end="reset.mouseout"/>
                       </use>
               </g>
        </defs>

<script type="text/javascript">
var viewWidth = 1193;
var viewHeight = 387;
var sectionId = 'dynsection-16';
</script>
<script xlink:href="svgpan.js"/>
<svg id="graph" class="graph">
<g id="viewport">
<title>ParseGen::GUI::ParseTree::Renderer::render</title>
<polygon fill="white" stroke="transparent" points="-4,4 -4,-382.71 1189,-382.71 1189,4 -4,4"/>
<!-- Node1 -->
<g id="node1" class="node">
<title>Node1</title>
<g id="a_node1"><a xlink:title=" ">
<polygon fill="#bfbfbf" stroke="black" points="0,-101.21 0,-131.21 139,-131.21 139,-101.21 0,-101.21"/>
<text text-anchor="start" x="8" y="-119.21" font-family="Helvetica,sans-Serif" font-size="10.00">ParseGen::GUI::ParseTree</text>
<text text-anchor="middle" x="69.5" y="-108.21" font-family="Helvetica,sans-Serif" font-size="10.00">::Renderer::render</text>
</a>
</g>
</g>
<!-- Node2 -->
<g id="node2" class="node">
<title>Node2</title>
<g id="a_node2"><a xlink:href="class_parse_gen_1_1_g_u_i_1_1_parse_tree_1_1_renderer.html#ad78db935f4cf7c17e347cc1e26b469c3" target="_top" xlink:title=" ">
<polygon fill="white" stroke="black" points="181.5,-233.21 181.5,-263.21 320.5,-263.21 320.5,-233.21 181.5,-233.21"/>
<text text-anchor="start" x="189.5" y="-251.21" font-family="Helvetica,sans-Serif" font-size="10.00">ParseGen::GUI::ParseTree</text>
<text text-anchor="middle" x="251" y="-240.21" font-family="Helvetica,sans-Serif" font-size="10.00">::Renderer::buchheim</text>
</a>
</g>
</g>
<!-- Node1&#45;&gt;Node2 -->
<g id="edge1" class="edge">
<title>Node1&#45;&gt;Node2</title>
<path fill="none" stroke="midnightblue" d="M91.09,-131.35C123.06,-154.86 184.74,-200.21 221.14,-226.98"/>
<polygon fill="midnightblue" stroke="midnightblue" points="219.24,-229.93 229.37,-233.04 223.39,-224.3 219.24,-229.93"/>
</g>
<!-- Node15 -->
<g id="node15" class="node">
<title>Node15</title>
<g id="a_node15"><a xlink:href="class_parse_gen_1_1_g_u_i_1_1_parse_tree_1_1_renderer.html#adc385d0528bcc7b3cbb44c005136d238" target="_top" xlink:title=" ">
<polygon fill="white" stroke="black" points="175,-77.21 175,-107.21 327,-107.21 327,-77.21 175,-77.21"/>
<text text-anchor="start" x="183" y="-95.21" font-family="Helvetica,sans-Serif" font-size="10.00">ParseGen::GUI::ParseTree</text>
<text text-anchor="middle" x="251" y="-84.21" font-family="Helvetica,sans-Serif" font-size="10.00">::Renderer::createGeometry</text>
</a>
</g>
</g>
<!-- Node1&#45;&gt;Node15 -->
<g id="edge23" class="edge">
<title>Node1&#45;&gt;Node15</title>
<path fill="none" stroke="midnightblue" d="M139.13,-107.03C147.52,-105.91 156.18,-104.75 164.78,-103.6"/>
<polygon fill="midnightblue" stroke="midnightblue" points="165.38,-107.05 174.83,-102.26 164.45,-100.11 165.38,-107.05"/>
</g>
<!-- Node3 -->
<g id="node3" class="node">
<title>Node3</title>
<g id="a_node3"><a xlink:href="class_parse_gen_1_1_g_u_i_1_1_parse_tree_1_1_renderer.html#a46550a469f1074425bd471df5810bdfa" target="_top" xlink:title=" ">
<polygon fill="white" stroke="black" points="363,-167.21 363,-197.21 502,-197.21 502,-167.21 363,-167.21"/>
<text text-anchor="start" x="371" y="-185.21" font-family="Helvetica,sans-Serif" font-size="10.00">ParseGen::GUI::ParseTree</text>
<text text-anchor="middle" x="432.5" y="-174.21" font-family="Helvetica,sans-Serif" font-size="10.00">::Renderer::firstWalk</text>
</a>
</g>
</g>
<!-- Node2&#45;&gt;Node3 -->
<g id="edge2" class="edge">
<title>Node2&#45;&gt;Node3</title>
<path fill="none" stroke="midnightblue" d="M293.18,-233.07C319.29,-223.47 353.25,-210.98 380.98,-200.78"/>
<polygon fill="midnightblue" stroke="midnightblue" points="382.33,-204.02 390.51,-197.28 379.92,-197.45 382.33,-204.02"/>
</g>
<!-- Node13 -->
<g id="node13" class="node">
<title>Node13</title>
<g id="a_node13"><a xlink:href="class_parse_gen_1_1_g_u_i_1_1_parse_tree_1_1_renderer.html#a6ab1ab51e304147a0e9caf27b469ca47" target="_top" xlink:title=" ">
<polygon fill="white" stroke="black" points="888,-348.21 888,-378.21 1027,-378.21 1027,-348.21 888,-348.21"/>
<text text-anchor="start" x="896" y="-366.21" font-family="Helvetica,sans-Serif" font-size="10.00">ParseGen::GUI::ParseTree</text>
<text text-anchor="middle" x="957.5" y="-355.21" font-family="Helvetica,sans-Serif" font-size="10.00">::Renderer::secondWalk</text>
</a>
</g>
</g>
<!-- Node2&#45;&gt;Node13 -->
<g id="edge19" class="edge">
<title>Node2&#45;&gt;Node13</title>
<path fill="none" stroke="midnightblue" d="M281.84,-263.24C303.75,-273.61 334.53,-286.81 363,-294.21 543.29,-341.07 762.69,-356.14 877.61,-360.96"/>
<polygon fill="midnightblue" stroke="midnightblue" points="877.59,-364.46 887.73,-361.37 877.88,-357.47 877.59,-364.46"/>
</g>
<!-- Node14 -->
<g id="node14" class="node">
<title>Node14</title>
<g id="a_node14"><a xlink:href="class_parse_gen_1_1_g_u_i_1_1_parse_tree_1_1_renderer.html#a035117435d0ca469a41974801c15b624" target="_top" xlink:title=" ">
<polygon fill="white" stroke="black" points="888,-299.21 888,-329.21 1027,-329.21 1027,-299.21 888,-299.21"/>
<text text-anchor="start" x="896" y="-317.21" font-family="Helvetica,sans-Serif" font-size="10.00">ParseGen::GUI::ParseTree</text>
<text text-anchor="middle" x="957.5" y="-306.21" font-family="Helvetica,sans-Serif" font-size="10.00">::Renderer::thirdWalk</text>
</a>
</g>
</g>
<!-- Node2&#45;&gt;Node14 -->
<g id="edge21" class="edge">
<title>Node2&#45;&gt;Node14</title>
<path fill="none" stroke="midnightblue" d="M320.75,-261.84C378.5,-272.72 463.31,-287.4 538,-295.21 656,-307.54 793.53,-311.87 877.8,-313.39"/>
<polygon fill="midnightblue" stroke="midnightblue" points="877.75,-316.89 887.81,-313.56 877.87,-309.89 877.75,-316.89"/>
</g>
<!-- Node4 -->
<g id="node4" class="node">
<title>Node4</title>
<g id="a_node4"><a xlink:href="class_parse_gen_1_1_g_u_i_1_1_parse_tree_1_1_renderer.html#a1ec1420e7fd1ee44109571b9ffe9dfd2" target="_top" xlink:title=" ">
<polygon fill="white" stroke="black" points="538,-167.21 538,-197.21 677,-197.21 677,-167.21 538,-167.21"/>
<text text-anchor="start" x="546" y="-185.21" font-family="Helvetica,sans-Serif" font-size="10.00">ParseGen::GUI::ParseTree</text>
<text text-anchor="middle" x="607.5" y="-174.21" font-family="Helvetica,sans-Serif" font-size="10.00">::Renderer::apportion</text>
</a>
</g>
</g>
<!-- Node3&#45;&gt;Node4 -->
<g id="edge3" class="edge">
<title>Node3&#45;&gt;Node4</title>
<path fill="none" stroke="midnightblue" d="M502.37,-182.21C510.68,-182.21 519.21,-182.21 527.65,-182.21"/>
<polygon fill="midnightblue" stroke="midnightblue" points="527.87,-185.71 537.87,-182.21 527.87,-178.71 527.87,-185.71"/>
</g>
<!-- Node6 -->
<g id="node6" class="node">
<title>Node6</title>
<g id="a_node6"><a xlink:href="class_parse_gen_1_1_parser_1_1_util_1_1_node.html#a9f6a4d36f302d5a99e02919f8e57b1b7" target="_top" xlink:title=" ">
<polygon fill="white" stroke="black" points="1063,-162.21 1063,-192.21 1185,-192.21 1185,-162.21 1063,-162.21"/>
<text text-anchor="start" x="1071" y="-180.21" font-family="Helvetica,sans-Serif" font-size="10.00">ParseGen::Parser::Util</text>
<text text-anchor="middle" x="1124" y="-169.21" font-family="Helvetica,sans-Serif" font-size="10.00">::Node::getChildren</text>
</a>
</g>
</g>
<!-- Node3&#45;&gt;Node6 -->
<g id="edge15" class="edge">
<title>Node3&#45;&gt;Node6</title>
<path fill="none" stroke="midnightblue" d="M463.42,-167.02C483.93,-157.18 512.03,-144.83 538,-137.21 672.48,-97.75 712.23,-97.88 852,-108.21 930.42,-114 951.53,-112.15 1027,-134.21 1046.97,-140.04 1068.17,-149.2 1085.56,-157.56"/>
<polygon fill="midnightblue" stroke="midnightblue" points="1084.28,-160.83 1094.79,-162.1 1087.36,-154.55 1084.28,-160.83"/>
</g>
<!-- Node7 -->
<g id="node7" class="node">
<title>Node7</title>
<g id="a_node7"><a xlink:href="class_parse_gen_1_1_parser_1_1_util_1_1_node.html#afbbbd132c124231845cb87dce14734d2" target="_top" xlink:title=" ">
<polygon fill="white" stroke="black" points="721.5,-255.21 721.5,-285.21 843.5,-285.21 843.5,-255.21 721.5,-255.21"/>
<text text-anchor="start" x="729.5" y="-273.21" font-family="Helvetica,sans-Serif" font-size="10.00">ParseGen::Parser::Util</text>
<text text-anchor="middle" x="782.5" y="-262.21" font-family="Helvetica,sans-Serif" font-size="10.00">::Node::leftBrother</text>
</a>
</g>
</g>
<!-- Node3&#45;&gt;Node7 -->
<g id="edge17" class="edge">
<title>Node3&#45;&gt;Node7</title>
<path fill="none" stroke="midnightblue" d="M492.93,-197.24C553.64,-212.59 647.87,-236.42 712,-252.63"/>
<polygon fill="midnightblue" stroke="midnightblue" points="711.47,-256.11 722.03,-255.17 713.19,-249.32 711.47,-256.11"/>
</g>
<!-- Node8 -->
<g id="node8" class="node">
<title>Node8</title>
<g id="a_node8"><a xlink:href="class_parse_gen_1_1_parser_1_1_util_1_1_node.html#ae7d9ec153e19801696a5b748983e2bb9" target="_top" xlink:title=" ">
<polygon fill="white" stroke="black" points="718.5,-118.21 718.5,-148.21 846.5,-148.21 846.5,-118.21 718.5,-118.21"/>
<text text-anchor="start" x="726.5" y="-136.21" font-family="Helvetica,sans-Serif" font-size="10.00">ParseGen::Parser::Util</text>
<text text-anchor="middle" x="782.5" y="-125.21" font-family="Helvetica,sans-Serif" font-size="10.00">::Node::leftmostSibling</text>
</a>
</g>
</g>
<!-- Node3&#45;&gt;Node8 -->
<g id="edge18" class="edge">
<title>Node3&#45;&gt;Node8</title>
<path fill="none" stroke="midnightblue" d="M490.16,-167.16C505.59,-163.48 522.36,-159.84 538,-157.21 594.81,-147.66 659.75,-141.49 708.28,-137.8"/>
<polygon fill="midnightblue" stroke="midnightblue" points="708.66,-141.29 718.38,-137.05 708.14,-134.3 708.66,-141.29"/>
</g>
<!-- Node11 -->
<g id="node11" class="node">
<title>Node11</title>
<g id="a_node11"><a xlink:href="class_parse_gen_1_1_g_u_i_1_1_parse_tree_1_1_renderer.html#ae4290efcf6d563e34bed71e13794008d" target="_top" xlink:title=" ">
<polygon fill="white" stroke="black" points="538,-36.21 538,-66.21 677,-66.21 677,-36.21 538,-36.21"/>
<text text-anchor="start" x="546" y="-54.21" font-family="Helvetica,sans-Serif" font-size="10.00">ParseGen::GUI::ParseTree</text>
<text text-anchor="middle" x="607.5" y="-43.21" font-family="Helvetica,sans-Serif" font-size="10.00">::Renderer::executeShifts</text>
</a>
</g>
</g>
<!-- Node3&#45;&gt;Node11 -->
<g id="edge13" class="edge">
<title>Node3&#45;&gt;Node11</title>
<path fill="none" stroke="midnightblue" d="M449.3,-167.02C463.2,-153.66 483.96,-133.67 502,-116.21 518.03,-100.69 519.48,-93.66 538,-81.21 543.65,-77.41 549.85,-73.91 556.15,-70.75"/>
<polygon fill="midnightblue" stroke="midnightblue" points="557.86,-73.81 565.39,-66.35 554.86,-67.49 557.86,-73.81"/>
</g>
<!-- Node12 -->
<g id="node12" class="node">
<title>Node12</title>
<g id="a_node12"><a xlink:href="class_parse_gen_1_1_parser_1_1_util_1_1_node.html#a01741e0c2ffacf157d126a9a75fddce7" target="_top" xlink:title=" ">
<polygon fill="white" stroke="black" points="546.5,-255.21 546.5,-285.21 668.5,-285.21 668.5,-255.21 546.5,-255.21"/>
<text text-anchor="start" x="554.5" y="-273.21" font-family="Helvetica,sans-Serif" font-size="10.00">ParseGen::Parser::Util</text>
<text text-anchor="middle" x="607.5" y="-262.21" font-family="Helvetica,sans-Serif" font-size="10.00">::Node::isLeaf</text>
</a>
</g>
</g>
<!-- Node3&#45;&gt;Node12 -->
<g id="edge16" class="edge">
<title>Node3&#45;&gt;Node12</title>
<path fill="none" stroke="midnightblue" d="M459.34,-197.44C480.27,-209.56 510.67,-226.67 538,-240.21 545.36,-243.85 553.27,-247.53 561,-251"/>
<polygon fill="midnightblue" stroke="midnightblue" points="559.74,-254.27 570.3,-255.11 562.57,-247.86 559.74,-254.27"/>
</g>
<!-- Node5 -->
<g id="node5" class="node">
<title>Node5</title>
<g id="a_node5"><a xlink:href="class_parse_gen_1_1_g_u_i_1_1_parse_tree_1_1_renderer.html#ab05b5f4e1d932c0d1f40e58b1356a356" target="_top" xlink:title=" ">
<polygon fill="white" stroke="black" points="888,-211.21 888,-241.21 1027,-241.21 1027,-211.21 888,-211.21"/>
<text text-anchor="start" x="896" y="-229.21" font-family="Helvetica,sans-Serif" font-size="10.00">ParseGen::GUI::ParseTree</text>
<text text-anchor="middle" x="957.5" y="-218.21" font-family="Helvetica,sans-Serif" font-size="10.00">::Renderer::ancestor</text>
</a>
</g>
</g>
<!-- Node4&#45;&gt;Node5 -->
<g id="edge4" class="edge">
<title>Node4&#45;&gt;Node5</title>
<path fill="none" stroke="midnightblue" d="M667.07,-197.22C681.97,-200.61 698.01,-203.88 713,-206.21 767.79,-214.7 830.1,-219.74 877.98,-222.63"/>
<polygon fill="midnightblue" stroke="midnightblue" points="877.78,-226.12 887.97,-223.22 878.19,-219.14 877.78,-226.12"/>
</g>
<!-- Node4&#45;&gt;Node7 -->
<g id="edge6" class="edge">
<title>Node4&#45;&gt;Node7</title>
<path fill="none" stroke="midnightblue" d="M647.38,-197.24C657.28,-201.6 667.74,-206.7 677,-212.21 694.42,-222.58 695.58,-229.84 713,-240.21 719.37,-244 726.3,-247.59 733.23,-250.88"/>
<polygon fill="midnightblue" stroke="midnightblue" points="732.07,-254.2 742.62,-255.17 734.98,-247.83 732.07,-254.2"/>
</g>
<!-- Node4&#45;&gt;Node8 -->
<g id="edge8" class="edge">
<title>Node4&#45;&gt;Node8</title>
<path fill="none" stroke="midnightblue" d="M661.82,-167.11C679.74,-162.03 699.91,-156.32 718.51,-151.05"/>
<polygon fill="midnightblue" stroke="midnightblue" points="719.69,-154.35 728.36,-148.26 717.78,-147.62 719.69,-154.35"/>
</g>
<!-- Node9 -->
<g id="node9" class="node">
<title>Node9</title>
<g id="a_node9"><a xlink:href="class_parse_gen_1_1_g_u_i_1_1_parse_tree_1_1_renderer.html#a423a8b985db786b9b1be9fbfaeeb1a85" target="_top" xlink:title=" ">
<polygon fill="white" stroke="black" points="713,-167.21 713,-197.21 852,-197.21 852,-167.21 713,-167.21"/>
<text text-anchor="start" x="721" y="-185.21" font-family="Helvetica,sans-Serif" font-size="10.00">ParseGen::GUI::ParseTree</text>
<text text-anchor="middle" x="782.5" y="-174.21" font-family="Helvetica,sans-Serif" font-size="10.00">::Renderer::moveSubtree</text>
</a>
</g>
</g>
<!-- Node4&#45;&gt;Node9 -->
<g id="edge10" class="edge">
<title>Node4&#45;&gt;Node9</title>
<path fill="none" stroke="midnightblue" d="M677.37,-182.21C685.68,-182.21 694.21,-182.21 702.65,-182.21"/>
<polygon fill="midnightblue" stroke="midnightblue" points="702.87,-185.71 712.87,-182.21 702.87,-178.71 702.87,-185.71"/>
</g>
<!-- Node5&#45;&gt;Node6 -->
<g id="edge5" class="edge">
<title>Node5&#45;&gt;Node6</title>
<path fill="none" stroke="midnightblue" d="M1009.2,-211.11C1026.16,-206.05 1045.24,-200.37 1062.86,-195.12"/>
<polygon fill="midnightblue" stroke="midnightblue" points="1063.89,-198.47 1072.47,-192.26 1061.89,-191.76 1063.89,-198.47"/>
</g>
<!-- Node7&#45;&gt;Node6 -->
<g id="edge7" class="edge">
<title>Node7&#45;&gt;Node6</title>
<path fill="none" stroke="midnightblue" d="M843.64,-274.88C894.24,-276.64 967.64,-274.05 1027,-251.21 1056.21,-239.97 1083.89,-216.81 1101.95,-199.37"/>
<polygon fill="midnightblue" stroke="midnightblue" points="1104.45,-201.83 1109.08,-192.3 1099.52,-196.86 1104.45,-201.83"/>
</g>
<!-- Node8&#45;&gt;Node6 -->
<g id="edge9" class="edge">
<title>Node8&#45;&gt;Node6</title>
<path fill="none" stroke="midnightblue" d="M846.68,-135.07C896.06,-137.27 966.26,-142.01 1027,-152.21 1038.43,-154.13 1050.48,-156.76 1062.04,-159.61"/>
<polygon fill="midnightblue" stroke="midnightblue" points="1061.49,-163.08 1072.05,-162.15 1063.22,-156.3 1061.49,-163.08"/>
</g>
<!-- Node10 -->
<g id="node10" class="node">
<title>Node10</title>
<g id="a_node10"><a xlink:href="class_parse_gen_1_1_parser_1_1_util_1_1_node.html#af01131ce359e0751d7c449a163fd9336" target="_top" xlink:title=" ">
<polygon fill="white" stroke="black" points="896.5,-162.21 896.5,-192.21 1018.5,-192.21 1018.5,-162.21 896.5,-162.21"/>
<text text-anchor="start" x="904.5" y="-180.21" font-family="Helvetica,sans-Serif" font-size="10.00">ParseGen::Parser::Util</text>
<text text-anchor="middle" x="957.5" y="-169.21" font-family="Helvetica,sans-Serif" font-size="10.00">::Node::number</text>
</a>
</g>
</g>
<!-- Node9&#45;&gt;Node10 -->
<g id="edge11" class="edge">
<title>Node9&#45;&gt;Node10</title>
<path fill="none" stroke="midnightblue" d="M852.37,-180.22C863.48,-179.9 875,-179.56 886.14,-179.24"/>
<polygon fill="midnightblue" stroke="midnightblue" points="886.35,-182.74 896.25,-178.95 886.15,-175.74 886.35,-182.74"/>
</g>
<!-- Node10&#45;&gt;Node6 -->
<g id="edge12" class="edge">
<title>Node10&#45;&gt;Node6</title>
<path fill="none" stroke="midnightblue" d="M1018.82,-177.21C1029.84,-177.21 1041.43,-177.21 1052.71,-177.21"/>
<polygon fill="midnightblue" stroke="midnightblue" points="1052.96,-180.71 1062.96,-177.21 1052.96,-173.71 1052.96,-180.71"/>
</g>
<!-- Node11&#45;&gt;Node6 -->
<g id="edge14" class="edge">
<title>Node11&#45;&gt;Node6</title>
<path fill="none" stroke="midnightblue" d="M677.09,-40.22C763.2,-29.67 913.4,-22.21 1027,-75.21 1063.11,-92.06 1092.33,-129.13 1108.68,-153.63"/>
<polygon fill="midnightblue" stroke="midnightblue" points="1105.74,-155.53 1114.11,-162.03 1111.62,-151.73 1105.74,-155.53"/>
</g>
<!-- Node13&#45;&gt;Node6 -->
<g id="edge20" class="edge">
<title>Node13&#45;&gt;Node6</title>
<path fill="none" stroke="midnightblue" d="M1013.15,-348.14C1018.09,-345.6 1022.81,-342.64 1027,-339.21 1072.34,-302.06 1101.26,-237.48 1114.52,-202.12"/>
<polygon fill="midnightblue" stroke="midnightblue" points="1117.87,-203.15 1117.99,-192.55 1111.29,-200.76 1117.87,-203.15"/>
</g>
<!-- Node14&#45;&gt;Node6 -->
<g id="edge22" class="edge">
<title>Node14&#45;&gt;Node6</title>
<path fill="none" stroke="midnightblue" d="M1000.62,-299.15C1009.72,-294.98 1019,-289.99 1027,-284.21 1059.46,-260.73 1088.95,-224.64 1106.44,-200.97"/>
<polygon fill="midnightblue" stroke="midnightblue" points="1109.5,-202.71 1112.53,-192.56 1103.83,-198.6 1109.5,-202.71"/>
</g>
<!-- Node15&#45;&gt;Node6 -->
<g id="edge24" class="edge">
<title>Node15&#45;&gt;Node6</title>
<path fill="none" stroke="midnightblue" d="M289.07,-77.21C352.83,-52.81 487.83,-7.21 606.5,-7.21 606.5,-7.21 606.5,-7.21 783.5,-7.21 892.44,-7.21 933.87,21.3 1027,-35.21 1071.96,-62.49 1100.59,-119.77 1114.02,-152.64"/>
<polygon fill="midnightblue" stroke="midnightblue" points="1110.78,-153.96 1117.7,-161.99 1117.29,-151.4 1110.78,-153.96"/>
</g>
<!-- Node16 -->
<g id="node16" class="node">
<title>Node16</title>
<g id="a_node16"><a xlink:href="class_parse_gen_1_1_parser_1_1_util_1_1_symbol.html#a49004cbef803410ccc3a616a8ea6e628" target="_top" xlink:title=" ">
<polygon fill="white" stroke="black" points="371.5,-77.21 371.5,-107.21 493.5,-107.21 493.5,-77.21 371.5,-77.21"/>
<text text-anchor="start" x="379.5" y="-95.21" font-family="Helvetica,sans-Serif" font-size="10.00">ParseGen::Parser::Util</text>
<text text-anchor="middle" x="432.5" y="-84.21" font-family="Helvetica,sans-Serif" font-size="10.00">::Symbol::isTerminal</text>
</a>
</g>
</g>
<!-- Node15&#45;&gt;Node16 -->
<g id="edge25" class="edge">
<title>Node15&#45;&gt;Node16</title>
<path fill="none" stroke="midnightblue" d="M327.08,-92.21C338.41,-92.21 350.06,-92.21 361.28,-92.21"/>
<polygon fill="midnightblue" stroke="midnightblue" points="361.44,-95.71 371.44,-92.21 361.44,-88.71 361.44,-95.71"/>
</g>
</g>
</svg>
        <g id="navigator" transform="translate(0 0)" fill="#404254">
                <rect fill="#f2f5e9" fill-opacity="0.5" stroke="#606060" stroke-width=".5" x="0" y="0" width="60" height="60"/>
                <use id="zoomplus" xlink:href="#zoomPlus" x="17" y="9" onmousedown="handleZoom(evt,'in')"/>
                <use id="zoomminus" xlink:href="#zoomMin" x="42" y="9" onmousedown="handleZoom(evt,'out')"/>
                <use id="reset" xlink:href="#resetDef" x="30" y="36" onmousedown="handleReset()"/>
                <g id="arrowUp" xlink:href="#dirArrow" transform="translate(30 24)" onmousedown="handlePan(0,-1)">
                  <use xlink:href="#rim" fill="#404040">
                        <set attributeName="fill" to="#808080" begin="arrowUp.mouseover" end="arrowUp.mouseout"/>
                  </use>
                  <path fill="none" stroke="white" stroke-width="1.5" d="M0,-3.0v7 M-2.5,-0.5L0,-3.0L2.5,-0.5"/>
                </g>
                <g id="arrowRight" xlink:href="#dirArrow" transform="rotate(90) translate(36 -43)" onmousedown="handlePan(1,0)">
                  <use xlink:href="#rim" fill="#404040">
                        <set attributeName="fill" to="#808080" begin="arrowRight.mouseover" end="arrowRight.mouseout"/>
                  </use>
                  <path fill="none" stroke="white" stroke-width="1.5" d="M0,-3.0v7 M-2.5,-0.5L0,-3.0L2.5,-0.5"/>
                </g>
                <g id="arrowDown" xlink:href="#dirArrow" transform="rotate(180) translate(-30 -48)" onmousedown="handlePan(0,1)">
                  <use xlink:href="#rim" fill="#404040">
                        <set attributeName="fill" to="#808080" begin="arrowDown.mouseover" end="arrowDown.mouseout"/>
                  </use>
                  <path fill="none" stroke="white" stroke-width="1.5" d="M0,-3.0v7 M-2.5,-0.5L0,-3.0L2.5,-0.5"/>
                </g>
                <g id="arrowLeft" xlink:href="#dirArrow" transform="rotate(270) translate(-36 17)" onmousedown="handlePan(-1,0)">
                  <use xlink:href="#rim" fill="#404040">
                        <set attributeName="fill" to="#808080" begin="arrowLeft.mouseover" end="arrowLeft.mouseout"/>
                  </use>
                  <path fill="none" stroke="white" stroke-width="1.5" d="M0,-3.0v7 M-2.5,-0.5L0,-3.0L2.5,-0.5"/>
                </g>
        </g>
        <svg viewBox="0 0 15 15" width="100%" height="30px" preserveAspectRatio="xMaxYMin meet">
         <g id="arrow_out" transform="scale(0.3 0.3)">
          <a xlink:href="class_parse_gen_1_1_g_u_i_1_1_parse_tree_1_1_renderer_a43ca960ae888ca639273b8ac3b2e58ef_cgraph_org.svg" target="_base">
           <rect id="button" ry="5" rx="5" y="6" x="6" height="38" width="38"
                fill="#f2f5e9" fill-opacity="0.5" stroke="#606060" stroke-width="1.0"/>
           <path id="arrow"
             d="M 11.500037,31.436501 C 11.940474,20.09759 22.043105,11.32322 32.158766,21.979434 L 37.068811,17.246167 C 37.068811,17.246167 37.088388,32 37.088388,32 L 22.160133,31.978069 C 22.160133,31.978069 26.997745,27.140456 26.997745,27.140456 C 18.528582,18.264221 13.291696,25.230495 11.500037,31.436501 z"
             style="fill:#404040;"/>
          </a>
         </g>
        </svg>
</svg>
