<?xml version="1.0" encoding="UTF-8" standalone="no"?>
<!DOCTYPE svg PUBLIC "-//W3C//DTD SVG 1.1//EN"
 "http://www.w3.org/Graphics/SVG/1.1/DTD/svg11.dtd">
<!-- Generated by graphviz version 2.43.0 (0)
 -->
<!-- Title: ParseGen::GUI::NonTerminalNode Pages: 1 -->
<svg width="300pt" height="391pt"
 viewBox="0.00 0.00 299.50 391.00" xmlns="http://www.w3.org/2000/svg" xmlns:xlink="http://www.w3.org/1999/xlink">
<g id="graph0" class="graph" transform="scale(1 1) rotate(0) translate(4 387)">
<title>ParseGen::GUI::NonTerminalNode</title>
<polygon fill="white" stroke="transparent" points="-4,4 -4,-387 295.5,-387 295.5,4 -4,4"/>
<!-- Node1 -->
<g id="node1" class="node">
<title>Node1</title>
<g id="a_node1"><a xlink:title=" ">
<polygon fill="#bfbfbf" stroke="black" points="47,-0.5 47,-68.5 226,-68.5 226,-0.5 47,-0.5"/>
<text text-anchor="middle" x="136.5" y="-56.5" font-family="Helvetica,sans-Serif" font-size="10.00">ParseGen::GUI::NonTerminalNode</text>
<polyline fill="none" stroke="black" points="47,-49.5 226,-49.5 "/>
<text text-anchor="start" x="55" y="-37.5" font-family="Helvetica,sans-Serif" font-size="10.00">+ id</text>
<polyline fill="none" stroke="black" points="47,-30.5 226,-30.5 "/>
<text text-anchor="start" x="55" y="-18.5" font-family="Helvetica,sans-Serif" font-size="10.00">+ NonTerminalNode()</text>
<text text-anchor="start" x="55" y="-7.5" font-family="Helvetica,sans-Serif" font-size="10.00">+ Update()</text>
</a>
</g>
</g>
<!-- Node2 -->
<g id="node2" class="node">
<title>Node2</title>
<g id="a_node2"><a xlink:href="class_parse_gen_1_1_g_u_i_1_1_node.html" target="_top" xlink:title=" ">
<polygon fill="white" stroke="black" points="0,-116.5 0,-382.5 119,-382.5 119,-116.5 0,-116.5"/>
<text text-anchor="middle" x="59.5" y="-370.5" font-family="Helvetica,sans-Serif" font-size="10.00">ParseGen::GUI::Node</text>
<polyline fill="none" stroke="black" points="0,-363.5 119,-363.5 "/>
<text text-anchor="start" x="8" y="-351.5" font-family="Helvetica,sans-Serif" font-size="10.00">+ id</text>
<text text-anchor="start" x="8" y="-340.5" font-family="Helvetica,sans-Serif" font-size="10.00">+ nodeId</text>
<text text-anchor="start" x="8" y="-329.5" font-family="Helvetica,sans-Serif" font-size="10.00">+ inPin</text>
<text text-anchor="start" x="8" y="-318.5" font-family="Helvetica,sans-Serif" font-size="10.00">+ outPin</text>
<text text-anchor="start" x="8" y="-307.5" font-family="Helvetica,sans-Serif" font-size="10.00">+ inIsConnected</text>
<text text-anchor="start" x="8" y="-296.5" font-family="Helvetica,sans-Serif" font-size="10.00">+ outIsConnected</text>
<text text-anchor="start" x="8" y="-285.5" font-family="Helvetica,sans-Serif" font-size="10.00">+ numOutConnected</text>
<text text-anchor="start" x="8" y="-274.5" font-family="Helvetica,sans-Serif" font-size="10.00">+ numInConnected</text>
<text text-anchor="start" x="8" y="-263.5" font-family="Helvetica,sans-Serif" font-size="10.00">+ x</text>
<text text-anchor="start" x="8" y="-252.5" font-family="Helvetica,sans-Serif" font-size="10.00">+ y</text>
<text text-anchor="start" x="8" y="-241.5" font-family="Helvetica,sans-Serif" font-size="10.00">+ name</text>
<text text-anchor="start" x="8" y="-230.5" font-family="Helvetica,sans-Serif" font-size="10.00">+ nextLinks</text>
<text text-anchor="start" x="8" y="-219.5" font-family="Helvetica,sans-Serif" font-size="10.00">+ iconType</text>
<text text-anchor="start" x="8" y="-208.5" font-family="Helvetica,sans-Serif" font-size="10.00">+ pinColor</text>
<text text-anchor="start" x="8" y="-197.5" font-family="Helvetica,sans-Serif" font-size="10.00">+ innerPinColor</text>
<text text-anchor="start" x="8" y="-186.5" font-family="Helvetica,sans-Serif" font-size="10.00">+ currentId</text>
<text text-anchor="start" x="8" y="-175.5" font-family="Helvetica,sans-Serif" font-size="10.00">+ IconSize</text>
<polyline fill="none" stroke="black" points="0,-168.5 119,-168.5 "/>
<text text-anchor="start" x="8" y="-156.5" font-family="Helvetica,sans-Serif" font-size="10.00">+ Node()</text>
<text text-anchor="start" x="8" y="-145.5" font-family="Helvetica,sans-Serif" font-size="10.00">+ Update()</text>
<text text-anchor="start" x="8" y="-134.5" font-family="Helvetica,sans-Serif" font-size="10.00">+ RenderFrame()</text>
<text text-anchor="start" x="8" y="-123.5" font-family="Helvetica,sans-Serif" font-size="10.00">+ ~Node()</text>
</a>
</g>
</g>
<!-- Node2&#45;&gt;Node1 -->
<g id="edge1" class="edge">
<title>Node2&#45;&gt;Node1</title>
<path fill="none" stroke="midnightblue" d="M110.79,-106.61C115.8,-92.77 120.48,-79.82 124.44,-68.87"/>
<polygon fill="none" stroke="midnightblue" points="107.39,-105.74 107.28,-116.33 113.97,-108.12 107.39,-105.74"/>
</g>
<!-- Node3 -->
<g id="node3" class="node">
<title>Node3</title>
<g id="a_node3"><a xlink:href="class_parse_gen_1_1_g_u_i_1_1_non_terminal.html" target="_top" xlink:title=" ">
<polygon fill="white" stroke="black" points="137.5,-193.5 137.5,-305.5 291.5,-305.5 291.5,-193.5 137.5,-193.5"/>
<text text-anchor="middle" x="214.5" y="-293.5" font-family="Helvetica,sans-Serif" font-size="10.00">ParseGen::GUI::NonTerminal</text>
<polyline fill="none" stroke="black" points="137.5,-286.5 291.5,-286.5 "/>
<text text-anchor="start" x="145.5" y="-274.5" font-family="Helvetica,sans-Serif" font-size="10.00">+ id</text>
<text text-anchor="start" x="145.5" y="-263.5" font-family="Helvetica,sans-Serif" font-size="10.00">+ name</text>
<text text-anchor="start" x="145.5" y="-252.5" font-family="Helvetica,sans-Serif" font-size="10.00">+ isStartSymbol</text>
<text text-anchor="start" x="145.5" y="-241.5" font-family="Helvetica,sans-Serif" font-size="10.00">+ current_id</text>
<text text-anchor="start" x="145.5" y="-230.5" font-family="Helvetica,sans-Serif" font-size="10.00">+ allNonTerminals</text>
<polyline fill="none" stroke="black" points="137.5,-223.5 291.5,-223.5 "/>
<text text-anchor="start" x="145.5" y="-211.5" font-family="Helvetica,sans-Serif" font-size="10.00">+ NonTerminal()</text>
<text text-anchor="start" x="145.5" y="-200.5" font-family="Helvetica,sans-Serif" font-size="10.00">+ rename()</text>
</a>
</g>
</g>
<!-- Node3&#45;&gt;Node1 -->
<g id="edge2" class="edge">
<title>Node3&#45;&gt;Node1</title>
<path fill="none" stroke="#404040" d="M194.31,-193.37C181.45,-158.24 164.99,-113.3 152.93,-80.36"/>
<polygon fill="none" stroke="#404040" points="152.82,-80.08 147.01,-75.82 148.7,-68.81 154.52,-73.07 152.82,-80.08"/>
<text text-anchor="middle" x="177" y="-90" font-family="Helvetica,sans-Serif" font-size="10.00"> +value</text>
</g>
</g>
</svg>
