<?xml version="1.0" encoding="UTF-8" standalone="no"?>
<!DOCTYPE svg PUBLIC "-//W3C//DTD SVG 1.1//EN"
 "http://www.w3.org/Graphics/SVG/1.1/DTD/svg11.dtd">
<!-- Generated by graphviz version 2.43.0 (0)
 -->
<!-- Title: ParseGen::Parser::LLPredictiveParser::LLPredictiveParserGenerator::codeToString Pages: 1 -->
<svg width="626pt" height="140pt"
 viewBox="0.00 0.00 626.00 140.00" xmlns="http://www.w3.org/2000/svg" xmlns:xlink="http://www.w3.org/1999/xlink">
<g id="graph0" class="graph" transform="scale(1 1) rotate(0) translate(4 136)">
<title>ParseGen::Parser::LLPredictiveParser::LLPredictiveParserGenerator::codeToString</title>
<polygon fill="white" stroke="transparent" points="-4,4 -4,-136 622,-136 622,4 -4,4"/>
<!-- Node1 -->
<g id="node1" class="node">
<title>Node1</title>
<g id="a_node1"><a xlink:title=" ">
<polygon fill="#bfbfbf" stroke="black" points="0,-68 0,-109 191,-109 191,-68 0,-68"/>
<text text-anchor="start" x="8" y="-97" font-family="Helvetica,sans-Serif" font-size="10.00">ParseGen::Parser::LLPredictive</text>
<text text-anchor="start" x="8" y="-86" font-family="Helvetica,sans-Serif" font-size="10.00">Parser::LLPredictiveParserGenerator</text>
<text text-anchor="middle" x="95.5" y="-75" font-family="Helvetica,sans-Serif" font-size="10.00">::codeToString</text>
</a>
</g>
</g>
<!-- Node2 -->
<g id="node2" class="node">
<title>Node2</title>
<g id="a_node2"><a xlink:href="class_parse_gen_1_1_parser_1_1_l_l_predictive_parser_1_1_parser_table.html#a857d934a198b2d797840ac9a346f2d05" target="_top" xlink:title=" ">
<polygon fill="white" stroke="black" points="233,-101.5 233,-131.5 412,-131.5 412,-101.5 233,-101.5"/>
<text text-anchor="start" x="241" y="-119.5" font-family="Helvetica,sans-Serif" font-size="10.00">ParseGen::Parser::LLPredictive</text>
<text text-anchor="middle" x="322.5" y="-108.5" font-family="Helvetica,sans-Serif" font-size="10.00">Parser::ParserTable::creationCode</text>
</a>
</g>
</g>
<!-- Node1&#45;&gt;Node2 -->
<g id="edge1" class="edge">
<title>Node1&#45;&gt;Node2</title>
<path fill="none" stroke="midnightblue" d="M191.27,-100.29C201.73,-101.6 212.41,-102.92 222.92,-104.23"/>
<polygon fill="midnightblue" stroke="midnightblue" points="222.58,-107.72 232.94,-105.48 223.45,-100.77 222.58,-107.72"/>
</g>
<!-- Node4 -->
<g id="node4" class="node">
<title>Node4</title>
<g id="a_node4"><a xlink:href="class_parse_gen_1_1_parser_1_1_l_l_predictive_parser_1_1_l_l_predictive_parser_generator.html#afe52e23f20fb507400d48a4c1838b694" target="_top" xlink:title=" ">
<polygon fill="white" stroke="black" points="227,-41 227,-82 418,-82 418,-41 227,-41"/>
<text text-anchor="start" x="235" y="-70" font-family="Helvetica,sans-Serif" font-size="10.00">ParseGen::Parser::LLPredictive</text>
<text text-anchor="start" x="235" y="-59" font-family="Helvetica,sans-Serif" font-size="10.00">Parser::LLPredictiveParserGenerator</text>
<text text-anchor="middle" x="322.5" y="-48" font-family="Helvetica,sans-Serif" font-size="10.00">::generateParseTable</text>
</a>
</g>
</g>
<!-- Node1&#45;&gt;Node4 -->
<g id="edge3" class="edge">
<title>Node1&#45;&gt;Node4</title>
<path fill="none" stroke="midnightblue" d="M191.27,-77.13C199.73,-76.11 208.32,-75.08 216.86,-74.06"/>
<polygon fill="midnightblue" stroke="midnightblue" points="217.33,-77.53 226.84,-72.86 216.5,-70.58 217.33,-77.53"/>
</g>
<!-- Node3 -->
<g id="node3" class="node">
<title>Node3</title>
<g id="a_node3"><a xlink:href="class_parse_gen_1_1_parser_1_1_util_1_1_symbol.html#a06360919e7f99bb129e361991c9db77a" target="_top" xlink:title=" ">
<polygon fill="white" stroke="black" points="475,-101.5 475,-131.5 597,-131.5 597,-101.5 475,-101.5"/>
<text text-anchor="start" x="483" y="-119.5" font-family="Helvetica,sans-Serif" font-size="10.00">ParseGen::Parser::Util</text>
<text text-anchor="middle" x="536" y="-108.5" font-family="Helvetica,sans-Serif" font-size="10.00">::Symbol::getType</text>
</a>
</g>
</g>
<!-- Node2&#45;&gt;Node3 -->
<g id="edge2" class="edge">
<title>Node2&#45;&gt;Node3</title>
<path fill="none" stroke="midnightblue" d="M412.28,-116.5C429.78,-116.5 447.93,-116.5 464.72,-116.5"/>
<polygon fill="midnightblue" stroke="midnightblue" points="464.98,-120 474.98,-116.5 464.98,-113 464.98,-120"/>
</g>
<!-- Node5 -->
<g id="node5" class="node">
<title>Node5</title>
<g id="a_node5"><a xlink:href="class_parse_gen_1_1_parser_1_1_l_l_predictive_parser_1_1_parser_table.html#a4e54f87b191b06ff0d48492ceac3644b" target="_top" xlink:title=" ">
<polygon fill="white" stroke="black" points="454,-49.5 454,-79.5 618,-79.5 618,-49.5 454,-49.5"/>
<text text-anchor="start" x="462" y="-67.5" font-family="Helvetica,sans-Serif" font-size="10.00">ParseGen::Parser::LLPredictive</text>
<text text-anchor="middle" x="536" y="-56.5" font-family="Helvetica,sans-Serif" font-size="10.00">Parser::ParserTable::insert</text>
</a>
</g>
</g>
<!-- Node4&#45;&gt;Node5 -->
<g id="edge4" class="edge">
<title>Node4&#45;&gt;Node5</title>
<path fill="none" stroke="midnightblue" d="M418.12,-62.84C426.56,-62.96 435.1,-63.08 443.52,-63.2"/>
<polygon fill="midnightblue" stroke="midnightblue" points="443.66,-66.7 453.71,-63.35 443.76,-59.71 443.66,-66.7"/>
</g>
<!-- Node6 -->
<g id="node6" class="node">
<title>Node6</title>
<g id="a_node6"><a xlink:href="class_parse_gen_1_1_parser_1_1_l_l_predictive_parser_1_1_parser_table.html#a0c9d07697f20f52e3e54161f0d3a8fe1" target="_top" xlink:title=" ">
<polygon fill="white" stroke="black" points="454,-0.5 454,-30.5 618,-30.5 618,-0.5 454,-0.5"/>
<text text-anchor="start" x="462" y="-18.5" font-family="Helvetica,sans-Serif" font-size="10.00">ParseGen::Parser::LLPredictive</text>
<text text-anchor="middle" x="536" y="-7.5" font-family="Helvetica,sans-Serif" font-size="10.00">Parser::ParserTable::isError</text>
</a>
</g>
</g>
<!-- Node4&#45;&gt;Node6 -->
<g id="edge5" class="edge">
<title>Node4&#45;&gt;Node6</title>
<path fill="none" stroke="midnightblue" d="M417.81,-40.99C430.58,-38.21 443.59,-35.38 456.06,-32.67"/>
<polygon fill="midnightblue" stroke="midnightblue" points="456.9,-36.07 465.93,-30.52 455.41,-29.23 456.9,-36.07"/>
</g>
</g>
</svg>
