<?xml version="1.0" encoding="UTF-8" standalone="no"?>
<!DOCTYPE svg PUBLIC "-//W3C//DTD SVG 1.1//EN"
 "http://www.w3.org/Graphics/SVG/1.1/DTD/svg11.dtd">
<!-- Generated by graphviz version 2.43.0 (0)
 -->
<!-- Title: ParseGen::Parser::Util::Symbol::isEnd Pages: 1 -->
<svg width="1010pt" height="112pt"
 viewBox="0.00 0.00 1010.00 112.00" xmlns="http://www.w3.org/2000/svg" xmlns:xlink="http://www.w3.org/1999/xlink">
<g id="graph0" class="graph" transform="scale(1 1) rotate(0) translate(4 108)">
<title>ParseGen::Parser::Util::Symbol::isEnd</title>
<polygon fill="white" stroke="transparent" points="-4,4 -4,-108 1006,-108 1006,4 -4,4"/>
<!-- Node1 -->
<g id="node1" class="node">
<title>Node1</title>
<g id="a_node1"><a xlink:title=" ">
<polygon fill="#bfbfbf" stroke="black" points="880,-24.5 880,-54.5 1002,-54.5 1002,-24.5 880,-24.5"/>
<text text-anchor="start" x="888" y="-42.5" font-family="Helvetica,sans-Serif" font-size="10.00">ParseGen::Parser::Util</text>
<text text-anchor="middle" x="941" y="-31.5" font-family="Helvetica,sans-Serif" font-size="10.00">::Symbol::isEnd</text>
</a>
</g>
</g>
<!-- Node2 -->
<g id="node2" class="node">
<title>Node2</title>
<g id="a_node2"><a xlink:href="class_parse_gen_1_1_parser_1_1_util_1_1_parse_tree.html#ace551eaad1025e132c23024992ed5bcf" target="_top" xlink:title=" ">
<polygon fill="white" stroke="black" points="671,-49.5 671,-79.5 793,-79.5 793,-49.5 671,-49.5"/>
<text text-anchor="start" x="679" y="-67.5" font-family="Helvetica,sans-Serif" font-size="10.00">ParseGen::Parser::Util</text>
<text text-anchor="middle" x="732" y="-56.5" font-family="Helvetica,sans-Serif" font-size="10.00">::ParseTree::isStub</text>
</a>
</g>
</g>
<!-- Node1&#45;&gt;Node2 -->
<g id="edge1" class="edge">
<title>Node1&#45;&gt;Node2</title>
<path fill="none" stroke="midnightblue" d="M869.76,-47.98C844.93,-50.98 817.24,-54.33 793.3,-57.22"/>
<polygon fill="midnightblue" stroke="midnightblue" points="870.34,-51.44 879.85,-46.76 869.5,-44.49 870.34,-51.44"/>
</g>
<!-- Node8 -->
<g id="node8" class="node">
<title>Node8</title>
<g id="a_node8"><a xlink:href="class_parse_gen_1_1_parser_1_1_l_l_predictive_parser_1_1_l_l_predictive_parser_generator.html#a42a21842cb2e37411d86980058cb6633" target="_top" xlink:title=" ">
<polygon fill="white" stroke="black" points="620,-0.5 620,-30.5 844,-30.5 844,-0.5 620,-0.5"/>
<text text-anchor="start" x="628" y="-18.5" font-family="Helvetica,sans-Serif" font-size="10.00">ParseGen::Parser::LLPredictive</text>
<text text-anchor="middle" x="732" y="-7.5" font-family="Helvetica,sans-Serif" font-size="10.00">Parser::LLPredictiveParserGenerator::parse</text>
</a>
</g>
</g>
<!-- Node1&#45;&gt;Node8 -->
<g id="edge7" class="edge">
<title>Node1&#45;&gt;Node8</title>
<path fill="none" stroke="midnightblue" d="M869.65,-31.34C861.46,-30.39 852.96,-29.41 844.38,-28.41"/>
<polygon fill="midnightblue" stroke="midnightblue" points="869.51,-34.85 879.85,-32.53 870.32,-27.9 869.51,-34.85"/>
</g>
<!-- Node3 -->
<g id="node3" class="node">
<title>Node3</title>
<g id="a_node3"><a xlink:href="class_parse_gen_1_1_parser_1_1_util_1_1_parse_tree.html#a35244364a4a6e54429dded0f88f2419f" target="_top" xlink:title=" ">
<polygon fill="white" stroke="black" points="450.5,-73.5 450.5,-103.5 572.5,-103.5 572.5,-73.5 450.5,-73.5"/>
<text text-anchor="start" x="458.5" y="-91.5" font-family="Helvetica,sans-Serif" font-size="10.00">ParseGen::Parser::Util</text>
<text text-anchor="middle" x="511.5" y="-80.5" font-family="Helvetica,sans-Serif" font-size="10.00">::ParseTree::print</text>
</a>
</g>
</g>
<!-- Node2&#45;&gt;Node3 -->
<g id="edge2" class="edge">
<title>Node2&#45;&gt;Node3</title>
<path fill="none" stroke="midnightblue" d="M660.47,-72.25C632.13,-75.36 599.79,-78.91 572.59,-81.9"/>
<polygon fill="midnightblue" stroke="midnightblue" points="661.16,-75.69 670.72,-71.12 660.39,-68.73 661.16,-75.69"/>
</g>
<!-- Node4 -->
<g id="node4" class="node">
<title>Node4</title>
<g id="a_node4"><a xlink:href="class_parse_gen_1_1_g_u_i_1_1_main_editor.html#ae50424eb009179d7c6942550e3ec7a9a" target="_top" xlink:title=" ">
<polygon fill="white" stroke="black" points="439,-24.5 439,-54.5 584,-54.5 584,-24.5 439,-24.5"/>
<text text-anchor="start" x="447" y="-42.5" font-family="Helvetica,sans-Serif" font-size="10.00">ParseGen::GUI::MainEditor</text>
<text text-anchor="middle" x="511.5" y="-31.5" font-family="Helvetica,sans-Serif" font-size="10.00">::ruleTesterWindow</text>
</a>
</g>
</g>
<!-- Node2&#45;&gt;Node4 -->
<g id="edge3" class="edge">
<title>Node2&#45;&gt;Node4</title>
<path fill="none" stroke="midnightblue" d="M660.46,-56.43C636.06,-53.64 608.71,-50.51 584.22,-47.71"/>
<polygon fill="midnightblue" stroke="midnightblue" points="660.38,-59.94 670.72,-57.6 661.18,-52.99 660.38,-59.94"/>
</g>
<!-- Node5 -->
<g id="node5" class="node">
<title>Node5</title>
<g id="a_node5"><a xlink:href="class_parse_gen_1_1_g_u_i_1_1_main_editor.html#a8cb7930ca709c3de86c173bb8ad29bd1" target="_top" xlink:title=" ">
<polygon fill="white" stroke="black" points="258,-24.5 258,-54.5 403,-54.5 403,-24.5 258,-24.5"/>
<text text-anchor="start" x="266" y="-42.5" font-family="Helvetica,sans-Serif" font-size="10.00">ParseGen::GUI::MainEditor</text>
<text text-anchor="middle" x="330.5" y="-31.5" font-family="Helvetica,sans-Serif" font-size="10.00">::RenderFrame</text>
</a>
</g>
</g>
<!-- Node4&#45;&gt;Node5 -->
<g id="edge4" class="edge">
<title>Node4&#45;&gt;Node5</title>
<path fill="none" stroke="midnightblue" d="M428.96,-39.5C420.36,-39.5 411.67,-39.5 403.2,-39.5"/>
<polygon fill="midnightblue" stroke="midnightblue" points="428.98,-43 438.98,-39.5 428.98,-36 428.98,-43"/>
</g>
<!-- Node6 -->
<g id="node6" class="node">
<title>Node6</title>
<g id="a_node6"><a xlink:href="class_parse_gen_1_1_g_u_i_1_1_main_editor.html#a79634f787b0d0c3f00a4a1d78fb69677" target="_top" xlink:title=" ">
<polygon fill="white" stroke="black" points="77,-24.5 77,-54.5 222,-54.5 222,-24.5 77,-24.5"/>
<text text-anchor="start" x="85" y="-42.5" font-family="Helvetica,sans-Serif" font-size="10.00">ParseGen::GUI::MainEditor</text>
<text text-anchor="middle" x="149.5" y="-31.5" font-family="Helvetica,sans-Serif" font-size="10.00">::Start</text>
</a>
</g>
</g>
<!-- Node5&#45;&gt;Node6 -->
<g id="edge5" class="edge">
<title>Node5&#45;&gt;Node6</title>
<path fill="none" stroke="midnightblue" d="M247.96,-39.5C239.36,-39.5 230.67,-39.5 222.2,-39.5"/>
<polygon fill="midnightblue" stroke="midnightblue" points="247.98,-43 257.98,-39.5 247.98,-36 247.98,-43"/>
</g>
<!-- Node7 -->
<g id="node7" class="node">
<title>Node7</title>
<g id="a_node7"><a xlink:href="main_8cpp.html#ae66f6b31b5ad750f1fe042a706a4e3d4" target="_top" xlink:title=" ">
<polygon fill="white" stroke="black" points="0,-30 0,-49 41,-49 41,-30 0,-30"/>
<text text-anchor="middle" x="20.5" y="-37" font-family="Helvetica,sans-Serif" font-size="10.00">main</text>
</a>
</g>
</g>
<!-- Node6&#45;&gt;Node7 -->
<g id="edge6" class="edge">
<title>Node6&#45;&gt;Node7</title>
<path fill="none" stroke="midnightblue" d="M66.79,-39.5C57.31,-39.5 48.43,-39.5 41.08,-39.5"/>
<polygon fill="midnightblue" stroke="midnightblue" points="66.83,-43 76.83,-39.5 66.83,-36 66.83,-43"/>
</g>
</g>
</svg>
