<?xml version="1.0" encoding="UTF-8" standalone="no"?>
<!DOCTYPE svg PUBLIC "-//W3C//DTD SVG 1.1//EN"
 "http://www.w3.org/Graphics/SVG/1.1/DTD/svg11.dtd">
<!-- Generated by graphviz version 2.43.0 (0)
 -->
<!-- Title: ParseGen::Parser::BNF::BNFParserGenerator::BNFParserGenerator Pages: 1 -->
<svg width="515pt" height="50pt"
 viewBox="0.00 0.00 515.00 50.00" xmlns="http://www.w3.org/2000/svg" xmlns:xlink="http://www.w3.org/1999/xlink">
<g id="graph0" class="graph" transform="scale(1 1) rotate(0) translate(4 46)">
<title>ParseGen::Parser::BNF::BNFParserGenerator::BNFParserGenerator</title>
<polygon fill="white" stroke="transparent" points="-4,4 -4,-46 511,-46 511,4 -4,4"/>
<!-- Node1 -->
<g id="node1" class="node">
<title>Node1</title>
<g id="a_node1"><a xlink:title=" ">
<polygon fill="#bfbfbf" stroke="black" points="382,-0.5 382,-41.5 507,-41.5 507,-0.5 382,-0.5"/>
<text text-anchor="start" x="390" y="-29.5" font-family="Helvetica,sans-Serif" font-size="10.00">ParseGen::Parser::BNF</text>
<text text-anchor="start" x="390" y="-18.5" font-family="Helvetica,sans-Serif" font-size="10.00">::BNFParserGenerator</text>
<text text-anchor="middle" x="444.5" y="-7.5" font-family="Helvetica,sans-Serif" font-size="10.00">::BNFParserGenerator</text>
</a>
</g>
</g>
<!-- Node2 -->
<g id="node2" class="node">
<title>Node2</title>
<g id="a_node2"><a xlink:href="class_parse_gen_1_1_parser_1_1_b_n_f_1_1_b_n_f_parser_generator.html#a14083a97fde4bb9047f2ecba935c6eda" target="_top" xlink:title=" ">
<polygon fill="white" stroke="black" points="221,-0.5 221,-41.5 346,-41.5 346,-0.5 221,-0.5"/>
<text text-anchor="start" x="229" y="-29.5" font-family="Helvetica,sans-Serif" font-size="10.00">ParseGen::Parser::BNF</text>
<text text-anchor="start" x="229" y="-18.5" font-family="Helvetica,sans-Serif" font-size="10.00">::BNFParserGenerator</text>
<text text-anchor="middle" x="283.5" y="-7.5" font-family="Helvetica,sans-Serif" font-size="10.00">::Create</text>
</a>
</g>
</g>
<!-- Node1&#45;&gt;Node2 -->
<g id="edge1" class="edge">
<title>Node1&#45;&gt;Node2</title>
<path fill="none" stroke="midnightblue" d="M371.41,-21C363.01,-21 354.5,-21 346.26,-21"/>
<polygon fill="midnightblue" stroke="midnightblue" points="371.57,-24.5 381.57,-21 371.57,-17.5 371.57,-24.5"/>
</g>
<!-- Node3 -->
<g id="node3" class="node">
<title>Node3</title>
<g id="a_node3"><a xlink:href="class_parse_gen_1_1_parser_1_1_parser_generator_factory.html#ac66b02ca8b2861ed3c53907114a856e2" target="_top" xlink:title=" ">
<polygon fill="white" stroke="black" points="0,-0.5 0,-41.5 185,-41.5 185,-0.5 0,-0.5"/>
<text text-anchor="start" x="8" y="-29.5" font-family="Helvetica,sans-Serif" font-size="10.00">ParseGen::Parser::Parser</text>
<text text-anchor="start" x="8" y="-18.5" font-family="Helvetica,sans-Serif" font-size="10.00">GeneratorFactory::ParserGenerator</text>
<text text-anchor="middle" x="92.5" y="-7.5" font-family="Helvetica,sans-Serif" font-size="10.00">Factory</text>
</a>
</g>
</g>
<!-- Node2&#45;&gt;Node3 -->
<g id="edge2" class="edge">
<title>Node2&#45;&gt;Node3</title>
<path fill="none" stroke="midnightblue" d="M210.81,-21C202.44,-21 193.81,-21 185.22,-21"/>
<polygon fill="midnightblue" stroke="midnightblue" points="210.88,-24.5 220.88,-21 210.88,-17.5 210.88,-24.5"/>
</g>
</g>
</svg>
