<?xml version="1.0" encoding="UTF-8" standalone="no"?>
<!DOCTYPE svg PUBLIC "-//W3C//DTD SVG 1.1//EN"
 "http://www.w3.org/Graphics/SVG/1.1/DTD/svg11.dtd">
<!-- Generated by graphviz version 2.43.0 (0)
 -->
<!-- Title: ParseGen::GUI::MainEditor::ruleTesterWindow Pages: 1 -->
<svg width="716pt" height="323pt"
 viewBox="0.00 0.00 716.00 323.00" xmlns="http://www.w3.org/2000/svg" xmlns:xlink="http://www.w3.org/1999/xlink">
<g id="graph0" class="graph" transform="scale(1 1) rotate(0) translate(4 319)">
<title>ParseGen::GUI::MainEditor::ruleTesterWindow</title>
<polygon fill="white" stroke="transparent" points="-4,4 -4,-319 712,-319 712,4 -4,4"/>
<!-- Node1 -->
<g id="node1" class="node">
<title>Node1</title>
<g id="a_node1"><a xlink:title=" ">
<polygon fill="#bfbfbf" stroke="black" points="0,-147.5 0,-177.5 145,-177.5 145,-147.5 0,-147.5"/>
<text text-anchor="start" x="8" y="-165.5" font-family="Helvetica,sans-Serif" font-size="10.00">ParseGen::GUI::MainEditor</text>
<text text-anchor="middle" x="72.5" y="-154.5" font-family="Helvetica,sans-Serif" font-size="10.00">::ruleTesterWindow</text>
</a>
</g>
</g>
<!-- Node2 -->
<g id="node2" class="node">
<title>Node2</title>
<g id="a_node2"><a xlink:href="class_parse_gen_1_1_parser_1_1_i_parser_generator.html#acc41ef8afafb3c17ec86292fecfaeb8d" target="_top" xlink:title=" ">
<polygon fill="white" stroke="black" points="203.5,-284.5 203.5,-314.5 340.5,-314.5 340.5,-284.5 203.5,-284.5"/>
<text text-anchor="start" x="211.5" y="-302.5" font-family="Helvetica,sans-Serif" font-size="10.00">ParseGen::Parser::IParser</text>
<text text-anchor="middle" x="272" y="-291.5" font-family="Helvetica,sans-Serif" font-size="10.00">Generator::codeToFile</text>
</a>
</g>
</g>
<!-- Node1&#45;&gt;Node2 -->
<g id="edge1" class="edge">
<title>Node1&#45;&gt;Node2</title>
<path fill="none" stroke="midnightblue" d="M83.78,-177.86C100.96,-202.31 137.92,-249.94 181,-275.5 185.13,-277.95 189.51,-280.15 194.03,-282.14"/>
<polygon fill="midnightblue" stroke="midnightblue" points="192.88,-285.45 203.47,-285.9 195.48,-278.95 192.88,-285.45"/>
</g>
<!-- Node4 -->
<g id="node4" class="node">
<title>Node4</title>
<g id="a_node4"><a xlink:href="class_parse_gen_1_1_g_u_i_1_1_main_editor.html#a0dd79cef141de2c8a6a08586f36d42a9" target="_top" xlink:title=" ">
<polygon fill="white" stroke="black" points="199.5,-235.5 199.5,-265.5 344.5,-265.5 344.5,-235.5 199.5,-235.5"/>
<text text-anchor="start" x="207.5" y="-253.5" font-family="Helvetica,sans-Serif" font-size="10.00">ParseGen::GUI::MainEditor</text>
<text text-anchor="middle" x="272" y="-242.5" font-family="Helvetica,sans-Serif" font-size="10.00">::drawTree</text>
</a>
</g>
</g>
<!-- Node1&#45;&gt;Node4 -->
<g id="edge3" class="edge">
<title>Node1&#45;&gt;Node4</title>
<path fill="none" stroke="midnightblue" d="M98.51,-177.6C119.92,-190.13 151.8,-207.87 181,-220.5 190.51,-224.61 200.78,-228.52 210.86,-232.06"/>
<polygon fill="midnightblue" stroke="midnightblue" points="209.84,-235.41 220.44,-235.35 212.11,-228.79 209.84,-235.41"/>
</g>
<!-- Node6 -->
<g id="node6" class="node">
<title>Node6</title>
<g id="a_node6"><a xlink:href="class_parse_gen_1_1_parser_1_1_parser_generator_factory.html#aa6b235e2945524e7373a03b9b209fffd" target="_top" xlink:title=" ">
<polygon fill="white" stroke="black" points="574,-96.5 574,-126.5 708,-126.5 708,-96.5 574,-96.5"/>
<text text-anchor="start" x="582" y="-114.5" font-family="Helvetica,sans-Serif" font-size="10.00">ParseGen::Parser::Parser</text>
<text text-anchor="middle" x="641" y="-103.5" font-family="Helvetica,sans-Serif" font-size="10.00">GeneratorFactory::Get</text>
</a>
</g>
</g>
<!-- Node1&#45;&gt;Node6 -->
<g id="edge5" class="edge">
<title>Node1&#45;&gt;Node6</title>
<path fill="none" stroke="midnightblue" d="M127.21,-177.53C144.27,-181.61 163.3,-185.47 181,-187.5 261.36,-196.72 282.84,-198.3 363,-187.5 443.66,-176.64 534.05,-148.74 588.99,-129.94"/>
<polygon fill="midnightblue" stroke="midnightblue" points="590.18,-133.23 598.49,-126.65 587.9,-126.61 590.18,-133.23"/>
</g>
<!-- Node7 -->
<g id="node7" class="node">
<title>Node7</title>
<g id="a_node7"><a xlink:href="class_parse_gen_1_1_parser_1_1_parser_generator_factory.html#a36873b6eabc46913622d6a5dfdceffa1" target="_top" xlink:title=" ">
<polygon fill="white" stroke="black" points="181,-147.5 181,-177.5 363,-177.5 363,-147.5 181,-147.5"/>
<text text-anchor="start" x="189" y="-165.5" font-family="Helvetica,sans-Serif" font-size="10.00">ParseGen::Parser::Parser</text>
<text text-anchor="middle" x="272" y="-154.5" font-family="Helvetica,sans-Serif" font-size="10.00">GeneratorFactory::getOutputTypes</text>
</a>
</g>
</g>
<!-- Node1&#45;&gt;Node7 -->
<g id="edge6" class="edge">
<title>Node1&#45;&gt;Node7</title>
<path fill="none" stroke="midnightblue" d="M145.08,-162.5C153.41,-162.5 162.02,-162.5 170.65,-162.5"/>
<polygon fill="midnightblue" stroke="midnightblue" points="170.77,-166 180.77,-162.5 170.77,-159 170.77,-166"/>
</g>
<!-- Node8 -->
<g id="node8" class="node">
<title>Node8</title>
<g id="a_node8"><a xlink:href="class_parse_gen_1_1_parser_1_1_util_1_1_parse_tree.html#ace551eaad1025e132c23024992ed5bcf" target="_top" xlink:title=" ">
<polygon fill="white" stroke="black" points="211,-98.5 211,-128.5 333,-128.5 333,-98.5 211,-98.5"/>
<text text-anchor="start" x="219" y="-116.5" font-family="Helvetica,sans-Serif" font-size="10.00">ParseGen::Parser::Util</text>
<text text-anchor="middle" x="272" y="-105.5" font-family="Helvetica,sans-Serif" font-size="10.00">::ParseTree::isStub</text>
</a>
</g>
</g>
<!-- Node1&#45;&gt;Node8 -->
<g id="edge7" class="edge">
<title>Node1&#45;&gt;Node8</title>
<path fill="none" stroke="midnightblue" d="M134.1,-147.47C155.24,-142.22 179.14,-136.29 200.98,-130.87"/>
<polygon fill="midnightblue" stroke="midnightblue" points="201.99,-134.23 210.86,-128.42 200.31,-127.43 201.99,-134.23"/>
</g>
<!-- Node10 -->
<g id="node10" class="node">
<title>Node10</title>
<g id="a_node10"><a xlink:href="class_parse_gen_1_1_parser_1_1_i_parser_generator.html#ae29f6b1213c0fc23bfe5fe049be4ddbc" target="_top" xlink:title=" ">
<polygon fill="white" stroke="black" points="203.5,-49.5 203.5,-79.5 340.5,-79.5 340.5,-49.5 203.5,-49.5"/>
<text text-anchor="start" x="211.5" y="-67.5" font-family="Helvetica,sans-Serif" font-size="10.00">ParseGen::Parser::IParser</text>
<text text-anchor="middle" x="272" y="-56.5" font-family="Helvetica,sans-Serif" font-size="10.00">Generator::parse</text>
</a>
</g>
</g>
<!-- Node1&#45;&gt;Node10 -->
<g id="edge9" class="edge">
<title>Node1&#45;&gt;Node10</title>
<path fill="none" stroke="midnightblue" d="M91.79,-147.32C112.33,-130.95 147.22,-105.14 181,-89.5 186.06,-87.16 191.38,-84.99 196.81,-83"/>
<polygon fill="midnightblue" stroke="midnightblue" points="198.34,-86.18 206.65,-79.6 196.05,-79.56 198.34,-86.18"/>
</g>
<!-- Node11 -->
<g id="node11" class="node">
<title>Node11</title>
<g id="a_node11"><a xlink:href="class_parse_gen_1_1_g_u_i_1_1_main_editor.html#a375e7fc2018957b0d42313a9d87bb952" target="_top" xlink:title=" ">
<polygon fill="white" stroke="black" points="199.5,-0.5 199.5,-30.5 344.5,-30.5 344.5,-0.5 199.5,-0.5"/>
<text text-anchor="start" x="207.5" y="-18.5" font-family="Helvetica,sans-Serif" font-size="10.00">ParseGen::GUI::MainEditor</text>
<text text-anchor="middle" x="272" y="-7.5" font-family="Helvetica,sans-Serif" font-size="10.00">::processRules</text>
</a>
</g>
</g>
<!-- Node1&#45;&gt;Node11 -->
<g id="edge10" class="edge">
<title>Node1&#45;&gt;Node11</title>
<path fill="none" stroke="midnightblue" d="M82.38,-147.45C98.58,-121.36 135.49,-67.82 181,-39.5 183.81,-37.75 186.76,-36.12 189.78,-34.62"/>
<polygon fill="midnightblue" stroke="midnightblue" points="191.41,-37.73 199.1,-30.44 188.54,-31.34 191.41,-37.73"/>
</g>
<!-- Node3 -->
<g id="node3" class="node">
<title>Node3</title>
<g id="a_node3"><a xlink:href="class_parse_gen_1_1_parser_1_1_i_parser_generator.html#abb8807a107ad5b49c2d07aceab14273e" target="_top" xlink:title=" ">
<polygon fill="white" stroke="black" points="400,-284.5 400,-314.5 537,-314.5 537,-284.5 400,-284.5"/>
<text text-anchor="start" x="408" y="-302.5" font-family="Helvetica,sans-Serif" font-size="10.00">ParseGen::Parser::IParser</text>
<text text-anchor="middle" x="468.5" y="-291.5" font-family="Helvetica,sans-Serif" font-size="10.00">Generator::codeToString</text>
</a>
</g>
</g>
<!-- Node2&#45;&gt;Node3 -->
<g id="edge2" class="edge">
<title>Node2&#45;&gt;Node3</title>
<path fill="none" stroke="midnightblue" d="M340.75,-299.5C356.64,-299.5 373.69,-299.5 389.97,-299.5"/>
<polygon fill="midnightblue" stroke="midnightblue" points="389.99,-303 399.99,-299.5 389.99,-296 389.99,-303"/>
</g>
<!-- Node5 -->
<g id="node5" class="node">
<title>Node5</title>
<g id="a_node5"><a xlink:href="class_parse_gen_1_1_g_u_i_1_1_parse_tree_1_1_renderer.html#ac6962ed86384110616e7dad0f548ba84" target="_top" xlink:title=" ">
<polygon fill="white" stroke="black" points="399,-235.5 399,-265.5 538,-265.5 538,-235.5 399,-235.5"/>
<text text-anchor="start" x="407" y="-253.5" font-family="Helvetica,sans-Serif" font-size="10.00">ParseGen::GUI::ParseTree</text>
<text text-anchor="middle" x="468.5" y="-242.5" font-family="Helvetica,sans-Serif" font-size="10.00">::Renderer::Get</text>
</a>
</g>
</g>
<!-- Node4&#45;&gt;Node5 -->
<g id="edge4" class="edge">
<title>Node4&#45;&gt;Node5</title>
<path fill="none" stroke="midnightblue" d="M344.6,-250.5C359.03,-250.5 374.27,-250.5 388.93,-250.5"/>
<polygon fill="midnightblue" stroke="midnightblue" points="388.97,-254 398.97,-250.5 388.97,-247 388.97,-254"/>
</g>
<!-- Node9 -->
<g id="node9" class="node">
<title>Node9</title>
<g id="a_node9"><a xlink:href="class_parse_gen_1_1_parser_1_1_util_1_1_symbol.html#a82073c69377df2a10fd7d4350727ab73" target="_top" xlink:title=" ">
<polygon fill="white" stroke="black" points="407.5,-98.5 407.5,-128.5 529.5,-128.5 529.5,-98.5 407.5,-98.5"/>
<text text-anchor="start" x="415.5" y="-116.5" font-family="Helvetica,sans-Serif" font-size="10.00">ParseGen::Parser::Util</text>
<text text-anchor="middle" x="468.5" y="-105.5" font-family="Helvetica,sans-Serif" font-size="10.00">::Symbol::isEnd</text>
</a>
</g>
</g>
<!-- Node8&#45;&gt;Node9 -->
<g id="edge8" class="edge">
<title>Node8&#45;&gt;Node9</title>
<path fill="none" stroke="midnightblue" d="M333.21,-113.5C353.44,-113.5 376.18,-113.5 397.12,-113.5"/>
<polygon fill="midnightblue" stroke="midnightblue" points="397.24,-117 407.24,-113.5 397.24,-110 397.24,-117"/>
</g>
<!-- Node12 -->
<g id="node12" class="node">
<title>Node12</title>
<g id="a_node12"><a xlink:href="class_parse_gen_1_1_parser_1_1_parser_generator_factory.html#afa1ed5ce57448b5f8e854e303c171889" target="_top" xlink:title=" ">
<polygon fill="white" stroke="black" points="399.5,-25.5 399.5,-55.5 537.5,-55.5 537.5,-25.5 399.5,-25.5"/>
<text text-anchor="start" x="407.5" y="-43.5" font-family="Helvetica,sans-Serif" font-size="10.00">ParseGen::Parser::Parser</text>
<text text-anchor="middle" x="468.5" y="-32.5" font-family="Helvetica,sans-Serif" font-size="10.00">GeneratorFactory::Create</text>
</a>
</g>
</g>
<!-- Node11&#45;&gt;Node12 -->
<g id="edge11" class="edge">
<title>Node11&#45;&gt;Node12</title>
<path fill="none" stroke="midnightblue" d="M344.6,-24.7C359.12,-26.57 374.46,-28.54 389.2,-30.44"/>
<polygon fill="midnightblue" stroke="midnightblue" points="388.92,-33.93 399.29,-31.73 389.82,-26.99 388.92,-33.93"/>
</g>
<!-- Node12&#45;&gt;Node6 -->
<g id="edge12" class="edge">
<title>Node12&#45;&gt;Node6</title>
<path fill="none" stroke="midnightblue" d="M505.66,-55.56C531.54,-66.34 566.58,-80.93 594.39,-92.51"/>
<polygon fill="midnightblue" stroke="midnightblue" points="593.32,-95.85 603.89,-96.46 596.01,-89.39 593.32,-95.85"/>
</g>
</g>
</svg>
