<?xml version="1.0" encoding="UTF-8" standalone="no"?>
<!DOCTYPE svg PUBLIC "-//W3C//DTD SVG 1.1//EN"
 "http://www.w3.org/Graphics/SVG/1.1/DTD/svg11.dtd">
<!-- Generated by graphviz version 2.43.0 (0)
 -->
<!-- Title: ParseGen::GUI::MainEditor::RenderFrame Pages: 1 -->
<!--zoomable 443 -->
<svg id="main" version="1.1" xmlns="http://www.w3.org/2000/svg" xmlns:xlink="http://www.w3.org/1999/xlink" xml:space="preserve" onload="init(evt)">
<style type="text/css"><![CDATA[
.edge:hover path { stroke: red; }
.edge:hover polygon { stroke: red; fill: red; }
]]></style>
<script type="text/javascript"><![CDATA[
var edges = document.getElementsByTagName('g');
if (edges && edges.length) {
  for (var i=0;i<edges.length;i++) {
    if (edges[i].id.substr(0,4)=='edge') {
      edges[i].setAttribute('class','edge');
    }
  }
}
]]></script>
        <defs>
                <circle id="rim" cx="0" cy="0" r="7"/>
                <circle id="rim2" cx="0" cy="0" r="3.5"/>
                <g id="zoomPlus">
                        <use xlink:href="#rim" fill="#404040">
                                <set attributeName="fill" to="#808080" begin="zoomplus.mouseover" end="zoomplus.mouseout"/>
                        </use>
                        <path d="M-4,0h8M0,-4v8" fill="none" stroke="white" stroke-width="1.5" pointer-events="none"/>
                </g>
                <g id="zoomMin">
                        <use xlink:href="#rim" fill="#404040">
                                <set attributeName="fill" to="#808080" begin="zoomminus.mouseover" end="zoomminus.mouseout"/>
                        </use>
                        <path d="M-4,0h8" fill="none" stroke="white" stroke-width="1.5" pointer-events="none"/>
                </g>
                <g id="dirArrow">
                        <path fill="none" stroke="white" stroke-width="1.5" d="M0,-3.0v7 M-2.5,-0.5L0,-3.0L2.5,-0.5"/>
                </g>
               <g id="resetDef">
                       <use xlink:href="#rim2" fill="#404040">
                               <set attributeName="fill" to="#808080" begin="reset.mouseover" end="reset.mouseout"/>
                       </use>
               </g>
        </defs>

<script type="text/javascript">
var viewWidth = 898;
var viewHeight = 443;
var sectionId = 'dynsection-10';
</script>
<script xlink:href="svgpan.js"/>
<svg id="graph" class="graph">
<g id="viewport">
<title>ParseGen::GUI::MainEditor::RenderFrame</title>
<polygon fill="white" stroke="transparent" points="-4,4 -4,-439 894,-439 894,4 -4,4"/>
<!-- Node1 -->
<g id="node1" class="node">
<title>Node1</title>
<g id="a_node1"><a xlink:title=" ">
<polygon fill="#bfbfbf" stroke="black" points="0,-346.5 0,-376.5 145,-376.5 145,-346.5 0,-346.5"/>
<text text-anchor="start" x="8" y="-364.5" font-family="Helvetica,sans-Serif" font-size="10.00">ParseGen::GUI::MainEditor</text>
<text text-anchor="middle" x="72.5" y="-353.5" font-family="Helvetica,sans-Serif" font-size="10.00">::RenderFrame</text>
</a>
</g>
</g>
<!-- Node2 -->
<g id="node2" class="node">
<title>Node2</title>
<g id="a_node2"><a xlink:href="class_parse_gen_1_1_g_u_i_1_1_main_editor.html#a11943a4f17d30c54ffe35b079a37d681" target="_top" xlink:title=" ">
<polygon fill="white" stroke="black" points="381.5,-404.5 381.5,-434.5 526.5,-434.5 526.5,-404.5 381.5,-404.5"/>
<text text-anchor="start" x="389.5" y="-422.5" font-family="Helvetica,sans-Serif" font-size="10.00">ParseGen::GUI::MainEditor</text>
<text text-anchor="middle" x="454" y="-411.5" font-family="Helvetica,sans-Serif" font-size="10.00">::addRule</text>
</a>
</g>
</g>
<!-- Node1&#45;&gt;Node2 -->
<g id="edge1" class="edge">
<title>Node1&#45;&gt;Node2</title>
<path fill="none" stroke="midnightblue" d="M98.5,-376.7C119.64,-388.66 151.16,-404.44 181,-411.5 243.52,-426.29 316.37,-427.63 370.93,-425.63"/>
<polygon fill="midnightblue" stroke="midnightblue" points="371.4,-429.11 381.24,-425.2 371.11,-422.12 371.4,-429.11"/>
</g>
<!-- Node3 -->
<g id="node3" class="node">
<title>Node3</title>
<g id="a_node3"><a xlink:href="class_parse_gen_1_1_g_u_i_1_1_main_editor.html#ad0daa9dc59138ad797772f5d9b041d06" target="_top" xlink:title=" ">
<polygon fill="white" stroke="black" points="181,-371.5 181,-401.5 327,-401.5 327,-371.5 181,-371.5"/>
<text text-anchor="start" x="189" y="-389.5" font-family="Helvetica,sans-Serif" font-size="10.00">ParseGen::GUI::MainEditor</text>
<text text-anchor="middle" x="254" y="-378.5" font-family="Helvetica,sans-Serif" font-size="10.00">::nonTerminalsCollapseGui</text>
</a>
</g>
</g>
<!-- Node1&#45;&gt;Node3 -->
<g id="edge2" class="edge">
<title>Node1&#45;&gt;Node3</title>
<path fill="none" stroke="midnightblue" d="M145.22,-371.49C153.64,-372.66 162.28,-373.87 170.83,-375.06"/>
<polygon fill="midnightblue" stroke="midnightblue" points="170.42,-378.53 180.81,-376.45 171.39,-371.6 170.42,-378.53"/>
</g>
<!-- Node4 -->
<g id="node4" class="node">
<title>Node4</title>
<g id="a_node4"><a xlink:href="class_parse_gen_1_1_g_u_i_1_1_main_editor.html#a0852bbc6c65396299a43ca2eafa3c42b" target="_top" xlink:title=" ">
<polygon fill="white" stroke="black" points="181.5,-322.5 181.5,-352.5 326.5,-352.5 326.5,-322.5 181.5,-322.5"/>
<text text-anchor="start" x="189.5" y="-340.5" font-family="Helvetica,sans-Serif" font-size="10.00">ParseGen::GUI::MainEditor</text>
<text text-anchor="middle" x="254" y="-329.5" font-family="Helvetica,sans-Serif" font-size="10.00">::rulesCollapseGui</text>
</a>
</g>
</g>
<!-- Node1&#45;&gt;Node4 -->
<g id="edge3" class="edge">
<title>Node1&#45;&gt;Node4</title>
<path fill="none" stroke="midnightblue" d="M145.22,-351.91C153.78,-350.77 162.57,-349.59 171.26,-348.43"/>
<polygon fill="midnightblue" stroke="midnightblue" points="171.95,-351.87 181.4,-347.07 171.02,-344.93 171.95,-351.87"/>
</g>
<!-- Node6 -->
<g id="node6" class="node">
<title>Node6</title>
<g id="a_node6"><a xlink:href="class_parse_gen_1_1_g_u_i_1_1_main_editor.html#ae50424eb009179d7c6942550e3ec7a9a" target="_top" xlink:title=" ">
<polygon fill="white" stroke="black" points="181.5,-169.5 181.5,-199.5 326.5,-199.5 326.5,-169.5 181.5,-169.5"/>
<text text-anchor="start" x="189.5" y="-187.5" font-family="Helvetica,sans-Serif" font-size="10.00">ParseGen::GUI::MainEditor</text>
<text text-anchor="middle" x="254" y="-176.5" font-family="Helvetica,sans-Serif" font-size="10.00">::ruleTesterWindow</text>
</a>
</g>
</g>
<!-- Node1&#45;&gt;Node6 -->
<g id="edge6" class="edge">
<title>Node1&#45;&gt;Node6</title>
<path fill="none" stroke="midnightblue" d="M88.8,-346.41C120.46,-315.19 193.29,-243.38 230.39,-206.8"/>
<polygon fill="midnightblue" stroke="midnightblue" points="233.07,-209.07 237.73,-199.55 228.16,-204.08 233.07,-209.07"/>
</g>
<!-- Node4&#45;&gt;Node2 -->
<g id="edge4" class="edge">
<title>Node4&#45;&gt;Node2</title>
<path fill="none" stroke="midnightblue" d="M300.55,-352.62C309.38,-355.74 318.52,-359.12 327,-362.5 355.94,-374.04 387.92,-388.53 412.42,-400.01"/>
<polygon fill="midnightblue" stroke="midnightblue" points="411.22,-403.31 421.75,-404.41 414.2,-396.98 411.22,-403.31"/>
</g>
<!-- Node5 -->
<g id="node5" class="node">
<title>Node5</title>
<g id="a_node5"><a xlink:href="class_parse_gen_1_1_g_u_i_1_1_main_editor.html#a5411a31092bf479d80f14b216eaef83b" target="_top" xlink:title=" ">
<polygon fill="white" stroke="black" points="381.5,-333.5 381.5,-363.5 526.5,-363.5 526.5,-333.5 381.5,-333.5"/>
<text text-anchor="start" x="389.5" y="-351.5" font-family="Helvetica,sans-Serif" font-size="10.00">ParseGen::GUI::MainEditor</text>
<text text-anchor="middle" x="454" y="-340.5" font-family="Helvetica,sans-Serif" font-size="10.00">::deleteRule</text>
</a>
</g>
</g>
<!-- Node4&#45;&gt;Node5 -->
<g id="edge5" class="edge">
<title>Node4&#45;&gt;Node5</title>
<path fill="none" stroke="midnightblue" d="M326.76,-341.49C341.24,-342.29 356.56,-343.14 371.35,-343.96"/>
<polygon fill="midnightblue" stroke="midnightblue" points="371.3,-347.47 381.48,-344.53 371.69,-340.48 371.3,-347.47"/>
</g>
<!-- Node7 -->
<g id="node7" class="node">
<title>Node7</title>
<g id="a_node7"><a xlink:href="class_parse_gen_1_1_parser_1_1_i_parser_generator.html#acc41ef8afafb3c17ec86292fecfaeb8d" target="_top" xlink:title=" ">
<polygon fill="white" stroke="black" points="385.5,-284.5 385.5,-314.5 522.5,-314.5 522.5,-284.5 385.5,-284.5"/>
<text text-anchor="start" x="393.5" y="-302.5" font-family="Helvetica,sans-Serif" font-size="10.00">ParseGen::Parser::IParser</text>
<text text-anchor="middle" x="454" y="-291.5" font-family="Helvetica,sans-Serif" font-size="10.00">Generator::codeToFile</text>
</a>
</g>
</g>
<!-- Node6&#45;&gt;Node7 -->
<g id="edge7" class="edge">
<title>Node6&#45;&gt;Node7</title>
<path fill="none" stroke="midnightblue" d="M268.84,-199.76C288.04,-220.02 324.73,-255.56 363,-275.5 367.06,-277.62 371.33,-279.56 375.7,-281.34"/>
<polygon fill="midnightblue" stroke="midnightblue" points="374.82,-284.75 385.41,-284.98 377.28,-278.19 374.82,-284.75"/>
</g>
<!-- Node9 -->
<g id="node9" class="node">
<title>Node9</title>
<g id="a_node9"><a xlink:href="class_parse_gen_1_1_g_u_i_1_1_main_editor.html#a0dd79cef141de2c8a6a08586f36d42a9" target="_top" xlink:title=" ">
<polygon fill="white" stroke="black" points="381.5,-235.5 381.5,-265.5 526.5,-265.5 526.5,-235.5 381.5,-235.5"/>
<text text-anchor="start" x="389.5" y="-253.5" font-family="Helvetica,sans-Serif" font-size="10.00">ParseGen::GUI::MainEditor</text>
<text text-anchor="middle" x="454" y="-242.5" font-family="Helvetica,sans-Serif" font-size="10.00">::drawTree</text>
</a>
</g>
</g>
<!-- Node6&#45;&gt;Node9 -->
<g id="edge9" class="edge">
<title>Node6&#45;&gt;Node9</title>
<path fill="none" stroke="midnightblue" d="M300.43,-199.64C329.48,-209.33 367.34,-221.95 398.08,-232.19"/>
<polygon fill="midnightblue" stroke="midnightblue" points="397.19,-235.59 407.79,-235.43 399.41,-228.95 397.19,-235.59"/>
</g>
<!-- Node11 -->
<g id="node11" class="node">
<title>Node11</title>
<g id="a_node11"><a xlink:href="class_parse_gen_1_1_parser_1_1_parser_generator_factory.html#aa6b235e2945524e7373a03b9b209fffd" target="_top" xlink:title=" ">
<polygon fill="white" stroke="black" points="756,-96.5 756,-126.5 890,-126.5 890,-96.5 756,-96.5"/>
<text text-anchor="start" x="764" y="-114.5" font-family="Helvetica,sans-Serif" font-size="10.00">ParseGen::Parser::Parser</text>
<text text-anchor="middle" x="823" y="-103.5" font-family="Helvetica,sans-Serif" font-size="10.00">GeneratorFactory::Get</text>
</a>
</g>
</g>
<!-- Node6&#45;&gt;Node11 -->
<g id="edge11" class="edge">
<title>Node6&#45;&gt;Node11</title>
<path fill="none" stroke="midnightblue" d="M326.74,-186.77C338.84,-187.08 351.28,-187.34 363,-187.5 443.88,-188.62 464.84,-198.3 545,-187.5 625.66,-176.64 716.05,-148.74 770.99,-129.94"/>
<polygon fill="midnightblue" stroke="midnightblue" points="772.18,-133.23 780.49,-126.65 769.9,-126.61 772.18,-133.23"/>
</g>
<!-- Node12 -->
<g id="node12" class="node">
<title>Node12</title>
<g id="a_node12"><a xlink:href="class_parse_gen_1_1_parser_1_1_parser_generator_factory.html#a36873b6eabc46913622d6a5dfdceffa1" target="_top" xlink:title=" ">
<polygon fill="white" stroke="black" points="363,-147.5 363,-177.5 545,-177.5 545,-147.5 363,-147.5"/>
<text text-anchor="start" x="371" y="-165.5" font-family="Helvetica,sans-Serif" font-size="10.00">ParseGen::Parser::Parser</text>
<text text-anchor="middle" x="454" y="-154.5" font-family="Helvetica,sans-Serif" font-size="10.00">GeneratorFactory::getOutputTypes</text>
</a>
</g>
</g>
<!-- Node6&#45;&gt;Node12 -->
<g id="edge12" class="edge">
<title>Node6&#45;&gt;Node12</title>
<path fill="none" stroke="midnightblue" d="M326.76,-176.53C335.29,-175.58 344.1,-174.6 352.93,-173.62"/>
<polygon fill="midnightblue" stroke="midnightblue" points="353.33,-177.1 362.88,-172.51 352.56,-170.14 353.33,-177.1"/>
</g>
<!-- Node13 -->
<g id="node13" class="node">
<title>Node13</title>
<g id="a_node13"><a xlink:href="class_parse_gen_1_1_parser_1_1_util_1_1_parse_tree.html#ace551eaad1025e132c23024992ed5bcf" target="_top" xlink:title=" ">
<polygon fill="white" stroke="black" points="393,-98.5 393,-128.5 515,-128.5 515,-98.5 393,-98.5"/>
<text text-anchor="start" x="401" y="-116.5" font-family="Helvetica,sans-Serif" font-size="10.00">ParseGen::Parser::Util</text>
<text text-anchor="middle" x="454" y="-105.5" font-family="Helvetica,sans-Serif" font-size="10.00">::ParseTree::isStub</text>
</a>
</g>
</g>
<!-- Node6&#45;&gt;Node13 -->
<g id="edge13" class="edge">
<title>Node6&#45;&gt;Node13</title>
<path fill="none" stroke="midnightblue" d="M287.17,-169.48C308.42,-159.89 337.03,-147.59 363,-138.5 369.94,-136.07 377.26,-133.71 384.58,-131.48"/>
<polygon fill="midnightblue" stroke="midnightblue" points="385.96,-134.73 394.55,-128.53 383.97,-128.01 385.96,-134.73"/>
</g>
<!-- Node15 -->
<g id="node15" class="node">
<title>Node15</title>
<g id="a_node15"><a xlink:href="class_parse_gen_1_1_parser_1_1_i_parser_generator.html#ae29f6b1213c0fc23bfe5fe049be4ddbc" target="_top" xlink:title=" ">
<polygon fill="white" stroke="black" points="385.5,-49.5 385.5,-79.5 522.5,-79.5 522.5,-49.5 385.5,-49.5"/>
<text text-anchor="start" x="393.5" y="-67.5" font-family="Helvetica,sans-Serif" font-size="10.00">ParseGen::Parser::IParser</text>
<text text-anchor="middle" x="454" y="-56.5" font-family="Helvetica,sans-Serif" font-size="10.00">Generator::parse</text>
</a>
</g>
</g>
<!-- Node6&#45;&gt;Node15 -->
<g id="edge15" class="edge">
<title>Node6&#45;&gt;Node15</title>
<path fill="none" stroke="midnightblue" d="M268.08,-169.31C286.97,-148.32 323.91,-110.66 363,-89.5 367.23,-87.21 371.7,-85.11 376.28,-83.2"/>
<polygon fill="midnightblue" stroke="midnightblue" points="377.74,-86.38 385.81,-79.51 375.22,-79.85 377.74,-86.38"/>
</g>
<!-- Node16 -->
<g id="node16" class="node">
<title>Node16</title>
<g id="a_node16"><a xlink:href="class_parse_gen_1_1_g_u_i_1_1_main_editor.html#a375e7fc2018957b0d42313a9d87bb952" target="_top" xlink:title=" ">
<polygon fill="white" stroke="black" points="381.5,-0.5 381.5,-30.5 526.5,-30.5 526.5,-0.5 381.5,-0.5"/>
<text text-anchor="start" x="389.5" y="-18.5" font-family="Helvetica,sans-Serif" font-size="10.00">ParseGen::GUI::MainEditor</text>
<text text-anchor="middle" x="454" y="-7.5" font-family="Helvetica,sans-Serif" font-size="10.00">::processRules</text>
</a>
</g>
</g>
<!-- Node6&#45;&gt;Node16 -->
<g id="edge16" class="edge">
<title>Node6&#45;&gt;Node16</title>
<path fill="none" stroke="midnightblue" d="M262.07,-169.12C276.56,-139.32 312.59,-73.66 363,-39.5 365.9,-37.54 368.95,-35.73 372.11,-34.07"/>
<polygon fill="midnightblue" stroke="midnightblue" points="373.69,-37.2 381.26,-29.79 370.72,-30.86 373.69,-37.2"/>
</g>
<!-- Node8 -->
<g id="node8" class="node">
<title>Node8</title>
<g id="a_node8"><a xlink:href="class_parse_gen_1_1_parser_1_1_i_parser_generator.html#abb8807a107ad5b49c2d07aceab14273e" target="_top" xlink:title=" ">
<polygon fill="white" stroke="black" points="582,-284.5 582,-314.5 719,-314.5 719,-284.5 582,-284.5"/>
<text text-anchor="start" x="590" y="-302.5" font-family="Helvetica,sans-Serif" font-size="10.00">ParseGen::Parser::IParser</text>
<text text-anchor="middle" x="650.5" y="-291.5" font-family="Helvetica,sans-Serif" font-size="10.00">Generator::codeToString</text>
</a>
</g>
</g>
<!-- Node7&#45;&gt;Node8 -->
<g id="edge8" class="edge">
<title>Node7&#45;&gt;Node8</title>
<path fill="none" stroke="midnightblue" d="M522.75,-299.5C538.64,-299.5 555.69,-299.5 571.97,-299.5"/>
<polygon fill="midnightblue" stroke="midnightblue" points="571.99,-303 581.99,-299.5 571.99,-296 571.99,-303"/>
</g>
<!-- Node10 -->
<g id="node10" class="node">
<title>Node10</title>
<g id="a_node10"><a xlink:href="class_parse_gen_1_1_g_u_i_1_1_parse_tree_1_1_renderer.html#ac6962ed86384110616e7dad0f548ba84" target="_top" xlink:title=" ">
<polygon fill="white" stroke="black" points="581,-235.5 581,-265.5 720,-265.5 720,-235.5 581,-235.5"/>
<text text-anchor="start" x="589" y="-253.5" font-family="Helvetica,sans-Serif" font-size="10.00">ParseGen::GUI::ParseTree</text>
<text text-anchor="middle" x="650.5" y="-242.5" font-family="Helvetica,sans-Serif" font-size="10.00">::Renderer::Get</text>
</a>
</g>
</g>
<!-- Node9&#45;&gt;Node10 -->
<g id="edge10" class="edge">
<title>Node9&#45;&gt;Node10</title>
<path fill="none" stroke="midnightblue" d="M526.6,-250.5C541.03,-250.5 556.27,-250.5 570.93,-250.5"/>
<polygon fill="midnightblue" stroke="midnightblue" points="570.97,-254 580.97,-250.5 570.97,-247 570.97,-254"/>
</g>
<!-- Node14 -->
<g id="node14" class="node">
<title>Node14</title>
<g id="a_node14"><a xlink:href="class_parse_gen_1_1_parser_1_1_util_1_1_symbol.html#a82073c69377df2a10fd7d4350727ab73" target="_top" xlink:title=" ">
<polygon fill="white" stroke="black" points="589.5,-98.5 589.5,-128.5 711.5,-128.5 711.5,-98.5 589.5,-98.5"/>
<text text-anchor="start" x="597.5" y="-116.5" font-family="Helvetica,sans-Serif" font-size="10.00">ParseGen::Parser::Util</text>
<text text-anchor="middle" x="650.5" y="-105.5" font-family="Helvetica,sans-Serif" font-size="10.00">::Symbol::isEnd</text>
</a>
</g>
</g>
<!-- Node13&#45;&gt;Node14 -->
<g id="edge14" class="edge">
<title>Node13&#45;&gt;Node14</title>
<path fill="none" stroke="midnightblue" d="M515.21,-113.5C535.44,-113.5 558.18,-113.5 579.12,-113.5"/>
<polygon fill="midnightblue" stroke="midnightblue" points="579.24,-117 589.24,-113.5 579.24,-110 579.24,-117"/>
</g>
<!-- Node17 -->
<g id="node17" class="node">
<title>Node17</title>
<g id="a_node17"><a xlink:href="class_parse_gen_1_1_parser_1_1_parser_generator_factory.html#afa1ed5ce57448b5f8e854e303c171889" target="_top" xlink:title=" ">
<polygon fill="white" stroke="black" points="581.5,-25.5 581.5,-55.5 719.5,-55.5 719.5,-25.5 581.5,-25.5"/>
<text text-anchor="start" x="589.5" y="-43.5" font-family="Helvetica,sans-Serif" font-size="10.00">ParseGen::Parser::Parser</text>
<text text-anchor="middle" x="650.5" y="-32.5" font-family="Helvetica,sans-Serif" font-size="10.00">GeneratorFactory::Create</text>
</a>
</g>
</g>
<!-- Node16&#45;&gt;Node17 -->
<g id="edge17" class="edge">
<title>Node16&#45;&gt;Node17</title>
<path fill="none" stroke="midnightblue" d="M526.6,-24.7C541.12,-26.57 556.46,-28.54 571.2,-30.44"/>
<polygon fill="midnightblue" stroke="midnightblue" points="570.92,-33.93 581.29,-31.73 571.82,-26.99 570.92,-33.93"/>
</g>
<!-- Node17&#45;&gt;Node11 -->
<g id="edge18" class="edge">
<title>Node17&#45;&gt;Node11</title>
<path fill="none" stroke="midnightblue" d="M687.66,-55.56C713.54,-66.34 748.58,-80.93 776.39,-92.51"/>
<polygon fill="midnightblue" stroke="midnightblue" points="775.32,-95.85 785.89,-96.46 778.01,-89.39 775.32,-95.85"/>
</g>
</g>
</svg>
        <g id="navigator" transform="translate(0 0)" fill="#404254">
                <rect fill="#f2f5e9" fill-opacity="0.5" stroke="#606060" stroke-width=".5" x="0" y="0" width="60" height="60"/>
                <use id="zoomplus" xlink:href="#zoomPlus" x="17" y="9" onmousedown="handleZoom(evt,'in')"/>
                <use id="zoomminus" xlink:href="#zoomMin" x="42" y="9" onmousedown="handleZoom(evt,'out')"/>
                <use id="reset" xlink:href="#resetDef" x="30" y="36" onmousedown="handleReset()"/>
                <g id="arrowUp" xlink:href="#dirArrow" transform="translate(30 24)" onmousedown="handlePan(0,-1)">
                  <use xlink:href="#rim" fill="#404040">
                        <set attributeName="fill" to="#808080" begin="arrowUp.mouseover" end="arrowUp.mouseout"/>
                  </use>
                  <path fill="none" stroke="white" stroke-width="1.5" d="M0,-3.0v7 M-2.5,-0.5L0,-3.0L2.5,-0.5"/>
                </g>
                <g id="arrowRight" xlink:href="#dirArrow" transform="rotate(90) translate(36 -43)" onmousedown="handlePan(1,0)">
                  <use xlink:href="#rim" fill="#404040">
                        <set attributeName="fill" to="#808080" begin="arrowRight.mouseover" end="arrowRight.mouseout"/>
                  </use>
                  <path fill="none" stroke="white" stroke-width="1.5" d="M0,-3.0v7 M-2.5,-0.5L0,-3.0L2.5,-0.5"/>
                </g>
                <g id="arrowDown" xlink:href="#dirArrow" transform="rotate(180) translate(-30 -48)" onmousedown="handlePan(0,1)">
                  <use xlink:href="#rim" fill="#404040">
                        <set attributeName="fill" to="#808080" begin="arrowDown.mouseover" end="arrowDown.mouseout"/>
                  </use>
                  <path fill="none" stroke="white" stroke-width="1.5" d="M0,-3.0v7 M-2.5,-0.5L0,-3.0L2.5,-0.5"/>
                </g>
                <g id="arrowLeft" xlink:href="#dirArrow" transform="rotate(270) translate(-36 17)" onmousedown="handlePan(-1,0)">
                  <use xlink:href="#rim" fill="#404040">
                        <set attributeName="fill" to="#808080" begin="arrowLeft.mouseover" end="arrowLeft.mouseout"/>
                  </use>
                  <path fill="none" stroke="white" stroke-width="1.5" d="M0,-3.0v7 M-2.5,-0.5L0,-3.0L2.5,-0.5"/>
                </g>
        </g>
        <svg viewBox="0 0 15 15" width="100%" height="30px" preserveAspectRatio="xMaxYMin meet">
         <g id="arrow_out" transform="scale(0.3 0.3)">
          <a xlink:href="class_parse_gen_1_1_g_u_i_1_1_main_editor_a8cb7930ca709c3de86c173bb8ad29bd1_cgraph_org.svg" target="_base">
           <rect id="button" ry="5" rx="5" y="6" x="6" height="38" width="38"
                fill="#f2f5e9" fill-opacity="0.5" stroke="#606060" stroke-width="1.0"/>
           <path id="arrow"
             d="M 11.500037,31.436501 C 11.940474,20.09759 22.043105,11.32322 32.158766,21.979434 L 37.068811,17.246167 C 37.068811,17.246167 37.088388,32 37.088388,32 L 22.160133,31.978069 C 22.160133,31.978069 26.997745,27.140456 26.997745,27.140456 C 18.528582,18.264221 13.291696,25.230495 11.500037,31.436501 z"
             style="fill:#404040;"/>
          </a>
         </g>
        </svg>
</svg>
