<?xml version="1.0" encoding="UTF-8" standalone="no"?>
<!DOCTYPE svg PUBLIC "-//W3C//DTD SVG 1.1//EN"
 "http://www.w3.org/Graphics/SVG/1.1/DTD/svg11.dtd">
<!-- Generated by graphviz version 2.43.0 (0)
 -->
<!-- Title: ParseGen::Parser::Yacc::LexYaccGenerator Pages: 1 -->
<svg width="145pt" height="270pt"
 viewBox="0.00 0.00 145.00 270.00" xmlns="http://www.w3.org/2000/svg" xmlns:xlink="http://www.w3.org/1999/xlink">
<g id="graph0" class="graph" transform="scale(1 1) rotate(0) translate(4 266)">
<title>ParseGen::Parser::Yacc::LexYaccGenerator</title>
<polygon fill="white" stroke="transparent" points="-4,4 -4,-266 141,-266 141,4 -4,4"/>
<!-- Node1 -->
<g id="node1" class="node">
<title>Node1</title>
<g id="a_node1"><a xlink:title=" ">
<polygon fill="#bfbfbf" stroke="black" points="6,-0.5 6,-112.5 131,-112.5 131,-0.5 6,-0.5"/>
<text text-anchor="start" x="14" y="-100.5" font-family="Helvetica,sans-Serif" font-size="10.00">ParseGen::Parser::Yacc</text>
<text text-anchor="middle" x="68.5" y="-89.5" font-family="Helvetica,sans-Serif" font-size="10.00">::LexYaccGenerator</text>
<polyline fill="none" stroke="black" points="6,-82.5 131,-82.5 "/>
<text text-anchor="start" x="14" y="-70.5" font-family="Helvetica,sans-Serif" font-size="10.00">&#45; rules</text>
<polyline fill="none" stroke="black" points="6,-63.5 131,-63.5 "/>
<text text-anchor="start" x="14" y="-51.5" font-family="Helvetica,sans-Serif" font-size="10.00">+ parse()</text>
<text text-anchor="start" x="14" y="-40.5" font-family="Helvetica,sans-Serif" font-size="10.00">+ codeToString()</text>
<text text-anchor="start" x="14" y="-29.5" font-family="Helvetica,sans-Serif" font-size="10.00">+ Create()</text>
<text text-anchor="start" x="14" y="-18.5" font-family="Helvetica,sans-Serif" font-size="10.00">&#45; LexYaccGenerator()</text>
<text text-anchor="start" x="14" y="-7.5" font-family="Helvetica,sans-Serif" font-size="10.00">&#45; escaped_name()</text>
</a>
</g>
</g>
<!-- Node2 -->
<g id="node2" class="node">
<title>Node2</title>
<g id="a_node2"><a xlink:href="class_parse_gen_1_1_parser_1_1_i_parser_generator.html" target="_top" xlink:title=" ">
<polygon fill="white" stroke="black" points="0,-149.5 0,-261.5 137,-261.5 137,-149.5 0,-149.5"/>
<text text-anchor="start" x="8" y="-249.5" font-family="Helvetica,sans-Serif" font-size="10.00">ParseGen::Parser::IParser</text>
<text text-anchor="middle" x="68.5" y="-238.5" font-family="Helvetica,sans-Serif" font-size="10.00">Generator</text>
<polyline fill="none" stroke="black" points="0,-231.5 137,-231.5 "/>
<text text-anchor="start" x="8" y="-219.5" font-family="Helvetica,sans-Serif" font-size="10.00">+ bnf</text>
<text text-anchor="start" x="8" y="-208.5" font-family="Helvetica,sans-Serif" font-size="10.00"># language</text>
<text text-anchor="start" x="8" y="-197.5" font-family="Helvetica,sans-Serif" font-size="10.00"># templateSubDir</text>
<polyline fill="none" stroke="black" points="0,-190.5 137,-190.5 "/>
<text text-anchor="start" x="8" y="-178.5" font-family="Helvetica,sans-Serif" font-size="10.00">+ parse()</text>
<text text-anchor="start" x="8" y="-167.5" font-family="Helvetica,sans-Serif" font-size="10.00">+ codeToString()</text>
<text text-anchor="start" x="8" y="-156.5" font-family="Helvetica,sans-Serif" font-size="10.00">+ codeToFile()</text>
</a>
</g>
</g>
<!-- Node2&#45;&gt;Node1 -->
<g id="edge1" class="edge">
<title>Node2&#45;&gt;Node1</title>
<path fill="none" stroke="midnightblue" d="M68.5,-139.18C68.5,-130.43 68.5,-121.52 68.5,-112.96"/>
<polygon fill="none" stroke="midnightblue" points="65,-139.34 68.5,-149.34 72,-139.34 65,-139.34"/>
</g>
</g>
</svg>
