<?xml version="1.0" encoding="UTF-8" standalone="no"?>
<!DOCTYPE svg PUBLIC "-//W3C//DTD SVG 1.1//EN"
 "http://www.w3.org/Graphics/SVG/1.1/DTD/svg11.dtd">
<!-- Generated by graphviz version 2.43.0 (0)
 -->
<!-- Title: ParseGen::Parser::ParserGeneratorFactory::ParserGeneratorFactory Pages: 1 -->
<svg width="659pt" height="210pt"
 viewBox="0.00 0.00 659.00 209.50" xmlns="http://www.w3.org/2000/svg" xmlns:xlink="http://www.w3.org/1999/xlink">
<g id="graph0" class="graph" transform="scale(1 1) rotate(0) translate(4 205.5)">
<title>ParseGen::Parser::ParserGeneratorFactory::ParserGeneratorFactory</title>
<polygon fill="white" stroke="transparent" points="-4,4 -4,-205.5 655,-205.5 655,4 -4,4"/>
<!-- Node1 -->
<g id="node1" class="node">
<title>Node1</title>
<g id="a_node1"><a xlink:title=" ">
<polygon fill="#bfbfbf" stroke="black" points="0,-77 0,-118 185,-118 185,-77 0,-77"/>
<text text-anchor="start" x="8" y="-106" font-family="Helvetica,sans-Serif" font-size="10.00">ParseGen::Parser::Parser</text>
<text text-anchor="start" x="8" y="-95" font-family="Helvetica,sans-Serif" font-size="10.00">GeneratorFactory::ParserGenerator</text>
<text text-anchor="middle" x="92.5" y="-84" font-family="Helvetica,sans-Serif" font-size="10.00">Factory</text>
</a>
</g>
</g>
<!-- Node2 -->
<g id="node2" class="node">
<title>Node2</title>
<g id="a_node2"><a xlink:href="class_parse_gen_1_1_parser_1_1_b_n_f_1_1_b_n_f_parser_generator.html#a14083a97fde4bb9047f2ecba935c6eda" target="_top" xlink:title=" ">
<polygon fill="white" stroke="black" points="254,-160 254,-201 379,-201 379,-160 254,-160"/>
<text text-anchor="start" x="262" y="-189" font-family="Helvetica,sans-Serif" font-size="10.00">ParseGen::Parser::BNF</text>
<text text-anchor="start" x="262" y="-178" font-family="Helvetica,sans-Serif" font-size="10.00">::BNFParserGenerator</text>
<text text-anchor="middle" x="316.5" y="-167" font-family="Helvetica,sans-Serif" font-size="10.00">::Create</text>
</a>
</g>
</g>
<!-- Node1&#45;&gt;Node2 -->
<g id="edge1" class="edge">
<title>Node1&#45;&gt;Node2</title>
<path fill="none" stroke="midnightblue" d="M140.35,-118.11C164.28,-128.35 193.98,-140.62 221,-150.5 228.53,-153.25 236.44,-156 244.36,-158.65"/>
<polygon fill="midnightblue" stroke="midnightblue" points="243.39,-162.01 253.98,-161.82 245.58,-155.36 243.39,-162.01"/>
</g>
<!-- Node4 -->
<g id="node4" class="node">
<title>Node4</title>
<g id="a_node4"><a xlink:href="class_parse_gen_1_1_parser_1_1_yacc_1_1_lex_yacc_generator.html#a87ef78dd0104f5c0ff6feaedaaf22d1c" target="_top" xlink:title=" ">
<polygon fill="white" stroke="black" points="242.5,-110.5 242.5,-140.5 390.5,-140.5 390.5,-110.5 242.5,-110.5"/>
<text text-anchor="start" x="250.5" y="-128.5" font-family="Helvetica,sans-Serif" font-size="10.00">ParseGen::Parser::Yacc</text>
<text text-anchor="middle" x="316.5" y="-117.5" font-family="Helvetica,sans-Serif" font-size="10.00">::LexYaccGenerator::Create</text>
</a>
</g>
</g>
<!-- Node1&#45;&gt;Node4 -->
<g id="edge3" class="edge">
<title>Node1&#45;&gt;Node4</title>
<path fill="none" stroke="midnightblue" d="M185.08,-109.05C200.75,-111.03 216.96,-113.07 232.4,-115.02"/>
<polygon fill="midnightblue" stroke="midnightblue" points="232.07,-118.5 242.42,-116.28 232.94,-111.56 232.07,-118.5"/>
</g>
<!-- Node6 -->
<g id="node6" class="node">
<title>Node6</title>
<g id="a_node6"><a xlink:href="class_parse_gen_1_1_parser_1_1_l_l_predictive_parser_1_1_l_l_predictive_parser_generator.html#a342390258fa7f492e2e65984100f56a0" target="_top" xlink:title=" ">
<polygon fill="white" stroke="black" points="221,-50 221,-91 412,-91 412,-50 221,-50"/>
<text text-anchor="start" x="229" y="-79" font-family="Helvetica,sans-Serif" font-size="10.00">ParseGen::Parser::LLPredictive</text>
<text text-anchor="start" x="229" y="-68" font-family="Helvetica,sans-Serif" font-size="10.00">Parser::LLPredictiveParserGenerator</text>
<text text-anchor="middle" x="316.5" y="-57" font-family="Helvetica,sans-Serif" font-size="10.00">::Create</text>
</a>
</g>
</g>
<!-- Node1&#45;&gt;Node6 -->
<g id="edge5" class="edge">
<title>Node1&#45;&gt;Node6</title>
<path fill="none" stroke="midnightblue" d="M185.08,-86.36C193.58,-85.33 202.23,-84.28 210.84,-83.23"/>
<polygon fill="midnightblue" stroke="midnightblue" points="211.4,-86.69 220.9,-82.01 210.55,-79.74 211.4,-86.69"/>
</g>
<!-- Node8 -->
<g id="node8" class="node">
<title>Node8</title>
<g id="a_node8"><a xlink:href="class_parse_gen_1_1_parser_1_1_parser_generator_factory.html#abe6ea07883a3aae197c83a310dbdac6c" target="_top" xlink:title=" ">
<polygon fill="white" stroke="black" points="243.5,-0.5 243.5,-30.5 389.5,-30.5 389.5,-0.5 243.5,-0.5"/>
<text text-anchor="start" x="251.5" y="-18.5" font-family="Helvetica,sans-Serif" font-size="10.00">ParseGen::Parser::Parser</text>
<text text-anchor="middle" x="316.5" y="-7.5" font-family="Helvetica,sans-Serif" font-size="10.00">GeneratorFactory::Register</text>
</a>
</g>
</g>
<!-- Node1&#45;&gt;Node8 -->
<g id="edge7" class="edge">
<title>Node1&#45;&gt;Node8</title>
<path fill="none" stroke="midnightblue" d="M135.01,-76.89C159.61,-65.2 191.62,-50.88 221,-40.5 228.07,-38 235.5,-35.63 242.98,-33.4"/>
<polygon fill="midnightblue" stroke="midnightblue" points="244.16,-36.7 252.79,-30.56 242.22,-29.98 244.16,-36.7"/>
</g>
<!-- Node3 -->
<g id="node3" class="node">
<title>Node3</title>
<g id="a_node3"><a xlink:href="class_parse_gen_1_1_parser_1_1_b_n_f_1_1_b_n_f_parser_generator.html#a8f65bc5bf79f1db569a5feaa6ee375dc" target="_top" xlink:title=" ">
<polygon fill="white" stroke="black" points="487,-160 487,-201 612,-201 612,-160 487,-160"/>
<text text-anchor="start" x="495" y="-189" font-family="Helvetica,sans-Serif" font-size="10.00">ParseGen::Parser::BNF</text>
<text text-anchor="start" x="495" y="-178" font-family="Helvetica,sans-Serif" font-size="10.00">::BNFParserGenerator</text>
<text text-anchor="middle" x="549.5" y="-167" font-family="Helvetica,sans-Serif" font-size="10.00">::BNFParserGenerator</text>
</a>
</g>
</g>
<!-- Node2&#45;&gt;Node3 -->
<g id="edge2" class="edge">
<title>Node2&#45;&gt;Node3</title>
<path fill="none" stroke="midnightblue" d="M379.1,-180.5C409,-180.5 445.11,-180.5 476.3,-180.5"/>
<polygon fill="midnightblue" stroke="midnightblue" points="476.67,-184 486.67,-180.5 476.67,-177 476.67,-184"/>
</g>
<!-- Node5 -->
<g id="node5" class="node">
<title>Node5</title>
<g id="a_node5"><a xlink:href="class_parse_gen_1_1_parser_1_1_yacc_1_1_lex_yacc_generator.html#a8bb897ab08b43fa7972a5272b58d3ea6" target="_top" xlink:title=" ">
<polygon fill="white" stroke="black" points="448,-110.5 448,-140.5 651,-140.5 651,-110.5 448,-110.5"/>
<text text-anchor="start" x="456" y="-128.5" font-family="Helvetica,sans-Serif" font-size="10.00">ParseGen::Parser::Yacc</text>
<text text-anchor="middle" x="549.5" y="-117.5" font-family="Helvetica,sans-Serif" font-size="10.00">::LexYaccGenerator::LexYaccGenerator</text>
</a>
</g>
</g>
<!-- Node4&#45;&gt;Node5 -->
<g id="edge4" class="edge">
<title>Node4&#45;&gt;Node5</title>
<path fill="none" stroke="midnightblue" d="M390.59,-125.5C405.44,-125.5 421.39,-125.5 437.22,-125.5"/>
<polygon fill="midnightblue" stroke="midnightblue" points="437.6,-129 447.6,-125.5 437.6,-122 437.6,-129"/>
</g>
<!-- Node7 -->
<g id="node7" class="node">
<title>Node7</title>
<g id="a_node7"><a xlink:href="class_parse_gen_1_1_parser_1_1_l_l_predictive_parser_1_1_l_l_predictive_parser_generator.html#af54a6b21bd84d1aa432f987c19538bbe" target="_top" xlink:title=" ">
<polygon fill="white" stroke="black" points="454,-50 454,-91 645,-91 645,-50 454,-50"/>
<text text-anchor="start" x="462" y="-79" font-family="Helvetica,sans-Serif" font-size="10.00">ParseGen::Parser::LLPredictive</text>
<text text-anchor="start" x="462" y="-68" font-family="Helvetica,sans-Serif" font-size="10.00">Parser::LLPredictiveParserGenerator</text>
<text text-anchor="middle" x="549.5" y="-57" font-family="Helvetica,sans-Serif" font-size="10.00">::LLPredictiveParserGenerator</text>
</a>
</g>
</g>
<!-- Node6&#45;&gt;Node7 -->
<g id="edge6" class="edge">
<title>Node6&#45;&gt;Node7</title>
<path fill="none" stroke="midnightblue" d="M412.12,-70.5C422.51,-70.5 433.13,-70.5 443.63,-70.5"/>
<polygon fill="midnightblue" stroke="midnightblue" points="443.65,-74 453.65,-70.5 443.65,-67 443.65,-74"/>
</g>
</g>
</svg>
