<?xml version="1.0" encoding="UTF-8" standalone="no"?>
<!DOCTYPE svg PUBLIC "-//W3C//DTD SVG 1.1//EN"
 "http://www.w3.org/Graphics/SVG/1.1/DTD/svg11.dtd">
<!-- Generated by graphviz version 2.43.0 (0)
 -->
<!-- Title: ParseGen::Parser::Yacc::LexYaccGenerator::Create Pages: 1 -->
<svg width="395pt" height="39pt"
 viewBox="0.00 0.00 395.00 39.00" xmlns="http://www.w3.org/2000/svg" xmlns:xlink="http://www.w3.org/1999/xlink">
<g id="graph0" class="graph" transform="scale(1 1) rotate(0) translate(4 35)">
<title>ParseGen::Parser::Yacc::LexYaccGenerator::Create</title>
<polygon fill="white" stroke="transparent" points="-4,4 -4,-35 391,-35 391,4 -4,4"/>
<!-- Node1 -->
<g id="node1" class="node">
<title>Node1</title>
<g id="a_node1"><a xlink:title=" ">
<polygon fill="#bfbfbf" stroke="black" points="0,-0.5 0,-30.5 148,-30.5 148,-0.5 0,-0.5"/>
<text text-anchor="start" x="8" y="-18.5" font-family="Helvetica,sans-Serif" font-size="10.00">ParseGen::Parser::Yacc</text>
<text text-anchor="middle" x="74" y="-7.5" font-family="Helvetica,sans-Serif" font-size="10.00">::LexYaccGenerator::Create</text>
</a>
</g>
</g>
<!-- Node2 -->
<g id="node2" class="node">
<title>Node2</title>
<g id="a_node2"><a xlink:href="class_parse_gen_1_1_parser_1_1_yacc_1_1_lex_yacc_generator.html#a8bb897ab08b43fa7972a5272b58d3ea6" target="_top" xlink:title=" ">
<polygon fill="white" stroke="black" points="184,-0.5 184,-30.5 387,-30.5 387,-0.5 184,-0.5"/>
<text text-anchor="start" x="192" y="-18.5" font-family="Helvetica,sans-Serif" font-size="10.00">ParseGen::Parser::Yacc</text>
<text text-anchor="middle" x="285.5" y="-7.5" font-family="Helvetica,sans-Serif" font-size="10.00">::LexYaccGenerator::LexYaccGenerator</text>
</a>
</g>
</g>
<!-- Node1&#45;&gt;Node2 -->
<g id="edge1" class="edge">
<title>Node1&#45;&gt;Node2</title>
<path fill="none" stroke="midnightblue" d="M148.27,-15.5C156.5,-15.5 165.01,-15.5 173.58,-15.5"/>
<polygon fill="midnightblue" stroke="midnightblue" points="173.65,-19 183.65,-15.5 173.65,-12 173.65,-19"/>
</g>
</g>
</svg>
