<?xml version="1.0" encoding="UTF-8" standalone="no"?>
<!DOCTYPE svg PUBLIC "-//W3C//DTD SVG 1.1//EN"
 "http://www.w3.org/Graphics/SVG/1.1/DTD/svg11.dtd">
<!-- Generated by graphviz version 2.43.0 (0)
 -->
<!-- Title: ParseGen::Parser::IParserGenerator Pages: 1 -->
<svg width="491pt" height="303pt"
 viewBox="0.00 0.00 490.50 303.00" xmlns="http://www.w3.org/2000/svg" xmlns:xlink="http://www.w3.org/1999/xlink">
<g id="graph0" class="graph" transform="scale(1 1) rotate(0) translate(4 299)">
<title>ParseGen::Parser::IParserGenerator</title>
<polygon fill="white" stroke="transparent" points="-4,4 -4,-299 486.5,-299 486.5,4 -4,4"/>
<!-- Node1 -->
<g id="node1" class="node">
<title>Node1</title>
<g id="a_node1"><a xlink:title=" ">
<polygon fill="#bfbfbf" stroke="black" points="175.5,-182.5 175.5,-294.5 312.5,-294.5 312.5,-182.5 175.5,-182.5"/>
<text text-anchor="start" x="183.5" y="-282.5" font-family="Helvetica,sans-Serif" font-size="10.00">ParseGen::Parser::IParser</text>
<text text-anchor="middle" x="244" y="-271.5" font-family="Helvetica,sans-Serif" font-size="10.00">Generator</text>
<polyline fill="none" stroke="black" points="175.5,-264.5 312.5,-264.5 "/>
<text text-anchor="start" x="183.5" y="-252.5" font-family="Helvetica,sans-Serif" font-size="10.00">+ bnf</text>
<text text-anchor="start" x="183.5" y="-241.5" font-family="Helvetica,sans-Serif" font-size="10.00"># language</text>
<text text-anchor="start" x="183.5" y="-230.5" font-family="Helvetica,sans-Serif" font-size="10.00"># templateSubDir</text>
<polyline fill="none" stroke="black" points="175.5,-223.5 312.5,-223.5 "/>
<text text-anchor="start" x="183.5" y="-211.5" font-family="Helvetica,sans-Serif" font-size="10.00">+ parse()</text>
<text text-anchor="start" x="183.5" y="-200.5" font-family="Helvetica,sans-Serif" font-size="10.00">+ codeToString()</text>
<text text-anchor="start" x="183.5" y="-189.5" font-family="Helvetica,sans-Serif" font-size="10.00">+ codeToFile()</text>
</a>
</g>
</g>
<!-- Node2 -->
<g id="node2" class="node">
<title>Node2</title>
<g id="a_node2"><a xlink:href="class_parse_gen_1_1_parser_1_1_b_n_f_1_1_b_n_f_parser_generator.html" target="_top" xlink:title=" ">
<polygon fill="white" stroke="black" points="0,-22.5 0,-123.5 130,-123.5 130,-22.5 0,-22.5"/>
<text text-anchor="start" x="8" y="-111.5" font-family="Helvetica,sans-Serif" font-size="10.00">ParseGen::Parser::BNF</text>
<text text-anchor="middle" x="65" y="-100.5" font-family="Helvetica,sans-Serif" font-size="10.00">::BNFParserGenerator</text>
<polyline fill="none" stroke="black" points="0,-93.5 130,-93.5 "/>
<text text-anchor="middle" x="65" y="-81.5" font-family="Helvetica,sans-Serif" font-size="10.00"> </text>
<polyline fill="none" stroke="black" points="0,-74.5 130,-74.5 "/>
<text text-anchor="start" x="8" y="-62.5" font-family="Helvetica,sans-Serif" font-size="10.00">+ parse()</text>
<text text-anchor="start" x="8" y="-51.5" font-family="Helvetica,sans-Serif" font-size="10.00">+ codeToString()</text>
<text text-anchor="start" x="8" y="-40.5" font-family="Helvetica,sans-Serif" font-size="10.00">+ Create()</text>
<text text-anchor="start" x="8" y="-29.5" font-family="Helvetica,sans-Serif" font-size="10.00">&#45; BNFParserGenerator()</text>
</a>
</g>
</g>
<!-- Node1&#45;&gt;Node2 -->
<g id="edge1" class="edge">
<title>Node1&#45;&gt;Node2</title>
<path fill="none" stroke="midnightblue" d="M171.98,-175.66C160.85,-165.84 149.55,-155.72 139,-146 131.22,-138.84 123.1,-131.15 115.2,-123.56"/>
<polygon fill="none" stroke="midnightblue" points="169.83,-178.43 179.65,-182.41 174.45,-173.18 169.83,-178.43"/>
</g>
<!-- Node3 -->
<g id="node3" class="node">
<title>Node3</title>
<g id="a_node3"><a xlink:href="class_parse_gen_1_1_parser_1_1_l_l_predictive_parser_1_1_l_l_predictive_parser_generator.html" target="_top" xlink:title=" ">
<polygon fill="white" stroke="black" points="148.5,-0.5 148.5,-145.5 339.5,-145.5 339.5,-0.5 148.5,-0.5"/>
<text text-anchor="start" x="156.5" y="-133.5" font-family="Helvetica,sans-Serif" font-size="10.00">ParseGen::Parser::LLPredictive</text>
<text text-anchor="middle" x="244" y="-122.5" font-family="Helvetica,sans-Serif" font-size="10.00">Parser::LLPredictiveParserGenerator</text>
<polyline fill="none" stroke="black" points="148.5,-115.5 339.5,-115.5 "/>
<text text-anchor="start" x="156.5" y="-103.5" font-family="Helvetica,sans-Serif" font-size="10.00">&#45; firstParse</text>
<text text-anchor="start" x="156.5" y="-92.5" font-family="Helvetica,sans-Serif" font-size="10.00">&#45; rules</text>
<text text-anchor="start" x="156.5" y="-81.5" font-family="Helvetica,sans-Serif" font-size="10.00">&#45; parseTable</text>
<text text-anchor="start" x="156.5" y="-70.5" font-family="Helvetica,sans-Serif" font-size="10.00">&#45; output</text>
<polyline fill="none" stroke="black" points="148.5,-63.5 339.5,-63.5 "/>
<text text-anchor="start" x="156.5" y="-51.5" font-family="Helvetica,sans-Serif" font-size="10.00">+ parse()</text>
<text text-anchor="start" x="156.5" y="-40.5" font-family="Helvetica,sans-Serif" font-size="10.00">+ codeToString()</text>
<text text-anchor="start" x="156.5" y="-29.5" font-family="Helvetica,sans-Serif" font-size="10.00">+ Create()</text>
<text text-anchor="start" x="156.5" y="-18.5" font-family="Helvetica,sans-Serif" font-size="10.00">&#45; LLPredictiveParserGenerator()</text>
<text text-anchor="start" x="156.5" y="-7.5" font-family="Helvetica,sans-Serif" font-size="10.00">&#45; generateParseTable()</text>
</a>
</g>
</g>
<!-- Node1&#45;&gt;Node3 -->
<g id="edge2" class="edge">
<title>Node1&#45;&gt;Node3</title>
<path fill="none" stroke="midnightblue" d="M244,-172.05C244,-163.33 244,-154.35 244,-145.53"/>
<polygon fill="none" stroke="midnightblue" points="240.5,-172.15 244,-182.15 247.5,-172.15 240.5,-172.15"/>
</g>
<!-- Node4 -->
<g id="node4" class="node">
<title>Node4</title>
<g id="a_node4"><a xlink:href="class_parse_gen_1_1_parser_1_1_yacc_1_1_lex_yacc_generator.html" target="_top" xlink:title=" ">
<polygon fill="white" stroke="black" points="357.5,-17 357.5,-129 482.5,-129 482.5,-17 357.5,-17"/>
<text text-anchor="start" x="365.5" y="-117" font-family="Helvetica,sans-Serif" font-size="10.00">ParseGen::Parser::Yacc</text>
<text text-anchor="middle" x="420" y="-106" font-family="Helvetica,sans-Serif" font-size="10.00">::LexYaccGenerator</text>
<polyline fill="none" stroke="black" points="357.5,-99 482.5,-99 "/>
<text text-anchor="start" x="365.5" y="-87" font-family="Helvetica,sans-Serif" font-size="10.00">&#45; rules</text>
<polyline fill="none" stroke="black" points="357.5,-80 482.5,-80 "/>
<text text-anchor="start" x="365.5" y="-68" font-family="Helvetica,sans-Serif" font-size="10.00">+ parse()</text>
<text text-anchor="start" x="365.5" y="-57" font-family="Helvetica,sans-Serif" font-size="10.00">+ codeToString()</text>
<text text-anchor="start" x="365.5" y="-46" font-family="Helvetica,sans-Serif" font-size="10.00">+ Create()</text>
<text text-anchor="start" x="365.5" y="-35" font-family="Helvetica,sans-Serif" font-size="10.00">&#45; LexYaccGenerator()</text>
<text text-anchor="start" x="365.5" y="-24" font-family="Helvetica,sans-Serif" font-size="10.00">&#45; escaped_name()</text>
</a>
</g>
</g>
<!-- Node1&#45;&gt;Node4 -->
<g id="edge3" class="edge">
<title>Node1&#45;&gt;Node4</title>
<path fill="none" stroke="midnightblue" d="M316.43,-175.65C327.46,-165.87 338.62,-155.76 349,-146 354.76,-140.59 360.68,-134.85 366.54,-129.08"/>
<polygon fill="none" stroke="midnightblue" points="314,-173.13 308.82,-182.37 318.63,-178.38 314,-173.13"/>
</g>
</g>
</svg>
