<?xml version="1.0" encoding="UTF-8" standalone="no"?>
<!DOCTYPE svg PUBLIC "-//W3C//DTD SVG 1.1//EN"
 "http://www.w3.org/Graphics/SVG/1.1/DTD/svg11.dtd">
<!-- Generated by graphviz version 2.43.0 (0)
 -->
<!-- Title: ParseGen::Parser::Yacc::LexYaccGenerator::LexYaccGenerator Pages: 1 -->
<svg width="616pt" height="50pt"
 viewBox="0.00 0.00 616.00 50.00" xmlns="http://www.w3.org/2000/svg" xmlns:xlink="http://www.w3.org/1999/xlink">
<g id="graph0" class="graph" transform="scale(1 1) rotate(0) translate(4 46)">
<title>ParseGen::Parser::Yacc::LexYaccGenerator::LexYaccGenerator</title>
<polygon fill="white" stroke="transparent" points="-4,4 -4,-46 612,-46 612,4 -4,4"/>
<!-- Node1 -->
<g id="node1" class="node">
<title>Node1</title>
<g id="a_node1"><a xlink:title=" ">
<polygon fill="#bfbfbf" stroke="black" points="405,-6 405,-36 608,-36 608,-6 405,-6"/>
<text text-anchor="start" x="413" y="-24" font-family="Helvetica,sans-Serif" font-size="10.00">ParseGen::Parser::Yacc</text>
<text text-anchor="middle" x="506.5" y="-13" font-family="Helvetica,sans-Serif" font-size="10.00">::LexYaccGenerator::LexYaccGenerator</text>
</a>
</g>
</g>
<!-- Node2 -->
<g id="node2" class="node">
<title>Node2</title>
<g id="a_node2"><a xlink:href="class_parse_gen_1_1_parser_1_1_yacc_1_1_lex_yacc_generator.html#a87ef78dd0104f5c0ff6feaedaaf22d1c" target="_top" xlink:title=" ">
<polygon fill="white" stroke="black" points="221,-6 221,-36 369,-36 369,-6 221,-6"/>
<text text-anchor="start" x="229" y="-24" font-family="Helvetica,sans-Serif" font-size="10.00">ParseGen::Parser::Yacc</text>
<text text-anchor="middle" x="295" y="-13" font-family="Helvetica,sans-Serif" font-size="10.00">::LexYaccGenerator::Create</text>
</a>
</g>
</g>
<!-- Node1&#45;&gt;Node2 -->
<g id="edge1" class="edge">
<title>Node1&#45;&gt;Node2</title>
<path fill="none" stroke="midnightblue" d="M394.56,-21C385.91,-21 377.31,-21 369,-21"/>
<polygon fill="midnightblue" stroke="midnightblue" points="394.74,-24.5 404.74,-21 394.74,-17.5 394.74,-24.5"/>
</g>
<!-- Node3 -->
<g id="node3" class="node">
<title>Node3</title>
<g id="a_node3"><a xlink:href="class_parse_gen_1_1_parser_1_1_parser_generator_factory.html#ac66b02ca8b2861ed3c53907114a856e2" target="_top" xlink:title=" ">
<polygon fill="white" stroke="black" points="0,-0.5 0,-41.5 185,-41.5 185,-0.5 0,-0.5"/>
<text text-anchor="start" x="8" y="-29.5" font-family="Helvetica,sans-Serif" font-size="10.00">ParseGen::Parser::Parser</text>
<text text-anchor="start" x="8" y="-18.5" font-family="Helvetica,sans-Serif" font-size="10.00">GeneratorFactory::ParserGenerator</text>
<text text-anchor="middle" x="92.5" y="-7.5" font-family="Helvetica,sans-Serif" font-size="10.00">Factory</text>
</a>
</g>
</g>
<!-- Node2&#45;&gt;Node3 -->
<g id="edge2" class="edge">
<title>Node2&#45;&gt;Node3</title>
<path fill="none" stroke="midnightblue" d="M210.66,-21C202.3,-21 193.77,-21 185.33,-21"/>
<polygon fill="midnightblue" stroke="midnightblue" points="210.76,-24.5 220.76,-21 210.76,-17.5 210.76,-24.5"/>
</g>
</g>
</svg>
