<?xml version="1.0" encoding="UTF-8" standalone="no"?>
<!DOCTYPE svg PUBLIC "-//W3C//DTD SVG 1.1//EN"
 "http://www.w3.org/Graphics/SVG/1.1/DTD/svg11.dtd">
<!-- Generated by graphviz version 2.43.0 (0)
 -->
<!-- Title: ParseGen::Parser::LLPredictiveParser::LLPredictiveParserGenerator Pages: 1 -->
<svg width="468pt" height="529pt"
 viewBox="0.00 0.00 467.50 529.00" xmlns="http://www.w3.org/2000/svg" xmlns:xlink="http://www.w3.org/1999/xlink">
<g id="graph0" class="graph" transform="scale(1 1) rotate(0) translate(4 525)">
<title>ParseGen::Parser::LLPredictiveParser::LLPredictiveParserGenerator</title>
<polygon fill="white" stroke="transparent" points="-4,4 -4,-525 463.5,-525 463.5,4 -4,4"/>
<!-- Node1 -->
<g id="node1" class="node">
<title>Node1</title>
<g id="a_node1"><a xlink:title=" ">
<polygon fill="#bfbfbf" stroke="black" points="142,-0.5 142,-123.5 333,-123.5 333,-0.5 142,-0.5"/>
<text text-anchor="start" x="150" y="-111.5" font-family="Helvetica,sans-Serif" font-size="10.00">ParseGen::Parser::LLPredictive</text>
<text text-anchor="middle" x="237.5" y="-100.5" font-family="Helvetica,sans-Serif" font-size="10.00">Parser::LLPredictiveParserGenerator</text>
<polyline fill="none" stroke="black" points="142,-93.5 333,-93.5 "/>
<text text-anchor="start" x="150" y="-81.5" font-family="Helvetica,sans-Serif" font-size="10.00">&#45; firstParse</text>
<text text-anchor="start" x="150" y="-70.5" font-family="Helvetica,sans-Serif" font-size="10.00">&#45; output</text>
<polyline fill="none" stroke="black" points="142,-63.5 333,-63.5 "/>
<text text-anchor="start" x="150" y="-51.5" font-family="Helvetica,sans-Serif" font-size="10.00">+ parse()</text>
<text text-anchor="start" x="150" y="-40.5" font-family="Helvetica,sans-Serif" font-size="10.00">+ codeToString()</text>
<text text-anchor="start" x="150" y="-29.5" font-family="Helvetica,sans-Serif" font-size="10.00">+ Create()</text>
<text text-anchor="start" x="150" y="-18.5" font-family="Helvetica,sans-Serif" font-size="10.00">&#45; LLPredictiveParserGenerator()</text>
<text text-anchor="start" x="150" y="-7.5" font-family="Helvetica,sans-Serif" font-size="10.00">&#45; generateParseTable()</text>
</a>
</g>
</g>
<!-- Node2 -->
<g id="node2" class="node">
<title>Node2</title>
<g id="a_node2"><a xlink:href="class_parse_gen_1_1_parser_1_1_i_parser_generator.html" target="_top" xlink:title=" ">
<polygon fill="white" stroke="black" points="0,-199 0,-311 137,-311 137,-199 0,-199"/>
<text text-anchor="start" x="8" y="-299" font-family="Helvetica,sans-Serif" font-size="10.00">ParseGen::Parser::IParser</text>
<text text-anchor="middle" x="68.5" y="-288" font-family="Helvetica,sans-Serif" font-size="10.00">Generator</text>
<polyline fill="none" stroke="black" points="0,-281 137,-281 "/>
<text text-anchor="start" x="8" y="-269" font-family="Helvetica,sans-Serif" font-size="10.00">+ bnf</text>
<text text-anchor="start" x="8" y="-258" font-family="Helvetica,sans-Serif" font-size="10.00"># language</text>
<text text-anchor="start" x="8" y="-247" font-family="Helvetica,sans-Serif" font-size="10.00"># templateSubDir</text>
<polyline fill="none" stroke="black" points="0,-240 137,-240 "/>
<text text-anchor="start" x="8" y="-228" font-family="Helvetica,sans-Serif" font-size="10.00">+ parse()</text>
<text text-anchor="start" x="8" y="-217" font-family="Helvetica,sans-Serif" font-size="10.00">+ codeToString()</text>
<text text-anchor="start" x="8" y="-206" font-family="Helvetica,sans-Serif" font-size="10.00">+ codeToFile()</text>
</a>
</g>
</g>
<!-- Node2&#45;&gt;Node1 -->
<g id="edge1" class="edge">
<title>Node2&#45;&gt;Node1</title>
<path fill="none" stroke="midnightblue" d="M124.06,-191.21C143.23,-169.54 164.67,-145.32 183.7,-123.81"/>
<polygon fill="none" stroke="midnightblue" points="121.39,-188.95 117.38,-198.75 126.63,-193.58 121.39,-188.95"/>
</g>
<!-- Node3 -->
<g id="node3" class="node">
<title>Node3</title>
<g id="a_node3"><a xlink:href="class_parse_gen_1_1_parser_1_1_l_l_predictive_parser_1_1_parser_table.html" target="_top" xlink:title=" ">
<polygon fill="white" stroke="black" points="155.5,-182.5 155.5,-327.5 319.5,-327.5 319.5,-182.5 155.5,-182.5"/>
<text text-anchor="start" x="163.5" y="-315.5" font-family="Helvetica,sans-Serif" font-size="10.00">ParseGen::Parser::LLPredictive</text>
<text text-anchor="middle" x="237.5" y="-304.5" font-family="Helvetica,sans-Serif" font-size="10.00">Parser::ParserTable</text>
<polyline fill="none" stroke="black" points="155.5,-297.5 319.5,-297.5 "/>
<text text-anchor="start" x="163.5" y="-285.5" font-family="Helvetica,sans-Serif" font-size="10.00">+ first</text>
<text text-anchor="start" x="163.5" y="-274.5" font-family="Helvetica,sans-Serif" font-size="10.00">+ follow</text>
<text text-anchor="start" x="163.5" y="-263.5" font-family="Helvetica,sans-Serif" font-size="10.00">&#45; _map</text>
<polyline fill="none" stroke="black" points="155.5,-256.5 319.5,-256.5 "/>
<text text-anchor="start" x="163.5" y="-244.5" font-family="Helvetica,sans-Serif" font-size="10.00">+ insert()</text>
<text text-anchor="start" x="163.5" y="-233.5" font-family="Helvetica,sans-Serif" font-size="10.00">+ get()</text>
<text text-anchor="start" x="163.5" y="-222.5" font-family="Helvetica,sans-Serif" font-size="10.00">+ isSynch()</text>
<text text-anchor="start" x="163.5" y="-211.5" font-family="Helvetica,sans-Serif" font-size="10.00">+ isError()</text>
<text text-anchor="start" x="163.5" y="-200.5" font-family="Helvetica,sans-Serif" font-size="10.00">+ ParserTable()</text>
<text text-anchor="start" x="163.5" y="-189.5" font-family="Helvetica,sans-Serif" font-size="10.00">+ creationCode()</text>
</a>
</g>
</g>
<!-- Node3&#45;&gt;Node1 -->
<g id="edge2" class="edge">
<title>Node3&#45;&gt;Node1</title>
<path fill="none" stroke="#404040" d="M237.5,-182.34C237.5,-167.05 237.5,-150.89 237.5,-135.58"/>
<polygon fill="none" stroke="#404040" points="237.5,-135.5 233.5,-129.5 237.5,-123.5 241.5,-129.5 237.5,-135.5"/>
<text text-anchor="middle" x="267.5" y="-145" font-family="Helvetica,sans-Serif" font-size="10.00"> &#45;parseTable</text>
</g>
<!-- Node4 -->
<g id="node4" class="node">
<title>Node4</title>
<g id="a_node4"><a xlink:href="class_parse_gen_1_1_parser_1_1_util_1_1_symbol.html" target="_top" xlink:title=" ">
<polygon fill="white" stroke="black" points="256.5,-386.5 256.5,-520.5 378.5,-520.5 378.5,-386.5 256.5,-386.5"/>
<text text-anchor="start" x="264.5" y="-508.5" font-family="Helvetica,sans-Serif" font-size="10.00">ParseGen::Parser::Util</text>
<text text-anchor="middle" x="317.5" y="-497.5" font-family="Helvetica,sans-Serif" font-size="10.00">::Symbol</text>
<polyline fill="none" stroke="black" points="256.5,-490.5 378.5,-490.5 "/>
<text text-anchor="start" x="264.5" y="-478.5" font-family="Helvetica,sans-Serif" font-size="10.00">+ name</text>
<text text-anchor="start" x="264.5" y="-467.5" font-family="Helvetica,sans-Serif" font-size="10.00"># type</text>
<polyline fill="none" stroke="black" points="256.5,-460.5 378.5,-460.5 "/>
<text text-anchor="start" x="264.5" y="-448.5" font-family="Helvetica,sans-Serif" font-size="10.00">+ Symbol()</text>
<text text-anchor="start" x="264.5" y="-437.5" font-family="Helvetica,sans-Serif" font-size="10.00">+ isEmpty()</text>
<text text-anchor="start" x="264.5" y="-426.5" font-family="Helvetica,sans-Serif" font-size="10.00">+ isNonTerminal()</text>
<text text-anchor="start" x="264.5" y="-415.5" font-family="Helvetica,sans-Serif" font-size="10.00">+ isTerminal()</text>
<text text-anchor="start" x="264.5" y="-404.5" font-family="Helvetica,sans-Serif" font-size="10.00">+ isEnd()</text>
<text text-anchor="start" x="264.5" y="-393.5" font-family="Helvetica,sans-Serif" font-size="10.00">+ getType()</text>
</a>
</g>
</g>
<!-- Node4&#45;&gt;Node3 -->
<g id="edge3" class="edge">
<title>Node4&#45;&gt;Node3</title>
<path fill="none" stroke="#404040" d="M290.53,-386.25C284.36,-371.1 277.73,-354.8 271.31,-339.05"/>
<polygon fill="none" stroke="#404040" points="271.21,-338.81 265.25,-334.76 266.69,-327.69 272.65,-331.74 271.21,-338.81"/>
<text text-anchor="middle" x="299.5" y="-360" font-family="Helvetica,sans-Serif" font-size="10.00"> +start</text>
</g>
<!-- Node5 -->
<g id="node5" class="node">
<title>Node5</title>
<g id="a_node5"><a xlink:href="class_parse_gen_1_1_parser_1_1_util_1_1_parseable_input.html" target="_top" xlink:title=" ">
<polygon fill="white" stroke="black" points="337.5,-171.5 337.5,-338.5 459.5,-338.5 459.5,-171.5 337.5,-171.5"/>
<text text-anchor="start" x="345.5" y="-326.5" font-family="Helvetica,sans-Serif" font-size="10.00">ParseGen::Parser::Util</text>
<text text-anchor="middle" x="398.5" y="-315.5" font-family="Helvetica,sans-Serif" font-size="10.00">::ParseableInput</text>
<polyline fill="none" stroke="black" points="337.5,-308.5 459.5,-308.5 "/>
<text text-anchor="start" x="345.5" y="-296.5" font-family="Helvetica,sans-Serif" font-size="10.00">+ productions</text>
<text text-anchor="start" x="345.5" y="-285.5" font-family="Helvetica,sans-Serif" font-size="10.00">+ first</text>
<text text-anchor="start" x="345.5" y="-274.5" font-family="Helvetica,sans-Serif" font-size="10.00">+ follow</text>
<polyline fill="none" stroke="black" points="337.5,-267.5 459.5,-267.5 "/>
<text text-anchor="start" x="345.5" y="-255.5" font-family="Helvetica,sans-Serif" font-size="10.00">+ ParseableInput()</text>
<text text-anchor="start" x="345.5" y="-244.5" font-family="Helvetica,sans-Serif" font-size="10.00">&#45; calcFirst()</text>
<text text-anchor="start" x="345.5" y="-233.5" font-family="Helvetica,sans-Serif" font-size="10.00">&#45; calcFirstRule()</text>
<text text-anchor="start" x="345.5" y="-222.5" font-family="Helvetica,sans-Serif" font-size="10.00">&#45; calcFollow()</text>
<text text-anchor="start" x="345.5" y="-211.5" font-family="Helvetica,sans-Serif" font-size="10.00">&#45; printRules()</text>
<text text-anchor="start" x="345.5" y="-200.5" font-family="Helvetica,sans-Serif" font-size="10.00">&#45; printFirst()</text>
<text text-anchor="start" x="345.5" y="-189.5" font-family="Helvetica,sans-Serif" font-size="10.00">&#45; printFollow()</text>
<text text-anchor="start" x="345.5" y="-178.5" font-family="Helvetica,sans-Serif" font-size="10.00">&#45; calcFollowSize()</text>
</a>
</g>
</g>
<!-- Node4&#45;&gt;Node5 -->
<g id="edge5" class="edge">
<title>Node4&#45;&gt;Node5</title>
<path fill="none" stroke="#404040" d="M344.81,-386.25C349.63,-374.56 354.72,-362.2 359.78,-349.92"/>
<polygon fill="none" stroke="#404040" points="359.84,-349.79 358.43,-342.72 364.41,-338.7 365.82,-345.77 359.84,-349.79"/>
<text text-anchor="middle" x="372.5" y="-360" font-family="Helvetica,sans-Serif" font-size="10.00"> +start</text>
</g>
<!-- Node5&#45;&gt;Node1 -->
<g id="edge4" class="edge">
<title>Node5&#45;&gt;Node1</title>
<path fill="none" stroke="#404040" d="M337.4,-181.52C323.94,-165.55 309.71,-148.67 296.35,-132.81"/>
<polygon fill="none" stroke="#404040" points="296.32,-132.78 289.4,-130.77 288.59,-123.61 295.51,-125.62 296.32,-132.78"/>
<text text-anchor="middle" x="329" y="-145" font-family="Helvetica,sans-Serif" font-size="10.00"> &#45;rules</text>
</g>
</g>
</svg>
