<?xml version="1.0" encoding="UTF-8" standalone="no"?>
<!DOCTYPE svg PUBLIC "-//W3C//DTD SVG 1.1//EN"
 "http://www.w3.org/Graphics/SVG/1.1/DTD/svg11.dtd">
<!-- Generated by graphviz version 2.43.0 (0)
 -->
<!-- Title: ParseGen::Parser::LLPredictiveParser::LLPredictiveParserGenerator::parse Pages: 1 -->
<svg width="659pt" height="530pt"
 viewBox="0.00 0.00 659.00 530.00" xmlns="http://www.w3.org/2000/svg" xmlns:xlink="http://www.w3.org/1999/xlink">
<g id="graph0" class="graph" transform="scale(1 1) rotate(0) translate(4 526)">
<title>ParseGen::Parser::LLPredictiveParser::LLPredictiveParserGenerator::parse</title>
<polygon fill="white" stroke="transparent" points="-4,4 -4,-526 655,-526 655,4 -4,4"/>
<!-- Node1 -->
<g id="node1" class="node">
<title>Node1</title>
<g id="a_node1"><a xlink:title=" ">
<polygon fill="#bfbfbf" stroke="black" points="0,-245.5 0,-275.5 224,-275.5 224,-245.5 0,-245.5"/>
<text text-anchor="start" x="8" y="-263.5" font-family="Helvetica,sans-Serif" font-size="10.00">ParseGen::Parser::LLPredictive</text>
<text text-anchor="middle" x="112" y="-252.5" font-family="Helvetica,sans-Serif" font-size="10.00">Parser::LLPredictiveParserGenerator::parse</text>
</a>
</g>
</g>
<!-- Node2 -->
<g id="node2" class="node">
<title>Node2</title>
<g id="a_node2"><a xlink:href="class_parse_gen_1_1_parser_1_1_util_1_1_node.html#a13b947f91d2eef13f6584d39d14f4d4f" target="_top" xlink:title=" ">
<polygon fill="white" stroke="black" points="294.5,-491.5 294.5,-521.5 416.5,-521.5 416.5,-491.5 294.5,-491.5"/>
<text text-anchor="start" x="302.5" y="-509.5" font-family="Helvetica,sans-Serif" font-size="10.00">ParseGen::Parser::Util</text>
<text text-anchor="middle" x="355.5" y="-498.5" font-family="Helvetica,sans-Serif" font-size="10.00">::Node::addChildren</text>
</a>
</g>
</g>
<!-- Node1&#45;&gt;Node2 -->
<g id="edge1" class="edge">
<title>Node1&#45;&gt;Node2</title>
<path fill="none" stroke="midnightblue" d="M118.57,-275.59C134.2,-315.75 182.44,-425.98 260,-481.5 267.4,-486.8 275.84,-490.97 284.57,-494.26"/>
<polygon fill="midnightblue" stroke="midnightblue" points="283.52,-497.6 294.11,-497.49 285.77,-490.97 283.52,-497.6"/>
</g>
<!-- Node4 -->
<g id="node4" class="node">
<title>Node4</title>
<g id="a_node4"><a xlink:href="class_parse_gen_1_1_parser_1_1_l_l_predictive_parser_1_1_l_l_predictive_parser_generator.html#afe52e23f20fb507400d48a4c1838b694" target="_top" xlink:title=" ">
<polygon fill="white" stroke="black" points="260,-431 260,-472 451,-472 451,-431 260,-431"/>
<text text-anchor="start" x="268" y="-460" font-family="Helvetica,sans-Serif" font-size="10.00">ParseGen::Parser::LLPredictive</text>
<text text-anchor="start" x="268" y="-449" font-family="Helvetica,sans-Serif" font-size="10.00">Parser::LLPredictiveParserGenerator</text>
<text text-anchor="middle" x="355.5" y="-438" font-family="Helvetica,sans-Serif" font-size="10.00">::generateParseTable</text>
</a>
</g>
</g>
<!-- Node1&#45;&gt;Node4 -->
<g id="edge3" class="edge">
<title>Node1&#45;&gt;Node4</title>
<path fill="none" stroke="midnightblue" d="M123.42,-275.55C145.33,-306.18 199.19,-376.23 260,-416.5 265.59,-420.2 271.62,-423.58 277.83,-426.64"/>
<polygon fill="midnightblue" stroke="midnightblue" points="276.5,-429.88 287.04,-430.91 279.44,-423.53 276.5,-429.88"/>
</g>
<!-- Node6 -->
<g id="node6" class="node">
<title>Node6</title>
<g id="a_node6"><a xlink:href="class_parse_gen_1_1_parser_1_1_l_l_predictive_parser_1_1_parser_table.html#a0c9d07697f20f52e3e54161f0d3a8fe1" target="_top" xlink:title=" ">
<polygon fill="white" stroke="black" points="487,-387.5 487,-417.5 651,-417.5 651,-387.5 487,-387.5"/>
<text text-anchor="start" x="495" y="-405.5" font-family="Helvetica,sans-Serif" font-size="10.00">ParseGen::Parser::LLPredictive</text>
<text text-anchor="middle" x="569" y="-394.5" font-family="Helvetica,sans-Serif" font-size="10.00">Parser::ParserTable::isError</text>
</a>
</g>
</g>
<!-- Node1&#45;&gt;Node6 -->
<g id="edge10" class="edge">
<title>Node1&#45;&gt;Node6</title>
<path fill="none" stroke="midnightblue" d="M125.2,-275.71C148.19,-303.08 200.96,-359.97 260,-383.5 328.95,-410.97 413.47,-414.28 476.52,-411.52"/>
<polygon fill="midnightblue" stroke="midnightblue" points="477.03,-415 486.85,-411.01 476.68,-408.01 477.03,-415"/>
</g>
<!-- Node7 -->
<g id="node7" class="node">
<title>Node7</title>
<g id="a_node7"><a xlink:href="class_parse_gen_1_1_parser_1_1_l_l_predictive_parser_1_1_parser_table.html#a20768f40ec2f769b7c74f6bbb39632bf" target="_top" xlink:title=" ">
<polygon fill="white" stroke="black" points="273.5,-343.5 273.5,-373.5 437.5,-373.5 437.5,-343.5 273.5,-343.5"/>
<text text-anchor="start" x="281.5" y="-361.5" font-family="Helvetica,sans-Serif" font-size="10.00">ParseGen::Parser::LLPredictive</text>
<text text-anchor="middle" x="355.5" y="-350.5" font-family="Helvetica,sans-Serif" font-size="10.00">Parser::ParserTable::get</text>
</a>
</g>
</g>
<!-- Node1&#45;&gt;Node7 -->
<g id="edge6" class="edge">
<title>Node1&#45;&gt;Node7</title>
<path fill="none" stroke="midnightblue" d="M138.52,-275.5C167.24,-291.87 215.7,-317.95 260,-334.5 265.78,-336.66 271.82,-338.69 277.94,-340.58"/>
<polygon fill="midnightblue" stroke="midnightblue" points="277.01,-343.96 287.59,-343.45 279,-337.25 277.01,-343.96"/>
</g>
<!-- Node8 -->
<g id="node8" class="node">
<title>Node8</title>
<g id="a_node8"><a xlink:href="class_parse_gen_1_1_parser_1_1_util_1_1_node.html#a9f6a4d36f302d5a99e02919f8e57b1b7" target="_top" xlink:title=" ">
<polygon fill="white" stroke="black" points="294.5,-294.5 294.5,-324.5 416.5,-324.5 416.5,-294.5 294.5,-294.5"/>
<text text-anchor="start" x="302.5" y="-312.5" font-family="Helvetica,sans-Serif" font-size="10.00">ParseGen::Parser::Util</text>
<text text-anchor="middle" x="355.5" y="-301.5" font-family="Helvetica,sans-Serif" font-size="10.00">::Node::getChildren</text>
</a>
</g>
</g>
<!-- Node1&#45;&gt;Node8 -->
<g id="edge7" class="edge">
<title>Node1&#45;&gt;Node8</title>
<path fill="none" stroke="midnightblue" d="M187.1,-275.53C217.99,-281.8 253.7,-289.05 284.18,-295.23"/>
<polygon fill="midnightblue" stroke="midnightblue" points="283.81,-298.73 294.3,-297.29 285.2,-291.87 283.81,-298.73"/>
</g>
<!-- Node9 -->
<g id="node9" class="node">
<title>Node9</title>
<g id="a_node9"><a xlink:href="class_parse_gen_1_1_parser_1_1_util_1_1_symbol.html#abee82169dd33dd46403dfab6406b91bf" target="_top" xlink:title=" ">
<polygon fill="white" stroke="black" points="294.5,-245.5 294.5,-275.5 416.5,-275.5 416.5,-245.5 294.5,-245.5"/>
<text text-anchor="start" x="302.5" y="-263.5" font-family="Helvetica,sans-Serif" font-size="10.00">ParseGen::Parser::Util</text>
<text text-anchor="middle" x="355.5" y="-252.5" font-family="Helvetica,sans-Serif" font-size="10.00">::Symbol::isEmpty</text>
</a>
</g>
</g>
<!-- Node1&#45;&gt;Node9 -->
<g id="edge8" class="edge">
<title>Node1&#45;&gt;Node9</title>
<path fill="none" stroke="midnightblue" d="M224.21,-260.5C244.58,-260.5 265.31,-260.5 284.07,-260.5"/>
<polygon fill="midnightblue" stroke="midnightblue" points="284.27,-264 294.27,-260.5 284.27,-257 284.27,-264"/>
</g>
<!-- Node10 -->
<g id="node10" class="node">
<title>Node10</title>
<g id="a_node10"><a xlink:href="class_parse_gen_1_1_parser_1_1_util_1_1_symbol.html#a82073c69377df2a10fd7d4350727ab73" target="_top" xlink:title=" ">
<polygon fill="white" stroke="black" points="294.5,-196.5 294.5,-226.5 416.5,-226.5 416.5,-196.5 294.5,-196.5"/>
<text text-anchor="start" x="302.5" y="-214.5" font-family="Helvetica,sans-Serif" font-size="10.00">ParseGen::Parser::Util</text>
<text text-anchor="middle" x="355.5" y="-203.5" font-family="Helvetica,sans-Serif" font-size="10.00">::Symbol::isEnd</text>
</a>
</g>
</g>
<!-- Node1&#45;&gt;Node10 -->
<g id="edge9" class="edge">
<title>Node1&#45;&gt;Node10</title>
<path fill="none" stroke="midnightblue" d="M187.1,-245.47C217.99,-239.2 253.7,-231.95 284.18,-225.77"/>
<polygon fill="midnightblue" stroke="midnightblue" points="285.2,-229.13 294.3,-223.71 283.81,-222.27 285.2,-229.13"/>
</g>
<!-- Node11 -->
<g id="node11" class="node">
<title>Node11</title>
<g id="a_node11"><a xlink:href="class_parse_gen_1_1_parser_1_1_l_l_predictive_parser_1_1_parser_table.html#a4020664d9b5119b39cea30cf2091d907" target="_top" xlink:title=" ">
<polygon fill="white" stroke="black" points="273.5,-147.5 273.5,-177.5 437.5,-177.5 437.5,-147.5 273.5,-147.5"/>
<text text-anchor="start" x="281.5" y="-165.5" font-family="Helvetica,sans-Serif" font-size="10.00">ParseGen::Parser::LLPredictive</text>
<text text-anchor="middle" x="355.5" y="-154.5" font-family="Helvetica,sans-Serif" font-size="10.00">Parser::ParserTable::isSynch</text>
</a>
</g>
</g>
<!-- Node1&#45;&gt;Node11 -->
<g id="edge11" class="edge">
<title>Node1&#45;&gt;Node11</title>
<path fill="none" stroke="midnightblue" d="M138.52,-245.5C167.24,-229.13 215.7,-203.05 260,-186.5 265.78,-184.34 271.82,-182.31 277.94,-180.42"/>
<polygon fill="midnightblue" stroke="midnightblue" points="279,-183.75 287.59,-177.55 277.01,-177.04 279,-183.75"/>
</g>
<!-- Node12 -->
<g id="node12" class="node">
<title>Node12</title>
<g id="a_node12"><a xlink:href="class_parse_gen_1_1_parser_1_1_util_1_1_symbol.html#a49004cbef803410ccc3a616a8ea6e628" target="_top" xlink:title=" ">
<polygon fill="white" stroke="black" points="294.5,-98.5 294.5,-128.5 416.5,-128.5 416.5,-98.5 294.5,-98.5"/>
<text text-anchor="start" x="302.5" y="-116.5" font-family="Helvetica,sans-Serif" font-size="10.00">ParseGen::Parser::Util</text>
<text text-anchor="middle" x="355.5" y="-105.5" font-family="Helvetica,sans-Serif" font-size="10.00">::Symbol::isTerminal</text>
</a>
</g>
</g>
<!-- Node1&#45;&gt;Node12 -->
<g id="edge13" class="edge">
<title>Node1&#45;&gt;Node12</title>
<path fill="none" stroke="midnightblue" d="M126.82,-245.1C151.13,-218.97 204.3,-165.98 260,-137.5 267.66,-133.58 276.01,-130.27 284.47,-127.48"/>
<polygon fill="midnightblue" stroke="midnightblue" points="285.5,-130.83 294.04,-124.55 283.45,-124.14 285.5,-130.83"/>
</g>
<!-- Node13 -->
<g id="node13" class="node">
<title>Node13</title>
<g id="a_node13"><a xlink:href="class_parse_gen_1_1_parser_1_1_l_l_predictive_parser_1_1_lexer.html#a5767230d1804ecd619979535f5ba65e8" target="_top" xlink:title=" ">
<polygon fill="white" stroke="black" points="273.5,-49.5 273.5,-79.5 437.5,-79.5 437.5,-49.5 273.5,-49.5"/>
<text text-anchor="start" x="281.5" y="-67.5" font-family="Helvetica,sans-Serif" font-size="10.00">ParseGen::Parser::LLPredictive</text>
<text text-anchor="middle" x="355.5" y="-56.5" font-family="Helvetica,sans-Serif" font-size="10.00">Parser::Lexer::next</text>
</a>
</g>
</g>
<!-- Node1&#45;&gt;Node13 -->
<g id="edge14" class="edge">
<title>Node1&#45;&gt;Node13</title>
<path fill="none" stroke="midnightblue" d="M121.45,-245.36C141.09,-211.63 193.28,-129.98 260,-88.5 262.65,-86.86 265.4,-85.32 268.23,-83.9"/>
<polygon fill="midnightblue" stroke="midnightblue" points="269.85,-87 277.51,-79.68 266.96,-80.63 269.85,-87"/>
</g>
<!-- Node14 -->
<g id="node14" class="node">
<title>Node14</title>
<g id="a_node14"><a xlink:href="struct_parse_gen_1_1_parser_1_1_l_l_predictive_parser_1_1_token.html#a2b97d8670030028c8250ee87fa5919df" target="_top" xlink:title=" ">
<polygon fill="white" stroke="black" points="273.5,-0.5 273.5,-30.5 437.5,-30.5 437.5,-0.5 273.5,-0.5"/>
<text text-anchor="start" x="281.5" y="-18.5" font-family="Helvetica,sans-Serif" font-size="10.00">ParseGen::Parser::LLPredictive</text>
<text text-anchor="middle" x="355.5" y="-7.5" font-family="Helvetica,sans-Serif" font-size="10.00">Parser::Token::posStr</text>
</a>
</g>
</g>
<!-- Node1&#45;&gt;Node14 -->
<g id="edge15" class="edge">
<title>Node1&#45;&gt;Node14</title>
<path fill="none" stroke="midnightblue" d="M118.54,-245.37C134.09,-205.1 182.16,-94.63 260,-39.5 262.12,-38 264.32,-36.6 266.58,-35.28"/>
<polygon fill="midnightblue" stroke="midnightblue" points="268.34,-38.31 275.63,-30.62 265.13,-32.09 268.34,-38.31"/>
</g>
<!-- Node3 -->
<g id="node3" class="node">
<title>Node3</title>
<g id="a_node3"><a xlink:href="class_parse_gen_1_1_parser_1_1_util_1_1_node.html#a1a3c8212b87ec8be202a8baee2edc523" target="_top" xlink:title=" ">
<polygon fill="white" stroke="black" points="508,-491.5 508,-521.5 630,-521.5 630,-491.5 508,-491.5"/>
<text text-anchor="start" x="516" y="-509.5" font-family="Helvetica,sans-Serif" font-size="10.00">ParseGen::Parser::Util</text>
<text text-anchor="middle" x="569" y="-498.5" font-family="Helvetica,sans-Serif" font-size="10.00">::Node::Node</text>
</a>
</g>
</g>
<!-- Node2&#45;&gt;Node3 -->
<g id="edge2" class="edge">
<title>Node2&#45;&gt;Node3</title>
<path fill="none" stroke="midnightblue" d="M416.54,-506.5C441.77,-506.5 471.3,-506.5 497.55,-506.5"/>
<polygon fill="midnightblue" stroke="midnightblue" points="497.81,-510 507.81,-506.5 497.81,-503 497.81,-510"/>
</g>
<!-- Node5 -->
<g id="node5" class="node">
<title>Node5</title>
<g id="a_node5"><a xlink:href="class_parse_gen_1_1_parser_1_1_l_l_predictive_parser_1_1_parser_table.html#a4e54f87b191b06ff0d48492ceac3644b" target="_top" xlink:title=" ">
<polygon fill="white" stroke="black" points="487,-436.5 487,-466.5 651,-466.5 651,-436.5 487,-436.5"/>
<text text-anchor="start" x="495" y="-454.5" font-family="Helvetica,sans-Serif" font-size="10.00">ParseGen::Parser::LLPredictive</text>
<text text-anchor="middle" x="569" y="-443.5" font-family="Helvetica,sans-Serif" font-size="10.00">Parser::ParserTable::insert</text>
</a>
</g>
</g>
<!-- Node4&#45;&gt;Node5 -->
<g id="edge4" class="edge">
<title>Node4&#45;&gt;Node5</title>
<path fill="none" stroke="midnightblue" d="M451.12,-451.5C459.56,-451.5 468.1,-451.5 476.52,-451.5"/>
<polygon fill="midnightblue" stroke="midnightblue" points="476.71,-455 486.71,-451.5 476.71,-448 476.71,-455"/>
</g>
<!-- Node4&#45;&gt;Node6 -->
<g id="edge5" class="edge">
<title>Node4&#45;&gt;Node6</title>
<path fill="none" stroke="midnightblue" d="M445.28,-430.93C461.23,-427.24 477.7,-423.42 493.21,-419.83"/>
<polygon fill="midnightblue" stroke="midnightblue" points="494.29,-423.17 503.24,-417.5 492.71,-416.35 494.29,-423.17"/>
</g>
<!-- Node11&#45;&gt;Node6 -->
<g id="edge12" class="edge">
<title>Node11&#45;&gt;Node6</title>
<path fill="none" stroke="midnightblue" d="M436.66,-177.59C441.75,-180.12 446.59,-183.07 451,-186.5 515.33,-236.59 548.83,-332.32 561.67,-377.6"/>
<polygon fill="midnightblue" stroke="midnightblue" points="558.35,-378.74 564.36,-387.46 565.1,-376.9 558.35,-378.74"/>
</g>
</g>
</svg>
