<?xml version="1.0" encoding="UTF-8" standalone="no"?>
<!DOCTYPE svg PUBLIC "-//W3C//DTD SVG 1.1//EN"
 "http://www.w3.org/Graphics/SVG/1.1/DTD/svg11.dtd">
<!-- Generated by graphviz version 2.43.0 (0)
 -->
<!-- Title: ParseGen::GUI::ParseTree::Renderer::firstWalk Pages: 1 -->
<svg width="830pt" height="302pt"
 viewBox="0.00 0.00 830.00 302.00" xmlns="http://www.w3.org/2000/svg" xmlns:xlink="http://www.w3.org/1999/xlink">
<g id="graph0" class="graph" transform="scale(1 1) rotate(0) translate(4 298)">
<title>ParseGen::GUI::ParseTree::Renderer::firstWalk</title>
<polygon fill="white" stroke="transparent" points="-4,4 -4,-298 826,-298 826,4 -4,4"/>
<!-- Node1 -->
<g id="node1" class="node">
<title>Node1</title>
<g id="a_node1"><a xlink:title=" ">
<polygon fill="#bfbfbf" stroke="black" points="0,-104.5 0,-134.5 139,-134.5 139,-104.5 0,-104.5"/>
<text text-anchor="start" x="8" y="-122.5" font-family="Helvetica,sans-Serif" font-size="10.00">ParseGen::GUI::ParseTree</text>
<text text-anchor="middle" x="69.5" y="-111.5" font-family="Helvetica,sans-Serif" font-size="10.00">::Renderer::firstWalk</text>
</a>
</g>
</g>
<!-- Node2 -->
<g id="node2" class="node">
<title>Node2</title>
<g id="a_node2"><a xlink:href="class_parse_gen_1_1_g_u_i_1_1_parse_tree_1_1_renderer.html#a1ec1420e7fd1ee44109571b9ffe9dfd2" target="_top" xlink:title=" ">
<polygon fill="white" stroke="black" points="175,-170.5 175,-200.5 314,-200.5 314,-170.5 175,-170.5"/>
<text text-anchor="start" x="183" y="-188.5" font-family="Helvetica,sans-Serif" font-size="10.00">ParseGen::GUI::ParseTree</text>
<text text-anchor="middle" x="244.5" y="-177.5" font-family="Helvetica,sans-Serif" font-size="10.00">::Renderer::apportion</text>
</a>
</g>
</g>
<!-- Node1&#45;&gt;Node2 -->
<g id="edge1" class="edge">
<title>Node1&#45;&gt;Node2</title>
<path fill="none" stroke="midnightblue" d="M110.19,-134.64C135.24,-144.2 167.8,-156.62 194.46,-166.79"/>
<polygon fill="midnightblue" stroke="midnightblue" points="193.4,-170.13 203.99,-170.43 195.9,-163.59 193.4,-170.13"/>
</g>
<!-- Node4 -->
<g id="node4" class="node">
<title>Node4</title>
<g id="a_node4"><a xlink:href="class_parse_gen_1_1_parser_1_1_util_1_1_node.html#a9f6a4d36f302d5a99e02919f8e57b1b7" target="_top" xlink:title=" ">
<polygon fill="white" stroke="black" points="700,-145.5 700,-175.5 822,-175.5 822,-145.5 700,-145.5"/>
<text text-anchor="start" x="708" y="-163.5" font-family="Helvetica,sans-Serif" font-size="10.00">ParseGen::Parser::Util</text>
<text text-anchor="middle" x="761" y="-152.5" font-family="Helvetica,sans-Serif" font-size="10.00">::Node::getChildren</text>
</a>
</g>
</g>
<!-- Node1&#45;&gt;Node4 -->
<g id="edge13" class="edge">
<title>Node1&#45;&gt;Node4</title>
<path fill="none" stroke="midnightblue" d="M139.13,-118.56C195.71,-117.83 278.06,-116.89 350,-116.5 411.78,-116.17 427.42,-111.6 489,-116.5 567.52,-122.74 586.26,-131.8 664,-144.5 672.33,-145.86 681.06,-147.3 689.73,-148.73"/>
<polygon fill="midnightblue" stroke="midnightblue" points="689.4,-152.23 699.84,-150.41 690.55,-145.32 689.4,-152.23"/>
</g>
<!-- Node5 -->
<g id="node5" class="node">
<title>Node5</title>
<g id="a_node5"><a xlink:href="class_parse_gen_1_1_parser_1_1_util_1_1_node.html#afbbbd132c124231845cb87dce14734d2" target="_top" xlink:title=" ">
<polygon fill="white" stroke="black" points="358.5,-263.5 358.5,-293.5 480.5,-293.5 480.5,-263.5 358.5,-263.5"/>
<text text-anchor="start" x="366.5" y="-281.5" font-family="Helvetica,sans-Serif" font-size="10.00">ParseGen::Parser::Util</text>
<text text-anchor="middle" x="419.5" y="-270.5" font-family="Helvetica,sans-Serif" font-size="10.00">::Node::leftBrother</text>
</a>
</g>
</g>
<!-- Node1&#45;&gt;Node5 -->
<g id="edge15" class="edge">
<title>Node1&#45;&gt;Node5</title>
<path fill="none" stroke="midnightblue" d="M83.86,-134.53C102.41,-154.48 137.89,-189.54 175,-209.5 229.69,-238.92 298.2,-256.89 348.62,-267.08"/>
<polygon fill="midnightblue" stroke="midnightblue" points="347.96,-270.52 358.45,-269.01 349.31,-263.65 347.96,-270.52"/>
</g>
<!-- Node6 -->
<g id="node6" class="node">
<title>Node6</title>
<g id="a_node6"><a xlink:href="class_parse_gen_1_1_parser_1_1_util_1_1_node.html#ae7d9ec153e19801696a5b748983e2bb9" target="_top" xlink:title=" ">
<polygon fill="white" stroke="black" points="355.5,-126.5 355.5,-156.5 483.5,-156.5 483.5,-126.5 355.5,-126.5"/>
<text text-anchor="start" x="363.5" y="-144.5" font-family="Helvetica,sans-Serif" font-size="10.00">ParseGen::Parser::Util</text>
<text text-anchor="middle" x="419.5" y="-133.5" font-family="Helvetica,sans-Serif" font-size="10.00">::Node::leftmostSibling</text>
</a>
</g>
</g>
<!-- Node1&#45;&gt;Node6 -->
<g id="edge16" class="edge">
<title>Node1&#45;&gt;Node6</title>
<path fill="none" stroke="midnightblue" d="M139.25,-123.85C198.71,-127.6 284.41,-133.02 345.17,-136.86"/>
<polygon fill="midnightblue" stroke="midnightblue" points="345.25,-140.38 355.45,-137.51 345.69,-133.39 345.25,-140.38"/>
</g>
<!-- Node9 -->
<g id="node9" class="node">
<title>Node9</title>
<g id="a_node9"><a xlink:href="class_parse_gen_1_1_g_u_i_1_1_parse_tree_1_1_renderer.html#ae4290efcf6d563e34bed71e13794008d" target="_top" xlink:title=" ">
<polygon fill="white" stroke="black" points="525,-38.5 525,-68.5 664,-68.5 664,-38.5 525,-38.5"/>
<text text-anchor="start" x="533" y="-56.5" font-family="Helvetica,sans-Serif" font-size="10.00">ParseGen::GUI::ParseTree</text>
<text text-anchor="middle" x="594.5" y="-45.5" font-family="Helvetica,sans-Serif" font-size="10.00">::Renderer::executeShifts</text>
</a>
</g>
</g>
<!-- Node1&#45;&gt;Node9 -->
<g id="edge11" class="edge">
<title>Node1&#45;&gt;Node9</title>
<path fill="none" stroke="midnightblue" d="M106.6,-104.46C126.44,-96.86 151.69,-88.27 175,-83.5 291.76,-59.63 430.2,-54.02 514.93,-53.07"/>
<polygon fill="midnightblue" stroke="midnightblue" points="515.02,-56.57 524.99,-52.98 514.96,-49.57 515.02,-56.57"/>
</g>
<!-- Node10 -->
<g id="node10" class="node">
<title>Node10</title>
<g id="a_node10"><a xlink:href="class_parse_gen_1_1_parser_1_1_util_1_1_node.html#a01741e0c2ffacf157d126a9a75fddce7" target="_top" xlink:title=" ">
<polygon fill="white" stroke="black" points="183.5,-0.5 183.5,-30.5 305.5,-30.5 305.5,-0.5 183.5,-0.5"/>
<text text-anchor="start" x="191.5" y="-18.5" font-family="Helvetica,sans-Serif" font-size="10.00">ParseGen::Parser::Util</text>
<text text-anchor="middle" x="244.5" y="-7.5" font-family="Helvetica,sans-Serif" font-size="10.00">::Node::isLeaf</text>
</a>
</g>
</g>
<!-- Node1&#45;&gt;Node10 -->
<g id="edge14" class="edge">
<title>Node1&#45;&gt;Node10</title>
<path fill="none" stroke="midnightblue" d="M89.36,-104.36C109.72,-88.46 143.45,-63.33 175,-45.5 181.75,-41.68 189.09,-38.01 196.36,-34.63"/>
<polygon fill="midnightblue" stroke="midnightblue" points="197.82,-37.81 205.5,-30.51 194.95,-31.43 197.82,-37.81"/>
</g>
<!-- Node3 -->
<g id="node3" class="node">
<title>Node3</title>
<g id="a_node3"><a xlink:href="class_parse_gen_1_1_g_u_i_1_1_parse_tree_1_1_renderer.html#ab05b5f4e1d932c0d1f40e58b1356a356" target="_top" xlink:title=" ">
<polygon fill="white" stroke="black" points="525,-167.5 525,-197.5 664,-197.5 664,-167.5 525,-167.5"/>
<text text-anchor="start" x="533" y="-185.5" font-family="Helvetica,sans-Serif" font-size="10.00">ParseGen::GUI::ParseTree</text>
<text text-anchor="middle" x="594.5" y="-174.5" font-family="Helvetica,sans-Serif" font-size="10.00">::Renderer::ancestor</text>
</a>
</g>
</g>
<!-- Node2&#45;&gt;Node3 -->
<g id="edge2" class="edge">
<title>Node2&#45;&gt;Node3</title>
<path fill="none" stroke="midnightblue" d="M314.25,-184.91C371.93,-184.41 454.31,-183.7 514.65,-183.18"/>
<polygon fill="midnightblue" stroke="midnightblue" points="514.92,-186.68 524.89,-183.09 514.86,-179.68 514.92,-186.68"/>
</g>
<!-- Node2&#45;&gt;Node5 -->
<g id="edge4" class="edge">
<title>Node2&#45;&gt;Node5</title>
<path fill="none" stroke="midnightblue" d="M265.04,-200.53C285.39,-215.67 318.64,-238.95 350,-254.5 353.58,-256.28 357.33,-257.98 361.14,-259.6"/>
<polygon fill="midnightblue" stroke="midnightblue" points="360.12,-262.97 370.71,-263.46 362.74,-256.48 360.12,-262.97"/>
</g>
<!-- Node2&#45;&gt;Node6 -->
<g id="edge6" class="edge">
<title>Node2&#45;&gt;Node6</title>
<path fill="none" stroke="midnightblue" d="M304.55,-170.48C319.09,-166.78 334.77,-162.79 349.72,-158.99"/>
<polygon fill="midnightblue" stroke="midnightblue" points="350.59,-162.38 359.42,-156.53 348.87,-155.6 350.59,-162.38"/>
</g>
<!-- Node7 -->
<g id="node7" class="node">
<title>Node7</title>
<g id="a_node7"><a xlink:href="class_parse_gen_1_1_g_u_i_1_1_parse_tree_1_1_renderer.html#a423a8b985db786b9b1be9fbfaeeb1a85" target="_top" xlink:title=" ">
<polygon fill="white" stroke="black" points="350,-214.5 350,-244.5 489,-244.5 489,-214.5 350,-214.5"/>
<text text-anchor="start" x="358" y="-232.5" font-family="Helvetica,sans-Serif" font-size="10.00">ParseGen::GUI::ParseTree</text>
<text text-anchor="middle" x="419.5" y="-221.5" font-family="Helvetica,sans-Serif" font-size="10.00">::Renderer::moveSubtree</text>
</a>
</g>
</g>
<!-- Node2&#45;&gt;Node7 -->
<g id="edge8" class="edge">
<title>Node2&#45;&gt;Node7</title>
<path fill="none" stroke="midnightblue" d="M304.55,-200.52C319.09,-204.22 334.77,-208.21 349.72,-212.01"/>
<polygon fill="midnightblue" stroke="midnightblue" points="348.87,-215.4 359.42,-214.47 350.59,-208.62 348.87,-215.4"/>
</g>
<!-- Node3&#45;&gt;Node4 -->
<g id="edge3" class="edge">
<title>Node3&#45;&gt;Node4</title>
<path fill="none" stroke="midnightblue" d="M664.31,-173.3C672.7,-172.18 681.28,-171.03 689.68,-169.9"/>
<polygon fill="midnightblue" stroke="midnightblue" points="690.39,-173.34 699.83,-168.55 689.46,-166.4 690.39,-173.34"/>
</g>
<!-- Node5&#45;&gt;Node4 -->
<g id="edge5" class="edge">
<title>Node5&#45;&gt;Node4</title>
<path fill="none" stroke="midnightblue" d="M480.74,-284.16C531.91,-286.43 606.05,-283.62 664,-256.5 698.26,-240.46 727.3,-206.8 744.19,-183.92"/>
<polygon fill="midnightblue" stroke="midnightblue" points="747.08,-185.9 750.06,-175.73 741.39,-181.82 747.08,-185.9"/>
</g>
<!-- Node6&#45;&gt;Node4 -->
<g id="edge7" class="edge">
<title>Node6&#45;&gt;Node4</title>
<path fill="none" stroke="midnightblue" d="M483.56,-145.03C542.02,-148.3 628.87,-153.16 689.58,-156.56"/>
<polygon fill="midnightblue" stroke="midnightblue" points="689.66,-160.07 699.84,-157.13 690.05,-153.08 689.66,-160.07"/>
</g>
<!-- Node8 -->
<g id="node8" class="node">
<title>Node8</title>
<g id="a_node8"><a xlink:href="class_parse_gen_1_1_parser_1_1_util_1_1_node.html#af01131ce359e0751d7c449a163fd9336" target="_top" xlink:title=" ">
<polygon fill="white" stroke="black" points="533.5,-216.5 533.5,-246.5 655.5,-246.5 655.5,-216.5 533.5,-216.5"/>
<text text-anchor="start" x="541.5" y="-234.5" font-family="Helvetica,sans-Serif" font-size="10.00">ParseGen::Parser::Util</text>
<text text-anchor="middle" x="594.5" y="-223.5" font-family="Helvetica,sans-Serif" font-size="10.00">::Node::number</text>
</a>
</g>
</g>
<!-- Node7&#45;&gt;Node8 -->
<g id="edge9" class="edge">
<title>Node7&#45;&gt;Node8</title>
<path fill="none" stroke="midnightblue" d="M489.37,-230.3C500.48,-230.42 512,-230.56 523.14,-230.69"/>
<polygon fill="midnightblue" stroke="midnightblue" points="523.21,-234.19 533.25,-230.8 523.29,-227.19 523.21,-234.19"/>
</g>
<!-- Node8&#45;&gt;Node4 -->
<g id="edge10" class="edge">
<title>Node8&#45;&gt;Node4</title>
<path fill="none" stroke="midnightblue" d="M638.87,-216.39C647.26,-213.27 655.95,-209.89 664,-206.5 683.12,-198.45 703.92,-188.62 721.26,-180.12"/>
<polygon fill="midnightblue" stroke="midnightblue" points="723.09,-183.12 730.5,-175.55 719.99,-176.84 723.09,-183.12"/>
</g>
<!-- Node9&#45;&gt;Node4 -->
<g id="edge12" class="edge">
<title>Node9&#45;&gt;Node4</title>
<path fill="none" stroke="midnightblue" d="M634.8,-68.6C644.59,-72.93 654.89,-77.99 664,-83.5 690.55,-99.57 717.87,-122.19 736.55,-138.76"/>
<polygon fill="midnightblue" stroke="midnightblue" points="734.22,-141.37 744,-145.45 738.9,-136.16 734.22,-141.37"/>
</g>
</g>
</svg>
