<?xml version="1.0" encoding="UTF-8" standalone="no"?>
<!DOCTYPE svg PUBLIC "-//W3C//DTD SVG 1.1//EN"
 "http://www.w3.org/Graphics/SVG/1.1/DTD/svg11.dtd">
<!-- Generated by graphviz version 2.43.0 (0)
 -->
<!-- Title: ParseGen::Parser::ParserGeneratorFactory::Get Pages: 1 -->
<svg width="1163pt" height="176pt"
 viewBox="0.00 0.00 1163.00 176.00" xmlns="http://www.w3.org/2000/svg" xmlns:xlink="http://www.w3.org/1999/xlink">
<g id="graph0" class="graph" transform="scale(1 1) rotate(0) translate(4 172)">
<title>ParseGen::Parser::ParserGeneratorFactory::Get</title>
<polygon fill="white" stroke="transparent" points="-4,4 -4,-172 1159,-172 1159,4 -4,4"/>
<!-- Node1 -->
<g id="node1" class="node">
<title>Node1</title>
<g id="a_node1"><a xlink:title=" ">
<polygon fill="#bfbfbf" stroke="black" points="1021,-71.5 1021,-101.5 1155,-101.5 1155,-71.5 1021,-71.5"/>
<text text-anchor="start" x="1029" y="-89.5" font-family="Helvetica,sans-Serif" font-size="10.00">ParseGen::Parser::Parser</text>
<text text-anchor="middle" x="1088" y="-78.5" font-family="Helvetica,sans-Serif" font-size="10.00">GeneratorFactory::Get</text>
</a>
</g>
</g>
<!-- Node2 -->
<g id="node2" class="node">
<title>Node2</title>
<g id="a_node2"><a xlink:href="class_parse_gen_1_1_parser_1_1_parser_generator_factory.html#afa1ed5ce57448b5f8e854e303c171889" target="_top" xlink:title=" ">
<polygon fill="white" stroke="black" points="824,-137.5 824,-167.5 962,-167.5 962,-137.5 824,-137.5"/>
<text text-anchor="start" x="832" y="-155.5" font-family="Helvetica,sans-Serif" font-size="10.00">ParseGen::Parser::Parser</text>
<text text-anchor="middle" x="893" y="-144.5" font-family="Helvetica,sans-Serif" font-size="10.00">GeneratorFactory::Create</text>
</a>
</g>
</g>
<!-- Node1&#45;&gt;Node2 -->
<g id="edge1" class="edge">
<title>Node1&#45;&gt;Node2</title>
<path fill="none" stroke="midnightblue" d="M1035.14,-105.04C1019.09,-110.71 1001.34,-116.92 985,-122.5 970.52,-127.44 954.69,-132.71 940.36,-137.42"/>
<polygon fill="midnightblue" stroke="midnightblue" points="1036.63,-108.22 1044.89,-101.59 1034.29,-101.63 1036.63,-108.22"/>
</g>
<!-- Node4 -->
<g id="node4" class="node">
<title>Node4</title>
<g id="a_node4"><a xlink:href="class_parse_gen_1_1_g_u_i_1_1_main_editor.html#ae50424eb009179d7c6942550e3ec7a9a" target="_top" xlink:title=" ">
<polygon fill="white" stroke="black" points="439,-115.5 439,-145.5 584,-145.5 584,-115.5 439,-115.5"/>
<text text-anchor="start" x="447" y="-133.5" font-family="Helvetica,sans-Serif" font-size="10.00">ParseGen::GUI::MainEditor</text>
<text text-anchor="middle" x="511.5" y="-122.5" font-family="Helvetica,sans-Serif" font-size="10.00">::ruleTesterWindow</text>
</a>
</g>
</g>
<!-- Node1&#45;&gt;Node4 -->
<g id="edge8" class="edge">
<title>Node1&#45;&gt;Node4</title>
<path fill="none" stroke="midnightblue" d="M1010.65,-92.35C899.14,-100.89 693.16,-116.66 584.29,-125"/>
<polygon fill="midnightblue" stroke="midnightblue" points="1011.11,-95.82 1020.82,-91.57 1010.58,-88.84 1011.11,-95.82"/>
</g>
<!-- Node8 -->
<g id="node8" class="node">
<title>Node8</title>
<g id="a_node8"><a xlink:href="class_parse_gen_1_1_parser_1_1_parser_generator_factory.html#a086e0f8c712c389dc9b94c683b1f5f33" target="_top" xlink:title=" ">
<polygon fill="white" stroke="black" points="801,-49.5 801,-79.5 985,-79.5 985,-49.5 801,-49.5"/>
<text text-anchor="start" x="809" y="-67.5" font-family="Helvetica,sans-Serif" font-size="10.00">ParseGen::Parser::Parser</text>
<text text-anchor="middle" x="893" y="-56.5" font-family="Helvetica,sans-Serif" font-size="10.00">GeneratorFactory::GetOutputTypes</text>
</a>
</g>
</g>
<!-- Node1&#45;&gt;Node8 -->
<g id="edge7" class="edge">
<title>Node1&#45;&gt;Node8</title>
<path fill="none" stroke="midnightblue" d="M1010.77,-77.81C1002.41,-76.86 993.83,-75.88 985.31,-74.91"/>
<polygon fill="midnightblue" stroke="midnightblue" points="1010.52,-81.3 1020.85,-78.96 1011.31,-74.35 1010.52,-81.3"/>
</g>
<!-- Node9 -->
<g id="node9" class="node">
<title>Node9</title>
<g id="a_node9"><a xlink:href="class_parse_gen_1_1_parser_1_1_parser_generator_factory.html#a9074b757423d82d9c6725264ae2704ef" target="_top" xlink:title=" ">
<polygon fill="white" stroke="black" points="826,-0.5 826,-30.5 960,-30.5 960,-0.5 826,-0.5"/>
<text text-anchor="start" x="834" y="-18.5" font-family="Helvetica,sans-Serif" font-size="10.00">ParseGen::Parser::Parser</text>
<text text-anchor="middle" x="893" y="-7.5" font-family="Helvetica,sans-Serif" font-size="10.00">GeneratorFactory::Size</text>
</a>
</g>
</g>
<!-- Node1&#45;&gt;Node9 -->
<g id="edge9" class="edge">
<title>Node1&#45;&gt;Node9</title>
<path fill="none" stroke="midnightblue" d="M1048.53,-66.84C1029.7,-57.73 1006.51,-47.22 985,-39.5 976.08,-36.3 966.53,-33.31 957.1,-30.61"/>
<polygon fill="midnightblue" stroke="midnightblue" points="1047.15,-70.07 1057.67,-71.33 1050.23,-63.78 1047.15,-70.07"/>
</g>
<!-- Node3 -->
<g id="node3" class="node">
<title>Node3</title>
<g id="a_node3"><a xlink:href="class_parse_gen_1_1_g_u_i_1_1_main_editor.html#a375e7fc2018957b0d42313a9d87bb952" target="_top" xlink:title=" ">
<polygon fill="white" stroke="black" points="620,-137.5 620,-167.5 765,-167.5 765,-137.5 620,-137.5"/>
<text text-anchor="start" x="628" y="-155.5" font-family="Helvetica,sans-Serif" font-size="10.00">ParseGen::GUI::MainEditor</text>
<text text-anchor="middle" x="692.5" y="-144.5" font-family="Helvetica,sans-Serif" font-size="10.00">::processRules</text>
</a>
</g>
</g>
<!-- Node2&#45;&gt;Node3 -->
<g id="edge2" class="edge">
<title>Node2&#45;&gt;Node3</title>
<path fill="none" stroke="midnightblue" d="M813.6,-152.5C797.62,-152.5 780.89,-152.5 765.17,-152.5"/>
<polygon fill="midnightblue" stroke="midnightblue" points="813.97,-156 823.97,-152.5 813.97,-149 813.97,-156"/>
</g>
<!-- Node3&#45;&gt;Node4 -->
<g id="edge3" class="edge">
<title>Node3&#45;&gt;Node4</title>
<path fill="none" stroke="midnightblue" d="M609.96,-142.48C601.36,-141.42 592.67,-140.35 584.2,-139.31"/>
<polygon fill="midnightblue" stroke="midnightblue" points="609.63,-145.96 619.98,-143.71 610.48,-139.02 609.63,-145.96"/>
</g>
<!-- Node5 -->
<g id="node5" class="node">
<title>Node5</title>
<g id="a_node5"><a xlink:href="class_parse_gen_1_1_g_u_i_1_1_main_editor.html#a8cb7930ca709c3de86c173bb8ad29bd1" target="_top" xlink:title=" ">
<polygon fill="white" stroke="black" points="258,-115.5 258,-145.5 403,-145.5 403,-115.5 258,-115.5"/>
<text text-anchor="start" x="266" y="-133.5" font-family="Helvetica,sans-Serif" font-size="10.00">ParseGen::GUI::MainEditor</text>
<text text-anchor="middle" x="330.5" y="-122.5" font-family="Helvetica,sans-Serif" font-size="10.00">::RenderFrame</text>
</a>
</g>
</g>
<!-- Node4&#45;&gt;Node5 -->
<g id="edge4" class="edge">
<title>Node4&#45;&gt;Node5</title>
<path fill="none" stroke="midnightblue" d="M428.96,-130.5C420.36,-130.5 411.67,-130.5 403.2,-130.5"/>
<polygon fill="midnightblue" stroke="midnightblue" points="428.98,-134 438.98,-130.5 428.98,-127 428.98,-134"/>
</g>
<!-- Node6 -->
<g id="node6" class="node">
<title>Node6</title>
<g id="a_node6"><a xlink:href="class_parse_gen_1_1_g_u_i_1_1_main_editor.html#a79634f787b0d0c3f00a4a1d78fb69677" target="_top" xlink:title=" ">
<polygon fill="white" stroke="black" points="77,-115.5 77,-145.5 222,-145.5 222,-115.5 77,-115.5"/>
<text text-anchor="start" x="85" y="-133.5" font-family="Helvetica,sans-Serif" font-size="10.00">ParseGen::GUI::MainEditor</text>
<text text-anchor="middle" x="149.5" y="-122.5" font-family="Helvetica,sans-Serif" font-size="10.00">::Start</text>
</a>
</g>
</g>
<!-- Node5&#45;&gt;Node6 -->
<g id="edge5" class="edge">
<title>Node5&#45;&gt;Node6</title>
<path fill="none" stroke="midnightblue" d="M247.96,-130.5C239.36,-130.5 230.67,-130.5 222.2,-130.5"/>
<polygon fill="midnightblue" stroke="midnightblue" points="247.98,-134 257.98,-130.5 247.98,-127 247.98,-134"/>
</g>
<!-- Node7 -->
<g id="node7" class="node">
<title>Node7</title>
<g id="a_node7"><a xlink:href="main_8cpp.html#ae66f6b31b5ad750f1fe042a706a4e3d4" target="_top" xlink:title=" ">
<polygon fill="white" stroke="black" points="0,-121 0,-140 41,-140 41,-121 0,-121"/>
<text text-anchor="middle" x="20.5" y="-128" font-family="Helvetica,sans-Serif" font-size="10.00">main</text>
</a>
</g>
</g>
<!-- Node6&#45;&gt;Node7 -->
<g id="edge6" class="edge">
<title>Node6&#45;&gt;Node7</title>
<path fill="none" stroke="midnightblue" d="M66.79,-130.5C57.31,-130.5 48.43,-130.5 41.08,-130.5"/>
<polygon fill="midnightblue" stroke="midnightblue" points="66.83,-134 76.83,-130.5 66.83,-127 66.83,-134"/>
</g>
</g>
</svg>
