<?xml version="1.0" encoding="UTF-8" standalone="no"?>
<!DOCTYPE svg PUBLIC "-//W3C//DTD SVG 1.1//EN"
 "http://www.w3.org/Graphics/SVG/1.1/DTD/svg11.dtd">
<!-- Generated by graphviz version 2.43.0 (0)
 -->
<!-- Title: ParseGen::Parser::Util::Symbol::isTerminal Pages: 1 -->
<svg width="565pt" height="137pt"
 viewBox="0.00 0.00 565.00 137.00" xmlns="http://www.w3.org/2000/svg" xmlns:xlink="http://www.w3.org/1999/xlink">
<g id="graph0" class="graph" transform="scale(1 1) rotate(0) translate(4 133)">
<title>ParseGen::Parser::Util::Symbol::isTerminal</title>
<polygon fill="white" stroke="transparent" points="-4,4 -4,-133 561,-133 561,4 -4,4"/>
<!-- Node1 -->
<g id="node1" class="node">
<title>Node1</title>
<g id="a_node1"><a xlink:title=" ">
<polygon fill="#bfbfbf" stroke="black" points="435,-49.5 435,-79.5 557,-79.5 557,-49.5 435,-49.5"/>
<text text-anchor="start" x="443" y="-67.5" font-family="Helvetica,sans-Serif" font-size="10.00">ParseGen::Parser::Util</text>
<text text-anchor="middle" x="496" y="-56.5" font-family="Helvetica,sans-Serif" font-size="10.00">::Symbol::isTerminal</text>
</a>
</g>
</g>
<!-- Node2 -->
<g id="node2" class="node">
<title>Node2</title>
<g id="a_node2"><a xlink:href="class_parse_gen_1_1_parser_1_1_util_1_1_parseable_input.html#add681150eacf21da1e967691a60f393d" target="_top" xlink:title=" ">
<polygon fill="white" stroke="black" points="216.5,-98.5 216.5,-128.5 357.5,-128.5 357.5,-98.5 216.5,-98.5"/>
<text text-anchor="start" x="224.5" y="-116.5" font-family="Helvetica,sans-Serif" font-size="10.00">ParseGen::Parser::Util</text>
<text text-anchor="middle" x="287" y="-105.5" font-family="Helvetica,sans-Serif" font-size="10.00">::ParseableInput::calcFirst</text>
</a>
</g>
</g>
<!-- Node1&#45;&gt;Node2 -->
<g id="edge1" class="edge">
<title>Node1&#45;&gt;Node2</title>
<path fill="none" stroke="midnightblue" d="M429.05,-82.06C419,-84.63 408.74,-87.18 399,-89.5 385.67,-92.68 371.4,-95.9 357.68,-98.9"/>
<polygon fill="midnightblue" stroke="midnightblue" points="430.19,-85.38 439.01,-79.5 428.45,-78.6 430.19,-85.38"/>
</g>
<!-- Node3 -->
<g id="node3" class="node">
<title>Node3</title>
<g id="a_node3"><a xlink:href="class_parse_gen_1_1_g_u_i_1_1_parse_tree_1_1_renderer.html#adc385d0528bcc7b3cbb44c005136d238" target="_top" xlink:title=" ">
<polygon fill="white" stroke="black" points="211,-49.5 211,-79.5 363,-79.5 363,-49.5 211,-49.5"/>
<text text-anchor="start" x="219" y="-67.5" font-family="Helvetica,sans-Serif" font-size="10.00">ParseGen::GUI::ParseTree</text>
<text text-anchor="middle" x="287" y="-56.5" font-family="Helvetica,sans-Serif" font-size="10.00">::Renderer::createGeometry</text>
</a>
</g>
</g>
<!-- Node1&#45;&gt;Node3 -->
<g id="edge2" class="edge">
<title>Node1&#45;&gt;Node3</title>
<path fill="none" stroke="midnightblue" d="M424.65,-64.5C404.81,-64.5 383.14,-64.5 363.03,-64.5"/>
<polygon fill="midnightblue" stroke="midnightblue" points="424.85,-68 434.85,-64.5 424.85,-61 424.85,-68"/>
</g>
<!-- Node5 -->
<g id="node5" class="node">
<title>Node5</title>
<g id="a_node5"><a xlink:href="class_parse_gen_1_1_parser_1_1_l_l_predictive_parser_1_1_l_l_predictive_parser_generator.html#a42a21842cb2e37411d86980058cb6633" target="_top" xlink:title=" ">
<polygon fill="white" stroke="black" points="175,-0.5 175,-30.5 399,-30.5 399,-0.5 175,-0.5"/>
<text text-anchor="start" x="183" y="-18.5" font-family="Helvetica,sans-Serif" font-size="10.00">ParseGen::Parser::LLPredictive</text>
<text text-anchor="middle" x="287" y="-7.5" font-family="Helvetica,sans-Serif" font-size="10.00">Parser::LLPredictiveParserGenerator::parse</text>
</a>
</g>
</g>
<!-- Node1&#45;&gt;Node5 -->
<g id="edge4" class="edge">
<title>Node1&#45;&gt;Node5</title>
<path fill="none" stroke="midnightblue" d="M426.1,-47.07C416.99,-44.82 407.78,-42.59 399,-40.5 385.07,-37.19 370.12,-33.75 355.86,-30.52"/>
<polygon fill="midnightblue" stroke="midnightblue" points="425.36,-50.49 435.9,-49.49 427.04,-43.69 425.36,-50.49"/>
</g>
<!-- Node4 -->
<g id="node4" class="node">
<title>Node4</title>
<g id="a_node4"><a xlink:href="class_parse_gen_1_1_g_u_i_1_1_parse_tree_1_1_renderer.html#a43ca960ae888ca639273b8ac3b2e58ef" target="_top" xlink:title=" ">
<polygon fill="white" stroke="black" points="0,-49.5 0,-79.5 139,-79.5 139,-49.5 0,-49.5"/>
<text text-anchor="start" x="8" y="-67.5" font-family="Helvetica,sans-Serif" font-size="10.00">ParseGen::GUI::ParseTree</text>
<text text-anchor="middle" x="69.5" y="-56.5" font-family="Helvetica,sans-Serif" font-size="10.00">::Renderer::render</text>
</a>
</g>
</g>
<!-- Node3&#45;&gt;Node4 -->
<g id="edge3" class="edge">
<title>Node3&#45;&gt;Node4</title>
<path fill="none" stroke="midnightblue" d="M200.69,-64.5C180.27,-64.5 158.73,-64.5 139.17,-64.5"/>
<polygon fill="midnightblue" stroke="midnightblue" points="200.93,-68 210.93,-64.5 200.93,-61 200.93,-68"/>
</g>
</g>
</svg>
