<?xml version="1.0" encoding="UTF-8" standalone="no"?>
<!DOCTYPE svg PUBLIC "-//W3C//DTD SVG 1.1//EN"
 "http://www.w3.org/Graphics/SVG/1.1/DTD/svg11.dtd">
<!-- Generated by graphviz version 2.43.0 (0)
 -->
<!-- Title: ParseGen::Parser::ParserGeneratorFactory::Create Pages: 1 -->
<svg width="947pt" height="39pt"
 viewBox="0.00 0.00 947.00 39.00" xmlns="http://www.w3.org/2000/svg" xmlns:xlink="http://www.w3.org/1999/xlink">
<g id="graph0" class="graph" transform="scale(1 1) rotate(0) translate(4 35)">
<title>ParseGen::Parser::ParserGeneratorFactory::Create</title>
<polygon fill="white" stroke="transparent" points="-4,4 -4,-35 943,-35 943,4 -4,4"/>
<!-- Node1 -->
<g id="node1" class="node">
<title>Node1</title>
<g id="a_node1"><a xlink:title=" ">
<polygon fill="#bfbfbf" stroke="black" points="801,-0.5 801,-30.5 939,-30.5 939,-0.5 801,-0.5"/>
<text text-anchor="start" x="809" y="-18.5" font-family="Helvetica,sans-Serif" font-size="10.00">ParseGen::Parser::Parser</text>
<text text-anchor="middle" x="870" y="-7.5" font-family="Helvetica,sans-Serif" font-size="10.00">GeneratorFactory::Create</text>
</a>
</g>
</g>
<!-- Node2 -->
<g id="node2" class="node">
<title>Node2</title>
<g id="a_node2"><a xlink:href="class_parse_gen_1_1_g_u_i_1_1_main_editor.html#a375e7fc2018957b0d42313a9d87bb952" target="_top" xlink:title=" ">
<polygon fill="white" stroke="black" points="620,-0.5 620,-30.5 765,-30.5 765,-0.5 620,-0.5"/>
<text text-anchor="start" x="628" y="-18.5" font-family="Helvetica,sans-Serif" font-size="10.00">ParseGen::GUI::MainEditor</text>
<text text-anchor="middle" x="692.5" y="-7.5" font-family="Helvetica,sans-Serif" font-size="10.00">::processRules</text>
</a>
</g>
</g>
<!-- Node1&#45;&gt;Node2 -->
<g id="edge1" class="edge">
<title>Node1&#45;&gt;Node2</title>
<path fill="none" stroke="midnightblue" d="M790.88,-15.5C782.28,-15.5 773.56,-15.5 765.05,-15.5"/>
<polygon fill="midnightblue" stroke="midnightblue" points="790.9,-19 800.9,-15.5 790.9,-12 790.9,-19"/>
</g>
<!-- Node3 -->
<g id="node3" class="node">
<title>Node3</title>
<g id="a_node3"><a xlink:href="class_parse_gen_1_1_g_u_i_1_1_main_editor.html#ae50424eb009179d7c6942550e3ec7a9a" target="_top" xlink:title=" ">
<polygon fill="white" stroke="black" points="439,-0.5 439,-30.5 584,-30.5 584,-0.5 439,-0.5"/>
<text text-anchor="start" x="447" y="-18.5" font-family="Helvetica,sans-Serif" font-size="10.00">ParseGen::GUI::MainEditor</text>
<text text-anchor="middle" x="511.5" y="-7.5" font-family="Helvetica,sans-Serif" font-size="10.00">::ruleTesterWindow</text>
</a>
</g>
</g>
<!-- Node2&#45;&gt;Node3 -->
<g id="edge2" class="edge">
<title>Node2&#45;&gt;Node3</title>
<path fill="none" stroke="midnightblue" d="M609.96,-15.5C601.36,-15.5 592.67,-15.5 584.2,-15.5"/>
<polygon fill="midnightblue" stroke="midnightblue" points="609.98,-19 619.98,-15.5 609.98,-12 609.98,-19"/>
</g>
<!-- Node4 -->
<g id="node4" class="node">
<title>Node4</title>
<g id="a_node4"><a xlink:href="class_parse_gen_1_1_g_u_i_1_1_main_editor.html#a8cb7930ca709c3de86c173bb8ad29bd1" target="_top" xlink:title=" ">
<polygon fill="white" stroke="black" points="258,-0.5 258,-30.5 403,-30.5 403,-0.5 258,-0.5"/>
<text text-anchor="start" x="266" y="-18.5" font-family="Helvetica,sans-Serif" font-size="10.00">ParseGen::GUI::MainEditor</text>
<text text-anchor="middle" x="330.5" y="-7.5" font-family="Helvetica,sans-Serif" font-size="10.00">::RenderFrame</text>
</a>
</g>
</g>
<!-- Node3&#45;&gt;Node4 -->
<g id="edge3" class="edge">
<title>Node3&#45;&gt;Node4</title>
<path fill="none" stroke="midnightblue" d="M428.96,-15.5C420.36,-15.5 411.67,-15.5 403.2,-15.5"/>
<polygon fill="midnightblue" stroke="midnightblue" points="428.98,-19 438.98,-15.5 428.98,-12 428.98,-19"/>
</g>
<!-- Node5 -->
<g id="node5" class="node">
<title>Node5</title>
<g id="a_node5"><a xlink:href="class_parse_gen_1_1_g_u_i_1_1_main_editor.html#a79634f787b0d0c3f00a4a1d78fb69677" target="_top" xlink:title=" ">
<polygon fill="white" stroke="black" points="77,-0.5 77,-30.5 222,-30.5 222,-0.5 77,-0.5"/>
<text text-anchor="start" x="85" y="-18.5" font-family="Helvetica,sans-Serif" font-size="10.00">ParseGen::GUI::MainEditor</text>
<text text-anchor="middle" x="149.5" y="-7.5" font-family="Helvetica,sans-Serif" font-size="10.00">::Start</text>
</a>
</g>
</g>
<!-- Node4&#45;&gt;Node5 -->
<g id="edge4" class="edge">
<title>Node4&#45;&gt;Node5</title>
<path fill="none" stroke="midnightblue" d="M247.96,-15.5C239.36,-15.5 230.67,-15.5 222.2,-15.5"/>
<polygon fill="midnightblue" stroke="midnightblue" points="247.98,-19 257.98,-15.5 247.98,-12 247.98,-19"/>
</g>
<!-- Node6 -->
<g id="node6" class="node">
<title>Node6</title>
<g id="a_node6"><a xlink:href="main_8cpp.html#ae66f6b31b5ad750f1fe042a706a4e3d4" target="_top" xlink:title=" ">
<polygon fill="white" stroke="black" points="0,-6 0,-25 41,-25 41,-6 0,-6"/>
<text text-anchor="middle" x="20.5" y="-13" font-family="Helvetica,sans-Serif" font-size="10.00">main</text>
</a>
</g>
</g>
<!-- Node5&#45;&gt;Node6 -->
<g id="edge5" class="edge">
<title>Node5&#45;&gt;Node6</title>
<path fill="none" stroke="midnightblue" d="M66.79,-15.5C57.31,-15.5 48.43,-15.5 41.08,-15.5"/>
<polygon fill="midnightblue" stroke="midnightblue" points="66.83,-19 76.83,-15.5 66.83,-12 66.83,-19"/>
</g>
</g>
</svg>
