<?xml version="1.0" encoding="UTF-8" standalone="no"?>
<!DOCTYPE svg PUBLIC "-//W3C//DTD SVG 1.1//EN"
 "http://www.w3.org/Graphics/SVG/1.1/DTD/svg11.dtd">
<!-- Generated by graphviz version 2.43.0 (0)
 -->
<!-- Title: ParseGen::Parser::Util::ParseableInput::calcFirst Pages: 1 -->
<svg width="320pt" height="137pt"
 viewBox="0.00 0.00 320.00 137.00" xmlns="http://www.w3.org/2000/svg" xmlns:xlink="http://www.w3.org/1999/xlink">
<g id="graph0" class="graph" transform="scale(1 1) rotate(0) translate(4 133)">
<title>ParseGen::Parser::Util::ParseableInput::calcFirst</title>
<polygon fill="white" stroke="transparent" points="-4,4 -4,-133 316,-133 316,4 -4,4"/>
<!-- Node1 -->
<g id="node1" class="node">
<title>Node1</title>
<g id="a_node1"><a xlink:title=" ">
<polygon fill="#bfbfbf" stroke="black" points="0,-49.5 0,-79.5 141,-79.5 141,-49.5 0,-49.5"/>
<text text-anchor="start" x="8" y="-67.5" font-family="Helvetica,sans-Serif" font-size="10.00">ParseGen::Parser::Util</text>
<text text-anchor="middle" x="70.5" y="-56.5" font-family="Helvetica,sans-Serif" font-size="10.00">::ParseableInput::calcFirst</text>
</a>
</g>
</g>
<!-- Node2 -->
<g id="node2" class="node">
<title>Node2</title>
<g id="a_node2"><a xlink:href="class_parse_gen_1_1_parser_1_1_util_1_1_symbol.html#abee82169dd33dd46403dfab6406b91bf" target="_top" xlink:title=" ">
<polygon fill="white" stroke="black" points="183.5,-98.5 183.5,-128.5 305.5,-128.5 305.5,-98.5 183.5,-98.5"/>
<text text-anchor="start" x="191.5" y="-116.5" font-family="Helvetica,sans-Serif" font-size="10.00">ParseGen::Parser::Util</text>
<text text-anchor="middle" x="244.5" y="-105.5" font-family="Helvetica,sans-Serif" font-size="10.00">::Symbol::isEmpty</text>
</a>
</g>
</g>
<!-- Node1&#45;&gt;Node2 -->
<g id="edge1" class="edge">
<title>Node1&#45;&gt;Node2</title>
<path fill="none" stroke="midnightblue" d="M124.51,-79.6C142.33,-84.68 162.38,-90.39 180.87,-95.66"/>
<polygon fill="midnightblue" stroke="midnightblue" points="180.09,-99.07 190.67,-98.45 182.01,-92.34 180.09,-99.07"/>
</g>
<!-- Node3 -->
<g id="node3" class="node">
<title>Node3</title>
<g id="a_node3"><a xlink:href="class_parse_gen_1_1_parser_1_1_util_1_1_symbol.html#a7c2eaae0963a1a1e7b2ffe9e87fc0912" target="_top" xlink:title=" ">
<polygon fill="white" stroke="black" points="177,-49.5 177,-79.5 312,-79.5 312,-49.5 177,-49.5"/>
<text text-anchor="start" x="185" y="-67.5" font-family="Helvetica,sans-Serif" font-size="10.00">ParseGen::Parser::Util</text>
<text text-anchor="middle" x="244.5" y="-56.5" font-family="Helvetica,sans-Serif" font-size="10.00">::Symbol::isNonTerminal</text>
</a>
</g>
</g>
<!-- Node1&#45;&gt;Node3 -->
<g id="edge2" class="edge">
<title>Node1&#45;&gt;Node3</title>
<path fill="none" stroke="midnightblue" d="M141.46,-64.5C149.79,-64.5 158.33,-64.5 166.75,-64.5"/>
<polygon fill="midnightblue" stroke="midnightblue" points="166.94,-68 176.94,-64.5 166.94,-61 166.94,-68"/>
</g>
<!-- Node4 -->
<g id="node4" class="node">
<title>Node4</title>
<g id="a_node4"><a xlink:href="class_parse_gen_1_1_parser_1_1_util_1_1_symbol.html#a49004cbef803410ccc3a616a8ea6e628" target="_top" xlink:title=" ">
<polygon fill="white" stroke="black" points="183.5,-0.5 183.5,-30.5 305.5,-30.5 305.5,-0.5 183.5,-0.5"/>
<text text-anchor="start" x="191.5" y="-18.5" font-family="Helvetica,sans-Serif" font-size="10.00">ParseGen::Parser::Util</text>
<text text-anchor="middle" x="244.5" y="-7.5" font-family="Helvetica,sans-Serif" font-size="10.00">::Symbol::isTerminal</text>
</a>
</g>
</g>
<!-- Node1&#45;&gt;Node4 -->
<g id="edge3" class="edge">
<title>Node1&#45;&gt;Node4</title>
<path fill="none" stroke="midnightblue" d="M124.51,-49.4C142.33,-44.32 162.38,-38.61 180.87,-33.34"/>
<polygon fill="midnightblue" stroke="midnightblue" points="182.01,-36.66 190.67,-30.55 180.09,-29.93 182.01,-36.66"/>
</g>
</g>
</svg>
