<?xml version="1.0" encoding="UTF-8" standalone="no"?>
<!DOCTYPE svg PUBLIC "-//W3C//DTD SVG 1.1//EN"
 "http://www.w3.org/Graphics/SVG/1.1/DTD/svg11.dtd">
<!-- Generated by graphviz version 2.43.0 (0)
 -->
<!-- Title: ParseGen::GUI::ParseTree::Renderer::buchheim Pages: 1 -->
<svg width="1005pt" height="378pt"
 viewBox="0.00 0.00 1005.00 377.87" xmlns="http://www.w3.org/2000/svg" xmlns:xlink="http://www.w3.org/1999/xlink">
<g id="graph0" class="graph" transform="scale(1 1) rotate(0) translate(4 373.87)">
<title>ParseGen::GUI::ParseTree::Renderer::buchheim</title>
<polygon fill="white" stroke="transparent" points="-4,4 -4,-373.87 1001,-373.87 1001,4 -4,4"/>
<!-- Node1 -->
<g id="node1" class="node">
<title>Node1</title>
<g id="a_node1"><a xlink:title=" ">
<polygon fill="#bfbfbf" stroke="black" points="0,-69.75 0,-99.75 139,-99.75 139,-69.75 0,-69.75"/>
<text text-anchor="start" x="8" y="-87.75" font-family="Helvetica,sans-Serif" font-size="10.00">ParseGen::GUI::ParseTree</text>
<text text-anchor="middle" x="69.5" y="-76.75" font-family="Helvetica,sans-Serif" font-size="10.00">::Renderer::buchheim</text>
</a>
</g>
</g>
<!-- Node2 -->
<g id="node2" class="node">
<title>Node2</title>
<g id="a_node2"><a xlink:href="class_parse_gen_1_1_g_u_i_1_1_parse_tree_1_1_renderer.html#a46550a469f1074425bd471df5810bdfa" target="_top" xlink:title=" ">
<polygon fill="white" stroke="black" points="175,-200.75 175,-230.75 314,-230.75 314,-200.75 175,-200.75"/>
<text text-anchor="start" x="183" y="-218.75" font-family="Helvetica,sans-Serif" font-size="10.00">ParseGen::GUI::ParseTree</text>
<text text-anchor="middle" x="244.5" y="-207.75" font-family="Helvetica,sans-Serif" font-size="10.00">::Renderer::firstWalk</text>
</a>
</g>
</g>
<!-- Node1&#45;&gt;Node2 -->
<g id="edge1" class="edge">
<title>Node1&#45;&gt;Node2</title>
<path fill="none" stroke="midnightblue" d="M90.35,-99.78C121.03,-123.01 180.1,-167.74 215.24,-194.35"/>
<polygon fill="midnightblue" stroke="midnightblue" points="213.54,-197.45 223.62,-200.7 217.76,-191.87 213.54,-197.45"/>
</g>
<!-- Node12 -->
<g id="node12" class="node">
<title>Node12</title>
<g id="a_node12"><a xlink:href="class_parse_gen_1_1_g_u_i_1_1_parse_tree_1_1_renderer.html#a6ab1ab51e304147a0e9caf27b469ca47" target="_top" xlink:title=" ">
<polygon fill="white" stroke="black" points="700,-69.75 700,-99.75 839,-99.75 839,-69.75 700,-69.75"/>
<text text-anchor="start" x="708" y="-87.75" font-family="Helvetica,sans-Serif" font-size="10.00">ParseGen::GUI::ParseTree</text>
<text text-anchor="middle" x="769.5" y="-76.75" font-family="Helvetica,sans-Serif" font-size="10.00">::Renderer::secondWalk</text>
</a>
</g>
</g>
<!-- Node1&#45;&gt;Node12 -->
<g id="edge18" class="edge">
<title>Node1&#45;&gt;Node12</title>
<path fill="none" stroke="midnightblue" d="M139.02,-84.75C269.29,-84.75 551.96,-84.75 689.77,-84.75"/>
<polygon fill="midnightblue" stroke="midnightblue" points="689.84,-88.25 699.84,-84.75 689.84,-81.25 689.84,-88.25"/>
</g>
<!-- Node13 -->
<g id="node13" class="node">
<title>Node13</title>
<g id="a_node13"><a xlink:href="class_parse_gen_1_1_g_u_i_1_1_parse_tree_1_1_renderer.html#a035117435d0ca469a41974801c15b624" target="_top" xlink:title=" ">
<polygon fill="white" stroke="black" points="175,-25.75 175,-55.75 314,-55.75 314,-25.75 175,-25.75"/>
<text text-anchor="start" x="183" y="-43.75" font-family="Helvetica,sans-Serif" font-size="10.00">ParseGen::GUI::ParseTree</text>
<text text-anchor="middle" x="244.5" y="-32.75" font-family="Helvetica,sans-Serif" font-size="10.00">::Renderer::thirdWalk</text>
</a>
</g>
</g>
<!-- Node1&#45;&gt;Node13 -->
<g id="edge20" class="edge">
<title>Node1&#45;&gt;Node13</title>
<path fill="none" stroke="midnightblue" d="M129.55,-69.73C144.09,-66.03 159.77,-62.04 174.72,-58.24"/>
<polygon fill="midnightblue" stroke="midnightblue" points="175.59,-61.63 184.42,-55.78 173.87,-54.85 175.59,-61.63"/>
</g>
<!-- Node3 -->
<g id="node3" class="node">
<title>Node3</title>
<g id="a_node3"><a xlink:href="class_parse_gen_1_1_g_u_i_1_1_parse_tree_1_1_renderer.html#a1ec1420e7fd1ee44109571b9ffe9dfd2" target="_top" xlink:title=" ">
<polygon fill="white" stroke="black" points="350,-200.75 350,-230.75 489,-230.75 489,-200.75 350,-200.75"/>
<text text-anchor="start" x="358" y="-218.75" font-family="Helvetica,sans-Serif" font-size="10.00">ParseGen::GUI::ParseTree</text>
<text text-anchor="middle" x="419.5" y="-207.75" font-family="Helvetica,sans-Serif" font-size="10.00">::Renderer::apportion</text>
</a>
</g>
</g>
<!-- Node2&#45;&gt;Node3 -->
<g id="edge2" class="edge">
<title>Node2&#45;&gt;Node3</title>
<path fill="none" stroke="midnightblue" d="M314.37,-215.75C322.68,-215.75 331.21,-215.75 339.65,-215.75"/>
<polygon fill="midnightblue" stroke="midnightblue" points="339.87,-219.25 349.87,-215.75 339.87,-212.25 339.87,-219.25"/>
</g>
<!-- Node5 -->
<g id="node5" class="node">
<title>Node5</title>
<g id="a_node5"><a xlink:href="class_parse_gen_1_1_parser_1_1_util_1_1_node.html#a9f6a4d36f302d5a99e02919f8e57b1b7" target="_top" xlink:title=" ">
<polygon fill="white" stroke="black" points="875,-173.75 875,-203.75 997,-203.75 997,-173.75 875,-173.75"/>
<text text-anchor="start" x="883" y="-191.75" font-family="Helvetica,sans-Serif" font-size="10.00">ParseGen::Parser::Util</text>
<text text-anchor="middle" x="936" y="-180.75" font-family="Helvetica,sans-Serif" font-size="10.00">::Node::getChildren</text>
</a>
</g>
</g>
<!-- Node2&#45;&gt;Node5 -->
<g id="edge14" class="edge">
<title>Node2&#45;&gt;Node5</title>
<path fill="none" stroke="midnightblue" d="M274.46,-200.54C295.01,-190.37 323.55,-177.47 350,-169.75 558.64,-108.88 624.96,-132.07 839,-169.75 847.45,-171.24 856.3,-172.88 865.07,-174.55"/>
<polygon fill="midnightblue" stroke="midnightblue" points="864.42,-177.99 874.9,-176.45 865.75,-171.12 864.42,-177.99"/>
</g>
<!-- Node6 -->
<g id="node6" class="node">
<title>Node6</title>
<g id="a_node6"><a xlink:href="class_parse_gen_1_1_parser_1_1_util_1_1_node.html#afbbbd132c124231845cb87dce14734d2" target="_top" xlink:title=" ">
<polygon fill="white" stroke="black" points="533.5,-288.75 533.5,-318.75 655.5,-318.75 655.5,-288.75 533.5,-288.75"/>
<text text-anchor="start" x="541.5" y="-306.75" font-family="Helvetica,sans-Serif" font-size="10.00">ParseGen::Parser::Util</text>
<text text-anchor="middle" x="594.5" y="-295.75" font-family="Helvetica,sans-Serif" font-size="10.00">::Node::leftBrother</text>
</a>
</g>
</g>
<!-- Node2&#45;&gt;Node6 -->
<g id="edge16" class="edge">
<title>Node2&#45;&gt;Node6</title>
<path fill="none" stroke="midnightblue" d="M304.93,-230.78C365.64,-246.13 459.87,-269.96 524,-286.18"/>
<polygon fill="midnightblue" stroke="midnightblue" points="523.47,-289.65 534.03,-288.71 525.19,-282.87 523.47,-289.65"/>
</g>
<!-- Node7 -->
<g id="node7" class="node">
<title>Node7</title>
<g id="a_node7"><a xlink:href="class_parse_gen_1_1_parser_1_1_util_1_1_node.html#ae7d9ec153e19801696a5b748983e2bb9" target="_top" xlink:title=" ">
<polygon fill="white" stroke="black" points="530.5,-151.75 530.5,-181.75 658.5,-181.75 658.5,-151.75 530.5,-151.75"/>
<text text-anchor="start" x="538.5" y="-169.75" font-family="Helvetica,sans-Serif" font-size="10.00">ParseGen::Parser::Util</text>
<text text-anchor="middle" x="594.5" y="-158.75" font-family="Helvetica,sans-Serif" font-size="10.00">::Node::leftmostSibling</text>
</a>
</g>
</g>
<!-- Node2&#45;&gt;Node7 -->
<g id="edge17" class="edge">
<title>Node2&#45;&gt;Node7</title>
<path fill="none" stroke="midnightblue" d="M305.21,-200.7C319.79,-197.4 335.4,-194.17 350,-191.75 406.85,-182.34 471.8,-175.88 520.31,-171.89"/>
<polygon fill="midnightblue" stroke="midnightblue" points="520.72,-175.37 530.4,-171.08 520.16,-168.39 520.72,-175.37"/>
</g>
<!-- Node10 -->
<g id="node10" class="node">
<title>Node10</title>
<g id="a_node10"><a xlink:href="class_parse_gen_1_1_g_u_i_1_1_parse_tree_1_1_renderer.html#ae4290efcf6d563e34bed71e13794008d" target="_top" xlink:title=" ">
<polygon fill="white" stroke="black" points="700,-332.75 700,-362.75 839,-362.75 839,-332.75 700,-332.75"/>
<text text-anchor="start" x="708" y="-350.75" font-family="Helvetica,sans-Serif" font-size="10.00">ParseGen::GUI::ParseTree</text>
<text text-anchor="middle" x="769.5" y="-339.75" font-family="Helvetica,sans-Serif" font-size="10.00">::Renderer::executeShifts</text>
</a>
</g>
</g>
<!-- Node2&#45;&gt;Node10 -->
<g id="edge12" class="edge">
<title>Node2&#45;&gt;Node10</title>
<path fill="none" stroke="midnightblue" d="M254.06,-230.95C269.44,-256.56 304.44,-307.58 350,-328.75 459.29,-379.52 602.42,-372.53 689.8,-361.28"/>
<polygon fill="midnightblue" stroke="midnightblue" points="690.47,-364.72 699.91,-359.93 689.54,-357.79 690.47,-364.72"/>
</g>
<!-- Node11 -->
<g id="node11" class="node">
<title>Node11</title>
<g id="a_node11"><a xlink:href="class_parse_gen_1_1_parser_1_1_util_1_1_node.html#a01741e0c2ffacf157d126a9a75fddce7" target="_top" xlink:title=" ">
<polygon fill="white" stroke="black" points="358.5,-288.75 358.5,-318.75 480.5,-318.75 480.5,-288.75 358.5,-288.75"/>
<text text-anchor="start" x="366.5" y="-306.75" font-family="Helvetica,sans-Serif" font-size="10.00">ParseGen::Parser::Util</text>
<text text-anchor="middle" x="419.5" y="-295.75" font-family="Helvetica,sans-Serif" font-size="10.00">::Node::isLeaf</text>
</a>
</g>
</g>
<!-- Node2&#45;&gt;Node11 -->
<g id="edge15" class="edge">
<title>Node2&#45;&gt;Node11</title>
<path fill="none" stroke="midnightblue" d="M271.34,-230.98C292.27,-243.1 322.67,-260.22 350,-273.75 357.36,-277.4 365.27,-281.07 373,-284.54"/>
<polygon fill="midnightblue" stroke="midnightblue" points="371.74,-287.81 382.3,-288.65 374.57,-281.41 371.74,-287.81"/>
</g>
<!-- Node4 -->
<g id="node4" class="node">
<title>Node4</title>
<g id="a_node4"><a xlink:href="class_parse_gen_1_1_g_u_i_1_1_parse_tree_1_1_renderer.html#ab05b5f4e1d932c0d1f40e58b1356a356" target="_top" xlink:title=" ">
<polygon fill="white" stroke="black" points="700,-244.75 700,-274.75 839,-274.75 839,-244.75 700,-244.75"/>
<text text-anchor="start" x="708" y="-262.75" font-family="Helvetica,sans-Serif" font-size="10.00">ParseGen::GUI::ParseTree</text>
<text text-anchor="middle" x="769.5" y="-251.75" font-family="Helvetica,sans-Serif" font-size="10.00">::Renderer::ancestor</text>
</a>
</g>
</g>
<!-- Node3&#45;&gt;Node4 -->
<g id="edge3" class="edge">
<title>Node3&#45;&gt;Node4</title>
<path fill="none" stroke="midnightblue" d="M476.31,-230.81C491.96,-234.57 509.06,-238.24 525,-240.75 579.75,-249.38 642.06,-254.15 689.95,-256.75"/>
<polygon fill="midnightblue" stroke="midnightblue" points="689.77,-260.25 699.94,-257.28 690.14,-253.26 689.77,-260.25"/>
</g>
<!-- Node3&#45;&gt;Node6 -->
<g id="edge5" class="edge">
<title>Node3&#45;&gt;Node6</title>
<path fill="none" stroke="midnightblue" d="M459.38,-230.78C469.28,-235.15 479.74,-240.24 489,-245.75 506.42,-256.12 507.58,-263.38 525,-273.75 531.37,-277.54 538.3,-281.13 545.23,-284.42"/>
<polygon fill="midnightblue" stroke="midnightblue" points="544.07,-287.74 554.62,-288.72 546.98,-281.38 544.07,-287.74"/>
</g>
<!-- Node3&#45;&gt;Node7 -->
<g id="edge7" class="edge">
<title>Node3&#45;&gt;Node7</title>
<path fill="none" stroke="midnightblue" d="M473.82,-200.65C491.74,-195.57 511.91,-189.86 530.51,-184.59"/>
<polygon fill="midnightblue" stroke="midnightblue" points="531.69,-187.89 540.36,-181.8 529.78,-181.16 531.69,-187.89"/>
</g>
<!-- Node8 -->
<g id="node8" class="node">
<title>Node8</title>
<g id="a_node8"><a xlink:href="class_parse_gen_1_1_g_u_i_1_1_parse_tree_1_1_renderer.html#a423a8b985db786b9b1be9fbfaeeb1a85" target="_top" xlink:title=" ">
<polygon fill="white" stroke="black" points="525,-200.75 525,-230.75 664,-230.75 664,-200.75 525,-200.75"/>
<text text-anchor="start" x="533" y="-218.75" font-family="Helvetica,sans-Serif" font-size="10.00">ParseGen::GUI::ParseTree</text>
<text text-anchor="middle" x="594.5" y="-207.75" font-family="Helvetica,sans-Serif" font-size="10.00">::Renderer::moveSubtree</text>
</a>
</g>
</g>
<!-- Node3&#45;&gt;Node8 -->
<g id="edge9" class="edge">
<title>Node3&#45;&gt;Node8</title>
<path fill="none" stroke="midnightblue" d="M489.37,-215.75C497.68,-215.75 506.21,-215.75 514.65,-215.75"/>
<polygon fill="midnightblue" stroke="midnightblue" points="514.87,-219.25 524.87,-215.75 514.87,-212.25 514.87,-219.25"/>
</g>
<!-- Node4&#45;&gt;Node5 -->
<g id="edge4" class="edge">
<title>Node4&#45;&gt;Node5</title>
<path fill="none" stroke="midnightblue" d="M816.11,-244.62C823.81,-241.82 831.68,-238.81 839,-235.75 858.5,-227.59 879.65,-217.39 897.13,-208.58"/>
<polygon fill="midnightblue" stroke="midnightblue" points="899.1,-211.5 906.42,-203.85 895.92,-205.26 899.1,-211.5"/>
</g>
<!-- Node6&#45;&gt;Node5 -->
<g id="edge6" class="edge">
<title>Node6&#45;&gt;Node5</title>
<path fill="none" stroke="midnightblue" d="M655.69,-310.32C706.82,-313.33 780.94,-311.49 839,-284.75 873.36,-268.92 902.37,-235.21 919.23,-212.26"/>
<polygon fill="midnightblue" stroke="midnightblue" points="922.13,-214.22 925.09,-204.05 916.43,-210.16 922.13,-214.22"/>
</g>
<!-- Node7&#45;&gt;Node5 -->
<g id="edge8" class="edge">
<title>Node7&#45;&gt;Node5</title>
<path fill="none" stroke="midnightblue" d="M658.56,-170.84C717.02,-174.62 803.87,-180.25 864.58,-184.19"/>
<polygon fill="midnightblue" stroke="midnightblue" points="864.64,-187.7 874.84,-184.85 865.09,-180.71 864.64,-187.7"/>
</g>
<!-- Node9 -->
<g id="node9" class="node">
<title>Node9</title>
<g id="a_node9"><a xlink:href="class_parse_gen_1_1_parser_1_1_util_1_1_node.html#af01131ce359e0751d7c449a163fd9336" target="_top" xlink:title=" ">
<polygon fill="white" stroke="black" points="708.5,-195.75 708.5,-225.75 830.5,-225.75 830.5,-195.75 708.5,-195.75"/>
<text text-anchor="start" x="716.5" y="-213.75" font-family="Helvetica,sans-Serif" font-size="10.00">ParseGen::Parser::Util</text>
<text text-anchor="middle" x="769.5" y="-202.75" font-family="Helvetica,sans-Serif" font-size="10.00">::Node::number</text>
</a>
</g>
</g>
<!-- Node8&#45;&gt;Node9 -->
<g id="edge10" class="edge">
<title>Node8&#45;&gt;Node9</title>
<path fill="none" stroke="midnightblue" d="M664.37,-213.76C675.48,-213.44 687,-213.11 698.14,-212.78"/>
<polygon fill="midnightblue" stroke="midnightblue" points="698.35,-216.28 708.25,-212.49 698.15,-209.28 698.35,-216.28"/>
</g>
<!-- Node9&#45;&gt;Node5 -->
<g id="edge11" class="edge">
<title>Node9&#45;&gt;Node5</title>
<path fill="none" stroke="midnightblue" d="M830.82,-202.68C841.84,-201.21 853.43,-199.66 864.71,-198.15"/>
<polygon fill="midnightblue" stroke="midnightblue" points="865.51,-201.57 874.96,-196.78 864.59,-194.64 865.51,-201.57"/>
</g>
<!-- Node10&#45;&gt;Node5 -->
<g id="edge13" class="edge">
<title>Node10&#45;&gt;Node5</title>
<path fill="none" stroke="midnightblue" d="M814.1,-332.72C822.83,-328.62 831.58,-323.65 839,-317.75 876.1,-288.24 906.22,-241.12 922.3,-212.74"/>
<polygon fill="midnightblue" stroke="midnightblue" points="925.42,-214.33 927.2,-203.88 919.29,-210.94 925.42,-214.33"/>
</g>
<!-- Node12&#45;&gt;Node5 -->
<g id="edge19" class="edge">
<title>Node12&#45;&gt;Node5</title>
<path fill="none" stroke="midnightblue" d="M809.37,-99.81C819.27,-104.17 829.73,-109.26 839,-114.75 864.71,-129.98 891.43,-151.08 910.13,-166.85"/>
<polygon fill="midnightblue" stroke="midnightblue" points="908,-169.64 917.88,-173.47 912.55,-164.31 908,-169.64"/>
</g>
<!-- Node13&#45;&gt;Node5 -->
<g id="edge21" class="edge">
<title>Node13&#45;&gt;Node5</title>
<path fill="none" stroke="midnightblue" d="M309.34,-25.71C423.2,-2.42 665.63,30.84 839,-59.75 882.09,-82.27 910.98,-133.85 925.05,-164.53"/>
<polygon fill="midnightblue" stroke="midnightblue" points="921.85,-165.96 929.1,-173.69 928.26,-163.13 921.85,-165.96"/>
</g>
</g>
</svg>
