<?xml version="1.0" encoding="UTF-8" standalone="no"?>
<!DOCTYPE svg PUBLIC "-//W3C//DTD SVG 1.1//EN"
 "http://www.w3.org/Graphics/SVG/1.1/DTD/svg11.dtd">
<!-- Generated by graphviz version 2.43.0 (0)
 -->
<!-- Title: ParseGen::GUI::Rule::RenderFrame Pages: 1 -->
<svg width="528pt" height="78pt"
 viewBox="0.00 0.00 528.00 77.50" xmlns="http://www.w3.org/2000/svg" xmlns:xlink="http://www.w3.org/1999/xlink">
<g id="graph0" class="graph" transform="scale(1 1) rotate(0) translate(4 73.5)">
<title>ParseGen::GUI::Rule::RenderFrame</title>
<polygon fill="white" stroke="transparent" points="-4,4 -4,-73.5 524,-73.5 524,4 -4,4"/>
<!-- Node1 -->
<g id="node1" class="node">
<title>Node1</title>
<g id="a_node1"><a xlink:title=" ">
<polygon fill="#bfbfbf" stroke="black" points="0,-22.5 0,-52.5 114,-52.5 114,-22.5 0,-22.5"/>
<text text-anchor="start" x="8" y="-40.5" font-family="Helvetica,sans-Serif" font-size="10.00">ParseGen::GUI::Rule</text>
<text text-anchor="middle" x="57" y="-29.5" font-family="Helvetica,sans-Serif" font-size="10.00">::RenderFrame</text>
</a>
</g>
</g>
<!-- Node2 -->
<g id="node2" class="node">
<title>Node2</title>
<g id="a_node2"><a xlink:href="class_parse_gen_1_1_g_u_i_1_1_node.html#a15a07e070beeb57842b4e1371c0d1794" target="_top" xlink:title=" ">
<polygon fill="white" stroke="black" points="150,-22.5 150,-52.5 268,-52.5 268,-22.5 150,-22.5"/>
<text text-anchor="start" x="158" y="-40.5" font-family="Helvetica,sans-Serif" font-size="10.00">ParseGen::GUI::Node</text>
<text text-anchor="middle" x="209" y="-29.5" font-family="Helvetica,sans-Serif" font-size="10.00">::RenderFrame</text>
</a>
</g>
</g>
<!-- Node1&#45;&gt;Node2 -->
<g id="edge1" class="edge">
<title>Node1&#45;&gt;Node2</title>
<path fill="none" stroke="midnightblue" d="M114.28,-37.5C122.56,-37.5 131.15,-37.5 139.64,-37.5"/>
<polygon fill="midnightblue" stroke="midnightblue" points="139.9,-41 149.9,-37.5 139.9,-34 139.9,-41"/>
</g>
<!-- Node3 -->
<g id="node3" class="node">
<title>Node3</title>
<g id="a_node3"><a xlink:href="drawing_8cpp.html#a0733fed66e38bebb3e8ee4d86b3515d5" target="_top" xlink:title=" ">
<polygon fill="white" stroke="black" points="344.5,-50 344.5,-69 381.5,-69 381.5,-50 344.5,-50"/>
<text text-anchor="middle" x="363" y="-57" font-family="Helvetica,sans-Serif" font-size="10.00">Icon</text>
</a>
</g>
</g>
<!-- Node2&#45;&gt;Node3 -->
<g id="edge2" class="edge">
<title>Node2&#45;&gt;Node3</title>
<path fill="none" stroke="midnightblue" d="M268.33,-45.94C291.01,-49.22 315.9,-52.83 334.33,-55.49"/>
<polygon fill="midnightblue" stroke="midnightblue" points="333.96,-58.98 344.36,-56.95 334.96,-52.05 333.96,-58.98"/>
</g>
<!-- Node5 -->
<g id="node5" class="node">
<title>Node5</title>
<g id="a_node5"><a xlink:href="class_parse_gen_1_1_g_u_i_1_1_node.html#a7d634dc35a1bae20b6e7e19c6e499abc" target="_top" xlink:title=" ">
<polygon fill="white" stroke="black" points="304,-0.5 304,-30.5 422,-30.5 422,-0.5 304,-0.5"/>
<text text-anchor="start" x="312" y="-18.5" font-family="Helvetica,sans-Serif" font-size="10.00">ParseGen::GUI::Node</text>
<text text-anchor="middle" x="363" y="-7.5" font-family="Helvetica,sans-Serif" font-size="10.00">::Update</text>
</a>
</g>
</g>
<!-- Node2&#45;&gt;Node5 -->
<g id="edge4" class="edge">
<title>Node2&#45;&gt;Node5</title>
<path fill="none" stroke="midnightblue" d="M268.33,-29.06C276.7,-27.85 285.36,-26.59 293.9,-25.36"/>
<polygon fill="midnightblue" stroke="midnightblue" points="294.43,-28.82 303.82,-23.92 293.43,-21.89 294.43,-28.82"/>
</g>
<!-- Node4 -->
<g id="node4" class="node">
<title>Node4</title>
<g id="a_node4"><a xlink:href="drawing_8cpp.html#a2717a237608a4721d43319698e74e542" target="_top" xlink:title=" ">
<polygon fill="white" stroke="black" points="458,-50 458,-69 520,-69 520,-50 458,-50"/>
<text text-anchor="middle" x="489" y="-57" font-family="Helvetica,sans-Serif" font-size="10.00">DrawIcon</text>
</a>
</g>
</g>
<!-- Node3&#45;&gt;Node4 -->
<g id="edge3" class="edge">
<title>Node3&#45;&gt;Node4</title>
<path fill="none" stroke="midnightblue" d="M381.5,-59.5C398.56,-59.5 425.12,-59.5 447.45,-59.5"/>
<polygon fill="midnightblue" stroke="midnightblue" points="447.68,-63 457.68,-59.5 447.68,-56 447.68,-63"/>
</g>
</g>
</svg>
