<?xml version="1.0" encoding="UTF-8" standalone="no"?>
<!DOCTYPE svg PUBLIC "-//W3C//DTD SVG 1.1//EN"
 "http://www.w3.org/Graphics/SVG/1.1/DTD/svg11.dtd">
<!-- Generated by graphviz version 2.43.0 (0)
 -->
<!-- Title: ParseGen::Parser::Yacc::LexYaccGenerator Pages: 1 -->
<svg width="286pt" height="518pt"
 viewBox="0.00 0.00 285.50 518.00" xmlns="http://www.w3.org/2000/svg" xmlns:xlink="http://www.w3.org/1999/xlink">
<g id="graph0" class="graph" transform="scale(1 1) rotate(0) translate(4 514)">
<title>ParseGen::Parser::Yacc::LexYaccGenerator</title>
<polygon fill="white" stroke="transparent" points="-4,4 -4,-514 281.5,-514 281.5,4 -4,4"/>
<!-- Node1 -->
<g id="node1" class="node">
<title>Node1</title>
<g id="a_node1"><a xlink:title=" ">
<polygon fill="#bfbfbf" stroke="black" points="22,-0.5 22,-112.5 147,-112.5 147,-0.5 22,-0.5"/>
<text text-anchor="start" x="30" y="-100.5" font-family="Helvetica,sans-Serif" font-size="10.00">ParseGen::Parser::Yacc</text>
<text text-anchor="middle" x="84.5" y="-89.5" font-family="Helvetica,sans-Serif" font-size="10.00">::LexYaccGenerator</text>
<polyline fill="none" stroke="black" points="22,-82.5 147,-82.5 "/>
<text text-anchor="middle" x="84.5" y="-70.5" font-family="Helvetica,sans-Serif" font-size="10.00"> </text>
<polyline fill="none" stroke="black" points="22,-63.5 147,-63.5 "/>
<text text-anchor="start" x="30" y="-51.5" font-family="Helvetica,sans-Serif" font-size="10.00">+ parse()</text>
<text text-anchor="start" x="30" y="-40.5" font-family="Helvetica,sans-Serif" font-size="10.00">+ codeToString()</text>
<text text-anchor="start" x="30" y="-29.5" font-family="Helvetica,sans-Serif" font-size="10.00">+ Create()</text>
<text text-anchor="start" x="30" y="-18.5" font-family="Helvetica,sans-Serif" font-size="10.00">&#45; LexYaccGenerator()</text>
<text text-anchor="start" x="30" y="-7.5" font-family="Helvetica,sans-Serif" font-size="10.00">&#45; escaped_name()</text>
</a>
</g>
</g>
<!-- Node2 -->
<g id="node2" class="node">
<title>Node2</title>
<g id="a_node2"><a xlink:href="class_parse_gen_1_1_parser_1_1_i_parser_generator.html" target="_top" xlink:title=" ">
<polygon fill="white" stroke="black" points="0,-188 0,-300 137,-300 137,-188 0,-188"/>
<text text-anchor="start" x="8" y="-288" font-family="Helvetica,sans-Serif" font-size="10.00">ParseGen::Parser::IParser</text>
<text text-anchor="middle" x="68.5" y="-277" font-family="Helvetica,sans-Serif" font-size="10.00">Generator</text>
<polyline fill="none" stroke="black" points="0,-270 137,-270 "/>
<text text-anchor="start" x="8" y="-258" font-family="Helvetica,sans-Serif" font-size="10.00">+ bnf</text>
<text text-anchor="start" x="8" y="-247" font-family="Helvetica,sans-Serif" font-size="10.00"># language</text>
<text text-anchor="start" x="8" y="-236" font-family="Helvetica,sans-Serif" font-size="10.00"># templateSubDir</text>
<polyline fill="none" stroke="black" points="0,-229 137,-229 "/>
<text text-anchor="start" x="8" y="-217" font-family="Helvetica,sans-Serif" font-size="10.00">+ parse()</text>
<text text-anchor="start" x="8" y="-206" font-family="Helvetica,sans-Serif" font-size="10.00">+ codeToString()</text>
<text text-anchor="start" x="8" y="-195" font-family="Helvetica,sans-Serif" font-size="10.00">+ codeToFile()</text>
</a>
</g>
</g>
<!-- Node2&#45;&gt;Node1 -->
<g id="edge1" class="edge">
<title>Node2&#45;&gt;Node1</title>
<path fill="none" stroke="midnightblue" d="M74.14,-177.63C75.97,-156.44 77.98,-133.15 79.73,-112.76"/>
<polygon fill="none" stroke="midnightblue" points="70.63,-177.58 73.26,-187.85 77.6,-178.18 70.63,-177.58"/>
</g>
<!-- Node3 -->
<g id="node3" class="node">
<title>Node3</title>
<g id="a_node3"><a xlink:href="class_parse_gen_1_1_parser_1_1_util_1_1_parseable_input.html" target="_top" xlink:title=" ">
<polygon fill="white" stroke="black" points="155.5,-160.5 155.5,-327.5 277.5,-327.5 277.5,-160.5 155.5,-160.5"/>
<text text-anchor="start" x="163.5" y="-315.5" font-family="Helvetica,sans-Serif" font-size="10.00">ParseGen::Parser::Util</text>
<text text-anchor="middle" x="216.5" y="-304.5" font-family="Helvetica,sans-Serif" font-size="10.00">::ParseableInput</text>
<polyline fill="none" stroke="black" points="155.5,-297.5 277.5,-297.5 "/>
<text text-anchor="start" x="163.5" y="-285.5" font-family="Helvetica,sans-Serif" font-size="10.00">+ productions</text>
<text text-anchor="start" x="163.5" y="-274.5" font-family="Helvetica,sans-Serif" font-size="10.00">+ first</text>
<text text-anchor="start" x="163.5" y="-263.5" font-family="Helvetica,sans-Serif" font-size="10.00">+ follow</text>
<polyline fill="none" stroke="black" points="155.5,-256.5 277.5,-256.5 "/>
<text text-anchor="start" x="163.5" y="-244.5" font-family="Helvetica,sans-Serif" font-size="10.00">+ ParseableInput()</text>
<text text-anchor="start" x="163.5" y="-233.5" font-family="Helvetica,sans-Serif" font-size="10.00">&#45; calcFirst()</text>
<text text-anchor="start" x="163.5" y="-222.5" font-family="Helvetica,sans-Serif" font-size="10.00">&#45; calcFirstRule()</text>
<text text-anchor="start" x="163.5" y="-211.5" font-family="Helvetica,sans-Serif" font-size="10.00">&#45; calcFollow()</text>
<text text-anchor="start" x="163.5" y="-200.5" font-family="Helvetica,sans-Serif" font-size="10.00">&#45; printRules()</text>
<text text-anchor="start" x="163.5" y="-189.5" font-family="Helvetica,sans-Serif" font-size="10.00">&#45; printFirst()</text>
<text text-anchor="start" x="163.5" y="-178.5" font-family="Helvetica,sans-Serif" font-size="10.00">&#45; printFollow()</text>
<text text-anchor="start" x="163.5" y="-167.5" font-family="Helvetica,sans-Serif" font-size="10.00">&#45; calcFollowSize()</text>
</a>
</g>
</g>
<!-- Node3&#45;&gt;Node1 -->
<g id="edge2" class="edge">
<title>Node3&#45;&gt;Node1</title>
<path fill="none" stroke="#404040" d="M157.64,-160.29C148.67,-147.68 139.52,-134.83 130.87,-122.67"/>
<polygon fill="none" stroke="#404040" points="130.69,-122.41 123.95,-119.84 123.73,-112.64 130.47,-115.21 130.69,-122.41"/>
<text text-anchor="middle" x="158" y="-134" font-family="Helvetica,sans-Serif" font-size="10.00"> &#45;rules</text>
</g>
<!-- Node4 -->
<g id="node4" class="node">
<title>Node4</title>
<g id="a_node4"><a xlink:href="class_parse_gen_1_1_parser_1_1_util_1_1_symbol.html" target="_top" xlink:title=" ">
<polygon fill="white" stroke="black" points="155.5,-375.5 155.5,-509.5 277.5,-509.5 277.5,-375.5 155.5,-375.5"/>
<text text-anchor="start" x="163.5" y="-497.5" font-family="Helvetica,sans-Serif" font-size="10.00">ParseGen::Parser::Util</text>
<text text-anchor="middle" x="216.5" y="-486.5" font-family="Helvetica,sans-Serif" font-size="10.00">::Symbol</text>
<polyline fill="none" stroke="black" points="155.5,-479.5 277.5,-479.5 "/>
<text text-anchor="start" x="163.5" y="-467.5" font-family="Helvetica,sans-Serif" font-size="10.00">+ name</text>
<text text-anchor="start" x="163.5" y="-456.5" font-family="Helvetica,sans-Serif" font-size="10.00"># type</text>
<polyline fill="none" stroke="black" points="155.5,-449.5 277.5,-449.5 "/>
<text text-anchor="start" x="163.5" y="-437.5" font-family="Helvetica,sans-Serif" font-size="10.00">+ Symbol()</text>
<text text-anchor="start" x="163.5" y="-426.5" font-family="Helvetica,sans-Serif" font-size="10.00">+ isEmpty()</text>
<text text-anchor="start" x="163.5" y="-415.5" font-family="Helvetica,sans-Serif" font-size="10.00">+ isNonTerminal()</text>
<text text-anchor="start" x="163.5" y="-404.5" font-family="Helvetica,sans-Serif" font-size="10.00">+ isTerminal()</text>
<text text-anchor="start" x="163.5" y="-393.5" font-family="Helvetica,sans-Serif" font-size="10.00">+ isEnd()</text>
<text text-anchor="start" x="163.5" y="-382.5" font-family="Helvetica,sans-Serif" font-size="10.00">+ getType()</text>
</a>
</g>
</g>
<!-- Node4&#45;&gt;Node3 -->
<g id="edge3" class="edge">
<title>Node4&#45;&gt;Node3</title>
<path fill="none" stroke="#404040" d="M216.5,-375.25C216.5,-363.92 216.5,-351.95 216.5,-340.05"/>
<polygon fill="none" stroke="#404040" points="216.5,-339.7 212.5,-333.7 216.5,-327.7 220.5,-333.7 216.5,-339.7"/>
<text text-anchor="middle" x="233.5" y="-349" font-family="Helvetica,sans-Serif" font-size="10.00"> +start</text>
</g>
</g>
</svg>
