<?xml version="1.0" encoding="UTF-8" standalone="no"?>
<!DOCTYPE svg PUBLIC "-//W3C//DTD SVG 1.1//EN"
 "http://www.w3.org/Graphics/SVG/1.1/DTD/svg11.dtd">
<!-- Generated by graphviz version 2.43.0 (0)
 -->
<!-- Title: ParseGen::GUI::MainEditor::addRule Pages: 1 -->
<svg width="773pt" height="61pt"
 viewBox="0.00 0.00 773.00 61.00" xmlns="http://www.w3.org/2000/svg" xmlns:xlink="http://www.w3.org/1999/xlink">
<g id="graph0" class="graph" transform="scale(1 1) rotate(0) translate(4 57)">
<title>ParseGen::GUI::MainEditor::addRule</title>
<polygon fill="white" stroke="transparent" points="-4,4 -4,-57 769,-57 769,4 -4,4"/>
<!-- Node1 -->
<g id="node1" class="node">
<title>Node1</title>
<g id="a_node1"><a xlink:title=" ">
<polygon fill="#bfbfbf" stroke="black" points="620,-22.5 620,-52.5 765,-52.5 765,-22.5 620,-22.5"/>
<text text-anchor="start" x="628" y="-40.5" font-family="Helvetica,sans-Serif" font-size="10.00">ParseGen::GUI::MainEditor</text>
<text text-anchor="middle" x="692.5" y="-29.5" font-family="Helvetica,sans-Serif" font-size="10.00">::addRule</text>
</a>
</g>
</g>
<!-- Node2 -->
<g id="node2" class="node">
<title>Node2</title>
<g id="a_node2"><a xlink:href="class_parse_gen_1_1_g_u_i_1_1_main_editor.html#a8cb7930ca709c3de86c173bb8ad29bd1" target="_top" xlink:title=" ">
<polygon fill="white" stroke="black" points="258,-22.5 258,-52.5 403,-52.5 403,-22.5 258,-22.5"/>
<text text-anchor="start" x="266" y="-40.5" font-family="Helvetica,sans-Serif" font-size="10.00">ParseGen::GUI::MainEditor</text>
<text text-anchor="middle" x="330.5" y="-29.5" font-family="Helvetica,sans-Serif" font-size="10.00">::RenderFrame</text>
</a>
</g>
</g>
<!-- Node1&#45;&gt;Node2 -->
<g id="edge1" class="edge">
<title>Node1&#45;&gt;Node2</title>
<path fill="none" stroke="midnightblue" d="M609.66,-40.02C601,-40.22 592.32,-40.38 584,-40.5 519.56,-41.4 503.44,-41.4 439,-40.5 427.43,-40.34 415.15,-40.08 403.2,-39.78"/>
<polygon fill="midnightblue" stroke="midnightblue" points="609.89,-43.52 619.8,-39.78 609.72,-36.52 609.89,-43.52"/>
</g>
<!-- Node5 -->
<g id="node5" class="node">
<title>Node5</title>
<g id="a_node5"><a xlink:href="class_parse_gen_1_1_g_u_i_1_1_main_editor.html#a0852bbc6c65396299a43ca2eafa3c42b" target="_top" xlink:title=" ">
<polygon fill="white" stroke="black" points="439,-0.5 439,-30.5 584,-30.5 584,-0.5 439,-0.5"/>
<text text-anchor="start" x="447" y="-18.5" font-family="Helvetica,sans-Serif" font-size="10.00">ParseGen::GUI::MainEditor</text>
<text text-anchor="middle" x="511.5" y="-7.5" font-family="Helvetica,sans-Serif" font-size="10.00">::rulesCollapseGui</text>
</a>
</g>
</g>
<!-- Node1&#45;&gt;Node5 -->
<g id="edge4" class="edge">
<title>Node1&#45;&gt;Node5</title>
<path fill="none" stroke="midnightblue" d="M609.96,-27.48C601.36,-26.42 592.67,-25.35 584.2,-24.31"/>
<polygon fill="midnightblue" stroke="midnightblue" points="609.63,-30.96 619.98,-28.71 610.48,-24.02 609.63,-30.96"/>
</g>
<!-- Node3 -->
<g id="node3" class="node">
<title>Node3</title>
<g id="a_node3"><a xlink:href="class_parse_gen_1_1_g_u_i_1_1_main_editor.html#a79634f787b0d0c3f00a4a1d78fb69677" target="_top" xlink:title=" ">
<polygon fill="white" stroke="black" points="77,-22.5 77,-52.5 222,-52.5 222,-22.5 77,-22.5"/>
<text text-anchor="start" x="85" y="-40.5" font-family="Helvetica,sans-Serif" font-size="10.00">ParseGen::GUI::MainEditor</text>
<text text-anchor="middle" x="149.5" y="-29.5" font-family="Helvetica,sans-Serif" font-size="10.00">::Start</text>
</a>
</g>
</g>
<!-- Node2&#45;&gt;Node3 -->
<g id="edge2" class="edge">
<title>Node2&#45;&gt;Node3</title>
<path fill="none" stroke="midnightblue" d="M247.96,-37.5C239.36,-37.5 230.67,-37.5 222.2,-37.5"/>
<polygon fill="midnightblue" stroke="midnightblue" points="247.98,-41 257.98,-37.5 247.98,-34 247.98,-41"/>
</g>
<!-- Node4 -->
<g id="node4" class="node">
<title>Node4</title>
<g id="a_node4"><a xlink:href="main_8cpp.html#ae66f6b31b5ad750f1fe042a706a4e3d4" target="_top" xlink:title=" ">
<polygon fill="white" stroke="black" points="0,-28 0,-47 41,-47 41,-28 0,-28"/>
<text text-anchor="middle" x="20.5" y="-35" font-family="Helvetica,sans-Serif" font-size="10.00">main</text>
</a>
</g>
</g>
<!-- Node3&#45;&gt;Node4 -->
<g id="edge3" class="edge">
<title>Node3&#45;&gt;Node4</title>
<path fill="none" stroke="midnightblue" d="M66.79,-37.5C57.31,-37.5 48.43,-37.5 41.08,-37.5"/>
<polygon fill="midnightblue" stroke="midnightblue" points="66.83,-41 76.83,-37.5 66.83,-34 66.83,-41"/>
</g>
<!-- Node5&#45;&gt;Node2 -->
<g id="edge5" class="edge">
<title>Node5&#45;&gt;Node2</title>
<path fill="none" stroke="midnightblue" d="M428.96,-25.52C420.36,-26.58 411.67,-27.65 403.2,-28.69"/>
<polygon fill="midnightblue" stroke="midnightblue" points="429.48,-28.98 438.98,-24.29 428.63,-22.04 429.48,-28.98"/>
</g>
</g>
</svg>
