<?xml version="1.0" encoding="UTF-8" standalone="no"?>
<!DOCTYPE svg PUBLIC "-//W3C//DTD SVG 1.1//EN"
 "http://www.w3.org/Graphics/SVG/1.1/DTD/svg11.dtd">
<!-- Generated by graphviz version 2.43.0 (0)
 -->
<!-- Title: ParseGen::GUI::Node Pages: 1 -->
<svg width="537pt" height="391pt"
 viewBox="0.00 0.00 536.50 391.00" xmlns="http://www.w3.org/2000/svg" xmlns:xlink="http://www.w3.org/1999/xlink">
<g id="graph0" class="graph" transform="scale(1 1) rotate(0) translate(4 387)">
<title>ParseGen::GUI::Node</title>
<polygon fill="white" stroke="transparent" points="-4,4 -4,-387 532.5,-387 532.5,4 -4,4"/>
<!-- Node1 -->
<g id="node1" class="node">
<title>Node1</title>
<g id="a_node1"><a xlink:title=" ">
<polygon fill="#bfbfbf" stroke="black" points="214,-116.5 214,-382.5 333,-382.5 333,-116.5 214,-116.5"/>
<text text-anchor="middle" x="273.5" y="-370.5" font-family="Helvetica,sans-Serif" font-size="10.00">ParseGen::GUI::Node</text>
<polyline fill="none" stroke="black" points="214,-363.5 333,-363.5 "/>
<text text-anchor="start" x="222" y="-351.5" font-family="Helvetica,sans-Serif" font-size="10.00">+ id</text>
<text text-anchor="start" x="222" y="-340.5" font-family="Helvetica,sans-Serif" font-size="10.00">+ nodeId</text>
<text text-anchor="start" x="222" y="-329.5" font-family="Helvetica,sans-Serif" font-size="10.00">+ inPin</text>
<text text-anchor="start" x="222" y="-318.5" font-family="Helvetica,sans-Serif" font-size="10.00">+ outPin</text>
<text text-anchor="start" x="222" y="-307.5" font-family="Helvetica,sans-Serif" font-size="10.00">+ inIsConnected</text>
<text text-anchor="start" x="222" y="-296.5" font-family="Helvetica,sans-Serif" font-size="10.00">+ outIsConnected</text>
<text text-anchor="start" x="222" y="-285.5" font-family="Helvetica,sans-Serif" font-size="10.00">+ numOutConnected</text>
<text text-anchor="start" x="222" y="-274.5" font-family="Helvetica,sans-Serif" font-size="10.00">+ numInConnected</text>
<text text-anchor="start" x="222" y="-263.5" font-family="Helvetica,sans-Serif" font-size="10.00">+ x</text>
<text text-anchor="start" x="222" y="-252.5" font-family="Helvetica,sans-Serif" font-size="10.00">+ y</text>
<text text-anchor="start" x="222" y="-241.5" font-family="Helvetica,sans-Serif" font-size="10.00">+ name</text>
<text text-anchor="start" x="222" y="-230.5" font-family="Helvetica,sans-Serif" font-size="10.00">+ nextLinks</text>
<text text-anchor="start" x="222" y="-219.5" font-family="Helvetica,sans-Serif" font-size="10.00">+ iconType</text>
<text text-anchor="start" x="222" y="-208.5" font-family="Helvetica,sans-Serif" font-size="10.00">+ pinColor</text>
<text text-anchor="start" x="222" y="-197.5" font-family="Helvetica,sans-Serif" font-size="10.00">+ innerPinColor</text>
<text text-anchor="start" x="222" y="-186.5" font-family="Helvetica,sans-Serif" font-size="10.00">+ currentId</text>
<text text-anchor="start" x="222" y="-175.5" font-family="Helvetica,sans-Serif" font-size="10.00">+ IconSize</text>
<polyline fill="none" stroke="black" points="214,-168.5 333,-168.5 "/>
<text text-anchor="start" x="222" y="-156.5" font-family="Helvetica,sans-Serif" font-size="10.00">+ Node()</text>
<text text-anchor="start" x="222" y="-145.5" font-family="Helvetica,sans-Serif" font-size="10.00">+ Update()</text>
<text text-anchor="start" x="222" y="-134.5" font-family="Helvetica,sans-Serif" font-size="10.00">+ RenderFrame()</text>
<text text-anchor="start" x="222" y="-123.5" font-family="Helvetica,sans-Serif" font-size="10.00">+ ~Node()</text>
</a>
</g>
</g>
<!-- Node2 -->
<g id="node2" class="node">
<title>Node2</title>
<g id="a_node2"><a xlink:href="class_parse_gen_1_1_g_u_i_1_1_non_terminal_node.html" target="_top" xlink:title=" ">
<polygon fill="white" stroke="black" points="0,-0.5 0,-79.5 179,-79.5 179,-0.5 0,-0.5"/>
<text text-anchor="middle" x="89.5" y="-67.5" font-family="Helvetica,sans-Serif" font-size="10.00">ParseGen::GUI::NonTerminalNode</text>
<polyline fill="none" stroke="black" points="0,-60.5 179,-60.5 "/>
<text text-anchor="start" x="8" y="-48.5" font-family="Helvetica,sans-Serif" font-size="10.00">+ value</text>
<text text-anchor="start" x="8" y="-37.5" font-family="Helvetica,sans-Serif" font-size="10.00">+ id</text>
<polyline fill="none" stroke="black" points="0,-30.5 179,-30.5 "/>
<text text-anchor="start" x="8" y="-18.5" font-family="Helvetica,sans-Serif" font-size="10.00">+ NonTerminalNode()</text>
<text text-anchor="start" x="8" y="-7.5" font-family="Helvetica,sans-Serif" font-size="10.00">+ Update()</text>
</a>
</g>
</g>
<!-- Node1&#45;&gt;Node2 -->
<g id="edge1" class="edge">
<title>Node1&#45;&gt;Node2</title>
<path fill="none" stroke="midnightblue" d="M207.05,-173.56C178.82,-141.73 147.11,-105.97 123.75,-79.62"/>
<polygon fill="none" stroke="midnightblue" points="204.51,-175.97 213.76,-181.13 209.74,-171.33 204.51,-175.97"/>
</g>
<!-- Node3 -->
<g id="node3" class="node">
<title>Node3</title>
<g id="a_node3"><a xlink:href="class_parse_gen_1_1_g_u_i_1_1_special_node.html" target="_top" xlink:title=" ">
<polygon fill="white" stroke="black" points="197,-11.5 197,-68.5 350,-68.5 350,-11.5 197,-11.5"/>
<text text-anchor="middle" x="273.5" y="-56.5" font-family="Helvetica,sans-Serif" font-size="10.00">ParseGen::GUI::SpecialNode</text>
<polyline fill="none" stroke="black" points="197,-49.5 350,-49.5 "/>
<text text-anchor="middle" x="273.5" y="-37.5" font-family="Helvetica,sans-Serif" font-size="10.00"> </text>
<polyline fill="none" stroke="black" points="197,-30.5 350,-30.5 "/>
<text text-anchor="start" x="205" y="-18.5" font-family="Helvetica,sans-Serif" font-size="10.00">+ SpecialNode()</text>
</a>
</g>
</g>
<!-- Node1&#45;&gt;Node3 -->
<g id="edge2" class="edge">
<title>Node1&#45;&gt;Node3</title>
<path fill="none" stroke="midnightblue" d="M273.5,-106.17C273.5,-92.21 273.5,-79.35 273.5,-68.8"/>
<polygon fill="none" stroke="midnightblue" points="270,-106.5 273.5,-116.5 277,-106.5 270,-106.5"/>
</g>
<!-- Node4 -->
<g id="node4" class="node">
<title>Node4</title>
<g id="a_node4"><a xlink:href="class_parse_gen_1_1_g_u_i_1_1_terminal_node.html" target="_top" xlink:title=" ">
<polygon fill="white" stroke="black" points="368.5,-11.5 368.5,-68.5 528.5,-68.5 528.5,-11.5 368.5,-11.5"/>
<text text-anchor="middle" x="448.5" y="-56.5" font-family="Helvetica,sans-Serif" font-size="10.00">ParseGen::GUI::TerminalNode</text>
<polyline fill="none" stroke="black" points="368.5,-49.5 528.5,-49.5 "/>
<text text-anchor="middle" x="448.5" y="-37.5" font-family="Helvetica,sans-Serif" font-size="10.00"> </text>
<polyline fill="none" stroke="black" points="368.5,-30.5 528.5,-30.5 "/>
<text text-anchor="start" x="376.5" y="-18.5" font-family="Helvetica,sans-Serif" font-size="10.00">+ TerminalNode()</text>
</a>
</g>
</g>
<!-- Node1&#45;&gt;Node4 -->
<g id="edge3" class="edge">
<title>Node1&#45;&gt;Node4</title>
<path fill="none" stroke="midnightblue" d="M339.97,-169.68C369.95,-134.13 403.44,-94.43 425.18,-68.65"/>
<polygon fill="none" stroke="midnightblue" points="337.01,-167.77 333.24,-177.67 342.36,-172.28 337.01,-167.77"/>
</g>
</g>
</svg>
