<?xml version="1.0" encoding="UTF-8" standalone="no"?>
<!DOCTYPE svg PUBLIC "-//W3C//DTD SVG 1.1//EN"
 "http://www.w3.org/Graphics/SVG/1.1/DTD/svg11.dtd">
<!-- Generated by graphviz version 2.43.0 (0)
 -->
<!-- Title: ParseGen::Parser::Util::Node::getChildren Pages: 1 -->
<!--zoomable 507 -->
<svg id="main" version="1.1" xmlns="http://www.w3.org/2000/svg" xmlns:xlink="http://www.w3.org/1999/xlink" xml:space="preserve" onload="init(evt)">
<style type="text/css"><![CDATA[
.edge:hover path { stroke: red; }
.edge:hover polygon { stroke: red; fill: red; }
]]></style>
<script type="text/javascript"><![CDATA[
var edges = document.getElementsByTagName('g');
if (edges && edges.length) {
  for (var i=0;i<edges.length;i++) {
    if (edges[i].id.substr(0,4)=='edge') {
      edges[i].setAttribute('class','edge');
    }
  }
}
]]></script>
        <defs>
                <circle id="rim" cx="0" cy="0" r="7"/>
                <circle id="rim2" cx="0" cy="0" r="3.5"/>
                <g id="zoomPlus">
                        <use xlink:href="#rim" fill="#404040">
                                <set attributeName="fill" to="#808080" begin="zoomplus.mouseover" end="zoomplus.mouseout"/>
                        </use>
                        <path d="M-4,0h8M0,-4v8" fill="none" stroke="white" stroke-width="1.5" pointer-events="none"/>
                </g>
                <g id="zoomMin">
                        <use xlink:href="#rim" fill="#404040">
                                <set attributeName="fill" to="#808080" begin="zoomminus.mouseover" end="zoomminus.mouseout"/>
                        </use>
                        <path d="M-4,0h8" fill="none" stroke="white" stroke-width="1.5" pointer-events="none"/>
                </g>
                <g id="dirArrow">
                        <path fill="none" stroke="white" stroke-width="1.5" d="M0,-3.0v7 M-2.5,-0.5L0,-3.0L2.5,-0.5"/>
                </g>
               <g id="resetDef">
                       <use xlink:href="#rim2" fill="#404040">
                               <set attributeName="fill" to="#808080" begin="reset.mouseover" end="reset.mouseout"/>
                       </use>
               </g>
        </defs>

<script type="text/javascript">
var viewWidth = 1278;
var viewHeight = 507;
var sectionId = 'dynsection-6';
</script>
<script xlink:href="svgpan.js"/>
<svg id="graph" class="graph">
<g id="viewport">
<title>ParseGen::Parser::Util::Node::getChildren</title>
<polygon fill="white" stroke="transparent" points="-4,4 -4,-503.4 1274,-503.4 1274,4 -4,4"/>
<!-- Node1 -->
<g id="node1" class="node">
<title>Node1</title>
<g id="a_node1"><a xlink:title=" ">
<polygon fill="#bfbfbf" stroke="black" points="1148,-213.5 1148,-243.5 1270,-243.5 1270,-213.5 1148,-213.5"/>
<text text-anchor="start" x="1156" y="-231.5" font-family="Helvetica,sans-Serif" font-size="10.00">ParseGen::Parser::Util</text>
<text text-anchor="middle" x="1209" y="-220.5" font-family="Helvetica,sans-Serif" font-size="10.00">::Node::getChildren</text>
</a>
</g>
</g>
<!-- Node2 -->
<g id="node2" class="node">
<title>Node2</title>
<g id="a_node2"><a xlink:href="class_parse_gen_1_1_g_u_i_1_1_parse_tree_1_1_renderer.html#ab05b5f4e1d932c0d1f40e58b1356a356" target="_top" xlink:title=" ">
<polygon fill="white" stroke="black" points="713,-213.5 713,-243.5 852,-243.5 852,-213.5 713,-213.5"/>
<text text-anchor="start" x="721" y="-231.5" font-family="Helvetica,sans-Serif" font-size="10.00">ParseGen::GUI::ParseTree</text>
<text text-anchor="middle" x="782.5" y="-220.5" font-family="Helvetica,sans-Serif" font-size="10.00">::Renderer::ancestor</text>
</a>
</g>
</g>
<!-- Node1&#45;&gt;Node2 -->
<g id="edge1" class="edge">
<title>Node1&#45;&gt;Node2</title>
<path fill="none" stroke="midnightblue" d="M1137.26,-228.5C1058.02,-228.5 930.45,-228.5 852.1,-228.5"/>
<polygon fill="midnightblue" stroke="midnightblue" points="1137.63,-232 1147.63,-228.5 1137.63,-225 1137.63,-232"/>
</g>
<!-- Node4 -->
<g id="node4" class="node">
<title>Node4</title>
<g id="a_node4"><a xlink:href="class_parse_gen_1_1_g_u_i_1_1_parse_tree_1_1_renderer.html#a46550a469f1074425bd471df5810bdfa" target="_top" xlink:title=" ">
<polygon fill="white" stroke="black" points="350,-341.5 350,-371.5 489,-371.5 489,-341.5 350,-341.5"/>
<text text-anchor="start" x="358" y="-359.5" font-family="Helvetica,sans-Serif" font-size="10.00">ParseGen::GUI::ParseTree</text>
<text text-anchor="middle" x="419.5" y="-348.5" font-family="Helvetica,sans-Serif" font-size="10.00">::Renderer::firstWalk</text>
</a>
</g>
</g>
<!-- Node1&#45;&gt;Node4 -->
<g id="edge10" class="edge">
<title>Node1&#45;&gt;Node4</title>
<path fill="none" stroke="midnightblue" d="M1198.5,-253.6C1184.77,-286.09 1156.09,-341.71 1112,-368.5 1000.51,-436.26 653.72,-400.79 525,-379.5 511.53,-377.27 497.18,-374.43 483.57,-371.5"/>
<polygon fill="midnightblue" stroke="midnightblue" points="1201.91,-254.51 1202.43,-243.93 1195.42,-251.88 1201.91,-254.51"/>
</g>
<!-- Node7 -->
<g id="node7" class="node">
<title>Node7</title>
<g id="a_node7"><a xlink:href="class_parse_gen_1_1_g_u_i_1_1_parse_tree_1_1_renderer.html#adc385d0528bcc7b3cbb44c005136d238" target="_top" xlink:title=" ">
<polygon fill="white" stroke="black" points="525,-76.5 525,-106.5 677,-106.5 677,-76.5 525,-76.5"/>
<text text-anchor="start" x="533" y="-94.5" font-family="Helvetica,sans-Serif" font-size="10.00">ParseGen::GUI::ParseTree</text>
<text text-anchor="middle" x="601" y="-83.5" font-family="Helvetica,sans-Serif" font-size="10.00">::Renderer::createGeometry</text>
</a>
</g>
</g>
<!-- Node1&#45;&gt;Node7 -->
<g id="edge6" class="edge">
<title>Node1&#45;&gt;Node7</title>
<path fill="none" stroke="midnightblue" d="M1192.63,-204.89C1175.9,-181.45 1146.84,-146.73 1112,-130.5 1036.84,-95.48 799.94,-90.8 677.27,-90.83"/>
<polygon fill="midnightblue" stroke="midnightblue" points="1189.85,-207.03 1198.42,-213.26 1195.61,-203.04 1189.85,-207.03"/>
</g>
<!-- Node8 -->
<g id="node8" class="node">
<title>Node8</title>
<g id="a_node8"><a xlink:href="class_parse_gen_1_1_g_u_i_1_1_parse_tree_1_1_renderer.html#ae4290efcf6d563e34bed71e13794008d" target="_top" xlink:title=" ">
<polygon fill="white" stroke="black" points="531.5,-448.5 531.5,-478.5 670.5,-478.5 670.5,-448.5 531.5,-448.5"/>
<text text-anchor="start" x="539.5" y="-466.5" font-family="Helvetica,sans-Serif" font-size="10.00">ParseGen::GUI::ParseTree</text>
<text text-anchor="middle" x="601" y="-455.5" font-family="Helvetica,sans-Serif" font-size="10.00">::Renderer::executeShifts</text>
</a>
</g>
</g>
<!-- Node1&#45;&gt;Node8 -->
<g id="edge8" class="edge">
<title>Node1&#45;&gt;Node8</title>
<path fill="none" stroke="midnightblue" d="M1204.51,-253.78C1196.82,-298.67 1173.9,-391.53 1112,-433.5 974.9,-526.45 766.43,-499.75 663.67,-478.51"/>
<polygon fill="midnightblue" stroke="midnightblue" points="1208,-254.13 1206.11,-243.71 1201.08,-253.03 1208,-254.13"/>
</g>
<!-- Node9 -->
<g id="node9" class="node">
<title>Node9</title>
<g id="a_node9"><a xlink:href="class_parse_gen_1_1_parser_1_1_util_1_1_node.html#afbbbd132c124231845cb87dce14734d2" target="_top" xlink:title=" ">
<polygon fill="white" stroke="black" points="721.5,-311.5 721.5,-341.5 843.5,-341.5 843.5,-311.5 721.5,-311.5"/>
<text text-anchor="start" x="729.5" y="-329.5" font-family="Helvetica,sans-Serif" font-size="10.00">ParseGen::Parser::Util</text>
<text text-anchor="middle" x="782.5" y="-318.5" font-family="Helvetica,sans-Serif" font-size="10.00">::Node::leftBrother</text>
</a>
</g>
</g>
<!-- Node1&#45;&gt;Node9 -->
<g id="edge11" class="edge">
<title>Node1&#45;&gt;Node9</title>
<path fill="none" stroke="midnightblue" d="M1185.7,-251.11C1167.56,-267.94 1140.39,-289.77 1112,-300.5 1023.03,-334.12 911.07,-335.04 843.51,-331.55"/>
<polygon fill="midnightblue" stroke="midnightblue" points="1188.56,-253.22 1193.37,-243.79 1183.72,-248.16 1188.56,-253.22"/>
</g>
<!-- Node10 -->
<g id="node10" class="node">
<title>Node10</title>
<g id="a_node10"><a xlink:href="class_parse_gen_1_1_parser_1_1_util_1_1_node.html#ae7d9ec153e19801696a5b748983e2bb9" target="_top" xlink:title=" ">
<polygon fill="white" stroke="black" points="718.5,-360.5 718.5,-390.5 846.5,-390.5 846.5,-360.5 718.5,-360.5"/>
<text text-anchor="start" x="726.5" y="-378.5" font-family="Helvetica,sans-Serif" font-size="10.00">ParseGen::Parser::Util</text>
<text text-anchor="middle" x="782.5" y="-367.5" font-family="Helvetica,sans-Serif" font-size="10.00">::Node::leftmostSibling</text>
</a>
</g>
</g>
<!-- Node1&#45;&gt;Node10 -->
<g id="edge14" class="edge">
<title>Node1&#45;&gt;Node10</title>
<path fill="none" stroke="midnightblue" d="M1192.92,-252.24C1176.26,-276.28 1147.08,-312.42 1112,-330.5 1027.57,-374.02 915.51,-380.13 846.51,-378.98"/>
<polygon fill="midnightblue" stroke="midnightblue" points="1196,-253.93 1198.68,-243.68 1190.2,-250.02 1196,-253.93"/>
</g>
<!-- Node11 -->
<g id="node11" class="node">
<title>Node11</title>
<g id="a_node11"><a xlink:href="class_parse_gen_1_1_parser_1_1_util_1_1_node.html#af01131ce359e0751d7c449a163fd9336" target="_top" xlink:title=" ">
<polygon fill="white" stroke="black" points="939,-260.5 939,-290.5 1061,-290.5 1061,-260.5 939,-260.5"/>
<text text-anchor="start" x="947" y="-278.5" font-family="Helvetica,sans-Serif" font-size="10.00">ParseGen::Parser::Util</text>
<text text-anchor="middle" x="1000" y="-267.5" font-family="Helvetica,sans-Serif" font-size="10.00">::Node::number</text>
</a>
</g>
</g>
<!-- Node1&#45;&gt;Node11 -->
<g id="edge17" class="edge">
<title>Node1&#45;&gt;Node11</title>
<path fill="none" stroke="midnightblue" d="M1138.1,-244.37C1113.18,-250.03 1085.34,-256.35 1061.3,-261.81"/>
<polygon fill="midnightblue" stroke="midnightblue" points="1138.87,-247.78 1147.85,-242.16 1137.32,-240.96 1138.87,-247.78"/>
</g>
<!-- Node13 -->
<g id="node13" class="node">
<title>Node13</title>
<g id="a_node13"><a xlink:href="class_parse_gen_1_1_parser_1_1_l_l_predictive_parser_1_1_l_l_predictive_parser_generator.html#a42a21842cb2e37411d86980058cb6633" target="_top" xlink:title=" ">
<polygon fill="white" stroke="black" points="888,-49.5 888,-79.5 1112,-79.5 1112,-49.5 888,-49.5"/>
<text text-anchor="start" x="896" y="-67.5" font-family="Helvetica,sans-Serif" font-size="10.00">ParseGen::Parser::LLPredictive</text>
<text text-anchor="middle" x="1000" y="-56.5" font-family="Helvetica,sans-Serif" font-size="10.00">Parser::LLPredictiveParserGenerator::parse</text>
</a>
</g>
</g>
<!-- Node1&#45;&gt;Node13 -->
<g id="edge20" class="edge">
<title>Node1&#45;&gt;Node13</title>
<path fill="none" stroke="midnightblue" d="M1197.16,-204.41C1182.3,-174.14 1152.74,-122.76 1112,-94.5 1103.14,-88.36 1093.08,-83.47 1082.72,-79.58"/>
<polygon fill="midnightblue" stroke="midnightblue" points="1194,-205.91 1201.46,-213.44 1200.32,-202.9 1194,-205.91"/>
</g>
<!-- Node14 -->
<g id="node14" class="node">
<title>Node14</title>
<g id="a_node14"><a xlink:href="class_parse_gen_1_1_g_u_i_1_1_parse_tree_1_1_renderer.html#a6ab1ab51e304147a0e9caf27b469ca47" target="_top" xlink:title=" ">
<polygon fill="white" stroke="black" points="350,-169.5 350,-199.5 489,-199.5 489,-169.5 350,-169.5"/>
<text text-anchor="start" x="358" y="-187.5" font-family="Helvetica,sans-Serif" font-size="10.00">ParseGen::GUI::ParseTree</text>
<text text-anchor="middle" x="419.5" y="-176.5" font-family="Helvetica,sans-Serif" font-size="10.00">::Renderer::secondWalk</text>
</a>
</g>
</g>
<!-- Node1&#45;&gt;Node14 -->
<g id="edge21" class="edge">
<title>Node1&#45;&gt;Node14</title>
<path fill="none" stroke="midnightblue" d="M1137.6,-223.01C1065.81,-217.54 951.2,-209.17 852,-203.5 723.98,-196.19 574.46,-190.17 489.28,-186.97"/>
<polygon fill="midnightblue" stroke="midnightblue" points="1137.64,-226.52 1147.88,-223.8 1138.17,-219.55 1137.64,-226.52"/>
</g>
<!-- Node15 -->
<g id="node15" class="node">
<title>Node15</title>
<g id="a_node15"><a xlink:href="class_parse_gen_1_1_g_u_i_1_1_parse_tree_1_1_renderer.html#a3468346e6eaa23ebc18482e508118f8f" target="_top" xlink:title=" ">
<polygon fill="white" stroke="black" points="930.5,-0.5 930.5,-30.5 1069.5,-30.5 1069.5,-0.5 930.5,-0.5"/>
<text text-anchor="start" x="938.5" y="-18.5" font-family="Helvetica,sans-Serif" font-size="10.00">ParseGen::GUI::ParseTree</text>
<text text-anchor="middle" x="1000" y="-7.5" font-family="Helvetica,sans-Serif" font-size="10.00">::Renderer::simpleDraw</text>
</a>
</g>
</g>
<!-- Node1&#45;&gt;Node15 -->
<g id="edge23" class="edge">
<title>Node1&#45;&gt;Node15</title>
<path fill="none" stroke="midnightblue" d="M1202.61,-203.44C1192.42,-162.43 1166.31,-81.38 1112,-39.5 1099.82,-30.11 1084.76,-24.21 1069.7,-20.55"/>
<polygon fill="midnightblue" stroke="midnightblue" points="1199.26,-204.49 1204.97,-213.42 1206.07,-202.88 1199.26,-204.49"/>
</g>
<!-- Node16 -->
<g id="node16" class="node">
<title>Node16</title>
<g id="a_node16"><a xlink:href="class_parse_gen_1_1_g_u_i_1_1_parse_tree_1_1_renderer.html#a035117435d0ca469a41974801c15b624" target="_top" xlink:title=" ">
<polygon fill="white" stroke="black" points="531.5,-125.5 531.5,-155.5 670.5,-155.5 670.5,-125.5 531.5,-125.5"/>
<text text-anchor="start" x="539.5" y="-143.5" font-family="Helvetica,sans-Serif" font-size="10.00">ParseGen::GUI::ParseTree</text>
<text text-anchor="middle" x="601" y="-132.5" font-family="Helvetica,sans-Serif" font-size="10.00">::Renderer::thirdWalk</text>
</a>
</g>
</g>
<!-- Node1&#45;&gt;Node16 -->
<g id="edge24" class="edge">
<title>Node1&#45;&gt;Node16</title>
<path fill="none" stroke="midnightblue" d="M1180.73,-207.08C1162.4,-193.98 1137.09,-178.29 1112,-170.5 959.96,-123.28 770.39,-127.53 670.68,-134.29"/>
<polygon fill="midnightblue" stroke="midnightblue" points="1179,-210.15 1189.13,-213.25 1183.15,-204.51 1179,-210.15"/>
</g>
<!-- Node3 -->
<g id="node3" class="node">
<title>Node3</title>
<g id="a_node3"><a xlink:href="class_parse_gen_1_1_g_u_i_1_1_parse_tree_1_1_renderer.html#a1ec1420e7fd1ee44109571b9ffe9dfd2" target="_top" xlink:title=" ">
<polygon fill="white" stroke="black" points="531.5,-278.5 531.5,-308.5 670.5,-308.5 670.5,-278.5 531.5,-278.5"/>
<text text-anchor="start" x="539.5" y="-296.5" font-family="Helvetica,sans-Serif" font-size="10.00">ParseGen::GUI::ParseTree</text>
<text text-anchor="middle" x="601" y="-285.5" font-family="Helvetica,sans-Serif" font-size="10.00">::Renderer::apportion</text>
</a>
</g>
</g>
<!-- Node2&#45;&gt;Node3 -->
<g id="edge2" class="edge">
<title>Node2&#45;&gt;Node3</title>
<path fill="none" stroke="midnightblue" d="M730.43,-246.99C702.99,-256.93 669.58,-269.03 643.72,-278.39"/>
<polygon fill="midnightblue" stroke="midnightblue" points="731.66,-250.27 739.87,-243.58 729.27,-243.69 731.66,-250.27"/>
</g>
<!-- Node3&#45;&gt;Node4 -->
<g id="edge3" class="edge">
<title>Node3&#45;&gt;Node4</title>
<path fill="none" stroke="midnightblue" d="M547.43,-311.95C520.72,-321.33 488.67,-332.58 463.45,-341.42"/>
<polygon fill="midnightblue" stroke="midnightblue" points="548.73,-315.2 557.01,-308.59 546.41,-308.6 548.73,-315.2"/>
</g>
<!-- Node5 -->
<g id="node5" class="node">
<title>Node5</title>
<g id="a_node5"><a xlink:href="class_parse_gen_1_1_g_u_i_1_1_parse_tree_1_1_renderer.html#ad78db935f4cf7c17e347cc1e26b469c3" target="_top" xlink:title=" ">
<polygon fill="white" stroke="black" points="175,-145.5 175,-175.5 314,-175.5 314,-145.5 175,-145.5"/>
<text text-anchor="start" x="183" y="-163.5" font-family="Helvetica,sans-Serif" font-size="10.00">ParseGen::GUI::ParseTree</text>
<text text-anchor="middle" x="244.5" y="-152.5" font-family="Helvetica,sans-Serif" font-size="10.00">::Renderer::buchheim</text>
</a>
</g>
</g>
<!-- Node4&#45;&gt;Node5 -->
<g id="edge4" class="edge">
<title>Node4&#45;&gt;Node5</title>
<path fill="none" stroke="midnightblue" d="M398.39,-333.72C362.66,-293.23 289,-209.79 258.83,-175.61"/>
<polygon fill="midnightblue" stroke="midnightblue" points="395.97,-336.26 405.21,-341.45 401.22,-331.63 395.97,-336.26"/>
</g>
<!-- Node6 -->
<g id="node6" class="node">
<title>Node6</title>
<g id="a_node6"><a xlink:href="class_parse_gen_1_1_g_u_i_1_1_parse_tree_1_1_renderer.html#a43ca960ae888ca639273b8ac3b2e58ef" target="_top" xlink:title=" ">
<polygon fill="white" stroke="black" points="0,-104.5 0,-134.5 139,-134.5 139,-104.5 0,-104.5"/>
<text text-anchor="start" x="8" y="-122.5" font-family="Helvetica,sans-Serif" font-size="10.00">ParseGen::GUI::ParseTree</text>
<text text-anchor="middle" x="69.5" y="-111.5" font-family="Helvetica,sans-Serif" font-size="10.00">::Renderer::render</text>
</a>
</g>
</g>
<!-- Node5&#45;&gt;Node6 -->
<g id="edge5" class="edge">
<title>Node5&#45;&gt;Node6</title>
<path fill="none" stroke="midnightblue" d="M170.07,-143.1C158.05,-140.25 145.68,-137.32 133.93,-134.53"/>
<polygon fill="midnightblue" stroke="midnightblue" points="169.53,-146.57 180.06,-145.47 171.14,-139.75 169.53,-146.57"/>
</g>
<!-- Node7&#45;&gt;Node6 -->
<g id="edge7" class="edge">
<title>Node7&#45;&gt;Node6</title>
<path fill="none" stroke="midnightblue" d="M514.79,-96.01C410.4,-101.53 235.59,-110.77 139.31,-115.86"/>
<polygon fill="midnightblue" stroke="midnightblue" points="515.18,-99.49 524.98,-95.47 514.81,-92.5 515.18,-99.49"/>
</g>
<!-- Node8&#45;&gt;Node4 -->
<g id="edge9" class="edge">
<title>Node8&#45;&gt;Node4</title>
<path fill="none" stroke="midnightblue" d="M547.4,-444.45C539.73,-441.1 532.06,-437.43 525,-433.5 492.31,-415.31 458.08,-388.33 438.05,-371.61"/>
<polygon fill="midnightblue" stroke="midnightblue" points="546.11,-447.71 556.69,-448.35 548.83,-441.25 546.11,-447.71"/>
</g>
<!-- Node9&#45;&gt;Node3 -->
<g id="edge12" class="edge">
<title>Node9&#45;&gt;Node3</title>
<path fill="none" stroke="midnightblue" d="M711.2,-313.58C697.91,-311.13 684.03,-308.58 670.78,-306.15"/>
<polygon fill="midnightblue" stroke="midnightblue" points="710.76,-317.05 721.23,-315.42 712.03,-310.17 710.76,-317.05"/>
</g>
<!-- Node9&#45;&gt;Node4 -->
<g id="edge13" class="edge">
<title>Node9&#45;&gt;Node4</title>
<path fill="none" stroke="midnightblue" d="M711.46,-332.32C647.35,-337.65 553.02,-345.49 489.3,-350.78"/>
<polygon fill="midnightblue" stroke="midnightblue" points="711.81,-335.8 721.48,-331.49 711.23,-328.83 711.81,-335.8"/>
</g>
<!-- Node10&#45;&gt;Node3 -->
<g id="edge15" class="edge">
<title>Node10&#45;&gt;Node3</title>
<path fill="none" stroke="midnightblue" d="M725.85,-356.77C721.47,-355.06 717.14,-353.3 713,-351.5 683.28,-338.61 650.55,-321.08 628.39,-308.67"/>
<polygon fill="midnightblue" stroke="midnightblue" points="724.86,-360.14 735.46,-360.4 727.34,-353.59 724.86,-360.14"/>
</g>
<!-- Node10&#45;&gt;Node4 -->
<g id="edge16" class="edge">
<title>Node10&#45;&gt;Node4</title>
<path fill="none" stroke="midnightblue" d="M708.18,-371.64C644.15,-368.27 551.91,-363.42 489.26,-360.12"/>
<polygon fill="midnightblue" stroke="midnightblue" points="708.04,-375.14 718.21,-372.17 708.4,-368.15 708.04,-375.14"/>
</g>
<!-- Node12 -->
<g id="node12" class="node">
<title>Node12</title>
<g id="a_node12"><a xlink:href="class_parse_gen_1_1_g_u_i_1_1_parse_tree_1_1_renderer.html#a423a8b985db786b9b1be9fbfaeeb1a85" target="_top" xlink:title=" ">
<polygon fill="white" stroke="black" points="713,-262.5 713,-292.5 852,-292.5 852,-262.5 713,-262.5"/>
<text text-anchor="start" x="721" y="-280.5" font-family="Helvetica,sans-Serif" font-size="10.00">ParseGen::GUI::ParseTree</text>
<text text-anchor="middle" x="782.5" y="-269.5" font-family="Helvetica,sans-Serif" font-size="10.00">::Renderer::moveSubtree</text>
</a>
</g>
</g>
<!-- Node11&#45;&gt;Node12 -->
<g id="edge18" class="edge">
<title>Node11&#45;&gt;Node12</title>
<path fill="none" stroke="midnightblue" d="M928.67,-276.15C904.16,-276.38 876.71,-276.63 852.33,-276.86"/>
<polygon fill="midnightblue" stroke="midnightblue" points="929,-279.65 938.97,-276.06 928.94,-272.65 929,-279.65"/>
</g>
<!-- Node12&#45;&gt;Node3 -->
<g id="edge19" class="edge">
<title>Node12&#45;&gt;Node3</title>
<path fill="none" stroke="midnightblue" d="M702.7,-284.52C692,-285.48 681.09,-286.45 670.59,-287.39"/>
<polygon fill="midnightblue" stroke="midnightblue" points="703.22,-287.99 712.87,-283.62 702.6,-281.02 703.22,-287.99"/>
</g>
<!-- Node14&#45;&gt;Node5 -->
<g id="edge22" class="edge">
<title>Node14&#45;&gt;Node5</title>
<path fill="none" stroke="midnightblue" d="M339.68,-173.57C331.16,-172.38 322.53,-171.19 314.13,-170.02"/>
<polygon fill="midnightblue" stroke="midnightblue" points="339.24,-177.04 349.63,-174.95 340.2,-170.1 339.24,-177.04"/>
</g>
<!-- Node16&#45;&gt;Node5 -->
<g id="edge25" class="edge">
<title>Node16&#45;&gt;Node5</title>
<path fill="none" stroke="midnightblue" d="M521.09,-144.95C458.99,-148.46 373.34,-153.29 314.08,-156.63"/>
<polygon fill="midnightblue" stroke="midnightblue" points="521.44,-148.44 531.23,-144.38 521.05,-141.45 521.44,-148.44"/>
</g>
</g>
</svg>
        <g id="navigator" transform="translate(0 0)" fill="#404254">
                <rect fill="#f2f5e9" fill-opacity="0.5" stroke="#606060" stroke-width=".5" x="0" y="0" width="60" height="60"/>
                <use id="zoomplus" xlink:href="#zoomPlus" x="17" y="9" onmousedown="handleZoom(evt,'in')"/>
                <use id="zoomminus" xlink:href="#zoomMin" x="42" y="9" onmousedown="handleZoom(evt,'out')"/>
                <use id="reset" xlink:href="#resetDef" x="30" y="36" onmousedown="handleReset()"/>
                <g id="arrowUp" xlink:href="#dirArrow" transform="translate(30 24)" onmousedown="handlePan(0,-1)">
                  <use xlink:href="#rim" fill="#404040">
                        <set attributeName="fill" to="#808080" begin="arrowUp.mouseover" end="arrowUp.mouseout"/>
                  </use>
                  <path fill="none" stroke="white" stroke-width="1.5" d="M0,-3.0v7 M-2.5,-0.5L0,-3.0L2.5,-0.5"/>
                </g>
                <g id="arrowRight" xlink:href="#dirArrow" transform="rotate(90) translate(36 -43)" onmousedown="handlePan(1,0)">
                  <use xlink:href="#rim" fill="#404040">
                        <set attributeName="fill" to="#808080" begin="arrowRight.mouseover" end="arrowRight.mouseout"/>
                  </use>
                  <path fill="none" stroke="white" stroke-width="1.5" d="M0,-3.0v7 M-2.5,-0.5L0,-3.0L2.5,-0.5"/>
                </g>
                <g id="arrowDown" xlink:href="#dirArrow" transform="rotate(180) translate(-30 -48)" onmousedown="handlePan(0,1)">
                  <use xlink:href="#rim" fill="#404040">
                        <set attributeName="fill" to="#808080" begin="arrowDown.mouseover" end="arrowDown.mouseout"/>
                  </use>
                  <path fill="none" stroke="white" stroke-width="1.5" d="M0,-3.0v7 M-2.5,-0.5L0,-3.0L2.5,-0.5"/>
                </g>
                <g id="arrowLeft" xlink:href="#dirArrow" transform="rotate(270) translate(-36 17)" onmousedown="handlePan(-1,0)">
                  <use xlink:href="#rim" fill="#404040">
                        <set attributeName="fill" to="#808080" begin="arrowLeft.mouseover" end="arrowLeft.mouseout"/>
                  </use>
                  <path fill="none" stroke="white" stroke-width="1.5" d="M0,-3.0v7 M-2.5,-0.5L0,-3.0L2.5,-0.5"/>
                </g>
        </g>
        <svg viewBox="0 0 15 15" width="100%" height="30px" preserveAspectRatio="xMaxYMin meet">
         <g id="arrow_out" transform="scale(0.3 0.3)">
          <a xlink:href="class_parse_gen_1_1_parser_1_1_util_1_1_node_a9f6a4d36f302d5a99e02919f8e57b1b7_icgraph_org.svg" target="_base">
           <rect id="button" ry="5" rx="5" y="6" x="6" height="38" width="38"
                fill="#f2f5e9" fill-opacity="0.5" stroke="#606060" stroke-width="1.0"/>
           <path id="arrow"
             d="M 11.500037,31.436501 C 11.940474,20.09759 22.043105,11.32322 32.158766,21.979434 L 37.068811,17.246167 C 37.068811,17.246167 37.088388,32 37.088388,32 L 22.160133,31.978069 C 22.160133,31.978069 26.997745,27.140456 26.997745,27.140456 C 18.528582,18.264221 13.291696,25.230495 11.500037,31.436501 z"
             style="fill:#404040;"/>
          </a>
         </g>
        </svg>
</svg>
