<?xml version="1.0" encoding="UTF-8" standalone="no"?>
<!DOCTYPE svg PUBLIC "-//W3C//DTD SVG 1.1//EN"
 "http://www.w3.org/Graphics/SVG/1.1/DTD/svg11.dtd">
<!-- Generated by graphviz version 2.43.0 (0)
 -->
<!-- Title: ParseGen::Parser::LLPredictiveParser::LLPredictiveParserGenerator::generateParseTable Pages: 1 -->
<svg width="399pt" height="88pt"
 viewBox="0.00 0.00 399.00 88.00" xmlns="http://www.w3.org/2000/svg" xmlns:xlink="http://www.w3.org/1999/xlink">
<g id="graph0" class="graph" transform="scale(1 1) rotate(0) translate(4 84)">
<title>ParseGen::Parser::LLPredictiveParser::LLPredictiveParserGenerator::generateParseTable</title>
<polygon fill="white" stroke="transparent" points="-4,4 -4,-84 395,-84 395,4 -4,4"/>
<!-- Node1 -->
<g id="node1" class="node">
<title>Node1</title>
<g id="a_node1"><a xlink:title=" ">
<polygon fill="#bfbfbf" stroke="black" points="0,-19 0,-60 191,-60 191,-19 0,-19"/>
<text text-anchor="start" x="8" y="-48" font-family="Helvetica,sans-Serif" font-size="10.00">ParseGen::Parser::LLPredictive</text>
<text text-anchor="start" x="8" y="-37" font-family="Helvetica,sans-Serif" font-size="10.00">Parser::LLPredictiveParserGenerator</text>
<text text-anchor="middle" x="95.5" y="-26" font-family="Helvetica,sans-Serif" font-size="10.00">::generateParseTable</text>
</a>
</g>
</g>
<!-- Node2 -->
<g id="node2" class="node">
<title>Node2</title>
<g id="a_node2"><a xlink:href="class_parse_gen_1_1_parser_1_1_l_l_predictive_parser_1_1_parser_table.html#a4e54f87b191b06ff0d48492ceac3644b" target="_top" xlink:title=" ">
<polygon fill="white" stroke="black" points="227,-49.5 227,-79.5 391,-79.5 391,-49.5 227,-49.5"/>
<text text-anchor="start" x="235" y="-67.5" font-family="Helvetica,sans-Serif" font-size="10.00">ParseGen::Parser::LLPredictive</text>
<text text-anchor="middle" x="309" y="-56.5" font-family="Helvetica,sans-Serif" font-size="10.00">Parser::ParserTable::insert</text>
</a>
</g>
</g>
<!-- Node1&#45;&gt;Node2 -->
<g id="edge1" class="edge">
<title>Node1&#45;&gt;Node2</title>
<path fill="none" stroke="midnightblue" d="M191.12,-50.68C199.56,-51.68 208.1,-52.69 216.52,-53.69"/>
<polygon fill="midnightblue" stroke="midnightblue" points="216.37,-57.19 226.71,-54.89 217.19,-50.24 216.37,-57.19"/>
</g>
<!-- Node3 -->
<g id="node3" class="node">
<title>Node3</title>
<g id="a_node3"><a xlink:href="class_parse_gen_1_1_parser_1_1_l_l_predictive_parser_1_1_parser_table.html#a0c9d07697f20f52e3e54161f0d3a8fe1" target="_top" xlink:title=" ">
<polygon fill="white" stroke="black" points="227,-0.5 227,-30.5 391,-30.5 391,-0.5 227,-0.5"/>
<text text-anchor="start" x="235" y="-18.5" font-family="Helvetica,sans-Serif" font-size="10.00">ParseGen::Parser::LLPredictive</text>
<text text-anchor="middle" x="309" y="-7.5" font-family="Helvetica,sans-Serif" font-size="10.00">Parser::ParserTable::isError</text>
</a>
</g>
</g>
<!-- Node1&#45;&gt;Node3 -->
<g id="edge2" class="edge">
<title>Node1&#45;&gt;Node3</title>
<path fill="none" stroke="midnightblue" d="M191.12,-28.76C199.56,-27.81 208.1,-26.84 216.52,-25.88"/>
<polygon fill="midnightblue" stroke="midnightblue" points="217.17,-29.33 226.71,-24.72 216.38,-22.37 217.17,-29.33"/>
</g>
</g>
</svg>
