<?xml version="1.0" encoding="UTF-8" standalone="no"?>
<!DOCTYPE svg PUBLIC "-//W3C//DTD SVG 1.1//EN"
 "http://www.w3.org/Graphics/SVG/1.1/DTD/svg11.dtd">
<!-- Generated by graphviz version 2.43.0 (0)
 -->
<!-- Title: ParseGen::GUI::Node::RenderFrame Pages: 1 -->
<svg width="378pt" height="78pt"
 viewBox="0.00 0.00 378.00 77.50" xmlns="http://www.w3.org/2000/svg" xmlns:xlink="http://www.w3.org/1999/xlink">
<g id="graph0" class="graph" transform="scale(1 1) rotate(0) translate(4 73.5)">
<title>ParseGen::GUI::Node::RenderFrame</title>
<polygon fill="white" stroke="transparent" points="-4,4 -4,-73.5 374,-73.5 374,4 -4,4"/>
<!-- Node1 -->
<g id="node1" class="node">
<title>Node1</title>
<g id="a_node1"><a xlink:title=" ">
<polygon fill="#bfbfbf" stroke="black" points="0,-22.5 0,-52.5 118,-52.5 118,-22.5 0,-22.5"/>
<text text-anchor="start" x="8" y="-40.5" font-family="Helvetica,sans-Serif" font-size="10.00">ParseGen::GUI::Node</text>
<text text-anchor="middle" x="59" y="-29.5" font-family="Helvetica,sans-Serif" font-size="10.00">::RenderFrame</text>
</a>
</g>
</g>
<!-- Node2 -->
<g id="node2" class="node">
<title>Node2</title>
<g id="a_node2"><a xlink:href="drawing_8cpp.html#a0733fed66e38bebb3e8ee4d86b3515d5" target="_top" xlink:title=" ">
<polygon fill="white" stroke="black" points="194.5,-50 194.5,-69 231.5,-69 231.5,-50 194.5,-50"/>
<text text-anchor="middle" x="213" y="-57" font-family="Helvetica,sans-Serif" font-size="10.00">Icon</text>
</a>
</g>
</g>
<!-- Node1&#45;&gt;Node2 -->
<g id="edge1" class="edge">
<title>Node1&#45;&gt;Node2</title>
<path fill="none" stroke="midnightblue" d="M118.33,-45.94C141.01,-49.22 165.9,-52.83 184.33,-55.49"/>
<polygon fill="midnightblue" stroke="midnightblue" points="183.96,-58.98 194.36,-56.95 184.96,-52.05 183.96,-58.98"/>
</g>
<!-- Node4 -->
<g id="node4" class="node">
<title>Node4</title>
<g id="a_node4"><a xlink:href="class_parse_gen_1_1_g_u_i_1_1_node.html#a7d634dc35a1bae20b6e7e19c6e499abc" target="_top" xlink:title=" ">
<polygon fill="white" stroke="black" points="154,-0.5 154,-30.5 272,-30.5 272,-0.5 154,-0.5"/>
<text text-anchor="start" x="162" y="-18.5" font-family="Helvetica,sans-Serif" font-size="10.00">ParseGen::GUI::Node</text>
<text text-anchor="middle" x="213" y="-7.5" font-family="Helvetica,sans-Serif" font-size="10.00">::Update</text>
</a>
</g>
</g>
<!-- Node1&#45;&gt;Node4 -->
<g id="edge3" class="edge">
<title>Node1&#45;&gt;Node4</title>
<path fill="none" stroke="midnightblue" d="M118.33,-29.06C126.7,-27.85 135.36,-26.59 143.9,-25.36"/>
<polygon fill="midnightblue" stroke="midnightblue" points="144.43,-28.82 153.82,-23.92 143.43,-21.89 144.43,-28.82"/>
</g>
<!-- Node3 -->
<g id="node3" class="node">
<title>Node3</title>
<g id="a_node3"><a xlink:href="drawing_8cpp.html#a2717a237608a4721d43319698e74e542" target="_top" xlink:title=" ">
<polygon fill="white" stroke="black" points="308,-50 308,-69 370,-69 370,-50 308,-50"/>
<text text-anchor="middle" x="339" y="-57" font-family="Helvetica,sans-Serif" font-size="10.00">DrawIcon</text>
</a>
</g>
</g>
<!-- Node2&#45;&gt;Node3 -->
<g id="edge2" class="edge">
<title>Node2&#45;&gt;Node3</title>
<path fill="none" stroke="midnightblue" d="M231.5,-59.5C248.56,-59.5 275.12,-59.5 297.45,-59.5"/>
<polygon fill="midnightblue" stroke="midnightblue" points="297.68,-63 307.68,-59.5 297.68,-56 297.68,-63"/>
</g>
</g>
</svg>
