<?xml version="1.0" encoding="UTF-8" standalone="no"?>
<!DOCTYPE svg PUBLIC "-//W3C//DTD SVG 1.1//EN"
 "http://www.w3.org/Graphics/SVG/1.1/DTD/svg11.dtd">
<!-- Generated by graphviz version 2.43.0 (0)
 -->
<!-- Title: /root/fyp/project/src/parsergenerator Pages: 1 -->
<svg width="254pt" height="255pt"
 viewBox="0.00 0.00 254.00 255.00" xmlns="http://www.w3.org/2000/svg" xmlns:xlink="http://www.w3.org/1999/xlink">
<g id="graph0" class="graph" transform="scale(1 1) rotate(0) translate(4 251)">
<title>/root/fyp/project/src/parsergenerator</title>
<polygon fill="white" stroke="transparent" points="-4,4 -4,-251 250,-251 250,4 -4,4"/>
<g id="clust1" class="cluster">
<title>clusterdir_68267d1309a1af8e8297ef4c3efbcdba</title>
<g id="a_clust1"><a xlink:href="dir_68267d1309a1af8e8297ef4c3efbcdba.html" target="_top" xlink:title="src">
<polygon fill="#ddddee" stroke="black" points="8,-8 8,-239 238,-239 238,-8 8,-8"/>
<text text-anchor="middle" x="123" y="-227" font-family="Helvetica,sans-Serif" font-size="10.00">src</text>
</a>
</g>
</g>
<g id="clust2" class="cluster">
<title>clusterdir_4bd971899320f0c20ae3402336e72c25</title>
<g id="a_clust2"><a xlink:href="dir_4bd971899320f0c20ae3402336e72c25.html" target="_top">
<polygon fill="#eeeeff" stroke="black" points="16,-16 16,-212 230,-212 230,-16 16,-16"/>
</a>
</g>
</g>
<!-- dir_4bd971899320f0c20ae3402336e72c25 -->
<g id="node1" class="node">
<title>dir_4bd971899320f0c20ae3402336e72c25</title>
<text text-anchor="middle" x="123" y="-183.5" font-family="Helvetica,sans-Serif" font-size="10.00">parsergenerator</text>
</g>
<!-- dir_70c47e1517162d591d36a76d1c0ac260 -->
<g id="node2" class="node">
<title>dir_70c47e1517162d591d36a76d1c0ac260</title>
<g id="a_node2"><a xlink:href="dir_70c47e1517162d591d36a76d1c0ac260.html" target="_top" xlink:title="bnf">
<polygon fill="white" stroke="black" points="78,-132 24,-132 24,-96 78,-96 78,-132"/>
<text text-anchor="middle" x="51" y="-111.5" font-family="Helvetica,sans-Serif" font-size="10.00">bnf</text>
</a>
</g>
</g>
<!-- dir_4bd971899320f0c20ae3402336e72c25&#45;&gt;dir_70c47e1517162d591d36a76d1c0ac260 -->
<g id="edge4" class="edge">
<title>dir_4bd971899320f0c20ae3402336e72c25&#45;&gt;dir_70c47e1517162d591d36a76d1c0ac260</title>
<path fill="none" stroke="black" d="M105.2,-167.7C96.4,-159.14 85.62,-148.66 76,-139.3"/>
<polygon fill="black" stroke="black" points="78.2,-136.57 68.59,-132.1 73.32,-141.58 78.2,-136.57"/>
<g id="a_edge4&#45;headlabel"><a xlink:href="dir_000001_000002.html" target="_top" xlink:title="1">
<text text-anchor="middle" x="82.76" y="-134.54" font-family="Helvetica,sans-Serif" font-size="10.00">1</text>
</a>
</g>
</g>
<!-- dir_6ebd7226ed57c9a7f04276c765ff2a90 -->
<g id="node3" class="node">
<title>dir_6ebd7226ed57c9a7f04276c765ff2a90</title>
<g id="a_node3"><a xlink:href="dir_6ebd7226ed57c9a7f04276c765ff2a90.html" target="_top" xlink:title="lexyacc">
<polygon fill="white" stroke="black" points="150,-132 96,-132 96,-96 150,-96 150,-132"/>
<text text-anchor="middle" x="123" y="-111.5" font-family="Helvetica,sans-Serif" font-size="10.00">lexyacc</text>
</a>
</g>
</g>
<!-- dir_4bd971899320f0c20ae3402336e72c25&#45;&gt;dir_6ebd7226ed57c9a7f04276c765ff2a90 -->
<g id="edge5" class="edge">
<title>dir_4bd971899320f0c20ae3402336e72c25&#45;&gt;dir_6ebd7226ed57c9a7f04276c765ff2a90</title>
<path fill="none" stroke="black" d="M123,-167.7C123,-159.98 123,-150.71 123,-142.11"/>
<polygon fill="black" stroke="black" points="126.5,-142.1 123,-132.1 119.5,-142.1 126.5,-142.1"/>
<g id="a_edge5&#45;headlabel"><a xlink:href="dir_000001_000003.html" target="_top" xlink:title="1">
<text text-anchor="middle" x="129.34" y="-143.2" font-family="Helvetica,sans-Serif" font-size="10.00">1</text>
</a>
</g>
</g>
<!-- dir_896ea78188e0b26f97adc2611f5a5894 -->
<g id="node4" class="node">
<title>dir_896ea78188e0b26f97adc2611f5a5894</title>
<g id="a_node4"><a xlink:href="dir_896ea78188e0b26f97adc2611f5a5894.html" target="_top" xlink:title="llpred">
<polygon fill="white" stroke="black" points="222,-132 168,-132 168,-96 222,-96 222,-132"/>
<text text-anchor="middle" x="195" y="-111.5" font-family="Helvetica,sans-Serif" font-size="10.00">llpred</text>
</a>
</g>
</g>
<!-- dir_4bd971899320f0c20ae3402336e72c25&#45;&gt;dir_896ea78188e0b26f97adc2611f5a5894 -->
<g id="edge6" class="edge">
<title>dir_4bd971899320f0c20ae3402336e72c25&#45;&gt;dir_896ea78188e0b26f97adc2611f5a5894</title>
<path fill="none" stroke="black" d="M140.8,-167.7C149.6,-159.14 160.38,-148.66 170,-139.3"/>
<polygon fill="black" stroke="black" points="172.68,-141.58 177.41,-132.1 167.8,-136.57 172.68,-141.58"/>
<g id="a_edge6&#45;headlabel"><a xlink:href="dir_000001_000004.html" target="_top" xlink:title="1">
<text text-anchor="middle" x="172.08" y="-143.63" font-family="Helvetica,sans-Serif" font-size="10.00">1</text>
</a>
</g>
</g>
<!-- dir_6b9cd8dc11d275a2b05fbcf62cc6fa8f -->
<g id="node5" class="node">
<title>dir_6b9cd8dc11d275a2b05fbcf62cc6fa8f</title>
<g id="a_node5"><a xlink:href="dir_6b9cd8dc11d275a2b05fbcf62cc6fa8f.html" target="_top" xlink:title="util">
<polygon fill="white" stroke="black" points="150,-60 96,-60 96,-24 150,-24 150,-60"/>
<text text-anchor="middle" x="123" y="-39.5" font-family="Helvetica,sans-Serif" font-size="10.00">util</text>
</a>
</g>
</g>
<!-- dir_70c47e1517162d591d36a76d1c0ac260&#45;&gt;dir_6b9cd8dc11d275a2b05fbcf62cc6fa8f -->
<g id="edge1" class="edge">
<title>dir_70c47e1517162d591d36a76d1c0ac260&#45;&gt;dir_6b9cd8dc11d275a2b05fbcf62cc6fa8f</title>
<path fill="none" stroke="black" d="M68.8,-95.7C77.6,-87.14 88.38,-76.66 98,-67.3"/>
<polygon fill="black" stroke="black" points="100.68,-69.58 105.41,-60.1 95.8,-64.57 100.68,-69.58"/>
<g id="a_edge1&#45;headlabel"><a xlink:href="dir_000002_000005.html" target="_top" xlink:title="2">
<text text-anchor="middle" x="100.08" y="-71.63" font-family="Helvetica,sans-Serif" font-size="10.00">2</text>
</a>
</g>
</g>
<!-- dir_6ebd7226ed57c9a7f04276c765ff2a90&#45;&gt;dir_6b9cd8dc11d275a2b05fbcf62cc6fa8f -->
<g id="edge2" class="edge">
<title>dir_6ebd7226ed57c9a7f04276c765ff2a90&#45;&gt;dir_6b9cd8dc11d275a2b05fbcf62cc6fa8f</title>
<path fill="none" stroke="black" d="M123,-95.7C123,-87.98 123,-78.71 123,-70.11"/>
<polygon fill="black" stroke="black" points="126.5,-70.1 123,-60.1 119.5,-70.1 126.5,-70.1"/>
<g id="a_edge2&#45;headlabel"><a xlink:href="dir_000003_000005.html" target="_top" xlink:title="1">
<text text-anchor="middle" x="129.34" y="-71.2" font-family="Helvetica,sans-Serif" font-size="10.00">1</text>
</a>
</g>
</g>
<!-- dir_896ea78188e0b26f97adc2611f5a5894&#45;&gt;dir_6b9cd8dc11d275a2b05fbcf62cc6fa8f -->
<g id="edge3" class="edge">
<title>dir_896ea78188e0b26f97adc2611f5a5894&#45;&gt;dir_6b9cd8dc11d275a2b05fbcf62cc6fa8f</title>
<path fill="none" stroke="black" d="M177.2,-95.7C168.4,-87.14 157.62,-76.66 148,-67.3"/>
<polygon fill="black" stroke="black" points="150.2,-64.57 140.59,-60.1 145.32,-69.58 150.2,-64.57"/>
<g id="a_edge3&#45;headlabel"><a xlink:href="dir_000004_000005.html" target="_top" xlink:title="4">
<text text-anchor="middle" x="154.76" y="-62.54" font-family="Helvetica,sans-Serif" font-size="10.00">4</text>
</a>
</g>
</g>
</g>
</svg>
