<?xml version="1.0" encoding="UTF-8" standalone="no"?>
<!DOCTYPE svg PUBLIC "-//W3C//DTD SVG 1.1//EN"
 "http://www.w3.org/Graphics/SVG/1.1/DTD/svg11.dtd">
<!-- Generated by graphviz version 2.43.0 (0)
 -->
<!-- Title: /root/fyp/project/src/parsergenerator/bnf Pages: 1 -->
<svg width="119pt" height="151pt"
 viewBox="0.00 0.00 119.00 151.00" xmlns="http://www.w3.org/2000/svg" xmlns:xlink="http://www.w3.org/1999/xlink">
<g id="graph0" class="graph" transform="scale(1 1) rotate(0) translate(4 147)">
<title>/root/fyp/project/src/parsergenerator/bnf</title>
<polygon fill="white" stroke="transparent" points="-4,4 -4,-147 115,-147 115,4 -4,4"/>
<g id="clust1" class="cluster">
<title>clusterdir_4bd971899320f0c20ae3402336e72c25</title>
<g id="a_clust1"><a xlink:href="dir_4bd971899320f0c20ae3402336e72c25.html" target="_top" xlink:title="parsergenerator">
<polygon fill="#ddddee" stroke="black" points="8,-64 8,-135 103,-135 103,-64 8,-64"/>
<text text-anchor="middle" x="55.5" y="-123" font-family="Helvetica,sans-Serif" font-size="10.00">parsergenerator</text>
</a>
</g>
</g>
<!-- dir_70c47e1517162d591d36a76d1c0ac260 -->
<g id="node1" class="node">
<title>dir_70c47e1517162d591d36a76d1c0ac260</title>
<g id="a_node1"><a xlink:href="dir_70c47e1517162d591d36a76d1c0ac260.html" target="_top" xlink:title="bnf">
<polygon fill="#eeeeff" stroke="black" points="82,-108 28,-108 28,-72 82,-72 82,-108"/>
<text text-anchor="middle" x="55" y="-87.5" font-family="Helvetica,sans-Serif" font-size="10.00">bnf</text>
</a>
</g>
</g>
<!-- dir_6b9cd8dc11d275a2b05fbcf62cc6fa8f -->
<g id="node2" class="node">
<title>dir_6b9cd8dc11d275a2b05fbcf62cc6fa8f</title>
<g id="a_node2"><a xlink:href="dir_6b9cd8dc11d275a2b05fbcf62cc6fa8f.html" target="_top" xlink:title="util">
<polygon fill="none" stroke="black" points="82,-36 28,-36 28,0 82,0 82,-36"/>
<text text-anchor="middle" x="55" y="-15.5" font-family="Helvetica,sans-Serif" font-size="10.00">util</text>
</a>
</g>
</g>
<!-- dir_70c47e1517162d591d36a76d1c0ac260&#45;&gt;dir_6b9cd8dc11d275a2b05fbcf62cc6fa8f -->
<g id="edge1" class="edge">
<title>dir_70c47e1517162d591d36a76d1c0ac260&#45;&gt;dir_6b9cd8dc11d275a2b05fbcf62cc6fa8f</title>
<path fill="none" stroke="black" d="M55,-71.7C55,-63.98 55,-54.71 55,-46.11"/>
<polygon fill="black" stroke="black" points="58.5,-46.1 55,-36.1 51.5,-46.1 58.5,-46.1"/>
<g id="a_edge1&#45;headlabel"><a xlink:href="dir_000002_000005.html" target="_top" xlink:title="2">
<text text-anchor="middle" x="61.34" y="-47.2" font-family="Helvetica,sans-Serif" font-size="10.00">2</text>
</a>
</g>
</g>
</g>
</svg>
