<?xml version="1.0" encoding="UTF-8" standalone="no"?>
<!DOCTYPE svg PUBLIC "-//W3C//DTD SVG 1.1//EN"
 "http://www.w3.org/Graphics/SVG/1.1/DTD/svg11.dtd">
<!-- Generated by graphviz version 2.43.0 (0)
 -->
<!-- Title: /root/fyp/project/src/parsergenerator/factory.h Pages: 1 -->
<!--zoomable 319 -->
<svg id="main" version="1.1" xmlns="http://www.w3.org/2000/svg" xmlns:xlink="http://www.w3.org/1999/xlink" xml:space="preserve" onload="init(evt)">
<style type="text/css"><![CDATA[
.edge:hover path { stroke: red; }
.edge:hover polygon { stroke: red; fill: red; }
]]></style>
<script type="text/javascript"><![CDATA[
var edges = document.getElementsByTagName('g');
if (edges && edges.length) {
  for (var i=0;i<edges.length;i++) {
    if (edges[i].id.substr(0,4)=='edge') {
      edges[i].setAttribute('class','edge');
    }
  }
}
]]></script>
        <defs>
                <circle id="rim" cx="0" cy="0" r="7"/>
                <circle id="rim2" cx="0" cy="0" r="3.5"/>
                <g id="zoomPlus">
                        <use xlink:href="#rim" fill="#404040">
                                <set attributeName="fill" to="#808080" begin="zoomplus.mouseover" end="zoomplus.mouseout"/>
                        </use>
                        <path d="M-4,0h8M0,-4v8" fill="none" stroke="white" stroke-width="1.5" pointer-events="none"/>
                </g>
                <g id="zoomMin">
                        <use xlink:href="#rim" fill="#404040">
                                <set attributeName="fill" to="#808080" begin="zoomminus.mouseover" end="zoomminus.mouseout"/>
                        </use>
                        <path d="M-4,0h8" fill="none" stroke="white" stroke-width="1.5" pointer-events="none"/>
                </g>
                <g id="dirArrow">
                        <path fill="none" stroke="white" stroke-width="1.5" d="M0,-3.0v7 M-2.5,-0.5L0,-3.0L2.5,-0.5"/>
                </g>
               <g id="resetDef">
                       <use xlink:href="#rim2" fill="#404040">
                               <set attributeName="fill" to="#808080" begin="reset.mouseover" end="reset.mouseout"/>
                       </use>
               </g>
        </defs>

<script type="text/javascript">
var viewWidth = 1051;
var viewHeight = 319;
var sectionId = 'dynsection-0';
</script>
<script xlink:href="svgpan.js"/>
<svg id="graph" class="graph">
<g id="viewport">
<title>/root/fyp/project/src/parsergenerator/factory.h</title>
<polygon fill="white" stroke="transparent" points="-4,4 -4,-315 1047.3,-315 1047.3,4 -4,4"/>
<!-- Node1 -->
<g id="node1" class="node">
<title>Node1</title>
<g id="a_node1"><a xlink:title=" ">
<polygon fill="#bfbfbf" stroke="black" points="443,-280.5 443,-310.5 586,-310.5 586,-280.5 443,-280.5"/>
<text text-anchor="start" x="451" y="-298.5" font-family="Helvetica,sans-Serif" font-size="10.00">/root/fyp/project/src</text>
<text text-anchor="middle" x="514.5" y="-287.5" font-family="Helvetica,sans-Serif" font-size="10.00">/parsergenerator/factory.h</text>
</a>
</g>
</g>
<!-- Node2 -->
<g id="node2" class="node">
<title>Node2</title>
<g id="a_node2"><a xlink:title=" ">
<polygon fill="white" stroke="#bfbfbf" points="0,-224.5 0,-243.5 65,-243.5 65,-224.5 0,-224.5"/>
<text text-anchor="middle" x="32.5" y="-231.5" font-family="Helvetica,sans-Serif" font-size="10.00">functional</text>
</a>
</g>
</g>
<!-- Node1&#45;&gt;Node2 -->
<g id="edge1" class="edge">
<title>Node1&#45;&gt;Node2</title>
<path fill="none" stroke="midnightblue" d="M442.7,-287.8C356.28,-279.36 206.87,-263.56 79.5,-244 78.04,-243.78 76.55,-243.54 75.05,-243.29"/>
<polygon fill="midnightblue" stroke="midnightblue" points="75.51,-239.82 65.06,-241.56 74.32,-246.72 75.51,-239.82"/>
</g>
<!-- Node3 -->
<g id="node3" class="node">
<title>Node3</title>
<g id="a_node3"><a xlink:title=" ">
<polygon fill="white" stroke="#bfbfbf" points="435.5,-0.5 435.5,-19.5 479.5,-19.5 479.5,-0.5 435.5,-0.5"/>
<text text-anchor="middle" x="457.5" y="-7.5" font-family="Helvetica,sans-Serif" font-size="10.00">string</text>
</a>
</g>
</g>
<!-- Node1&#45;&gt;Node3 -->
<g id="edge2" class="edge">
<title>Node1&#45;&gt;Node3</title>
<path fill="none" stroke="midnightblue" d="M442.61,-289.58C322.36,-279.37 93.5,-250.53 93.5,-179 93.5,-179 93.5,-179 93.5,-121 93.5,-52.01 336.12,-22.35 425.2,-13.79"/>
<polygon fill="midnightblue" stroke="midnightblue" points="425.65,-17.26 435.28,-12.84 425,-10.29 425.65,-17.26"/>
</g>
<!-- Node4 -->
<g id="node4" class="node">
<title>Node4</title>
<g id="a_node4"><a xlink:href="iparsergenerator_8h.html" target="_top" xlink:title=" ">
<polygon fill="white" stroke="black" points="809.5,-168.5 809.5,-187.5 915.5,-187.5 915.5,-168.5 809.5,-168.5"/>
<text text-anchor="middle" x="862.5" y="-175.5" font-family="Helvetica,sans-Serif" font-size="10.00">iparsergenerator.h</text>
</a>
</g>
</g>
<!-- Node1&#45;&gt;Node4 -->
<g id="edge3" class="edge">
<title>Node1&#45;&gt;Node4</title>
<path fill="none" stroke="midnightblue" d="M556.82,-280.45C626.12,-257.46 762.5,-212.19 827.04,-190.77"/>
<polygon fill="midnightblue" stroke="midnightblue" points="828.37,-194.01 836.76,-187.54 826.17,-187.37 828.37,-194.01"/>
</g>
<!-- Node12 -->
<g id="node12" class="node">
<title>Node12</title>
<g id="a_node12"><a xlink:href="llpred_2parsergenerator_8h.html" target="_top" xlink:title=" ">
<polygon fill="white" stroke="black" points="376.5,-224.5 376.5,-243.5 510.5,-243.5 510.5,-224.5 376.5,-224.5"/>
<text text-anchor="middle" x="443.5" y="-231.5" font-family="Helvetica,sans-Serif" font-size="10.00">llpred/parsergenerator.h</text>
</a>
</g>
</g>
<!-- Node1&#45;&gt;Node12 -->
<g id="edge13" class="edge">
<title>Node1&#45;&gt;Node12</title>
<path fill="none" stroke="midnightblue" d="M497.67,-280.4C486.83,-271.31 472.72,-259.49 461.63,-250.19"/>
<polygon fill="midnightblue" stroke="midnightblue" points="463.74,-247.4 453.83,-243.66 459.25,-252.76 463.74,-247.4"/>
</g>
<!-- Node21 -->
<g id="node21" class="node">
<title>Node21</title>
<g id="a_node21"><a xlink:href="lexyacc_2parsergenerator_8h.html" target="_top" xlink:title=" ">
<polygon fill="white" stroke="black" points="831,-224.5 831,-243.5 974,-243.5 974,-224.5 831,-224.5"/>
<text text-anchor="middle" x="902.5" y="-231.5" font-family="Helvetica,sans-Serif" font-size="10.00">lexyacc/parsergenerator.h</text>
</a>
</g>
</g>
<!-- Node1&#45;&gt;Node21 -->
<g id="edge39" class="edge">
<title>Node1&#45;&gt;Node21</title>
<path fill="none" stroke="midnightblue" d="M586.12,-283.52C657.91,-272.51 767.5,-255.7 837.03,-245.04"/>
<polygon fill="midnightblue" stroke="midnightblue" points="837.64,-248.49 846.99,-243.51 836.58,-241.57 837.64,-248.49"/>
</g>
<!-- Node22 -->
<g id="node22" class="node">
<title>Node22</title>
<g id="a_node22"><a xlink:href="bnf_2parsergenerator_8h.html" target="_top" xlink:title=" ">
<polygon fill="white" stroke="black" points="669.5,-168.5 669.5,-187.5 791.5,-187.5 791.5,-168.5 669.5,-168.5"/>
<text text-anchor="middle" x="730.5" y="-175.5" font-family="Helvetica,sans-Serif" font-size="10.00">bnf/parsergenerator.h</text>
</a>
</g>
</g>
<!-- Node1&#45;&gt;Node22 -->
<g id="edge47" class="edge">
<title>Node1&#45;&gt;Node22</title>
<path fill="none" stroke="midnightblue" d="M540.99,-280.34C583.02,-257.86 664.42,-214.33 705.5,-192.37"/>
<polygon fill="midnightblue" stroke="midnightblue" points="707.39,-195.32 714.56,-187.52 704.09,-189.15 707.39,-195.32"/>
</g>
<!-- Node4&#45;&gt;Node3 -->
<g id="edge6" class="edge">
<title>Node4&#45;&gt;Node3</title>
<path fill="none" stroke="midnightblue" d="M862.91,-168.21C863.86,-143.08 865.13,-71.74 849.5,-56 824.28,-30.6 578.96,-16.68 489.73,-12.42"/>
<polygon fill="midnightblue" stroke="midnightblue" points="489.8,-8.92 479.65,-11.95 489.48,-15.92 489.8,-8.92"/>
</g>
<!-- Node5 -->
<g id="node5" class="node">
<title>Node5</title>
<g id="a_node5"><a xlink:title=" ">
<polygon fill="white" stroke="#bfbfbf" points="874,-112.5 874,-131.5 929,-131.5 929,-112.5 874,-112.5"/>
<text text-anchor="middle" x="901.5" y="-119.5" font-family="Helvetica,sans-Serif" font-size="10.00">fstream</text>
</a>
</g>
</g>
<!-- Node4&#45;&gt;Node5 -->
<g id="edge4" class="edge">
<title>Node4&#45;&gt;Node5</title>
<path fill="none" stroke="midnightblue" d="M868.94,-168.08C874.45,-160.46 882.53,-149.26 889.26,-139.94"/>
<polygon fill="midnightblue" stroke="midnightblue" points="892.16,-141.91 895.18,-131.75 886.49,-137.81 892.16,-141.91"/>
</g>
<!-- Node6 -->
<g id="node6" class="node">
<title>Node6</title>
<g id="a_node6"><a xlink:title=" ">
<polygon fill="white" stroke="#bfbfbf" points="947.5,-112.5 947.5,-131.5 1015.5,-131.5 1015.5,-112.5 947.5,-112.5"/>
<text text-anchor="middle" x="981.5" y="-119.5" font-family="Helvetica,sans-Serif" font-size="10.00">filesystem</text>
</a>
</g>
</g>
<!-- Node4&#45;&gt;Node6 -->
<g id="edge5" class="edge">
<title>Node4&#45;&gt;Node6</title>
<path fill="none" stroke="midnightblue" d="M881.36,-168.44C900.77,-159.64 931.23,-145.81 953.46,-135.72"/>
<polygon fill="midnightblue" stroke="midnightblue" points="955.07,-138.84 962.73,-131.52 952.18,-132.46 955.07,-138.84"/>
</g>
<!-- Node7 -->
<g id="node7" class="node">
<title>Node7</title>
<g id="a_node7"><a xlink:href="parsetree_8h.html" target="_top" xlink:title=" ">
<polygon fill="white" stroke="black" points="685,-112.5 685,-131.5 776,-131.5 776,-112.5 685,-112.5"/>
<text text-anchor="middle" x="730.5" y="-119.5" font-family="Helvetica,sans-Serif" font-size="10.00">util/parsetree.h</text>
</a>
</g>
</g>
<!-- Node4&#45;&gt;Node7 -->
<g id="edge7" class="edge">
<title>Node4&#45;&gt;Node7</title>
<path fill="none" stroke="midnightblue" d="M841.58,-168.44C819.76,-159.52 785.35,-145.44 760.61,-135.32"/>
<polygon fill="midnightblue" stroke="midnightblue" points="761.9,-132.06 751.32,-131.52 759.25,-138.54 761.9,-132.06"/>
</g>
<!-- Node8 -->
<g id="node8" class="node">
<title>Node8</title>
<g id="a_node8"><a xlink:title=" ">
<polygon fill="white" stroke="#bfbfbf" points="533,-56.5 533,-75.5 580,-75.5 580,-56.5 533,-56.5"/>
<text text-anchor="middle" x="556.5" y="-63.5" font-family="Helvetica,sans-Serif" font-size="10.00">vector</text>
</a>
</g>
</g>
<!-- Node7&#45;&gt;Node8 -->
<g id="edge8" class="edge">
<title>Node7&#45;&gt;Node8</title>
<path fill="none" stroke="midnightblue" d="M702.93,-112.44C672.19,-102.9 622.48,-87.48 589.64,-77.29"/>
<polygon fill="midnightblue" stroke="midnightblue" points="590.62,-73.93 580.04,-74.3 588.55,-80.61 590.62,-73.93"/>
</g>
<!-- Node9 -->
<g id="node9" class="node">
<title>Node9</title>
<g id="a_node9"><a xlink:title=" ">
<polygon fill="white" stroke="#bfbfbf" points="757,-56.5 757,-75.5 840,-75.5 840,-56.5 757,-56.5"/>
<text text-anchor="middle" x="798.5" y="-63.5" font-family="Helvetica,sans-Serif" font-size="10.00">initializer_list</text>
</a>
</g>
</g>
<!-- Node7&#45;&gt;Node9 -->
<g id="edge9" class="edge">
<title>Node7&#45;&gt;Node9</title>
<path fill="none" stroke="midnightblue" d="M741.43,-112.32C751.67,-104.18 767.22,-91.84 779.5,-82.09"/>
<polygon fill="midnightblue" stroke="midnightblue" points="781.72,-84.79 787.38,-75.83 777.37,-79.31 781.72,-84.79"/>
</g>
<!-- Node10 -->
<g id="node10" class="node">
<title>Node10</title>
<g id="a_node10"><a xlink:title=" ">
<polygon fill="white" stroke="#bfbfbf" points="598.5,-56.5 598.5,-75.5 658.5,-75.5 658.5,-56.5 598.5,-56.5"/>
<text text-anchor="middle" x="628.5" y="-63.5" font-family="Helvetica,sans-Serif" font-size="10.00">iostream</text>
</a>
</g>
</g>
<!-- Node7&#45;&gt;Node10 -->
<g id="edge10" class="edge">
<title>Node7&#45;&gt;Node10</title>
<path fill="none" stroke="midnightblue" d="M714.11,-112.32C697.83,-103.7 672.63,-90.36 653.78,-80.39"/>
<polygon fill="midnightblue" stroke="midnightblue" points="655.32,-77.24 644.85,-75.65 652.05,-83.43 655.32,-77.24"/>
</g>
<!-- Node11 -->
<g id="node11" class="node">
<title>Node11</title>
<g id="a_node11"><a xlink:href="symbol_8h.html" target="_top" xlink:title=" ">
<polygon fill="white" stroke="black" points="676.5,-56.5 676.5,-75.5 738.5,-75.5 738.5,-56.5 676.5,-56.5"/>
<text text-anchor="middle" x="707.5" y="-63.5" font-family="Helvetica,sans-Serif" font-size="10.00">symbol.h</text>
</a>
</g>
</g>
<!-- Node7&#45;&gt;Node11 -->
<g id="edge11" class="edge">
<title>Node7&#45;&gt;Node11</title>
<path fill="none" stroke="midnightblue" d="M726.7,-112.08C723.59,-104.77 719.08,-94.18 715.21,-85.1"/>
<polygon fill="midnightblue" stroke="midnightblue" points="718.37,-83.58 711.23,-75.75 711.93,-86.32 718.37,-83.58"/>
</g>
<!-- Node11&#45;&gt;Node3 -->
<g id="edge12" class="edge">
<title>Node11&#45;&gt;Node3</title>
<path fill="none" stroke="midnightblue" d="M676.5,-57.99C673.46,-57.31 670.42,-56.64 667.5,-56 604.52,-42.17 530.79,-26.49 489.58,-17.77"/>
<polygon fill="midnightblue" stroke="midnightblue" points="490.09,-14.3 479.59,-15.66 488.65,-21.15 490.09,-14.3"/>
</g>
<!-- Node12&#45;&gt;Node3 -->
<g id="edge14" class="edge">
<title>Node12&#45;&gt;Node3</title>
<path fill="none" stroke="midnightblue" d="M408.68,-224.38C388.4,-217.65 363.89,-206.3 348.5,-188 309.71,-141.88 282,-104.7 317.5,-56 341.99,-22.4 391.99,-13.34 425.12,-11.19"/>
<polygon fill="midnightblue" stroke="midnightblue" points="425.41,-14.68 435.23,-10.72 425.08,-7.69 425.41,-14.68"/>
</g>
<!-- Node12&#45;&gt;Node4 -->
<g id="edge17" class="edge">
<title>Node12&#45;&gt;Node4</title>
<path fill="none" stroke="midnightblue" d="M510.66,-224.92C580.28,-216.45 692.55,-202.55 799.42,-188.13"/>
<polygon fill="midnightblue" stroke="midnightblue" points="799.97,-191.58 809.41,-186.77 799.03,-184.65 799.97,-191.58"/>
</g>
<!-- Node12&#45;&gt;Node7 -->
<g id="edge26" class="edge">
<title>Node12&#45;&gt;Node7</title>
<path fill="none" stroke="midnightblue" d="M490.39,-224.45C526.05,-217.1 575.9,-204.98 617.5,-188 651.42,-174.15 687.62,-151.83 709.66,-137.28"/>
<polygon fill="midnightblue" stroke="midnightblue" points="711.83,-140.05 718.19,-131.57 707.93,-134.23 711.83,-140.05"/>
</g>
<!-- Node12&#45;&gt;Node11 -->
<g id="edge27" class="edge">
<title>Node12&#45;&gt;Node11</title>
<path fill="none" stroke="midnightblue" d="M464.07,-224.49C500.65,-208.89 578.69,-173.47 637.5,-132 658.12,-117.46 678.95,-97.24 692.47,-83.23"/>
<polygon fill="midnightblue" stroke="midnightblue" points="695.18,-85.46 699.52,-75.79 690.1,-80.64 695.18,-85.46"/>
</g>
<!-- Node13 -->
<g id="node13" class="node">
<title>Node13</title>
<g id="a_node13"><a xlink:title=" ">
<polygon fill="white" stroke="#bfbfbf" points="227,-168.5 227,-187.5 270,-187.5 270,-168.5 227,-168.5"/>
<text text-anchor="middle" x="248.5" y="-175.5" font-family="Helvetica,sans-Serif" font-size="10.00">stack</text>
</a>
</g>
</g>
<!-- Node12&#45;&gt;Node13 -->
<g id="edge15" class="edge">
<title>Node12&#45;&gt;Node13</title>
<path fill="none" stroke="midnightblue" d="M412.6,-224.44C376.44,-214.43 316.85,-197.93 280.3,-187.81"/>
<polygon fill="midnightblue" stroke="midnightblue" points="280.77,-184.3 270.2,-185.01 278.9,-191.05 280.77,-184.3"/>
</g>
<!-- Node14 -->
<g id="node14" class="node">
<title>Node14</title>
<g id="a_node14"><a xlink:title=" ">
<polygon fill="white" stroke="#bfbfbf" points="326.5,-56.5 326.5,-75.5 382.5,-75.5 382.5,-56.5 326.5,-56.5"/>
<text text-anchor="middle" x="354.5" y="-63.5" font-family="Helvetica,sans-Serif" font-size="10.00">sstream</text>
</a>
</g>
</g>
<!-- Node12&#45;&gt;Node14 -->
<g id="edge16" class="edge">
<title>Node12&#45;&gt;Node14</title>
<path fill="none" stroke="midnightblue" d="M412.06,-224.44C393.73,-217.7 372.03,-206.31 360.5,-188 340.78,-156.66 345.34,-111.21 350.12,-85.87"/>
<polygon fill="midnightblue" stroke="midnightblue" points="353.61,-86.27 352.24,-75.77 346.76,-84.83 353.61,-86.27"/>
</g>
<!-- Node15 -->
<g id="node15" class="node">
<title>Node15</title>
<g id="a_node15"><a xlink:href="parseableinput_8h.html" target="_top" xlink:title=" ">
<polygon fill="white" stroke="black" points="502.5,-112.5 502.5,-131.5 628.5,-131.5 628.5,-112.5 502.5,-112.5"/>
<text text-anchor="middle" x="565.5" y="-119.5" font-family="Helvetica,sans-Serif" font-size="10.00">../util/parseableinput.h</text>
</a>
</g>
</g>
<!-- Node12&#45;&gt;Node15 -->
<g id="edge18" class="edge">
<title>Node12&#45;&gt;Node15</title>
<path fill="none" stroke="midnightblue" d="M453.07,-224.37C473.65,-205.81 522.34,-161.91 548.38,-138.44"/>
<polygon fill="midnightblue" stroke="midnightblue" points="550.89,-140.89 555.97,-131.59 546.2,-135.69 550.89,-140.89"/>
</g>
<!-- Node18 -->
<g id="node18" class="node">
<title>Node18</title>
<g id="a_node18"><a xlink:href="parsertable_8h.html" target="_top" xlink:title=" ">
<polygon fill="white" stroke="black" points="403,-112.5 403,-131.5 484,-131.5 484,-112.5 403,-112.5"/>
<text text-anchor="middle" x="443.5" y="-119.5" font-family="Helvetica,sans-Serif" font-size="10.00">parsertable.h</text>
</a>
</g>
</g>
<!-- Node12&#45;&gt;Node18 -->
<g id="edge28" class="edge">
<title>Node12&#45;&gt;Node18</title>
<path fill="none" stroke="midnightblue" d="M443.5,-224.37C443.5,-206.62 443.5,-165.67 443.5,-141.6"/>
<polygon fill="midnightblue" stroke="midnightblue" points="447,-141.59 443.5,-131.59 440,-141.59 447,-141.59"/>
</g>
<!-- Node19 -->
<g id="node19" class="node">
<title>Node19</title>
<g id="a_node19"><a xlink:href="lexer_8h.html" target="_top" xlink:title=" ">
<polygon fill="white" stroke="black" points="160,-168.5 160,-187.5 209,-187.5 209,-168.5 160,-168.5"/>
<text text-anchor="middle" x="184.5" y="-175.5" font-family="Helvetica,sans-Serif" font-size="10.00">lexer.h</text>
</a>
</g>
</g>
<!-- Node12&#45;&gt;Node19 -->
<g id="edge35" class="edge">
<title>Node12&#45;&gt;Node19</title>
<path fill="none" stroke="midnightblue" d="M395.67,-224.48C351.94,-216.46 285.25,-203.67 219.08,-188.26"/>
<polygon fill="midnightblue" stroke="midnightblue" points="219.85,-184.85 209.32,-185.97 218.25,-191.66 219.85,-184.85"/>
</g>
<!-- Node20 -->
<g id="node20" class="node">
<title>Node20</title>
<g id="a_node20"><a xlink:href="token_8h.html" target="_top" xlink:title=" ">
<polygon fill="white" stroke="black" points="158,-112.5 158,-131.5 211,-131.5 211,-112.5 158,-112.5"/>
<text text-anchor="middle" x="184.5" y="-119.5" font-family="Helvetica,sans-Serif" font-size="10.00">token.h</text>
</a>
</g>
</g>
<!-- Node12&#45;&gt;Node20 -->
<g id="edge38" class="edge">
<title>Node12&#45;&gt;Node20</title>
<path fill="none" stroke="midnightblue" d="M376.16,-232.42C298.85,-230.15 178.99,-221.2 150.5,-188 137.76,-173.16 152.54,-152.73 166.41,-138.76"/>
<polygon fill="midnightblue" stroke="midnightblue" points="168.97,-141.16 173.84,-131.74 164.16,-136.07 168.97,-141.16"/>
</g>
<!-- Node15&#45;&gt;Node3 -->
<g id="edge19" class="edge">
<title>Node15&#45;&gt;Node3</title>
<path fill="none" stroke="midnightblue" d="M557.03,-112.37C538.89,-93.89 496.08,-50.29 472.96,-26.74"/>
<polygon fill="midnightblue" stroke="midnightblue" points="475.44,-24.28 465.94,-19.59 470.44,-29.18 475.44,-24.28"/>
</g>
<!-- Node15&#45;&gt;Node8 -->
<g id="edge24" class="edge">
<title>Node15&#45;&gt;Node8</title>
<path fill="none" stroke="midnightblue" d="M564.01,-112.08C562.82,-104.93 561.11,-94.64 559.62,-85.69"/>
<polygon fill="midnightblue" stroke="midnightblue" points="563.05,-85.04 557.96,-75.75 556.15,-86.19 563.05,-85.04"/>
</g>
<!-- Node15&#45;&gt;Node10 -->
<g id="edge20" class="edge">
<title>Node15&#45;&gt;Node10</title>
<path fill="none" stroke="midnightblue" d="M575.62,-112.32C585.03,-104.26 599.24,-92.08 610.57,-82.37"/>
<polygon fill="midnightblue" stroke="midnightblue" points="612.88,-85 618.19,-75.83 608.32,-79.68 612.88,-85"/>
</g>
<!-- Node15&#45;&gt;Node11 -->
<g id="edge25" class="edge">
<title>Node15&#45;&gt;Node11</title>
<path fill="none" stroke="midnightblue" d="M588,-112.44C611.58,-103.48 648.82,-89.31 675.46,-79.18"/>
<polygon fill="midnightblue" stroke="midnightblue" points="677,-82.34 685.1,-75.52 674.51,-75.8 677,-82.34"/>
</g>
<!-- Node15&#45;&gt;Node14 -->
<g id="edge21" class="edge">
<title>Node15&#45;&gt;Node14</title>
<path fill="none" stroke="midnightblue" d="M532.07,-112.44C494.12,-102.73 432.34,-86.92 392.57,-76.74"/>
<polygon fill="midnightblue" stroke="midnightblue" points="393.27,-73.31 382.71,-74.22 391.53,-80.09 393.27,-73.31"/>
</g>
<!-- Node16 -->
<g id="node16" class="node">
<title>Node16</title>
<g id="a_node16"><a xlink:title=" ">
<polygon fill="white" stroke="#bfbfbf" points="438.5,-56.5 438.5,-75.5 476.5,-75.5 476.5,-56.5 438.5,-56.5"/>
<text text-anchor="middle" x="457.5" y="-63.5" font-family="Helvetica,sans-Serif" font-size="10.00">map</text>
</a>
</g>
</g>
<!-- Node15&#45;&gt;Node16 -->
<g id="edge22" class="edge">
<title>Node15&#45;&gt;Node16</title>
<path fill="none" stroke="midnightblue" d="M548.15,-112.32C530.83,-103.66 503.98,-90.24 484,-80.25"/>
<polygon fill="midnightblue" stroke="midnightblue" points="485.32,-77 474.81,-75.65 482.19,-83.26 485.32,-77"/>
</g>
<!-- Node17 -->
<g id="node17" class="node">
<title>Node17</title>
<g id="a_node17"><a xlink:title=" ">
<polygon fill="white" stroke="#bfbfbf" points="959.5,-56.5 959.5,-75.5 991.5,-75.5 991.5,-56.5 959.5,-56.5"/>
<text text-anchor="middle" x="975.5" y="-63.5" font-family="Helvetica,sans-Serif" font-size="10.00">set</text>
</a>
</g>
</g>
<!-- Node15&#45;&gt;Node17 -->
<g id="edge23" class="edge">
<title>Node15&#45;&gt;Node17</title>
<path fill="none" stroke="midnightblue" d="M628.66,-112.68C720.18,-100.63 885.68,-78.83 949.46,-70.43"/>
<polygon fill="midnightblue" stroke="midnightblue" points="950.02,-73.89 959.47,-69.11 949.1,-66.95 950.02,-73.89"/>
</g>
<!-- Node18&#45;&gt;Node3 -->
<g id="edge29" class="edge">
<title>Node18&#45;&gt;Node3</title>
<path fill="none" stroke="midnightblue" d="M439.02,-112.5C433.03,-100 423.79,-75.98 429.5,-56 432.4,-45.84 438.33,-35.75 443.99,-27.7"/>
<polygon fill="midnightblue" stroke="midnightblue" points="446.88,-29.69 450.09,-19.59 441.28,-25.48 446.88,-29.69"/>
</g>
<!-- Node18&#45;&gt;Node8 -->
<g id="edge32" class="edge">
<title>Node18&#45;&gt;Node8</title>
<path fill="none" stroke="midnightblue" d="M461.41,-112.44C479.75,-103.68 508.51,-89.94 529.59,-79.86"/>
<polygon fill="midnightblue" stroke="midnightblue" points="531.17,-82.99 538.68,-75.52 528.15,-76.67 531.17,-82.99"/>
</g>
<!-- Node18&#45;&gt;Node10 -->
<g id="edge33" class="edge">
<title>Node18&#45;&gt;Node10</title>
<path fill="none" stroke="midnightblue" d="M472.81,-112.44C504.34,-103.24 554.63,-88.56 589.49,-78.39"/>
<polygon fill="midnightblue" stroke="midnightblue" points="590.7,-81.68 599.32,-75.52 588.74,-74.96 590.7,-81.68"/>
</g>
<!-- Node18&#45;&gt;Node11 -->
<g id="edge34" class="edge">
<title>Node18&#45;&gt;Node11</title>
<path fill="none" stroke="midnightblue" d="M484.02,-113.15C526.92,-104.78 596.85,-90.94 666.28,-76.23"/>
<polygon fill="midnightblue" stroke="midnightblue" points="667.02,-79.65 676.07,-74.14 665.56,-72.8 667.02,-79.65"/>
</g>
<!-- Node18&#45;&gt;Node14 -->
<g id="edge30" class="edge">
<title>Node18&#45;&gt;Node14</title>
<path fill="none" stroke="midnightblue" d="M429.2,-112.32C415.32,-103.9 394.01,-90.97 377.7,-81.07"/>
<polygon fill="midnightblue" stroke="midnightblue" points="379.13,-77.85 368.76,-75.65 375.5,-83.83 379.13,-77.85"/>
</g>
<!-- Node18&#45;&gt;Node16 -->
<g id="edge31" class="edge">
<title>Node18&#45;&gt;Node16</title>
<path fill="none" stroke="midnightblue" d="M445.81,-112.08C447.67,-104.93 450.34,-94.64 452.65,-85.69"/>
<polygon fill="midnightblue" stroke="midnightblue" points="456.11,-86.31 455.23,-75.75 449.33,-84.55 456.11,-86.31"/>
</g>
<!-- Node19&#45;&gt;Node20 -->
<g id="edge36" class="edge">
<title>Node19&#45;&gt;Node20</title>
<path fill="none" stroke="midnightblue" d="M184.5,-168.08C184.5,-161.01 184.5,-150.86 184.5,-141.99"/>
<polygon fill="midnightblue" stroke="midnightblue" points="188,-141.75 184.5,-131.75 181,-141.75 188,-141.75"/>
</g>
<!-- Node20&#45;&gt;Node3 -->
<g id="edge37" class="edge">
<title>Node20&#45;&gt;Node3</title>
<path fill="none" stroke="midnightblue" d="M195.22,-112.34C212.84,-98.52 249.45,-71.46 284.5,-56 331.33,-35.34 389.63,-22.62 425.18,-16.19"/>
<polygon fill="midnightblue" stroke="midnightblue" points="426.2,-19.56 435.45,-14.39 424.99,-12.67 426.2,-19.56"/>
</g>
<!-- Node21&#45;&gt;Node3 -->
<g id="edge40" class="edge">
<title>Node21&#45;&gt;Node3</title>
<path fill="none" stroke="midnightblue" d="M931.72,-224.46C952.79,-217.24 981.01,-205.28 1001.5,-188 1024.49,-168.61 1030.67,-160.75 1039.5,-132 1050.65,-95.71 1033.4,-74.95 1000.5,-56 956.23,-30.5 599.92,-15.99 489.8,-12.08"/>
<polygon fill="midnightblue" stroke="midnightblue" points="489.76,-8.58 479.64,-11.73 489.51,-15.57 489.76,-8.58"/>
</g>
<!-- Node21&#45;&gt;Node4 -->
<g id="edge45" class="edge">
<title>Node21&#45;&gt;Node4</title>
<path fill="none" stroke="midnightblue" d="M895.89,-224.08C890.24,-216.46 881.96,-205.26 875.05,-195.94"/>
<polygon fill="midnightblue" stroke="midnightblue" points="877.75,-193.7 868.98,-187.75 872.12,-197.87 877.75,-193.7"/>
</g>
<!-- Node21&#45;&gt;Node5 -->
<g id="edge43" class="edge">
<title>Node21&#45;&gt;Node5</title>
<path fill="none" stroke="midnightblue" d="M908.76,-224.32C916.89,-211.99 929.46,-188.62 924.5,-168 922.19,-158.42 917.48,-148.58 912.92,-140.56"/>
<polygon fill="midnightblue" stroke="midnightblue" points="915.79,-138.54 907.6,-131.81 909.81,-142.17 915.79,-138.54"/>
</g>
<!-- Node21&#45;&gt;Node6 -->
<g id="edge44" class="edge">
<title>Node21&#45;&gt;Node6</title>
<path fill="none" stroke="midnightblue" d="M909.91,-224.22C917.37,-215.28 929.07,-200.94 938.5,-188 950.04,-172.16 962.29,-153.44 970.75,-140.16"/>
<polygon fill="midnightblue" stroke="midnightblue" points="973.79,-141.9 976.17,-131.58 967.87,-138.16 973.79,-141.9"/>
</g>
<!-- Node21&#45;&gt;Node14 -->
<g id="edge42" class="edge">
<title>Node21&#45;&gt;Node14</title>
<path fill="none" stroke="midnightblue" d="M830.71,-226.32C707.42,-213.63 462.05,-182.68 393.5,-132 377.66,-120.29 367.01,-100.05 360.9,-85.26"/>
<polygon fill="midnightblue" stroke="midnightblue" points="364.07,-83.76 357.24,-75.66 357.53,-86.25 364.07,-83.76"/>
</g>
<!-- Node21&#45;&gt;Node15 -->
<g id="edge46" class="edge">
<title>Node21&#45;&gt;Node15</title>
<path fill="none" stroke="midnightblue" d="M830.92,-227.55C781.54,-221.93 715.2,-210.61 660.5,-188 630.82,-175.73 600.97,-153.25 582.85,-138.22"/>
<polygon fill="midnightblue" stroke="midnightblue" points="584.85,-135.32 574.96,-131.51 580.31,-140.65 584.85,-135.32"/>
</g>
<!-- Node21&#45;&gt;Node17 -->
<g id="edge41" class="edge">
<title>Node21&#45;&gt;Node17</title>
<path fill="none" stroke="midnightblue" d="M920.98,-224.42C949.52,-210 1003.24,-177.91 1024.5,-132 1033.35,-112.89 1015.29,-94 998.65,-81.55"/>
<polygon fill="midnightblue" stroke="midnightblue" points="1000.43,-78.53 990.23,-75.66 996.42,-84.26 1000.43,-78.53"/>
</g>
<!-- Node22&#45;&gt;Node7 -->
<g id="edge48" class="edge">
<title>Node22&#45;&gt;Node7</title>
<path fill="none" stroke="midnightblue" d="M730.5,-168.08C730.5,-161.01 730.5,-150.86 730.5,-141.99"/>
<polygon fill="midnightblue" stroke="midnightblue" points="734,-141.75 730.5,-131.75 727,-141.75 734,-141.75"/>
</g>
<!-- Node22&#45;&gt;Node11 -->
<g id="edge49" class="edge">
<title>Node22&#45;&gt;Node11</title>
<path fill="none" stroke="midnightblue" d="M747.42,-168.32C767.99,-156.55 798.44,-134.4 785.5,-112 776.82,-96.98 761.01,-86.52 745.88,-79.5"/>
<polygon fill="midnightblue" stroke="midnightblue" points="747.19,-76.25 736.62,-75.56 744.45,-82.69 747.19,-76.25"/>
</g>
</g>
</svg>
        <g id="navigator" transform="translate(0 0)" fill="#404254">
                <rect fill="#f2f5e9" fill-opacity="0.5" stroke="#606060" stroke-width=".5" x="0" y="0" width="60" height="60"/>
                <use id="zoomplus" xlink:href="#zoomPlus" x="17" y="9" onmousedown="handleZoom(evt,'in')"/>
                <use id="zoomminus" xlink:href="#zoomMin" x="42" y="9" onmousedown="handleZoom(evt,'out')"/>
                <use id="reset" xlink:href="#resetDef" x="30" y="36" onmousedown="handleReset()"/>
                <g id="arrowUp" xlink:href="#dirArrow" transform="translate(30 24)" onmousedown="handlePan(0,-1)">
                  <use xlink:href="#rim" fill="#404040">
                        <set attributeName="fill" to="#808080" begin="arrowUp.mouseover" end="arrowUp.mouseout"/>
                  </use>
                  <path fill="none" stroke="white" stroke-width="1.5" d="M0,-3.0v7 M-2.5,-0.5L0,-3.0L2.5,-0.5"/>
                </g>
                <g id="arrowRight" xlink:href="#dirArrow" transform="rotate(90) translate(36 -43)" onmousedown="handlePan(1,0)">
                  <use xlink:href="#rim" fill="#404040">
                        <set attributeName="fill" to="#808080" begin="arrowRight.mouseover" end="arrowRight.mouseout"/>
                  </use>
                  <path fill="none" stroke="white" stroke-width="1.5" d="M0,-3.0v7 M-2.5,-0.5L0,-3.0L2.5,-0.5"/>
                </g>
                <g id="arrowDown" xlink:href="#dirArrow" transform="rotate(180) translate(-30 -48)" onmousedown="handlePan(0,1)">
                  <use xlink:href="#rim" fill="#404040">
                        <set attributeName="fill" to="#808080" begin="arrowDown.mouseover" end="arrowDown.mouseout"/>
                  </use>
                  <path fill="none" stroke="white" stroke-width="1.5" d="M0,-3.0v7 M-2.5,-0.5L0,-3.0L2.5,-0.5"/>
                </g>
                <g id="arrowLeft" xlink:href="#dirArrow" transform="rotate(270) translate(-36 17)" onmousedown="handlePan(-1,0)">
                  <use xlink:href="#rim" fill="#404040">
                        <set attributeName="fill" to="#808080" begin="arrowLeft.mouseover" end="arrowLeft.mouseout"/>
                  </use>
                  <path fill="none" stroke="white" stroke-width="1.5" d="M0,-3.0v7 M-2.5,-0.5L0,-3.0L2.5,-0.5"/>
                </g>
        </g>
        <svg viewBox="0 0 15 15" width="100%" height="30px" preserveAspectRatio="xMaxYMin meet">
         <g id="arrow_out" transform="scale(0.3 0.3)">
          <a xlink:href="factory_8h__incl_org.svg" target="_base">
           <rect id="button" ry="5" rx="5" y="6" x="6" height="38" width="38"
                fill="#f2f5e9" fill-opacity="0.5" stroke="#606060" stroke-width="1.0"/>
           <path id="arrow"
             d="M 11.500037,31.436501 C 11.940474,20.09759 22.043105,11.32322 32.158766,21.979434 L 37.068811,17.246167 C 37.068811,17.246167 37.088388,32 37.088388,32 L 22.160133,31.978069 C 22.160133,31.978069 26.997745,27.140456 26.997745,27.140456 C 18.528582,18.264221 13.291696,25.230495 11.500037,31.436501 z"
             style="fill:#404040;"/>
          </a>
         </g>
        </svg>
</svg>
