<?xml version="1.0" encoding="UTF-8" standalone="no"?>
<!DOCTYPE svg PUBLIC "-//W3C//DTD SVG 1.1//EN"
 "http://www.w3.org/Graphics/SVG/1.1/DTD/svg11.dtd">
<!-- Generated by graphviz version 2.43.0 (0)
 -->
<!-- Title: Graphical Class Hierarchy Pages: 1 -->
<svg width="341pt" height="104pt"
 viewBox="0.00 0.00 341.00 104.00" xmlns="http://www.w3.org/2000/svg" xmlns:xlink="http://www.w3.org/1999/xlink">
<g id="graph0" class="graph" transform="scale(1 1) rotate(0) translate(4 100)">
<title>Graphical Class Hierarchy</title>
<polygon fill="white" stroke="transparent" points="-4,4 -4,-100 337,-100 337,4 -4,4"/>
<!-- Node0 -->
<g id="node1" class="node">
<title>Node0</title>
<g id="a_node1"><a xlink:href="class_parse_gen_1_1_g_u_i_1_1_node.html" target="_top" xlink:title=" ">
<polygon fill="white" stroke="black" points="0,-38.5 0,-57.5 118,-57.5 118,-38.5 0,-38.5"/>
<text text-anchor="middle" x="59" y="-45.5" font-family="Helvetica,sans-Serif" font-size="10.00">ParseGen::GUI::Node</text>
</a>
</g>
</g>
<!-- Node1 -->
<g id="node2" class="node">
<title>Node1</title>
<g id="a_node2"><a xlink:href="class_parse_gen_1_1_g_u_i_1_1_non_terminal_node.html" target="_top" xlink:title=" ">
<polygon fill="white" stroke="black" points="154,-76.5 154,-95.5 333,-95.5 333,-76.5 154,-76.5"/>
<text text-anchor="middle" x="243.5" y="-83.5" font-family="Helvetica,sans-Serif" font-size="10.00">ParseGen::GUI::NonTerminalNode</text>
</a>
</g>
</g>
<!-- Node0&#45;&gt;Node1 -->
<g id="edge1" class="edge">
<title>Node0&#45;&gt;Node1</title>
<path fill="none" stroke="midnightblue" d="M116.1,-59.68C141.98,-65.07 172.31,-71.39 196.78,-76.48"/>
<polygon fill="midnightblue" stroke="midnightblue" points="116.56,-56.2 106.05,-57.59 115.13,-63.05 116.56,-56.2"/>
</g>
<!-- Node2 -->
<g id="node3" class="node">
<title>Node2</title>
<g id="a_node3"><a xlink:href="class_parse_gen_1_1_g_u_i_1_1_special_node.html" target="_top" xlink:title=" ">
<polygon fill="white" stroke="black" points="167,-38.5 167,-57.5 320,-57.5 320,-38.5 167,-38.5"/>
<text text-anchor="middle" x="243.5" y="-45.5" font-family="Helvetica,sans-Serif" font-size="10.00">ParseGen::GUI::SpecialNode</text>
</a>
</g>
</g>
<!-- Node0&#45;&gt;Node2 -->
<g id="edge2" class="edge">
<title>Node0&#45;&gt;Node2</title>
<path fill="none" stroke="midnightblue" d="M128.56,-48C141.04,-48 154.13,-48 166.8,-48"/>
<polygon fill="midnightblue" stroke="midnightblue" points="128.25,-44.5 118.25,-48 128.25,-51.5 128.25,-44.5"/>
</g>
<!-- Node3 -->
<g id="node4" class="node">
<title>Node3</title>
<g id="a_node4"><a xlink:href="class_parse_gen_1_1_g_u_i_1_1_terminal_node.html" target="_top" xlink:title=" ">
<polygon fill="white" stroke="black" points="163.5,-0.5 163.5,-19.5 323.5,-19.5 323.5,-0.5 163.5,-0.5"/>
<text text-anchor="middle" x="243.5" y="-7.5" font-family="Helvetica,sans-Serif" font-size="10.00">ParseGen::GUI::TerminalNode</text>
</a>
</g>
</g>
<!-- Node0&#45;&gt;Node3 -->
<g id="edge3" class="edge">
<title>Node0&#45;&gt;Node3</title>
<path fill="none" stroke="midnightblue" d="M116.1,-36.32C141.98,-30.93 172.31,-24.61 196.78,-19.52"/>
<polygon fill="midnightblue" stroke="midnightblue" points="115.13,-32.95 106.05,-38.41 116.56,-39.8 115.13,-32.95"/>
</g>
</g>
</svg>
