<?xml version="1.0" encoding="UTF-8" standalone="no"?>
<!DOCTYPE svg PUBLIC "-//W3C//DTD SVG 1.1//EN"
 "http://www.w3.org/Graphics/SVG/1.1/DTD/svg11.dtd">
<!-- Generated by graphviz version 2.43.0 (0)
 -->
<!-- Title: /root/fyp/project/src/parsergenerator/iparsergenerator.h Pages: 1 -->
<svg width="468pt" height="251pt"
 viewBox="0.00 0.00 467.50 251.00" xmlns="http://www.w3.org/2000/svg" xmlns:xlink="http://www.w3.org/1999/xlink">
<g id="graph0" class="graph" transform="scale(1 1) rotate(0) translate(4 247)">
<title>/root/fyp/project/src/parsergenerator/iparsergenerator.h</title>
<polygon fill="white" stroke="transparent" points="-4,4 -4,-247 463.5,-247 463.5,4 -4,4"/>
<!-- Node1 -->
<g id="node1" class="node">
<title>Node1</title>
<g id="a_node1"><a xlink:title=" ">
<polygon fill="#bfbfbf" stroke="black" points="98.5,-212.5 98.5,-242.5 288.5,-242.5 288.5,-212.5 98.5,-212.5"/>
<text text-anchor="start" x="106.5" y="-230.5" font-family="Helvetica,sans-Serif" font-size="10.00">/root/fyp/project/src</text>
<text text-anchor="middle" x="193.5" y="-219.5" font-family="Helvetica,sans-Serif" font-size="10.00">/parsergenerator/iparsergenerator.h</text>
</a>
</g>
</g>
<!-- Node2 -->
<g id="node2" class="node">
<title>Node2</title>
<g id="a_node2"><a xlink:href="maingui_8h.html" target="_top" xlink:title=" ">
<polygon fill="white" stroke="black" points="8,-140 8,-170 119,-170 119,-140 8,-140"/>
<text text-anchor="start" x="16" y="-158" font-family="Helvetica,sans-Serif" font-size="10.00">/root/fyp/project/src</text>
<text text-anchor="middle" x="63.5" y="-147" font-family="Helvetica,sans-Serif" font-size="10.00">/maingui.h</text>
</a>
</g>
</g>
<!-- Node1&#45;&gt;Node2 -->
<g id="edge1" class="edge">
<title>Node1&#45;&gt;Node2</title>
<path fill="none" stroke="midnightblue" d="M158.57,-207.56C136.81,-195.76 109.28,-180.83 89.45,-170.07"/>
<polygon fill="midnightblue" stroke="midnightblue" points="157.05,-210.71 167.51,-212.4 160.38,-204.56 157.05,-210.71"/>
</g>
<!-- Node5 -->
<g id="node5" class="node">
<title>Node5</title>
<g id="a_node5"><a xlink:href="factory_8h.html" target="_top" xlink:title=" ">
<polygon fill="white" stroke="black" points="168,-67.5 168,-97.5 311,-97.5 311,-67.5 168,-67.5"/>
<text text-anchor="start" x="176" y="-85.5" font-family="Helvetica,sans-Serif" font-size="10.00">/root/fyp/project/src</text>
<text text-anchor="middle" x="239.5" y="-74.5" font-family="Helvetica,sans-Serif" font-size="10.00">/parsergenerator/factory.h</text>
</a>
</g>
</g>
<!-- Node1&#45;&gt;Node5 -->
<g id="edge4" class="edge">
<title>Node1&#45;&gt;Node5</title>
<path fill="none" stroke="midnightblue" d="M177.54,-203.64C166.18,-184.31 154.82,-156.28 166.5,-134 174.94,-117.89 191.11,-105.91 206.09,-97.66"/>
<polygon fill="midnightblue" stroke="midnightblue" points="174.74,-205.76 183.02,-212.37 180.67,-202.04 174.74,-205.76"/>
</g>
<!-- Node6 -->
<g id="node6" class="node">
<title>Node6</title>
<g id="a_node6"><a xlink:href="llpred_2parsergenerator_8h.html" target="_top" xlink:title=" ">
<polygon fill="white" stroke="black" points="175.5,-134.5 175.5,-175.5 303.5,-175.5 303.5,-134.5 175.5,-134.5"/>
<text text-anchor="start" x="183.5" y="-163.5" font-family="Helvetica,sans-Serif" font-size="10.00">/root/fyp/project/src</text>
<text text-anchor="start" x="183.5" y="-152.5" font-family="Helvetica,sans-Serif" font-size="10.00">/parsergenerator/llpred</text>
<text text-anchor="middle" x="239.5" y="-141.5" font-family="Helvetica,sans-Serif" font-size="10.00">/parsergenerator.h</text>
</a>
</g>
</g>
<!-- Node1&#45;&gt;Node6 -->
<g id="edge6" class="edge">
<title>Node1&#45;&gt;Node6</title>
<path fill="none" stroke="midnightblue" d="M208.38,-203.7C214.29,-194.63 221.03,-184.31 226.72,-175.59"/>
<polygon fill="midnightblue" stroke="midnightblue" points="205.34,-201.95 202.81,-212.23 211.2,-205.77 205.34,-201.95"/>
</g>
<!-- Node7 -->
<g id="node7" class="node">
<title>Node7</title>
<g id="a_node7"><a xlink:href="lexyacc_2parsergenerator_8h.html" target="_top" xlink:title=" ">
<polygon fill="white" stroke="black" points="321.5,-134.5 321.5,-175.5 459.5,-175.5 459.5,-134.5 321.5,-134.5"/>
<text text-anchor="start" x="329.5" y="-163.5" font-family="Helvetica,sans-Serif" font-size="10.00">/root/fyp/project/src</text>
<text text-anchor="start" x="329.5" y="-152.5" font-family="Helvetica,sans-Serif" font-size="10.00">/parsergenerator/lexyacc</text>
<text text-anchor="middle" x="390.5" y="-141.5" font-family="Helvetica,sans-Serif" font-size="10.00">/parsergenerator.h</text>
</a>
</g>
</g>
<!-- Node1&#45;&gt;Node7 -->
<g id="edge8" class="edge">
<title>Node1&#45;&gt;Node7</title>
<path fill="none" stroke="midnightblue" d="M242.59,-208.93C270.93,-198.79 306.65,-186.01 335.88,-175.55"/>
<polygon fill="midnightblue" stroke="midnightblue" points="241.13,-205.74 232.89,-212.4 243.49,-212.33 241.13,-205.74"/>
</g>
<!-- Node3 -->
<g id="node3" class="node">
<title>Node3</title>
<g id="a_node3"><a xlink:href="main_8cpp.html" target="_top" xlink:title=" ">
<polygon fill="white" stroke="black" points="0,-67.5 0,-97.5 111,-97.5 111,-67.5 0,-67.5"/>
<text text-anchor="start" x="8" y="-85.5" font-family="Helvetica,sans-Serif" font-size="10.00">/root/fyp/project/src</text>
<text text-anchor="middle" x="55.5" y="-74.5" font-family="Helvetica,sans-Serif" font-size="10.00">/main.cpp</text>
</a>
</g>
</g>
<!-- Node2&#45;&gt;Node3 -->
<g id="edge2" class="edge">
<title>Node2&#45;&gt;Node3</title>
<path fill="none" stroke="midnightblue" d="M60.75,-129.73C59.54,-119.07 58.16,-106.91 57.12,-97.75"/>
<polygon fill="midnightblue" stroke="midnightblue" points="57.28,-130.19 61.88,-139.73 64.23,-129.4 57.28,-130.19"/>
</g>
<!-- Node4 -->
<g id="node4" class="node">
<title>Node4</title>
<g id="a_node4"><a xlink:href="maingui_8cpp.html" target="_top" xlink:title=" ">
<polygon fill="white" stroke="black" points="134,-0.5 134,-30.5 245,-30.5 245,-0.5 134,-0.5"/>
<text text-anchor="start" x="142" y="-18.5" font-family="Helvetica,sans-Serif" font-size="10.00">/root/fyp/project/src</text>
<text text-anchor="middle" x="189.5" y="-7.5" font-family="Helvetica,sans-Serif" font-size="10.00">/maingui.cpp</text>
</a>
</g>
</g>
<!-- Node2&#45;&gt;Node4 -->
<g id="edge3" class="edge">
<title>Node2&#45;&gt;Node4</title>
<path fill="none" stroke="midnightblue" d="M85.73,-132.54C96.17,-122.26 108.67,-109.68 119.5,-98 140.8,-75.02 164.29,-47.1 177.92,-30.62"/>
<polygon fill="midnightblue" stroke="midnightblue" points="83.25,-130.07 78.55,-139.56 88.15,-135.07 83.25,-130.07"/>
</g>
<!-- Node5&#45;&gt;Node4 -->
<g id="edge5" class="edge">
<title>Node5&#45;&gt;Node4</title>
<path fill="none" stroke="midnightblue" d="M222.54,-59.45C215.19,-49.9 206.81,-39 200.33,-30.58"/>
<polygon fill="midnightblue" stroke="midnightblue" points="219.78,-61.6 228.65,-67.4 225.33,-57.34 219.78,-61.6"/>
</g>
<!-- Node6&#45;&gt;Node5 -->
<g id="edge7" class="edge">
<title>Node6&#45;&gt;Node5</title>
<path fill="none" stroke="midnightblue" d="M239.5,-124.08C239.5,-115.01 239.5,-105.45 239.5,-97.89"/>
<polygon fill="midnightblue" stroke="midnightblue" points="236,-124.36 239.5,-134.36 243,-124.36 236,-124.36"/>
</g>
<!-- Node7&#45;&gt;Node5 -->
<g id="edge9" class="edge">
<title>Node7&#45;&gt;Node5</title>
<path fill="none" stroke="midnightblue" d="M339.13,-130.02C316.08,-119.25 289.68,-106.93 269.85,-97.67"/>
<polygon fill="midnightblue" stroke="midnightblue" points="337.9,-133.3 348.44,-134.36 340.86,-126.96 337.9,-133.3"/>
</g>
</g>
</svg>
