<?xml version="1.0" encoding="UTF-8" standalone="no"?>
<!DOCTYPE svg PUBLIC "-//W3C//DTD SVG 1.1//EN"
 "http://www.w3.org/Graphics/SVG/1.1/DTD/svg11.dtd">
<!-- Generated by graphviz version 2.43.0 (0)
 -->
<!-- Title: /root/fyp/project/src/parsergenerator/llpred/parsergenerator.h Pages: 1 -->
<svg width="814pt" height="274pt"
 viewBox="0.00 0.00 814.48 274.00" xmlns="http://www.w3.org/2000/svg" xmlns:xlink="http://www.w3.org/1999/xlink">
<g id="graph0" class="graph" transform="scale(1 1) rotate(0) translate(4 270)">
<title>/root/fyp/project/src/parsergenerator/llpred/parsergenerator.h</title>
<polygon fill="white" stroke="transparent" points="-4,4 -4,-270 810.48,-270 810.48,4 -4,4"/>
<!-- Node1 -->
<g id="node1" class="node">
<title>Node1</title>
<g id="a_node1"><a xlink:title=" ">
<polygon fill="#bfbfbf" stroke="black" points="428.98,-224.5 428.98,-265.5 556.98,-265.5 556.98,-224.5 428.98,-224.5"/>
<text text-anchor="start" x="436.98" y="-253.5" font-family="Helvetica,sans-Serif" font-size="10.00">/root/fyp/project/src</text>
<text text-anchor="start" x="436.98" y="-242.5" font-family="Helvetica,sans-Serif" font-size="10.00">/parsergenerator/llpred</text>
<text text-anchor="middle" x="492.98" y="-231.5" font-family="Helvetica,sans-Serif" font-size="10.00">/parsergenerator.h</text>
</a>
</g>
</g>
<!-- Node2 -->
<g id="node2" class="node">
<title>Node2</title>
<g id="a_node2"><a xlink:title=" ">
<polygon fill="white" stroke="#bfbfbf" points="352.98,-0.5 352.98,-19.5 396.98,-19.5 396.98,-0.5 352.98,-0.5"/>
<text text-anchor="middle" x="374.98" y="-7.5" font-family="Helvetica,sans-Serif" font-size="10.00">string</text>
</a>
</g>
</g>
<!-- Node1&#45;&gt;Node2 -->
<g id="edge1" class="edge">
<title>Node1&#45;&gt;Node2</title>
<path fill="none" stroke="midnightblue" d="M428.87,-244.59C346.58,-243.26 200.75,-233.8 85.98,-188 46.34,-172.18 27.46,-169.97 7.98,-132 -26.04,-65.7 63.44,-74.44 118.98,-56 196.98,-30.1 293.57,-18.27 342.82,-13.61"/>
<polygon fill="midnightblue" stroke="midnightblue" points="343.23,-17.09 352.87,-12.69 342.59,-10.11 343.23,-17.09"/>
</g>
<!-- Node3 -->
<g id="node3" class="node">
<title>Node3</title>
<g id="a_node3"><a xlink:title=" ">
<polygon fill="white" stroke="#bfbfbf" points="763.48,-168.5 763.48,-187.5 806.48,-187.5 806.48,-168.5 763.48,-168.5"/>
<text text-anchor="middle" x="784.98" y="-175.5" font-family="Helvetica,sans-Serif" font-size="10.00">stack</text>
</a>
</g>
</g>
<!-- Node1&#45;&gt;Node3 -->
<g id="edge2" class="edge">
<title>Node1&#45;&gt;Node3</title>
<path fill="none" stroke="midnightblue" d="M557.11,-231.8C608.07,-221.76 681.33,-206.56 753.67,-188.19"/>
<polygon fill="midnightblue" stroke="midnightblue" points="754.58,-191.57 763.4,-185.7 752.85,-184.79 754.58,-191.57"/>
</g>
<!-- Node4 -->
<g id="node4" class="node">
<title>Node4</title>
<g id="a_node4"><a xlink:title=" ">
<polygon fill="white" stroke="#bfbfbf" points="598.98,-56.5 598.98,-75.5 654.98,-75.5 654.98,-56.5 598.98,-56.5"/>
<text text-anchor="middle" x="626.98" y="-63.5" font-family="Helvetica,sans-Serif" font-size="10.00">sstream</text>
</a>
</g>
</g>
<!-- Node1&#45;&gt;Node4 -->
<g id="edge3" class="edge">
<title>Node1&#45;&gt;Node4</title>
<path fill="none" stroke="midnightblue" d="M521.5,-224.48C548.61,-204.42 588.48,-170.71 610.98,-132 619.28,-117.71 623.29,-99.24 625.22,-85.65"/>
<polygon fill="midnightblue" stroke="midnightblue" points="628.72,-85.91 626.4,-75.57 621.76,-85.1 628.72,-85.91"/>
</g>
<!-- Node5 -->
<g id="node5" class="node">
<title>Node5</title>
<g id="a_node5"><a xlink:href="iparsergenerator_8h.html" target="_top" xlink:title=" ">
<polygon fill="white" stroke="black" points="95.48,-168.5 95.48,-187.5 210.48,-187.5 210.48,-168.5 95.48,-168.5"/>
<text text-anchor="middle" x="152.98" y="-175.5" font-family="Helvetica,sans-Serif" font-size="10.00">../iparsergenerator.h</text>
</a>
</g>
</g>
<!-- Node1&#45;&gt;Node5 -->
<g id="edge4" class="edge">
<title>Node1&#45;&gt;Node5</title>
<path fill="none" stroke="midnightblue" d="M428.62,-231.7C364.75,-219.49 267.89,-200.97 207.63,-189.45"/>
<polygon fill="midnightblue" stroke="midnightblue" points="208.04,-185.96 197.56,-187.52 206.72,-192.84 208.04,-185.96"/>
</g>
<!-- Node8 -->
<g id="node8" class="node">
<title>Node8</title>
<g id="a_node8"><a xlink:href="parsetree_8h.html" target="_top" xlink:title=" ">
<polygon fill="white" stroke="black" points="267.48,-112.5 267.48,-131.5 358.48,-131.5 358.48,-112.5 267.48,-112.5"/>
<text text-anchor="middle" x="312.98" y="-119.5" font-family="Helvetica,sans-Serif" font-size="10.00">util/parsetree.h</text>
</a>
</g>
</g>
<!-- Node1&#45;&gt;Node8 -->
<g id="edge22" class="edge">
<title>Node1&#45;&gt;Node8</title>
<path fill="none" stroke="midnightblue" d="M463.65,-224.29C427.39,-199.91 366.51,-158.99 334.36,-137.38"/>
<polygon fill="midnightblue" stroke="midnightblue" points="335.98,-134.25 325.73,-131.57 332.08,-140.06 335.98,-134.25"/>
</g>
<!-- Node12 -->
<g id="node12" class="node">
<title>Node12</title>
<g id="a_node12"><a xlink:href="symbol_8h.html" target="_top" xlink:title=" ">
<polygon fill="white" stroke="black" points="242.98,-56.5 242.98,-75.5 304.98,-75.5 304.98,-56.5 242.98,-56.5"/>
<text text-anchor="middle" x="273.98" y="-63.5" font-family="Helvetica,sans-Serif" font-size="10.00">symbol.h</text>
</a>
</g>
</g>
<!-- Node1&#45;&gt;Node12 -->
<g id="edge23" class="edge">
<title>Node1&#45;&gt;Node12</title>
<path fill="none" stroke="midnightblue" d="M428.75,-232.92C372.87,-219.53 295.18,-190.95 257.98,-132 248.89,-117.61 255.44,-98.41 262.7,-84.61"/>
<polygon fill="midnightblue" stroke="midnightblue" points="265.9,-86.07 267.91,-75.67 259.85,-82.55 265.9,-86.07"/>
</g>
<!-- Node13 -->
<g id="node13" class="node">
<title>Node13</title>
<g id="a_node13"><a xlink:href="parseableinput_8h.html" target="_top" xlink:title=" ">
<polygon fill="white" stroke="black" points="475.98,-112.5 475.98,-131.5 601.98,-131.5 601.98,-112.5 475.98,-112.5"/>
<text text-anchor="middle" x="538.98" y="-119.5" font-family="Helvetica,sans-Serif" font-size="10.00">../util/parseableinput.h</text>
</a>
</g>
</g>
<!-- Node1&#45;&gt;Node13 -->
<g id="edge14" class="edge">
<title>Node1&#45;&gt;Node13</title>
<path fill="none" stroke="midnightblue" d="M500.47,-224.29C509.22,-201.27 523.58,-163.5 532.07,-141.17"/>
<polygon fill="midnightblue" stroke="midnightblue" points="535.43,-142.17 535.72,-131.57 528.89,-139.68 535.43,-142.17"/>
</g>
<!-- Node16 -->
<g id="node16" class="node">
<title>Node16</title>
<g id="a_node16"><a xlink:href="parsertable_8h.html" target="_top" xlink:title=" ">
<polygon fill="white" stroke="black" points="376.48,-112.5 376.48,-131.5 457.48,-131.5 457.48,-112.5 376.48,-112.5"/>
<text text-anchor="middle" x="416.98" y="-119.5" font-family="Helvetica,sans-Serif" font-size="10.00">parsertable.h</text>
</a>
</g>
</g>
<!-- Node1&#45;&gt;Node16 -->
<g id="edge24" class="edge">
<title>Node1&#45;&gt;Node16</title>
<path fill="none" stroke="midnightblue" d="M480.6,-224.29C465.94,-200.96 441.77,-162.47 427.82,-140.26"/>
<polygon fill="midnightblue" stroke="midnightblue" points="430.64,-138.18 422.36,-131.57 424.72,-141.9 430.64,-138.18"/>
</g>
<!-- Node17 -->
<g id="node17" class="node">
<title>Node17</title>
<g id="a_node17"><a xlink:href="lexer_8h.html" target="_top" xlink:title=" ">
<polygon fill="white" stroke="black" points="696.48,-168.5 696.48,-187.5 745.48,-187.5 745.48,-168.5 696.48,-168.5"/>
<text text-anchor="middle" x="720.98" y="-175.5" font-family="Helvetica,sans-Serif" font-size="10.00">lexer.h</text>
</a>
</g>
</g>
<!-- Node1&#45;&gt;Node17 -->
<g id="edge31" class="edge">
<title>Node1&#45;&gt;Node17</title>
<path fill="none" stroke="midnightblue" d="M557.09,-225.72C598.99,-213.78 652.08,-198.64 686.29,-188.89"/>
<polygon fill="midnightblue" stroke="midnightblue" points="687.61,-192.15 696.27,-186.04 685.69,-185.42 687.61,-192.15"/>
</g>
<!-- Node18 -->
<g id="node18" class="node">
<title>Node18</title>
<g id="a_node18"><a xlink:href="token_8h.html" target="_top" xlink:title=" ">
<polygon fill="white" stroke="black" points="694.48,-112.5 694.48,-131.5 747.48,-131.5 747.48,-112.5 694.48,-112.5"/>
<text text-anchor="middle" x="720.98" y="-119.5" font-family="Helvetica,sans-Serif" font-size="10.00">token.h</text>
</a>
</g>
</g>
<!-- Node1&#45;&gt;Node18 -->
<g id="edge34" class="edge">
<title>Node1&#45;&gt;Node18</title>
<path fill="none" stroke="midnightblue" d="M557.25,-225.63C584.93,-216.36 617.05,-203.71 643.98,-188 667.43,-174.31 690.76,-153.32 705.48,-138.92"/>
<polygon fill="midnightblue" stroke="midnightblue" points="708.13,-141.23 712.73,-131.68 703.18,-136.28 708.13,-141.23"/>
</g>
<!-- Node5&#45;&gt;Node2 -->
<g id="edge7" class="edge">
<title>Node5&#45;&gt;Node2</title>
<path fill="none" stroke="midnightblue" d="M147.29,-168.19C134.01,-146.42 104.16,-89.44 131.98,-56 158.44,-24.18 283.01,-14.76 342.8,-12.05"/>
<polygon fill="midnightblue" stroke="midnightblue" points="342.99,-15.55 352.84,-11.64 342.7,-8.56 342.99,-15.55"/>
</g>
<!-- Node6 -->
<g id="node6" class="node">
<title>Node6</title>
<g id="a_node6"><a xlink:title=" ">
<polygon fill="white" stroke="#bfbfbf" points="141.48,-112.5 141.48,-131.5 196.48,-131.5 196.48,-112.5 141.48,-112.5"/>
<text text-anchor="middle" x="168.98" y="-119.5" font-family="Helvetica,sans-Serif" font-size="10.00">fstream</text>
</a>
</g>
</g>
<!-- Node5&#45;&gt;Node6 -->
<g id="edge5" class="edge">
<title>Node5&#45;&gt;Node6</title>
<path fill="none" stroke="midnightblue" d="M155.62,-168.08C157.76,-160.85 160.85,-150.41 163.52,-141.4"/>
<polygon fill="midnightblue" stroke="midnightblue" points="166.9,-142.33 166.38,-131.75 160.19,-140.34 166.9,-142.33"/>
</g>
<!-- Node7 -->
<g id="node7" class="node">
<title>Node7</title>
<g id="a_node7"><a xlink:title=" ">
<polygon fill="white" stroke="#bfbfbf" points="16.98,-112.5 16.98,-131.5 84.98,-131.5 84.98,-112.5 16.98,-112.5"/>
<text text-anchor="middle" x="50.98" y="-119.5" font-family="Helvetica,sans-Serif" font-size="10.00">filesystem</text>
</a>
</g>
</g>
<!-- Node5&#45;&gt;Node7 -->
<g id="edge6" class="edge">
<title>Node5&#45;&gt;Node7</title>
<path fill="none" stroke="midnightblue" d="M136.59,-168.32C120.3,-159.7 95.11,-146.36 76.26,-136.39"/>
<polygon fill="midnightblue" stroke="midnightblue" points="77.8,-133.24 67.32,-131.65 74.52,-139.43 77.8,-133.24"/>
</g>
<!-- Node5&#45;&gt;Node8 -->
<g id="edge8" class="edge">
<title>Node5&#45;&gt;Node8</title>
<path fill="none" stroke="midnightblue" d="M178.33,-168.44C205.24,-159.36 247.97,-144.94 278.06,-134.78"/>
<polygon fill="midnightblue" stroke="midnightblue" points="279.39,-138.03 287.74,-131.52 277.15,-131.4 279.39,-138.03"/>
</g>
<!-- Node9 -->
<g id="node9" class="node">
<title>Node9</title>
<g id="a_node9"><a xlink:title=" ">
<polygon fill="white" stroke="#bfbfbf" points="323.48,-56.5 323.48,-75.5 370.48,-75.5 370.48,-56.5 323.48,-56.5"/>
<text text-anchor="middle" x="346.98" y="-63.5" font-family="Helvetica,sans-Serif" font-size="10.00">vector</text>
</a>
</g>
</g>
<!-- Node8&#45;&gt;Node9 -->
<g id="edge9" class="edge">
<title>Node8&#45;&gt;Node9</title>
<path fill="none" stroke="midnightblue" d="M318.59,-112.08C323.34,-104.53 330.29,-93.49 336.13,-84.23"/>
<polygon fill="midnightblue" stroke="midnightblue" points="339.1,-86.08 341.47,-75.75 333.18,-82.35 339.1,-86.08"/>
</g>
<!-- Node10 -->
<g id="node10" class="node">
<title>Node10</title>
<g id="a_node10"><a xlink:title=" ">
<polygon fill="white" stroke="#bfbfbf" points="141.48,-56.5 141.48,-75.5 224.48,-75.5 224.48,-56.5 141.48,-56.5"/>
<text text-anchor="middle" x="182.98" y="-63.5" font-family="Helvetica,sans-Serif" font-size="10.00">initializer_list</text>
</a>
</g>
</g>
<!-- Node8&#45;&gt;Node10 -->
<g id="edge10" class="edge">
<title>Node8&#45;&gt;Node10</title>
<path fill="none" stroke="midnightblue" d="M292.38,-112.44C270.98,-103.56 237.29,-89.56 212.95,-79.45"/>
<polygon fill="midnightblue" stroke="midnightblue" points="214.06,-76.12 203.48,-75.52 211.37,-82.58 214.06,-76.12"/>
</g>
<!-- Node11 -->
<g id="node11" class="node">
<title>Node11</title>
<g id="a_node11"><a xlink:title=" ">
<polygon fill="white" stroke="#bfbfbf" points="388.98,-56.5 388.98,-75.5 448.98,-75.5 448.98,-56.5 388.98,-56.5"/>
<text text-anchor="middle" x="418.98" y="-63.5" font-family="Helvetica,sans-Serif" font-size="10.00">iostream</text>
</a>
</g>
</g>
<!-- Node8&#45;&gt;Node11 -->
<g id="edge11" class="edge">
<title>Node8&#45;&gt;Node11</title>
<path fill="none" stroke="midnightblue" d="M330.01,-112.32C347.01,-103.66 373.35,-90.24 392.97,-80.25"/>
<polygon fill="midnightblue" stroke="midnightblue" points="394.67,-83.31 401.99,-75.65 391.49,-77.08 394.67,-83.31"/>
</g>
<!-- Node8&#45;&gt;Node12 -->
<g id="edge12" class="edge">
<title>Node8&#45;&gt;Node12</title>
<path fill="none" stroke="midnightblue" d="M306.54,-112.08C301.03,-104.46 292.94,-93.26 286.21,-83.94"/>
<polygon fill="midnightblue" stroke="midnightblue" points="288.99,-81.81 280.3,-75.75 283.31,-85.91 288.99,-81.81"/>
</g>
<!-- Node12&#45;&gt;Node2 -->
<g id="edge13" class="edge">
<title>Node12&#45;&gt;Node2</title>
<path fill="none" stroke="midnightblue" d="M290.2,-56.32C306.33,-47.7 331.28,-34.36 349.94,-24.39"/>
<polygon fill="midnightblue" stroke="midnightblue" points="351.62,-27.46 358.79,-19.65 348.32,-21.28 351.62,-27.46"/>
</g>
<!-- Node13&#45;&gt;Node2 -->
<g id="edge15" class="edge">
<title>Node13&#45;&gt;Node2</title>
<path fill="none" stroke="midnightblue" d="M544.57,-112.43C552.57,-98.98 564.97,-72.72 551.98,-56 534.37,-33.36 453.26,-20.25 407.18,-14.5"/>
<polygon fill="midnightblue" stroke="midnightblue" points="407.45,-11.01 397.1,-13.29 406.61,-17.96 407.45,-11.01"/>
</g>
<!-- Node13&#45;&gt;Node4 -->
<g id="edge17" class="edge">
<title>Node13&#45;&gt;Node4</title>
<path fill="none" stroke="midnightblue" d="M553.11,-112.32C566.84,-103.9 587.91,-90.97 604.04,-81.07"/>
<polygon fill="midnightblue" stroke="midnightblue" points="606.18,-83.87 612.87,-75.65 602.52,-77.9 606.18,-83.87"/>
</g>
<!-- Node13&#45;&gt;Node9 -->
<g id="edge20" class="edge">
<title>Node13&#45;&gt;Node9</title>
<path fill="none" stroke="midnightblue" d="M508.55,-112.44C473.71,-102.65 416.8,-86.64 380.65,-76.47"/>
<polygon fill="midnightblue" stroke="midnightblue" points="381.17,-72.98 370.6,-73.64 379.28,-79.72 381.17,-72.98"/>
</g>
<!-- Node13&#45;&gt;Node11 -->
<g id="edge16" class="edge">
<title>Node13&#45;&gt;Node11</title>
<path fill="none" stroke="midnightblue" d="M519.96,-112.44C500.39,-103.64 469.67,-89.81 447.25,-79.72"/>
<polygon fill="midnightblue" stroke="midnightblue" points="448.46,-76.43 437.9,-75.52 445.58,-82.81 448.46,-76.43"/>
</g>
<!-- Node13&#45;&gt;Node12 -->
<g id="edge21" class="edge">
<title>Node13&#45;&gt;Node12</title>
<path fill="none" stroke="midnightblue" d="M494.51,-112.43C451.21,-104.02 383.26,-90.62 315.41,-76.27"/>
<polygon fill="midnightblue" stroke="midnightblue" points="315.91,-72.8 305.4,-74.15 314.46,-79.65 315.91,-72.8"/>
</g>
<!-- Node14 -->
<g id="node14" class="node">
<title>Node14</title>
<g id="a_node14"><a xlink:title=" ">
<polygon fill="white" stroke="#bfbfbf" points="504.98,-56.5 504.98,-75.5 542.98,-75.5 542.98,-56.5 504.98,-56.5"/>
<text text-anchor="middle" x="523.98" y="-63.5" font-family="Helvetica,sans-Serif" font-size="10.00">map</text>
</a>
</g>
</g>
<!-- Node13&#45;&gt;Node14 -->
<g id="edge18" class="edge">
<title>Node13&#45;&gt;Node14</title>
<path fill="none" stroke="midnightblue" d="M536.5,-112.08C534.49,-104.85 531.59,-94.41 529.09,-85.4"/>
<polygon fill="midnightblue" stroke="midnightblue" points="532.45,-84.45 526.41,-75.75 525.71,-86.32 532.45,-84.45"/>
</g>
<!-- Node15 -->
<g id="node15" class="node">
<title>Node15</title>
<g id="a_node15"><a xlink:title=" ">
<polygon fill="white" stroke="#bfbfbf" points="672.98,-56.5 672.98,-75.5 704.98,-75.5 704.98,-56.5 672.98,-56.5"/>
<text text-anchor="middle" x="688.98" y="-63.5" font-family="Helvetica,sans-Serif" font-size="10.00">set</text>
</a>
</g>
</g>
<!-- Node13&#45;&gt;Node15 -->
<g id="edge19" class="edge">
<title>Node13&#45;&gt;Node15</title>
<path fill="none" stroke="midnightblue" d="M562.74,-112.44C590.11,-102.59 634.92,-86.46 663.13,-76.3"/>
<polygon fill="midnightblue" stroke="midnightblue" points="664.49,-79.53 672.72,-72.85 662.12,-72.95 664.49,-79.53"/>
</g>
<!-- Node16&#45;&gt;Node2 -->
<g id="edge25" class="edge">
<title>Node16&#45;&gt;Node2</title>
<path fill="none" stroke="midnightblue" d="M429.19,-112.47C445.28,-100.12 470.19,-76.52 457.98,-56 446.89,-37.38 425.11,-25.99 406.64,-19.32"/>
<polygon fill="midnightblue" stroke="midnightblue" points="407.68,-15.98 397.09,-16.18 405.49,-22.63 407.68,-15.98"/>
</g>
<!-- Node16&#45;&gt;Node4 -->
<g id="edge26" class="edge">
<title>Node16&#45;&gt;Node4</title>
<path fill="none" stroke="midnightblue" d="M450.25,-112.44C488.02,-102.73 549.51,-86.92 589.09,-76.74"/>
<polygon fill="midnightblue" stroke="midnightblue" points="590.08,-80.1 598.9,-74.22 588.34,-73.32 590.08,-80.1"/>
</g>
<!-- Node16&#45;&gt;Node9 -->
<g id="edge28" class="edge">
<title>Node16&#45;&gt;Node9</title>
<path fill="none" stroke="midnightblue" d="M405.73,-112.32C395.18,-104.18 379.17,-91.84 366.53,-82.09"/>
<polygon fill="midnightblue" stroke="midnightblue" points="368.48,-79.17 358.43,-75.83 364.21,-84.71 368.48,-79.17"/>
</g>
<!-- Node16&#45;&gt;Node11 -->
<g id="edge29" class="edge">
<title>Node16&#45;&gt;Node11</title>
<path fill="none" stroke="midnightblue" d="M417.31,-112.08C417.57,-105.01 417.94,-94.86 418.27,-85.99"/>
<polygon fill="midnightblue" stroke="midnightblue" points="421.78,-85.87 418.65,-75.75 414.78,-85.61 421.78,-85.87"/>
</g>
<!-- Node16&#45;&gt;Node12 -->
<g id="edge30" class="edge">
<title>Node16&#45;&gt;Node12</title>
<path fill="none" stroke="midnightblue" d="M394.32,-112.44C370.57,-103.48 333.07,-89.31 306.24,-79.18"/>
<polygon fill="midnightblue" stroke="midnightblue" points="307.12,-75.77 296.53,-75.52 304.65,-82.32 307.12,-75.77"/>
</g>
<!-- Node16&#45;&gt;Node14 -->
<g id="edge27" class="edge">
<title>Node16&#45;&gt;Node14</title>
<path fill="none" stroke="midnightblue" d="M434.17,-112.32C451.33,-103.66 477.92,-90.24 497.72,-80.25"/>
<polygon fill="midnightblue" stroke="midnightblue" points="499.48,-83.28 506.83,-75.65 496.32,-77.04 499.48,-83.28"/>
</g>
<!-- Node17&#45;&gt;Node18 -->
<g id="edge32" class="edge">
<title>Node17&#45;&gt;Node18</title>
<path fill="none" stroke="midnightblue" d="M720.98,-168.08C720.98,-161.01 720.98,-150.86 720.98,-141.99"/>
<polygon fill="midnightblue" stroke="midnightblue" points="724.48,-141.75 720.98,-131.75 717.48,-141.75 724.48,-141.75"/>
</g>
<!-- Node18&#45;&gt;Node2 -->
<g id="edge33" class="edge">
<title>Node18&#45;&gt;Node2</title>
<path fill="none" stroke="midnightblue" d="M723,-112.47C725.73,-98.58 728.72,-71.11 713.98,-56 671.99,-12.96 484.24,-9.86 407.66,-10.44"/>
<polygon fill="midnightblue" stroke="midnightblue" points="407.16,-6.94 397.2,-10.55 407.23,-13.94 407.16,-6.94"/>
</g>
</g>
</svg>
