<?xml version="1.0" encoding="UTF-8" standalone="no"?>
<!DOCTYPE svg PUBLIC "-//W3C//DTD SVG 1.1//EN"
 "http://www.w3.org/Graphics/SVG/1.1/DTD/svg11.dtd">
<!-- Generated by graphviz version 2.43.0 (0)
 -->
<!-- Title: /root/fyp/project/src/maingui.cpp Pages: 1 -->
<svg width="2050pt" height="397pt"
 viewBox="0.00 0.00 2049.66 397.00" xmlns="http://www.w3.org/2000/svg" xmlns:xlink="http://www.w3.org/1999/xlink">
<g id="graph0" class="graph" transform="scale(1 1) rotate(0) translate(4 393)">
<title>/root/fyp/project/src/maingui.cpp</title>
<polygon fill="white" stroke="transparent" points="-4,4 -4,-393 2045.66,-393 2045.66,4 -4,4"/>
<!-- Node1 -->
<g id="node1" class="node">
<title>Node1</title>
<g id="a_node1"><a xlink:title=" ">
<polygon fill="#bfbfbf" stroke="black" points="1068.5,-358.5 1068.5,-388.5 1179.5,-388.5 1179.5,-358.5 1068.5,-358.5"/>
<text text-anchor="start" x="1076.5" y="-376.5" font-family="Helvetica,sans-Serif" font-size="10.00">/root/fyp/project/src</text>
<text text-anchor="middle" x="1124" y="-365.5" font-family="Helvetica,sans-Serif" font-size="10.00">/maingui.cpp</text>
</a>
</g>
</g>
<!-- Node2 -->
<g id="node2" class="node">
<title>Node2</title>
<g id="a_node2"><a xlink:href="maingui_8h.html" target="_top" xlink:title=" ">
<polygon fill="white" stroke="black" points="1417.5,-302.5 1417.5,-321.5 1482.5,-321.5 1482.5,-302.5 1417.5,-302.5"/>
<text text-anchor="middle" x="1450" y="-309.5" font-family="Helvetica,sans-Serif" font-size="10.00">maingui.h</text>
</a>
</g>
</g>
<!-- Node1&#45;&gt;Node2 -->
<g id="edge1" class="edge">
<title>Node1&#45;&gt;Node2</title>
<path fill="none" stroke="midnightblue" d="M1179.67,-362.34C1244.18,-350.57 1349.05,-331.43 1407.4,-320.78"/>
<polygon fill="midnightblue" stroke="midnightblue" points="1408.18,-324.19 1417.39,-318.95 1406.92,-317.31 1408.18,-324.19"/>
</g>
<!-- Node17 -->
<g id="node17" class="node">
<title>Node17</title>
<g id="a_node17"><a xlink:title=" ">
<polygon fill="white" stroke="#bfbfbf" points="1021,-62 1021,-81 1081,-81 1081,-62 1021,-62"/>
<text text-anchor="middle" x="1051" y="-69" font-family="Helvetica,sans-Serif" font-size="10.00">iostream</text>
</a>
</g>
</g>
<!-- Node1&#45;&gt;Node17 -->
<g id="edge41" class="edge">
<title>Node1&#45;&gt;Node17</title>
<path fill="none" stroke="midnightblue" d="M1115.5,-358.16C1103.23,-336.05 1082,-291.97 1082,-251.5 1082,-251.5 1082,-251.5 1082,-188 1082,-152.51 1068.18,-112.92 1058.99,-90.53"/>
<polygon fill="midnightblue" stroke="midnightblue" points="1062.19,-89.1 1055.05,-81.27 1055.75,-91.84 1062.19,-89.1"/>
</g>
<!-- Node18 -->
<g id="node18" class="node">
<title>Node18</title>
<g id="a_node18"><a xlink:href="nonterminal_8h.html" target="_top" xlink:title=" ">
<polygon fill="white" stroke="black" points="1262.5,-123.5 1262.5,-142.5 1347.5,-142.5 1347.5,-123.5 1262.5,-123.5"/>
<text text-anchor="middle" x="1305" y="-130.5" font-family="Helvetica,sans-Serif" font-size="10.00">nonterminal.h</text>
</a>
</g>
</g>
<!-- Node1&#45;&gt;Node18 -->
<g id="edge40" class="edge">
<title>Node1&#45;&gt;Node18</title>
<path fill="none" stroke="midnightblue" d="M1134.78,-358.29C1166.25,-316.83 1257.92,-196.04 1292.02,-151.1"/>
<polygon fill="midnightblue" stroke="midnightblue" points="1294.95,-153.03 1298.21,-142.95 1289.38,-148.8 1294.95,-153.03"/>
</g>
<!-- Node24 -->
<g id="node24" class="node">
<title>Node24</title>
<g id="a_node24"><a xlink:href="parsetree_8h.html" target="_top" xlink:title=" ">
<polygon fill="white" stroke="black" points="962.5,-123.5 962.5,-142.5 1053.5,-142.5 1053.5,-123.5 962.5,-123.5"/>
<text text-anchor="middle" x="1008" y="-130.5" font-family="Helvetica,sans-Serif" font-size="10.00">util/parsetree.h</text>
</a>
</g>
</g>
<!-- Node1&#45;&gt;Node24 -->
<g id="edge83" class="edge">
<title>Node1&#45;&gt;Node24</title>
<path fill="none" stroke="midnightblue" d="M1103.63,-358.45C1091.74,-349.3 1077.3,-336.41 1068,-322 1032.29,-266.65 1016.38,-188.4 1010.66,-152.86"/>
<polygon fill="midnightblue" stroke="midnightblue" points="1014.06,-151.91 1009.11,-142.55 1007.14,-152.96 1014.06,-151.91"/>
</g>
<!-- Node27 -->
<g id="node27" class="node">
<title>Node27</title>
<g id="a_node27"><a xlink:href="factory_8h.html" target="_top" xlink:title=" ">
<polygon fill="white" stroke="black" points="367,-302.5 367,-321.5 507,-321.5 507,-302.5 367,-302.5"/>
<text text-anchor="middle" x="437" y="-309.5" font-family="Helvetica,sans-Serif" font-size="10.00">parsergenerator/factory.h</text>
</a>
</g>
</g>
<!-- Node1&#45;&gt;Node27 -->
<g id="edge42" class="edge">
<title>Node1&#45;&gt;Node27</title>
<path fill="none" stroke="midnightblue" d="M1068.36,-367.68C947.06,-357.18 658.38,-332.17 517.33,-319.96"/>
<polygon fill="midnightblue" stroke="midnightblue" points="517.29,-316.44 507.03,-319.06 516.69,-323.41 517.29,-316.44"/>
</g>
<!-- Node39 -->
<g id="node39" class="node">
<title>Node39</title>
<g id="a_node39"><a xlink:href="parsetreerenderer_8h.html" target="_top" xlink:title=" ">
<polygon fill="white" stroke="black" points="1110.5,-179.5 1110.5,-198.5 1223.5,-198.5 1223.5,-179.5 1110.5,-179.5"/>
<text text-anchor="middle" x="1167" y="-186.5" font-family="Helvetica,sans-Serif" font-size="10.00">parsetreerenderer.h</text>
</a>
</g>
</g>
<!-- Node1&#45;&gt;Node39 -->
<g id="edge84" class="edge">
<title>Node1&#45;&gt;Node39</title>
<path fill="none" stroke="midnightblue" d="M1127.3,-358.48C1134.97,-325.96 1153.96,-245.34 1162.6,-208.68"/>
<polygon fill="midnightblue" stroke="midnightblue" points="1166.04,-209.35 1164.92,-198.82 1159.22,-207.75 1166.04,-209.35"/>
</g>
<!-- Node3 -->
<g id="node3" class="node">
<title>Node3</title>
<g id="a_node3"><a xlink:title=" ">
<polygon fill="white" stroke="#bfbfbf" points="767,-0.5 767,-19.5 811,-19.5 811,-0.5 767,-0.5"/>
<text text-anchor="middle" x="789" y="-7.5" font-family="Helvetica,sans-Serif" font-size="10.00">string</text>
</a>
</g>
</g>
<!-- Node2&#45;&gt;Node3 -->
<g id="edge2" class="edge">
<title>Node2&#45;&gt;Node3</title>
<path fill="none" stroke="midnightblue" d="M1417.44,-306.31C1393.48,-300.97 1362.49,-289.68 1347,-266 1312.13,-212.71 1387.41,-178.39 1356,-123 1327.39,-72.54 1299.08,-74.18 1244,-56 1165.23,-30 911.8,-16.46 821.41,-12.36"/>
<polygon fill="midnightblue" stroke="midnightblue" points="821.36,-8.86 811.22,-11.91 821.05,-15.85 821.36,-8.86"/>
</g>
<!-- Node4 -->
<g id="node4" class="node">
<title>Node4</title>
<g id="a_node4"><a xlink:title=" ">
<polygon fill="white" stroke="#bfbfbf" points="1148.5,-62 1148.5,-81 1195.5,-81 1195.5,-62 1148.5,-62"/>
<text text-anchor="middle" x="1172" y="-69" font-family="Helvetica,sans-Serif" font-size="10.00">vector</text>
</a>
</g>
</g>
<!-- Node2&#45;&gt;Node4 -->
<g id="edge3" class="edge">
<title>Node2&#45;&gt;Node4</title>
<path fill="none" stroke="midnightblue" d="M1417.47,-306.04C1388.18,-300.31 1345.08,-288.59 1314,-266 1247.46,-217.62 1199.09,-128.77 1180.45,-90.65"/>
<polygon fill="midnightblue" stroke="midnightblue" points="1183.46,-88.83 1175.99,-81.32 1177.14,-91.85 1183.46,-88.83"/>
</g>
<!-- Node5 -->
<g id="node5" class="node">
<title>Node5</title>
<g id="a_node5"><a xlink:title=" ">
<polygon fill="white" stroke="#bfbfbf" points="1418,-241 1418,-260 1482,-260 1482,-241 1418,-241"/>
<text text-anchor="middle" x="1450" y="-248" font-family="Helvetica,sans-Serif" font-size="10.00">GL/glew.h</text>
</a>
</g>
</g>
<!-- Node2&#45;&gt;Node5 -->
<g id="edge4" class="edge">
<title>Node2&#45;&gt;Node5</title>
<path fill="none" stroke="midnightblue" d="M1450,-302.48C1450,-294.08 1450,-280.98 1450,-270.16"/>
<polygon fill="midnightblue" stroke="midnightblue" points="1453.5,-270.01 1450,-260.01 1446.5,-270.01 1453.5,-270.01"/>
</g>
<!-- Node6 -->
<g id="node6" class="node">
<title>Node6</title>
<g id="a_node6"><a xlink:title=" ">
<polygon fill="white" stroke="#bfbfbf" points="1500.5,-241 1500.5,-260 1583.5,-260 1583.5,-241 1500.5,-241"/>
<text text-anchor="middle" x="1542" y="-248" font-family="Helvetica,sans-Serif" font-size="10.00">GLFW/glfw3.h</text>
</a>
</g>
</g>
<!-- Node2&#45;&gt;Node6 -->
<g id="edge5" class="edge">
<title>Node2&#45;&gt;Node6</title>
<path fill="none" stroke="midnightblue" d="M1463.18,-302.48C1478.07,-292.84 1502.54,-277.02 1520.27,-265.55"/>
<polygon fill="midnightblue" stroke="midnightblue" points="1522.35,-268.38 1528.84,-260.01 1518.55,-262.5 1522.35,-268.38"/>
</g>
<!-- Node7 -->
<g id="node7" class="node">
<title>Node7</title>
<g id="a_node7"><a xlink:title=" ">
<polygon fill="white" stroke="#bfbfbf" points="1601.5,-241 1601.5,-260 1728.5,-260 1728.5,-241 1601.5,-241"/>
<text text-anchor="middle" x="1665" y="-248" font-family="Helvetica,sans-Serif" font-size="10.00">imgui/imgui_internal.h</text>
</a>
</g>
</g>
<!-- Node2&#45;&gt;Node7 -->
<g id="edge6" class="edge">
<title>Node2&#45;&gt;Node7</title>
<path fill="none" stroke="midnightblue" d="M1480.8,-302.48C1518.56,-292.03 1582.66,-274.29 1624.41,-262.73"/>
<polygon fill="midnightblue" stroke="midnightblue" points="1625.55,-266.05 1634.25,-260.01 1623.68,-259.3 1625.55,-266.05"/>
</g>
<!-- Node8 -->
<g id="node8" class="node">
<title>Node8</title>
<g id="a_node8"><a xlink:title=" ">
<polygon fill="white" stroke="#bfbfbf" points="1747,-235.5 1747,-265.5 1871,-265.5 1871,-235.5 1747,-235.5"/>
<text text-anchor="start" x="1755" y="-253.5" font-family="Helvetica,sans-Serif" font-size="10.00">imgui/backends/imgui</text>
<text text-anchor="middle" x="1809" y="-242.5" font-family="Helvetica,sans-Serif" font-size="10.00">_impl_glfw.h</text>
</a>
</g>
</g>
<!-- Node2&#45;&gt;Node8 -->
<g id="edge7" class="edge">
<title>Node2&#45;&gt;Node8</title>
<path fill="none" stroke="midnightblue" d="M1482.91,-306.37C1534.71,-298.96 1638.66,-283.66 1736.62,-266.2"/>
<polygon fill="midnightblue" stroke="midnightblue" points="1737.47,-269.61 1746.69,-264.4 1736.23,-262.72 1737.47,-269.61"/>
</g>
<!-- Node9 -->
<g id="node9" class="node">
<title>Node9</title>
<g id="a_node9"><a xlink:title=" ">
<polygon fill="white" stroke="#bfbfbf" points="1889,-235.5 1889,-265.5 2013,-265.5 2013,-235.5 1889,-235.5"/>
<text text-anchor="start" x="1897" y="-253.5" font-family="Helvetica,sans-Serif" font-size="10.00">imgui/backends/imgui</text>
<text text-anchor="middle" x="1951" y="-242.5" font-family="Helvetica,sans-Serif" font-size="10.00">_impl_opengl3.h</text>
</a>
</g>
</g>
<!-- Node2&#45;&gt;Node9 -->
<g id="edge8" class="edge">
<title>Node2&#45;&gt;Node9</title>
<path fill="none" stroke="midnightblue" d="M1482.5,-308.68C1552.88,-303.44 1724.77,-289.37 1878.62,-266.12"/>
<polygon fill="midnightblue" stroke="midnightblue" points="1879.37,-269.55 1888.72,-264.57 1878.31,-262.63 1879.37,-269.55"/>
</g>
<!-- Node10 -->
<g id="node10" class="node">
<title>Node10</title>
<g id="a_node10"><a xlink:title=" ">
<polygon fill="white" stroke="#bfbfbf" points="1614.5,-56.5 1614.5,-86.5 1751.5,-86.5 1751.5,-56.5 1614.5,-56.5"/>
<text text-anchor="start" x="1622.5" y="-74.5" font-family="Helvetica,sans-Serif" font-size="10.00">imgui/nodes/imgui_node</text>
<text text-anchor="middle" x="1683" y="-63.5" font-family="Helvetica,sans-Serif" font-size="10.00">_editor.h</text>
</a>
</g>
</g>
<!-- Node2&#45;&gt;Node10 -->
<g id="edge9" class="edge">
<title>Node2&#45;&gt;Node10</title>
<path fill="none" stroke="midnightblue" d="M1482.83,-310.95C1598.94,-310.43 1985.27,-305.73 2022,-266 2108.22,-172.73 1886.48,-112.32 1761.5,-86.64"/>
<polygon fill="midnightblue" stroke="midnightblue" points="1762.07,-83.18 1751.57,-84.63 1760.68,-90.04 1762.07,-83.18"/>
</g>
<!-- Node11 -->
<g id="node11" class="node">
<title>Node11</title>
<g id="a_node11"><a xlink:href="rule_8h.html" target="_top" xlink:title=" ">
<polygon fill="white" stroke="black" points="1356,-241 1356,-260 1400,-260 1400,-241 1356,-241"/>
<text text-anchor="middle" x="1378" y="-248" font-family="Helvetica,sans-Serif" font-size="10.00">rule.h</text>
</a>
</g>
</g>
<!-- Node2&#45;&gt;Node11 -->
<g id="edge10" class="edge">
<title>Node2&#45;&gt;Node11</title>
<path fill="none" stroke="midnightblue" d="M1439.68,-302.48C1428.35,-293.11 1409.93,-277.88 1396.16,-266.51"/>
<polygon fill="midnightblue" stroke="midnightblue" points="1398.23,-263.68 1388.3,-260.01 1393.78,-269.08 1398.23,-263.68"/>
</g>
<!-- Node21 -->
<g id="node21" class="node">
<title>Node21</title>
<g id="a_node21"><a xlink:href="iparsergenerator_8h.html" target="_top" xlink:title=" ">
<polygon fill="white" stroke="black" points="255.5,-179.5 255.5,-198.5 442.5,-198.5 442.5,-179.5 255.5,-179.5"/>
<text text-anchor="middle" x="349" y="-186.5" font-family="Helvetica,sans-Serif" font-size="10.00">parsergenerator/iparsergenerator.h</text>
</a>
</g>
</g>
<!-- Node2&#45;&gt;Node21 -->
<g id="edge30" class="edge">
<title>Node2&#45;&gt;Node21</title>
<path fill="none" stroke="midnightblue" d="M1417.43,-310.31C1264.14,-306.93 618.28,-291.28 532,-266 505.44,-258.22 503.17,-246.5 478,-235 448.67,-221.6 414.11,-209.75 388.15,-201.57"/>
<polygon fill="midnightblue" stroke="midnightblue" points="388.88,-198.13 378.29,-198.51 386.81,-204.82 388.88,-198.13"/>
</g>
<!-- Node11&#45;&gt;Node10 -->
<g id="edge29" class="edge">
<title>Node11&#45;&gt;Node10</title>
<path fill="none" stroke="midnightblue" d="M1394.04,-240.86C1398.75,-238.64 1403.98,-236.47 1409,-235 1467.95,-217.79 1642.5,-245.17 1683,-199 1707.53,-171.04 1699.6,-124.71 1691.43,-96.55"/>
<polygon fill="midnightblue" stroke="midnightblue" points="1694.68,-95.22 1688.35,-86.73 1688,-97.31 1694.68,-95.22"/>
</g>
<!-- Node12 -->
<g id="node12" class="node">
<title>Node12</title>
<g id="a_node12"><a xlink:title=" ">
<polygon fill="white" stroke="#bfbfbf" points="667,-62 667,-81 705,-81 705,-62 667,-62"/>
<text text-anchor="middle" x="686" y="-69" font-family="Helvetica,sans-Serif" font-size="10.00">map</text>
</a>
</g>
</g>
<!-- Node11&#45;&gt;Node12 -->
<g id="edge11" class="edge">
<title>Node11&#45;&gt;Node12</title>
<path fill="none" stroke="midnightblue" d="M1355.8,-249.27C1260.7,-248.04 887.54,-240.59 779,-199 740.49,-184.24 728.05,-177.2 705,-143 694.5,-127.42 689.79,-106.25 687.68,-91.18"/>
<polygon fill="midnightblue" stroke="midnightblue" points="691.14,-90.59 686.53,-81.05 684.18,-91.38 691.14,-90.59"/>
</g>
<!-- Node13 -->
<g id="node13" class="node">
<title>Node13</title>
<g id="a_node13"><a xlink:href="nodelink_8h.html" target="_top" xlink:title=" ">
<polygon fill="white" stroke="black" points="1606,-179.5 1606,-198.5 1674,-198.5 1674,-179.5 1606,-179.5"/>
<text text-anchor="middle" x="1640" y="-186.5" font-family="Helvetica,sans-Serif" font-size="10.00">nodelink.h</text>
</a>
</g>
</g>
<!-- Node11&#45;&gt;Node13 -->
<g id="edge12" class="edge">
<title>Node11&#45;&gt;Node13</title>
<path fill="none" stroke="midnightblue" d="M1394.42,-240.89C1399.05,-238.73 1404.14,-236.58 1409,-235 1486.93,-209.75 1511.75,-215.25 1595.76,-199.18"/>
<polygon fill="midnightblue" stroke="midnightblue" points="1596.6,-202.58 1605.74,-197.23 1595.26,-195.71 1596.6,-202.58"/>
</g>
<!-- Node11&#45;&gt;Node18 -->
<g id="edge22" class="edge">
<title>Node11&#45;&gt;Node18</title>
<path fill="none" stroke="midnightblue" d="M1372.51,-240.82C1360.52,-221.84 1331.77,-176.35 1315.93,-151.29"/>
<polygon fill="midnightblue" stroke="midnightblue" points="1318.85,-149.37 1310.55,-142.78 1312.93,-153.11 1318.85,-149.37"/>
</g>
<!-- Node19 -->
<g id="node19" class="node">
<title>Node19</title>
<g id="a_node19"><a xlink:href="specialnode_8h.html" target="_top" xlink:title=" ">
<polygon fill="white" stroke="black" points="1394,-179.5 1394,-198.5 1478,-198.5 1478,-179.5 1394,-179.5"/>
<text text-anchor="middle" x="1436" y="-186.5" font-family="Helvetica,sans-Serif" font-size="10.00">specialnode.h</text>
</a>
</g>
</g>
<!-- Node11&#45;&gt;Node19 -->
<g id="edge25" class="edge">
<title>Node11&#45;&gt;Node19</title>
<path fill="none" stroke="midnightblue" d="M1386.31,-240.98C1395.18,-231.87 1409.45,-217.24 1420.42,-205.98"/>
<polygon fill="midnightblue" stroke="midnightblue" points="1423.23,-208.11 1427.71,-198.51 1418.22,-203.23 1423.23,-208.11"/>
</g>
<!-- Node20 -->
<g id="node20" class="node">
<title>Node20</title>
<g id="a_node20"><a xlink:href="terminalnode_8h.html" target="_top" xlink:title=" ">
<polygon fill="white" stroke="black" points="1496.5,-179.5 1496.5,-198.5 1587.5,-198.5 1587.5,-179.5 1496.5,-179.5"/>
<text text-anchor="middle" x="1542" y="-186.5" font-family="Helvetica,sans-Serif" font-size="10.00">terminalnode.h</text>
</a>
</g>
</g>
<!-- Node11&#45;&gt;Node20 -->
<g id="edge27" class="edge">
<title>Node11&#45;&gt;Node20</title>
<path fill="none" stroke="midnightblue" d="M1395.56,-240.87C1399.91,-238.85 1404.59,-236.77 1409,-235 1440.59,-222.31 1477.3,-210.08 1504.13,-201.57"/>
<polygon fill="midnightblue" stroke="midnightblue" points="1505.41,-204.84 1513.91,-198.5 1503.32,-198.16 1505.41,-204.84"/>
</g>
<!-- Node13&#45;&gt;Node10 -->
<g id="edge21" class="edge">
<title>Node13&#45;&gt;Node10</title>
<path fill="none" stroke="midnightblue" d="M1643.23,-179.32C1649.75,-161.81 1664.66,-121.75 1674.26,-95.97"/>
<polygon fill="midnightblue" stroke="midnightblue" points="1677.56,-97.14 1677.77,-86.55 1671,-94.7 1677.56,-97.14"/>
</g>
<!-- Node14 -->
<g id="node14" class="node">
<title>Node14</title>
<g id="a_node14"><a xlink:href="node_8h.html" target="_top" xlink:title=" ">
<polygon fill="white" stroke="black" points="1450,-123.5 1450,-142.5 1500,-142.5 1500,-123.5 1450,-123.5"/>
<text text-anchor="middle" x="1475" y="-130.5" font-family="Helvetica,sans-Serif" font-size="10.00">node.h</text>
</a>
</g>
</g>
<!-- Node13&#45;&gt;Node14 -->
<g id="edge13" class="edge">
<title>Node13&#45;&gt;Node14</title>
<path fill="none" stroke="midnightblue" d="M1608.77,-179.44C1579.15,-170.4 1535.14,-156.06 1505.7,-145.92"/>
<polygon fill="midnightblue" stroke="midnightblue" points="1506.54,-142.5 1495.94,-142.52 1504.23,-149.11 1506.54,-142.5"/>
</g>
<!-- Node14&#45;&gt;Node3 -->
<g id="edge14" class="edge">
<title>Node14&#45;&gt;Node3</title>
<path fill="none" stroke="midnightblue" d="M1466.66,-123.25C1449.02,-104.94 1408.03,-63.67 1390,-56 1286.1,-11.81 930.26,-10.15 821.1,-10.71"/>
<polygon fill="midnightblue" stroke="midnightblue" points="821.01,-7.21 811.03,-10.77 821.06,-14.21 821.01,-7.21"/>
</g>
<!-- Node14&#45;&gt;Node4 -->
<g id="edge15" class="edge">
<title>Node14&#45;&gt;Node4</title>
<path fill="none" stroke="midnightblue" d="M1449.95,-127.08C1395.66,-116.42 1267.15,-91.18 1205.77,-79.13"/>
<polygon fill="midnightblue" stroke="midnightblue" points="1206.31,-75.67 1195.82,-77.18 1204.96,-82.54 1206.31,-75.67"/>
</g>
<!-- Node14&#45;&gt;Node10 -->
<g id="edge19" class="edge">
<title>Node14&#45;&gt;Node10</title>
<path fill="none" stroke="midnightblue" d="M1500.09,-124.82C1530.7,-116.07 1583.43,-100.98 1624.44,-89.25"/>
<polygon fill="midnightblue" stroke="midnightblue" points="1625.4,-92.62 1634.05,-86.5 1623.48,-85.89 1625.4,-92.62"/>
</g>
<!-- Node14&#45;&gt;Node13 -->
<g id="edge16" class="edge">
<title>Node14&#45;&gt;Node13</title>
<path fill="none" stroke="midnightblue" d="M1500.19,-140.73C1529.59,-149.56 1577.83,-165.24 1609.35,-176.1"/>
<polygon fill="midnightblue" stroke="midnightblue" points="1608.35,-179.46 1618.94,-179.44 1610.65,-172.85 1608.35,-179.46"/>
</g>
<!-- Node15 -->
<g id="node15" class="node">
<title>Node15</title>
<g id="a_node15"><a xlink:href="drawing_8h.html" target="_top" xlink:title=" ">
<polygon fill="white" stroke="black" points="1442.5,-62 1442.5,-81 1507.5,-81 1507.5,-62 1442.5,-62"/>
<text text-anchor="middle" x="1475" y="-69" font-family="Helvetica,sans-Serif" font-size="10.00">drawing.h</text>
</a>
</g>
</g>
<!-- Node14&#45;&gt;Node15 -->
<g id="edge17" class="edge">
<title>Node14&#45;&gt;Node15</title>
<path fill="none" stroke="midnightblue" d="M1475,-123.48C1475,-115.08 1475,-101.98 1475,-91.16"/>
<polygon fill="midnightblue" stroke="midnightblue" points="1478.5,-91.01 1475,-81.01 1471.5,-91.01 1478.5,-91.01"/>
</g>
<!-- Node14&#45;&gt;Node17 -->
<g id="edge20" class="edge">
<title>Node14&#45;&gt;Node17</title>
<path fill="none" stroke="midnightblue" d="M1449.67,-128.87C1393.62,-121.89 1254.84,-104.3 1139,-87 1123.32,-84.66 1106.11,-81.87 1091.1,-79.37"/>
<polygon fill="midnightblue" stroke="midnightblue" points="1091.55,-75.9 1081.1,-77.69 1090.39,-82.8 1091.55,-75.9"/>
</g>
<!-- Node16 -->
<g id="node16" class="node">
<title>Node16</title>
<g id="a_node16"><a xlink:title=" ">
<polygon fill="white" stroke="#bfbfbf" points="1327.5,-0.5 1327.5,-19.5 1380.5,-19.5 1380.5,-0.5 1327.5,-0.5"/>
<text text-anchor="middle" x="1354" y="-7.5" font-family="Helvetica,sans-Serif" font-size="10.00">imgui.h</text>
</a>
</g>
</g>
<!-- Node15&#45;&gt;Node16 -->
<g id="edge18" class="edge">
<title>Node15&#45;&gt;Node16</title>
<path fill="none" stroke="midnightblue" d="M1457.66,-61.98C1437.45,-52.03 1403.81,-35.49 1380.36,-23.96"/>
<polygon fill="midnightblue" stroke="midnightblue" points="1381.82,-20.78 1371.3,-19.51 1378.73,-27.06 1381.82,-20.78"/>
</g>
<!-- Node18&#45;&gt;Node3 -->
<g id="edge23" class="edge">
<title>Node18&#45;&gt;Node3</title>
<path fill="none" stroke="midnightblue" d="M1296.57,-123.03C1280.4,-106.5 1243.18,-71.49 1204,-56 1134.28,-28.43 906.18,-16.03 821.25,-12.29"/>
<polygon fill="midnightblue" stroke="midnightblue" points="821.3,-8.79 811.16,-11.86 821,-15.78 821.3,-8.79"/>
</g>
<!-- Node18&#45;&gt;Node4 -->
<g id="edge24" class="edge">
<title>Node18&#45;&gt;Node4</title>
<path fill="none" stroke="midnightblue" d="M1285.94,-123.48C1263.53,-113.45 1226.09,-96.7 1200.29,-85.15"/>
<polygon fill="midnightblue" stroke="midnightblue" points="1201.58,-81.9 1191.02,-81.01 1198.72,-88.29 1201.58,-81.9"/>
</g>
<!-- Node19&#45;&gt;Node14 -->
<g id="edge26" class="edge">
<title>Node19&#45;&gt;Node14</title>
<path fill="none" stroke="midnightblue" d="M1442.44,-179.08C1447.95,-171.46 1456.03,-160.26 1462.76,-150.94"/>
<polygon fill="midnightblue" stroke="midnightblue" points="1465.66,-152.91 1468.68,-142.75 1459.99,-148.81 1465.66,-152.91"/>
</g>
<!-- Node20&#45;&gt;Node14 -->
<g id="edge28" class="edge">
<title>Node20&#45;&gt;Node14</title>
<path fill="none" stroke="midnightblue" d="M1531.24,-179.32C1521.23,-171.26 1506.11,-159.08 1494.07,-149.37"/>
<polygon fill="midnightblue" stroke="midnightblue" points="1495.94,-146.38 1485.96,-142.83 1491.55,-151.83 1495.94,-146.38"/>
</g>
<!-- Node21&#45;&gt;Node3 -->
<g id="edge33" class="edge">
<title>Node21&#45;&gt;Node3</title>
<path fill="none" stroke="midnightblue" d="M352.81,-179.34C363.99,-155.07 399.29,-86.21 452,-56 503.62,-26.41 682.91,-15.52 756.79,-12.22"/>
<polygon fill="midnightblue" stroke="midnightblue" points="757.06,-15.72 766.9,-11.79 756.76,-8.72 757.06,-15.72"/>
</g>
<!-- Node22 -->
<g id="node22" class="node">
<title>Node22</title>
<g id="a_node22"><a xlink:title=" ">
<polygon fill="white" stroke="#bfbfbf" points="104.5,-123.5 104.5,-142.5 159.5,-142.5 159.5,-123.5 104.5,-123.5"/>
<text text-anchor="middle" x="132" y="-130.5" font-family="Helvetica,sans-Serif" font-size="10.00">fstream</text>
</a>
</g>
</g>
<!-- Node21&#45;&gt;Node22 -->
<g id="edge31" class="edge">
<title>Node21&#45;&gt;Node22</title>
<path fill="none" stroke="midnightblue" d="M314.62,-179.44C275.06,-169.6 210.34,-153.5 169.52,-143.34"/>
<polygon fill="midnightblue" stroke="midnightblue" points="170.23,-139.91 159.68,-140.89 168.54,-146.7 170.23,-139.91"/>
</g>
<!-- Node23 -->
<g id="node23" class="node">
<title>Node23</title>
<g id="a_node23"><a xlink:title=" ">
<polygon fill="white" stroke="#bfbfbf" points="266,-123.5 266,-142.5 334,-142.5 334,-123.5 266,-123.5"/>
<text text-anchor="middle" x="300" y="-130.5" font-family="Helvetica,sans-Serif" font-size="10.00">filesystem</text>
</a>
</g>
</g>
<!-- Node21&#45;&gt;Node23 -->
<g id="edge32" class="edge">
<title>Node21&#45;&gt;Node23</title>
<path fill="none" stroke="midnightblue" d="M340.91,-179.08C333.84,-171.3 323.41,-159.8 314.85,-150.37"/>
<polygon fill="midnightblue" stroke="midnightblue" points="317.25,-147.8 307.94,-142.75 312.07,-152.51 317.25,-147.8"/>
</g>
<!-- Node21&#45;&gt;Node24 -->
<g id="edge34" class="edge">
<title>Node21&#45;&gt;Node24</title>
<path fill="none" stroke="midnightblue" d="M442.51,-181.01C554.6,-172.53 748.09,-157.55 914,-143 926.25,-141.93 939.39,-140.71 951.85,-139.52"/>
<polygon fill="midnightblue" stroke="midnightblue" points="952.49,-142.98 962.12,-138.54 951.83,-136.01 952.49,-142.98"/>
</g>
<!-- Node24&#45;&gt;Node4 -->
<g id="edge35" class="edge">
<title>Node24&#45;&gt;Node4</title>
<path fill="none" stroke="midnightblue" d="M1031.5,-123.48C1059.63,-113.27 1106.93,-96.11 1138.79,-84.55"/>
<polygon fill="midnightblue" stroke="midnightblue" points="1140.34,-87.71 1148.55,-81.01 1137.95,-81.13 1140.34,-87.71"/>
</g>
<!-- Node24&#45;&gt;Node17 -->
<g id="edge37" class="edge">
<title>Node24&#45;&gt;Node17</title>
<path fill="none" stroke="midnightblue" d="M1014.16,-123.48C1020.61,-114.55 1030.9,-100.31 1038.97,-89.14"/>
<polygon fill="midnightblue" stroke="midnightblue" points="1041.83,-91.16 1044.85,-81.01 1036.16,-87.06 1041.83,-91.16"/>
</g>
<!-- Node25 -->
<g id="node25" class="node">
<title>Node25</title>
<g id="a_node25"><a xlink:title=" ">
<polygon fill="white" stroke="#bfbfbf" points="919.5,-62 919.5,-81 1002.5,-81 1002.5,-62 919.5,-62"/>
<text text-anchor="middle" x="961" y="-69" font-family="Helvetica,sans-Serif" font-size="10.00">initializer_list</text>
</a>
</g>
</g>
<!-- Node24&#45;&gt;Node25 -->
<g id="edge36" class="edge">
<title>Node24&#45;&gt;Node25</title>
<path fill="none" stroke="midnightblue" d="M1001.27,-123.48C994.22,-114.55 982.97,-100.31 974.15,-89.14"/>
<polygon fill="midnightblue" stroke="midnightblue" points="976.67,-86.69 967.72,-81.01 971.17,-91.03 976.67,-86.69"/>
</g>
<!-- Node26 -->
<g id="node26" class="node">
<title>Node26</title>
<g id="a_node26"><a xlink:href="symbol_8h.html" target="_top" xlink:title=" ">
<polygon fill="white" stroke="black" points="787,-62 787,-81 849,-81 849,-62 787,-62"/>
<text text-anchor="middle" x="818" y="-69" font-family="Helvetica,sans-Serif" font-size="10.00">symbol.h</text>
</a>
</g>
</g>
<!-- Node24&#45;&gt;Node26 -->
<g id="edge38" class="edge">
<title>Node24&#45;&gt;Node26</title>
<path fill="none" stroke="midnightblue" d="M980.78,-123.48C947.76,-113.14 891.96,-95.66 855.05,-84.1"/>
<polygon fill="midnightblue" stroke="midnightblue" points="855.76,-80.66 845.17,-81.01 853.67,-87.34 855.76,-80.66"/>
</g>
<!-- Node26&#45;&gt;Node3 -->
<g id="edge39" class="edge">
<title>Node26&#45;&gt;Node3</title>
<path fill="none" stroke="midnightblue" d="M813.85,-61.98C809.62,-53.32 802.96,-39.65 797.6,-28.65"/>
<polygon fill="midnightblue" stroke="midnightblue" points="800.67,-26.96 793.15,-19.51 794.38,-30.03 800.67,-26.96"/>
</g>
<!-- Node27&#45;&gt;Node3 -->
<g id="edge44" class="edge">
<title>Node27&#45;&gt;Node3</title>
<path fill="none" stroke="midnightblue" d="M366.76,-306.59C280.06,-300.33 138.15,-287.22 90,-266 42.09,-244.89 0,-242.35 0,-190 0,-190 0,-190 0,-132 0,-72.21 54.5,-75.56 111,-56 232.48,-13.94 638.53,-10.88 756.56,-10.9"/>
<polygon fill="midnightblue" stroke="midnightblue" points="756.75,-14.4 766.76,-10.91 756.76,-7.4 756.75,-14.4"/>
</g>
<!-- Node27&#45;&gt;Node21 -->
<g id="edge45" class="edge">
<title>Node27&#45;&gt;Node21</title>
<path fill="none" stroke="midnightblue" d="M427.73,-302.19C418.8,-293.45 405.19,-279.47 395,-266 380.8,-247.23 367.19,-223.84 358.51,-208"/>
<polygon fill="midnightblue" stroke="midnightblue" points="361.38,-205.95 353.56,-198.81 355.22,-209.27 361.38,-205.95"/>
</g>
<!-- Node28 -->
<g id="node28" class="node">
<title>Node28</title>
<g id="a_node28"><a xlink:title=" ">
<polygon fill="white" stroke="#bfbfbf" points="404.5,-241 404.5,-260 469.5,-260 469.5,-241 404.5,-241"/>
<text text-anchor="middle" x="437" y="-248" font-family="Helvetica,sans-Serif" font-size="10.00">functional</text>
</a>
</g>
</g>
<!-- Node27&#45;&gt;Node28 -->
<g id="edge43" class="edge">
<title>Node27&#45;&gt;Node28</title>
<path fill="none" stroke="midnightblue" d="M437,-302.48C437,-294.08 437,-280.98 437,-270.16"/>
<polygon fill="midnightblue" stroke="midnightblue" points="440.5,-270.01 437,-260.01 433.5,-270.01 440.5,-270.01"/>
</g>
<!-- Node29 -->
<g id="node29" class="node">
<title>Node29</title>
<g id="a_node29"><a xlink:href="llpred_2parsergenerator_8h.html" target="_top" xlink:title=" ">
<polygon fill="white" stroke="black" points="541,-241 541,-260 675,-260 675,-241 541,-241"/>
<text text-anchor="middle" x="608" y="-248" font-family="Helvetica,sans-Serif" font-size="10.00">llpred/parsergenerator.h</text>
</a>
</g>
</g>
<!-- Node27&#45;&gt;Node29 -->
<g id="edge46" class="edge">
<title>Node27&#45;&gt;Node29</title>
<path fill="none" stroke="midnightblue" d="M461.5,-302.48C490.96,-292.22 540.58,-274.96 573.8,-263.4"/>
<polygon fill="midnightblue" stroke="midnightblue" points="575.25,-266.6 583.55,-260.01 572.95,-259.99 575.25,-266.6"/>
</g>
<!-- Node37 -->
<g id="node37" class="node">
<title>Node37</title>
<g id="a_node37"><a xlink:href="lexyacc_2parsergenerator_8h.html" target="_top" xlink:title=" ">
<polygon fill="white" stroke="black" points="99.5,-241 99.5,-260 242.5,-260 242.5,-241 99.5,-241"/>
<text text-anchor="middle" x="171" y="-248" font-family="Helvetica,sans-Serif" font-size="10.00">lexyacc/parsergenerator.h</text>
</a>
</g>
</g>
<!-- Node27&#45;&gt;Node37 -->
<g id="edge72" class="edge">
<title>Node27&#45;&gt;Node37</title>
<path fill="none" stroke="midnightblue" d="M398.89,-302.48C351.48,-291.87 270.52,-273.76 218.94,-262.22"/>
<polygon fill="midnightblue" stroke="midnightblue" points="219.56,-258.78 209.04,-260.01 218.04,-265.61 219.56,-258.78"/>
</g>
<!-- Node38 -->
<g id="node38" class="node">
<title>Node38</title>
<g id="a_node38"><a xlink:href="bnf_2parsergenerator_8h.html" target="_top" xlink:title=" ">
<polygon fill="white" stroke="black" points="856,-179.5 856,-198.5 978,-198.5 978,-179.5 856,-179.5"/>
<text text-anchor="middle" x="917" y="-186.5" font-family="Helvetica,sans-Serif" font-size="10.00">bnf/parsergenerator.h</text>
</a>
</g>
</g>
<!-- Node27&#45;&gt;Node38 -->
<g id="edge80" class="edge">
<title>Node27&#45;&gt;Node38</title>
<path fill="none" stroke="midnightblue" d="M496.37,-302.49C546.71,-294.73 620.61,-282.03 684,-266 756.86,-247.57 840.11,-218.39 884.72,-202.07"/>
<polygon fill="midnightblue" stroke="midnightblue" points="885.98,-205.33 894.15,-198.6 883.56,-198.76 885.98,-205.33"/>
</g>
<!-- Node29&#45;&gt;Node3 -->
<g id="edge47" class="edge">
<title>Node29&#45;&gt;Node3</title>
<path fill="none" stroke="midnightblue" d="M578.29,-240.88C557.37,-233.26 530.45,-220.02 515,-199 476.93,-147.18 451.09,-104.77 493,-56 526.69,-16.8 686.65,-11.35 756.38,-10.87"/>
<polygon fill="midnightblue" stroke="midnightblue" points="756.78,-14.37 766.76,-10.83 756.75,-7.37 756.78,-14.37"/>
</g>
<!-- Node29&#45;&gt;Node21 -->
<g id="edge50" class="edge">
<title>Node29&#45;&gt;Node21</title>
<path fill="none" stroke="midnightblue" d="M570.89,-240.98C524.83,-230.39 446.23,-212.34 396,-200.8"/>
<polygon fill="midnightblue" stroke="midnightblue" points="396.57,-197.34 386.04,-198.51 395,-204.16 396.57,-197.34"/>
</g>
<!-- Node29&#45;&gt;Node24 -->
<g id="edge59" class="edge">
<title>Node29&#45;&gt;Node24</title>
<path fill="none" stroke="midnightblue" d="M675.05,-248.94C770.98,-246.77 940.94,-237.44 987,-199 1000.5,-187.74 1005.4,-167.73 1007.14,-152.87"/>
<polygon fill="midnightblue" stroke="midnightblue" points="1010.65,-153 1007.95,-142.75 1003.67,-152.44 1010.65,-153"/>
</g>
<!-- Node29&#45;&gt;Node26 -->
<g id="edge60" class="edge">
<title>Node29&#45;&gt;Node26</title>
<path fill="none" stroke="midnightblue" d="M620.92,-240.93C642.02,-227.08 685.42,-199.31 724,-179 758.5,-160.84 779.73,-173.51 804,-143 815.51,-128.53 818.39,-107.18 818.77,-91.77"/>
<polygon fill="midnightblue" stroke="midnightblue" points="822.26,-91.32 818.67,-81.36 815.26,-91.39 822.26,-91.32"/>
</g>
<!-- Node30 -->
<g id="node30" class="node">
<title>Node30</title>
<g id="a_node30"><a xlink:title=" ">
<polygon fill="white" stroke="#bfbfbf" points="536.5,-179.5 536.5,-198.5 579.5,-198.5 579.5,-179.5 536.5,-179.5"/>
<text text-anchor="middle" x="558" y="-186.5" font-family="Helvetica,sans-Serif" font-size="10.00">stack</text>
</a>
</g>
</g>
<!-- Node29&#45;&gt;Node30 -->
<g id="edge48" class="edge">
<title>Node29&#45;&gt;Node30</title>
<path fill="none" stroke="midnightblue" d="M600.84,-240.98C593.26,-231.96 581.13,-217.52 571.71,-206.31"/>
<polygon fill="midnightblue" stroke="midnightblue" points="574.26,-203.91 565.15,-198.51 568.9,-208.42 574.26,-203.91"/>
</g>
<!-- Node31 -->
<g id="node31" class="node">
<title>Node31</title>
<g id="a_node31"><a xlink:title=" ">
<polygon fill="white" stroke="#bfbfbf" points="502,-62 502,-81 558,-81 558,-62 502,-62"/>
<text text-anchor="middle" x="530" y="-69" font-family="Helvetica,sans-Serif" font-size="10.00">sstream</text>
</a>
</g>
</g>
<!-- Node29&#45;&gt;Node31 -->
<g id="edge49" class="edge">
<title>Node29&#45;&gt;Node31</title>
<path fill="none" stroke="midnightblue" d="M582.52,-240.86C563.74,-233.05 539.4,-219.58 527,-199 506.76,-165.41 516.2,-117.16 523.78,-91.03"/>
<polygon fill="midnightblue" stroke="midnightblue" points="527.18,-91.88 526.82,-81.29 520.5,-89.79 527.18,-91.88"/>
</g>
<!-- Node32 -->
<g id="node32" class="node">
<title>Node32</title>
<g id="a_node32"><a xlink:href="parseableinput_8h.html" target="_top" xlink:title=" ">
<polygon fill="white" stroke="black" points="532,-123.5 532,-142.5 658,-142.5 658,-123.5 532,-123.5"/>
<text text-anchor="middle" x="595" y="-130.5" font-family="Helvetica,sans-Serif" font-size="10.00">../util/parseableinput.h</text>
</a>
</g>
</g>
<!-- Node29&#45;&gt;Node32 -->
<g id="edge51" class="edge">
<title>Node29&#45;&gt;Node32</title>
<path fill="none" stroke="midnightblue" d="M607.02,-240.82C604.93,-222.26 599.99,-178.34 597.14,-152.97"/>
<polygon fill="midnightblue" stroke="midnightblue" points="600.59,-152.33 595.99,-142.78 593.63,-153.11 600.59,-152.33"/>
</g>
<!-- Node34 -->
<g id="node34" class="node">
<title>Node34</title>
<g id="a_node34"><a xlink:href="parsertable_8h.html" target="_top" xlink:title=" ">
<polygon fill="white" stroke="black" points="714.5,-123.5 714.5,-142.5 795.5,-142.5 795.5,-123.5 714.5,-123.5"/>
<text text-anchor="middle" x="755" y="-130.5" font-family="Helvetica,sans-Serif" font-size="10.00">parsertable.h</text>
</a>
</g>
</g>
<!-- Node29&#45;&gt;Node34 -->
<g id="edge61" class="edge">
<title>Node29&#45;&gt;Node34</title>
<path fill="none" stroke="midnightblue" d="M614.03,-240.78C624.26,-226.49 646.2,-197.78 670,-179 686.54,-165.94 707.44,-154.82 724.37,-146.9"/>
<polygon fill="midnightblue" stroke="midnightblue" points="726.16,-149.93 733.82,-142.62 723.27,-143.56 726.16,-149.93"/>
</g>
<!-- Node35 -->
<g id="node35" class="node">
<title>Node35</title>
<g id="a_node35"><a xlink:href="lexer_8h.html" target="_top" xlink:title=" ">
<polygon fill="white" stroke="black" points="788.5,-179.5 788.5,-198.5 837.5,-198.5 837.5,-179.5 788.5,-179.5"/>
<text text-anchor="middle" x="813" y="-186.5" font-family="Helvetica,sans-Serif" font-size="10.00">lexer.h</text>
</a>
</g>
</g>
<!-- Node29&#45;&gt;Node35 -->
<g id="edge68" class="edge">
<title>Node29&#45;&gt;Node35</title>
<path fill="none" stroke="midnightblue" d="M637.37,-240.98C674.75,-230.13 739.2,-211.42 778.76,-199.94"/>
<polygon fill="midnightblue" stroke="midnightblue" points="779.87,-203.26 788.5,-197.11 777.92,-196.54 779.87,-203.26"/>
</g>
<!-- Node36 -->
<g id="node36" class="node">
<title>Node36</title>
<g id="a_node36"><a xlink:href="token_8h.html" target="_top" xlink:title=" ">
<polygon fill="white" stroke="black" points="852.5,-123.5 852.5,-142.5 905.5,-142.5 905.5,-123.5 852.5,-123.5"/>
<text text-anchor="middle" x="879" y="-130.5" font-family="Helvetica,sans-Serif" font-size="10.00">token.h</text>
</a>
</g>
</g>
<!-- Node29&#45;&gt;Node36 -->
<g id="edge71" class="edge">
<title>Node29&#45;&gt;Node36</title>
<path fill="none" stroke="midnightblue" d="M628.37,-240.82C675.86,-220.58 794.11,-170.18 849.5,-146.57"/>
<polygon fill="midnightblue" stroke="midnightblue" points="850.94,-149.77 858.76,-142.62 848.19,-143.33 850.94,-149.77"/>
</g>
<!-- Node32&#45;&gt;Node3 -->
<g id="edge52" class="edge">
<title>Node32&#45;&gt;Node3</title>
<path fill="none" stroke="midnightblue" d="M599.91,-123.39C609.26,-107.76 631.07,-74.61 658,-56 688.17,-35.15 728.89,-23.17 756.88,-16.89"/>
<polygon fill="midnightblue" stroke="midnightblue" points="757.88,-20.26 766.93,-14.76 756.42,-13.41 757.88,-20.26"/>
</g>
<!-- Node32&#45;&gt;Node4 -->
<g id="edge57" class="edge">
<title>Node32&#45;&gt;Node4</title>
<path fill="none" stroke="midnightblue" d="M658.34,-126.54C782.24,-115.82 1048.25,-92.58 1090,-87 1105.91,-84.87 1123.45,-81.86 1138.21,-79.14"/>
<polygon fill="midnightblue" stroke="midnightblue" points="1139.22,-82.51 1148.4,-77.22 1137.92,-75.63 1139.22,-82.51"/>
</g>
<!-- Node32&#45;&gt;Node12 -->
<g id="edge55" class="edge">
<title>Node32&#45;&gt;Node12</title>
<path fill="none" stroke="midnightblue" d="M608.04,-123.48C622.77,-113.84 646.97,-98.02 664.51,-86.55"/>
<polygon fill="midnightblue" stroke="midnightblue" points="666.53,-89.41 672.99,-81.01 662.7,-83.55 666.53,-89.41"/>
</g>
<!-- Node32&#45;&gt;Node17 -->
<g id="edge53" class="edge">
<title>Node32&#45;&gt;Node17</title>
<path fill="none" stroke="midnightblue" d="M658.27,-126C766.19,-115.64 977.52,-94.76 1011,-87 1014.07,-86.29 1017.22,-85.41 1020.35,-84.45"/>
<polygon fill="midnightblue" stroke="midnightblue" points="1021.76,-87.66 1030.11,-81.14 1019.52,-81.03 1021.76,-87.66"/>
</g>
<!-- Node32&#45;&gt;Node26 -->
<g id="edge58" class="edge">
<title>Node32&#45;&gt;Node26</title>
<path fill="none" stroke="midnightblue" d="M626.95,-123.48C666.42,-112.94 733.64,-95.01 776.91,-83.46"/>
<polygon fill="midnightblue" stroke="midnightblue" points="778.07,-86.78 786.83,-80.82 776.26,-80.01 778.07,-86.78"/>
</g>
<!-- Node32&#45;&gt;Node31 -->
<g id="edge54" class="edge">
<title>Node32&#45;&gt;Node31</title>
<path fill="none" stroke="midnightblue" d="M585.69,-123.48C575.55,-114.2 559.14,-99.17 546.75,-87.83"/>
<polygon fill="midnightblue" stroke="midnightblue" points="549.04,-85.18 539.3,-81.01 544.31,-90.34 549.04,-85.18"/>
</g>
<!-- Node33 -->
<g id="node33" class="node">
<title>Node33</title>
<g id="a_node33"><a xlink:title=" ">
<polygon fill="white" stroke="#bfbfbf" points="213,-62 213,-81 245,-81 245,-62 213,-62"/>
<text text-anchor="middle" x="229" y="-69" font-family="Helvetica,sans-Serif" font-size="10.00">set</text>
</a>
</g>
</g>
<!-- Node32&#45;&gt;Node33 -->
<g id="edge56" class="edge">
<title>Node32&#45;&gt;Node33</title>
<path fill="none" stroke="midnightblue" d="M542.56,-123.48C463.11,-110.56 315.13,-86.5 255.21,-76.76"/>
<polygon fill="midnightblue" stroke="midnightblue" points="255.51,-73.26 245.08,-75.11 254.39,-80.17 255.51,-73.26"/>
</g>
<!-- Node34&#45;&gt;Node3 -->
<g id="edge62" class="edge">
<title>Node34&#45;&gt;Node3</title>
<path fill="none" stroke="midnightblue" d="M757.45,-123.3C762.93,-103.76 776.34,-56.06 783.79,-29.55"/>
<polygon fill="midnightblue" stroke="midnightblue" points="787.24,-30.2 786.58,-19.62 780.5,-28.3 787.24,-30.2"/>
</g>
<!-- Node34&#45;&gt;Node4 -->
<g id="edge65" class="edge">
<title>Node34&#45;&gt;Node4</title>
<path fill="none" stroke="midnightblue" d="M795.56,-127.1C858.64,-119.36 984.03,-103.48 1090,-87 1105.86,-84.53 1123.39,-81.48 1138.16,-78.81"/>
<polygon fill="midnightblue" stroke="midnightblue" points="1139.15,-82.19 1148.36,-76.95 1137.89,-75.3 1139.15,-82.19"/>
</g>
<!-- Node34&#45;&gt;Node12 -->
<g id="edge64" class="edge">
<title>Node34&#45;&gt;Node12</title>
<path fill="none" stroke="midnightblue" d="M745.11,-123.48C734.35,-114.2 716.93,-99.17 703.78,-87.83"/>
<polygon fill="midnightblue" stroke="midnightblue" points="705.73,-84.89 695.87,-81.01 701.16,-90.19 705.73,-84.89"/>
</g>
<!-- Node34&#45;&gt;Node17 -->
<g id="edge66" class="edge">
<title>Node34&#45;&gt;Node17</title>
<path fill="none" stroke="midnightblue" d="M795.82,-127.05C846.75,-120.37 936.23,-106.96 1011,-87 1013.97,-86.21 1017.04,-85.29 1020.08,-84.3"/>
<polygon fill="midnightblue" stroke="midnightblue" points="1021.31,-87.58 1029.63,-81.02 1019.03,-80.96 1021.31,-87.58"/>
</g>
<!-- Node34&#45;&gt;Node26 -->
<g id="edge67" class="edge">
<title>Node34&#45;&gt;Node26</title>
<path fill="none" stroke="midnightblue" d="M764.03,-123.48C773.76,-114.28 789.46,-99.46 801.42,-88.16"/>
<polygon fill="midnightblue" stroke="midnightblue" points="804.12,-90.42 808.99,-81.01 799.32,-85.33 804.12,-90.42"/>
</g>
<!-- Node34&#45;&gt;Node31 -->
<g id="edge63" class="edge">
<title>Node34&#45;&gt;Node31</title>
<path fill="none" stroke="midnightblue" d="M722.76,-123.48C681.93,-112.68 611.65,-94.09 568.18,-82.6"/>
<polygon fill="midnightblue" stroke="midnightblue" points="568.83,-79.15 558.27,-79.97 567.04,-85.92 568.83,-79.15"/>
</g>
<!-- Node35&#45;&gt;Node36 -->
<g id="edge69" class="edge">
<title>Node35&#45;&gt;Node36</title>
<path fill="none" stroke="midnightblue" d="M823.6,-179.32C833.46,-171.26 848.35,-159.08 860.22,-149.37"/>
<polygon fill="midnightblue" stroke="midnightblue" points="862.68,-151.88 868.2,-142.83 858.25,-146.46 862.68,-151.88"/>
</g>
<!-- Node36&#45;&gt;Node3 -->
<g id="edge70" class="edge">
<title>Node36&#45;&gt;Node3</title>
<path fill="none" stroke="midnightblue" d="M878.56,-123.16C877.39,-108.02 873.19,-76.78 858,-56 848.06,-42.4 832.65,-31.78 818.92,-24.29"/>
<polygon fill="midnightblue" stroke="midnightblue" points="820.26,-21.05 809.76,-19.6 817.07,-27.28 820.26,-21.05"/>
</g>
<!-- Node37&#45;&gt;Node3 -->
<g id="edge73" class="edge">
<title>Node37&#45;&gt;Node3</title>
<path fill="none" stroke="midnightblue" d="M150.2,-240.89C132.99,-232.68 109.28,-218.63 96,-199 76.84,-170.67 66.69,-152.49 84,-123 114.92,-70.32 145.52,-73.64 204,-56 308.77,-24.39 649.79,-14.14 756.66,-11.66"/>
<polygon fill="midnightblue" stroke="midnightblue" points="756.91,-15.16 766.83,-11.44 756.75,-8.16 756.91,-15.16"/>
</g>
<!-- Node37&#45;&gt;Node21 -->
<g id="edge78" class="edge">
<title>Node37&#45;&gt;Node21</title>
<path fill="none" stroke="midnightblue" d="M196.5,-240.98C227.3,-230.68 279.27,-213.31 313.85,-201.75"/>
<polygon fill="midnightblue" stroke="midnightblue" points="315.17,-205 323.54,-198.51 312.95,-198.36 315.17,-205"/>
</g>
<!-- Node37&#45;&gt;Node22 -->
<g id="edge76" class="edge">
<title>Node37&#45;&gt;Node22</title>
<path fill="none" stroke="midnightblue" d="M163.47,-240.91C155.61,-231.38 143.65,-215.22 138,-199 132.81,-184.1 131.49,-166.18 131.36,-152.94"/>
<polygon fill="midnightblue" stroke="midnightblue" points="134.87,-152.74 131.5,-142.69 127.87,-152.65 134.87,-152.74"/>
</g>
<!-- Node37&#45;&gt;Node23 -->
<g id="edge77" class="edge">
<title>Node37&#45;&gt;Node23</title>
<path fill="none" stroke="midnightblue" d="M174.52,-240.66C180.66,-226.18 194.54,-197.23 214,-179 228.91,-165.04 248.98,-154.21 265.98,-146.68"/>
<polygon fill="midnightblue" stroke="midnightblue" points="267.73,-149.74 275.58,-142.62 265,-143.29 267.73,-149.74"/>
</g>
<!-- Node37&#45;&gt;Node31 -->
<g id="edge75" class="edge">
<title>Node37&#45;&gt;Node31</title>
<path fill="none" stroke="midnightblue" d="M172.36,-240.61C174.82,-226.57 181.02,-198.82 194,-179 214.52,-147.66 223.35,-139.46 257,-123 334.33,-85.19 436.63,-75.56 491.43,-73.19"/>
<polygon fill="midnightblue" stroke="midnightblue" points="491.87,-76.67 501.73,-72.8 491.61,-69.68 491.87,-76.67"/>
</g>
<!-- Node37&#45;&gt;Node32 -->
<g id="edge79" class="edge">
<title>Node37&#45;&gt;Node32</title>
<path fill="none" stroke="midnightblue" d="M177.26,-240.75C188.86,-225.31 215.3,-193.5 246,-179 293.42,-156.6 434.23,-144 521.82,-138.14"/>
<polygon fill="midnightblue" stroke="midnightblue" points="522.22,-141.62 531.97,-137.47 521.76,-134.63 522.22,-141.62"/>
</g>
<!-- Node37&#45;&gt;Node33 -->
<g id="edge74" class="edge">
<title>Node37&#45;&gt;Node33</title>
<path fill="none" stroke="midnightblue" d="M158.77,-240.98C130.54,-220.25 65.41,-165.77 95,-123 119.17,-88.07 170.76,-77.27 202.41,-73.95"/>
<polygon fill="midnightblue" stroke="midnightblue" points="203.03,-77.41 212.7,-73.06 202.43,-70.44 203.03,-77.41"/>
</g>
<!-- Node38&#45;&gt;Node24 -->
<g id="edge81" class="edge">
<title>Node38&#45;&gt;Node24</title>
<path fill="none" stroke="midnightblue" d="M931.62,-179.32C945.95,-170.82 968.01,-157.73 984.75,-147.8"/>
<polygon fill="midnightblue" stroke="midnightblue" points="986.6,-150.77 993.42,-142.65 983.03,-144.75 986.6,-150.77"/>
</g>
<!-- Node38&#45;&gt;Node26 -->
<g id="edge82" class="edge">
<title>Node38&#45;&gt;Node26</title>
<path fill="none" stroke="midnightblue" d="M919.16,-179.2C921.89,-165.88 925.03,-140.35 914,-123 901.58,-103.47 878.97,-91.05 858.8,-83.42"/>
<polygon fill="midnightblue" stroke="midnightblue" points="859.75,-80.05 849.16,-80.05 857.44,-86.65 859.75,-80.05"/>
</g>
<!-- Node39&#45;&gt;Node3 -->
<g id="edge86" class="edge">
<title>Node39&#45;&gt;Node3</title>
<path fill="none" stroke="midnightblue" d="M1164.81,-179.43C1158.18,-155.4 1135.9,-87.11 1090,-56 1046.61,-26.6 889.71,-15.74 821.28,-12.34"/>
<polygon fill="midnightblue" stroke="midnightblue" points="821.24,-8.84 811.09,-11.86 820.91,-15.83 821.24,-8.84"/>
</g>
<!-- Node39&#45;&gt;Node4 -->
<g id="edge85" class="edge">
<title>Node39&#45;&gt;Node4</title>
<path fill="none" stroke="midnightblue" d="M1167.38,-179.32C1168.18,-160.76 1170.08,-116.84 1171.18,-91.47"/>
<polygon fill="midnightblue" stroke="midnightblue" points="1174.68,-91.42 1171.62,-81.28 1167.69,-91.12 1174.68,-91.42"/>
</g>
<!-- Node39&#45;&gt;Node16 -->
<g id="edge87" class="edge">
<title>Node39&#45;&gt;Node16</title>
<path fill="none" stroke="midnightblue" d="M1176.02,-179.46C1205.44,-151.61 1298.95,-63.11 1337.32,-26.79"/>
<polygon fill="midnightblue" stroke="midnightblue" points="1339.77,-29.28 1344.63,-19.87 1334.96,-24.2 1339.77,-29.28"/>
</g>
<!-- Node39&#45;&gt;Node24 -->
<g id="edge88" class="edge">
<title>Node39&#45;&gt;Node24</title>
<path fill="none" stroke="midnightblue" d="M1141.81,-179.44C1115.06,-170.36 1072.6,-155.94 1042.69,-145.78"/>
<polygon fill="midnightblue" stroke="midnightblue" points="1043.67,-142.42 1033.08,-142.52 1041.42,-149.05 1043.67,-142.42"/>
</g>
</g>
</svg>
