<?xml version="1.0" encoding="UTF-8" standalone="no"?>
<!DOCTYPE svg PUBLIC "-//W3C//DTD SVG 1.1//EN"
 "http://www.w3.org/Graphics/SVG/1.1/DTD/svg11.dtd">
<!-- Generated by graphviz version 2.43.0 (0)
 -->
<!-- Title: /root/fyp/project/src/main.cpp Pages: 1 -->
<!--zoomable 397 -->
<svg id="main" version="1.1" xmlns="http://www.w3.org/2000/svg" xmlns:xlink="http://www.w3.org/1999/xlink" xml:space="preserve" onload="init(evt)">
<style type="text/css"><![CDATA[
.edge:hover path { stroke: red; }
.edge:hover polygon { stroke: red; fill: red; }
]]></style>
<script type="text/javascript"><![CDATA[
var edges = document.getElementsByTagName('g');
if (edges && edges.length) {
  for (var i=0;i<edges.length;i++) {
    if (edges[i].id.substr(0,4)=='edge') {
      edges[i].setAttribute('class','edge');
    }
  }
}
]]></script>
        <defs>
                <circle id="rim" cx="0" cy="0" r="7"/>
                <circle id="rim2" cx="0" cy="0" r="3.5"/>
                <g id="zoomPlus">
                        <use xlink:href="#rim" fill="#404040">
                                <set attributeName="fill" to="#808080" begin="zoomplus.mouseover" end="zoomplus.mouseout"/>
                        </use>
                        <path d="M-4,0h8M0,-4v8" fill="none" stroke="white" stroke-width="1.5" pointer-events="none"/>
                </g>
                <g id="zoomMin">
                        <use xlink:href="#rim" fill="#404040">
                                <set attributeName="fill" to="#808080" begin="zoomminus.mouseover" end="zoomminus.mouseout"/>
                        </use>
                        <path d="M-4,0h8" fill="none" stroke="white" stroke-width="1.5" pointer-events="none"/>
                </g>
                <g id="dirArrow">
                        <path fill="none" stroke="white" stroke-width="1.5" d="M0,-3.0v7 M-2.5,-0.5L0,-3.0L2.5,-0.5"/>
                </g>
               <g id="resetDef">
                       <use xlink:href="#rim2" fill="#404040">
                               <set attributeName="fill" to="#808080" begin="reset.mouseover" end="reset.mouseout"/>
                       </use>
               </g>
        </defs>

<script type="text/javascript">
var viewWidth = 1474;
var viewHeight = 397;
var sectionId = 'dynsection-0';
</script>
<script xlink:href="svgpan.js"/>
<svg id="graph" class="graph">
<g id="viewport">
<title>/root/fyp/project/src/main.cpp</title>
<polygon fill="white" stroke="transparent" points="-4,4 -4,-393 1470.36,-393 1470.36,4 -4,4"/>
<!-- Node1 -->
<g id="node1" class="node">
<title>Node1</title>
<g id="a_node1"><a xlink:title=" ">
<polygon fill="#bfbfbf" stroke="black" points="357,-358.5 357,-388.5 468,-388.5 468,-358.5 357,-358.5"/>
<text text-anchor="start" x="365" y="-376.5" font-family="Helvetica,sans-Serif" font-size="10.00">/root/fyp/project/src</text>
<text text-anchor="middle" x="412.5" y="-365.5" font-family="Helvetica,sans-Serif" font-size="10.00">/main.cpp</text>
</a>
</g>
</g>
<!-- Node2 -->
<g id="node2" class="node">
<title>Node2</title>
<g id="a_node2"><a xlink:title=" ">
<polygon fill="white" stroke="#bfbfbf" points="385.5,-67.5 385.5,-86.5 445.5,-86.5 445.5,-67.5 385.5,-67.5"/>
<text text-anchor="middle" x="415.5" y="-74.5" font-family="Helvetica,sans-Serif" font-size="10.00">iostream</text>
</a>
</g>
</g>
<!-- Node1&#45;&gt;Node2 -->
<g id="edge1" class="edge">
<title>Node1&#45;&gt;Node2</title>
<path fill="none" stroke="midnightblue" d="M356.98,-372.31C275.09,-368.77 131.5,-348.7 131.5,-251.5 131.5,-251.5 131.5,-251.5 131.5,-188 131.5,-136.32 297.08,-99.43 375.38,-84.87"/>
<polygon fill="midnightblue" stroke="midnightblue" points="376.17,-88.29 385.38,-83.05 374.91,-81.4 376.17,-88.29"/>
</g>
<!-- Node3 -->
<g id="node3" class="node">
<title>Node3</title>
<g id="a_node3"><a xlink:href="nonterminalnode_8h.html" target="_top" xlink:title=" ">
<polygon fill="white" stroke="black" points="394,-241 394,-260 503,-260 503,-241 394,-241"/>
<text text-anchor="middle" x="448.5" y="-248" font-family="Helvetica,sans-Serif" font-size="10.00">nonterminalnode.h</text>
</a>
</g>
</g>
<!-- Node1&#45;&gt;Node3 -->
<g id="edge2" class="edge">
<title>Node1&#45;&gt;Node3</title>
<path fill="none" stroke="midnightblue" d="M416.77,-358.14C423.33,-336.1 435.87,-293.95 443.07,-269.76"/>
<polygon fill="midnightblue" stroke="midnightblue" points="446.46,-270.64 445.96,-260.05 439.75,-268.64 446.46,-270.64"/>
</g>
<!-- Node4 -->
<g id="node4" class="node">
<title>Node4</title>
<g id="a_node4"><a xlink:href="node_8h.html" target="_top" xlink:title=" ">
<polygon fill="white" stroke="black" points="390.5,-123.5 390.5,-142.5 440.5,-142.5 440.5,-123.5 390.5,-123.5"/>
<text text-anchor="middle" x="415.5" y="-130.5" font-family="Helvetica,sans-Serif" font-size="10.00">node.h</text>
</a>
</g>
</g>
<!-- Node1&#45;&gt;Node4 -->
<g id="edge17" class="edge">
<title>Node1&#45;&gt;Node4</title>
<path fill="none" stroke="midnightblue" d="M370.82,-358.42C289.84,-328.91 124.58,-256.84 188.5,-179 212.32,-149.99 322.32,-139.35 379.99,-135.73"/>
<polygon fill="midnightblue" stroke="midnightblue" points="380.34,-139.21 390.12,-135.13 379.93,-132.22 380.34,-139.21"/>
</g>
<!-- Node11 -->
<g id="node11" class="node">
<title>Node11</title>
<g id="a_node11"><a xlink:href="nonterminal_8h.html" target="_top" xlink:title=" ">
<polygon fill="white" stroke="black" points="542,-179.5 542,-198.5 627,-198.5 627,-179.5 542,-179.5"/>
<text text-anchor="middle" x="584.5" y="-186.5" font-family="Helvetica,sans-Serif" font-size="10.00">nonterminal.h</text>
</a>
</g>
</g>
<!-- Node1&#45;&gt;Node11 -->
<g id="edge16" class="edge">
<title>Node1&#45;&gt;Node11</title>
<path fill="none" stroke="midnightblue" d="M425.71,-358.48C457.03,-325.26 535.64,-241.85 569.07,-206.37"/>
<polygon fill="midnightblue" stroke="midnightblue" points="571.88,-208.5 576.19,-198.82 566.78,-203.7 571.88,-208.5"/>
</g>
<!-- Node12 -->
<g id="node12" class="node">
<title>Node12</title>
<g id="a_node12"><a xlink:href="rule_8h.html" target="_top" xlink:title=" ">
<polygon fill="white" stroke="black" points="331.5,-241 331.5,-260 375.5,-260 375.5,-241 331.5,-241"/>
<text text-anchor="middle" x="353.5" y="-248" font-family="Helvetica,sans-Serif" font-size="10.00">rule.h</text>
</a>
</g>
</g>
<!-- Node1&#45;&gt;Node12 -->
<g id="edge18" class="edge">
<title>Node1&#45;&gt;Node12</title>
<path fill="none" stroke="midnightblue" d="M405.5,-358.14C394.66,-335.91 373.83,-293.19 362.09,-269.11"/>
<polygon fill="midnightblue" stroke="midnightblue" points="365.2,-267.51 357.67,-260.05 358.91,-270.57 365.2,-267.51"/>
</g>
<!-- Node16 -->
<g id="node16" class="node">
<title>Node16</title>
<g id="a_node16"><a xlink:href="maingui_8h.html" target="_top" xlink:title=" ">
<polygon fill="white" stroke="black" points="915,-302.5 915,-321.5 980,-321.5 980,-302.5 915,-302.5"/>
<text text-anchor="middle" x="947.5" y="-309.5" font-family="Helvetica,sans-Serif" font-size="10.00">maingui.h</text>
</a>
</g>
</g>
<!-- Node1&#45;&gt;Node16 -->
<g id="edge27" class="edge">
<title>Node1&#45;&gt;Node16</title>
<path fill="none" stroke="midnightblue" d="M468.24,-366.3C575.53,-354.37 808.63,-328.44 904.75,-317.75"/>
<polygon fill="midnightblue" stroke="midnightblue" points="905.14,-321.23 914.69,-316.65 904.37,-314.28 905.14,-321.23"/>
</g>
<!-- Node3&#45;&gt;Node4 -->
<g id="edge3" class="edge">
<title>Node3&#45;&gt;Node4</title>
<path fill="none" stroke="midnightblue" d="M451.98,-240.92C456.97,-227.31 464.68,-200.14 456.5,-179 452.05,-167.5 443.13,-157.13 434.75,-149.25"/>
<polygon fill="midnightblue" stroke="midnightblue" points="436.87,-146.46 427.04,-142.51 432.26,-151.73 436.87,-146.46"/>
</g>
<!-- Node3&#45;&gt;Node11 -->
<g id="edge13" class="edge">
<title>Node3&#45;&gt;Node11</title>
<path fill="none" stroke="midnightblue" d="M467.99,-240.98C490.91,-230.95 529.19,-214.2 555.58,-202.65"/>
<polygon fill="midnightblue" stroke="midnightblue" points="557.29,-205.72 565.05,-198.51 554.49,-199.31 557.29,-205.72"/>
</g>
<!-- Node4&#45;&gt;Node2 -->
<g id="edge12" class="edge">
<title>Node4&#45;&gt;Node2</title>
<path fill="none" stroke="midnightblue" d="M415.5,-123.08C415.5,-116.01 415.5,-105.86 415.5,-96.99"/>
<polygon fill="midnightblue" stroke="midnightblue" points="419,-96.75 415.5,-86.75 412,-96.75 419,-96.75"/>
</g>
<!-- Node5 -->
<g id="node5" class="node">
<title>Node5</title>
<g id="a_node5"><a xlink:title=" ">
<polygon fill="white" stroke="#bfbfbf" points="1033.5,-67.5 1033.5,-86.5 1077.5,-86.5 1077.5,-67.5 1033.5,-67.5"/>
<text text-anchor="middle" x="1055.5" y="-74.5" font-family="Helvetica,sans-Serif" font-size="10.00">string</text>
</a>
</g>
</g>
<!-- Node4&#45;&gt;Node5 -->
<g id="edge4" class="edge">
<title>Node4&#45;&gt;Node5</title>
<path fill="none" stroke="midnightblue" d="M440.59,-129.88C540.67,-121.44 911.32,-90.17 1023.27,-80.72"/>
<polygon fill="midnightblue" stroke="midnightblue" points="1023.61,-84.2 1033.28,-79.87 1023.02,-77.23 1023.61,-84.2"/>
</g>
<!-- Node6 -->
<g id="node6" class="node">
<title>Node6</title>
<g id="a_node6"><a xlink:title=" ">
<polygon fill="white" stroke="#bfbfbf" points="589,-67.5 589,-86.5 636,-86.5 636,-67.5 589,-67.5"/>
<text text-anchor="middle" x="612.5" y="-74.5" font-family="Helvetica,sans-Serif" font-size="10.00">vector</text>
</a>
</g>
</g>
<!-- Node4&#45;&gt;Node6 -->
<g id="edge5" class="edge">
<title>Node4&#45;&gt;Node6</title>
<path fill="none" stroke="midnightblue" d="M440.85,-125.05C476.05,-115.4 539.81,-97.93 578.92,-87.2"/>
<polygon fill="midnightblue" stroke="midnightblue" points="580.06,-90.52 588.78,-84.5 578.21,-83.77 580.06,-90.52"/>
</g>
<!-- Node7 -->
<g id="node7" class="node">
<title>Node7</title>
<g id="a_node7"><a xlink:href="nodelink_8h.html" target="_top" xlink:title=" ">
<polygon fill="white" stroke="black" points="463.5,-67.5 463.5,-86.5 531.5,-86.5 531.5,-67.5 463.5,-67.5"/>
<text text-anchor="middle" x="497.5" y="-74.5" font-family="Helvetica,sans-Serif" font-size="10.00">nodelink.h</text>
</a>
</g>
</g>
<!-- Node4&#45;&gt;Node7 -->
<g id="edge6" class="edge">
<title>Node4&#45;&gt;Node7</title>
<path fill="none" stroke="midnightblue" d="M423.56,-123.32C434.63,-114.82 454.23,-101.73 470.57,-91.8"/>
<polygon fill="midnightblue" stroke="midnightblue" points="472.43,-94.77 479.25,-86.65 468.86,-88.74 472.43,-94.77"/>
</g>
<!-- Node8 -->
<g id="node8" class="node">
<title>Node8</title>
<g id="a_node8"><a xlink:title=" ">
<polygon fill="white" stroke="#bfbfbf" points="359,-0.5 359,-30.5 496,-30.5 496,-0.5 359,-0.5"/>
<text text-anchor="start" x="367" y="-18.5" font-family="Helvetica,sans-Serif" font-size="10.00">imgui/nodes/imgui_node</text>
<text text-anchor="middle" x="427.5" y="-7.5" font-family="Helvetica,sans-Serif" font-size="10.00">_editor.h</text>
</a>
</g>
</g>
<!-- Node4&#45;&gt;Node8 -->
<g id="edge11" class="edge">
<title>Node4&#45;&gt;Node8</title>
<path fill="none" stroke="midnightblue" d="M403.84,-123.19C389.36,-111.08 367.58,-88.38 376.5,-67 381.29,-55.53 390.09,-45.32 399.05,-37.15"/>
<polygon fill="midnightblue" stroke="midnightblue" points="401.52,-39.64 406.87,-30.5 396.98,-34.31 401.52,-39.64"/>
</g>
<!-- Node9 -->
<g id="node9" class="node">
<title>Node9</title>
<g id="a_node9"><a xlink:href="drawing_8h.html" target="_top" xlink:title=" ">
<polygon fill="white" stroke="black" points="0,-67.5 0,-86.5 65,-86.5 65,-67.5 0,-67.5"/>
<text text-anchor="middle" x="32.5" y="-74.5" font-family="Helvetica,sans-Serif" font-size="10.00">drawing.h</text>
</a>
</g>
</g>
<!-- Node4&#45;&gt;Node9 -->
<g id="edge9" class="edge">
<title>Node4&#45;&gt;Node9</title>
<path fill="none" stroke="midnightblue" d="M390.37,-128.46C326.18,-119.41 155.63,-95.36 75.38,-84.05"/>
<polygon fill="midnightblue" stroke="midnightblue" points="75.52,-80.53 65.13,-82.6 74.55,-87.46 75.52,-80.53"/>
</g>
<!-- Node7&#45;&gt;Node4 -->
<g id="edge7" class="edge">
<title>Node7&#45;&gt;Node4</title>
<path fill="none" stroke="midnightblue" d="M489.23,-86.83C478.13,-95.34 458.66,-108.34 442.41,-118.21"/>
<polygon fill="midnightblue" stroke="midnightblue" points="440.61,-115.21 433.79,-123.32 444.18,-121.23 440.61,-115.21"/>
</g>
<!-- Node7&#45;&gt;Node8 -->
<g id="edge8" class="edge">
<title>Node7&#45;&gt;Node8</title>
<path fill="none" stroke="midnightblue" d="M487.47,-67.48C478.17,-59.57 463.95,-47.48 451.7,-37.07"/>
<polygon fill="midnightblue" stroke="midnightblue" points="453.88,-34.33 444,-30.52 449.35,-39.67 453.88,-34.33"/>
</g>
<!-- Node10 -->
<g id="node10" class="node">
<title>Node10</title>
<g id="a_node10"><a xlink:title=" ">
<polygon fill="white" stroke="#bfbfbf" points="6,-6 6,-25 59,-25 59,-6 6,-6"/>
<text text-anchor="middle" x="32.5" y="-13" font-family="Helvetica,sans-Serif" font-size="10.00">imgui.h</text>
</a>
</g>
</g>
<!-- Node9&#45;&gt;Node10 -->
<g id="edge10" class="edge">
<title>Node9&#45;&gt;Node10</title>
<path fill="none" stroke="midnightblue" d="M32.5,-67.48C32.5,-59.08 32.5,-45.98 32.5,-35.16"/>
<polygon fill="midnightblue" stroke="midnightblue" points="36,-35.01 32.5,-25.01 29,-35.01 36,-35.01"/>
</g>
<!-- Node11&#45;&gt;Node5 -->
<g id="edge14" class="edge">
<title>Node11&#45;&gt;Node5</title>
<path fill="none" stroke="midnightblue" d="M621.07,-179.46C710.49,-158.57 939.08,-105.19 1023.52,-85.47"/>
<polygon fill="midnightblue" stroke="midnightblue" points="1024.37,-88.86 1033.32,-83.18 1022.78,-82.05 1024.37,-88.86"/>
</g>
<!-- Node11&#45;&gt;Node6 -->
<g id="edge15" class="edge">
<title>Node11&#45;&gt;Node6</title>
<path fill="none" stroke="midnightblue" d="M586.7,-179.37C591.22,-161.62 601.64,-120.67 607.77,-96.6"/>
<polygon fill="midnightblue" stroke="midnightblue" points="611.24,-97.15 610.31,-86.59 604.45,-95.42 611.24,-97.15"/>
</g>
<!-- Node12&#45;&gt;Node7 -->
<g id="edge20" class="edge">
<title>Node12&#45;&gt;Node7</title>
<path fill="none" stroke="midnightblue" d="M372.17,-240.8C401.02,-227.29 453.46,-202.46 456.5,-199 482.51,-169.39 492.17,-122.58 495.64,-96.72"/>
<polygon fill="midnightblue" stroke="midnightblue" points="499.12,-97.08 496.81,-86.74 492.17,-96.27 499.12,-97.08"/>
</g>
<!-- Node12&#45;&gt;Node8 -->
<g id="edge26" class="edge">
<title>Node12&#45;&gt;Node8</title>
<path fill="none" stroke="midnightblue" d="M331.41,-248.87C280,-246.47 158.92,-234.89 188.5,-179 228,-104.38 318.83,-57.65 376.45,-34.38"/>
<polygon fill="midnightblue" stroke="midnightblue" points="378.07,-37.5 386.09,-30.58 375.51,-30.99 378.07,-37.5"/>
</g>
<!-- Node12&#45;&gt;Node11 -->
<g id="edge21" class="edge">
<title>Node12&#45;&gt;Node11</title>
<path fill="none" stroke="midnightblue" d="M370.85,-240.87C375.53,-238.75 380.64,-236.63 385.5,-235 434.1,-218.68 491.35,-206.43 531.94,-198.87"/>
<polygon fill="midnightblue" stroke="midnightblue" points="532.68,-202.29 541.89,-197.04 531.42,-195.4 532.68,-202.29"/>
</g>
<!-- Node13 -->
<g id="node13" class="node">
<title>Node13</title>
<g id="a_node13"><a xlink:title=" ">
<polygon fill="white" stroke="#bfbfbf" points="307.5,-179.5 307.5,-198.5 345.5,-198.5 345.5,-179.5 307.5,-179.5"/>
<text text-anchor="middle" x="326.5" y="-186.5" font-family="Helvetica,sans-Serif" font-size="10.00">map</text>
</a>
</g>
</g>
<!-- Node12&#45;&gt;Node13 -->
<g id="edge19" class="edge">
<title>Node12&#45;&gt;Node13</title>
<path fill="none" stroke="midnightblue" d="M349.63,-240.98C345.7,-232.32 339.5,-218.65 334.51,-207.65"/>
<polygon fill="midnightblue" stroke="midnightblue" points="337.68,-206.17 330.36,-198.51 331.31,-209.06 337.68,-206.17"/>
</g>
<!-- Node14 -->
<g id="node14" class="node">
<title>Node14</title>
<g id="a_node14"><a xlink:href="specialnode_8h.html" target="_top" xlink:title=" ">
<polygon fill="white" stroke="black" points="363.5,-179.5 363.5,-198.5 447.5,-198.5 447.5,-179.5 363.5,-179.5"/>
<text text-anchor="middle" x="405.5" y="-186.5" font-family="Helvetica,sans-Serif" font-size="10.00">specialnode.h</text>
</a>
</g>
</g>
<!-- Node12&#45;&gt;Node14 -->
<g id="edge22" class="edge">
<title>Node12&#45;&gt;Node14</title>
<path fill="none" stroke="midnightblue" d="M360.95,-240.98C368.83,-231.96 381.44,-217.52 391.24,-206.31"/>
<polygon fill="midnightblue" stroke="midnightblue" points="394.12,-208.34 398.06,-198.51 388.85,-203.74 394.12,-208.34"/>
</g>
<!-- Node15 -->
<g id="node15" class="node">
<title>Node15</title>
<g id="a_node15"><a xlink:href="terminalnode_8h.html" target="_top" xlink:title=" ">
<polygon fill="white" stroke="black" points="198,-179.5 198,-198.5 289,-198.5 289,-179.5 198,-179.5"/>
<text text-anchor="middle" x="243.5" y="-186.5" font-family="Helvetica,sans-Serif" font-size="10.00">terminalnode.h</text>
</a>
</g>
</g>
<!-- Node12&#45;&gt;Node15 -->
<g id="edge24" class="edge">
<title>Node12&#45;&gt;Node15</title>
<path fill="none" stroke="midnightblue" d="M337.74,-240.98C319.52,-231.12 289.33,-214.79 268.03,-203.27"/>
<polygon fill="midnightblue" stroke="midnightblue" points="269.69,-200.19 259.23,-198.51 266.36,-206.35 269.69,-200.19"/>
</g>
<!-- Node14&#45;&gt;Node4 -->
<g id="edge23" class="edge">
<title>Node14&#45;&gt;Node4</title>
<path fill="none" stroke="midnightblue" d="M407.15,-179.08C408.48,-171.93 410.38,-161.64 412.04,-152.69"/>
<polygon fill="midnightblue" stroke="midnightblue" points="415.5,-153.22 413.88,-142.75 408.62,-151.95 415.5,-153.22"/>
</g>
<!-- Node15&#45;&gt;Node4 -->
<g id="edge25" class="edge">
<title>Node15&#45;&gt;Node4</title>
<path fill="none" stroke="midnightblue" d="M270.75,-179.44C300.41,-170.13 347.93,-155.21 380.37,-145.03"/>
<polygon fill="midnightblue" stroke="midnightblue" points="381.84,-148.24 390.33,-141.9 379.74,-141.56 381.84,-148.24"/>
</g>
<!-- Node16&#45;&gt;Node5 -->
<g id="edge28" class="edge">
<title>Node16&#45;&gt;Node5</title>
<path fill="none" stroke="midnightblue" d="M980.16,-310.75C1046.51,-309.48 1193.44,-302.51 1224.5,-266 1281.59,-198.89 1145.2,-121.42 1083.69,-91.11"/>
<polygon fill="midnightblue" stroke="midnightblue" points="1085.02,-87.87 1074.5,-86.66 1081.97,-94.17 1085.02,-87.87"/>
</g>
<!-- Node16&#45;&gt;Node6 -->
<g id="edge29" class="edge">
<title>Node16&#45;&gt;Node6</title>
<path fill="none" stroke="midnightblue" d="M914.92,-309.32C830.71,-304.66 610.89,-290.25 589.5,-266 580.39,-255.67 583.4,-247.35 589.5,-235 601.15,-211.41 624.85,-222.59 636.5,-199 653.33,-164.91 635.27,-119.91 622.62,-95.52"/>
<polygon fill="midnightblue" stroke="midnightblue" points="625.67,-93.8 617.81,-86.7 619.53,-97.16 625.67,-93.8"/>
</g>
<!-- Node16&#45;&gt;Node8 -->
<g id="edge35" class="edge">
<title>Node16&#45;&gt;Node8</title>
<path fill="none" stroke="midnightblue" d="M980.1,-310.21C1085.17,-307.38 1410.18,-296.24 1445.5,-266 1471.95,-243.36 1464.5,-224.82 1464.5,-190 1464.5,-190 1464.5,-190 1464.5,-132 1464.5,-35.68 748.66,-19.68 506.48,-17.03"/>
<polygon fill="midnightblue" stroke="midnightblue" points="506.38,-13.53 496.34,-16.92 506.31,-20.53 506.38,-13.53"/>
</g>
<!-- Node16&#45;&gt;Node12 -->
<g id="edge36" class="edge">
<title>Node16&#45;&gt;Node12</title>
<path fill="none" stroke="midnightblue" d="M914.91,-309.86C810.74,-306 486.79,-292.15 385.5,-266 383.29,-265.43 381.05,-264.72 378.82,-263.92"/>
<polygon fill="midnightblue" stroke="midnightblue" points="379.96,-260.6 369.38,-260 377.28,-267.06 379.96,-260.6"/>
</g>
<!-- Node17 -->
<g id="node17" class="node">
<title>Node17</title>
<g id="a_node17"><a xlink:title=" ">
<polygon fill="white" stroke="#bfbfbf" points="1270.5,-241 1270.5,-260 1334.5,-260 1334.5,-241 1270.5,-241"/>
<text text-anchor="middle" x="1302.5" y="-248" font-family="Helvetica,sans-Serif" font-size="10.00">GL/glew.h</text>
</a>
</g>
</g>
<!-- Node16&#45;&gt;Node17 -->
<g id="edge30" class="edge">
<title>Node16&#45;&gt;Node17</title>
<path fill="none" stroke="midnightblue" d="M980.29,-307.97C1037.07,-302.35 1157.15,-288.74 1256.5,-266 1260.34,-265.12 1264.32,-264.08 1268.26,-262.96"/>
<polygon fill="midnightblue" stroke="midnightblue" points="1269.3,-266.3 1277.87,-260.06 1267.29,-259.59 1269.3,-266.3"/>
</g>
<!-- Node18 -->
<g id="node18" class="node">
<title>Node18</title>
<g id="a_node18"><a xlink:title=" ">
<polygon fill="white" stroke="#bfbfbf" points="1353,-241 1353,-260 1436,-260 1436,-241 1353,-241"/>
<text text-anchor="middle" x="1394.5" y="-248" font-family="Helvetica,sans-Serif" font-size="10.00">GLFW/glfw3.h</text>
</a>
</g>
</g>
<!-- Node16&#45;&gt;Node18 -->
<g id="edge31" class="edge">
<title>Node16&#45;&gt;Node18</title>
<path fill="none" stroke="midnightblue" d="M980.12,-309.11C1048.18,-304.76 1210.12,-292.36 1343.5,-266 1348.22,-265.07 1353.14,-263.91 1357.97,-262.66"/>
<polygon fill="midnightblue" stroke="midnightblue" points="1358.98,-266.02 1367.7,-260.01 1357.13,-259.26 1358.98,-266.02"/>
</g>
<!-- Node19 -->
<g id="node19" class="node">
<title>Node19</title>
<g id="a_node19"><a xlink:title=" ">
<polygon fill="white" stroke="#bfbfbf" points="598,-241 598,-260 725,-260 725,-241 598,-241"/>
<text text-anchor="middle" x="661.5" y="-248" font-family="Helvetica,sans-Serif" font-size="10.00">imgui/imgui_internal.h</text>
</a>
</g>
</g>
<!-- Node16&#45;&gt;Node19 -->
<g id="edge32" class="edge">
<title>Node16&#45;&gt;Node19</title>
<path fill="none" stroke="midnightblue" d="M914.97,-304.23C865.56,-293.95 771.16,-274.31 712.55,-262.12"/>
<polygon fill="midnightblue" stroke="midnightblue" points="713.26,-258.69 702.75,-260.08 711.83,-265.55 713.26,-258.69"/>
</g>
<!-- Node20 -->
<g id="node20" class="node">
<title>Node20</title>
<g id="a_node20"><a xlink:title=" ">
<polygon fill="white" stroke="#bfbfbf" points="743.5,-235.5 743.5,-265.5 867.5,-265.5 867.5,-235.5 743.5,-235.5"/>
<text text-anchor="start" x="751.5" y="-253.5" font-family="Helvetica,sans-Serif" font-size="10.00">imgui/backends/imgui</text>
<text text-anchor="middle" x="805.5" y="-242.5" font-family="Helvetica,sans-Serif" font-size="10.00">_impl_glfw.h</text>
</a>
</g>
</g>
<!-- Node16&#45;&gt;Node20 -->
<g id="edge33" class="edge">
<title>Node16&#45;&gt;Node20</title>
<path fill="none" stroke="midnightblue" d="M927.15,-302.48C906.66,-293.89 874.43,-280.38 848.29,-269.43"/>
<polygon fill="midnightblue" stroke="midnightblue" points="849.54,-266.16 838.97,-265.52 846.84,-272.62 849.54,-266.16"/>
</g>
<!-- Node21 -->
<g id="node21" class="node">
<title>Node21</title>
<g id="a_node21"><a xlink:title=" ">
<polygon fill="white" stroke="#bfbfbf" points="885.5,-235.5 885.5,-265.5 1009.5,-265.5 1009.5,-235.5 885.5,-235.5"/>
<text text-anchor="start" x="893.5" y="-253.5" font-family="Helvetica,sans-Serif" font-size="10.00">imgui/backends/imgui</text>
<text text-anchor="middle" x="947.5" y="-242.5" font-family="Helvetica,sans-Serif" font-size="10.00">_impl_opengl3.h</text>
</a>
</g>
</g>
<!-- Node16&#45;&gt;Node21 -->
<g id="edge34" class="edge">
<title>Node16&#45;&gt;Node21</title>
<path fill="none" stroke="midnightblue" d="M947.5,-302.48C947.5,-295.47 947.5,-285.19 947.5,-275.7"/>
<polygon fill="midnightblue" stroke="midnightblue" points="951,-275.52 947.5,-265.52 944,-275.52 951,-275.52"/>
</g>
<!-- Node22 -->
<g id="node22" class="node">
<title>Node22</title>
<g id="a_node22"><a xlink:href="iparsergenerator_8h.html" target="_top" xlink:title=" ">
<polygon fill="white" stroke="black" points="1028,-241 1028,-260 1215,-260 1215,-241 1028,-241"/>
<text text-anchor="middle" x="1121.5" y="-248" font-family="Helvetica,sans-Serif" font-size="10.00">parsergenerator/iparsergenerator.h</text>
</a>
</g>
</g>
<!-- Node16&#45;&gt;Node22 -->
<g id="edge37" class="edge">
<title>Node16&#45;&gt;Node22</title>
<path fill="none" stroke="midnightblue" d="M972.43,-302.48C1002.54,-292.18 1053.33,-274.81 1087.14,-263.25"/>
<polygon fill="midnightblue" stroke="midnightblue" points="1088.29,-266.56 1096.62,-260.01 1086.02,-259.93 1088.29,-266.56"/>
</g>
<!-- Node22&#45;&gt;Node5 -->
<g id="edge40" class="edge">
<title>Node22&#45;&gt;Node5</title>
<path fill="none" stroke="midnightblue" d="M1121.24,-240.71C1120.29,-219.39 1115.9,-163.69 1095.5,-123 1090.02,-112.07 1081.19,-101.73 1073.22,-93.72"/>
<polygon fill="midnightblue" stroke="midnightblue" points="1075.35,-90.92 1065.7,-86.56 1070.53,-95.99 1075.35,-90.92"/>
</g>
<!-- Node23 -->
<g id="node23" class="node">
<title>Node23</title>
<g id="a_node23"><a xlink:title=" ">
<polygon fill="white" stroke="#bfbfbf" points="842,-179.5 842,-198.5 897,-198.5 897,-179.5 842,-179.5"/>
<text text-anchor="middle" x="869.5" y="-186.5" font-family="Helvetica,sans-Serif" font-size="10.00">fstream</text>
</a>
</g>
</g>
<!-- Node22&#45;&gt;Node23 -->
<g id="edge38" class="edge">
<title>Node22&#45;&gt;Node23</title>
<path fill="none" stroke="midnightblue" d="M1084.58,-240.92C1043.74,-231.41 975.72,-215.51 907.45,-199.21"/>
<polygon fill="midnightblue" stroke="midnightblue" points="907.91,-195.73 897.37,-196.81 906.29,-202.53 907.91,-195.73"/>
</g>
<!-- Node24 -->
<g id="node24" class="node">
<title>Node24</title>
<g id="a_node24"><a xlink:title=" ">
<polygon fill="white" stroke="#bfbfbf" points="915.5,-179.5 915.5,-198.5 983.5,-198.5 983.5,-179.5 915.5,-179.5"/>
<text text-anchor="middle" x="949.5" y="-186.5" font-family="Helvetica,sans-Serif" font-size="10.00">filesystem</text>
</a>
</g>
</g>
<!-- Node22&#45;&gt;Node24 -->
<g id="edge39" class="edge">
<title>Node22&#45;&gt;Node24</title>
<path fill="none" stroke="midnightblue" d="M1096.86,-240.98C1067.22,-230.72 1017.32,-213.46 983.9,-201.9"/>
<polygon fill="midnightblue" stroke="midnightblue" points="984.69,-198.47 974.1,-198.51 982.4,-205.09 984.69,-198.47"/>
</g>
<!-- Node25 -->
<g id="node25" class="node">
<title>Node25</title>
<g id="a_node25"><a xlink:href="parsetree_8h.html" target="_top" xlink:title=" ">
<polygon fill="white" stroke="black" points="1002,-179.5 1002,-198.5 1093,-198.5 1093,-179.5 1002,-179.5"/>
<text text-anchor="middle" x="1047.5" y="-186.5" font-family="Helvetica,sans-Serif" font-size="10.00">util/parsetree.h</text>
</a>
</g>
</g>
<!-- Node22&#45;&gt;Node25 -->
<g id="edge41" class="edge">
<title>Node22&#45;&gt;Node25</title>
<path fill="none" stroke="midnightblue" d="M1110.9,-240.98C1099.25,-231.61 1080.31,-216.38 1066.17,-205.01"/>
<polygon fill="midnightblue" stroke="midnightblue" points="1068.07,-202.05 1058.08,-198.51 1063.68,-207.5 1068.07,-202.05"/>
</g>
<!-- Node25&#45;&gt;Node2 -->
<g id="edge44" class="edge">
<title>Node25&#45;&gt;Node2</title>
<path fill="none" stroke="midnightblue" d="M1001.69,-180.35C877.69,-159.64 539.72,-103.04 455.64,-87.09"/>
<polygon fill="midnightblue" stroke="midnightblue" points="456.18,-83.63 445.7,-85.15 454.84,-90.5 456.18,-83.63"/>
</g>
<!-- Node25&#45;&gt;Node6 -->
<g id="edge42" class="edge">
<title>Node25&#45;&gt;Node6</title>
<path fill="none" stroke="midnightblue" d="M1013.73,-179.46C932.63,-158.95 727.62,-107.11 646.39,-86.57"/>
<polygon fill="midnightblue" stroke="midnightblue" points="646.78,-83.06 636.23,-84 645.06,-89.84 646.78,-83.06"/>
</g>
<!-- Node26 -->
<g id="node26" class="node">
<title>Node26</title>
<g id="a_node26"><a xlink:title=" ">
<polygon fill="white" stroke="#bfbfbf" points="923,-123.5 923,-142.5 1006,-142.5 1006,-123.5 923,-123.5"/>
<text text-anchor="middle" x="964.5" y="-130.5" font-family="Helvetica,sans-Serif" font-size="10.00">initializer_list</text>
</a>
</g>
</g>
<!-- Node25&#45;&gt;Node26 -->
<g id="edge43" class="edge">
<title>Node25&#45;&gt;Node26</title>
<path fill="none" stroke="midnightblue" d="M1034.16,-179.32C1021.34,-170.98 1001.72,-158.21 986.56,-148.35"/>
<polygon fill="midnightblue" stroke="midnightblue" points="988.09,-145.17 977.8,-142.65 984.28,-151.04 988.09,-145.17"/>
</g>
<!-- Node27 -->
<g id="node27" class="node">
<title>Node27</title>
<g id="a_node27"><a xlink:href="symbol_8h.html" target="_top" xlink:title=" ">
<polygon fill="white" stroke="black" points="1024.5,-123.5 1024.5,-142.5 1086.5,-142.5 1086.5,-123.5 1024.5,-123.5"/>
<text text-anchor="middle" x="1055.5" y="-130.5" font-family="Helvetica,sans-Serif" font-size="10.00">symbol.h</text>
</a>
</g>
</g>
<!-- Node25&#45;&gt;Node27 -->
<g id="edge45" class="edge">
<title>Node25&#45;&gt;Node27</title>
<path fill="none" stroke="midnightblue" d="M1048.82,-179.08C1049.88,-171.93 1051.41,-161.64 1052.73,-152.69"/>
<polygon fill="midnightblue" stroke="midnightblue" points="1056.2,-153.16 1054.2,-142.75 1049.28,-152.13 1056.2,-153.16"/>
</g>
<!-- Node27&#45;&gt;Node5 -->
<g id="edge46" class="edge">
<title>Node27&#45;&gt;Node5</title>
<path fill="none" stroke="midnightblue" d="M1055.5,-123.08C1055.5,-116.01 1055.5,-105.86 1055.5,-96.99"/>
<polygon fill="midnightblue" stroke="midnightblue" points="1059,-96.75 1055.5,-86.75 1052,-96.75 1059,-96.75"/>
</g>
</g>
</svg>
        <g id="navigator" transform="translate(0 0)" fill="#404254">
                <rect fill="#f2f5e9" fill-opacity="0.5" stroke="#606060" stroke-width=".5" x="0" y="0" width="60" height="60"/>
                <use id="zoomplus" xlink:href="#zoomPlus" x="17" y="9" onmousedown="handleZoom(evt,'in')"/>
                <use id="zoomminus" xlink:href="#zoomMin" x="42" y="9" onmousedown="handleZoom(evt,'out')"/>
                <use id="reset" xlink:href="#resetDef" x="30" y="36" onmousedown="handleReset()"/>
                <g id="arrowUp" xlink:href="#dirArrow" transform="translate(30 24)" onmousedown="handlePan(0,-1)">
                  <use xlink:href="#rim" fill="#404040">
                        <set attributeName="fill" to="#808080" begin="arrowUp.mouseover" end="arrowUp.mouseout"/>
                  </use>
                  <path fill="none" stroke="white" stroke-width="1.5" d="M0,-3.0v7 M-2.5,-0.5L0,-3.0L2.5,-0.5"/>
                </g>
                <g id="arrowRight" xlink:href="#dirArrow" transform="rotate(90) translate(36 -43)" onmousedown="handlePan(1,0)">
                  <use xlink:href="#rim" fill="#404040">
                        <set attributeName="fill" to="#808080" begin="arrowRight.mouseover" end="arrowRight.mouseout"/>
                  </use>
                  <path fill="none" stroke="white" stroke-width="1.5" d="M0,-3.0v7 M-2.5,-0.5L0,-3.0L2.5,-0.5"/>
                </g>
                <g id="arrowDown" xlink:href="#dirArrow" transform="rotate(180) translate(-30 -48)" onmousedown="handlePan(0,1)">
                  <use xlink:href="#rim" fill="#404040">
                        <set attributeName="fill" to="#808080" begin="arrowDown.mouseover" end="arrowDown.mouseout"/>
                  </use>
                  <path fill="none" stroke="white" stroke-width="1.5" d="M0,-3.0v7 M-2.5,-0.5L0,-3.0L2.5,-0.5"/>
                </g>
                <g id="arrowLeft" xlink:href="#dirArrow" transform="rotate(270) translate(-36 17)" onmousedown="handlePan(-1,0)">
                  <use xlink:href="#rim" fill="#404040">
                        <set attributeName="fill" to="#808080" begin="arrowLeft.mouseover" end="arrowLeft.mouseout"/>
                  </use>
                  <path fill="none" stroke="white" stroke-width="1.5" d="M0,-3.0v7 M-2.5,-0.5L0,-3.0L2.5,-0.5"/>
                </g>
        </g>
        <svg viewBox="0 0 15 15" width="100%" height="30px" preserveAspectRatio="xMaxYMin meet">
         <g id="arrow_out" transform="scale(0.3 0.3)">
          <a xlink:href="main_8cpp__incl_org.svg" target="_base">
           <rect id="button" ry="5" rx="5" y="6" x="6" height="38" width="38"
                fill="#f2f5e9" fill-opacity="0.5" stroke="#606060" stroke-width="1.0"/>
           <path id="arrow"
             d="M 11.500037,31.436501 C 11.940474,20.09759 22.043105,11.32322 32.158766,21.979434 L 37.068811,17.246167 C 37.068811,17.246167 37.088388,32 37.088388,32 L 22.160133,31.978069 C 22.160133,31.978069 26.997745,27.140456 26.997745,27.140456 C 18.528582,18.264221 13.291696,25.230495 11.500037,31.436501 z"
             style="fill:#404040;"/>
          </a>
         </g>
        </svg>
</svg>
