<?xml version="1.0" encoding="UTF-8" standalone="no"?>
<!DOCTYPE svg PUBLIC "-//W3C//DTD SVG 1.1//EN"
 "http://www.w3.org/Graphics/SVG/1.1/DTD/svg11.dtd">
<!-- Generated by graphviz version 2.43.0 (0)
 -->
<!-- Title: main Pages: 1 -->
<!--zoomable 498 -->
<svg id="main" version="1.1" xmlns="http://www.w3.org/2000/svg" xmlns:xlink="http://www.w3.org/1999/xlink" xml:space="preserve" onload="init(evt)">
<style type="text/css"><![CDATA[
.edge:hover path { stroke: red; }
.edge:hover polygon { stroke: red; fill: red; }
]]></style>
<script type="text/javascript"><![CDATA[
var edges = document.getElementsByTagName('g');
if (edges && edges.length) {
  for (var i=0;i<edges.length;i++) {
    if (edges[i].id.substr(0,4)=='edge') {
      edges[i].setAttribute('class','edge');
    }
  }
}
]]></script>
        <defs>
                <circle id="rim" cx="0" cy="0" r="7"/>
                <circle id="rim2" cx="0" cy="0" r="3.5"/>
                <g id="zoomPlus">
                        <use xlink:href="#rim" fill="#404040">
                                <set attributeName="fill" to="#808080" begin="zoomplus.mouseover" end="zoomplus.mouseout"/>
                        </use>
                        <path d="M-4,0h8M0,-4v8" fill="none" stroke="white" stroke-width="1.5" pointer-events="none"/>
                </g>
                <g id="zoomMin">
                        <use xlink:href="#rim" fill="#404040">
                                <set attributeName="fill" to="#808080" begin="zoomminus.mouseover" end="zoomminus.mouseout"/>
                        </use>
                        <path d="M-4,0h8" fill="none" stroke="white" stroke-width="1.5" pointer-events="none"/>
                </g>
                <g id="dirArrow">
                        <path fill="none" stroke="white" stroke-width="1.5" d="M0,-3.0v7 M-2.5,-0.5L0,-3.0L2.5,-0.5"/>
                </g>
               <g id="resetDef">
                       <use xlink:href="#rim2" fill="#404040">
                               <set attributeName="fill" to="#808080" begin="reset.mouseover" end="reset.mouseout"/>
                       </use>
               </g>
        </defs>

<script type="text/javascript">
var viewWidth = 1156;
var viewHeight = 498;
var sectionId = 'dynsection-1';
</script>
<script xlink:href="svgpan.js"/>
<svg id="graph" class="graph">
<g id="viewport">
<title>main</title>
<polygon fill="white" stroke="transparent" points="-4,4 -4,-494 1152,-494 1152,4 -4,4"/>
<!-- Node1 -->
<g id="node1" class="node">
<title>Node1</title>
<g id="a_node1"><a xlink:title=" ">
<polygon fill="#bfbfbf" stroke="black" points="0,-421 0,-440 41,-440 41,-421 0,-421"/>
<text text-anchor="middle" x="20.5" y="-428" font-family="Helvetica,sans-Serif" font-size="10.00">main</text>
</a>
</g>
</g>
<!-- Node2 -->
<g id="node2" class="node">
<title>Node2</title>
<g id="a_node2"><a xlink:href="class_parse_gen_1_1_g_u_i_1_1_main_editor.html#a79634f787b0d0c3f00a4a1d78fb69677" target="_top" xlink:title=" ">
<polygon fill="white" stroke="black" points="77,-415.5 77,-445.5 222,-445.5 222,-415.5 77,-415.5"/>
<text text-anchor="start" x="85" y="-433.5" font-family="Helvetica,sans-Serif" font-size="10.00">ParseGen::GUI::MainEditor</text>
<text text-anchor="middle" x="149.5" y="-422.5" font-family="Helvetica,sans-Serif" font-size="10.00">::Start</text>
</a>
</g>
</g>
<!-- Node1&#45;&gt;Node2 -->
<g id="edge1" class="edge">
<title>Node1&#45;&gt;Node2</title>
<path fill="none" stroke="midnightblue" d="M41.07,-430.5C48.4,-430.5 57.26,-430.5 66.72,-430.5"/>
<polygon fill="midnightblue" stroke="midnightblue" points="66.75,-434 76.75,-430.5 66.75,-427 66.75,-434"/>
</g>
<!-- Node3 -->
<g id="node3" class="node">
<title>Node3</title>
<g id="a_node3"><a xlink:href="class_parse_gen_1_1_g_u_i_1_1_main_editor.html#a81e5e1ec071ae0e81cfdf344aa5b78ed" target="_top" xlink:title=" ">
<polygon fill="white" stroke="black" points="258,-459.5 258,-489.5 403,-489.5 403,-459.5 258,-459.5"/>
<text text-anchor="start" x="266" y="-477.5" font-family="Helvetica,sans-Serif" font-size="10.00">ParseGen::GUI::MainEditor</text>
<text text-anchor="middle" x="330.5" y="-466.5" font-family="Helvetica,sans-Serif" font-size="10.00">::initGLFW</text>
</a>
</g>
</g>
<!-- Node2&#45;&gt;Node3 -->
<g id="edge2" class="edge">
<title>Node2&#45;&gt;Node3</title>
<path fill="none" stroke="midnightblue" d="M211.6,-445.52C226.64,-449.22 242.87,-453.21 258.34,-457.01"/>
<polygon fill="midnightblue" stroke="midnightblue" points="257.82,-460.49 268.37,-459.47 259.5,-453.69 257.82,-460.49"/>
</g>
<!-- Node4 -->
<g id="node4" class="node">
<title>Node4</title>
<g id="a_node4"><a xlink:href="class_parse_gen_1_1_g_u_i_1_1_main_editor.html#ac3c8425e70057ad3f38829456d1fe002" target="_top" xlink:title=" ">
<polygon fill="white" stroke="black" points="439.5,-459.5 439.5,-489.5 584.5,-489.5 584.5,-459.5 439.5,-459.5"/>
<text text-anchor="start" x="447.5" y="-477.5" font-family="Helvetica,sans-Serif" font-size="10.00">ParseGen::GUI::MainEditor</text>
<text text-anchor="middle" x="512" y="-466.5" font-family="Helvetica,sans-Serif" font-size="10.00">::teardown</text>
</a>
</g>
</g>
<!-- Node2&#45;&gt;Node4 -->
<g id="edge23" class="edge">
<title>Node2&#45;&gt;Node4</title>
<path fill="none" stroke="midnightblue" d="M222.09,-433.5C272.81,-436.28 342.33,-441.4 403,-450.5 415.22,-452.33 428.11,-454.76 440.57,-457.36"/>
<polygon fill="midnightblue" stroke="midnightblue" points="439.94,-460.81 450.45,-459.48 441.4,-453.96 439.94,-460.81"/>
</g>
<!-- Node5 -->
<g id="node5" class="node">
<title>Node5</title>
<g id="a_node5"><a xlink:href="class_parse_gen_1_1_g_u_i_1_1_main_editor.html#a8cb7930ca709c3de86c173bb8ad29bd1" target="_top" xlink:title=" ">
<polygon fill="white" stroke="black" points="258,-371.5 258,-401.5 403,-401.5 403,-371.5 258,-371.5"/>
<text text-anchor="start" x="266" y="-389.5" font-family="Helvetica,sans-Serif" font-size="10.00">ParseGen::GUI::MainEditor</text>
<text text-anchor="middle" x="330.5" y="-378.5" font-family="Helvetica,sans-Serif" font-size="10.00">::RenderFrame</text>
</a>
</g>
</g>
<!-- Node2&#45;&gt;Node5 -->
<g id="edge4" class="edge">
<title>Node2&#45;&gt;Node5</title>
<path fill="none" stroke="midnightblue" d="M211.6,-415.48C226.64,-411.78 242.87,-407.79 258.34,-403.99"/>
<polygon fill="midnightblue" stroke="midnightblue" points="259.5,-407.31 268.37,-401.53 257.82,-400.51 259.5,-407.31"/>
</g>
<!-- Node3&#45;&gt;Node4 -->
<g id="edge3" class="edge">
<title>Node3&#45;&gt;Node4</title>
<path fill="none" stroke="midnightblue" d="M403.22,-474.5C411.78,-474.5 420.57,-474.5 429.26,-474.5"/>
<polygon fill="midnightblue" stroke="midnightblue" points="429.4,-478 439.4,-474.5 429.4,-471 429.4,-478"/>
</g>
<!-- Node6 -->
<g id="node6" class="node">
<title>Node6</title>
<g id="a_node6"><a xlink:href="class_parse_gen_1_1_g_u_i_1_1_main_editor.html#a11943a4f17d30c54ffe35b079a37d681" target="_top" xlink:title=" ">
<polygon fill="white" stroke="black" points="639.5,-404.5 639.5,-434.5 784.5,-434.5 784.5,-404.5 639.5,-404.5"/>
<text text-anchor="start" x="647.5" y="-422.5" font-family="Helvetica,sans-Serif" font-size="10.00">ParseGen::GUI::MainEditor</text>
<text text-anchor="middle" x="712" y="-411.5" font-family="Helvetica,sans-Serif" font-size="10.00">::addRule</text>
</a>
</g>
</g>
<!-- Node5&#45;&gt;Node6 -->
<g id="edge5" class="edge">
<title>Node5&#45;&gt;Node6</title>
<path fill="none" stroke="midnightblue" d="M386.63,-401.54C403.33,-405.49 421.8,-409.27 439,-411.5 502.49,-419.73 574.98,-421.49 629.15,-421.32"/>
<polygon fill="midnightblue" stroke="midnightblue" points="629.41,-424.82 639.39,-421.27 629.37,-417.82 629.41,-424.82"/>
</g>
<!-- Node7 -->
<g id="node7" class="node">
<title>Node7</title>
<g id="a_node7"><a xlink:href="class_parse_gen_1_1_g_u_i_1_1_main_editor.html#ad0daa9dc59138ad797772f5d9b041d06" target="_top" xlink:title=" ">
<polygon fill="white" stroke="black" points="439,-371.5 439,-401.5 585,-401.5 585,-371.5 439,-371.5"/>
<text text-anchor="start" x="447" y="-389.5" font-family="Helvetica,sans-Serif" font-size="10.00">ParseGen::GUI::MainEditor</text>
<text text-anchor="middle" x="512" y="-378.5" font-family="Helvetica,sans-Serif" font-size="10.00">::nonTerminalsCollapseGui</text>
</a>
</g>
</g>
<!-- Node5&#45;&gt;Node7 -->
<g id="edge6" class="edge">
<title>Node5&#45;&gt;Node7</title>
<path fill="none" stroke="midnightblue" d="M403.22,-386.5C411.55,-386.5 420.1,-386.5 428.56,-386.5"/>
<polygon fill="midnightblue" stroke="midnightblue" points="428.81,-390 438.81,-386.5 428.81,-383 428.81,-390"/>
</g>
<!-- Node8 -->
<g id="node8" class="node">
<title>Node8</title>
<g id="a_node8"><a xlink:href="class_parse_gen_1_1_g_u_i_1_1_main_editor.html#a0852bbc6c65396299a43ca2eafa3c42b" target="_top" xlink:title=" ">
<polygon fill="white" stroke="black" points="439.5,-322.5 439.5,-352.5 584.5,-352.5 584.5,-322.5 439.5,-322.5"/>
<text text-anchor="start" x="447.5" y="-340.5" font-family="Helvetica,sans-Serif" font-size="10.00">ParseGen::GUI::MainEditor</text>
<text text-anchor="middle" x="512" y="-329.5" font-family="Helvetica,sans-Serif" font-size="10.00">::rulesCollapseGui</text>
</a>
</g>
</g>
<!-- Node5&#45;&gt;Node8 -->
<g id="edge7" class="edge">
<title>Node5&#45;&gt;Node8</title>
<path fill="none" stroke="midnightblue" d="M386.82,-371.4C405.59,-366.27 426.73,-360.5 446.17,-355.2"/>
<polygon fill="midnightblue" stroke="midnightblue" points="447.14,-358.56 455.86,-352.55 445.29,-351.81 447.14,-358.56"/>
</g>
<!-- Node10 -->
<g id="node10" class="node">
<title>Node10</title>
<g id="a_node10"><a xlink:href="class_parse_gen_1_1_g_u_i_1_1_main_editor.html#ae50424eb009179d7c6942550e3ec7a9a" target="_top" xlink:title=" ">
<polygon fill="white" stroke="black" points="439.5,-169.5 439.5,-199.5 584.5,-199.5 584.5,-169.5 439.5,-169.5"/>
<text text-anchor="start" x="447.5" y="-187.5" font-family="Helvetica,sans-Serif" font-size="10.00">ParseGen::GUI::MainEditor</text>
<text text-anchor="middle" x="512" y="-176.5" font-family="Helvetica,sans-Serif" font-size="10.00">::ruleTesterWindow</text>
</a>
</g>
</g>
<!-- Node5&#45;&gt;Node10 -->
<g id="edge10" class="edge">
<title>Node5&#45;&gt;Node10</title>
<path fill="none" stroke="midnightblue" d="M344.99,-371.32C376.25,-336.14 453.8,-248.87 490.77,-207.27"/>
<polygon fill="midnightblue" stroke="midnightblue" points="493.57,-209.38 497.6,-199.58 488.34,-204.73 493.57,-209.38"/>
</g>
<!-- Node8&#45;&gt;Node6 -->
<g id="edge8" class="edge">
<title>Node8&#45;&gt;Node6</title>
<path fill="none" stroke="midnightblue" d="M558.55,-352.62C567.38,-355.74 576.52,-359.12 585,-362.5 613.94,-374.04 645.92,-388.53 670.42,-400.01"/>
<polygon fill="midnightblue" stroke="midnightblue" points="669.22,-403.31 679.75,-404.41 672.2,-396.98 669.22,-403.31"/>
</g>
<!-- Node9 -->
<g id="node9" class="node">
<title>Node9</title>
<g id="a_node9"><a xlink:href="class_parse_gen_1_1_g_u_i_1_1_main_editor.html#a5411a31092bf479d80f14b216eaef83b" target="_top" xlink:title=" ">
<polygon fill="white" stroke="black" points="639.5,-333.5 639.5,-363.5 784.5,-363.5 784.5,-333.5 639.5,-333.5"/>
<text text-anchor="start" x="647.5" y="-351.5" font-family="Helvetica,sans-Serif" font-size="10.00">ParseGen::GUI::MainEditor</text>
<text text-anchor="middle" x="712" y="-340.5" font-family="Helvetica,sans-Serif" font-size="10.00">::deleteRule</text>
</a>
</g>
</g>
<!-- Node8&#45;&gt;Node9 -->
<g id="edge9" class="edge">
<title>Node8&#45;&gt;Node9</title>
<path fill="none" stroke="midnightblue" d="M584.76,-341.49C599.24,-342.29 614.56,-343.14 629.35,-343.96"/>
<polygon fill="midnightblue" stroke="midnightblue" points="629.3,-347.47 639.48,-344.53 629.69,-340.48 629.3,-347.47"/>
</g>
<!-- Node11 -->
<g id="node11" class="node">
<title>Node11</title>
<g id="a_node11"><a xlink:href="class_parse_gen_1_1_parser_1_1_i_parser_generator.html#acc41ef8afafb3c17ec86292fecfaeb8d" target="_top" xlink:title=" ">
<polygon fill="white" stroke="black" points="643.5,-284.5 643.5,-314.5 780.5,-314.5 780.5,-284.5 643.5,-284.5"/>
<text text-anchor="start" x="651.5" y="-302.5" font-family="Helvetica,sans-Serif" font-size="10.00">ParseGen::Parser::IParser</text>
<text text-anchor="middle" x="712" y="-291.5" font-family="Helvetica,sans-Serif" font-size="10.00">Generator::codeToFile</text>
</a>
</g>
</g>
<!-- Node10&#45;&gt;Node11 -->
<g id="edge11" class="edge">
<title>Node10&#45;&gt;Node11</title>
<path fill="none" stroke="midnightblue" d="M526.84,-199.76C546.04,-220.02 582.73,-255.56 621,-275.5 625.06,-277.62 629.33,-279.56 633.7,-281.34"/>
<polygon fill="midnightblue" stroke="midnightblue" points="632.82,-284.75 643.41,-284.98 635.28,-278.19 632.82,-284.75"/>
</g>
<!-- Node13 -->
<g id="node13" class="node">
<title>Node13</title>
<g id="a_node13"><a xlink:href="class_parse_gen_1_1_g_u_i_1_1_main_editor.html#a0dd79cef141de2c8a6a08586f36d42a9" target="_top" xlink:title=" ">
<polygon fill="white" stroke="black" points="639.5,-235.5 639.5,-265.5 784.5,-265.5 784.5,-235.5 639.5,-235.5"/>
<text text-anchor="start" x="647.5" y="-253.5" font-family="Helvetica,sans-Serif" font-size="10.00">ParseGen::GUI::MainEditor</text>
<text text-anchor="middle" x="712" y="-242.5" font-family="Helvetica,sans-Serif" font-size="10.00">::drawTree</text>
</a>
</g>
</g>
<!-- Node10&#45;&gt;Node13 -->
<g id="edge13" class="edge">
<title>Node10&#45;&gt;Node13</title>
<path fill="none" stroke="midnightblue" d="M558.43,-199.64C587.48,-209.33 625.34,-221.95 656.08,-232.19"/>
<polygon fill="midnightblue" stroke="midnightblue" points="655.19,-235.59 665.79,-235.43 657.41,-228.95 655.19,-235.59"/>
</g>
<!-- Node15 -->
<g id="node15" class="node">
<title>Node15</title>
<g id="a_node15"><a xlink:href="class_parse_gen_1_1_parser_1_1_parser_generator_factory.html#aa6b235e2945524e7373a03b9b209fffd" target="_top" xlink:title=" ">
<polygon fill="white" stroke="black" points="1014,-96.5 1014,-126.5 1148,-126.5 1148,-96.5 1014,-96.5"/>
<text text-anchor="start" x="1022" y="-114.5" font-family="Helvetica,sans-Serif" font-size="10.00">ParseGen::Parser::Parser</text>
<text text-anchor="middle" x="1081" y="-103.5" font-family="Helvetica,sans-Serif" font-size="10.00">GeneratorFactory::Get</text>
</a>
</g>
</g>
<!-- Node10&#45;&gt;Node15 -->
<g id="edge15" class="edge">
<title>Node10&#45;&gt;Node15</title>
<path fill="none" stroke="midnightblue" d="M584.74,-186.77C596.84,-187.08 609.28,-187.34 621,-187.5 701.88,-188.62 722.84,-198.3 803,-187.5 883.66,-176.64 974.05,-148.74 1028.99,-129.94"/>
<polygon fill="midnightblue" stroke="midnightblue" points="1030.18,-133.23 1038.49,-126.65 1027.9,-126.61 1030.18,-133.23"/>
</g>
<!-- Node16 -->
<g id="node16" class="node">
<title>Node16</title>
<g id="a_node16"><a xlink:href="class_parse_gen_1_1_parser_1_1_parser_generator_factory.html#a36873b6eabc46913622d6a5dfdceffa1" target="_top" xlink:title=" ">
<polygon fill="white" stroke="black" points="621,-147.5 621,-177.5 803,-177.5 803,-147.5 621,-147.5"/>
<text text-anchor="start" x="629" y="-165.5" font-family="Helvetica,sans-Serif" font-size="10.00">ParseGen::Parser::Parser</text>
<text text-anchor="middle" x="712" y="-154.5" font-family="Helvetica,sans-Serif" font-size="10.00">GeneratorFactory::getOutputTypes</text>
</a>
</g>
</g>
<!-- Node10&#45;&gt;Node16 -->
<g id="edge16" class="edge">
<title>Node10&#45;&gt;Node16</title>
<path fill="none" stroke="midnightblue" d="M584.76,-176.53C593.29,-175.58 602.1,-174.6 610.93,-173.62"/>
<polygon fill="midnightblue" stroke="midnightblue" points="611.33,-177.1 620.88,-172.51 610.56,-170.14 611.33,-177.1"/>
</g>
<!-- Node17 -->
<g id="node17" class="node">
<title>Node17</title>
<g id="a_node17"><a xlink:href="class_parse_gen_1_1_parser_1_1_util_1_1_parse_tree.html#ace551eaad1025e132c23024992ed5bcf" target="_top" xlink:title=" ">
<polygon fill="white" stroke="black" points="651,-98.5 651,-128.5 773,-128.5 773,-98.5 651,-98.5"/>
<text text-anchor="start" x="659" y="-116.5" font-family="Helvetica,sans-Serif" font-size="10.00">ParseGen::Parser::Util</text>
<text text-anchor="middle" x="712" y="-105.5" font-family="Helvetica,sans-Serif" font-size="10.00">::ParseTree::isStub</text>
</a>
</g>
</g>
<!-- Node10&#45;&gt;Node17 -->
<g id="edge17" class="edge">
<title>Node10&#45;&gt;Node17</title>
<path fill="none" stroke="midnightblue" d="M545.17,-169.48C566.42,-159.89 595.03,-147.59 621,-138.5 627.94,-136.07 635.26,-133.71 642.58,-131.48"/>
<polygon fill="midnightblue" stroke="midnightblue" points="643.96,-134.73 652.55,-128.53 641.97,-128.01 643.96,-134.73"/>
</g>
<!-- Node19 -->
<g id="node19" class="node">
<title>Node19</title>
<g id="a_node19"><a xlink:href="class_parse_gen_1_1_parser_1_1_i_parser_generator.html#ae29f6b1213c0fc23bfe5fe049be4ddbc" target="_top" xlink:title=" ">
<polygon fill="white" stroke="black" points="643.5,-49.5 643.5,-79.5 780.5,-79.5 780.5,-49.5 643.5,-49.5"/>
<text text-anchor="start" x="651.5" y="-67.5" font-family="Helvetica,sans-Serif" font-size="10.00">ParseGen::Parser::IParser</text>
<text text-anchor="middle" x="712" y="-56.5" font-family="Helvetica,sans-Serif" font-size="10.00">Generator::parse</text>
</a>
</g>
</g>
<!-- Node10&#45;&gt;Node19 -->
<g id="edge19" class="edge">
<title>Node10&#45;&gt;Node19</title>
<path fill="none" stroke="midnightblue" d="M526.08,-169.31C544.97,-148.32 581.91,-110.66 621,-89.5 625.23,-87.21 629.7,-85.11 634.28,-83.2"/>
<polygon fill="midnightblue" stroke="midnightblue" points="635.74,-86.38 643.81,-79.51 633.22,-79.85 635.74,-86.38"/>
</g>
<!-- Node20 -->
<g id="node20" class="node">
<title>Node20</title>
<g id="a_node20"><a xlink:href="class_parse_gen_1_1_g_u_i_1_1_main_editor.html#a375e7fc2018957b0d42313a9d87bb952" target="_top" xlink:title=" ">
<polygon fill="white" stroke="black" points="639.5,-0.5 639.5,-30.5 784.5,-30.5 784.5,-0.5 639.5,-0.5"/>
<text text-anchor="start" x="647.5" y="-18.5" font-family="Helvetica,sans-Serif" font-size="10.00">ParseGen::GUI::MainEditor</text>
<text text-anchor="middle" x="712" y="-7.5" font-family="Helvetica,sans-Serif" font-size="10.00">::processRules</text>
</a>
</g>
</g>
<!-- Node10&#45;&gt;Node20 -->
<g id="edge20" class="edge">
<title>Node10&#45;&gt;Node20</title>
<path fill="none" stroke="midnightblue" d="M520.07,-169.12C534.56,-139.32 570.59,-73.66 621,-39.5 623.9,-37.54 626.95,-35.73 630.11,-34.07"/>
<polygon fill="midnightblue" stroke="midnightblue" points="631.69,-37.2 639.26,-29.79 628.72,-30.86 631.69,-37.2"/>
</g>
<!-- Node12 -->
<g id="node12" class="node">
<title>Node12</title>
<g id="a_node12"><a xlink:href="class_parse_gen_1_1_parser_1_1_i_parser_generator.html#abb8807a107ad5b49c2d07aceab14273e" target="_top" xlink:title=" ">
<polygon fill="white" stroke="black" points="840,-284.5 840,-314.5 977,-314.5 977,-284.5 840,-284.5"/>
<text text-anchor="start" x="848" y="-302.5" font-family="Helvetica,sans-Serif" font-size="10.00">ParseGen::Parser::IParser</text>
<text text-anchor="middle" x="908.5" y="-291.5" font-family="Helvetica,sans-Serif" font-size="10.00">Generator::codeToString</text>
</a>
</g>
</g>
<!-- Node11&#45;&gt;Node12 -->
<g id="edge12" class="edge">
<title>Node11&#45;&gt;Node12</title>
<path fill="none" stroke="midnightblue" d="M780.75,-299.5C796.64,-299.5 813.69,-299.5 829.97,-299.5"/>
<polygon fill="midnightblue" stroke="midnightblue" points="829.99,-303 839.99,-299.5 829.99,-296 829.99,-303"/>
</g>
<!-- Node14 -->
<g id="node14" class="node">
<title>Node14</title>
<g id="a_node14"><a xlink:href="class_parse_gen_1_1_g_u_i_1_1_parse_tree_1_1_renderer.html#ac6962ed86384110616e7dad0f548ba84" target="_top" xlink:title=" ">
<polygon fill="white" stroke="black" points="839,-235.5 839,-265.5 978,-265.5 978,-235.5 839,-235.5"/>
<text text-anchor="start" x="847" y="-253.5" font-family="Helvetica,sans-Serif" font-size="10.00">ParseGen::GUI::ParseTree</text>
<text text-anchor="middle" x="908.5" y="-242.5" font-family="Helvetica,sans-Serif" font-size="10.00">::Renderer::Get</text>
</a>
</g>
</g>
<!-- Node13&#45;&gt;Node14 -->
<g id="edge14" class="edge">
<title>Node13&#45;&gt;Node14</title>
<path fill="none" stroke="midnightblue" d="M784.6,-250.5C799.03,-250.5 814.27,-250.5 828.93,-250.5"/>
<polygon fill="midnightblue" stroke="midnightblue" points="828.97,-254 838.97,-250.5 828.97,-247 828.97,-254"/>
</g>
<!-- Node18 -->
<g id="node18" class="node">
<title>Node18</title>
<g id="a_node18"><a xlink:href="class_parse_gen_1_1_parser_1_1_util_1_1_symbol.html#a82073c69377df2a10fd7d4350727ab73" target="_top" xlink:title=" ">
<polygon fill="white" stroke="black" points="847.5,-98.5 847.5,-128.5 969.5,-128.5 969.5,-98.5 847.5,-98.5"/>
<text text-anchor="start" x="855.5" y="-116.5" font-family="Helvetica,sans-Serif" font-size="10.00">ParseGen::Parser::Util</text>
<text text-anchor="middle" x="908.5" y="-105.5" font-family="Helvetica,sans-Serif" font-size="10.00">::Symbol::isEnd</text>
</a>
</g>
</g>
<!-- Node17&#45;&gt;Node18 -->
<g id="edge18" class="edge">
<title>Node17&#45;&gt;Node18</title>
<path fill="none" stroke="midnightblue" d="M773.21,-113.5C793.44,-113.5 816.18,-113.5 837.12,-113.5"/>
<polygon fill="midnightblue" stroke="midnightblue" points="837.24,-117 847.24,-113.5 837.24,-110 837.24,-117"/>
</g>
<!-- Node21 -->
<g id="node21" class="node">
<title>Node21</title>
<g id="a_node21"><a xlink:href="class_parse_gen_1_1_parser_1_1_parser_generator_factory.html#afa1ed5ce57448b5f8e854e303c171889" target="_top" xlink:title=" ">
<polygon fill="white" stroke="black" points="839.5,-25.5 839.5,-55.5 977.5,-55.5 977.5,-25.5 839.5,-25.5"/>
<text text-anchor="start" x="847.5" y="-43.5" font-family="Helvetica,sans-Serif" font-size="10.00">ParseGen::Parser::Parser</text>
<text text-anchor="middle" x="908.5" y="-32.5" font-family="Helvetica,sans-Serif" font-size="10.00">GeneratorFactory::Create</text>
</a>
</g>
</g>
<!-- Node20&#45;&gt;Node21 -->
<g id="edge21" class="edge">
<title>Node20&#45;&gt;Node21</title>
<path fill="none" stroke="midnightblue" d="M784.6,-24.7C799.12,-26.57 814.46,-28.54 829.2,-30.44"/>
<polygon fill="midnightblue" stroke="midnightblue" points="828.92,-33.93 839.29,-31.73 829.82,-26.99 828.92,-33.93"/>
</g>
<!-- Node21&#45;&gt;Node15 -->
<g id="edge22" class="edge">
<title>Node21&#45;&gt;Node15</title>
<path fill="none" stroke="midnightblue" d="M945.66,-55.56C971.54,-66.34 1006.58,-80.93 1034.39,-92.51"/>
<polygon fill="midnightblue" stroke="midnightblue" points="1033.32,-95.85 1043.89,-96.46 1036.01,-89.39 1033.32,-95.85"/>
</g>
</g>
</svg>
        <g id="navigator" transform="translate(0 0)" fill="#404254">
                <rect fill="#f2f5e9" fill-opacity="0.5" stroke="#606060" stroke-width=".5" x="0" y="0" width="60" height="60"/>
                <use id="zoomplus" xlink:href="#zoomPlus" x="17" y="9" onmousedown="handleZoom(evt,'in')"/>
                <use id="zoomminus" xlink:href="#zoomMin" x="42" y="9" onmousedown="handleZoom(evt,'out')"/>
                <use id="reset" xlink:href="#resetDef" x="30" y="36" onmousedown="handleReset()"/>
                <g id="arrowUp" xlink:href="#dirArrow" transform="translate(30 24)" onmousedown="handlePan(0,-1)">
                  <use xlink:href="#rim" fill="#404040">
                        <set attributeName="fill" to="#808080" begin="arrowUp.mouseover" end="arrowUp.mouseout"/>
                  </use>
                  <path fill="none" stroke="white" stroke-width="1.5" d="M0,-3.0v7 M-2.5,-0.5L0,-3.0L2.5,-0.5"/>
                </g>
                <g id="arrowRight" xlink:href="#dirArrow" transform="rotate(90) translate(36 -43)" onmousedown="handlePan(1,0)">
                  <use xlink:href="#rim" fill="#404040">
                        <set attributeName="fill" to="#808080" begin="arrowRight.mouseover" end="arrowRight.mouseout"/>
                  </use>
                  <path fill="none" stroke="white" stroke-width="1.5" d="M0,-3.0v7 M-2.5,-0.5L0,-3.0L2.5,-0.5"/>
                </g>
                <g id="arrowDown" xlink:href="#dirArrow" transform="rotate(180) translate(-30 -48)" onmousedown="handlePan(0,1)">
                  <use xlink:href="#rim" fill="#404040">
                        <set attributeName="fill" to="#808080" begin="arrowDown.mouseover" end="arrowDown.mouseout"/>
                  </use>
                  <path fill="none" stroke="white" stroke-width="1.5" d="M0,-3.0v7 M-2.5,-0.5L0,-3.0L2.5,-0.5"/>
                </g>
                <g id="arrowLeft" xlink:href="#dirArrow" transform="rotate(270) translate(-36 17)" onmousedown="handlePan(-1,0)">
                  <use xlink:href="#rim" fill="#404040">
                        <set attributeName="fill" to="#808080" begin="arrowLeft.mouseover" end="arrowLeft.mouseout"/>
                  </use>
                  <path fill="none" stroke="white" stroke-width="1.5" d="M0,-3.0v7 M-2.5,-0.5L0,-3.0L2.5,-0.5"/>
                </g>
        </g>
        <svg viewBox="0 0 15 15" width="100%" height="30px" preserveAspectRatio="xMaxYMin meet">
         <g id="arrow_out" transform="scale(0.3 0.3)">
          <a xlink:href="main_8cpp_ae66f6b31b5ad750f1fe042a706a4e3d4_cgraph_org.svg" target="_base">
           <rect id="button" ry="5" rx="5" y="6" x="6" height="38" width="38"
                fill="#f2f5e9" fill-opacity="0.5" stroke="#606060" stroke-width="1.0"/>
           <path id="arrow"
             d="M 11.500037,31.436501 C 11.940474,20.09759 22.043105,11.32322 32.158766,21.979434 L 37.068811,17.246167 C 37.068811,17.246167 37.088388,32 37.088388,32 L 22.160133,31.978069 C 22.160133,31.978069 26.997745,27.140456 26.997745,27.140456 C 18.528582,18.264221 13.291696,25.230495 11.500037,31.436501 z"
             style="fill:#404040;"/>
          </a>
         </g>
        </svg>
</svg>
