<?xml version="1.0" encoding="UTF-8" standalone="no"?>
<!DOCTYPE svg PUBLIC "-//W3C//DTD SVG 1.1//EN"
 "http://www.w3.org/Graphics/SVG/1.1/DTD/svg11.dtd">
<!-- Generated by graphviz version 2.43.0 (0)
 -->
<!-- Title: /root/fyp/project/src/maingui.h Pages: 1 -->
<!--zoomable 341 -->
<svg id="main" version="1.1" xmlns="http://www.w3.org/2000/svg" xmlns:xlink="http://www.w3.org/1999/xlink" xml:space="preserve" onload="init(evt)">
<style type="text/css"><![CDATA[
.edge:hover path { stroke: red; }
.edge:hover polygon { stroke: red; fill: red; }
]]></style>
<script type="text/javascript"><![CDATA[
var edges = document.getElementsByTagName('g');
if (edges && edges.length) {
  for (var i=0;i<edges.length;i++) {
    if (edges[i].id.substr(0,4)=='edge') {
      edges[i].setAttribute('class','edge');
    }
  }
}
]]></script>
        <defs>
                <circle id="rim" cx="0" cy="0" r="7"/>
                <circle id="rim2" cx="0" cy="0" r="3.5"/>
                <g id="zoomPlus">
                        <use xlink:href="#rim" fill="#404040">
                                <set attributeName="fill" to="#808080" begin="zoomplus.mouseover" end="zoomplus.mouseout"/>
                        </use>
                        <path d="M-4,0h8M0,-4v8" fill="none" stroke="white" stroke-width="1.5" pointer-events="none"/>
                </g>
                <g id="zoomMin">
                        <use xlink:href="#rim" fill="#404040">
                                <set attributeName="fill" to="#808080" begin="zoomminus.mouseover" end="zoomminus.mouseout"/>
                        </use>
                        <path d="M-4,0h8" fill="none" stroke="white" stroke-width="1.5" pointer-events="none"/>
                </g>
                <g id="dirArrow">
                        <path fill="none" stroke="white" stroke-width="1.5" d="M0,-3.0v7 M-2.5,-0.5L0,-3.0L2.5,-0.5"/>
                </g>
               <g id="resetDef">
                       <use xlink:href="#rim2" fill="#404040">
                               <set attributeName="fill" to="#808080" begin="reset.mouseover" end="reset.mouseout"/>
                       </use>
               </g>
        </defs>

<script type="text/javascript">
var viewWidth = 1429;
var viewHeight = 341;
var sectionId = 'dynsection-0';
</script>
<script xlink:href="svgpan.js"/>
<svg id="graph" class="graph">
<g id="viewport">
<title>/root/fyp/project/src/maingui.h</title>
<polygon fill="white" stroke="transparent" points="-4,4 -4,-337 1424.5,-337 1424.5,4 -4,4"/>
<!-- Node1 -->
<g id="node1" class="node">
<title>Node1</title>
<g id="a_node1"><a xlink:title=" ">
<polygon fill="#bfbfbf" stroke="black" points="772,-302.5 772,-332.5 883,-332.5 883,-302.5 772,-302.5"/>
<text text-anchor="start" x="780" y="-320.5" font-family="Helvetica,sans-Serif" font-size="10.00">/root/fyp/project/src</text>
<text text-anchor="middle" x="827.5" y="-309.5" font-family="Helvetica,sans-Serif" font-size="10.00">/maingui.h</text>
</a>
</g>
</g>
<!-- Node2 -->
<g id="node2" class="node">
<title>Node2</title>
<g id="a_node2"><a xlink:title=" ">
<polygon fill="white" stroke="#bfbfbf" points="605.5,-62 605.5,-81 649.5,-81 649.5,-62 605.5,-62"/>
<text text-anchor="middle" x="627.5" y="-69" font-family="Helvetica,sans-Serif" font-size="10.00">string</text>
</a>
</g>
</g>
<!-- Node1&#45;&gt;Node2 -->
<g id="edge1" class="edge">
<title>Node1&#45;&gt;Node2</title>
<path fill="none" stroke="midnightblue" d="M823.56,-302.07C814.9,-271.03 793.75,-199.08 778.5,-179 745.39,-135.4 689.32,-102.6 655.62,-85.58"/>
<polygon fill="midnightblue" stroke="midnightblue" points="656.85,-82.29 646.34,-81.01 653.76,-88.57 656.85,-82.29"/>
</g>
<!-- Node3 -->
<g id="node3" class="node">
<title>Node3</title>
<g id="a_node3"><a xlink:title=" ">
<polygon fill="white" stroke="#bfbfbf" points="293,-62 293,-81 340,-81 340,-62 293,-62"/>
<text text-anchor="middle" x="316.5" y="-69" font-family="Helvetica,sans-Serif" font-size="10.00">vector</text>
</a>
</g>
</g>
<!-- Node1&#45;&gt;Node3 -->
<g id="edge2" class="edge">
<title>Node1&#45;&gt;Node3</title>
<path fill="none" stroke="midnightblue" d="M771.88,-309.67C719.87,-302.29 640.54,-288.47 574.5,-266 567.2,-263.52 329.98,-149.28 325.5,-143 314.88,-128.11 313.54,-106.83 314.3,-91.55"/>
<polygon fill="midnightblue" stroke="midnightblue" points="317.81,-91.5 315.16,-81.24 310.84,-90.91 317.81,-91.5"/>
</g>
<!-- Node4 -->
<g id="node4" class="node">
<title>Node4</title>
<g id="a_node4"><a xlink:title=" ">
<polygon fill="white" stroke="#bfbfbf" points="825.5,-241 825.5,-260 889.5,-260 889.5,-241 825.5,-241"/>
<text text-anchor="middle" x="857.5" y="-248" font-family="Helvetica,sans-Serif" font-size="10.00">GL/glew.h</text>
</a>
</g>
</g>
<!-- Node1&#45;&gt;Node4 -->
<g id="edge3" class="edge">
<title>Node1&#45;&gt;Node4</title>
<path fill="none" stroke="midnightblue" d="M834.01,-302.4C838.46,-292.76 844.39,-279.91 849.18,-269.54"/>
<polygon fill="midnightblue" stroke="midnightblue" points="852.47,-270.74 853.49,-260.19 846.12,-267.81 852.47,-270.74"/>
</g>
<!-- Node5 -->
<g id="node5" class="node">
<title>Node5</title>
<g id="a_node5"><a xlink:title=" ">
<polygon fill="white" stroke="#bfbfbf" points="908,-241 908,-260 991,-260 991,-241 908,-241"/>
<text text-anchor="middle" x="949.5" y="-248" font-family="Helvetica,sans-Serif" font-size="10.00">GLFW/glfw3.h</text>
</a>
</g>
</g>
<!-- Node1&#45;&gt;Node5 -->
<g id="edge4" class="edge">
<title>Node1&#45;&gt;Node5</title>
<path fill="none" stroke="midnightblue" d="M853.97,-302.4C874.9,-291.24 903.93,-275.78 924.47,-264.83"/>
<polygon fill="midnightblue" stroke="midnightblue" points="926.35,-267.8 933.53,-260.01 923.06,-261.62 926.35,-267.8"/>
</g>
<!-- Node6 -->
<g id="node6" class="node">
<title>Node6</title>
<g id="a_node6"><a xlink:title=" ">
<polygon fill="white" stroke="#bfbfbf" points="1009,-241 1009,-260 1136,-260 1136,-241 1009,-241"/>
<text text-anchor="middle" x="1072.5" y="-248" font-family="Helvetica,sans-Serif" font-size="10.00">imgui/imgui_internal.h</text>
</a>
</g>
</g>
<!-- Node1&#45;&gt;Node6 -->
<g id="edge5" class="edge">
<title>Node1&#45;&gt;Node6</title>
<path fill="none" stroke="midnightblue" d="M880.36,-302.48C925.32,-290.55 989.03,-273.64 1030.56,-262.63"/>
<polygon fill="midnightblue" stroke="midnightblue" points="1031.59,-265.98 1040.35,-260.03 1029.79,-259.21 1031.59,-265.98"/>
</g>
<!-- Node7 -->
<g id="node7" class="node">
<title>Node7</title>
<g id="a_node7"><a xlink:title=" ">
<polygon fill="white" stroke="#bfbfbf" points="1154.5,-235.5 1154.5,-265.5 1278.5,-265.5 1278.5,-235.5 1154.5,-235.5"/>
<text text-anchor="start" x="1162.5" y="-253.5" font-family="Helvetica,sans-Serif" font-size="10.00">imgui/backends/imgui</text>
<text text-anchor="middle" x="1216.5" y="-242.5" font-family="Helvetica,sans-Serif" font-size="10.00">_impl_glfw.h</text>
</a>
</g>
</g>
<!-- Node1&#45;&gt;Node7 -->
<g id="edge6" class="edge">
<title>Node1&#45;&gt;Node7</title>
<path fill="none" stroke="midnightblue" d="M883.06,-308.43C944.52,-299.34 1046.72,-283.72 1144.17,-266.2"/>
<polygon fill="midnightblue" stroke="midnightblue" points="1144.97,-269.61 1154.19,-264.39 1143.73,-262.72 1144.97,-269.61"/>
</g>
<!-- Node8 -->
<g id="node8" class="node">
<title>Node8</title>
<g id="a_node8"><a xlink:title=" ">
<polygon fill="white" stroke="#bfbfbf" points="1296.5,-235.5 1296.5,-265.5 1420.5,-265.5 1420.5,-235.5 1296.5,-235.5"/>
<text text-anchor="start" x="1304.5" y="-253.5" font-family="Helvetica,sans-Serif" font-size="10.00">imgui/backends/imgui</text>
<text text-anchor="middle" x="1358.5" y="-242.5" font-family="Helvetica,sans-Serif" font-size="10.00">_impl_opengl3.h</text>
</a>
</g>
</g>
<!-- Node1&#45;&gt;Node8 -->
<g id="edge7" class="edge">
<title>Node1&#45;&gt;Node8</title>
<path fill="none" stroke="midnightblue" d="M883.3,-312.04C968.21,-304.9 1135.08,-289.41 1286.28,-266.1"/>
<polygon fill="midnightblue" stroke="midnightblue" points="1286.88,-269.55 1296.22,-264.56 1285.8,-262.64 1286.88,-269.55"/>
</g>
<!-- Node9 -->
<g id="node9" class="node">
<title>Node9</title>
<g id="a_node9"><a xlink:title=" ">
<polygon fill="white" stroke="#bfbfbf" points="0,-56.5 0,-86.5 137,-86.5 137,-56.5 0,-56.5"/>
<text text-anchor="start" x="8" y="-74.5" font-family="Helvetica,sans-Serif" font-size="10.00">imgui/nodes/imgui_node</text>
<text text-anchor="middle" x="68.5" y="-63.5" font-family="Helvetica,sans-Serif" font-size="10.00">_editor.h</text>
</a>
</g>
</g>
<!-- Node1&#45;&gt;Node9 -->
<g id="edge8" class="edge">
<title>Node1&#45;&gt;Node9</title>
<path fill="none" stroke="midnightblue" d="M771.95,-317.27C661.84,-317.65 408.72,-312.79 202.5,-266 121.28,-247.57 74.7,-267.62 27.5,-199 21.65,-190.5 16.09,-160.12 29.5,-123 33.23,-112.69 39.9,-102.8 46.69,-94.55"/>
<polygon fill="midnightblue" stroke="midnightblue" points="49.45,-96.71 53.41,-86.89 44.18,-92.1 49.45,-96.71"/>
</g>
<!-- Node10 -->
<g id="node10" class="node">
<title>Node10</title>
<g id="a_node10"><a xlink:href="rule_8h.html" target="_top" xlink:title=" ">
<polygon fill="white" stroke="black" points="211.5,-241 211.5,-260 255.5,-260 255.5,-241 211.5,-241"/>
<text text-anchor="middle" x="233.5" y="-248" font-family="Helvetica,sans-Serif" font-size="10.00">rule.h</text>
</a>
</g>
</g>
<!-- Node1&#45;&gt;Node10 -->
<g id="edge9" class="edge">
<title>Node1&#45;&gt;Node10</title>
<path fill="none" stroke="midnightblue" d="M771.88,-310.41C649.99,-297.08 362.46,-265.61 265.83,-255.04"/>
<polygon fill="midnightblue" stroke="midnightblue" points="266.1,-251.55 255.78,-253.94 265.34,-258.51 266.1,-251.55"/>
</g>
<!-- Node20 -->
<g id="node20" class="node">
<title>Node20</title>
<g id="a_node20"><a xlink:href="iparsergenerator_8h.html" target="_top" xlink:title=" ">
<polygon fill="white" stroke="black" points="583,-241 583,-260 770,-260 770,-241 583,-241"/>
<text text-anchor="middle" x="676.5" y="-248" font-family="Helvetica,sans-Serif" font-size="10.00">parsergenerator/iparsergenerator.h</text>
</a>
</g>
</g>
<!-- Node1&#45;&gt;Node20 -->
<g id="edge29" class="edge">
<title>Node1&#45;&gt;Node20</title>
<path fill="none" stroke="midnightblue" d="M794.74,-302.4C768.24,-290.99 731.28,-275.08 705.77,-264.1"/>
<polygon fill="midnightblue" stroke="midnightblue" points="706.83,-260.75 696.26,-260.01 704.06,-267.18 706.83,-260.75"/>
</g>
<!-- Node10&#45;&gt;Node9 -->
<g id="edge28" class="edge">
<title>Node10&#45;&gt;Node9</title>
<path fill="none" stroke="midnightblue" d="M211.5,-247.08C165.45,-241.51 61.45,-226.14 40.5,-199 17.14,-168.74 37.14,-122.9 53.22,-95.51"/>
<polygon fill="midnightblue" stroke="midnightblue" points="56.41,-97 58.67,-86.64 50.45,-93.33 56.41,-97"/>
</g>
<!-- Node11 -->
<g id="node11" class="node">
<title>Node11</title>
<g id="a_node11"><a xlink:title=" ">
<polygon fill="white" stroke="#bfbfbf" points="49.5,-179.5 49.5,-198.5 87.5,-198.5 87.5,-179.5 49.5,-179.5"/>
<text text-anchor="middle" x="68.5" y="-186.5" font-family="Helvetica,sans-Serif" font-size="10.00">map</text>
</a>
</g>
</g>
<!-- Node10&#45;&gt;Node11 -->
<g id="edge10" class="edge">
<title>Node10&#45;&gt;Node11</title>
<path fill="none" stroke="midnightblue" d="M211.25,-241.48C181.88,-230.89 130.11,-212.22 97.65,-200.51"/>
<polygon fill="midnightblue" stroke="midnightblue" points="98.43,-197.07 87.84,-196.97 96.06,-203.66 98.43,-197.07"/>
</g>
<!-- Node12 -->
<g id="node12" class="node">
<title>Node12</title>
<g id="a_node12"><a xlink:href="nodelink_8h.html" target="_top" xlink:title=" ">
<polygon fill="white" stroke="black" points="105.5,-179.5 105.5,-198.5 173.5,-198.5 173.5,-179.5 105.5,-179.5"/>
<text text-anchor="middle" x="139.5" y="-186.5" font-family="Helvetica,sans-Serif" font-size="10.00">nodelink.h</text>
</a>
</g>
</g>
<!-- Node10&#45;&gt;Node12 -->
<g id="edge11" class="edge">
<title>Node10&#45;&gt;Node12</title>
<path fill="none" stroke="midnightblue" d="M220.03,-240.98C204.82,-231.34 179.81,-215.52 161.7,-204.05"/>
<polygon fill="midnightblue" stroke="midnightblue" points="163.26,-200.9 152.94,-198.51 159.52,-206.81 163.26,-200.9"/>
</g>
<!-- Node17 -->
<g id="node17" class="node">
<title>Node17</title>
<g id="a_node17"><a xlink:href="nonterminal_8h.html" target="_top" xlink:title=" ">
<polygon fill="white" stroke="black" points="353,-123.5 353,-142.5 438,-142.5 438,-123.5 353,-123.5"/>
<text text-anchor="middle" x="395.5" y="-130.5" font-family="Helvetica,sans-Serif" font-size="10.00">nonterminal.h</text>
</a>
</g>
</g>
<!-- Node10&#45;&gt;Node17 -->
<g id="edge21" class="edge">
<title>Node10&#45;&gt;Node17</title>
<path fill="none" stroke="midnightblue" d="M255.51,-249.93C291.16,-249.28 360.8,-242.2 393.5,-199 403.39,-185.93 402.71,-166.78 400.26,-152.65"/>
<polygon fill="midnightblue" stroke="midnightblue" points="403.62,-151.64 398.09,-142.6 396.78,-153.12 403.62,-151.64"/>
</g>
<!-- Node18 -->
<g id="node18" class="node">
<title>Node18</title>
<g id="a_node18"><a xlink:href="specialnode_8h.html" target="_top" xlink:title=" ">
<polygon fill="white" stroke="black" points="191.5,-179.5 191.5,-198.5 275.5,-198.5 275.5,-179.5 191.5,-179.5"/>
<text text-anchor="middle" x="233.5" y="-186.5" font-family="Helvetica,sans-Serif" font-size="10.00">specialnode.h</text>
</a>
</g>
</g>
<!-- Node10&#45;&gt;Node18 -->
<g id="edge24" class="edge">
<title>Node10&#45;&gt;Node18</title>
<path fill="none" stroke="midnightblue" d="M233.5,-240.98C233.5,-232.58 233.5,-219.48 233.5,-208.66"/>
<polygon fill="midnightblue" stroke="midnightblue" points="237,-208.51 233.5,-198.51 230,-208.51 237,-208.51"/>
</g>
<!-- Node19 -->
<g id="node19" class="node">
<title>Node19</title>
<g id="a_node19"><a xlink:href="terminalnode_8h.html" target="_top" xlink:title=" ">
<polygon fill="white" stroke="black" points="294,-179.5 294,-198.5 385,-198.5 385,-179.5 294,-179.5"/>
<text text-anchor="middle" x="339.5" y="-186.5" font-family="Helvetica,sans-Serif" font-size="10.00">terminalnode.h</text>
</a>
</g>
</g>
<!-- Node10&#45;&gt;Node19 -->
<g id="edge26" class="edge">
<title>Node10&#45;&gt;Node19</title>
<path fill="none" stroke="midnightblue" d="M248.69,-240.98C266.16,-231.17 295.08,-214.93 315.58,-203.42"/>
<polygon fill="midnightblue" stroke="midnightblue" points="317.33,-206.46 324.34,-198.51 313.91,-200.35 317.33,-206.46"/>
</g>
<!-- Node12&#45;&gt;Node9 -->
<g id="edge20" class="edge">
<title>Node12&#45;&gt;Node9</title>
<path fill="none" stroke="midnightblue" d="M134.16,-179.32C123.31,-161.66 98.34,-121.04 82.51,-95.29"/>
<polygon fill="midnightblue" stroke="midnightblue" points="85.35,-93.23 77.13,-86.55 79.39,-96.9 85.35,-93.23"/>
</g>
<!-- Node13 -->
<g id="node13" class="node">
<title>Node13</title>
<g id="a_node13"><a xlink:href="node_8h.html" target="_top" xlink:title=" ">
<polygon fill="white" stroke="black" points="208.5,-123.5 208.5,-142.5 258.5,-142.5 258.5,-123.5 208.5,-123.5"/>
<text text-anchor="middle" x="233.5" y="-130.5" font-family="Helvetica,sans-Serif" font-size="10.00">node.h</text>
</a>
</g>
</g>
<!-- Node12&#45;&gt;Node13 -->
<g id="edge12" class="edge">
<title>Node12&#45;&gt;Node13</title>
<path fill="none" stroke="midnightblue" d="M149.49,-179.32C162.63,-170.7 185.58,-157.36 204.28,-147.39"/>
<polygon fill="midnightblue" stroke="midnightblue" points="206.09,-150.39 213.32,-142.65 202.84,-144.19 206.09,-150.39"/>
</g>
<!-- Node13&#45;&gt;Node2 -->
<g id="edge13" class="edge">
<title>Node13&#45;&gt;Node2</title>
<path fill="none" stroke="midnightblue" d="M258.75,-128.19C327.69,-117.78 519.08,-88.87 595.44,-77.34"/>
<polygon fill="midnightblue" stroke="midnightblue" points="596.06,-80.79 605.43,-75.83 595.02,-73.87 596.06,-80.79"/>
</g>
<!-- Node13&#45;&gt;Node3 -->
<g id="edge14" class="edge">
<title>Node13&#45;&gt;Node3</title>
<path fill="none" stroke="midnightblue" d="M245.39,-123.48C258.7,-113.93 280.5,-98.31 296.46,-86.87"/>
<polygon fill="midnightblue" stroke="midnightblue" points="298.54,-89.68 304.63,-81.01 294.46,-83.99 298.54,-89.68"/>
</g>
<!-- Node13&#45;&gt;Node9 -->
<g id="edge18" class="edge">
<title>Node13&#45;&gt;Node9</title>
<path fill="none" stroke="midnightblue" d="M209.86,-123.48C185.74,-114.78 147.61,-101.03 117.02,-90"/>
<polygon fill="midnightblue" stroke="midnightblue" points="117.98,-86.62 107.39,-86.52 115.61,-93.21 117.98,-86.62"/>
</g>
<!-- Node13&#45;&gt;Node12 -->
<g id="edge15" class="edge">
<title>Node13&#45;&gt;Node12</title>
<path fill="none" stroke="midnightblue" d="M223.54,-142.65C210.42,-151.27 187.47,-164.61 168.77,-174.59"/>
<polygon fill="midnightblue" stroke="midnightblue" points="166.96,-171.59 159.72,-179.32 170.2,-177.79 166.96,-171.59"/>
</g>
<!-- Node14 -->
<g id="node14" class="node">
<title>Node14</title>
<g id="a_node14"><a xlink:href="drawing_8h.html" target="_top" xlink:title=" ">
<polygon fill="white" stroke="black" points="201,-62 201,-81 266,-81 266,-62 201,-62"/>
<text text-anchor="middle" x="233.5" y="-69" font-family="Helvetica,sans-Serif" font-size="10.00">drawing.h</text>
</a>
</g>
</g>
<!-- Node13&#45;&gt;Node14 -->
<g id="edge16" class="edge">
<title>Node13&#45;&gt;Node14</title>
<path fill="none" stroke="midnightblue" d="M233.5,-123.48C233.5,-115.08 233.5,-101.98 233.5,-91.16"/>
<polygon fill="midnightblue" stroke="midnightblue" points="237,-91.01 233.5,-81.01 230,-91.01 237,-91.01"/>
</g>
<!-- Node16 -->
<g id="node16" class="node">
<title>Node16</title>
<g id="a_node16"><a xlink:title=" ">
<polygon fill="white" stroke="#bfbfbf" points="397.5,-62 397.5,-81 457.5,-81 457.5,-62 397.5,-62"/>
<text text-anchor="middle" x="427.5" y="-69" font-family="Helvetica,sans-Serif" font-size="10.00">iostream</text>
</a>
</g>
</g>
<!-- Node13&#45;&gt;Node16 -->
<g id="edge19" class="edge">
<title>Node13&#45;&gt;Node16</title>
<path fill="none" stroke="midnightblue" d="M258.86,-124.22C292.24,-113.99 351.18,-95.91 389.79,-84.07"/>
<polygon fill="midnightblue" stroke="midnightblue" points="391.09,-87.33 399.62,-81.05 389.03,-80.64 391.09,-87.33"/>
</g>
<!-- Node15 -->
<g id="node15" class="node">
<title>Node15</title>
<g id="a_node15"><a xlink:title=" ">
<polygon fill="white" stroke="#bfbfbf" points="207,-0.5 207,-19.5 260,-19.5 260,-0.5 207,-0.5"/>
<text text-anchor="middle" x="233.5" y="-7.5" font-family="Helvetica,sans-Serif" font-size="10.00">imgui.h</text>
</a>
</g>
</g>
<!-- Node14&#45;&gt;Node15 -->
<g id="edge17" class="edge">
<title>Node14&#45;&gt;Node15</title>
<path fill="none" stroke="midnightblue" d="M233.5,-61.98C233.5,-53.58 233.5,-40.48 233.5,-29.66"/>
<polygon fill="midnightblue" stroke="midnightblue" points="237,-29.51 233.5,-19.51 230,-29.51 237,-29.51"/>
</g>
<!-- Node17&#45;&gt;Node2 -->
<g id="edge22" class="edge">
<title>Node17&#45;&gt;Node2</title>
<path fill="none" stroke="midnightblue" d="M428.74,-123.48C473.28,-112.05 551.79,-91.92 595.63,-80.67"/>
<polygon fill="midnightblue" stroke="midnightblue" points="596.65,-84.03 605.46,-78.15 594.91,-77.25 596.65,-84.03"/>
</g>
<!-- Node17&#45;&gt;Node3 -->
<g id="edge23" class="edge">
<title>Node17&#45;&gt;Node3</title>
<path fill="none" stroke="midnightblue" d="M384.18,-123.48C371.63,-114.02 351.15,-98.6 336,-87.19"/>
<polygon fill="midnightblue" stroke="midnightblue" points="337.89,-84.23 327.8,-81.01 333.68,-89.82 337.89,-84.23"/>
</g>
<!-- Node18&#45;&gt;Node13 -->
<g id="edge25" class="edge">
<title>Node18&#45;&gt;Node13</title>
<path fill="none" stroke="midnightblue" d="M233.5,-179.08C233.5,-172.01 233.5,-161.86 233.5,-152.99"/>
<polygon fill="midnightblue" stroke="midnightblue" points="237,-152.75 233.5,-142.75 230,-152.75 237,-152.75"/>
</g>
<!-- Node19&#45;&gt;Node13 -->
<g id="edge27" class="edge">
<title>Node19&#45;&gt;Node13</title>
<path fill="none" stroke="midnightblue" d="M322.47,-179.32C305.47,-170.66 279.12,-157.24 259.51,-147.25"/>
<polygon fill="midnightblue" stroke="midnightblue" points="260.99,-144.08 250.49,-142.65 257.81,-150.31 260.99,-144.08"/>
</g>
<!-- Node20&#45;&gt;Node2 -->
<g id="edge32" class="edge">
<title>Node20&#45;&gt;Node2</title>
<path fill="none" stroke="midnightblue" d="M677.58,-240.84C679.86,-219.79 683.68,-164.66 667.5,-123 662.43,-109.94 652.74,-97.56 644.17,-88.33"/>
<polygon fill="midnightblue" stroke="midnightblue" points="646.57,-85.78 637.07,-81.09 641.57,-90.68 646.57,-85.78"/>
</g>
<!-- Node21 -->
<g id="node21" class="node">
<title>Node21</title>
<g id="a_node21"><a xlink:title=" ">
<polygon fill="white" stroke="#bfbfbf" points="714,-179.5 714,-198.5 769,-198.5 769,-179.5 714,-179.5"/>
<text text-anchor="middle" x="741.5" y="-186.5" font-family="Helvetica,sans-Serif" font-size="10.00">fstream</text>
</a>
</g>
</g>
<!-- Node20&#45;&gt;Node21 -->
<g id="edge30" class="edge">
<title>Node20&#45;&gt;Node21</title>
<path fill="none" stroke="midnightblue" d="M685.81,-240.98C695.95,-231.7 712.36,-216.67 724.75,-205.33"/>
<polygon fill="midnightblue" stroke="midnightblue" points="727.19,-207.84 732.2,-198.51 722.46,-202.68 727.19,-207.84"/>
</g>
<!-- Node22 -->
<g id="node22" class="node">
<title>Node22</title>
<g id="a_node22"><a xlink:title=" ">
<polygon fill="white" stroke="#bfbfbf" points="589.5,-179.5 589.5,-198.5 657.5,-198.5 657.5,-179.5 589.5,-179.5"/>
<text text-anchor="middle" x="623.5" y="-186.5" font-family="Helvetica,sans-Serif" font-size="10.00">filesystem</text>
</a>
</g>
</g>
<!-- Node20&#45;&gt;Node22 -->
<g id="edge31" class="edge">
<title>Node20&#45;&gt;Node22</title>
<path fill="none" stroke="midnightblue" d="M668.91,-240.98C660.8,-231.87 647.77,-217.24 637.74,-205.98"/>
<polygon fill="midnightblue" stroke="midnightblue" points="640.34,-203.65 631.08,-198.51 635.12,-208.3 640.34,-203.65"/>
</g>
<!-- Node23 -->
<g id="node23" class="node">
<title>Node23</title>
<g id="a_node23"><a xlink:href="parsetree_8h.html" target="_top" xlink:title=" ">
<polygon fill="white" stroke="black" points="480,-179.5 480,-198.5 571,-198.5 571,-179.5 480,-179.5"/>
<text text-anchor="middle" x="525.5" y="-186.5" font-family="Helvetica,sans-Serif" font-size="10.00">util/parsetree.h</text>
</a>
</g>
</g>
<!-- Node20&#45;&gt;Node23 -->
<g id="edge33" class="edge">
<title>Node20&#45;&gt;Node23</title>
<path fill="none" stroke="midnightblue" d="M654.87,-240.98C629.08,-230.81 585.79,-213.76 556.46,-202.2"/>
<polygon fill="midnightblue" stroke="midnightblue" points="557.68,-198.92 547.09,-198.51 555.12,-205.43 557.68,-198.92"/>
</g>
<!-- Node23&#45;&gt;Node3 -->
<g id="edge34" class="edge">
<title>Node23&#45;&gt;Node3</title>
<path fill="none" stroke="midnightblue" d="M479.63,-181.59C432.57,-174.17 363.5,-160.67 343.5,-143 328.64,-129.87 321.92,-107.64 318.9,-91.65"/>
<polygon fill="midnightblue" stroke="midnightblue" points="322.29,-90.67 317.29,-81.33 315.37,-91.75 322.29,-90.67"/>
</g>
<!-- Node23&#45;&gt;Node16 -->
<g id="edge36" class="edge">
<title>Node23&#45;&gt;Node16</title>
<path fill="none" stroke="midnightblue" d="M517.98,-179.41C510.09,-170.38 497.36,-155.75 486.5,-143 470.9,-124.69 453.22,-103.5 441.31,-89.17"/>
<polygon fill="midnightblue" stroke="midnightblue" points="443.8,-86.68 434.72,-81.22 438.41,-91.15 443.8,-86.68"/>
</g>
<!-- Node24 -->
<g id="node24" class="node">
<title>Node24</title>
<g id="a_node24"><a xlink:title=" ">
<polygon fill="white" stroke="#bfbfbf" points="495,-123.5 495,-142.5 578,-142.5 578,-123.5 495,-123.5"/>
<text text-anchor="middle" x="536.5" y="-130.5" font-family="Helvetica,sans-Serif" font-size="10.00">initializer_list</text>
</a>
</g>
</g>
<!-- Node23&#45;&gt;Node24 -->
<g id="edge35" class="edge">
<title>Node23&#45;&gt;Node24</title>
<path fill="none" stroke="midnightblue" d="M527.32,-179.08C528.77,-171.93 530.87,-161.64 532.69,-152.69"/>
<polygon fill="midnightblue" stroke="midnightblue" points="536.15,-153.25 534.72,-142.75 529.29,-151.85 536.15,-153.25"/>
</g>
<!-- Node25 -->
<g id="node25" class="node">
<title>Node25</title>
<g id="a_node25"><a xlink:href="symbol_8h.html" target="_top" xlink:title=" ">
<polygon fill="white" stroke="black" points="596.5,-123.5 596.5,-142.5 658.5,-142.5 658.5,-123.5 596.5,-123.5"/>
<text text-anchor="middle" x="627.5" y="-130.5" font-family="Helvetica,sans-Serif" font-size="10.00">symbol.h</text>
</a>
</g>
</g>
<!-- Node23&#45;&gt;Node25 -->
<g id="edge37" class="edge">
<title>Node23&#45;&gt;Node25</title>
<path fill="none" stroke="midnightblue" d="M541.89,-179.32C558.17,-170.7 583.37,-157.36 602.22,-147.39"/>
<polygon fill="midnightblue" stroke="midnightblue" points="603.95,-150.43 611.15,-142.65 600.68,-144.24 603.95,-150.43"/>
</g>
<!-- Node25&#45;&gt;Node2 -->
<g id="edge38" class="edge">
<title>Node25&#45;&gt;Node2</title>
<path fill="none" stroke="midnightblue" d="M627.5,-123.48C627.5,-115.08 627.5,-101.98 627.5,-91.16"/>
<polygon fill="midnightblue" stroke="midnightblue" points="631,-91.01 627.5,-81.01 624,-91.01 631,-91.01"/>
</g>
</g>
</svg>
        <g id="navigator" transform="translate(0 0)" fill="#404254">
                <rect fill="#f2f5e9" fill-opacity="0.5" stroke="#606060" stroke-width=".5" x="0" y="0" width="60" height="60"/>
                <use id="zoomplus" xlink:href="#zoomPlus" x="17" y="9" onmousedown="handleZoom(evt,'in')"/>
                <use id="zoomminus" xlink:href="#zoomMin" x="42" y="9" onmousedown="handleZoom(evt,'out')"/>
                <use id="reset" xlink:href="#resetDef" x="30" y="36" onmousedown="handleReset()"/>
                <g id="arrowUp" xlink:href="#dirArrow" transform="translate(30 24)" onmousedown="handlePan(0,-1)">
                  <use xlink:href="#rim" fill="#404040">
                        <set attributeName="fill" to="#808080" begin="arrowUp.mouseover" end="arrowUp.mouseout"/>
                  </use>
                  <path fill="none" stroke="white" stroke-width="1.5" d="M0,-3.0v7 M-2.5,-0.5L0,-3.0L2.5,-0.5"/>
                </g>
                <g id="arrowRight" xlink:href="#dirArrow" transform="rotate(90) translate(36 -43)" onmousedown="handlePan(1,0)">
                  <use xlink:href="#rim" fill="#404040">
                        <set attributeName="fill" to="#808080" begin="arrowRight.mouseover" end="arrowRight.mouseout"/>
                  </use>
                  <path fill="none" stroke="white" stroke-width="1.5" d="M0,-3.0v7 M-2.5,-0.5L0,-3.0L2.5,-0.5"/>
                </g>
                <g id="arrowDown" xlink:href="#dirArrow" transform="rotate(180) translate(-30 -48)" onmousedown="handlePan(0,1)">
                  <use xlink:href="#rim" fill="#404040">
                        <set attributeName="fill" to="#808080" begin="arrowDown.mouseover" end="arrowDown.mouseout"/>
                  </use>
                  <path fill="none" stroke="white" stroke-width="1.5" d="M0,-3.0v7 M-2.5,-0.5L0,-3.0L2.5,-0.5"/>
                </g>
                <g id="arrowLeft" xlink:href="#dirArrow" transform="rotate(270) translate(-36 17)" onmousedown="handlePan(-1,0)">
                  <use xlink:href="#rim" fill="#404040">
                        <set attributeName="fill" to="#808080" begin="arrowLeft.mouseover" end="arrowLeft.mouseout"/>
                  </use>
                  <path fill="none" stroke="white" stroke-width="1.5" d="M0,-3.0v7 M-2.5,-0.5L0,-3.0L2.5,-0.5"/>
                </g>
        </g>
        <svg viewBox="0 0 15 15" width="100%" height="30px" preserveAspectRatio="xMaxYMin meet">
         <g id="arrow_out" transform="scale(0.3 0.3)">
          <a xlink:href="maingui_8h__incl_org.svg" target="_base">
           <rect id="button" ry="5" rx="5" y="6" x="6" height="38" width="38"
                fill="#f2f5e9" fill-opacity="0.5" stroke="#606060" stroke-width="1.0"/>
           <path id="arrow"
             d="M 11.500037,31.436501 C 11.940474,20.09759 22.043105,11.32322 32.158766,21.979434 L 37.068811,17.246167 C 37.068811,17.246167 37.088388,32 37.088388,32 L 22.160133,31.978069 C 22.160133,31.978069 26.997745,27.140456 26.997745,27.140456 C 18.528582,18.264221 13.291696,25.230495 11.500037,31.436501 z"
             style="fill:#404040;"/>
          </a>
         </g>
        </svg>
</svg>
