<?xml version="1.0" encoding="UTF-8" standalone="no"?>
<!DOCTYPE svg PUBLIC "-//W3C//DTD SVG 1.1//EN"
 "http://www.w3.org/Graphics/SVG/1.1/DTD/svg11.dtd">
<!-- Generated by graphviz version 2.43.0 (0)
 -->
<!-- Title: /root/fyp/project/src/nodelink.h Pages: 1 -->
<svg width="435pt" height="218pt"
 viewBox="0.00 0.00 434.50 218.00" xmlns="http://www.w3.org/2000/svg" xmlns:xlink="http://www.w3.org/1999/xlink">
<g id="graph0" class="graph" transform="scale(1 1) rotate(0) translate(4 214)">
<title>/root/fyp/project/src/nodelink.h</title>
<polygon fill="white" stroke="transparent" points="-4,4 -4,-214 430.5,-214 430.5,4 -4,4"/>
<!-- Node1 -->
<g id="node1" class="node">
<title>Node1</title>
<g id="a_node1"><a xlink:title=" ">
<polygon fill="#bfbfbf" stroke="black" points="144.5,-179.5 144.5,-209.5 255.5,-209.5 255.5,-179.5 144.5,-179.5"/>
<text text-anchor="start" x="152.5" y="-197.5" font-family="Helvetica,sans-Serif" font-size="10.00">/root/fyp/project/src</text>
<text text-anchor="middle" x="200" y="-186.5" font-family="Helvetica,sans-Serif" font-size="10.00">/nodelink.h</text>
</a>
</g>
</g>
<!-- Node2 -->
<g id="node2" class="node">
<title>Node2</title>
<g id="a_node2"><a xlink:href="node_8h.html" target="_top" xlink:title=" ">
<polygon fill="white" stroke="black" points="175,-123.5 175,-142.5 225,-142.5 225,-123.5 175,-123.5"/>
<text text-anchor="middle" x="200" y="-130.5" font-family="Helvetica,sans-Serif" font-size="10.00">node.h</text>
</a>
</g>
</g>
<!-- Node1&#45;&gt;Node2 -->
<g id="edge1" class="edge">
<title>Node1&#45;&gt;Node2</title>
<path fill="none" stroke="midnightblue" d="M194.16,-179.4C193.13,-171.38 192.97,-161.23 193.69,-152.57"/>
<polygon fill="midnightblue" stroke="midnightblue" points="197.16,-153.04 195.07,-142.66 190.23,-152.08 197.16,-153.04"/>
</g>
<!-- Node7 -->
<g id="node7" class="node">
<title>Node7</title>
<g id="a_node7"><a xlink:title=" ">
<polygon fill="white" stroke="#bfbfbf" points="289.5,-56.5 289.5,-86.5 426.5,-86.5 426.5,-56.5 289.5,-56.5"/>
<text text-anchor="start" x="297.5" y="-74.5" font-family="Helvetica,sans-Serif" font-size="10.00">imgui/nodes/imgui_node</text>
<text text-anchor="middle" x="358" y="-63.5" font-family="Helvetica,sans-Serif" font-size="10.00">_editor.h</text>
</a>
</g>
</g>
<!-- Node1&#45;&gt;Node7 -->
<g id="edge9" class="edge">
<title>Node1&#45;&gt;Node7</title>
<path fill="none" stroke="midnightblue" d="M218.43,-179.38C246.38,-157.98 299.6,-117.22 331.64,-92.69"/>
<polygon fill="midnightblue" stroke="midnightblue" points="333.87,-95.39 339.68,-86.53 329.62,-89.83 333.87,-95.39"/>
</g>
<!-- Node2&#45;&gt;Node1 -->
<g id="edge4" class="edge">
<title>Node2&#45;&gt;Node1</title>
<path fill="none" stroke="midnightblue" d="M204.93,-142.66C206.43,-149.65 207.01,-159.86 206.64,-169.29"/>
<polygon fill="midnightblue" stroke="midnightblue" points="203.14,-169.15 205.84,-179.4 210.12,-169.71 203.14,-169.15"/>
</g>
<!-- Node3 -->
<g id="node3" class="node">
<title>Node3</title>
<g id="a_node3"><a xlink:title=" ">
<polygon fill="white" stroke="#bfbfbf" points="0,-62 0,-81 44,-81 44,-62 0,-62"/>
<text text-anchor="middle" x="22" y="-69" font-family="Helvetica,sans-Serif" font-size="10.00">string</text>
</a>
</g>
</g>
<!-- Node2&#45;&gt;Node3 -->
<g id="edge2" class="edge">
<title>Node2&#45;&gt;Node3</title>
<path fill="none" stroke="midnightblue" d="M174.93,-125.48C145.38,-117.53 94.97,-103.15 53,-87 51.58,-86.45 50.13,-85.87 48.68,-85.26"/>
<polygon fill="midnightblue" stroke="midnightblue" points="49.75,-81.91 39.19,-81.07 46.92,-88.31 49.75,-81.91"/>
</g>
<!-- Node4 -->
<g id="node4" class="node">
<title>Node4</title>
<g id="a_node4"><a xlink:title=" ">
<polygon fill="white" stroke="#bfbfbf" points="62.5,-62 62.5,-81 109.5,-81 109.5,-62 62.5,-62"/>
<text text-anchor="middle" x="86" y="-69" font-family="Helvetica,sans-Serif" font-size="10.00">vector</text>
</a>
</g>
</g>
<!-- Node2&#45;&gt;Node4 -->
<g id="edge3" class="edge">
<title>Node2&#45;&gt;Node4</title>
<path fill="none" stroke="midnightblue" d="M183.67,-123.48C164.79,-113.62 133.49,-97.29 111.42,-85.77"/>
<polygon fill="midnightblue" stroke="midnightblue" points="112.79,-82.53 102.3,-81.01 109.55,-88.74 112.79,-82.53"/>
</g>
<!-- Node5 -->
<g id="node5" class="node">
<title>Node5</title>
<g id="a_node5"><a xlink:href="drawing_8h.html" target="_top" xlink:title=" ">
<polygon fill="white" stroke="black" points="127.5,-62 127.5,-81 192.5,-81 192.5,-62 127.5,-62"/>
<text text-anchor="middle" x="160" y="-69" font-family="Helvetica,sans-Serif" font-size="10.00">drawing.h</text>
</a>
</g>
</g>
<!-- Node2&#45;&gt;Node5 -->
<g id="edge5" class="edge">
<title>Node2&#45;&gt;Node5</title>
<path fill="none" stroke="midnightblue" d="M194.27,-123.48C188.33,-114.64 178.88,-100.59 171.41,-89.48"/>
<polygon fill="midnightblue" stroke="midnightblue" points="174.2,-87.36 165.72,-81.01 168.39,-91.26 174.2,-87.36"/>
</g>
<!-- Node2&#45;&gt;Node7 -->
<g id="edge7" class="edge">
<title>Node2&#45;&gt;Node7</title>
<path fill="none" stroke="midnightblue" d="M222.64,-123.48C245.64,-114.81 281.93,-101.15 311.15,-90.14"/>
<polygon fill="midnightblue" stroke="midnightblue" points="312.64,-93.32 320.76,-86.52 310.17,-86.77 312.64,-93.32"/>
</g>
<!-- Node8 -->
<g id="node8" class="node">
<title>Node8</title>
<g id="a_node8"><a xlink:title=" ">
<polygon fill="white" stroke="#bfbfbf" points="211,-62 211,-81 271,-81 271,-62 211,-62"/>
<text text-anchor="middle" x="241" y="-69" font-family="Helvetica,sans-Serif" font-size="10.00">iostream</text>
</a>
</g>
</g>
<!-- Node2&#45;&gt;Node8 -->
<g id="edge8" class="edge">
<title>Node2&#45;&gt;Node8</title>
<path fill="none" stroke="midnightblue" d="M205.87,-123.48C211.96,-114.64 221.64,-100.59 229.3,-89.48"/>
<polygon fill="midnightblue" stroke="midnightblue" points="232.34,-91.23 235.14,-81.01 226.58,-87.26 232.34,-91.23"/>
</g>
<!-- Node6 -->
<g id="node6" class="node">
<title>Node6</title>
<g id="a_node6"><a xlink:title=" ">
<polygon fill="white" stroke="#bfbfbf" points="133.5,-0.5 133.5,-19.5 186.5,-19.5 186.5,-0.5 133.5,-0.5"/>
<text text-anchor="middle" x="160" y="-7.5" font-family="Helvetica,sans-Serif" font-size="10.00">imgui.h</text>
</a>
</g>
</g>
<!-- Node5&#45;&gt;Node6 -->
<g id="edge6" class="edge">
<title>Node5&#45;&gt;Node6</title>
<path fill="none" stroke="midnightblue" d="M160,-61.98C160,-53.58 160,-40.48 160,-29.66"/>
<polygon fill="midnightblue" stroke="midnightblue" points="163.5,-29.51 160,-19.51 156.5,-29.51 163.5,-29.51"/>
</g>
</g>
</svg>
