<?xml version="1.0" encoding="UTF-8" standalone="no"?>
<!DOCTYPE svg PUBLIC "-//W3C//DTD SVG 1.1//EN"
 "http://www.w3.org/Graphics/SVG/1.1/DTD/svg11.dtd">
<!-- Generated by graphviz version 2.43.0 (0)
 -->
<!-- Title: /root/fyp/project/src/node.h Pages: 1 -->
<svg width="404pt" height="162pt"
 viewBox="0.00 0.00 404.00 162.00" xmlns="http://www.w3.org/2000/svg" xmlns:xlink="http://www.w3.org/1999/xlink">
<g id="graph0" class="graph" transform="scale(1 1) rotate(0) translate(4 158)">
<title>/root/fyp/project/src/node.h</title>
<polygon fill="white" stroke="transparent" points="-4,4 -4,-158 400,-158 400,4 -4,4"/>
<!-- Node1 -->
<g id="node1" class="node">
<title>Node1</title>
<g id="a_node1"><a xlink:title=" ">
<polygon fill="#bfbfbf" stroke="black" points="106.5,-123.5 106.5,-153.5 217.5,-153.5 217.5,-123.5 106.5,-123.5"/>
<text text-anchor="start" x="114.5" y="-141.5" font-family="Helvetica,sans-Serif" font-size="10.00">/root/fyp/project/src</text>
<text text-anchor="middle" x="162" y="-130.5" font-family="Helvetica,sans-Serif" font-size="10.00">/node.h</text>
</a>
</g>
</g>
<!-- Node2 -->
<g id="node2" class="node">
<title>Node2</title>
<g id="a_node2"><a xlink:title=" ">
<polygon fill="white" stroke="#bfbfbf" points="0,-67.5 0,-86.5 44,-86.5 44,-67.5 0,-67.5"/>
<text text-anchor="middle" x="22" y="-74.5" font-family="Helvetica,sans-Serif" font-size="10.00">string</text>
</a>
</g>
</g>
<!-- Node1&#45;&gt;Node2 -->
<g id="edge1" class="edge">
<title>Node1&#45;&gt;Node2</title>
<path fill="none" stroke="midnightblue" d="M128.82,-123.4C105.44,-113.46 74.39,-100.26 51.79,-90.66"/>
<polygon fill="midnightblue" stroke="midnightblue" points="52.94,-87.35 42.37,-86.66 50.21,-93.79 52.94,-87.35"/>
</g>
<!-- Node3 -->
<g id="node3" class="node">
<title>Node3</title>
<g id="a_node3"><a xlink:title=" ">
<polygon fill="white" stroke="#bfbfbf" points="62.5,-67.5 62.5,-86.5 109.5,-86.5 109.5,-67.5 62.5,-67.5"/>
<text text-anchor="middle" x="86" y="-74.5" font-family="Helvetica,sans-Serif" font-size="10.00">vector</text>
</a>
</g>
</g>
<!-- Node1&#45;&gt;Node3 -->
<g id="edge2" class="edge">
<title>Node1&#45;&gt;Node3</title>
<path fill="none" stroke="midnightblue" d="M143.99,-123.4C132.26,-114.22 116.98,-102.26 105.06,-92.92"/>
<polygon fill="midnightblue" stroke="midnightblue" points="107.09,-90.07 97.06,-86.66 102.78,-95.58 107.09,-90.07"/>
</g>
<!-- Node4 -->
<g id="node4" class="node">
<title>Node4</title>
<g id="a_node4"><a xlink:href="nodelink_8h.html" target="_top" xlink:title=" ">
<polygon fill="white" stroke="black" points="128,-67.5 128,-86.5 196,-86.5 196,-67.5 128,-67.5"/>
<text text-anchor="middle" x="162" y="-74.5" font-family="Helvetica,sans-Serif" font-size="10.00">nodelink.h</text>
</a>
</g>
</g>
<!-- Node1&#45;&gt;Node4 -->
<g id="edge3" class="edge">
<title>Node1&#45;&gt;Node4</title>
<path fill="none" stroke="midnightblue" d="M156.16,-123.4C155.13,-115.38 154.97,-105.23 155.69,-96.57"/>
<polygon fill="midnightblue" stroke="midnightblue" points="159.16,-97.04 157.07,-86.66 152.23,-96.08 159.16,-97.04"/>
</g>
<!-- Node5 -->
<g id="node5" class="node">
<title>Node5</title>
<g id="a_node5"><a xlink:title=" ">
<polygon fill="white" stroke="#bfbfbf" points="98.5,-0.5 98.5,-30.5 235.5,-30.5 235.5,-0.5 98.5,-0.5"/>
<text text-anchor="start" x="106.5" y="-18.5" font-family="Helvetica,sans-Serif" font-size="10.00">imgui/nodes/imgui_node</text>
<text text-anchor="middle" x="167" y="-7.5" font-family="Helvetica,sans-Serif" font-size="10.00">_editor.h</text>
</a>
</g>
</g>
<!-- Node1&#45;&gt;Node5 -->
<g id="edge8" class="edge">
<title>Node1&#45;&gt;Node5</title>
<path fill="none" stroke="midnightblue" d="M178.8,-123.47C188.48,-114.24 199.75,-101.26 205,-87 211.34,-69.77 201.03,-51.55 189.55,-37.95"/>
<polygon fill="midnightblue" stroke="midnightblue" points="192.1,-35.55 182.78,-30.52 186.93,-40.27 192.1,-35.55"/>
</g>
<!-- Node6 -->
<g id="node6" class="node">
<title>Node6</title>
<g id="a_node6"><a xlink:href="drawing_8h.html" target="_top" xlink:title=" ">
<polygon fill="white" stroke="black" points="252.5,-67.5 252.5,-86.5 317.5,-86.5 317.5,-67.5 252.5,-67.5"/>
<text text-anchor="middle" x="285" y="-74.5" font-family="Helvetica,sans-Serif" font-size="10.00">drawing.h</text>
</a>
</g>
</g>
<!-- Node1&#45;&gt;Node6 -->
<g id="edge6" class="edge">
<title>Node1&#45;&gt;Node6</title>
<path fill="none" stroke="midnightblue" d="M191.15,-123.4C211.42,-113.59 238.24,-100.62 258.02,-91.05"/>
<polygon fill="midnightblue" stroke="midnightblue" points="259.62,-94.16 267.1,-86.66 256.58,-87.86 259.62,-94.16"/>
</g>
<!-- Node8 -->
<g id="node8" class="node">
<title>Node8</title>
<g id="a_node8"><a xlink:title=" ">
<polygon fill="white" stroke="#bfbfbf" points="336,-67.5 336,-86.5 396,-86.5 396,-67.5 336,-67.5"/>
<text text-anchor="middle" x="366" y="-74.5" font-family="Helvetica,sans-Serif" font-size="10.00">iostream</text>
</a>
</g>
</g>
<!-- Node1&#45;&gt;Node8 -->
<g id="edge9" class="edge">
<title>Node1&#45;&gt;Node8</title>
<path fill="none" stroke="midnightblue" d="M210.09,-123.47C245.74,-113.08 293.73,-99.08 327.01,-89.37"/>
<polygon fill="midnightblue" stroke="midnightblue" points="328.22,-92.67 336.84,-86.51 326.26,-85.95 328.22,-92.67"/>
</g>
<!-- Node4&#45;&gt;Node1 -->
<g id="edge4" class="edge">
<title>Node4&#45;&gt;Node1</title>
<path fill="none" stroke="midnightblue" d="M166.93,-86.66C168.43,-93.65 169.01,-103.86 168.64,-113.29"/>
<polygon fill="midnightblue" stroke="midnightblue" points="165.14,-113.15 167.84,-123.4 172.12,-113.71 165.14,-113.15"/>
</g>
<!-- Node4&#45;&gt;Node5 -->
<g id="edge5" class="edge">
<title>Node4&#45;&gt;Node5</title>
<path fill="none" stroke="midnightblue" d="M162.72,-67.48C163.3,-60.47 164.17,-50.19 164.97,-40.7"/>
<polygon fill="midnightblue" stroke="midnightblue" points="168.47,-40.78 165.82,-30.52 161.5,-40.19 168.47,-40.78"/>
</g>
<!-- Node7 -->
<g id="node7" class="node">
<title>Node7</title>
<g id="a_node7"><a xlink:title=" ">
<polygon fill="white" stroke="#bfbfbf" points="258.5,-6 258.5,-25 311.5,-25 311.5,-6 258.5,-6"/>
<text text-anchor="middle" x="285" y="-13" font-family="Helvetica,sans-Serif" font-size="10.00">imgui.h</text>
</a>
</g>
</g>
<!-- Node6&#45;&gt;Node7 -->
<g id="edge7" class="edge">
<title>Node6&#45;&gt;Node7</title>
<path fill="none" stroke="midnightblue" d="M285,-67.48C285,-59.08 285,-45.98 285,-35.16"/>
<polygon fill="midnightblue" stroke="midnightblue" points="288.5,-35.01 285,-25.01 281.5,-35.01 288.5,-35.01"/>
</g>
</g>
</svg>
