<?xml version="1.0" encoding="UTF-8" standalone="no"?>
<!DOCTYPE svg PUBLIC "-//W3C//DTD SVG 1.1//EN"
 "http://www.w3.org/Graphics/SVG/1.1/DTD/svg11.dtd">
<!-- Generated by graphviz version 2.43.0 (0)
 -->
<!-- Title: /root/fyp/project/src/nodelink.h Pages: 1 -->
<svg width="577pt" height="374pt"
 viewBox="0.00 0.00 577.14 374.00" xmlns="http://www.w3.org/2000/svg" xmlns:xlink="http://www.w3.org/1999/xlink">
<g id="graph0" class="graph" transform="scale(1 1) rotate(0) translate(4 370)">
<title>/root/fyp/project/src/nodelink.h</title>
<polygon fill="white" stroke="transparent" points="-4,4 -4,-370 573.14,-370 573.14,4 -4,4"/>
<!-- Node1 -->
<g id="node1" class="node">
<title>Node1</title>
<g id="a_node1"><a xlink:title=" ">
<polygon fill="#bfbfbf" stroke="black" points="184.3,-335.5 184.3,-365.5 295.3,-365.5 295.3,-335.5 184.3,-335.5"/>
<text text-anchor="start" x="192.3" y="-353.5" font-family="Helvetica,sans-Serif" font-size="10.00">/root/fyp/project/src</text>
<text text-anchor="middle" x="239.8" y="-342.5" font-family="Helvetica,sans-Serif" font-size="10.00">/nodelink.h</text>
</a>
</g>
</g>
<!-- Node2 -->
<g id="node2" class="node">
<title>Node2</title>
<g id="a_node2"><a xlink:href="node_8h.html" target="_top" xlink:title=" ">
<polygon fill="white" stroke="black" points="184.3,-268.5 184.3,-298.5 295.3,-298.5 295.3,-268.5 184.3,-268.5"/>
<text text-anchor="start" x="192.3" y="-286.5" font-family="Helvetica,sans-Serif" font-size="10.00">/root/fyp/project/src</text>
<text text-anchor="middle" x="239.8" y="-275.5" font-family="Helvetica,sans-Serif" font-size="10.00">/node.h</text>
</a>
</g>
</g>
<!-- Node1&#45;&gt;Node2 -->
<g id="edge1" class="edge">
<title>Node1&#45;&gt;Node2</title>
<path fill="none" stroke="midnightblue" d="M233.26,-325.4C232.81,-316.37 233.1,-306.41 234.13,-298.58"/>
<polygon fill="midnightblue" stroke="midnightblue" points="229.77,-325.74 234.12,-335.4 236.75,-325.13 229.77,-325.74"/>
</g>
<!-- Node7 -->
<g id="node7" class="node">
<title>Node7</title>
<g id="a_node7"><a xlink:href="rule_8h.html" target="_top" xlink:title=" ">
<polygon fill="white" stroke="black" points="226.3,-134.5 226.3,-164.5 337.3,-164.5 337.3,-134.5 226.3,-134.5"/>
<text text-anchor="start" x="234.3" y="-152.5" font-family="Helvetica,sans-Serif" font-size="10.00">/root/fyp/project/src</text>
<text text-anchor="middle" x="281.8" y="-141.5" font-family="Helvetica,sans-Serif" font-size="10.00">/rule.h</text>
</a>
</g>
</g>
<!-- Node1&#45;&gt;Node7 -->
<g id="edge18" class="edge">
<title>Node1&#45;&gt;Node7</title>
<path fill="none" stroke="midnightblue" d="M305.46,-346.71C381.8,-339.54 504.74,-314.91 562.8,-232 570.71,-220.71 571.64,-211.57 562.8,-201 534.66,-167.35 411.1,-156.09 337.53,-152.35"/>
<polygon fill="midnightblue" stroke="midnightblue" points="305.13,-343.23 295.47,-347.58 305.73,-350.2 305.13,-343.23"/>
</g>
<!-- Node2&#45;&gt;Node1 -->
<g id="edge5" class="edge">
<title>Node2&#45;&gt;Node1</title>
<path fill="none" stroke="midnightblue" d="M246.35,-308.57C246.8,-317.6 246.51,-327.56 245.48,-335.4"/>
<polygon fill="midnightblue" stroke="midnightblue" points="249.83,-308.24 245.48,-298.58 242.86,-308.84 249.83,-308.24"/>
</g>
<!-- Node3 -->
<g id="node3" class="node">
<title>Node3</title>
<g id="a_node3"><a xlink:href="nonterminalnode_8h.html" target="_top" xlink:title=" ">
<polygon fill="white" stroke="black" points="15.8,-134.5 15.8,-164.5 127.8,-164.5 127.8,-134.5 15.8,-134.5"/>
<text text-anchor="start" x="23.8" y="-152.5" font-family="Helvetica,sans-Serif" font-size="10.00">/root/fyp/project/src</text>
<text text-anchor="middle" x="71.8" y="-141.5" font-family="Helvetica,sans-Serif" font-size="10.00">/nonterminalnode.h</text>
</a>
</g>
</g>
<!-- Node2&#45;&gt;Node3 -->
<g id="edge2" class="edge">
<title>Node2&#45;&gt;Node3</title>
<path fill="none" stroke="midnightblue" d="M195.26,-264.03C177.69,-255.63 157.9,-244.71 141.8,-232 116.63,-212.12 93.68,-182.16 81.33,-164.64"/>
<polygon fill="midnightblue" stroke="midnightblue" points="194.21,-267.4 204.76,-268.43 197.16,-261.05 194.21,-267.4"/>
</g>
<!-- Node4 -->
<g id="node4" class="node">
<title>Node4</title>
<g id="a_node4"><a xlink:href="main_8cpp.html" target="_top" xlink:title=" ">
<polygon fill="white" stroke="black" points="78.3,-0.5 78.3,-30.5 189.3,-30.5 189.3,-0.5 78.3,-0.5"/>
<text text-anchor="start" x="86.3" y="-18.5" font-family="Helvetica,sans-Serif" font-size="10.00">/root/fyp/project/src</text>
<text text-anchor="middle" x="133.8" y="-7.5" font-family="Helvetica,sans-Serif" font-size="10.00">/main.cpp</text>
</a>
</g>
</g>
<!-- Node2&#45;&gt;Node4 -->
<g id="edge6" class="edge">
<title>Node2&#45;&gt;Node4</title>
<path fill="none" stroke="midnightblue" d="M174.22,-270.78C117.54,-256.66 39.7,-226.65 6.8,-165 -23.15,-108.88 58.9,-55.31 104.96,-30.65"/>
<polygon fill="midnightblue" stroke="midnightblue" points="173.65,-274.25 184.19,-273.16 175.27,-267.44 173.65,-274.25"/>
</g>
<!-- Node5 -->
<g id="node5" class="node">
<title>Node5</title>
<g id="a_node5"><a xlink:href="rule_8cpp.html" target="_top" xlink:title=" ">
<polygon fill="white" stroke="black" points="100.3,-67.5 100.3,-97.5 211.3,-97.5 211.3,-67.5 100.3,-67.5"/>
<text text-anchor="start" x="108.3" y="-85.5" font-family="Helvetica,sans-Serif" font-size="10.00">/root/fyp/project/src</text>
<text text-anchor="middle" x="155.8" y="-74.5" font-family="Helvetica,sans-Serif" font-size="10.00">/rule.cpp</text>
</a>
</g>
</g>
<!-- Node2&#45;&gt;Node5 -->
<g id="edge17" class="edge">
<title>Node2&#45;&gt;Node5</title>
<path fill="none" stroke="midnightblue" d="M204.3,-262.63C193.08,-254.58 181.8,-244.26 174.8,-232 149.8,-188.21 151.78,-125.51 154.21,-97.71"/>
<polygon fill="midnightblue" stroke="midnightblue" points="202.54,-265.67 212.79,-268.34 206.44,-259.86 202.54,-265.67"/>
</g>
<!-- Node6 -->
<g id="node6" class="node">
<title>Node6</title>
<g id="a_node6"><a xlink:href="specialnode_8h.html" target="_top" xlink:title=" ">
<polygon fill="white" stroke="black" points="442.3,-201.5 442.3,-231.5 553.3,-231.5 553.3,-201.5 442.3,-201.5"/>
<text text-anchor="start" x="450.3" y="-219.5" font-family="Helvetica,sans-Serif" font-size="10.00">/root/fyp/project/src</text>
<text text-anchor="middle" x="497.8" y="-208.5" font-family="Helvetica,sans-Serif" font-size="10.00">/specialnode.h</text>
</a>
</g>
</g>
<!-- Node2&#45;&gt;Node6 -->
<g id="edge7" class="edge">
<title>Node2&#45;&gt;Node6</title>
<path fill="none" stroke="midnightblue" d="M305.39,-265.98C347.68,-255.32 402.08,-241.62 442.24,-231.5"/>
<polygon fill="midnightblue" stroke="midnightblue" points="304.31,-262.64 295.47,-268.48 306.02,-269.43 304.31,-262.64"/>
</g>
<!-- Node10 -->
<g id="node10" class="node">
<title>Node10</title>
<g id="a_node10"><a xlink:href="terminalnode_8h.html" target="_top" xlink:title=" ">
<polygon fill="white" stroke="black" points="184.3,-201.5 184.3,-231.5 295.3,-231.5 295.3,-201.5 184.3,-201.5"/>
<text text-anchor="start" x="192.3" y="-219.5" font-family="Helvetica,sans-Serif" font-size="10.00">/root/fyp/project/src</text>
<text text-anchor="middle" x="239.8" y="-208.5" font-family="Helvetica,sans-Serif" font-size="10.00">/terminalnode.h</text>
</a>
</g>
</g>
<!-- Node2&#45;&gt;Node10 -->
<g id="edge14" class="edge">
<title>Node2&#45;&gt;Node10</title>
<path fill="none" stroke="midnightblue" d="M239.8,-258.11C239.8,-249.15 239.8,-239.32 239.8,-231.58"/>
<polygon fill="midnightblue" stroke="midnightblue" points="236.3,-258.4 239.8,-268.4 243.3,-258.4 236.3,-258.4"/>
</g>
<!-- Node11 -->
<g id="node11" class="node">
<title>Node11</title>
<g id="a_node11"><a xlink:href="node_8cpp.html" target="_top" xlink:title=" ">
<polygon fill="white" stroke="black" points="313.3,-201.5 313.3,-231.5 424.3,-231.5 424.3,-201.5 313.3,-201.5"/>
<text text-anchor="start" x="321.3" y="-219.5" font-family="Helvetica,sans-Serif" font-size="10.00">/root/fyp/project/src</text>
<text text-anchor="middle" x="368.8" y="-208.5" font-family="Helvetica,sans-Serif" font-size="10.00">/node.cpp</text>
</a>
</g>
</g>
<!-- Node2&#45;&gt;Node11 -->
<g id="edge16" class="edge">
<title>Node2&#45;&gt;Node11</title>
<path fill="none" stroke="midnightblue" d="M276.81,-263.85C297.21,-253.58 322.11,-241.03 340.87,-231.58"/>
<polygon fill="midnightblue" stroke="midnightblue" points="275.15,-260.77 267.79,-268.4 278.3,-267.02 275.15,-260.77"/>
</g>
<!-- Node3&#45;&gt;Node4 -->
<g id="edge3" class="edge">
<title>Node3&#45;&gt;Node4</title>
<path fill="none" stroke="midnightblue" d="M74.4,-124.16C76.91,-107.39 81.73,-84.98 90.8,-67 97.75,-53.22 109.21,-40.03 118.55,-30.59"/>
<polygon fill="midnightblue" stroke="midnightblue" points="70.91,-123.88 73.06,-134.26 77.85,-124.8 70.91,-123.88"/>
</g>
<!-- Node3&#45;&gt;Node5 -->
<g id="edge4" class="edge">
<title>Node3&#45;&gt;Node5</title>
<path fill="none" stroke="midnightblue" d="M98.08,-128.17C110.92,-118.23 126.06,-106.51 137.61,-97.58"/>
<polygon fill="midnightblue" stroke="midnightblue" points="95.8,-125.51 90.03,-134.4 100.08,-131.04 95.8,-125.51"/>
</g>
<!-- Node6&#45;&gt;Node7 -->
<g id="edge8" class="edge">
<title>Node6&#45;&gt;Node7</title>
<path fill="none" stroke="midnightblue" d="M441.58,-198.58C406.49,-188.02 361.86,-174.59 328.69,-164.61"/>
<polygon fill="midnightblue" stroke="midnightblue" points="440.62,-201.95 451.2,-201.48 442.63,-195.24 440.62,-201.95"/>
</g>
<!-- Node7&#45;&gt;Node4 -->
<g id="edge9" class="edge">
<title>Node7&#45;&gt;Node4</title>
<path fill="none" stroke="midnightblue" d="M268.16,-126C256.77,-108.47 239.28,-84.28 219.8,-67 203.09,-52.18 181.39,-39.47 163.96,-30.51"/>
<polygon fill="midnightblue" stroke="midnightblue" points="265.23,-127.92 273.55,-134.49 271.15,-124.17 265.23,-127.92"/>
</g>
<!-- Node7&#45;&gt;Node5 -->
<g id="edge13" class="edge">
<title>Node7&#45;&gt;Node5</title>
<path fill="none" stroke="midnightblue" d="M245.39,-129.71C225.52,-119.46 201.32,-106.98 183.09,-97.58"/>
<polygon fill="midnightblue" stroke="midnightblue" points="243.97,-132.92 254.46,-134.4 247.18,-126.7 243.97,-132.92"/>
</g>
<!-- Node8 -->
<g id="node8" class="node">
<title>Node8</title>
<g id="a_node8"><a xlink:href="maingui_8h.html" target="_top" xlink:title=" ">
<polygon fill="white" stroke="black" points="268.3,-67.5 268.3,-97.5 379.3,-97.5 379.3,-67.5 268.3,-67.5"/>
<text text-anchor="start" x="276.3" y="-85.5" font-family="Helvetica,sans-Serif" font-size="10.00">/root/fyp/project/src</text>
<text text-anchor="middle" x="323.8" y="-74.5" font-family="Helvetica,sans-Serif" font-size="10.00">/maingui.h</text>
</a>
</g>
</g>
<!-- Node7&#45;&gt;Node8 -->
<g id="edge10" class="edge">
<title>Node7&#45;&gt;Node8</title>
<path fill="none" stroke="midnightblue" d="M296.43,-125.87C302.51,-116.46 309.37,-105.83 314.71,-97.58"/>
<polygon fill="midnightblue" stroke="midnightblue" points="293.4,-124.1 290.92,-134.4 299.28,-127.9 293.4,-124.1"/>
</g>
<!-- Node8&#45;&gt;Node4 -->
<g id="edge11" class="edge">
<title>Node8&#45;&gt;Node4</title>
<path fill="none" stroke="midnightblue" d="M272.92,-64.09C242.25,-53.6 203.69,-40.41 174.95,-30.58"/>
<polygon fill="midnightblue" stroke="midnightblue" points="271.98,-67.47 282.58,-67.4 274.25,-60.85 271.98,-67.47"/>
</g>
<!-- Node9 -->
<g id="node9" class="node">
<title>Node9</title>
<g id="a_node9"><a xlink:href="maingui_8cpp.html" target="_top" xlink:title=" ">
<polygon fill="white" stroke="black" points="268.3,-0.5 268.3,-30.5 379.3,-30.5 379.3,-0.5 268.3,-0.5"/>
<text text-anchor="start" x="276.3" y="-18.5" font-family="Helvetica,sans-Serif" font-size="10.00">/root/fyp/project/src</text>
<text text-anchor="middle" x="323.8" y="-7.5" font-family="Helvetica,sans-Serif" font-size="10.00">/maingui.cpp</text>
</a>
</g>
</g>
<!-- Node8&#45;&gt;Node9 -->
<g id="edge12" class="edge">
<title>Node8&#45;&gt;Node9</title>
<path fill="none" stroke="midnightblue" d="M323.8,-57.11C323.8,-48.15 323.8,-38.32 323.8,-30.58"/>
<polygon fill="midnightblue" stroke="midnightblue" points="320.3,-57.4 323.8,-67.4 327.3,-57.4 320.3,-57.4"/>
</g>
<!-- Node10&#45;&gt;Node7 -->
<g id="edge15" class="edge">
<title>Node10&#45;&gt;Node7</title>
<path fill="none" stroke="midnightblue" d="M254.43,-192.87C260.51,-183.46 267.37,-172.83 272.71,-164.58"/>
<polygon fill="midnightblue" stroke="midnightblue" points="251.4,-191.1 248.92,-201.4 257.28,-194.9 251.4,-191.1"/>
</g>
</g>
</svg>
