<?xml version="1.0" encoding="UTF-8" standalone="no"?>
<!DOCTYPE svg PUBLIC "-//W3C//DTD SVG 1.1//EN"
 "http://www.w3.org/Graphics/SVG/1.1/DTD/svg11.dtd">
<!-- Generated by graphviz version 2.43.0 (0)
 -->
<!-- Title: /root/fyp/project/src/node.h Pages: 1 -->
<svg width="698pt" height="307pt"
 viewBox="0.00 0.00 698.00 307.00" xmlns="http://www.w3.org/2000/svg" xmlns:xlink="http://www.w3.org/1999/xlink">
<g id="graph0" class="graph" transform="scale(1 1) rotate(0) translate(4 303)">
<title>/root/fyp/project/src/node.h</title>
<polygon fill="white" stroke="transparent" points="-4,4 -4,-303 694,-303 694,4 -4,4"/>
<!-- Node1 -->
<g id="node1" class="node">
<title>Node1</title>
<g id="a_node1"><a xlink:title=" ">
<polygon fill="#bfbfbf" stroke="black" points="300,-268.5 300,-298.5 411,-298.5 411,-268.5 300,-268.5"/>
<text text-anchor="start" x="308" y="-286.5" font-family="Helvetica,sans-Serif" font-size="10.00">/root/fyp/project/src</text>
<text text-anchor="middle" x="355.5" y="-275.5" font-family="Helvetica,sans-Serif" font-size="10.00">/node.h</text>
</a>
</g>
</g>
<!-- Node2 -->
<g id="node2" class="node">
<title>Node2</title>
<g id="a_node2"><a xlink:href="nonterminalnode_8h.html" target="_top" xlink:title=" ">
<polygon fill="white" stroke="black" points="410.5,-134.5 410.5,-164.5 522.5,-164.5 522.5,-134.5 410.5,-134.5"/>
<text text-anchor="start" x="418.5" y="-152.5" font-family="Helvetica,sans-Serif" font-size="10.00">/root/fyp/project/src</text>
<text text-anchor="middle" x="466.5" y="-141.5" font-family="Helvetica,sans-Serif" font-size="10.00">/nonterminalnode.h</text>
</a>
</g>
</g>
<!-- Node1&#45;&gt;Node2 -->
<g id="edge1" class="edge">
<title>Node1&#45;&gt;Node2</title>
<path fill="none" stroke="midnightblue" d="M380.9,-261.91C390.96,-253.19 402.29,-242.61 411.5,-232 430.42,-210.22 448.33,-181.68 458.32,-164.8"/>
<polygon fill="midnightblue" stroke="midnightblue" points="378.54,-259.33 373.18,-268.47 383.07,-264.67 378.54,-259.33"/>
</g>
<!-- Node3 -->
<g id="node3" class="node">
<title>Node3</title>
<g id="a_node3"><a xlink:href="main_8cpp.html" target="_top" xlink:title=" ">
<polygon fill="white" stroke="black" points="349,-0.5 349,-30.5 460,-30.5 460,-0.5 349,-0.5"/>
<text text-anchor="start" x="357" y="-18.5" font-family="Helvetica,sans-Serif" font-size="10.00">/root/fyp/project/src</text>
<text text-anchor="middle" x="404.5" y="-7.5" font-family="Helvetica,sans-Serif" font-size="10.00">/main.cpp</text>
</a>
</g>
</g>
<!-- Node1&#45;&gt;Node3 -->
<g id="edge12" class="edge">
<title>Node1&#45;&gt;Node3</title>
<path fill="none" stroke="midnightblue" d="M406.31,-264.63C448.57,-246.71 505.8,-214.58 531.5,-165 560.77,-108.53 479.04,-55.12 433.2,-30.58"/>
<polygon fill="midnightblue" stroke="midnightblue" points="404.92,-261.41 397,-268.45 407.58,-267.89 404.92,-261.41"/>
</g>
<!-- Node4 -->
<g id="node4" class="node">
<title>Node4</title>
<g id="a_node4"><a xlink:href="rule_8cpp.html" target="_top" xlink:title=" ">
<polygon fill="white" stroke="black" points="327,-67.5 327,-97.5 438,-97.5 438,-67.5 327,-67.5"/>
<text text-anchor="start" x="335" y="-85.5" font-family="Helvetica,sans-Serif" font-size="10.00">/root/fyp/project/src</text>
<text text-anchor="middle" x="382.5" y="-74.5" font-family="Helvetica,sans-Serif" font-size="10.00">/rule.cpp</text>
</a>
</g>
</g>
<!-- Node1&#45;&gt;Node4 -->
<g id="edge18" class="edge">
<title>Node1&#45;&gt;Node4</title>
<path fill="none" stroke="midnightblue" d="M368.4,-259.35C372.41,-250.99 376.35,-241.31 378.5,-232 389.65,-183.75 386.33,-124.35 383.97,-97.66"/>
<polygon fill="midnightblue" stroke="midnightblue" points="365.17,-257.96 363.75,-268.46 371.41,-261.14 365.17,-257.96"/>
</g>
<!-- Node5 -->
<g id="node5" class="node">
<title>Node5</title>
<g id="a_node5"><a xlink:href="nodelink_8h.html" target="_top" xlink:title=" ">
<polygon fill="white" stroke="black" points="258,-201.5 258,-231.5 369,-231.5 369,-201.5 258,-201.5"/>
<text text-anchor="start" x="266" y="-219.5" font-family="Helvetica,sans-Serif" font-size="10.00">/root/fyp/project/src</text>
<text text-anchor="middle" x="313.5" y="-208.5" font-family="Helvetica,sans-Serif" font-size="10.00">/nodelink.h</text>
</a>
</g>
</g>
<!-- Node1&#45;&gt;Node5 -->
<g id="edge4" class="edge">
<title>Node1&#45;&gt;Node5</title>
<path fill="none" stroke="midnightblue" d="M334.62,-260.16C327.91,-250.68 321.21,-239.92 316.92,-231.58"/>
<polygon fill="midnightblue" stroke="midnightblue" points="331.95,-262.44 340.71,-268.4 337.58,-258.27 331.95,-262.44"/>
</g>
<!-- Node9 -->
<g id="node9" class="node">
<title>Node9</title>
<g id="a_node9"><a xlink:href="specialnode_8h.html" target="_top" xlink:title=" ">
<polygon fill="white" stroke="black" points="0,-201.5 0,-231.5 111,-231.5 111,-201.5 0,-201.5"/>
<text text-anchor="start" x="8" y="-219.5" font-family="Helvetica,sans-Serif" font-size="10.00">/root/fyp/project/src</text>
<text text-anchor="middle" x="55.5" y="-208.5" font-family="Helvetica,sans-Serif" font-size="10.00">/specialnode.h</text>
</a>
</g>
</g>
<!-- Node1&#45;&gt;Node9 -->
<g id="edge13" class="edge">
<title>Node1&#45;&gt;Node9</title>
<path fill="none" stroke="midnightblue" d="M289.84,-268.67C242.47,-258.64 176.99,-244.66 119.5,-232 116.83,-231.41 114.1,-230.81 111.34,-230.19"/>
<polygon fill="midnightblue" stroke="midnightblue" points="289.16,-272.1 299.67,-270.75 290.61,-265.26 289.16,-272.1"/>
</g>
<!-- Node10 -->
<g id="node10" class="node">
<title>Node10</title>
<g id="a_node10"><a xlink:href="terminalnode_8h.html" target="_top" xlink:title=" ">
<polygon fill="white" stroke="black" points="129,-201.5 129,-231.5 240,-231.5 240,-201.5 129,-201.5"/>
<text text-anchor="start" x="137" y="-219.5" font-family="Helvetica,sans-Serif" font-size="10.00">/root/fyp/project/src</text>
<text text-anchor="middle" x="184.5" y="-208.5" font-family="Helvetica,sans-Serif" font-size="10.00">/terminalnode.h</text>
</a>
</g>
</g>
<!-- Node1&#45;&gt;Node10 -->
<g id="edge15" class="edge">
<title>Node1&#45;&gt;Node10</title>
<path fill="none" stroke="midnightblue" d="M308.98,-264.82C281.5,-254.37 247.17,-241.32 221.53,-231.58"/>
<polygon fill="midnightblue" stroke="midnightblue" points="307.8,-268.11 318.4,-268.4 310.29,-261.57 307.8,-268.11"/>
</g>
<!-- Node11 -->
<g id="node11" class="node">
<title>Node11</title>
<g id="a_node11"><a xlink:href="node_8cpp.html" target="_top" xlink:title=" ">
<polygon fill="white" stroke="black" points="579,-201.5 579,-231.5 690,-231.5 690,-201.5 579,-201.5"/>
<text text-anchor="start" x="587" y="-219.5" font-family="Helvetica,sans-Serif" font-size="10.00">/root/fyp/project/src</text>
<text text-anchor="middle" x="634.5" y="-208.5" font-family="Helvetica,sans-Serif" font-size="10.00">/node.cpp</text>
</a>
</g>
</g>
<!-- Node1&#45;&gt;Node11 -->
<g id="edge17" class="edge">
<title>Node1&#45;&gt;Node11</title>
<path fill="none" stroke="midnightblue" d="M421.26,-267.18C469.18,-256.02 533.4,-241.05 578.81,-230.47"/>
<polygon fill="midnightblue" stroke="midnightblue" points="420.23,-263.82 411.29,-269.5 421.82,-270.64 420.23,-263.82"/>
</g>
<!-- Node2&#45;&gt;Node3 -->
<g id="edge2" class="edge">
<title>Node2&#45;&gt;Node3</title>
<path fill="none" stroke="midnightblue" d="M463.9,-124.16C461.39,-107.39 456.57,-84.98 447.5,-67 440.55,-53.22 429.09,-40.03 419.75,-30.59"/>
<polygon fill="midnightblue" stroke="midnightblue" points="460.46,-124.8 465.24,-134.26 467.4,-123.88 460.46,-124.8"/>
</g>
<!-- Node2&#45;&gt;Node4 -->
<g id="edge3" class="edge">
<title>Node2&#45;&gt;Node4</title>
<path fill="none" stroke="midnightblue" d="M440.22,-128.17C427.38,-118.23 412.24,-106.51 400.69,-97.58"/>
<polygon fill="midnightblue" stroke="midnightblue" points="438.22,-131.04 448.27,-134.4 442.51,-125.51 438.22,-131.04"/>
</g>
<!-- Node5&#45;&gt;Node1 -->
<g id="edge5" class="edge">
<title>Node5&#45;&gt;Node1</title>
<path fill="none" stroke="midnightblue" d="M334.36,-239.81C341.07,-249.29 347.77,-260.05 352.07,-268.4"/>
<polygon fill="midnightblue" stroke="midnightblue" points="337.03,-237.53 328.27,-231.58 331.4,-241.7 337.03,-237.53"/>
</g>
<!-- Node6 -->
<g id="node6" class="node">
<title>Node6</title>
<g id="a_node6"><a xlink:href="rule_8h.html" target="_top" xlink:title=" ">
<polygon fill="white" stroke="black" points="170,-134.5 170,-164.5 281,-164.5 281,-134.5 170,-134.5"/>
<text text-anchor="start" x="178" y="-152.5" font-family="Helvetica,sans-Serif" font-size="10.00">/root/fyp/project/src</text>
<text text-anchor="middle" x="225.5" y="-141.5" font-family="Helvetica,sans-Serif" font-size="10.00">/rule.h</text>
</a>
</g>
</g>
<!-- Node5&#45;&gt;Node6 -->
<g id="edge6" class="edge">
<title>Node5&#45;&gt;Node6</title>
<path fill="none" stroke="midnightblue" d="M286.36,-195.45C272.82,-185.45 256.77,-173.6 244.56,-164.58"/>
<polygon fill="midnightblue" stroke="midnightblue" points="284.28,-198.27 294.41,-201.4 288.44,-192.64 284.28,-198.27"/>
</g>
<!-- Node6&#45;&gt;Node3 -->
<g id="edge7" class="edge">
<title>Node6&#45;&gt;Node3</title>
<path fill="none" stroke="midnightblue" d="M247.16,-127.41C265.41,-110.18 292.61,-85.69 318.5,-67 337.45,-53.32 360.33,-40.02 377.73,-30.51"/>
<polygon fill="midnightblue" stroke="midnightblue" points="244.74,-124.89 239.92,-134.32 249.57,-129.95 244.74,-124.89"/>
</g>
<!-- Node6&#45;&gt;Node4 -->
<g id="edge11" class="edge">
<title>Node6&#45;&gt;Node4</title>
<path fill="none" stroke="midnightblue" d="M268.87,-130.54C293.99,-120.14 325.16,-107.24 348.5,-97.58"/>
<polygon fill="midnightblue" stroke="midnightblue" points="267.47,-127.34 259.57,-134.4 270.14,-133.8 267.47,-127.34"/>
</g>
<!-- Node7 -->
<g id="node7" class="node">
<title>Node7</title>
<g id="a_node7"><a xlink:href="maingui_8h.html" target="_top" xlink:title=" ">
<polygon fill="white" stroke="black" points="159,-67.5 159,-97.5 270,-97.5 270,-67.5 159,-67.5"/>
<text text-anchor="start" x="167" y="-85.5" font-family="Helvetica,sans-Serif" font-size="10.00">/root/fyp/project/src</text>
<text text-anchor="middle" x="214.5" y="-74.5" font-family="Helvetica,sans-Serif" font-size="10.00">/maingui.h</text>
</a>
</g>
</g>
<!-- Node6&#45;&gt;Node7 -->
<g id="edge8" class="edge">
<title>Node6&#45;&gt;Node7</title>
<path fill="none" stroke="midnightblue" d="M221.42,-124.4C219.89,-115.37 218.21,-105.41 216.88,-97.58"/>
<polygon fill="midnightblue" stroke="midnightblue" points="217.99,-125.12 223.11,-134.4 224.9,-123.95 217.99,-125.12"/>
</g>
<!-- Node7&#45;&gt;Node3 -->
<g id="edge9" class="edge">
<title>Node7&#45;&gt;Node3</title>
<path fill="none" stroke="midnightblue" d="M265.39,-64.09C296.06,-53.6 334.61,-40.41 363.35,-30.58"/>
<polygon fill="midnightblue" stroke="midnightblue" points="264.06,-60.85 255.73,-67.4 266.32,-67.47 264.06,-60.85"/>
</g>
<!-- Node8 -->
<g id="node8" class="node">
<title>Node8</title>
<g id="a_node8"><a xlink:href="maingui_8cpp.html" target="_top" xlink:title=" ">
<polygon fill="white" stroke="black" points="159,-0.5 159,-30.5 270,-30.5 270,-0.5 159,-0.5"/>
<text text-anchor="start" x="167" y="-18.5" font-family="Helvetica,sans-Serif" font-size="10.00">/root/fyp/project/src</text>
<text text-anchor="middle" x="214.5" y="-7.5" font-family="Helvetica,sans-Serif" font-size="10.00">/maingui.cpp</text>
</a>
</g>
</g>
<!-- Node7&#45;&gt;Node8 -->
<g id="edge10" class="edge">
<title>Node7&#45;&gt;Node8</title>
<path fill="none" stroke="midnightblue" d="M214.5,-57.11C214.5,-48.15 214.5,-38.32 214.5,-30.58"/>
<polygon fill="midnightblue" stroke="midnightblue" points="211,-57.4 214.5,-67.4 218,-57.4 211,-57.4"/>
</g>
<!-- Node9&#45;&gt;Node6 -->
<g id="edge14" class="edge">
<title>Node9&#45;&gt;Node6</title>
<path fill="none" stroke="midnightblue" d="M101.74,-197.82C129.07,-187.37 163.19,-174.32 188.68,-164.58"/>
<polygon fill="midnightblue" stroke="midnightblue" points="100.48,-194.56 92.39,-201.4 102.98,-201.09 100.48,-194.56"/>
</g>
<!-- Node10&#45;&gt;Node6 -->
<g id="edge16" class="edge">
<title>Node10&#45;&gt;Node6</title>
<path fill="none" stroke="midnightblue" d="M198.78,-192.87C204.71,-183.46 211.41,-172.83 216.62,-164.58"/>
<polygon fill="midnightblue" stroke="midnightblue" points="195.77,-191.07 193.4,-201.4 201.69,-194.81 195.77,-191.07"/>
</g>
</g>
</svg>
