<?xml version="1.0" encoding="UTF-8" standalone="no"?>
<!DOCTYPE svg PUBLIC "-//W3C//DTD SVG 1.1//EN"
 "http://www.w3.org/Graphics/SVG/1.1/DTD/svg11.dtd">
<!-- Generated by graphviz version 2.43.0 (0)
 -->
<!-- Title: /root/fyp/project/src/nonterminal.h Pages: 1 -->
<svg width="409pt" height="240pt"
 viewBox="0.00 0.00 409.31 240.00" xmlns="http://www.w3.org/2000/svg" xmlns:xlink="http://www.w3.org/1999/xlink">
<g id="graph0" class="graph" transform="scale(1 1) rotate(0) translate(4 236)">
<title>/root/fyp/project/src/nonterminal.h</title>
<polygon fill="white" stroke="transparent" points="-4,4 -4,-236 405.31,-236 405.31,4 -4,4"/>
<!-- Node1 -->
<g id="node1" class="node">
<title>Node1</title>
<g id="a_node1"><a xlink:title=" ">
<polygon fill="#bfbfbf" stroke="black" points="103.31,-201.5 103.31,-231.5 214.31,-231.5 214.31,-201.5 103.31,-201.5"/>
<text text-anchor="start" x="111.31" y="-219.5" font-family="Helvetica,sans-Serif" font-size="10.00">/root/fyp/project/src</text>
<text text-anchor="middle" x="158.81" y="-208.5" font-family="Helvetica,sans-Serif" font-size="10.00">/nonterminal.h</text>
</a>
</g>
</g>
<!-- Node2 -->
<g id="node2" class="node">
<title>Node2</title>
<g id="a_node2"><a xlink:href="nonterminalnode_8h.html" target="_top" xlink:title=" ">
<polygon fill="white" stroke="black" points="18.81,-134.5 18.81,-164.5 130.81,-164.5 130.81,-134.5 18.81,-134.5"/>
<text text-anchor="start" x="26.81" y="-152.5" font-family="Helvetica,sans-Serif" font-size="10.00">/root/fyp/project/src</text>
<text text-anchor="middle" x="74.81" y="-141.5" font-family="Helvetica,sans-Serif" font-size="10.00">/nonterminalnode.h</text>
</a>
</g>
</g>
<!-- Node1&#45;&gt;Node2 -->
<g id="edge1" class="edge">
<title>Node1&#45;&gt;Node2</title>
<path fill="none" stroke="midnightblue" d="M132.53,-195.17C119.69,-185.23 104.55,-173.51 93,-164.58"/>
<polygon fill="midnightblue" stroke="midnightblue" points="130.53,-198.04 140.58,-201.4 134.81,-192.51 130.53,-198.04"/>
</g>
<!-- Node3 -->
<g id="node3" class="node">
<title>Node3</title>
<g id="a_node3"><a xlink:href="main_8cpp.html" target="_top" xlink:title=" ">
<polygon fill="white" stroke="black" points="100.31,-0.5 100.31,-30.5 211.31,-30.5 211.31,-0.5 100.31,-0.5"/>
<text text-anchor="start" x="108.31" y="-18.5" font-family="Helvetica,sans-Serif" font-size="10.00">/root/fyp/project/src</text>
<text text-anchor="middle" x="155.81" y="-7.5" font-family="Helvetica,sans-Serif" font-size="10.00">/main.cpp</text>
</a>
</g>
</g>
<!-- Node1&#45;&gt;Node3 -->
<g id="edge4" class="edge">
<title>Node1&#45;&gt;Node3</title>
<path fill="none" stroke="midnightblue" d="M92.77,-210.29C62.3,-204.19 28.75,-191.42 9.81,-165 -29.8,-109.76 67.51,-55.57 121.99,-30.67"/>
<polygon fill="midnightblue" stroke="midnightblue" points="92.5,-213.8 102.96,-212.12 93.73,-206.91 92.5,-213.8"/>
</g>
<!-- Node4 -->
<g id="node4" class="node">
<title>Node4</title>
<g id="a_node4"><a xlink:href="rule_8cpp.html" target="_top" xlink:title=" ">
<polygon fill="white" stroke="black" points="80.31,-67.5 80.31,-97.5 191.31,-97.5 191.31,-67.5 80.31,-67.5"/>
<text text-anchor="start" x="88.31" y="-85.5" font-family="Helvetica,sans-Serif" font-size="10.00">/root/fyp/project/src</text>
<text text-anchor="middle" x="135.81" y="-74.5" font-family="Helvetica,sans-Serif" font-size="10.00">/rule.cpp</text>
</a>
</g>
</g>
<!-- Node1&#45;&gt;Node4 -->
<g id="edge12" class="edge">
<title>Node1&#45;&gt;Node4</title>
<path fill="none" stroke="midnightblue" d="M154.61,-191.39C149.82,-163.9 142.15,-119.89 138.25,-97.52"/>
<polygon fill="midnightblue" stroke="midnightblue" points="151.18,-192.12 156.35,-201.37 158.08,-190.92 151.18,-192.12"/>
</g>
<!-- Node5 -->
<g id="node5" class="node">
<title>Node5</title>
<g id="a_node5"><a xlink:href="rule_8h.html" target="_top" xlink:title=" ">
<polygon fill="white" stroke="black" points="187.31,-134.5 187.31,-164.5 298.31,-164.5 298.31,-134.5 187.31,-134.5"/>
<text text-anchor="start" x="195.31" y="-152.5" font-family="Helvetica,sans-Serif" font-size="10.00">/root/fyp/project/src</text>
<text text-anchor="middle" x="242.81" y="-141.5" font-family="Helvetica,sans-Serif" font-size="10.00">/rule.h</text>
</a>
</g>
</g>
<!-- Node1&#45;&gt;Node5 -->
<g id="edge5" class="edge">
<title>Node1&#45;&gt;Node5</title>
<path fill="none" stroke="midnightblue" d="M185.08,-195.17C197.93,-185.23 213.07,-173.51 224.62,-164.58"/>
<polygon fill="midnightblue" stroke="midnightblue" points="182.8,-192.51 177.04,-201.4 187.09,-198.04 182.8,-192.51"/>
</g>
<!-- Node7 -->
<g id="node7" class="node">
<title>Node7</title>
<g id="a_node7"><a xlink:href="maingui_8cpp.html" target="_top" xlink:title=" ">
<polygon fill="white" stroke="black" points="290.31,-0.5 290.31,-30.5 401.31,-30.5 401.31,-0.5 290.31,-0.5"/>
<text text-anchor="start" x="298.31" y="-18.5" font-family="Helvetica,sans-Serif" font-size="10.00">/root/fyp/project/src</text>
<text text-anchor="middle" x="345.81" y="-7.5" font-family="Helvetica,sans-Serif" font-size="10.00">/maingui.cpp</text>
</a>
</g>
</g>
<!-- Node1&#45;&gt;Node7 -->
<g id="edge11" class="edge">
<title>Node1&#45;&gt;Node7</title>
<path fill="none" stroke="midnightblue" d="M224.4,-201.01C251.63,-193.09 282.67,-181.45 307.81,-165 341.5,-142.95 354.27,-135.56 368.81,-98 377.72,-74.97 365.03,-47.06 355.25,-30.6"/>
<polygon fill="midnightblue" stroke="midnightblue" points="223.24,-197.7 214.55,-203.76 225.13,-204.44 223.24,-197.7"/>
</g>
<!-- Node2&#45;&gt;Node3 -->
<g id="edge2" class="edge">
<title>Node2&#45;&gt;Node3</title>
<path fill="none" stroke="midnightblue" d="M67.18,-124.67C63.17,-107.52 60.89,-84.44 70.81,-67 80.32,-50.29 97.77,-38.54 114.41,-30.6"/>
<polygon fill="midnightblue" stroke="midnightblue" points="63.84,-125.72 69.82,-134.48 70.6,-123.91 63.84,-125.72"/>
</g>
<!-- Node2&#45;&gt;Node4 -->
<g id="edge3" class="edge">
<title>Node2&#45;&gt;Node4</title>
<path fill="none" stroke="midnightblue" d="M94.96,-127.02C104.05,-117.34 114.53,-106.17 122.6,-97.58"/>
<polygon fill="midnightblue" stroke="midnightblue" points="92.34,-124.71 88.04,-134.4 97.44,-129.5 92.34,-124.71"/>
</g>
<!-- Node5&#45;&gt;Node3 -->
<g id="edge6" class="edge">
<title>Node5&#45;&gt;Node3</title>
<path fill="none" stroke="midnightblue" d="M232.34,-125.3C224.36,-108.53 212.59,-85.64 199.81,-67 190.86,-53.96 179.01,-40.52 169.85,-30.79"/>
<polygon fill="midnightblue" stroke="midnightblue" points="229.18,-126.8 236.58,-134.39 235.53,-123.84 229.18,-126.8"/>
</g>
<!-- Node5&#45;&gt;Node4 -->
<g id="edge10" class="edge">
<title>Node5&#45;&gt;Node4</title>
<path fill="none" stroke="midnightblue" d="M210.73,-129.02C194.08,-118.9 174.11,-106.77 158.98,-97.58"/>
<polygon fill="midnightblue" stroke="midnightblue" points="209.23,-132.2 219.59,-134.4 212.86,-126.21 209.23,-132.2"/>
</g>
<!-- Node6 -->
<g id="node6" class="node">
<title>Node6</title>
<g id="a_node6"><a xlink:href="maingui_8h.html" target="_top" xlink:title=" ">
<polygon fill="white" stroke="black" points="248.31,-67.5 248.31,-97.5 359.31,-97.5 359.31,-67.5 248.31,-67.5"/>
<text text-anchor="start" x="256.31" y="-85.5" font-family="Helvetica,sans-Serif" font-size="10.00">/root/fyp/project/src</text>
<text text-anchor="middle" x="303.81" y="-74.5" font-family="Helvetica,sans-Serif" font-size="10.00">/maingui.h</text>
</a>
</g>
</g>
<!-- Node5&#45;&gt;Node6 -->
<g id="edge7" class="edge">
<title>Node5&#45;&gt;Node6</title>
<path fill="none" stroke="midnightblue" d="M262.96,-127.02C272.05,-117.34 282.53,-106.17 290.6,-97.58"/>
<polygon fill="midnightblue" stroke="midnightblue" points="260.34,-124.71 256.04,-134.4 265.44,-129.5 260.34,-124.71"/>
</g>
<!-- Node6&#45;&gt;Node3 -->
<g id="edge8" class="edge">
<title>Node6&#45;&gt;Node3</title>
<path fill="none" stroke="midnightblue" d="M262.3,-63.27C238.72,-52.92 209.66,-40.15 187.86,-30.58"/>
<polygon fill="midnightblue" stroke="midnightblue" points="261.13,-66.58 271.69,-67.4 263.95,-60.17 261.13,-66.58"/>
</g>
<!-- Node6&#45;&gt;Node7 -->
<g id="edge9" class="edge">
<title>Node6&#45;&gt;Node7</title>
<path fill="none" stroke="midnightblue" d="M318.43,-58.87C324.51,-49.46 331.38,-38.83 336.71,-30.58"/>
<polygon fill="midnightblue" stroke="midnightblue" points="315.41,-57.1 312.92,-67.4 321.29,-60.9 315.41,-57.1"/>
</g>
</g>
</svg>
