<?xml version="1.0" encoding="UTF-8" standalone="no"?>
<!DOCTYPE svg PUBLIC "-//W3C//DTD SVG 1.1//EN"
 "http://www.w3.org/Graphics/SVG/1.1/DTD/svg11.dtd">
<!-- Generated by graphviz version 2.43.0 (0)
 -->
<!-- Title: /root/fyp/project/src/nonterminalnode.h Pages: 1 -->
<svg width="407pt" height="218pt"
 viewBox="0.00 0.00 406.50 218.00" xmlns="http://www.w3.org/2000/svg" xmlns:xlink="http://www.w3.org/1999/xlink">
<g id="graph0" class="graph" transform="scale(1 1) rotate(0) translate(4 214)">
<title>/root/fyp/project/src/nonterminalnode.h</title>
<polygon fill="white" stroke="transparent" points="-4,4 -4,-214 402.5,-214 402.5,4 -4,4"/>
<!-- Node1 -->
<g id="node1" class="node">
<title>Node1</title>
<g id="a_node1"><a xlink:title=" ">
<polygon fill="#bfbfbf" stroke="black" points="73,-179.5 73,-209.5 185,-209.5 185,-179.5 73,-179.5"/>
<text text-anchor="start" x="81" y="-197.5" font-family="Helvetica,sans-Serif" font-size="10.00">/root/fyp/project/src</text>
<text text-anchor="middle" x="129" y="-186.5" font-family="Helvetica,sans-Serif" font-size="10.00">/nonterminalnode.h</text>
</a>
</g>
</g>
<!-- Node2 -->
<g id="node2" class="node">
<title>Node2</title>
<g id="a_node2"><a xlink:href="node_8h.html" target="_top" xlink:title=" ">
<polygon fill="white" stroke="black" points="181,-123.5 181,-142.5 231,-142.5 231,-123.5 181,-123.5"/>
<text text-anchor="middle" x="206" y="-130.5" font-family="Helvetica,sans-Serif" font-size="10.00">node.h</text>
</a>
</g>
</g>
<!-- Node1&#45;&gt;Node2 -->
<g id="edge1" class="edge">
<title>Node1&#45;&gt;Node2</title>
<path fill="none" stroke="midnightblue" d="M147.25,-179.4C159.13,-170.22 174.61,-158.26 186.69,-148.92"/>
<polygon fill="midnightblue" stroke="midnightblue" points="189.02,-151.54 194.8,-142.66 184.74,-146 189.02,-151.54"/>
</g>
<!-- Node10 -->
<g id="node10" class="node">
<title>Node10</title>
<g id="a_node10"><a xlink:href="nonterminal_8h.html" target="_top" xlink:title=" ">
<polygon fill="white" stroke="black" points="43.5,-123.5 43.5,-142.5 128.5,-142.5 128.5,-123.5 43.5,-123.5"/>
<text text-anchor="middle" x="86" y="-130.5" font-family="Helvetica,sans-Serif" font-size="10.00">nonterminal.h</text>
</a>
</g>
</g>
<!-- Node1&#45;&gt;Node10 -->
<g id="edge11" class="edge">
<title>Node1&#45;&gt;Node10</title>
<path fill="none" stroke="midnightblue" d="M118.81,-179.4C112.63,-170.84 104.7,-159.87 98.18,-150.86"/>
<polygon fill="midnightblue" stroke="midnightblue" points="100.95,-148.71 92.26,-142.66 95.28,-152.81 100.95,-148.71"/>
</g>
<!-- Node3 -->
<g id="node3" class="node">
<title>Node3</title>
<g id="a_node3"><a xlink:title=" ">
<polygon fill="white" stroke="#bfbfbf" points="0,-67.5 0,-86.5 44,-86.5 44,-67.5 0,-67.5"/>
<text text-anchor="middle" x="22" y="-74.5" font-family="Helvetica,sans-Serif" font-size="10.00">string</text>
</a>
</g>
</g>
<!-- Node2&#45;&gt;Node3 -->
<g id="edge2" class="edge">
<title>Node2&#45;&gt;Node3</title>
<path fill="none" stroke="midnightblue" d="M180.8,-124.6C147.84,-114.93 90.04,-97.97 54.01,-87.39"/>
<polygon fill="midnightblue" stroke="midnightblue" points="54.6,-83.92 44.02,-84.46 52.63,-90.64 54.6,-83.92"/>
</g>
<!-- Node4 -->
<g id="node4" class="node">
<title>Node4</title>
<g id="a_node4"><a xlink:title=" ">
<polygon fill="white" stroke="#bfbfbf" points="62.5,-67.5 62.5,-86.5 109.5,-86.5 109.5,-67.5 62.5,-67.5"/>
<text text-anchor="middle" x="86" y="-74.5" font-family="Helvetica,sans-Serif" font-size="10.00">vector</text>
</a>
</g>
</g>
<!-- Node2&#45;&gt;Node4 -->
<g id="edge3" class="edge">
<title>Node2&#45;&gt;Node4</title>
<path fill="none" stroke="midnightblue" d="M186.99,-123.44C167.41,-114.64 136.69,-100.81 114.27,-90.72"/>
<polygon fill="midnightblue" stroke="midnightblue" points="115.48,-87.43 104.93,-86.52 112.61,-93.81 115.48,-87.43"/>
</g>
<!-- Node5 -->
<g id="node5" class="node">
<title>Node5</title>
<g id="a_node5"><a xlink:href="nodelink_8h.html" target="_top" xlink:title=" ">
<polygon fill="white" stroke="black" points="327,-67.5 327,-86.5 395,-86.5 395,-67.5 327,-67.5"/>
<text text-anchor="middle" x="361" y="-74.5" font-family="Helvetica,sans-Serif" font-size="10.00">nodelink.h</text>
</a>
</g>
</g>
<!-- Node2&#45;&gt;Node5 -->
<g id="edge4" class="edge">
<title>Node2&#45;&gt;Node5</title>
<path fill="none" stroke="midnightblue" d="M225.47,-123.44C249.66,-114.32 291.1,-99.81 321.89,-89.65"/>
<polygon fill="midnightblue" stroke="midnightblue" points="323.06,-92.95 331.47,-86.52 320.88,-86.3 323.06,-92.95"/>
</g>
<!-- Node6 -->
<g id="node6" class="node">
<title>Node6</title>
<g id="a_node6"><a xlink:title=" ">
<polygon fill="white" stroke="#bfbfbf" points="261.5,-0.5 261.5,-30.5 398.5,-30.5 398.5,-0.5 261.5,-0.5"/>
<text text-anchor="start" x="269.5" y="-18.5" font-family="Helvetica,sans-Serif" font-size="10.00">imgui/nodes/imgui_node</text>
<text text-anchor="middle" x="330" y="-7.5" font-family="Helvetica,sans-Serif" font-size="10.00">_editor.h</text>
</a>
</g>
</g>
<!-- Node2&#45;&gt;Node6 -->
<g id="edge9" class="edge">
<title>Node2&#45;&gt;Node6</title>
<path fill="none" stroke="midnightblue" d="M224.44,-123.47C240.33,-115.52 263.28,-102.58 280,-87 294.77,-73.24 307.82,-54.47 316.89,-39.76"/>
<polygon fill="midnightblue" stroke="midnightblue" points="320.13,-41.15 322.24,-30.77 314.12,-37.57 320.13,-41.15"/>
</g>
<!-- Node7 -->
<g id="node7" class="node">
<title>Node7</title>
<g id="a_node7"><a xlink:href="drawing_8h.html" target="_top" xlink:title=" ">
<polygon fill="white" stroke="black" points="127.5,-67.5 127.5,-86.5 192.5,-86.5 192.5,-67.5 127.5,-67.5"/>
<text text-anchor="middle" x="160" y="-74.5" font-family="Helvetica,sans-Serif" font-size="10.00">drawing.h</text>
</a>
</g>
</g>
<!-- Node2&#45;&gt;Node7 -->
<g id="edge7" class="edge">
<title>Node2&#45;&gt;Node7</title>
<path fill="none" stroke="midnightblue" d="M198.4,-123.08C191.77,-115.3 181.98,-103.8 173.94,-94.37"/>
<polygon fill="midnightblue" stroke="midnightblue" points="176.6,-92.09 167.45,-86.75 171.27,-96.63 176.6,-92.09"/>
</g>
<!-- Node9 -->
<g id="node9" class="node">
<title>Node9</title>
<g id="a_node9"><a xlink:title=" ">
<polygon fill="white" stroke="#bfbfbf" points="211,-67.5 211,-86.5 271,-86.5 271,-67.5 211,-67.5"/>
<text text-anchor="middle" x="241" y="-74.5" font-family="Helvetica,sans-Serif" font-size="10.00">iostream</text>
</a>
</g>
</g>
<!-- Node2&#45;&gt;Node9 -->
<g id="edge10" class="edge">
<title>Node2&#45;&gt;Node9</title>
<path fill="none" stroke="midnightblue" d="M211.78,-123.08C216.67,-115.53 223.83,-104.49 229.83,-95.23"/>
<polygon fill="midnightblue" stroke="midnightblue" points="232.83,-97.05 235.33,-86.75 226.95,-93.24 232.83,-97.05"/>
</g>
<!-- Node5&#45;&gt;Node2 -->
<g id="edge5" class="edge">
<title>Node5&#45;&gt;Node2</title>
<path fill="none" stroke="midnightblue" d="M341.34,-86.63C316,-96.18 271.96,-111.56 240.92,-121.73"/>
<polygon fill="midnightblue" stroke="midnightblue" points="239.78,-118.42 231.34,-124.83 241.93,-125.08 239.78,-118.42"/>
</g>
<!-- Node5&#45;&gt;Node6 -->
<g id="edge6" class="edge">
<title>Node5&#45;&gt;Node6</title>
<path fill="none" stroke="midnightblue" d="M356.56,-67.48C352.75,-60.17 347.09,-49.3 341.97,-39.47"/>
<polygon fill="midnightblue" stroke="midnightblue" points="345.03,-37.77 337.31,-30.52 338.82,-41.01 345.03,-37.77"/>
</g>
<!-- Node8 -->
<g id="node8" class="node">
<title>Node8</title>
<g id="a_node8"><a xlink:title=" ">
<polygon fill="white" stroke="#bfbfbf" points="133.5,-6 133.5,-25 186.5,-25 186.5,-6 133.5,-6"/>
<text text-anchor="middle" x="160" y="-13" font-family="Helvetica,sans-Serif" font-size="10.00">imgui.h</text>
</a>
</g>
</g>
<!-- Node7&#45;&gt;Node8 -->
<g id="edge8" class="edge">
<title>Node7&#45;&gt;Node8</title>
<path fill="none" stroke="midnightblue" d="M160,-67.48C160,-59.08 160,-45.98 160,-35.16"/>
<polygon fill="midnightblue" stroke="midnightblue" points="163.5,-35.01 160,-25.01 156.5,-35.01 163.5,-35.01"/>
</g>
<!-- Node10&#45;&gt;Node3 -->
<g id="edge12" class="edge">
<title>Node10&#45;&gt;Node3</title>
<path fill="none" stroke="midnightblue" d="M75.72,-123.32C66.16,-115.26 51.72,-103.08 40.22,-93.37"/>
<polygon fill="midnightblue" stroke="midnightblue" points="42.37,-90.61 32.47,-86.83 37.86,-95.96 42.37,-90.61"/>
</g>
<!-- Node10&#45;&gt;Node4 -->
<g id="edge13" class="edge">
<title>Node10&#45;&gt;Node4</title>
<path fill="none" stroke="midnightblue" d="M86,-123.08C86,-116.01 86,-105.86 86,-96.99"/>
<polygon fill="midnightblue" stroke="midnightblue" points="89.5,-96.75 86,-86.75 82.5,-96.75 89.5,-96.75"/>
</g>
</g>
</svg>
