<?xml version="1.0" encoding="UTF-8" standalone="no"?>
<!DOCTYPE svg PUBLIC "-//W3C//DTD SVG 1.1//EN"
 "http://www.w3.org/Graphics/SVG/1.1/DTD/svg11.dtd">
<!-- Generated by graphviz version 2.43.0 (0)
 -->
<!-- Title: /root/fyp/project/src/parsetreerenderer.h Pages: 1 -->
<svg width="330pt" height="218pt"
 viewBox="0.00 0.00 330.00 218.00" xmlns="http://www.w3.org/2000/svg" xmlns:xlink="http://www.w3.org/1999/xlink">
<g id="graph0" class="graph" transform="scale(1 1) rotate(0) translate(4 214)">
<title>/root/fyp/project/src/parsetreerenderer.h</title>
<polygon fill="white" stroke="transparent" points="-4,4 -4,-214 326,-214 326,4 -4,4"/>
<!-- Node1 -->
<g id="node1" class="node">
<title>Node1</title>
<g id="a_node1"><a xlink:title=" ">
<polygon fill="#bfbfbf" stroke="black" points="0,-179.5 0,-209.5 116,-209.5 116,-179.5 0,-179.5"/>
<text text-anchor="start" x="8" y="-197.5" font-family="Helvetica,sans-Serif" font-size="10.00">/root/fyp/project/src</text>
<text text-anchor="middle" x="58" y="-186.5" font-family="Helvetica,sans-Serif" font-size="10.00">/parsetreerenderer.h</text>
</a>
</g>
</g>
<!-- Node2 -->
<g id="node2" class="node">
<title>Node2</title>
<g id="a_node2"><a xlink:title=" ">
<polygon fill="white" stroke="#bfbfbf" points="14.5,-56.5 14.5,-75.5 61.5,-75.5 61.5,-56.5 14.5,-56.5"/>
<text text-anchor="middle" x="38" y="-63.5" font-family="Helvetica,sans-Serif" font-size="10.00">vector</text>
</a>
</g>
</g>
<!-- Node1&#45;&gt;Node2 -->
<g id="edge1" class="edge">
<title>Node1&#45;&gt;Node2</title>
<path fill="none" stroke="midnightblue" d="M55.76,-179.35C54.15,-169.23 51.94,-155.27 50,-143 46.94,-123.65 43.45,-101.54 41.02,-86.17"/>
<polygon fill="midnightblue" stroke="midnightblue" points="44.42,-85.22 39.4,-75.89 37.5,-86.32 44.42,-85.22"/>
</g>
<!-- Node3 -->
<g id="node3" class="node">
<title>Node3</title>
<g id="a_node3"><a xlink:title=" ">
<polygon fill="white" stroke="#bfbfbf" points="26,-0.5 26,-19.5 70,-19.5 70,-0.5 26,-0.5"/>
<text text-anchor="middle" x="48" y="-7.5" font-family="Helvetica,sans-Serif" font-size="10.00">string</text>
</a>
</g>
</g>
<!-- Node1&#45;&gt;Node3 -->
<g id="edge2" class="edge">
<title>Node1&#45;&gt;Node3</title>
<path fill="none" stroke="midnightblue" d="M49.21,-179.35C36.49,-157.94 13.52,-115.6 5,-76 3.13,-67.31 1.69,-64.25 5,-56 9.68,-44.33 18.99,-33.97 27.76,-26.14"/>
<polygon fill="midnightblue" stroke="midnightblue" points="30.05,-28.78 35.5,-19.7 25.58,-23.4 30.05,-28.78"/>
</g>
<!-- Node4 -->
<g id="node4" class="node">
<title>Node4</title>
<g id="a_node4"><a xlink:title=" ">
<polygon fill="white" stroke="#bfbfbf" points="59.5,-118 59.5,-137 112.5,-137 112.5,-118 59.5,-118"/>
<text text-anchor="middle" x="86" y="-125" font-family="Helvetica,sans-Serif" font-size="10.00">imgui.h</text>
</a>
</g>
</g>
<!-- Node1&#45;&gt;Node4 -->
<g id="edge3" class="edge">
<title>Node1&#45;&gt;Node4</title>
<path fill="none" stroke="midnightblue" d="M64.08,-179.4C68.23,-169.76 73.76,-156.91 78.23,-146.54"/>
<polygon fill="midnightblue" stroke="midnightblue" points="81.51,-147.76 82.25,-137.19 75.08,-144.99 81.51,-147.76"/>
</g>
<!-- Node5 -->
<g id="node5" class="node">
<title>Node5</title>
<g id="a_node5"><a xlink:href="parsetree_8h.html" target="_top" xlink:title=" ">
<polygon fill="white" stroke="black" points="130.5,-112.5 130.5,-142.5 243.5,-142.5 243.5,-112.5 130.5,-112.5"/>
<text text-anchor="start" x="138.5" y="-130.5" font-family="Helvetica,sans-Serif" font-size="10.00">parsergenerator/util</text>
<text text-anchor="middle" x="187" y="-119.5" font-family="Helvetica,sans-Serif" font-size="10.00">/parsetree.h</text>
</a>
</g>
</g>
<!-- Node1&#45;&gt;Node5 -->
<g id="edge4" class="edge">
<title>Node1&#45;&gt;Node5</title>
<path fill="none" stroke="midnightblue" d="M85.99,-179.4C104.75,-169.94 129.67,-157.39 150.05,-147.12"/>
<polygon fill="midnightblue" stroke="midnightblue" points="151.71,-150.2 159.06,-142.58 148.56,-143.95 151.71,-150.2"/>
</g>
<!-- Node5&#45;&gt;Node2 -->
<g id="edge5" class="edge">
<title>Node5&#45;&gt;Node2</title>
<path fill="none" stroke="midnightblue" d="M151.69,-112.4C126.58,-102.37 93.16,-89.03 69.06,-79.4"/>
<polygon fill="midnightblue" stroke="midnightblue" points="70.27,-76.12 59.68,-75.66 67.67,-82.62 70.27,-76.12"/>
</g>
<!-- Node6 -->
<g id="node6" class="node">
<title>Node6</title>
<g id="a_node6"><a xlink:title=" ">
<polygon fill="white" stroke="#bfbfbf" points="160.5,-56.5 160.5,-75.5 243.5,-75.5 243.5,-56.5 160.5,-56.5"/>
<text text-anchor="middle" x="202" y="-63.5" font-family="Helvetica,sans-Serif" font-size="10.00">initializer_list</text>
</a>
</g>
</g>
<!-- Node5&#45;&gt;Node6 -->
<g id="edge6" class="edge">
<title>Node5&#45;&gt;Node6</title>
<path fill="none" stroke="midnightblue" d="M190.55,-112.4C192.58,-104.38 195.13,-94.23 197.32,-85.57"/>
<polygon fill="midnightblue" stroke="midnightblue" points="200.77,-86.21 199.82,-75.66 193.98,-84.5 200.77,-86.21"/>
</g>
<!-- Node7 -->
<g id="node7" class="node">
<title>Node7</title>
<g id="a_node7"><a xlink:title=" ">
<polygon fill="white" stroke="#bfbfbf" points="262,-56.5 262,-75.5 322,-75.5 322,-56.5 262,-56.5"/>
<text text-anchor="middle" x="292" y="-63.5" font-family="Helvetica,sans-Serif" font-size="10.00">iostream</text>
</a>
</g>
</g>
<!-- Node5&#45;&gt;Node7 -->
<g id="edge7" class="edge">
<title>Node5&#45;&gt;Node7</title>
<path fill="none" stroke="midnightblue" d="M211.88,-112.4C228.71,-102.86 250.84,-90.32 267.57,-80.84"/>
<polygon fill="midnightblue" stroke="midnightblue" points="269.75,-83.63 276.72,-75.66 266.3,-77.54 269.75,-83.63"/>
</g>
<!-- Node8 -->
<g id="node8" class="node">
<title>Node8</title>
<g id="a_node8"><a xlink:href="symbol_8h.html" target="_top" xlink:title=" ">
<polygon fill="white" stroke="black" points="80,-56.5 80,-75.5 142,-75.5 142,-56.5 80,-56.5"/>
<text text-anchor="middle" x="111" y="-63.5" font-family="Helvetica,sans-Serif" font-size="10.00">symbol.h</text>
</a>
</g>
</g>
<!-- Node5&#45;&gt;Node8 -->
<g id="edge8" class="edge">
<title>Node5&#45;&gt;Node8</title>
<path fill="none" stroke="midnightblue" d="M168.99,-112.4C157.26,-103.22 141.98,-91.26 130.06,-81.92"/>
<polygon fill="midnightblue" stroke="midnightblue" points="132.09,-79.07 122.06,-75.66 127.78,-84.58 132.09,-79.07"/>
</g>
<!-- Node8&#45;&gt;Node3 -->
<g id="edge9" class="edge">
<title>Node8&#45;&gt;Node3</title>
<path fill="none" stroke="midnightblue" d="M100.88,-56.32C91.47,-48.26 77.26,-36.08 65.93,-26.37"/>
<polygon fill="midnightblue" stroke="midnightblue" points="68.18,-23.68 58.31,-19.83 63.62,-29 68.18,-23.68"/>
</g>
</g>
</svg>
