<?xml version="1.0" encoding="UTF-8" standalone="no"?>
<!DOCTYPE svg PUBLIC "-//W3C//DTD SVG 1.1//EN"
 "http://www.w3.org/Graphics/SVG/1.1/DTD/svg11.dtd">
<!-- Generated by graphviz version 2.43.0 (0)
 -->
<!-- Title: /root/fyp/project/src/parsergenerator/util/parsetree.h Pages: 1 -->
<!--zoomable 340 -->
<svg id="main" version="1.1" xmlns="http://www.w3.org/2000/svg" xmlns:xlink="http://www.w3.org/1999/xlink" xml:space="preserve" onload="init(evt)">
<style type="text/css"><![CDATA[
.edge:hover path { stroke: red; }
.edge:hover polygon { stroke: red; fill: red; }
]]></style>
<script type="text/javascript"><![CDATA[
var edges = document.getElementsByTagName('g');
if (edges && edges.length) {
  for (var i=0;i<edges.length;i++) {
    if (edges[i].id.substr(0,4)=='edge') {
      edges[i].setAttribute('class','edge');
    }
  }
}
]]></script>
        <defs>
                <circle id="rim" cx="0" cy="0" r="7"/>
                <circle id="rim2" cx="0" cy="0" r="3.5"/>
                <g id="zoomPlus">
                        <use xlink:href="#rim" fill="#404040">
                                <set attributeName="fill" to="#808080" begin="zoomplus.mouseover" end="zoomplus.mouseout"/>
                        </use>
                        <path d="M-4,0h8M0,-4v8" fill="none" stroke="white" stroke-width="1.5" pointer-events="none"/>
                </g>
                <g id="zoomMin">
                        <use xlink:href="#rim" fill="#404040">
                                <set attributeName="fill" to="#808080" begin="zoomminus.mouseover" end="zoomminus.mouseout"/>
                        </use>
                        <path d="M-4,0h8" fill="none" stroke="white" stroke-width="1.5" pointer-events="none"/>
                </g>
                <g id="dirArrow">
                        <path fill="none" stroke="white" stroke-width="1.5" d="M0,-3.0v7 M-2.5,-0.5L0,-3.0L2.5,-0.5"/>
                </g>
               <g id="resetDef">
                       <use xlink:href="#rim2" fill="#404040">
                               <set attributeName="fill" to="#808080" begin="reset.mouseover" end="reset.mouseout"/>
                       </use>
               </g>
        </defs>

<script type="text/javascript">
var viewWidth = 711;
var viewHeight = 340;
var sectionId = 'dynsection-1';
</script>
<script xlink:href="svgpan.js"/>
<svg id="graph" class="graph">
<g id="viewport">
<title>/root/fyp/project/src/parsergenerator/util/parsetree.h</title>
<polygon fill="white" stroke="transparent" points="-4,4 -4,-336 707.22,-336 707.22,4 -4,4"/>
<!-- Node1 -->
<g id="node1" class="node">
<title>Node1</title>
<g id="a_node1"><a xlink:title=" ">
<polygon fill="#bfbfbf" stroke="black" points="345.72,-290.5 345.72,-331.5 461.72,-331.5 461.72,-290.5 345.72,-290.5"/>
<text text-anchor="start" x="353.72" y="-319.5" font-family="Helvetica,sans-Serif" font-size="10.00">/root/fyp/project/src</text>
<text text-anchor="start" x="353.72" y="-308.5" font-family="Helvetica,sans-Serif" font-size="10.00">/parsergenerator/util</text>
<text text-anchor="middle" x="403.72" y="-297.5" font-family="Helvetica,sans-Serif" font-size="10.00">/parsetree.h</text>
</a>
</g>
</g>
<!-- Node2 -->
<g id="node2" class="node">
<title>Node2</title>
<g id="a_node2"><a xlink:href="iparsergenerator_8h.html" target="_top" xlink:title=" ">
<polygon fill="white" stroke="black" points="171.72,-218 171.72,-248 361.72,-248 361.72,-218 171.72,-218"/>
<text text-anchor="start" x="179.72" y="-236" font-family="Helvetica,sans-Serif" font-size="10.00">/root/fyp/project/src</text>
<text text-anchor="middle" x="266.72" y="-225" font-family="Helvetica,sans-Serif" font-size="10.00">/parsergenerator/iparsergenerator.h</text>
</a>
</g>
</g>
<!-- Node1&#45;&gt;Node2 -->
<g id="edge1" class="edge">
<title>Node1&#45;&gt;Node2</title>
<path fill="none" stroke="midnightblue" d="M359.52,-285.48C337.33,-273.17 311.22,-258.69 292.37,-248.23"/>
<polygon fill="midnightblue" stroke="midnightblue" points="358,-288.64 368.44,-290.43 361.39,-282.52 358,-288.64"/>
</g>
<!-- Node5 -->
<g id="node5" class="node">
<title>Node5</title>
<g id="a_node5"><a xlink:href="maingui_8cpp.html" target="_top" xlink:title=" ">
<polygon fill="white" stroke="black" points="164.22,-0.5 164.22,-30.5 275.22,-30.5 275.22,-0.5 164.22,-0.5"/>
<text text-anchor="start" x="172.22" y="-18.5" font-family="Helvetica,sans-Serif" font-size="10.00">/root/fyp/project/src</text>
<text text-anchor="middle" x="219.72" y="-7.5" font-family="Helvetica,sans-Serif" font-size="10.00">/maingui.cpp</text>
</a>
</g>
</g>
<!-- Node1&#45;&gt;Node5 -->
<g id="edge14" class="edge">
<title>Node1&#45;&gt;Node5</title>
<path fill="none" stroke="midnightblue" d="M335.5,-310.28C243.63,-306.38 84.34,-283.53 20.72,-176 -3.95,-134.31 -9.02,-105.24 20.72,-67 38.23,-44.49 111.59,-30.39 164.14,-22.98"/>
<polygon fill="midnightblue" stroke="midnightblue" points="335.42,-313.77 345.54,-310.64 335.67,-306.78 335.42,-313.77"/>
</g>
<!-- Node7 -->
<g id="node7" class="node">
<title>Node7</title>
<g id="a_node7"><a xlink:href="llpred_2parsergenerator_8h.html" target="_top" xlink:title=" ">
<polygon fill="white" stroke="black" points="353.72,-134.5 353.72,-175.5 481.72,-175.5 481.72,-134.5 353.72,-134.5"/>
<text text-anchor="start" x="361.72" y="-163.5" font-family="Helvetica,sans-Serif" font-size="10.00">/root/fyp/project/src</text>
<text text-anchor="start" x="361.72" y="-152.5" font-family="Helvetica,sans-Serif" font-size="10.00">/parsergenerator/llpred</text>
<text text-anchor="middle" x="417.72" y="-141.5" font-family="Helvetica,sans-Serif" font-size="10.00">/parsergenerator.h</text>
</a>
</g>
</g>
<!-- Node1&#45;&gt;Node7 -->
<g id="edge11" class="edge">
<title>Node1&#45;&gt;Node7</title>
<path fill="none" stroke="midnightblue" d="M406.42,-280.36C409.21,-249.61 413.51,-202.36 415.92,-175.83"/>
<polygon fill="midnightblue" stroke="midnightblue" points="402.92,-280.22 405.5,-290.5 409.89,-280.85 402.92,-280.22"/>
</g>
<!-- Node9 -->
<g id="node9" class="node">
<title>Node9</title>
<g id="a_node9"><a xlink:href="bnf_2parsergenerator_8h.html" target="_top" xlink:title=" ">
<polygon fill="white" stroke="black" points="431.72,-212.5 431.72,-253.5 547.72,-253.5 547.72,-212.5 431.72,-212.5"/>
<text text-anchor="start" x="439.72" y="-241.5" font-family="Helvetica,sans-Serif" font-size="10.00">/root/fyp/project/src</text>
<text text-anchor="start" x="439.72" y="-230.5" font-family="Helvetica,sans-Serif" font-size="10.00">/parsergenerator/bnf</text>
<text text-anchor="middle" x="489.72" y="-219.5" font-family="Helvetica,sans-Serif" font-size="10.00">/parsergenerator.h</text>
</a>
</g>
</g>
<!-- Node1&#45;&gt;Node9 -->
<g id="edge12" class="edge">
<title>Node1&#45;&gt;Node9</title>
<path fill="none" stroke="midnightblue" d="M433.39,-283.78C444.64,-273.84 457.23,-262.72 467.65,-253.51"/>
<polygon fill="midnightblue" stroke="midnightblue" points="431.05,-281.18 425.87,-290.43 435.68,-286.43 431.05,-281.18"/>
</g>
<!-- Node10 -->
<g id="node10" class="node">
<title>Node10</title>
<g id="a_node10"><a xlink:href="parsetreerenderer_8h.html" target="_top" xlink:title=" ">
<polygon fill="white" stroke="black" points="565.72,-218 565.72,-248 681.72,-248 681.72,-218 565.72,-218"/>
<text text-anchor="start" x="573.72" y="-236" font-family="Helvetica,sans-Serif" font-size="10.00">/root/fyp/project/src</text>
<text text-anchor="middle" x="623.72" y="-225" font-family="Helvetica,sans-Serif" font-size="10.00">/parsetreerenderer.h</text>
</a>
</g>
</g>
<!-- Node1&#45;&gt;Node10 -->
<g id="edge15" class="edge">
<title>Node1&#45;&gt;Node10</title>
<path fill="none" stroke="midnightblue" d="M470.02,-287.1C506.75,-274.41 551.24,-259.04 582.89,-248.11"/>
<polygon fill="midnightblue" stroke="midnightblue" points="468.69,-283.85 460.38,-290.43 470.97,-290.47 468.69,-283.85"/>
</g>
<!-- Node3 -->
<g id="node3" class="node">
<title>Node3</title>
<g id="a_node3"><a xlink:href="maingui_8h.html" target="_top" xlink:title=" ">
<polygon fill="white" stroke="black" points="30.22,-140 30.22,-170 141.22,-170 141.22,-140 30.22,-140"/>
<text text-anchor="start" x="38.22" y="-158" font-family="Helvetica,sans-Serif" font-size="10.00">/root/fyp/project/src</text>
<text text-anchor="middle" x="85.72" y="-147" font-family="Helvetica,sans-Serif" font-size="10.00">/maingui.h</text>
</a>
</g>
</g>
<!-- Node2&#45;&gt;Node3 -->
<g id="edge2" class="edge">
<title>Node2&#45;&gt;Node3</title>
<path fill="none" stroke="midnightblue" d="M223.55,-213.87C191.55,-200.44 148.57,-182.39 119.16,-170.04"/>
<polygon fill="midnightblue" stroke="midnightblue" points="222.53,-217.24 233.1,-217.88 225.24,-210.78 222.53,-217.24"/>
</g>
<!-- Node6 -->
<g id="node6" class="node">
<title>Node6</title>
<g id="a_node6"><a xlink:href="factory_8h.html" target="_top" xlink:title=" ">
<polygon fill="white" stroke="black" points="198.22,-67.5 198.22,-97.5 341.22,-97.5 341.22,-67.5 198.22,-67.5"/>
<text text-anchor="start" x="206.22" y="-85.5" font-family="Helvetica,sans-Serif" font-size="10.00">/root/fyp/project/src</text>
<text text-anchor="middle" x="269.72" y="-74.5" font-family="Helvetica,sans-Serif" font-size="10.00">/parsergenerator/factory.h</text>
</a>
</g>
</g>
<!-- Node2&#45;&gt;Node6 -->
<g id="edge5" class="edge">
<title>Node2&#45;&gt;Node6</title>
<path fill="none" stroke="midnightblue" d="M225.39,-212.62C211.09,-203.64 196.66,-191.48 188.72,-176 180.2,-159.39 179.66,-150.32 188.72,-134 197.89,-117.48 214.95,-105.66 231.07,-97.63"/>
<polygon fill="midnightblue" stroke="midnightblue" points="223.83,-215.76 234.23,-217.8 227.37,-209.72 223.83,-215.76"/>
</g>
<!-- Node2&#45;&gt;Node7 -->
<g id="edge7" class="edge">
<title>Node2&#45;&gt;Node7</title>
<path fill="none" stroke="midnightblue" d="M303.78,-213.35C326.53,-201.9 355.63,-187.25 378.72,-175.63"/>
<polygon fill="midnightblue" stroke="midnightblue" points="302.13,-210.26 294.77,-217.88 305.28,-216.51 302.13,-210.26"/>
</g>
<!-- Node8 -->
<g id="node8" class="node">
<title>Node8</title>
<g id="a_node8"><a xlink:href="lexyacc_2parsergenerator_8h.html" target="_top" xlink:title=" ">
<polygon fill="white" stroke="black" points="197.72,-134.5 197.72,-175.5 335.72,-175.5 335.72,-134.5 197.72,-134.5"/>
<text text-anchor="start" x="205.72" y="-163.5" font-family="Helvetica,sans-Serif" font-size="10.00">/root/fyp/project/src</text>
<text text-anchor="start" x="205.72" y="-152.5" font-family="Helvetica,sans-Serif" font-size="10.00">/parsergenerator/lexyacc</text>
<text text-anchor="middle" x="266.72" y="-141.5" font-family="Helvetica,sans-Serif" font-size="10.00">/parsergenerator.h</text>
</a>
</g>
</g>
<!-- Node2&#45;&gt;Node8 -->
<g id="edge9" class="edge">
<title>Node2&#45;&gt;Node8</title>
<path fill="none" stroke="midnightblue" d="M266.72,-207.66C266.72,-197.33 266.72,-185.44 266.72,-175.68"/>
<polygon fill="midnightblue" stroke="midnightblue" points="263.22,-207.7 266.72,-217.7 270.22,-207.71 263.22,-207.7"/>
</g>
<!-- Node4 -->
<g id="node4" class="node">
<title>Node4</title>
<g id="a_node4"><a xlink:href="main_8cpp.html" target="_top" xlink:title=" ">
<polygon fill="white" stroke="black" points="30.22,-67.5 30.22,-97.5 141.22,-97.5 141.22,-67.5 30.22,-67.5"/>
<text text-anchor="start" x="38.22" y="-85.5" font-family="Helvetica,sans-Serif" font-size="10.00">/root/fyp/project/src</text>
<text text-anchor="middle" x="85.72" y="-74.5" font-family="Helvetica,sans-Serif" font-size="10.00">/main.cpp</text>
</a>
</g>
</g>
<!-- Node3&#45;&gt;Node4 -->
<g id="edge3" class="edge">
<title>Node3&#45;&gt;Node4</title>
<path fill="none" stroke="midnightblue" d="M85.72,-129.73C85.72,-119.07 85.72,-106.91 85.72,-97.75"/>
<polygon fill="midnightblue" stroke="midnightblue" points="82.22,-129.73 85.72,-139.73 89.22,-129.73 82.22,-129.73"/>
</g>
<!-- Node3&#45;&gt;Node5 -->
<g id="edge4" class="edge">
<title>Node3&#45;&gt;Node5</title>
<path fill="none" stroke="midnightblue" d="M111.08,-133.25C123.15,-123.02 137.56,-110.27 149.72,-98 171.91,-75.61 195.31,-47.26 208.65,-30.58"/>
<polygon fill="midnightblue" stroke="midnightblue" points="108.58,-130.79 103.16,-139.89 113.07,-136.15 108.58,-130.79"/>
</g>
<!-- Node6&#45;&gt;Node5 -->
<g id="edge6" class="edge">
<title>Node6&#45;&gt;Node5</title>
<path fill="none" stroke="midnightblue" d="M252.76,-59.45C245.41,-49.9 237.03,-39 230.55,-30.58"/>
<polygon fill="midnightblue" stroke="midnightblue" points="250,-61.6 258.87,-67.4 255.55,-57.34 250,-61.6"/>
</g>
<!-- Node7&#45;&gt;Node6 -->
<g id="edge8" class="edge">
<title>Node7&#45;&gt;Node6</title>
<path fill="none" stroke="midnightblue" d="M367.37,-130.02C344.78,-119.25 318.91,-106.93 299.47,-97.67"/>
<polygon fill="midnightblue" stroke="midnightblue" points="365.96,-133.22 376.5,-134.36 368.97,-126.9 365.96,-133.22"/>
</g>
<!-- Node8&#45;&gt;Node6 -->
<g id="edge10" class="edge">
<title>Node8&#45;&gt;Node6</title>
<path fill="none" stroke="midnightblue" d="M268,-124.08C268.38,-115.01 268.79,-105.45 269.11,-97.89"/>
<polygon fill="midnightblue" stroke="midnightblue" points="264.49,-124.22 267.56,-134.36 271.48,-124.52 264.49,-124.22"/>
</g>
<!-- Node9&#45;&gt;Node6 -->
<g id="edge13" class="edge">
<title>Node9&#45;&gt;Node6</title>
<path fill="none" stroke="midnightblue" d="M499.04,-202.54C503.81,-181.24 505.85,-152.98 490.72,-134 472.2,-110.77 398.64,-97.37 341.41,-90.29"/>
<polygon fill="midnightblue" stroke="midnightblue" points="495.61,-201.81 496.53,-212.37 502.39,-203.54 495.61,-201.81"/>
</g>
<!-- Node10&#45;&gt;Node5 -->
<g id="edge16" class="edge">
<title>Node10&#45;&gt;Node5</title>
<path fill="none" stroke="midnightblue" d="M603,-210.35C581.5,-188.81 546.12,-155.92 510.72,-134 431.51,-84.95 328.28,-49 268.46,-30.54"/>
<polygon fill="midnightblue" stroke="midnightblue" points="600.75,-213.06 610.27,-217.72 605.74,-208.14 600.75,-213.06"/>
</g>
<!-- Node11 -->
<g id="node11" class="node">
<title>Node11</title>
<g id="a_node11"><a xlink:href="parsetreerenderer_8cpp.html" target="_top" xlink:title=" ">
<polygon fill="white" stroke="black" points="576.22,-140 576.22,-170 703.22,-170 703.22,-140 576.22,-140"/>
<text text-anchor="start" x="584.22" y="-158" font-family="Helvetica,sans-Serif" font-size="10.00">/root/fyp/project/src</text>
<text text-anchor="middle" x="639.72" y="-147" font-family="Helvetica,sans-Serif" font-size="10.00">/parsetreerenderer.cpp</text>
</a>
</g>
</g>
<!-- Node10&#45;&gt;Node11 -->
<g id="edge17" class="edge">
<title>Node10&#45;&gt;Node11</title>
<path fill="none" stroke="midnightblue" d="M628.86,-207.59C631.46,-195.26 634.52,-180.72 636.73,-170.23"/>
<polygon fill="midnightblue" stroke="midnightblue" points="625.37,-207.2 626.73,-217.7 632.22,-208.64 625.37,-207.2"/>
</g>
</g>
</svg>
        <g id="navigator" transform="translate(0 0)" fill="#404254">
                <rect fill="#f2f5e9" fill-opacity="0.5" stroke="#606060" stroke-width=".5" x="0" y="0" width="60" height="60"/>
                <use id="zoomplus" xlink:href="#zoomPlus" x="17" y="9" onmousedown="handleZoom(evt,'in')"/>
                <use id="zoomminus" xlink:href="#zoomMin" x="42" y="9" onmousedown="handleZoom(evt,'out')"/>
                <use id="reset" xlink:href="#resetDef" x="30" y="36" onmousedown="handleReset()"/>
                <g id="arrowUp" xlink:href="#dirArrow" transform="translate(30 24)" onmousedown="handlePan(0,-1)">
                  <use xlink:href="#rim" fill="#404040">
                        <set attributeName="fill" to="#808080" begin="arrowUp.mouseover" end="arrowUp.mouseout"/>
                  </use>
                  <path fill="none" stroke="white" stroke-width="1.5" d="M0,-3.0v7 M-2.5,-0.5L0,-3.0L2.5,-0.5"/>
                </g>
                <g id="arrowRight" xlink:href="#dirArrow" transform="rotate(90) translate(36 -43)" onmousedown="handlePan(1,0)">
                  <use xlink:href="#rim" fill="#404040">
                        <set attributeName="fill" to="#808080" begin="arrowRight.mouseover" end="arrowRight.mouseout"/>
                  </use>
                  <path fill="none" stroke="white" stroke-width="1.5" d="M0,-3.0v7 M-2.5,-0.5L0,-3.0L2.5,-0.5"/>
                </g>
                <g id="arrowDown" xlink:href="#dirArrow" transform="rotate(180) translate(-30 -48)" onmousedown="handlePan(0,1)">
                  <use xlink:href="#rim" fill="#404040">
                        <set attributeName="fill" to="#808080" begin="arrowDown.mouseover" end="arrowDown.mouseout"/>
                  </use>
                  <path fill="none" stroke="white" stroke-width="1.5" d="M0,-3.0v7 M-2.5,-0.5L0,-3.0L2.5,-0.5"/>
                </g>
                <g id="arrowLeft" xlink:href="#dirArrow" transform="rotate(270) translate(-36 17)" onmousedown="handlePan(-1,0)">
                  <use xlink:href="#rim" fill="#404040">
                        <set attributeName="fill" to="#808080" begin="arrowLeft.mouseover" end="arrowLeft.mouseout"/>
                  </use>
                  <path fill="none" stroke="white" stroke-width="1.5" d="M0,-3.0v7 M-2.5,-0.5L0,-3.0L2.5,-0.5"/>
                </g>
        </g>
        <svg viewBox="0 0 15 15" width="100%" height="30px" preserveAspectRatio="xMaxYMin meet">
         <g id="arrow_out" transform="scale(0.3 0.3)">
          <a xlink:href="parsetree_8h__dep__incl_org.svg" target="_base">
           <rect id="button" ry="5" rx="5" y="6" x="6" height="38" width="38"
                fill="#f2f5e9" fill-opacity="0.5" stroke="#606060" stroke-width="1.0"/>
           <path id="arrow"
             d="M 11.500037,31.436501 C 11.940474,20.09759 22.043105,11.32322 32.158766,21.979434 L 37.068811,17.246167 C 37.068811,17.246167 37.088388,32 37.088388,32 L 22.160133,31.978069 C 22.160133,31.978069 26.997745,27.140456 26.997745,27.140456 C 18.528582,18.264221 13.291696,25.230495 11.500037,31.436501 z"
             style="fill:#404040;"/>
          </a>
         </g>
        </svg>
</svg>
