<?xml version="1.0" encoding="UTF-8" standalone="no"?>
<!DOCTYPE svg PUBLIC "-//W3C//DTD SVG 1.1//EN"
 "http://www.w3.org/Graphics/SVG/1.1/DTD/svg11.dtd">
<!-- Generated by graphviz version 2.43.0 (0)
 -->
<!-- Title: /root/fyp/project/src/parsergenerator/util/parsetree.h Pages: 1 -->
<svg width="315pt" height="162pt"
 viewBox="0.00 0.00 314.50 162.00" xmlns="http://www.w3.org/2000/svg" xmlns:xlink="http://www.w3.org/1999/xlink">
<g id="graph0" class="graph" transform="scale(1 1) rotate(0) translate(4 158)">
<title>/root/fyp/project/src/parsergenerator/util/parsetree.h</title>
<polygon fill="white" stroke="transparent" points="-4,4 -4,-158 310.5,-158 310.5,4 -4,4"/>
<!-- Node1 -->
<g id="node1" class="node">
<title>Node1</title>
<g id="a_node1"><a xlink:title=" ">
<polygon fill="#bfbfbf" stroke="black" points="93.5,-112.5 93.5,-153.5 209.5,-153.5 209.5,-112.5 93.5,-112.5"/>
<text text-anchor="start" x="101.5" y="-141.5" font-family="Helvetica,sans-Serif" font-size="10.00">/root/fyp/project/src</text>
<text text-anchor="start" x="101.5" y="-130.5" font-family="Helvetica,sans-Serif" font-size="10.00">/parsergenerator/util</text>
<text text-anchor="middle" x="151.5" y="-119.5" font-family="Helvetica,sans-Serif" font-size="10.00">/parsetree.h</text>
</a>
</g>
</g>
<!-- Node2 -->
<g id="node2" class="node">
<title>Node2</title>
<g id="a_node2"><a xlink:title=" ">
<polygon fill="white" stroke="#bfbfbf" points="0,-56.5 0,-75.5 47,-75.5 47,-56.5 0,-56.5"/>
<text text-anchor="middle" x="23.5" y="-63.5" font-family="Helvetica,sans-Serif" font-size="10.00">vector</text>
</a>
</g>
</g>
<!-- Node1&#45;&gt;Node2 -->
<g id="edge1" class="edge">
<title>Node1&#45;&gt;Node2</title>
<path fill="none" stroke="midnightblue" d="M113.1,-112.5C92.62,-102.1 67.96,-89.58 49.7,-80.31"/>
<polygon fill="midnightblue" stroke="midnightblue" points="51.04,-77.06 40.54,-75.65 47.87,-83.3 51.04,-77.06"/>
</g>
<!-- Node3 -->
<g id="node3" class="node">
<title>Node3</title>
<g id="a_node3"><a xlink:title=" ">
<polygon fill="white" stroke="#bfbfbf" points="65,-56.5 65,-75.5 148,-75.5 148,-56.5 65,-56.5"/>
<text text-anchor="middle" x="106.5" y="-63.5" font-family="Helvetica,sans-Serif" font-size="10.00">initializer_list</text>
</a>
</g>
</g>
<!-- Node1&#45;&gt;Node3 -->
<g id="edge2" class="edge">
<title>Node1&#45;&gt;Node3</title>
<path fill="none" stroke="midnightblue" d="M138,-112.5C131.7,-103.39 124.27,-92.66 118.21,-83.91"/>
<polygon fill="midnightblue" stroke="midnightblue" points="121.06,-81.88 112.49,-75.65 115.3,-85.87 121.06,-81.88"/>
</g>
<!-- Node4 -->
<g id="node4" class="node">
<title>Node4</title>
<g id="a_node4"><a xlink:title=" ">
<polygon fill="white" stroke="#bfbfbf" points="166.5,-56.5 166.5,-75.5 226.5,-75.5 226.5,-56.5 166.5,-56.5"/>
<text text-anchor="middle" x="196.5" y="-63.5" font-family="Helvetica,sans-Serif" font-size="10.00">iostream</text>
</a>
</g>
</g>
<!-- Node1&#45;&gt;Node4 -->
<g id="edge3" class="edge">
<title>Node1&#45;&gt;Node4</title>
<path fill="none" stroke="midnightblue" d="M165,-112.5C171.3,-103.39 178.73,-92.66 184.79,-83.91"/>
<polygon fill="midnightblue" stroke="midnightblue" points="187.7,-85.87 190.51,-75.65 181.94,-81.88 187.7,-85.87"/>
</g>
<!-- Node5 -->
<g id="node5" class="node">
<title>Node5</title>
<g id="a_node5"><a xlink:href="symbol_8h.html" target="_top" xlink:title=" ">
<polygon fill="white" stroke="black" points="244.5,-56.5 244.5,-75.5 306.5,-75.5 306.5,-56.5 244.5,-56.5"/>
<text text-anchor="middle" x="275.5" y="-63.5" font-family="Helvetica,sans-Serif" font-size="10.00">symbol.h</text>
</a>
</g>
</g>
<!-- Node1&#45;&gt;Node5 -->
<g id="edge4" class="edge">
<title>Node1&#45;&gt;Node5</title>
<path fill="none" stroke="midnightblue" d="M188.7,-112.5C208.45,-102.15 232.21,-89.69 249.87,-80.43"/>
<polygon fill="midnightblue" stroke="midnightblue" points="251.76,-83.4 258.99,-75.65 248.51,-77.2 251.76,-83.4"/>
</g>
<!-- Node6 -->
<g id="node6" class="node">
<title>Node6</title>
<g id="a_node6"><a xlink:title=" ">
<polygon fill="white" stroke="#bfbfbf" points="253.5,-0.5 253.5,-19.5 297.5,-19.5 297.5,-0.5 253.5,-0.5"/>
<text text-anchor="middle" x="275.5" y="-7.5" font-family="Helvetica,sans-Serif" font-size="10.00">string</text>
</a>
</g>
</g>
<!-- Node5&#45;&gt;Node6 -->
<g id="edge5" class="edge">
<title>Node5&#45;&gt;Node6</title>
<path fill="none" stroke="midnightblue" d="M275.5,-56.08C275.5,-49.01 275.5,-38.86 275.5,-29.99"/>
<polygon fill="midnightblue" stroke="midnightblue" points="279,-29.75 275.5,-19.75 272,-29.75 279,-29.75"/>
</g>
</g>
</svg>
