<?xml version="1.0" encoding="UTF-8" standalone="no"?>
<!DOCTYPE svg PUBLIC "-//W3C//DTD SVG 1.1//EN"
 "http://www.w3.org/Graphics/SVG/1.1/DTD/svg11.dtd">
<!-- Generated by graphviz version 2.43.0 (0)
 -->
<!-- Title: /root/fyp/project/src/parsetreerenderer.cpp Pages: 1 -->
<svg width="387pt" height="274pt"
 viewBox="0.00 0.00 387.45 274.00" xmlns="http://www.w3.org/2000/svg" xmlns:xlink="http://www.w3.org/1999/xlink">
<g id="graph0" class="graph" transform="scale(1 1) rotate(0) translate(4 270)">
<title>/root/fyp/project/src/parsetreerenderer.cpp</title>
<polygon fill="white" stroke="transparent" points="-4,4 -4,-270 383.45,-270 383.45,4 -4,4"/>
<!-- Node1 -->
<g id="node1" class="node">
<title>Node1</title>
<g id="a_node1"><a xlink:title=" ">
<polygon fill="#bfbfbf" stroke="black" points="28.5,-235.5 28.5,-265.5 155.5,-265.5 155.5,-235.5 28.5,-235.5"/>
<text text-anchor="start" x="36.5" y="-253.5" font-family="Helvetica,sans-Serif" font-size="10.00">/root/fyp/project/src</text>
<text text-anchor="middle" x="92" y="-242.5" font-family="Helvetica,sans-Serif" font-size="10.00">/parsetreerenderer.cpp</text>
</a>
</g>
</g>
<!-- Node2 -->
<g id="node2" class="node">
<title>Node2</title>
<g id="a_node2"><a xlink:title=" ">
<polygon fill="white" stroke="#bfbfbf" points="0,-179.5 0,-198.5 64,-198.5 64,-179.5 0,-179.5"/>
<text text-anchor="middle" x="32" y="-186.5" font-family="Helvetica,sans-Serif" font-size="10.00">algorithm</text>
</a>
</g>
</g>
<!-- Node1&#45;&gt;Node2 -->
<g id="edge1" class="edge">
<title>Node1&#45;&gt;Node2</title>
<path fill="none" stroke="midnightblue" d="M77.78,-235.4C68.79,-226.49 57.16,-214.95 47.87,-205.74"/>
<polygon fill="midnightblue" stroke="midnightblue" points="50.3,-203.21 40.73,-198.66 45.37,-208.18 50.3,-203.21"/>
</g>
<!-- Node3 -->
<g id="node3" class="node">
<title>Node3</title>
<g id="a_node3"><a xlink:title=" ">
<polygon fill="white" stroke="#bfbfbf" points="56,-56.5 56,-75.5 116,-75.5 116,-56.5 56,-56.5"/>
<text text-anchor="middle" x="86" y="-63.5" font-family="Helvetica,sans-Serif" font-size="10.00">iostream</text>
</a>
</g>
</g>
<!-- Node1&#45;&gt;Node3 -->
<g id="edge2" class="edge">
<title>Node1&#45;&gt;Node3</title>
<path fill="none" stroke="midnightblue" d="M91.54,-235.48C90.47,-203.1 87.84,-123.04 86.63,-86.16"/>
<polygon fill="midnightblue" stroke="midnightblue" points="90.12,-85.7 86.29,-75.82 83.12,-85.93 90.12,-85.7"/>
</g>
<!-- Node4 -->
<g id="node4" class="node">
<title>Node4</title>
<g id="a_node4"><a xlink:href="parsetreerenderer_8h.html" target="_top" xlink:title=" ">
<polygon fill="white" stroke="black" points="227.5,-179.5 227.5,-198.5 340.5,-198.5 340.5,-179.5 227.5,-179.5"/>
<text text-anchor="middle" x="284" y="-186.5" font-family="Helvetica,sans-Serif" font-size="10.00">parsetreerenderer.h</text>
</a>
</g>
</g>
<!-- Node1&#45;&gt;Node4 -->
<g id="edge3" class="edge">
<title>Node1&#45;&gt;Node4</title>
<path fill="none" stroke="midnightblue" d="M137.5,-235.4C170.82,-225.07 215.49,-211.23 246.71,-201.56"/>
<polygon fill="midnightblue" stroke="midnightblue" points="247.83,-204.87 256.34,-198.57 245.75,-198.19 247.83,-204.87"/>
</g>
<!-- Node5 -->
<g id="node5" class="node">
<title>Node5</title>
<g id="a_node5"><a xlink:title=" ">
<polygon fill="white" stroke="#bfbfbf" points="315.5,-56.5 315.5,-75.5 362.5,-75.5 362.5,-56.5 315.5,-56.5"/>
<text text-anchor="middle" x="339" y="-63.5" font-family="Helvetica,sans-Serif" font-size="10.00">vector</text>
</a>
</g>
</g>
<!-- Node4&#45;&gt;Node5 -->
<g id="edge4" class="edge">
<title>Node4&#45;&gt;Node5</title>
<path fill="none" stroke="midnightblue" d="M292.41,-179.43C300.36,-170.87 312.07,-157.02 319,-143 328.05,-124.69 333.35,-101.82 336.2,-85.97"/>
<polygon fill="midnightblue" stroke="midnightblue" points="339.7,-86.27 337.85,-75.84 332.79,-85.14 339.7,-86.27"/>
</g>
<!-- Node6 -->
<g id="node6" class="node">
<title>Node6</title>
<g id="a_node6"><a xlink:title=" ">
<polygon fill="white" stroke="#bfbfbf" points="256,-0.5 256,-19.5 300,-19.5 300,-0.5 256,-0.5"/>
<text text-anchor="middle" x="278" y="-7.5" font-family="Helvetica,sans-Serif" font-size="10.00">string</text>
</a>
</g>
</g>
<!-- Node4&#45;&gt;Node6 -->
<g id="edge5" class="edge">
<title>Node4&#45;&gt;Node6</title>
<path fill="none" stroke="midnightblue" d="M297.59,-179.45C329.01,-158.59 401.8,-103.31 372,-56 358.51,-34.59 331.71,-23.14 310.16,-17.16"/>
<polygon fill="midnightblue" stroke="midnightblue" points="310.95,-13.75 300.39,-14.71 309.24,-20.54 310.95,-13.75"/>
</g>
<!-- Node7 -->
<g id="node7" class="node">
<title>Node7</title>
<g id="a_node7"><a xlink:title=" ">
<polygon fill="white" stroke="#bfbfbf" points="257.5,-118 257.5,-137 310.5,-137 310.5,-118 257.5,-118"/>
<text text-anchor="middle" x="284" y="-125" font-family="Helvetica,sans-Serif" font-size="10.00">imgui.h</text>
</a>
</g>
</g>
<!-- Node4&#45;&gt;Node7 -->
<g id="edge6" class="edge">
<title>Node4&#45;&gt;Node7</title>
<path fill="none" stroke="midnightblue" d="M284,-179.48C284,-171.08 284,-157.98 284,-147.16"/>
<polygon fill="midnightblue" stroke="midnightblue" points="287.5,-147.01 284,-137.01 280.5,-147.01 287.5,-147.01"/>
</g>
<!-- Node8 -->
<g id="node8" class="node">
<title>Node8</title>
<g id="a_node8"><a xlink:href="parsetree_8h.html" target="_top" xlink:title=" ">
<polygon fill="white" stroke="black" points="126.5,-112.5 126.5,-142.5 239.5,-142.5 239.5,-112.5 126.5,-112.5"/>
<text text-anchor="start" x="134.5" y="-130.5" font-family="Helvetica,sans-Serif" font-size="10.00">parsergenerator/util</text>
<text text-anchor="middle" x="183" y="-119.5" font-family="Helvetica,sans-Serif" font-size="10.00">/parsetree.h</text>
</a>
</g>
</g>
<!-- Node4&#45;&gt;Node8 -->
<g id="edge7" class="edge">
<title>Node4&#45;&gt;Node8</title>
<path fill="none" stroke="midnightblue" d="M269.53,-179.48C255.59,-171.27 234.02,-158.56 215.9,-147.88"/>
<polygon fill="midnightblue" stroke="midnightblue" points="217.2,-144.58 206.8,-142.52 213.64,-150.61 217.2,-144.58"/>
</g>
<!-- Node8&#45;&gt;Node3 -->
<g id="edge10" class="edge">
<title>Node8&#45;&gt;Node3</title>
<path fill="none" stroke="midnightblue" d="M160.01,-112.4C144.61,-102.95 124.41,-90.56 109,-81.11"/>
<polygon fill="midnightblue" stroke="midnightblue" points="110.47,-77.9 100.11,-75.66 106.81,-83.87 110.47,-77.9"/>
</g>
<!-- Node8&#45;&gt;Node5 -->
<g id="edge8" class="edge">
<title>Node8&#45;&gt;Node5</title>
<path fill="none" stroke="midnightblue" d="M219.97,-112.4C246.38,-102.33 281.56,-88.91 306.81,-79.28"/>
<polygon fill="midnightblue" stroke="midnightblue" points="308.2,-82.49 316.3,-75.66 305.71,-75.95 308.2,-82.49"/>
</g>
<!-- Node9 -->
<g id="node9" class="node">
<title>Node9</title>
<g id="a_node9"><a xlink:title=" ">
<polygon fill="white" stroke="#bfbfbf" points="214.5,-56.5 214.5,-75.5 297.5,-75.5 297.5,-56.5 214.5,-56.5"/>
<text text-anchor="middle" x="256" y="-63.5" font-family="Helvetica,sans-Serif" font-size="10.00">initializer_list</text>
</a>
</g>
</g>
<!-- Node8&#45;&gt;Node9 -->
<g id="edge9" class="edge">
<title>Node8&#45;&gt;Node9</title>
<path fill="none" stroke="midnightblue" d="M200.3,-112.4C211.45,-103.31 225.95,-91.49 237.36,-82.19"/>
<polygon fill="midnightblue" stroke="midnightblue" points="239.84,-84.69 245.38,-75.66 235.42,-79.26 239.84,-84.69"/>
</g>
<!-- Node10 -->
<g id="node10" class="node">
<title>Node10</title>
<g id="a_node10"><a xlink:href="symbol_8h.html" target="_top" xlink:title=" ">
<polygon fill="white" stroke="black" points="134,-56.5 134,-75.5 196,-75.5 196,-56.5 134,-56.5"/>
<text text-anchor="middle" x="165" y="-63.5" font-family="Helvetica,sans-Serif" font-size="10.00">symbol.h</text>
</a>
</g>
</g>
<!-- Node8&#45;&gt;Node10 -->
<g id="edge11" class="edge">
<title>Node8&#45;&gt;Node10</title>
<path fill="none" stroke="midnightblue" d="M178.73,-112.4C176.28,-104.29 173.17,-94.01 170.53,-85.28"/>
<polygon fill="midnightblue" stroke="midnightblue" points="173.86,-84.22 167.62,-75.66 167.16,-86.24 173.86,-84.22"/>
</g>
<!-- Node10&#45;&gt;Node6 -->
<g id="edge12" class="edge">
<title>Node10&#45;&gt;Node6</title>
<path fill="none" stroke="midnightblue" d="M182.91,-56.44C201.25,-47.68 230.01,-33.94 251.09,-23.86"/>
<polygon fill="midnightblue" stroke="midnightblue" points="252.67,-26.99 260.18,-19.52 249.65,-20.67 252.67,-26.99"/>
</g>
</g>
</svg>
