<?xml version="1.0" encoding="UTF-8" standalone="no"?>
<!DOCTYPE svg PUBLIC "-//W3C//DTD SVG 1.1//EN"
 "http://www.w3.org/Graphics/SVG/1.1/DTD/svg11.dtd">
<!-- Generated by graphviz version 2.43.0 (0)
 -->
<!-- Title: /root/fyp/project/src/parsergenerator/llpred/parsertable.h Pages: 1 -->
<svg width="387pt" height="162pt"
 viewBox="0.00 0.00 386.95 162.00" xmlns="http://www.w3.org/2000/svg" xmlns:xlink="http://www.w3.org/1999/xlink">
<g id="graph0" class="graph" transform="scale(1 1) rotate(0) translate(4 158)">
<title>/root/fyp/project/src/parsergenerator/llpred/parsertable.h</title>
<polygon fill="white" stroke="transparent" points="-4,4 -4,-158 382.95,-158 382.95,4 -4,4"/>
<!-- Node1 -->
<g id="node1" class="node">
<title>Node1</title>
<g id="a_node1"><a xlink:title=" ">
<polygon fill="#bfbfbf" stroke="black" points="74.45,-112.5 74.45,-153.5 202.45,-153.5 202.45,-112.5 74.45,-112.5"/>
<text text-anchor="start" x="82.45" y="-141.5" font-family="Helvetica,sans-Serif" font-size="10.00">/root/fyp/project/src</text>
<text text-anchor="start" x="82.45" y="-130.5" font-family="Helvetica,sans-Serif" font-size="10.00">/parsergenerator/llpred</text>
<text text-anchor="middle" x="138.45" y="-119.5" font-family="Helvetica,sans-Serif" font-size="10.00">/parsertable.h</text>
</a>
</g>
</g>
<!-- Node2 -->
<g id="node2" class="node">
<title>Node2</title>
<g id="a_node2"><a xlink:title=" ">
<polygon fill="white" stroke="#bfbfbf" points="138.45,-0.5 138.45,-19.5 182.45,-19.5 182.45,-0.5 138.45,-0.5"/>
<text text-anchor="middle" x="160.45" y="-7.5" font-family="Helvetica,sans-Serif" font-size="10.00">string</text>
</a>
</g>
</g>
<!-- Node1&#45;&gt;Node2 -->
<g id="edge1" class="edge">
<title>Node1&#45;&gt;Node2</title>
<path fill="none" stroke="midnightblue" d="M74.36,-119.32C30.12,-107.55 -16.86,-87.1 6.45,-56 21.05,-36.52 87.5,-22.66 128.2,-15.83"/>
<polygon fill="midnightblue" stroke="midnightblue" points="128.88,-19.27 138.19,-14.21 127.75,-12.36 128.88,-19.27"/>
</g>
<!-- Node3 -->
<g id="node3" class="node">
<title>Node3</title>
<g id="a_node3"><a xlink:title=" ">
<polygon fill="white" stroke="#bfbfbf" points="15.45,-56.5 15.45,-75.5 71.45,-75.5 71.45,-56.5 15.45,-56.5"/>
<text text-anchor="middle" x="43.45" y="-63.5" font-family="Helvetica,sans-Serif" font-size="10.00">sstream</text>
</a>
</g>
</g>
<!-- Node1&#45;&gt;Node3 -->
<g id="edge2" class="edge">
<title>Node1&#45;&gt;Node3</title>
<path fill="none" stroke="midnightblue" d="M109.95,-112.5C95.38,-102.53 77.96,-90.61 64.61,-81.48"/>
<polygon fill="midnightblue" stroke="midnightblue" points="66.33,-78.41 56.1,-75.65 62.37,-84.19 66.33,-78.41"/>
</g>
<!-- Node4 -->
<g id="node4" class="node">
<title>Node4</title>
<g id="a_node4"><a xlink:title=" ">
<polygon fill="white" stroke="#bfbfbf" points="89.45,-56.5 89.45,-75.5 127.45,-75.5 127.45,-56.5 89.45,-56.5"/>
<text text-anchor="middle" x="108.45" y="-63.5" font-family="Helvetica,sans-Serif" font-size="10.00">map</text>
</a>
</g>
</g>
<!-- Node1&#45;&gt;Node4 -->
<g id="edge3" class="edge">
<title>Node1&#45;&gt;Node4</title>
<path fill="none" stroke="midnightblue" d="M129.45,-112.5C125.38,-103.68 120.61,-93.34 116.64,-84.74"/>
<polygon fill="midnightblue" stroke="midnightblue" points="119.81,-83.27 112.44,-75.65 113.46,-86.2 119.81,-83.27"/>
</g>
<!-- Node5 -->
<g id="node5" class="node">
<title>Node5</title>
<g id="a_node5"><a xlink:title=" ">
<polygon fill="white" stroke="#bfbfbf" points="145.95,-56.5 145.95,-75.5 192.95,-75.5 192.95,-56.5 145.95,-56.5"/>
<text text-anchor="middle" x="169.45" y="-63.5" font-family="Helvetica,sans-Serif" font-size="10.00">vector</text>
</a>
</g>
</g>
<!-- Node1&#45;&gt;Node5 -->
<g id="edge4" class="edge">
<title>Node1&#45;&gt;Node5</title>
<path fill="none" stroke="midnightblue" d="M147.75,-112.5C151.96,-103.68 156.89,-93.34 160.99,-84.74"/>
<polygon fill="midnightblue" stroke="midnightblue" points="164.18,-86.19 165.32,-75.65 157.86,-83.17 164.18,-86.19"/>
</g>
<!-- Node6 -->
<g id="node6" class="node">
<title>Node6</title>
<g id="a_node6"><a xlink:title=" ">
<polygon fill="white" stroke="#bfbfbf" points="211.45,-56.5 211.45,-75.5 271.45,-75.5 271.45,-56.5 211.45,-56.5"/>
<text text-anchor="middle" x="241.45" y="-63.5" font-family="Helvetica,sans-Serif" font-size="10.00">iostream</text>
</a>
</g>
</g>
<!-- Node1&#45;&gt;Node6 -->
<g id="edge5" class="edge">
<title>Node1&#45;&gt;Node6</title>
<path fill="none" stroke="midnightblue" d="M169.35,-112.5C185.3,-102.44 204.39,-90.38 218.93,-81.21"/>
<polygon fill="midnightblue" stroke="midnightblue" points="221.15,-83.95 227.74,-75.65 217.42,-78.03 221.15,-83.95"/>
</g>
<!-- Node7 -->
<g id="node7" class="node">
<title>Node7</title>
<g id="a_node7"><a xlink:href="symbol_8h.html" target="_top" xlink:title=" ">
<polygon fill="white" stroke="black" points="289.95,-56.5 289.95,-75.5 378.95,-75.5 378.95,-56.5 289.95,-56.5"/>
<text text-anchor="middle" x="334.45" y="-63.5" font-family="Helvetica,sans-Serif" font-size="10.00">../util/symbol.h</text>
</a>
</g>
</g>
<!-- Node1&#45;&gt;Node7 -->
<g id="edge6" class="edge">
<title>Node1&#45;&gt;Node7</title>
<path fill="none" stroke="midnightblue" d="M197.26,-112.5C230.3,-101.54 270.45,-88.22 298.76,-78.84"/>
<polygon fill="midnightblue" stroke="midnightblue" points="300.23,-82.04 308.62,-75.57 298.02,-75.39 300.23,-82.04"/>
</g>
<!-- Node7&#45;&gt;Node2 -->
<g id="edge7" class="edge">
<title>Node7&#45;&gt;Node2</title>
<path fill="none" stroke="midnightblue" d="M306.88,-56.44C275.7,-46.77 225.02,-31.04 192.21,-20.86"/>
<polygon fill="midnightblue" stroke="midnightblue" points="193.24,-17.51 182.65,-17.89 191.16,-24.2 193.24,-17.51"/>
</g>
</g>
</svg>
