<?xml version="1.0" encoding="UTF-8" standalone="no"?>
<!DOCTYPE svg PUBLIC "-//W3C//DTD SVG 1.1//EN"
 "http://www.w3.org/Graphics/SVG/1.1/DTD/svg11.dtd">
<!-- Generated by graphviz version 2.43.0 (0)
 -->
<!-- Title: /root/fyp/project/src/parsergenerator/util/parseableinput.h Pages: 1 -->
<svg width="410pt" height="162pt"
 viewBox="0.00 0.00 410.14 162.00" xmlns="http://www.w3.org/2000/svg" xmlns:xlink="http://www.w3.org/1999/xlink">
<g id="graph0" class="graph" transform="scale(1 1) rotate(0) translate(4 158)">
<title>/root/fyp/project/src/parsergenerator/util/parseableinput.h</title>
<polygon fill="white" stroke="transparent" points="-4,4 -4,-158 406.14,-158 406.14,4 -4,4"/>
<!-- Node1 -->
<g id="node1" class="node">
<title>Node1</title>
<g id="a_node1"><a xlink:title=" ">
<polygon fill="#bfbfbf" stroke="black" points="129.14,-112.5 129.14,-153.5 245.14,-153.5 245.14,-112.5 129.14,-112.5"/>
<text text-anchor="start" x="137.14" y="-141.5" font-family="Helvetica,sans-Serif" font-size="10.00">/root/fyp/project/src</text>
<text text-anchor="start" x="137.14" y="-130.5" font-family="Helvetica,sans-Serif" font-size="10.00">/parsergenerator/util</text>
<text text-anchor="middle" x="187.14" y="-119.5" font-family="Helvetica,sans-Serif" font-size="10.00">/parseableinput.h</text>
</a>
</g>
</g>
<!-- Node2 -->
<g id="node2" class="node">
<title>Node2</title>
<g id="a_node2"><a xlink:title=" ">
<polygon fill="white" stroke="#bfbfbf" points="157.14,-0.5 157.14,-19.5 201.14,-19.5 201.14,-0.5 157.14,-0.5"/>
<text text-anchor="middle" x="179.14" y="-7.5" font-family="Helvetica,sans-Serif" font-size="10.00">string</text>
</a>
</g>
</g>
<!-- Node1&#45;&gt;Node2 -->
<g id="edge1" class="edge">
<title>Node1&#45;&gt;Node2</title>
<path fill="none" stroke="midnightblue" d="M129.1,-130.93C87.79,-126.75 34.88,-113.69 7.14,-76 -29.46,-26.28 87.39,-14.59 146.73,-11.84"/>
<polygon fill="midnightblue" stroke="midnightblue" points="146.91,-15.34 156.76,-11.44 146.62,-8.34 146.91,-15.34"/>
</g>
<!-- Node3 -->
<g id="node3" class="node">
<title>Node3</title>
<g id="a_node3"><a xlink:title=" ">
<polygon fill="white" stroke="#bfbfbf" points="16.14,-56.5 16.14,-75.5 76.14,-75.5 76.14,-56.5 16.14,-56.5"/>
<text text-anchor="middle" x="46.14" y="-63.5" font-family="Helvetica,sans-Serif" font-size="10.00">iostream</text>
</a>
</g>
</g>
<!-- Node1&#45;&gt;Node3 -->
<g id="edge2" class="edge">
<title>Node1&#45;&gt;Node3</title>
<path fill="none" stroke="midnightblue" d="M144.83,-112.5C121.97,-101.96 94.36,-89.23 74.17,-79.92"/>
<polygon fill="midnightblue" stroke="midnightblue" points="75.45,-76.66 64.9,-75.65 72.52,-83.02 75.45,-76.66"/>
</g>
<!-- Node4 -->
<g id="node4" class="node">
<title>Node4</title>
<g id="a_node4"><a xlink:title=" ">
<polygon fill="white" stroke="#bfbfbf" points="94.14,-56.5 94.14,-75.5 150.14,-75.5 150.14,-56.5 94.14,-56.5"/>
<text text-anchor="middle" x="122.14" y="-63.5" font-family="Helvetica,sans-Serif" font-size="10.00">sstream</text>
</a>
</g>
</g>
<!-- Node1&#45;&gt;Node4 -->
<g id="edge3" class="edge">
<title>Node1&#45;&gt;Node4</title>
<path fill="none" stroke="midnightblue" d="M167.63,-112.5C158.15,-103.01 146.89,-91.76 137.95,-82.81"/>
<polygon fill="midnightblue" stroke="midnightblue" points="140.33,-80.25 130.79,-75.65 135.38,-85.2 140.33,-80.25"/>
</g>
<!-- Node5 -->
<g id="node5" class="node">
<title>Node5</title>
<g id="a_node5"><a xlink:title=" ">
<polygon fill="white" stroke="#bfbfbf" points="168.14,-56.5 168.14,-75.5 206.14,-75.5 206.14,-56.5 168.14,-56.5"/>
<text text-anchor="middle" x="187.14" y="-63.5" font-family="Helvetica,sans-Serif" font-size="10.00">map</text>
</a>
</g>
</g>
<!-- Node1&#45;&gt;Node5 -->
<g id="edge4" class="edge">
<title>Node1&#45;&gt;Node5</title>
<path fill="none" stroke="midnightblue" d="M187.14,-112.5C187.14,-104.07 187.14,-94.24 187.14,-85.87"/>
<polygon fill="midnightblue" stroke="midnightblue" points="190.64,-85.65 187.14,-75.65 183.64,-85.65 190.64,-85.65"/>
</g>
<!-- Node6 -->
<g id="node6" class="node">
<title>Node6</title>
<g id="a_node6"><a xlink:title=" ">
<polygon fill="white" stroke="#bfbfbf" points="224.14,-56.5 224.14,-75.5 256.14,-75.5 256.14,-56.5 224.14,-56.5"/>
<text text-anchor="middle" x="240.14" y="-63.5" font-family="Helvetica,sans-Serif" font-size="10.00">set</text>
</a>
</g>
</g>
<!-- Node1&#45;&gt;Node6 -->
<g id="edge5" class="edge">
<title>Node1&#45;&gt;Node6</title>
<path fill="none" stroke="midnightblue" d="M203.04,-112.5C210.54,-103.3 219.39,-92.44 226.57,-83.63"/>
<polygon fill="midnightblue" stroke="midnightblue" points="229.47,-85.61 233.08,-75.65 224.05,-81.19 229.47,-85.61"/>
</g>
<!-- Node7 -->
<g id="node7" class="node">
<title>Node7</title>
<g id="a_node7"><a xlink:title=" ">
<polygon fill="white" stroke="#bfbfbf" points="274.64,-56.5 274.64,-75.5 321.64,-75.5 321.64,-56.5 274.64,-56.5"/>
<text text-anchor="middle" x="298.14" y="-63.5" font-family="Helvetica,sans-Serif" font-size="10.00">vector</text>
</a>
</g>
</g>
<!-- Node1&#45;&gt;Node7 -->
<g id="edge6" class="edge">
<title>Node1&#45;&gt;Node7</title>
<path fill="none" stroke="midnightblue" d="M220.44,-112.5C237.78,-102.34 258.59,-90.16 274.31,-80.95"/>
<polygon fill="midnightblue" stroke="midnightblue" points="276.5,-83.73 283.36,-75.65 272.96,-77.69 276.5,-83.73"/>
</g>
<!-- Node8 -->
<g id="node8" class="node">
<title>Node8</title>
<g id="a_node8"><a xlink:href="symbol_8h.html" target="_top" xlink:title=" ">
<polygon fill="white" stroke="black" points="340.14,-56.5 340.14,-75.5 402.14,-75.5 402.14,-56.5 340.14,-56.5"/>
<text text-anchor="middle" x="371.14" y="-63.5" font-family="Helvetica,sans-Serif" font-size="10.00">symbol.h</text>
</a>
</g>
</g>
<!-- Node1&#45;&gt;Node8 -->
<g id="edge7" class="edge">
<title>Node1&#45;&gt;Node8</title>
<path fill="none" stroke="midnightblue" d="M242.34,-112.5C273.13,-101.62 310.5,-88.42 337.04,-79.05"/>
<polygon fill="midnightblue" stroke="midnightblue" points="338.38,-82.28 346.64,-75.65 336.05,-75.68 338.38,-82.28"/>
</g>
<!-- Node8&#45;&gt;Node2 -->
<g id="edge8" class="edge">
<title>Node8&#45;&gt;Node2</title>
<path fill="none" stroke="midnightblue" d="M340.71,-56.44C305.39,-46.51 247.39,-30.2 211.33,-20.05"/>
<polygon fill="midnightblue" stroke="midnightblue" points="211.91,-16.58 201.34,-17.24 210.01,-23.32 211.91,-16.58"/>
</g>
</g>
</svg>
