<?xml version="1.0" encoding="UTF-8" standalone="no"?>
<!DOCTYPE svg PUBLIC "-//W3C//DTD SVG 1.1//EN"
 "http://www.w3.org/Graphics/SVG/1.1/DTD/svg11.dtd">
<!-- Generated by graphviz version 2.43.0 (0)
 -->
<!-- Title: /root/fyp/project/src/rule.h Pages: 1 -->
<svg width="478pt" height="274pt"
 viewBox="0.00 0.00 477.50 274.00" xmlns="http://www.w3.org/2000/svg" xmlns:xlink="http://www.w3.org/1999/xlink">
<g id="graph0" class="graph" transform="scale(1 1) rotate(0) translate(4 270)">
<title>/root/fyp/project/src/rule.h</title>
<polygon fill="white" stroke="transparent" points="-4,4 -4,-270 473.5,-270 473.5,4 -4,4"/>
<!-- Node1 -->
<g id="node1" class="node">
<title>Node1</title>
<g id="a_node1"><a xlink:title=" ">
<polygon fill="#bfbfbf" stroke="black" points="133.5,-235.5 133.5,-265.5 244.5,-265.5 244.5,-235.5 133.5,-235.5"/>
<text text-anchor="start" x="141.5" y="-253.5" font-family="Helvetica,sans-Serif" font-size="10.00">/root/fyp/project/src</text>
<text text-anchor="middle" x="189" y="-242.5" font-family="Helvetica,sans-Serif" font-size="10.00">/rule.h</text>
</a>
</g>
</g>
<!-- Node2 -->
<g id="node2" class="node">
<title>Node2</title>
<g id="a_node2"><a xlink:title=" ">
<polygon fill="white" stroke="#bfbfbf" points="0,-179.5 0,-198.5 38,-198.5 38,-179.5 0,-179.5"/>
<text text-anchor="middle" x="19" y="-186.5" font-family="Helvetica,sans-Serif" font-size="10.00">map</text>
</a>
</g>
</g>
<!-- Node1&#45;&gt;Node2 -->
<g id="edge1" class="edge">
<title>Node1&#45;&gt;Node2</title>
<path fill="none" stroke="midnightblue" d="M148.71,-235.4C117.58,-224.5 75.26,-209.69 47.55,-199.99"/>
<polygon fill="midnightblue" stroke="midnightblue" points="48.65,-196.67 38.05,-196.67 46.33,-203.28 48.65,-196.67"/>
</g>
<!-- Node3 -->
<g id="node3" class="node">
<title>Node3</title>
<g id="a_node3"><a xlink:href="nodelink_8h.html" target="_top" xlink:title=" ">
<polygon fill="white" stroke="black" points="306,-179.5 306,-198.5 374,-198.5 374,-179.5 306,-179.5"/>
<text text-anchor="middle" x="340" y="-186.5" font-family="Helvetica,sans-Serif" font-size="10.00">nodelink.h</text>
</a>
</g>
</g>
<!-- Node1&#45;&gt;Node3 -->
<g id="edge2" class="edge">
<title>Node1&#45;&gt;Node3</title>
<path fill="none" stroke="midnightblue" d="M224.78,-235.4C250.23,-225.37 284.1,-212.03 308.52,-202.4"/>
<polygon fill="midnightblue" stroke="midnightblue" points="310.01,-205.58 318.03,-198.66 307.44,-199.07 310.01,-205.58"/>
</g>
<!-- Node9 -->
<g id="node9" class="node">
<title>Node9</title>
<g id="a_node9"><a xlink:title=" ">
<polygon fill="white" stroke="#bfbfbf" points="332.5,-56.5 332.5,-86.5 469.5,-86.5 469.5,-56.5 332.5,-56.5"/>
<text text-anchor="start" x="340.5" y="-74.5" font-family="Helvetica,sans-Serif" font-size="10.00">imgui/nodes/imgui_node</text>
<text text-anchor="middle" x="401" y="-63.5" font-family="Helvetica,sans-Serif" font-size="10.00">_editor.h</text>
</a>
</g>
</g>
<!-- Node1&#45;&gt;Node9 -->
<g id="edge19" class="edge">
<title>Node1&#45;&gt;Node9</title>
<path fill="none" stroke="midnightblue" d="M244.95,-241.91C295.52,-233.85 364.75,-219.45 383,-199 407.91,-171.1 407.81,-125.07 404.85,-96.9"/>
<polygon fill="midnightblue" stroke="midnightblue" points="408.29,-96.2 403.56,-86.71 401.34,-97.07 408.29,-96.2"/>
</g>
<!-- Node11 -->
<g id="node11" class="node">
<title>Node11</title>
<g id="a_node11"><a xlink:href="nonterminal_8h.html" target="_top" xlink:title=" ">
<polygon fill="white" stroke="black" points="24.5,-123.5 24.5,-142.5 109.5,-142.5 109.5,-123.5 24.5,-123.5"/>
<text text-anchor="middle" x="67" y="-130.5" font-family="Helvetica,sans-Serif" font-size="10.00">nonterminal.h</text>
</a>
</g>
</g>
<!-- Node1&#45;&gt;Node11 -->
<g id="edge12" class="edge">
<title>Node1&#45;&gt;Node11</title>
<path fill="none" stroke="midnightblue" d="M139.62,-235.41C120.13,-227.57 99.07,-215.89 85,-199 74.12,-185.94 69.79,-166.78 68.08,-152.65"/>
<polygon fill="midnightblue" stroke="midnightblue" points="71.56,-152.26 67.2,-142.6 64.59,-152.87 71.56,-152.26"/>
</g>
<!-- Node12 -->
<g id="node12" class="node">
<title>Node12</title>
<g id="a_node12"><a xlink:href="specialnode_8h.html" target="_top" xlink:title=" ">
<polygon fill="white" stroke="black" points="94,-179.5 94,-198.5 178,-198.5 178,-179.5 94,-179.5"/>
<text text-anchor="middle" x="136" y="-186.5" font-family="Helvetica,sans-Serif" font-size="10.00">specialnode.h</text>
</a>
</g>
</g>
<!-- Node1&#45;&gt;Node12 -->
<g id="edge15" class="edge">
<title>Node1&#45;&gt;Node12</title>
<path fill="none" stroke="midnightblue" d="M176.44,-235.4C168.66,-226.66 158.64,-215.41 150.52,-206.3"/>
<polygon fill="midnightblue" stroke="midnightblue" points="152.98,-203.8 143.71,-198.66 147.75,-208.45 152.98,-203.8"/>
</g>
<!-- Node13 -->
<g id="node13" class="node">
<title>Node13</title>
<g id="a_node13"><a xlink:href="terminalnode_8h.html" target="_top" xlink:title=" ">
<polygon fill="white" stroke="black" points="196.5,-179.5 196.5,-198.5 287.5,-198.5 287.5,-179.5 196.5,-179.5"/>
<text text-anchor="middle" x="242" y="-186.5" font-family="Helvetica,sans-Serif" font-size="10.00">terminalnode.h</text>
</a>
</g>
</g>
<!-- Node1&#45;&gt;Node13 -->
<g id="edge17" class="edge">
<title>Node1&#45;&gt;Node13</title>
<path fill="none" stroke="midnightblue" d="M201.56,-235.4C209.34,-226.66 219.36,-215.41 227.48,-206.3"/>
<polygon fill="midnightblue" stroke="midnightblue" points="230.25,-208.45 234.29,-198.66 225.02,-203.8 230.25,-208.45"/>
</g>
<!-- Node4 -->
<g id="node4" class="node">
<title>Node4</title>
<g id="a_node4"><a xlink:href="node_8h.html" target="_top" xlink:title=" ">
<polygon fill="white" stroke="black" points="217,-123.5 217,-142.5 267,-142.5 267,-123.5 217,-123.5"/>
<text text-anchor="middle" x="242" y="-130.5" font-family="Helvetica,sans-Serif" font-size="10.00">node.h</text>
</a>
</g>
</g>
<!-- Node3&#45;&gt;Node4 -->
<g id="edge3" class="edge">
<title>Node3&#45;&gt;Node4</title>
<path fill="none" stroke="midnightblue" d="M319.14,-179.32C302.03,-170.9 278.27,-157.97 261.53,-148.07"/>
<polygon fill="midnightblue" stroke="midnightblue" points="262.96,-144.85 252.6,-142.65 259.33,-150.83 262.96,-144.85"/>
</g>
<!-- Node3&#45;&gt;Node9 -->
<g id="edge11" class="edge">
<title>Node3&#45;&gt;Node9</title>
<path fill="none" stroke="midnightblue" d="M344.58,-179.32C353.87,-161.73 375.18,-121.39 388.78,-95.63"/>
<polygon fill="midnightblue" stroke="midnightblue" points="392.01,-97.02 393.58,-86.55 385.82,-93.75 392.01,-97.02"/>
</g>
<!-- Node4&#45;&gt;Node3 -->
<g id="edge6" class="edge">
<title>Node4&#45;&gt;Node3</title>
<path fill="none" stroke="midnightblue" d="M262.82,-142.65C279.92,-151.07 303.68,-164 320.42,-173.9"/>
<polygon fill="midnightblue" stroke="midnightblue" points="319,-177.13 329.37,-179.32 322.63,-171.15 319,-177.13"/>
</g>
<!-- Node5 -->
<g id="node5" class="node">
<title>Node5</title>
<g id="a_node5"><a xlink:title=" ">
<polygon fill="white" stroke="#bfbfbf" points="109,-62 109,-81 153,-81 153,-62 109,-62"/>
<text text-anchor="middle" x="131" y="-69" font-family="Helvetica,sans-Serif" font-size="10.00">string</text>
</a>
</g>
</g>
<!-- Node4&#45;&gt;Node5 -->
<g id="edge4" class="edge">
<title>Node4&#45;&gt;Node5</title>
<path fill="none" stroke="midnightblue" d="M226.1,-123.48C207.72,-113.62 177.24,-97.29 155.76,-85.77"/>
<polygon fill="midnightblue" stroke="midnightblue" points="157.34,-82.65 146.87,-81.01 154.03,-88.82 157.34,-82.65"/>
</g>
<!-- Node6 -->
<g id="node6" class="node">
<title>Node6</title>
<g id="a_node6"><a xlink:title=" ">
<polygon fill="white" stroke="#bfbfbf" points="43.5,-62 43.5,-81 90.5,-81 90.5,-62 43.5,-62"/>
<text text-anchor="middle" x="67" y="-69" font-family="Helvetica,sans-Serif" font-size="10.00">vector</text>
</a>
</g>
</g>
<!-- Node4&#45;&gt;Node6 -->
<g id="edge5" class="edge">
<title>Node4&#45;&gt;Node6</title>
<path fill="none" stroke="midnightblue" d="M216.84,-124.91C188.24,-116.65 140.29,-102.19 100,-87 98.39,-86.39 96.74,-85.75 95.09,-85.08"/>
<polygon fill="midnightblue" stroke="midnightblue" points="96.28,-81.79 85.7,-81.13 93.56,-88.24 96.28,-81.79"/>
</g>
<!-- Node7 -->
<g id="node7" class="node">
<title>Node7</title>
<g id="a_node7"><a xlink:href="drawing_8h.html" target="_top" xlink:title=" ">
<polygon fill="white" stroke="black" points="249.5,-62 249.5,-81 314.5,-81 314.5,-62 249.5,-62"/>
<text text-anchor="middle" x="282" y="-69" font-family="Helvetica,sans-Serif" font-size="10.00">drawing.h</text>
</a>
</g>
</g>
<!-- Node4&#45;&gt;Node7 -->
<g id="edge7" class="edge">
<title>Node4&#45;&gt;Node7</title>
<path fill="none" stroke="midnightblue" d="M247.73,-123.48C253.67,-114.64 263.12,-100.59 270.59,-89.48"/>
<polygon fill="midnightblue" stroke="midnightblue" points="273.61,-91.26 276.28,-81.01 267.8,-87.36 273.61,-91.26"/>
</g>
<!-- Node4&#45;&gt;Node9 -->
<g id="edge9" class="edge">
<title>Node4&#45;&gt;Node9</title>
<path fill="none" stroke="midnightblue" d="M264.78,-123.48C287.93,-114.81 324.45,-101.15 353.86,-90.14"/>
<polygon fill="midnightblue" stroke="midnightblue" points="355.39,-93.31 363.53,-86.52 352.93,-86.75 355.39,-93.31"/>
</g>
<!-- Node10 -->
<g id="node10" class="node">
<title>Node10</title>
<g id="a_node10"><a xlink:title=" ">
<polygon fill="white" stroke="#bfbfbf" points="171,-62 171,-81 231,-81 231,-62 171,-62"/>
<text text-anchor="middle" x="201" y="-69" font-family="Helvetica,sans-Serif" font-size="10.00">iostream</text>
</a>
</g>
</g>
<!-- Node4&#45;&gt;Node10 -->
<g id="edge10" class="edge">
<title>Node4&#45;&gt;Node10</title>
<path fill="none" stroke="midnightblue" d="M236.13,-123.48C230.04,-114.64 220.36,-100.59 212.7,-89.48"/>
<polygon fill="midnightblue" stroke="midnightblue" points="215.42,-87.26 206.86,-81.01 209.66,-91.23 215.42,-87.26"/>
</g>
<!-- Node8 -->
<g id="node8" class="node">
<title>Node8</title>
<g id="a_node8"><a xlink:title=" ">
<polygon fill="white" stroke="#bfbfbf" points="255.5,-0.5 255.5,-19.5 308.5,-19.5 308.5,-0.5 255.5,-0.5"/>
<text text-anchor="middle" x="282" y="-7.5" font-family="Helvetica,sans-Serif" font-size="10.00">imgui.h</text>
</a>
</g>
</g>
<!-- Node7&#45;&gt;Node8 -->
<g id="edge8" class="edge">
<title>Node7&#45;&gt;Node8</title>
<path fill="none" stroke="midnightblue" d="M282,-61.98C282,-53.58 282,-40.48 282,-29.66"/>
<polygon fill="midnightblue" stroke="midnightblue" points="285.5,-29.51 282,-19.51 278.5,-29.51 285.5,-29.51"/>
</g>
<!-- Node11&#45;&gt;Node5 -->
<g id="edge13" class="edge">
<title>Node11&#45;&gt;Node5</title>
<path fill="none" stroke="midnightblue" d="M76.17,-123.48C86.15,-114.2 102.31,-99.17 114.51,-87.83"/>
<polygon fill="midnightblue" stroke="midnightblue" points="116.91,-90.38 121.85,-81.01 112.14,-85.25 116.91,-90.38"/>
</g>
<!-- Node11&#45;&gt;Node6 -->
<g id="edge14" class="edge">
<title>Node11&#45;&gt;Node6</title>
<path fill="none" stroke="midnightblue" d="M67,-123.48C67,-115.08 67,-101.98 67,-91.16"/>
<polygon fill="midnightblue" stroke="midnightblue" points="70.5,-91.01 67,-81.01 63.5,-91.01 70.5,-91.01"/>
</g>
<!-- Node12&#45;&gt;Node4 -->
<g id="edge16" class="edge">
<title>Node12&#45;&gt;Node4</title>
<path fill="none" stroke="midnightblue" d="M153.03,-179.32C170.03,-170.66 196.38,-157.24 215.99,-147.25"/>
<polygon fill="midnightblue" stroke="midnightblue" points="217.69,-150.31 225.01,-142.65 214.51,-144.08 217.69,-150.31"/>
</g>
<!-- Node13&#45;&gt;Node4 -->
<g id="edge18" class="edge">
<title>Node13&#45;&gt;Node4</title>
<path fill="none" stroke="midnightblue" d="M242,-179.08C242,-172.01 242,-161.86 242,-152.99"/>
<polygon fill="midnightblue" stroke="midnightblue" points="245.5,-152.75 242,-142.75 238.5,-152.75 245.5,-152.75"/>
</g>
</g>
</svg>
