<?xml version="1.0" encoding="UTF-8" standalone="no"?>
<!DOCTYPE svg PUBLIC "-//W3C//DTD SVG 1.1//EN"
 "http://www.w3.org/Graphics/SVG/1.1/DTD/svg11.dtd">
<!-- Generated by graphviz version 2.43.0 (0)
 -->
<!-- Title: /root/fyp/project/src/rule.cpp Pages: 1 -->
<svg width="770pt" height="330pt"
 viewBox="0.00 0.00 770.00 330.00" xmlns="http://www.w3.org/2000/svg" xmlns:xlink="http://www.w3.org/1999/xlink">
<g id="graph0" class="graph" transform="scale(1 1) rotate(0) translate(4 326)">
<title>/root/fyp/project/src/rule.cpp</title>
<polygon fill="white" stroke="transparent" points="-4,4 -4,-326 766,-326 766,4 -4,4"/>
<!-- Node1 -->
<g id="node1" class="node">
<title>Node1</title>
<g id="a_node1"><a xlink:title=" ">
<polygon fill="#bfbfbf" stroke="black" points="488.5,-291.5 488.5,-321.5 599.5,-321.5 599.5,-291.5 488.5,-291.5"/>
<text text-anchor="start" x="496.5" y="-309.5" font-family="Helvetica,sans-Serif" font-size="10.00">/root/fyp/project/src</text>
<text text-anchor="middle" x="544" y="-298.5" font-family="Helvetica,sans-Serif" font-size="10.00">/rule.cpp</text>
</a>
</g>
</g>
<!-- Node2 -->
<g id="node2" class="node">
<title>Node2</title>
<g id="a_node2"><a xlink:href="rule_8h.html" target="_top" xlink:title=" ">
<polygon fill="white" stroke="black" points="200,-235.5 200,-254.5 244,-254.5 244,-235.5 200,-235.5"/>
<text text-anchor="middle" x="222" y="-242.5" font-family="Helvetica,sans-Serif" font-size="10.00">rule.h</text>
</a>
</g>
</g>
<!-- Node1&#45;&gt;Node2 -->
<g id="edge1" class="edge">
<title>Node1&#45;&gt;Node2</title>
<path fill="none" stroke="midnightblue" d="M488.28,-295.2C420.64,-282.7 308.85,-262.05 254.15,-251.94"/>
<polygon fill="midnightblue" stroke="midnightblue" points="254.78,-248.5 244.32,-250.12 253.51,-255.38 254.78,-248.5"/>
</g>
<!-- Node3 -->
<g id="node3" class="node">
<title>Node3</title>
<g id="a_node3"><a xlink:title=" ">
<polygon fill="white" stroke="#bfbfbf" points="0,-179.5 0,-198.5 38,-198.5 38,-179.5 0,-179.5"/>
<text text-anchor="middle" x="19" y="-186.5" font-family="Helvetica,sans-Serif" font-size="10.00">map</text>
</a>
</g>
</g>
<!-- Node1&#45;&gt;Node3 -->
<g id="edge29" class="edge">
<title>Node1&#45;&gt;Node3</title>
<path fill="none" stroke="midnightblue" d="M488.23,-301.32C418.03,-295.2 294.13,-281.52 191,-255 138.66,-241.54 80.33,-217.46 46.82,-202.69"/>
<polygon fill="midnightblue" stroke="midnightblue" points="48.21,-199.48 37.65,-198.61 45.36,-205.87 48.21,-199.48"/>
</g>
<!-- Node5 -->
<g id="node5" class="node">
<title>Node5</title>
<g id="a_node5"><a xlink:href="node_8h.html" target="_top" xlink:title=" ">
<polygon fill="white" stroke="black" points="314,-123.5 314,-142.5 364,-142.5 364,-123.5 314,-123.5"/>
<text text-anchor="middle" x="339" y="-130.5" font-family="Helvetica,sans-Serif" font-size="10.00">node.h</text>
</a>
</g>
</g>
<!-- Node1&#45;&gt;Node5 -->
<g id="edge21" class="edge">
<title>Node1&#45;&gt;Node5</title>
<path fill="none" stroke="midnightblue" d="M488.27,-299.74C457.33,-293.62 420.63,-280.99 398,-255 375.39,-229.03 399.04,-209.47 383,-179 377,-167.6 367.19,-157.16 358.36,-149.2"/>
<polygon fill="midnightblue" stroke="midnightblue" points="360.54,-146.46 350.66,-142.65 356,-151.79 360.54,-146.46"/>
</g>
<!-- Node6 -->
<g id="node6" class="node">
<title>Node6</title>
<g id="a_node6"><a xlink:title=" ">
<polygon fill="white" stroke="#bfbfbf" points="489,-62 489,-81 533,-81 533,-62 489,-62"/>
<text text-anchor="middle" x="511" y="-69" font-family="Helvetica,sans-Serif" font-size="10.00">string</text>
</a>
</g>
</g>
<!-- Node1&#45;&gt;Node6 -->
<g id="edge27" class="edge">
<title>Node1&#45;&gt;Node6</title>
<path fill="none" stroke="midnightblue" d="M549.57,-291.33C558.06,-267.79 572.3,-219.25 563,-179 555.2,-145.25 535.17,-109.84 522.37,-89.54"/>
<polygon fill="midnightblue" stroke="midnightblue" points="525.28,-87.59 516.91,-81.1 519.41,-91.4 525.28,-87.59"/>
</g>
<!-- Node11 -->
<g id="node11" class="node">
<title>Node11</title>
<g id="a_node11"><a xlink:title=" ">
<polygon fill="white" stroke="#bfbfbf" points="571,-62 571,-81 631,-81 631,-62 571,-62"/>
<text text-anchor="middle" x="601" y="-69" font-family="Helvetica,sans-Serif" font-size="10.00">iostream</text>
</a>
</g>
</g>
<!-- Node1&#45;&gt;Node11 -->
<g id="edge26" class="edge">
<title>Node1&#45;&gt;Node11</title>
<path fill="none" stroke="midnightblue" d="M555.31,-291.35C562.43,-281.68 571.15,-268.26 576,-255 596.82,-198.04 600.51,-125.32 601.03,-91.45"/>
<polygon fill="midnightblue" stroke="midnightblue" points="604.53,-91.2 601.1,-81.18 597.53,-91.15 604.53,-91.2"/>
</g>
<!-- Node12 -->
<g id="node12" class="node">
<title>Node12</title>
<g id="a_node12"><a xlink:href="nonterminal_8h.html" target="_top" xlink:title=" ">
<polygon fill="white" stroke="black" points="468.5,-179.5 468.5,-198.5 553.5,-198.5 553.5,-179.5 468.5,-179.5"/>
<text text-anchor="middle" x="511" y="-186.5" font-family="Helvetica,sans-Serif" font-size="10.00">nonterminal.h</text>
</a>
</g>
</g>
<!-- Node1&#45;&gt;Node12 -->
<g id="edge22" class="edge">
<title>Node1&#45;&gt;Node12</title>
<path fill="none" stroke="midnightblue" d="M540.37,-291.41C536.66,-277.15 530.65,-254.48 525,-235 522.43,-226.15 519.41,-216.37 516.84,-208.2"/>
<polygon fill="midnightblue" stroke="midnightblue" points="520.15,-207.07 513.78,-198.6 513.48,-209.19 520.15,-207.07"/>
</g>
<!-- Node15 -->
<g id="node15" class="node">
<title>Node15</title>
<g id="a_node15"><a xlink:href="nonterminalnode_8h.html" target="_top" xlink:title=" ">
<polygon fill="white" stroke="black" points="406.5,-235.5 406.5,-254.5 515.5,-254.5 515.5,-235.5 406.5,-235.5"/>
<text text-anchor="middle" x="461" y="-242.5" font-family="Helvetica,sans-Serif" font-size="10.00">nonterminalnode.h</text>
</a>
</g>
</g>
<!-- Node1&#45;&gt;Node15 -->
<g id="edge23" class="edge">
<title>Node1&#45;&gt;Node15</title>
<path fill="none" stroke="midnightblue" d="M524.33,-291.4C511.4,-282.13 494.51,-270.03 481.43,-260.65"/>
<polygon fill="midnightblue" stroke="midnightblue" points="483.24,-257.64 473.08,-254.66 479.17,-263.33 483.24,-257.64"/>
</g>
<!-- Node16 -->
<g id="node16" class="node">
<title>Node16</title>
<g id="a_node16"><a xlink:title=" ">
<polygon fill="white" stroke="#bfbfbf" points="648,-235.5 648,-254.5 712,-254.5 712,-235.5 648,-235.5"/>
<text text-anchor="middle" x="680" y="-242.5" font-family="Helvetica,sans-Serif" font-size="10.00">algorithm</text>
</a>
</g>
</g>
<!-- Node1&#45;&gt;Node16 -->
<g id="edge28" class="edge">
<title>Node1&#45;&gt;Node16</title>
<path fill="none" stroke="midnightblue" d="M576.23,-291.4C598.84,-281.51 628.84,-268.38 650.76,-258.79"/>
<polygon fill="midnightblue" stroke="midnightblue" points="652.45,-261.87 660.21,-254.66 649.65,-255.46 652.45,-261.87"/>
</g>
<!-- Node17 -->
<g id="node17" class="node">
<title>Node17</title>
<g id="a_node17"><a xlink:title=" ">
<polygon fill="white" stroke="#bfbfbf" points="730,-235.5 730,-254.5 762,-254.5 762,-235.5 730,-235.5"/>
<text text-anchor="middle" x="746" y="-242.5" font-family="Helvetica,sans-Serif" font-size="10.00">set</text>
</a>
</g>
</g>
<!-- Node1&#45;&gt;Node17 -->
<g id="edge30" class="edge">
<title>Node1&#45;&gt;Node17</title>
<path fill="none" stroke="midnightblue" d="M596.95,-291.4C629.99,-282.37 673.58,-270.04 720.23,-255.1"/>
<polygon fill="midnightblue" stroke="midnightblue" points="721.48,-258.37 729.92,-251.97 719.33,-251.71 721.48,-258.37"/>
</g>
<!-- Node2&#45;&gt;Node3 -->
<g id="edge2" class="edge">
<title>Node2&#45;&gt;Node3</title>
<path fill="none" stroke="midnightblue" d="M199.98,-238.23C167.56,-229.71 105.07,-213.26 52,-199 50.74,-198.66 49.46,-198.32 48.16,-197.97"/>
<polygon fill="midnightblue" stroke="midnightblue" points="48.76,-194.5 38.19,-195.26 46.92,-201.26 48.76,-194.5"/>
</g>
<!-- Node4 -->
<g id="node4" class="node">
<title>Node4</title>
<g id="a_node4"><a xlink:href="nodelink_8h.html" target="_top" xlink:title=" ">
<polygon fill="white" stroke="black" points="94,-179.5 94,-198.5 162,-198.5 162,-179.5 94,-179.5"/>
<text text-anchor="middle" x="128" y="-186.5" font-family="Helvetica,sans-Serif" font-size="10.00">nodelink.h</text>
</a>
</g>
</g>
<!-- Node2&#45;&gt;Node4 -->
<g id="edge3" class="edge">
<title>Node2&#45;&gt;Node4</title>
<path fill="none" stroke="midnightblue" d="M206.9,-235.32C192.1,-226.82 169.31,-213.73 152.02,-203.8"/>
<polygon fill="midnightblue" stroke="midnightblue" points="153.48,-200.6 143.07,-198.65 149.99,-206.67 153.48,-200.6"/>
</g>
<!-- Node10 -->
<g id="node10" class="node">
<title>Node10</title>
<g id="a_node10"><a xlink:title=" ">
<polygon fill="white" stroke="#bfbfbf" points="59.5,-56.5 59.5,-86.5 196.5,-86.5 196.5,-56.5 59.5,-56.5"/>
<text text-anchor="start" x="67.5" y="-74.5" font-family="Helvetica,sans-Serif" font-size="10.00">imgui/nodes/imgui_node</text>
<text text-anchor="middle" x="128" y="-63.5" font-family="Helvetica,sans-Serif" font-size="10.00">_editor.h</text>
</a>
</g>
</g>
<!-- Node2&#45;&gt;Node10 -->
<g id="edge20" class="edge">
<title>Node2&#45;&gt;Node10</title>
<path fill="none" stroke="midnightblue" d="M199.93,-239.98C164.79,-233.07 98.65,-217.86 85,-199 61.8,-166.96 88.59,-121.47 109.07,-94.67"/>
<polygon fill="midnightblue" stroke="midnightblue" points="111.95,-96.67 115.42,-86.66 106.46,-92.32 111.95,-96.67"/>
</g>
<!-- Node2&#45;&gt;Node12 -->
<g id="edge13" class="edge">
<title>Node2&#45;&gt;Node12</title>
<path fill="none" stroke="midnightblue" d="M244.2,-239.85C289.68,-231.35 394.53,-211.76 458.41,-199.83"/>
<polygon fill="midnightblue" stroke="midnightblue" points="459.11,-203.26 468.3,-197.98 457.82,-196.38 459.11,-203.26"/>
</g>
<!-- Node13 -->
<g id="node13" class="node">
<title>Node13</title>
<g id="a_node13"><a xlink:href="specialnode_8h.html" target="_top" xlink:title=" ">
<polygon fill="white" stroke="black" points="180,-179.5 180,-198.5 264,-198.5 264,-179.5 180,-179.5"/>
<text text-anchor="middle" x="222" y="-186.5" font-family="Helvetica,sans-Serif" font-size="10.00">specialnode.h</text>
</a>
</g>
</g>
<!-- Node2&#45;&gt;Node13 -->
<g id="edge16" class="edge">
<title>Node2&#45;&gt;Node13</title>
<path fill="none" stroke="midnightblue" d="M222,-235.08C222,-228.01 222,-217.86 222,-208.99"/>
<polygon fill="midnightblue" stroke="midnightblue" points="225.5,-208.75 222,-198.75 218.5,-208.75 225.5,-208.75"/>
</g>
<!-- Node14 -->
<g id="node14" class="node">
<title>Node14</title>
<g id="a_node14"><a xlink:href="terminalnode_8h.html" target="_top" xlink:title=" ">
<polygon fill="white" stroke="black" points="282.5,-179.5 282.5,-198.5 373.5,-198.5 373.5,-179.5 282.5,-179.5"/>
<text text-anchor="middle" x="328" y="-186.5" font-family="Helvetica,sans-Serif" font-size="10.00">terminalnode.h</text>
</a>
</g>
</g>
<!-- Node2&#45;&gt;Node14 -->
<g id="edge18" class="edge">
<title>Node2&#45;&gt;Node14</title>
<path fill="none" stroke="midnightblue" d="M239.03,-235.32C256.03,-226.66 282.38,-213.24 301.99,-203.25"/>
<polygon fill="midnightblue" stroke="midnightblue" points="303.69,-206.31 311.01,-198.65 300.51,-200.08 303.69,-206.31"/>
</g>
<!-- Node4&#45;&gt;Node5 -->
<g id="edge4" class="edge">
<title>Node4&#45;&gt;Node5</title>
<path fill="none" stroke="midnightblue" d="M156.34,-179.44C194.67,-169.05 262.61,-151.68 304.04,-141.7"/>
<polygon fill="midnightblue" stroke="midnightblue" points="305.05,-145.05 313.97,-139.32 303.43,-138.24 305.05,-145.05"/>
</g>
<!-- Node4&#45;&gt;Node10 -->
<g id="edge12" class="edge">
<title>Node4&#45;&gt;Node10</title>
<path fill="none" stroke="midnightblue" d="M128,-179.32C128,-161.97 128,-122.46 128,-96.66"/>
<polygon fill="midnightblue" stroke="midnightblue" points="131.5,-96.55 128,-86.55 124.5,-96.55 131.5,-96.55"/>
</g>
<!-- Node5&#45;&gt;Node4 -->
<g id="edge7" class="edge">
<title>Node5&#45;&gt;Node4</title>
<path fill="none" stroke="midnightblue" d="M313.78,-141.71C278.71,-151.27 215.07,-167.6 172.1,-178.09"/>
<polygon fill="midnightblue" stroke="midnightblue" points="171.08,-174.73 162.18,-180.49 172.73,-181.54 171.08,-174.73"/>
</g>
<!-- Node5&#45;&gt;Node6 -->
<g id="edge5" class="edge">
<title>Node5&#45;&gt;Node6</title>
<path fill="none" stroke="midnightblue" d="M363.64,-123.48C394.03,-112.96 445.75,-95.07 479.13,-83.52"/>
<polygon fill="midnightblue" stroke="midnightblue" points="480.55,-86.74 488.86,-80.16 478.26,-80.12 480.55,-86.74"/>
</g>
<!-- Node7 -->
<g id="node7" class="node">
<title>Node7</title>
<g id="a_node7"><a xlink:title=" ">
<polygon fill="white" stroke="#bfbfbf" points="401.5,-62 401.5,-81 448.5,-81 448.5,-62 401.5,-62"/>
<text text-anchor="middle" x="425" y="-69" font-family="Helvetica,sans-Serif" font-size="10.00">vector</text>
</a>
</g>
</g>
<!-- Node5&#45;&gt;Node7 -->
<g id="edge6" class="edge">
<title>Node5&#45;&gt;Node7</title>
<path fill="none" stroke="midnightblue" d="M351.32,-123.48C365.12,-113.93 387.7,-98.31 404.23,-86.87"/>
<polygon fill="midnightblue" stroke="midnightblue" points="406.47,-89.58 412.7,-81.01 402.49,-83.82 406.47,-89.58"/>
</g>
<!-- Node8 -->
<g id="node8" class="node">
<title>Node8</title>
<g id="a_node8"><a xlink:href="drawing_8h.html" target="_top" xlink:title=" ">
<polygon fill="white" stroke="black" points="306.5,-62 306.5,-81 371.5,-81 371.5,-62 306.5,-62"/>
<text text-anchor="middle" x="339" y="-69" font-family="Helvetica,sans-Serif" font-size="10.00">drawing.h</text>
</a>
</g>
</g>
<!-- Node5&#45;&gt;Node8 -->
<g id="edge8" class="edge">
<title>Node5&#45;&gt;Node8</title>
<path fill="none" stroke="midnightblue" d="M339,-123.48C339,-115.08 339,-101.98 339,-91.16"/>
<polygon fill="midnightblue" stroke="midnightblue" points="342.5,-91.01 339,-81.01 335.5,-91.01 342.5,-91.01"/>
</g>
<!-- Node5&#45;&gt;Node10 -->
<g id="edge10" class="edge">
<title>Node5&#45;&gt;Node10</title>
<path fill="none" stroke="midnightblue" d="M313.97,-124.94C283.04,-116.22 229.41,-101.1 187.66,-89.32"/>
<polygon fill="midnightblue" stroke="midnightblue" points="188.44,-85.91 177.87,-86.56 186.54,-92.64 188.44,-85.91"/>
</g>
<!-- Node5&#45;&gt;Node11 -->
<g id="edge11" class="edge">
<title>Node5&#45;&gt;Node11</title>
<path fill="none" stroke="midnightblue" d="M364.04,-126.64C402.41,-118.39 478.02,-101.95 542,-87 548.13,-85.57 554.62,-84.01 560.95,-82.47"/>
<polygon fill="midnightblue" stroke="midnightblue" points="561.83,-85.86 570.71,-80.08 560.17,-79.06 561.83,-85.86"/>
</g>
<!-- Node9 -->
<g id="node9" class="node">
<title>Node9</title>
<g id="a_node9"><a xlink:title=" ">
<polygon fill="white" stroke="#bfbfbf" points="312.5,-0.5 312.5,-19.5 365.5,-19.5 365.5,-0.5 312.5,-0.5"/>
<text text-anchor="middle" x="339" y="-7.5" font-family="Helvetica,sans-Serif" font-size="10.00">imgui.h</text>
</a>
</g>
</g>
<!-- Node8&#45;&gt;Node9 -->
<g id="edge9" class="edge">
<title>Node8&#45;&gt;Node9</title>
<path fill="none" stroke="midnightblue" d="M339,-61.98C339,-53.58 339,-40.48 339,-29.66"/>
<polygon fill="midnightblue" stroke="midnightblue" points="342.5,-29.51 339,-19.51 335.5,-29.51 342.5,-29.51"/>
</g>
<!-- Node12&#45;&gt;Node6 -->
<g id="edge14" class="edge">
<title>Node12&#45;&gt;Node6</title>
<path fill="none" stroke="midnightblue" d="M511,-179.32C511,-160.76 511,-116.84 511,-91.47"/>
<polygon fill="midnightblue" stroke="midnightblue" points="514.5,-91.28 511,-81.28 507.5,-91.28 514.5,-91.28"/>
</g>
<!-- Node12&#45;&gt;Node7 -->
<g id="edge15" class="edge">
<title>Node12&#45;&gt;Node7</title>
<path fill="none" stroke="midnightblue" d="M504.54,-179.32C490.34,-160.26 456.23,-114.45 437.63,-89.46"/>
<polygon fill="midnightblue" stroke="midnightblue" points="440.32,-87.21 431.54,-81.28 434.7,-91.39 440.32,-87.21"/>
</g>
<!-- Node13&#45;&gt;Node5 -->
<g id="edge17" class="edge">
<title>Node13&#45;&gt;Node5</title>
<path fill="none" stroke="midnightblue" d="M240.54,-179.44C259.62,-170.64 289.57,-156.81 311.44,-146.72"/>
<polygon fill="midnightblue" stroke="midnightblue" points="312.93,-149.88 320.55,-142.52 310,-143.53 312.93,-149.88"/>
</g>
<!-- Node14&#45;&gt;Node5 -->
<g id="edge19" class="edge">
<title>Node14&#45;&gt;Node5</title>
<path fill="none" stroke="midnightblue" d="M329.82,-179.08C331.27,-171.93 333.37,-161.64 335.19,-152.69"/>
<polygon fill="midnightblue" stroke="midnightblue" points="338.65,-153.25 337.22,-142.75 331.79,-151.85 338.65,-153.25"/>
</g>
<!-- Node15&#45;&gt;Node5 -->
<g id="edge24" class="edge">
<title>Node15&#45;&gt;Node5</title>
<path fill="none" stroke="midnightblue" d="M456.49,-235.1C449.34,-221.67 434.33,-195.97 416,-179 401.89,-165.93 383.34,-154.95 367.99,-147.11"/>
<polygon fill="midnightblue" stroke="midnightblue" points="369.43,-143.91 358.91,-142.64 366.33,-150.19 369.43,-143.91"/>
</g>
<!-- Node15&#45;&gt;Node12 -->
<g id="edge25" class="edge">
<title>Node15&#45;&gt;Node12</title>
<path fill="none" stroke="midnightblue" d="M469.26,-235.08C476.46,-227.3 487.11,-215.8 495.85,-206.37"/>
<polygon fill="midnightblue" stroke="midnightblue" points="498.67,-208.47 502.9,-198.75 493.53,-203.71 498.67,-208.47"/>
</g>
</g>
</svg>
