<?xml version="1.0" encoding="UTF-8" standalone="no"?>
<!DOCTYPE svg PUBLIC "-//W3C//DTD SVG 1.1//EN"
 "http://www.w3.org/Graphics/SVG/1.1/DTD/svg11.dtd">
<!-- Generated by graphviz version 2.43.0 (0)
 -->
<!-- Title: /root/fyp/project/src/specialnode.h Pages: 1 -->
<svg width="404pt" height="218pt"
 viewBox="0.00 0.00 404.00 218.00" xmlns="http://www.w3.org/2000/svg" xmlns:xlink="http://www.w3.org/1999/xlink">
<g id="graph0" class="graph" transform="scale(1 1) rotate(0) translate(4 214)">
<title>/root/fyp/project/src/specialnode.h</title>
<polygon fill="white" stroke="transparent" points="-4,4 -4,-214 400,-214 400,4 -4,4"/>
<!-- Node1 -->
<g id="node1" class="node">
<title>Node1</title>
<g id="a_node1"><a xlink:title=" ">
<polygon fill="#bfbfbf" stroke="black" points="106.5,-179.5 106.5,-209.5 217.5,-209.5 217.5,-179.5 106.5,-179.5"/>
<text text-anchor="start" x="114.5" y="-197.5" font-family="Helvetica,sans-Serif" font-size="10.00">/root/fyp/project/src</text>
<text text-anchor="middle" x="162" y="-186.5" font-family="Helvetica,sans-Serif" font-size="10.00">/specialnode.h</text>
</a>
</g>
</g>
<!-- Node2 -->
<g id="node2" class="node">
<title>Node2</title>
<g id="a_node2"><a xlink:href="node_8h.html" target="_top" xlink:title=" ">
<polygon fill="white" stroke="black" points="137,-123.5 137,-142.5 187,-142.5 187,-123.5 137,-123.5"/>
<text text-anchor="middle" x="162" y="-130.5" font-family="Helvetica,sans-Serif" font-size="10.00">node.h</text>
</a>
</g>
</g>
<!-- Node1&#45;&gt;Node2 -->
<g id="edge1" class="edge">
<title>Node1&#45;&gt;Node2</title>
<path fill="none" stroke="midnightblue" d="M162,-179.4C162,-171.47 162,-161.46 162,-152.86"/>
<polygon fill="midnightblue" stroke="midnightblue" points="165.5,-152.66 162,-142.66 158.5,-152.66 165.5,-152.66"/>
</g>
<!-- Node3 -->
<g id="node3" class="node">
<title>Node3</title>
<g id="a_node3"><a xlink:title=" ">
<polygon fill="white" stroke="#bfbfbf" points="0,-67.5 0,-86.5 44,-86.5 44,-67.5 0,-67.5"/>
<text text-anchor="middle" x="22" y="-74.5" font-family="Helvetica,sans-Serif" font-size="10.00">string</text>
</a>
</g>
</g>
<!-- Node2&#45;&gt;Node3 -->
<g id="edge2" class="edge">
<title>Node2&#45;&gt;Node3</title>
<path fill="none" stroke="midnightblue" d="M139.82,-123.44C116.57,-114.48 79.85,-100.31 53.58,-90.18"/>
<polygon fill="midnightblue" stroke="midnightblue" points="54.67,-86.85 44.08,-86.52 52.15,-93.38 54.67,-86.85"/>
</g>
<!-- Node4 -->
<g id="node4" class="node">
<title>Node4</title>
<g id="a_node4"><a xlink:title=" ">
<polygon fill="white" stroke="#bfbfbf" points="62.5,-67.5 62.5,-86.5 109.5,-86.5 109.5,-67.5 62.5,-67.5"/>
<text text-anchor="middle" x="86" y="-74.5" font-family="Helvetica,sans-Serif" font-size="10.00">vector</text>
</a>
</g>
</g>
<!-- Node2&#45;&gt;Node4 -->
<g id="edge3" class="edge">
<title>Node2&#45;&gt;Node4</title>
<path fill="none" stroke="midnightblue" d="M149.79,-123.32C138.22,-115.11 120.62,-102.6 106.84,-92.81"/>
<polygon fill="midnightblue" stroke="midnightblue" points="108.61,-89.77 98.43,-86.83 104.56,-95.48 108.61,-89.77"/>
</g>
<!-- Node5 -->
<g id="node5" class="node">
<title>Node5</title>
<g id="a_node5"><a xlink:href="nodelink_8h.html" target="_top" xlink:title=" ">
<polygon fill="white" stroke="black" points="128,-67.5 128,-86.5 196,-86.5 196,-67.5 128,-67.5"/>
<text text-anchor="middle" x="162" y="-74.5" font-family="Helvetica,sans-Serif" font-size="10.00">nodelink.h</text>
</a>
</g>
</g>
<!-- Node2&#45;&gt;Node5 -->
<g id="edge4" class="edge">
<title>Node2&#45;&gt;Node5</title>
<path fill="none" stroke="midnightblue" d="M156.83,-123.08C155.32,-115.93 154.89,-105.64 155.54,-96.69"/>
<polygon fill="midnightblue" stroke="midnightblue" points="159.02,-97.13 156.87,-86.75 152.08,-96.2 159.02,-97.13"/>
</g>
<!-- Node6 -->
<g id="node6" class="node">
<title>Node6</title>
<g id="a_node6"><a xlink:title=" ">
<polygon fill="white" stroke="#bfbfbf" points="98.5,-0.5 98.5,-30.5 235.5,-30.5 235.5,-0.5 98.5,-0.5"/>
<text text-anchor="start" x="106.5" y="-18.5" font-family="Helvetica,sans-Serif" font-size="10.00">imgui/nodes/imgui_node</text>
<text text-anchor="middle" x="167" y="-7.5" font-family="Helvetica,sans-Serif" font-size="10.00">_editor.h</text>
</a>
</g>
</g>
<!-- Node2&#45;&gt;Node6 -->
<g id="edge9" class="edge">
<title>Node2&#45;&gt;Node6</title>
<path fill="none" stroke="midnightblue" d="M174.5,-123.3C184.87,-115.25 198.89,-102.24 205,-87 211.83,-69.95 201.5,-51.73 189.9,-38.08"/>
<polygon fill="midnightblue" stroke="midnightblue" points="192.38,-35.61 183.04,-30.62 187.23,-40.35 192.38,-35.61"/>
</g>
<!-- Node7 -->
<g id="node7" class="node">
<title>Node7</title>
<g id="a_node7"><a xlink:href="drawing_8h.html" target="_top" xlink:title=" ">
<polygon fill="white" stroke="black" points="252.5,-67.5 252.5,-86.5 317.5,-86.5 317.5,-67.5 252.5,-67.5"/>
<text text-anchor="middle" x="285" y="-74.5" font-family="Helvetica,sans-Serif" font-size="10.00">drawing.h</text>
</a>
</g>
</g>
<!-- Node2&#45;&gt;Node7 -->
<g id="edge7" class="edge">
<title>Node2&#45;&gt;Node7</title>
<path fill="none" stroke="midnightblue" d="M181.49,-123.44C201.64,-114.6 233.32,-100.69 256.33,-90.59"/>
<polygon fill="midnightblue" stroke="midnightblue" points="257.85,-93.74 265.6,-86.52 255.04,-87.33 257.85,-93.74"/>
</g>
<!-- Node9 -->
<g id="node9" class="node">
<title>Node9</title>
<g id="a_node9"><a xlink:title=" ">
<polygon fill="white" stroke="#bfbfbf" points="336,-67.5 336,-86.5 396,-86.5 396,-67.5 336,-67.5"/>
<text text-anchor="middle" x="366" y="-74.5" font-family="Helvetica,sans-Serif" font-size="10.00">iostream</text>
</a>
</g>
</g>
<!-- Node2&#45;&gt;Node9 -->
<g id="edge10" class="edge">
<title>Node2&#45;&gt;Node9</title>
<path fill="none" stroke="midnightblue" d="M187.01,-125.38C221.71,-116.19 284.82,-99.49 326.07,-88.57"/>
<polygon fill="midnightblue" stroke="midnightblue" points="327.03,-91.94 335.8,-85.99 325.24,-85.17 327.03,-91.94"/>
</g>
<!-- Node5&#45;&gt;Node2 -->
<g id="edge5" class="edge">
<title>Node5&#45;&gt;Node2</title>
<path fill="none" stroke="midnightblue" d="M167.13,-86.75C168.66,-93.86 169.1,-104.14 168.47,-113.1"/>
<polygon fill="midnightblue" stroke="midnightblue" points="164.99,-112.71 167.17,-123.08 171.93,-113.62 164.99,-112.71"/>
</g>
<!-- Node5&#45;&gt;Node6 -->
<g id="edge6" class="edge">
<title>Node5&#45;&gt;Node6</title>
<path fill="none" stroke="midnightblue" d="M162.72,-67.48C163.3,-60.47 164.17,-50.19 164.97,-40.7"/>
<polygon fill="midnightblue" stroke="midnightblue" points="168.47,-40.78 165.82,-30.52 161.5,-40.19 168.47,-40.78"/>
</g>
<!-- Node8 -->
<g id="node8" class="node">
<title>Node8</title>
<g id="a_node8"><a xlink:title=" ">
<polygon fill="white" stroke="#bfbfbf" points="258.5,-6 258.5,-25 311.5,-25 311.5,-6 258.5,-6"/>
<text text-anchor="middle" x="285" y="-13" font-family="Helvetica,sans-Serif" font-size="10.00">imgui.h</text>
</a>
</g>
</g>
<!-- Node7&#45;&gt;Node8 -->
<g id="edge8" class="edge">
<title>Node7&#45;&gt;Node8</title>
<path fill="none" stroke="midnightblue" d="M285,-67.48C285,-59.08 285,-45.98 285,-35.16"/>
<polygon fill="midnightblue" stroke="midnightblue" points="288.5,-35.01 285,-25.01 281.5,-35.01 288.5,-35.01"/>
</g>
</g>
</svg>
