<?xml version="1.0" encoding="UTF-8" standalone="no"?>
<!DOCTYPE svg PUBLIC "-//W3C//DTD SVG 1.1//EN"
 "http://www.w3.org/Graphics/SVG/1.1/DTD/svg11.dtd">
<!-- Generated by graphviz version 2.43.0 (0)
 -->
<!-- Title: /root/fyp/project/src/parsergenerator/util/symbol.h Pages: 1 -->
<svg width="736pt" height="418pt"
 viewBox="0.00 0.00 736.22 418.00" xmlns="http://www.w3.org/2000/svg" xmlns:xlink="http://www.w3.org/1999/xlink">
<g id="graph0" class="graph" transform="scale(1 1) rotate(0) translate(4 414)">
<title>/root/fyp/project/src/parsergenerator/util/symbol.h</title>
<polygon fill="white" stroke="transparent" points="-4,4 -4,-414 732.22,-414 732.22,4 -4,4"/>
<!-- Node1 -->
<g id="node1" class="node">
<title>Node1</title>
<g id="a_node1"><a xlink:title=" ">
<polygon fill="#bfbfbf" stroke="black" points="149.98,-368.5 149.98,-409.5 265.98,-409.5 265.98,-368.5 149.98,-368.5"/>
<text text-anchor="start" x="157.98" y="-397.5" font-family="Helvetica,sans-Serif" font-size="10.00">/root/fyp/project/src</text>
<text text-anchor="start" x="157.98" y="-386.5" font-family="Helvetica,sans-Serif" font-size="10.00">/parsergenerator/util</text>
<text text-anchor="middle" x="207.98" y="-375.5" font-family="Helvetica,sans-Serif" font-size="10.00">/symbol.h</text>
</a>
</g>
</g>
<!-- Node2 -->
<g id="node2" class="node">
<title>Node2</title>
<g id="a_node2"><a xlink:href="parsetree_8h.html" target="_top" xlink:title=" ">
<polygon fill="white" stroke="black" points="267.98,-290.5 267.98,-331.5 383.98,-331.5 383.98,-290.5 267.98,-290.5"/>
<text text-anchor="start" x="275.98" y="-319.5" font-family="Helvetica,sans-Serif" font-size="10.00">/root/fyp/project/src</text>
<text text-anchor="start" x="275.98" y="-308.5" font-family="Helvetica,sans-Serif" font-size="10.00">/parsergenerator/util</text>
<text text-anchor="middle" x="325.98" y="-297.5" font-family="Helvetica,sans-Serif" font-size="10.00">/parsetree.h</text>
</a>
</g>
</g>
<!-- Node1&#45;&gt;Node2 -->
<g id="edge1" class="edge">
<title>Node1&#45;&gt;Node2</title>
<path fill="none" stroke="midnightblue" d="M246.92,-362.92C262.78,-352.7 280.84,-341.07 295.69,-331.51"/>
<polygon fill="midnightblue" stroke="midnightblue" points="244.88,-360.07 238.37,-368.43 248.67,-365.96 244.88,-360.07"/>
</g>
<!-- Node8 -->
<g id="node8" class="node">
<title>Node8</title>
<g id="a_node8"><a xlink:href="llpred_2parsergenerator_8h.html" target="_top" xlink:title=" ">
<polygon fill="white" stroke="black" points="41.98,-134.5 41.98,-175.5 169.98,-175.5 169.98,-134.5 41.98,-134.5"/>
<text text-anchor="start" x="49.98" y="-163.5" font-family="Helvetica,sans-Serif" font-size="10.00">/root/fyp/project/src</text>
<text text-anchor="start" x="49.98" y="-152.5" font-family="Helvetica,sans-Serif" font-size="10.00">/parsergenerator/llpred</text>
<text text-anchor="middle" x="105.98" y="-141.5" font-family="Helvetica,sans-Serif" font-size="10.00">/parsergenerator.h</text>
</a>
</g>
</g>
<!-- Node1&#45;&gt;Node8 -->
<g id="edge22" class="edge">
<title>Node1&#45;&gt;Node8</title>
<path fill="none" stroke="midnightblue" d="M139.87,-378.08C87.84,-368.94 22.36,-353.53 5.98,-332 -14.85,-304.6 26.99,-216.22 29.98,-212 40.41,-197.3 55.91,-184.89 70.2,-175.52"/>
<polygon fill="midnightblue" stroke="midnightblue" points="139.29,-381.53 149.74,-379.77 140.47,-374.63 139.29,-381.53"/>
</g>
<!-- Node10 -->
<g id="node10" class="node">
<title>Node10</title>
<g id="a_node10"><a xlink:href="bnf_2parsergenerator_8h.html" target="_top" xlink:title=" ">
<polygon fill="white" stroke="black" points="181.98,-212.5 181.98,-253.5 297.98,-253.5 297.98,-212.5 181.98,-212.5"/>
<text text-anchor="start" x="189.98" y="-241.5" font-family="Helvetica,sans-Serif" font-size="10.00">/root/fyp/project/src</text>
<text text-anchor="start" x="189.98" y="-230.5" font-family="Helvetica,sans-Serif" font-size="10.00">/parsergenerator/bnf</text>
<text text-anchor="middle" x="239.98" y="-219.5" font-family="Helvetica,sans-Serif" font-size="10.00">/parsergenerator.h</text>
</a>
</g>
</g>
<!-- Node1&#45;&gt;Node10 -->
<g id="edge25" class="edge">
<title>Node1&#45;&gt;Node10</title>
<path fill="none" stroke="midnightblue" d="M214.14,-358.36C220.53,-327.61 230.35,-280.36 235.86,-253.83"/>
<polygon fill="midnightblue" stroke="midnightblue" points="210.64,-357.99 212.03,-368.5 217.49,-359.42 210.64,-357.99"/>
</g>
<!-- Node13 -->
<g id="node13" class="node">
<title>Node13</title>
<g id="a_node13"><a xlink:href="parseableinput_8h.html" target="_top" xlink:title=" ">
<polygon fill="white" stroke="black" points="47.98,-212.5 47.98,-253.5 163.98,-253.5 163.98,-212.5 47.98,-212.5"/>
<text text-anchor="start" x="55.98" y="-241.5" font-family="Helvetica,sans-Serif" font-size="10.00">/root/fyp/project/src</text>
<text text-anchor="start" x="55.98" y="-230.5" font-family="Helvetica,sans-Serif" font-size="10.00">/parsergenerator/util</text>
<text text-anchor="middle" x="105.98" y="-219.5" font-family="Helvetica,sans-Serif" font-size="10.00">/parseableinput.h</text>
</a>
</g>
</g>
<!-- Node1&#45;&gt;Node13 -->
<g id="edge19" class="edge">
<title>Node1&#45;&gt;Node13</title>
<path fill="none" stroke="midnightblue" d="M193.26,-359.35C182.61,-339.39 167.43,-312.43 151.98,-290 143.27,-277.36 132.41,-264.05 123.44,-253.58"/>
<polygon fill="midnightblue" stroke="midnightblue" points="190.2,-361.05 197.96,-368.26 196.39,-357.78 190.2,-361.05"/>
</g>
<!-- Node14 -->
<g id="node14" class="node">
<title>Node14</title>
<g id="a_node14"><a xlink:href="parsertable_8h.html" target="_top" xlink:title=" ">
<polygon fill="white" stroke="black" points="14.98,-290.5 14.98,-331.5 142.98,-331.5 142.98,-290.5 14.98,-290.5"/>
<text text-anchor="start" x="22.98" y="-319.5" font-family="Helvetica,sans-Serif" font-size="10.00">/root/fyp/project/src</text>
<text text-anchor="start" x="22.98" y="-308.5" font-family="Helvetica,sans-Serif" font-size="10.00">/parsergenerator/llpred</text>
<text text-anchor="middle" x="78.98" y="-297.5" font-family="Helvetica,sans-Serif" font-size="10.00">/parsertable.h</text>
</a>
</g>
</g>
<!-- Node1&#45;&gt;Node14 -->
<g id="edge23" class="edge">
<title>Node1&#45;&gt;Node14</title>
<path fill="none" stroke="midnightblue" d="M165.89,-363.2C148.43,-352.92 128.47,-341.16 112.09,-331.51"/>
<polygon fill="midnightblue" stroke="midnightblue" points="164.37,-366.37 174.76,-368.43 167.92,-360.34 164.37,-366.37"/>
</g>
<!-- Node15 -->
<g id="node15" class="node">
<title>Node15</title>
<g id="a_node15"><a xlink:href="symbol_8cpp.html" target="_top" xlink:title=" ">
<polygon fill="white" stroke="black" points="401.98,-290.5 401.98,-331.5 517.98,-331.5 517.98,-290.5 401.98,-290.5"/>
<text text-anchor="start" x="409.98" y="-319.5" font-family="Helvetica,sans-Serif" font-size="10.00">/root/fyp/project/src</text>
<text text-anchor="start" x="409.98" y="-308.5" font-family="Helvetica,sans-Serif" font-size="10.00">/parsergenerator/util</text>
<text text-anchor="middle" x="459.98" y="-297.5" font-family="Helvetica,sans-Serif" font-size="10.00">/symbol.cpp</text>
</a>
</g>
</g>
<!-- Node1&#45;&gt;Node15 -->
<g id="edge26" class="edge">
<title>Node1&#45;&gt;Node15</title>
<path fill="none" stroke="midnightblue" d="M275.88,-367.52C315.19,-355.67 364.16,-340.9 401.71,-329.57"/>
<polygon fill="midnightblue" stroke="midnightblue" points="274.67,-364.23 266.11,-370.47 276.69,-370.93 274.67,-364.23"/>
</g>
<!-- Node3 -->
<g id="node3" class="node">
<title>Node3</title>
<g id="a_node3"><a xlink:href="iparsergenerator_8h.html" target="_top" xlink:title=" ">
<polygon fill="white" stroke="black" points="353.98,-218 353.98,-248 543.98,-248 543.98,-218 353.98,-218"/>
<text text-anchor="start" x="361.98" y="-236" font-family="Helvetica,sans-Serif" font-size="10.00">/root/fyp/project/src</text>
<text text-anchor="middle" x="448.98" y="-225" font-family="Helvetica,sans-Serif" font-size="10.00">/parsergenerator/iparsergenerator.h</text>
</a>
</g>
</g>
<!-- Node2&#45;&gt;Node3 -->
<g id="edge2" class="edge">
<title>Node2&#45;&gt;Node3</title>
<path fill="none" stroke="midnightblue" d="M366.2,-285.15C386.01,-272.91 409.18,-258.59 425.96,-248.23"/>
<polygon fill="midnightblue" stroke="midnightblue" points="364.32,-282.19 357.66,-290.43 368,-288.15 364.32,-282.19"/>
</g>
<!-- Node6 -->
<g id="node6" class="node">
<title>Node6</title>
<g id="a_node6"><a xlink:href="maingui_8cpp.html" target="_top" xlink:title=" ">
<polygon fill="white" stroke="black" points="612.48,-0.5 612.48,-30.5 723.48,-30.5 723.48,-0.5 612.48,-0.5"/>
<text text-anchor="start" x="620.48" y="-18.5" font-family="Helvetica,sans-Serif" font-size="10.00">/root/fyp/project/src</text>
<text text-anchor="middle" x="667.98" y="-7.5" font-family="Helvetica,sans-Serif" font-size="10.00">/maingui.cpp</text>
</a>
</g>
</g>
<!-- Node2&#45;&gt;Node6 -->
<g id="edge15" class="edge">
<title>Node2&#45;&gt;Node6</title>
<path fill="none" stroke="midnightblue" d="M394.3,-290.17C472.71,-278.29 640.42,-296.43 686.98,-254 748.66,-197.79 729.41,-146.48 703.98,-67 699.58,-53.26 689.93,-40.07 681.72,-30.61"/>
<polygon fill="midnightblue" stroke="midnightblue" points="393.52,-286.76 384.3,-291.96 394.76,-293.65 393.52,-286.76"/>
</g>
<!-- Node2&#45;&gt;Node8 -->
<g id="edge12" class="edge">
<title>Node2&#45;&gt;Node8</title>
<path fill="none" stroke="midnightblue" d="M327.97,-280.16C327.74,-258.6 323.77,-230.2 306.98,-212 288.4,-191.87 221.61,-175.98 170.07,-166.34"/>
<polygon fill="midnightblue" stroke="midnightblue" points="324.46,-280.36 327.8,-290.41 331.46,-280.47 324.46,-280.36"/>
</g>
<!-- Node2&#45;&gt;Node10 -->
<g id="edge13" class="edge">
<title>Node2&#45;&gt;Node10</title>
<path fill="none" stroke="midnightblue" d="M296.31,-283.78C285.07,-273.84 272.47,-262.72 262.05,-253.51"/>
<polygon fill="midnightblue" stroke="midnightblue" points="294.02,-286.43 303.83,-290.43 298.66,-281.18 294.02,-286.43"/>
</g>
<!-- Node11 -->
<g id="node11" class="node">
<title>Node11</title>
<g id="a_node11"><a xlink:href="parsetreerenderer_8h.html" target="_top" xlink:title=" ">
<polygon fill="white" stroke="black" points="561.98,-218 561.98,-248 677.98,-248 677.98,-218 561.98,-218"/>
<text text-anchor="start" x="569.98" y="-236" font-family="Helvetica,sans-Serif" font-size="10.00">/root/fyp/project/src</text>
<text text-anchor="middle" x="619.98" y="-225" font-family="Helvetica,sans-Serif" font-size="10.00">/parsetreerenderer.h</text>
</a>
</g>
</g>
<!-- Node2&#45;&gt;Node11 -->
<g id="edge16" class="edge">
<title>Node2&#45;&gt;Node11</title>
<path fill="none" stroke="midnightblue" d="M393.94,-289.84C465.22,-271.6 485.49,-271.64 552.98,-254 559.91,-252.19 567.2,-250.15 574.33,-248.08"/>
<polygon fill="midnightblue" stroke="midnightblue" points="392.82,-286.51 384.02,-292.41 394.57,-293.29 392.82,-286.51"/>
</g>
<!-- Node4 -->
<g id="node4" class="node">
<title>Node4</title>
<g id="a_node4"><a xlink:href="maingui_8h.html" target="_top" xlink:title=" ">
<polygon fill="white" stroke="black" points="420.48,-140 420.48,-170 531.48,-170 531.48,-140 420.48,-140"/>
<text text-anchor="start" x="428.48" y="-158" font-family="Helvetica,sans-Serif" font-size="10.00">/root/fyp/project/src</text>
<text text-anchor="middle" x="475.98" y="-147" font-family="Helvetica,sans-Serif" font-size="10.00">/maingui.h</text>
</a>
</g>
</g>
<!-- Node3&#45;&gt;Node4 -->
<g id="edge3" class="edge">
<title>Node3&#45;&gt;Node4</title>
<path fill="none" stroke="midnightblue" d="M457.52,-207.96C461.93,-195.55 467.16,-180.83 470.92,-170.23"/>
<polygon fill="midnightblue" stroke="midnightblue" points="454.11,-207.11 454.06,-217.7 460.7,-209.45 454.11,-207.11"/>
</g>
<!-- Node7 -->
<g id="node7" class="node">
<title>Node7</title>
<g id="a_node7"><a xlink:href="factory_8h.html" target="_top" xlink:title=" ">
<polygon fill="white" stroke="black" points="223.48,-67.5 223.48,-97.5 366.48,-97.5 366.48,-67.5 223.48,-67.5"/>
<text text-anchor="start" x="231.48" y="-85.5" font-family="Helvetica,sans-Serif" font-size="10.00">/root/fyp/project/src</text>
<text text-anchor="middle" x="294.98" y="-74.5" font-family="Helvetica,sans-Serif" font-size="10.00">/parsergenerator/factory.h</text>
</a>
</g>
</g>
<!-- Node3&#45;&gt;Node7 -->
<g id="edge6" class="edge">
<title>Node3&#45;&gt;Node7</title>
<path fill="none" stroke="midnightblue" d="M434.55,-209.19C420.51,-188.11 397.71,-156.71 372.98,-134 357.41,-119.71 337.35,-106.82 321.48,-97.64"/>
<polygon fill="midnightblue" stroke="midnightblue" points="431.79,-211.36 440.19,-217.81 437.65,-207.53 431.79,-211.36"/>
</g>
<!-- Node3&#45;&gt;Node8 -->
<g id="edge8" class="edge">
<title>Node3&#45;&gt;Node8</title>
<path fill="none" stroke="midnightblue" d="M375.71,-215.77C314.63,-202.23 228.46,-183.14 170.08,-170.2"/>
<polygon fill="midnightblue" stroke="midnightblue" points="375.15,-219.23 385.67,-217.97 376.66,-212.39 375.15,-219.23"/>
</g>
<!-- Node9 -->
<g id="node9" class="node">
<title>Node9</title>
<g id="a_node9"><a xlink:href="lexyacc_2parsergenerator_8h.html" target="_top" xlink:title=" ">
<polygon fill="white" stroke="black" points="225.98,-134.5 225.98,-175.5 363.98,-175.5 363.98,-134.5 225.98,-134.5"/>
<text text-anchor="start" x="233.98" y="-163.5" font-family="Helvetica,sans-Serif" font-size="10.00">/root/fyp/project/src</text>
<text text-anchor="start" x="233.98" y="-152.5" font-family="Helvetica,sans-Serif" font-size="10.00">/parsergenerator/lexyacc</text>
<text text-anchor="middle" x="294.98" y="-141.5" font-family="Helvetica,sans-Serif" font-size="10.00">/parsergenerator.h</text>
</a>
</g>
</g>
<!-- Node3&#45;&gt;Node9 -->
<g id="edge10" class="edge">
<title>Node3&#45;&gt;Node9</title>
<path fill="none" stroke="midnightblue" d="M411.19,-213.35C387.99,-201.9 358.31,-187.25 334.75,-175.63"/>
<polygon fill="midnightblue" stroke="midnightblue" points="409.86,-216.6 420.37,-217.88 412.96,-210.32 409.86,-216.6"/>
</g>
<!-- Node5 -->
<g id="node5" class="node">
<title>Node5</title>
<g id="a_node5"><a xlink:href="main_8cpp.html" target="_top" xlink:title=" ">
<polygon fill="white" stroke="black" points="420.48,-67.5 420.48,-97.5 531.48,-97.5 531.48,-67.5 420.48,-67.5"/>
<text text-anchor="start" x="428.48" y="-85.5" font-family="Helvetica,sans-Serif" font-size="10.00">/root/fyp/project/src</text>
<text text-anchor="middle" x="475.98" y="-74.5" font-family="Helvetica,sans-Serif" font-size="10.00">/main.cpp</text>
</a>
</g>
</g>
<!-- Node4&#45;&gt;Node5 -->
<g id="edge4" class="edge">
<title>Node4&#45;&gt;Node5</title>
<path fill="none" stroke="midnightblue" d="M475.98,-129.73C475.98,-119.07 475.98,-106.91 475.98,-97.75"/>
<polygon fill="midnightblue" stroke="midnightblue" points="472.48,-129.73 475.98,-139.73 479.48,-129.73 472.48,-129.73"/>
</g>
<!-- Node4&#45;&gt;Node6 -->
<g id="edge5" class="edge">
<title>Node4&#45;&gt;Node6</title>
<path fill="none" stroke="midnightblue" d="M504.18,-133.81C543.56,-105.6 614.05,-55.12 648.26,-30.62"/>
<polygon fill="midnightblue" stroke="midnightblue" points="501.9,-131.13 495.8,-139.8 505.97,-136.83 501.9,-131.13"/>
</g>
<!-- Node7&#45;&gt;Node6 -->
<g id="edge7" class="edge">
<title>Node7&#45;&gt;Node6</title>
<path fill="none" stroke="midnightblue" d="M376.77,-67.25C448.22,-54.8 550,-37.06 612.38,-26.19"/>
<polygon fill="midnightblue" stroke="midnightblue" points="376.15,-63.8 366.9,-68.97 377.35,-70.7 376.15,-63.8"/>
</g>
<!-- Node8&#45;&gt;Node7 -->
<g id="edge9" class="edge">
<title>Node8&#45;&gt;Node7</title>
<path fill="none" stroke="midnightblue" d="M167.77,-130.95C197.27,-119.95 231.62,-107.13 257.19,-97.6"/>
<polygon fill="midnightblue" stroke="midnightblue" points="166.52,-127.68 158.38,-134.46 168.97,-134.24 166.52,-127.68"/>
</g>
<!-- Node9&#45;&gt;Node7 -->
<g id="edge11" class="edge">
<title>Node9&#45;&gt;Node7</title>
<path fill="none" stroke="midnightblue" d="M294.98,-124.08C294.98,-115.01 294.98,-105.45 294.98,-97.89"/>
<polygon fill="midnightblue" stroke="midnightblue" points="291.48,-124.36 294.98,-134.36 298.48,-124.36 291.48,-124.36"/>
</g>
<!-- Node10&#45;&gt;Node7 -->
<g id="edge14" class="edge">
<title>Node10&#45;&gt;Node7</title>
<path fill="none" stroke="midnightblue" d="M222.86,-203.05C213.25,-182.73 205.3,-155.47 216.98,-134 225.92,-117.56 242.77,-105.65 258.53,-97.54"/>
<polygon fill="midnightblue" stroke="midnightblue" points="219.83,-204.8 227.48,-212.12 226.07,-201.62 219.83,-204.8"/>
</g>
<!-- Node11&#45;&gt;Node6 -->
<g id="edge17" class="edge">
<title>Node11&#45;&gt;Node6</title>
<path fill="none" stroke="midnightblue" d="M653.57,-211.96C665.84,-202.71 678.32,-190.52 684.98,-176 707.72,-126.38 685.68,-59.25 674.09,-30.5"/>
<polygon fill="midnightblue" stroke="midnightblue" points="651.33,-209.26 645.19,-217.89 655.37,-214.97 651.33,-209.26"/>
</g>
<!-- Node12 -->
<g id="node12" class="node">
<title>Node12</title>
<g id="a_node12"><a xlink:href="parsetreerenderer_8cpp.html" target="_top" xlink:title=" ">
<polygon fill="white" stroke="black" points="549.48,-140 549.48,-170 676.48,-170 676.48,-140 549.48,-140"/>
<text text-anchor="start" x="557.48" y="-158" font-family="Helvetica,sans-Serif" font-size="10.00">/root/fyp/project/src</text>
<text text-anchor="middle" x="612.98" y="-147" font-family="Helvetica,sans-Serif" font-size="10.00">/parsetreerenderer.cpp</text>
</a>
</g>
</g>
<!-- Node11&#45;&gt;Node12 -->
<g id="edge18" class="edge">
<title>Node11&#45;&gt;Node12</title>
<path fill="none" stroke="midnightblue" d="M617.73,-207.59C616.6,-195.26 615.26,-180.72 614.29,-170.23"/>
<polygon fill="midnightblue" stroke="midnightblue" points="614.26,-208.07 618.66,-217.7 621.23,-207.43 614.26,-208.07"/>
</g>
<!-- Node13&#45;&gt;Node8 -->
<g id="edge20" class="edge">
<title>Node13&#45;&gt;Node8</title>
<path fill="none" stroke="midnightblue" d="M105.98,-202.3C105.98,-193.3 105.98,-183.65 105.98,-175.51"/>
<polygon fill="midnightblue" stroke="midnightblue" points="102.48,-202.43 105.98,-212.43 109.48,-202.43 102.48,-202.43"/>
</g>
<!-- Node13&#45;&gt;Node9 -->
<g id="edge21" class="edge">
<title>Node13&#45;&gt;Node9</title>
<path fill="none" stroke="midnightblue" d="M164.15,-208.61C190.53,-198 221.37,-185.6 246.47,-175.51"/>
<polygon fill="midnightblue" stroke="midnightblue" points="162.62,-205.45 154.65,-212.43 165.24,-211.94 162.62,-205.45"/>
</g>
<!-- Node14&#45;&gt;Node8 -->
<g id="edge24" class="edge">
<title>Node14&#45;&gt;Node8</title>
<path fill="none" stroke="midnightblue" d="M54.16,-282.38C47.98,-273.87 42.21,-264.07 38.98,-254 33.28,-236.22 31.07,-228.91 38.98,-212 45.91,-197.17 58.92,-184.88 71.64,-175.64"/>
<polygon fill="midnightblue" stroke="midnightblue" points="51.5,-284.67 60.39,-290.43 57.04,-280.38 51.5,-284.67"/>
</g>
</g>
</svg>
