<?xml version="1.0" encoding="UTF-8" standalone="no"?>
<!DOCTYPE svg PUBLIC "-//W3C//DTD SVG 1.1//EN"
 "http://www.w3.org/Graphics/SVG/1.1/DTD/svg11.dtd">
<!-- Generated by graphviz version 2.43.0 (0)
 -->
<!-- Title: /root/fyp/project/src/parsergenerator/llpred/token.h Pages: 1 -->
<svg width="190pt" height="340pt"
 viewBox="0.00 0.00 189.50 340.00" xmlns="http://www.w3.org/2000/svg" xmlns:xlink="http://www.w3.org/1999/xlink">
<g id="graph0" class="graph" transform="scale(1 1) rotate(0) translate(4 336)">
<title>/root/fyp/project/src/parsergenerator/llpred/token.h</title>
<polygon fill="white" stroke="transparent" points="-4,4 -4,-336 185.5,-336 185.5,4 -4,4"/>
<!-- Node1 -->
<g id="node1" class="node">
<title>Node1</title>
<g id="a_node1"><a xlink:title=" ">
<polygon fill="#bfbfbf" stroke="black" points="46,-290.5 46,-331.5 174,-331.5 174,-290.5 46,-290.5"/>
<text text-anchor="start" x="54" y="-319.5" font-family="Helvetica,sans-Serif" font-size="10.00">/root/fyp/project/src</text>
<text text-anchor="start" x="54" y="-308.5" font-family="Helvetica,sans-Serif" font-size="10.00">/parsergenerator/llpred</text>
<text text-anchor="middle" x="110" y="-297.5" font-family="Helvetica,sans-Serif" font-size="10.00">/token.h</text>
</a>
</g>
</g>
<!-- Node2 -->
<g id="node2" class="node">
<title>Node2</title>
<g id="a_node2"><a xlink:href="lexer_8h.html" target="_top" xlink:title=" ">
<polygon fill="white" stroke="black" points="0,-212.5 0,-253.5 128,-253.5 128,-212.5 0,-212.5"/>
<text text-anchor="start" x="8" y="-241.5" font-family="Helvetica,sans-Serif" font-size="10.00">/root/fyp/project/src</text>
<text text-anchor="start" x="8" y="-230.5" font-family="Helvetica,sans-Serif" font-size="10.00">/parsergenerator/llpred</text>
<text text-anchor="middle" x="64" y="-219.5" font-family="Helvetica,sans-Serif" font-size="10.00">/lexer.h</text>
</a>
</g>
</g>
<!-- Node1&#45;&gt;Node2 -->
<g id="edge1" class="edge">
<title>Node1&#45;&gt;Node2</title>
<path fill="none" stroke="midnightblue" d="M92.91,-281.76C87.21,-272.35 81.01,-262.1 75.81,-253.51"/>
<polygon fill="midnightblue" stroke="midnightblue" points="89.98,-283.69 98.15,-290.43 95.97,-280.06 89.98,-283.69"/>
</g>
<!-- Node3 -->
<g id="node3" class="node">
<title>Node3</title>
<g id="a_node3"><a xlink:href="llpred_2parsergenerator_8h.html" target="_top" xlink:title=" ">
<polygon fill="white" stroke="black" points="46,-134.5 46,-175.5 174,-175.5 174,-134.5 46,-134.5"/>
<text text-anchor="start" x="54" y="-163.5" font-family="Helvetica,sans-Serif" font-size="10.00">/root/fyp/project/src</text>
<text text-anchor="start" x="54" y="-152.5" font-family="Helvetica,sans-Serif" font-size="10.00">/parsergenerator/llpred</text>
<text text-anchor="middle" x="110" y="-141.5" font-family="Helvetica,sans-Serif" font-size="10.00">/parsergenerator.h</text>
</a>
</g>
</g>
<!-- Node1&#45;&gt;Node3 -->
<g id="edge5" class="edge">
<title>Node1&#45;&gt;Node3</title>
<path fill="none" stroke="midnightblue" d="M126.9,-281.24C131.04,-272.75 134.89,-263.25 137,-254 141.16,-235.8 141.16,-230.2 137,-212 134.09,-199.27 127.9,-186.06 122.18,-175.67"/>
<polygon fill="midnightblue" stroke="midnightblue" points="123.68,-279.84 122.18,-290.33 129.9,-283.07 123.68,-279.84"/>
</g>
<!-- Node2&#45;&gt;Node3 -->
<g id="edge2" class="edge">
<title>Node2&#45;&gt;Node3</title>
<path fill="none" stroke="midnightblue" d="M81.09,-203.76C86.79,-194.35 92.99,-184.1 98.19,-175.51"/>
<polygon fill="midnightblue" stroke="midnightblue" points="78.03,-202.06 75.85,-212.43 84.02,-205.69 78.03,-202.06"/>
</g>
<!-- Node4 -->
<g id="node4" class="node">
<title>Node4</title>
<g id="a_node4"><a xlink:href="factory_8h.html" target="_top" xlink:title=" ">
<polygon fill="white" stroke="black" points="38.5,-67.5 38.5,-97.5 181.5,-97.5 181.5,-67.5 38.5,-67.5"/>
<text text-anchor="start" x="46.5" y="-85.5" font-family="Helvetica,sans-Serif" font-size="10.00">/root/fyp/project/src</text>
<text text-anchor="middle" x="110" y="-74.5" font-family="Helvetica,sans-Serif" font-size="10.00">/parsergenerator/factory.h</text>
</a>
</g>
</g>
<!-- Node3&#45;&gt;Node4 -->
<g id="edge3" class="edge">
<title>Node3&#45;&gt;Node4</title>
<path fill="none" stroke="midnightblue" d="M110,-124.08C110,-115.01 110,-105.45 110,-97.89"/>
<polygon fill="midnightblue" stroke="midnightblue" points="106.5,-124.36 110,-134.36 113.5,-124.36 106.5,-124.36"/>
</g>
<!-- Node5 -->
<g id="node5" class="node">
<title>Node5</title>
<g id="a_node5"><a xlink:href="maingui_8cpp.html" target="_top" xlink:title=" ">
<polygon fill="white" stroke="black" points="54.5,-0.5 54.5,-30.5 165.5,-30.5 165.5,-0.5 54.5,-0.5"/>
<text text-anchor="start" x="62.5" y="-18.5" font-family="Helvetica,sans-Serif" font-size="10.00">/root/fyp/project/src</text>
<text text-anchor="middle" x="110" y="-7.5" font-family="Helvetica,sans-Serif" font-size="10.00">/maingui.cpp</text>
</a>
</g>
</g>
<!-- Node4&#45;&gt;Node5 -->
<g id="edge4" class="edge">
<title>Node4&#45;&gt;Node5</title>
<path fill="none" stroke="midnightblue" d="M110,-57.11C110,-48.15 110,-38.32 110,-30.58"/>
<polygon fill="midnightblue" stroke="midnightblue" points="106.5,-57.4 110,-67.4 113.5,-57.4 106.5,-57.4"/>
</g>
</g>
</svg>
